<?xml version="1.0" encoding="UTF-8" standalone="no"?>
<!-- Created with Inkscape (http://www.inkscape.org/) -->

<svg
   version="1.1"
   id="svg1"
   width="2048"
   height="2048"
   viewBox="0 0 2048 2048"
   xmlns="http://www.w3.org/2000/svg"
   xmlns:svg="http://www.w3.org/2000/svg">
  <defs
     id="defs1" />
  <g
     id="g1">
    <path
       style="fill:#000000"
       d="m 643.60445,1888.7296 c -4.22576,-6.5952 -5.88025,-30.0786 -4.56308,-64.7674 1.74996,-46.0871 5.69321,-68.7745 19.62698,-112.9231 11.27942,-35.7384 27.81552,-72.8994 52.42003,-117.8018 18.39875,-33.577 34.37879,-52.8994 97.14409,-117.4624 86.90833,-89.3976 127.68222,-132.0294 136.0941,-142.2953 23.11333,-28.2077 42.77873,-64.5035 56.23723,-103.7949 14.7773,-43.1418 20.5104,-76.4712 19.5999,-113.9428 l -0.1637,-6.7377 -8.25,6.3407 c -22.37449,17.1965 -52.74468,34.7315 -75.25,43.4475 -52.64804,20.39 -65.8949,26.1515 -98,42.6234 -58.26818,29.8953 -103.29198,61.6144 -143.35189,100.9909 -26.02143,25.5775 -44.43929,47.5453 -61.64043,73.5215 -9.41681,14.2207 -15.40855,24.8056 -38.52154,68.0514 -22.29825,41.7214 -31.52512,56.3908 -42.05131,66.8555 -13.16575,13.0888 -30.78639,19.7039 -55.43483,20.8113 -19.54368,0.878 -33.35119,-2.3676 -48.93961,-11.5038 -9.44873,-5.5377 -23.12671,-19.4698 -31.08092,-31.6583 -4.55025,-6.9725 -7.35807,-10.3815 -8.26422,-10.0338 -0.75486,0.2897 -4.91414,1.4309 -9.24286,2.5362 -15.15674,3.8698 -31.39458,6.1649 -47.49942,6.7135 l -16.02703,0.546 -10.97297,-4.3542 c -25.33421,-10.0529 -52.81543,-25.3967 -65.4786,-36.5592 -21.89529,-19.3006 -48.08643,-53.4753 -60.54499,-79.0005 -11.61566,-23.7982 -19.44697,-53.8682 -24.05686,-92.3716 -2.1888,-18.2815 -2.51369,-57.9727 -0.56464,-68.9811 10.22151,-57.732 40.19487,-114.6262 109.47526,-207.80163 49.20365,-66.17413 71.68171,-101.12368 93.707,-145.69838 19.72578,-39.92095 28.97111,-69.54652 28.99975,-92.92622 0.0227,-18.50556 4.14073,-60.38566 7.61223,-77.4152 3.80399,-18.66054 11.58437,-36.71277 24.89002,-57.75039 4.83807,-7.6495 11.62673,-18.40819 15.08591,-23.90819 11.20758,-17.81975 42.24372,-55.79098 65.56659,-80.21757 l 10.7107,-11.21758 -5.95843,-17.78242 C 510.13598,448.14966 499.79195,404.58408 493.59909,360.36185 486.9564,312.92749 484.72478,259.59606 487.61187,217.27857 l 0.55951,-8.20102 9.16431,3.32317 c 37.02651,13.42658 84.70762,35.27832 119.54413,54.78578 71.4898,40.03229 130.39291,85.97635 189.11481,147.50839 8.51112,8.91842 15.76316,15.89342 16.11565,15.5 0.35249,-0.39341 2.10866,-5.2153 3.9026,-10.7153 21.30109,-65.30664 61.6879,-121.65864 117.78795,-164.35039 l 8.30084,-6.31688 9.52554,7.15985 c 44.70669,33.60367 81.26359,75.77866 109.37219,126.18065 l 8.1831,14.67323 7.6588,0.63192 c 99.1575,8.18141 182.226,30.62346 265.3765,71.69496 100.0224,49.40523 185.1182,116.78784 254.9704,201.89678 33.5387,40.864 72.0709,98.71869 103.9194,156.03096 77.9417,140.25854 124.8473,289.36313 147.3498,468.39893 6.5382,52.0199 11.7272,131.3035 16.6567,254.5 0.6097,15.2379 1.319,97.3938 1.5907,184.25 l 0.4903,156.75 H 1261.1206 645.04611 Z m 1112.41695,-78.5 c 0.012,-5.3625 0.6768,-21.675 1.4779,-36.25 3.1714,-57.7026 3.6615,-97.5555 3.2407,-263.5 -0.2871,-113.1935 -0.7835,-169.3957 -1.5811,-179 -7.9724,-95.9982 -19.0679,-157.223 -44.4911,-245.5 -25.8551,-89.77677 -49.175,-151.52482 -82.3301,-218.00001 -23.3967,-46.90954 -40.9839,-76.65994 -69.2005,-117.05876 -17.4454,-24.97735 -24.2347,-34.09132 -36.2259,-48.62975 -84.6591,-102.6431 -220.3817,-185.86509 -363.4113,-222.83552 -19.734,-5.10087 -56.3856,-12.92371 -57.1181,-12.19118 -0.1828,0.18282 0.2088,3.23103 0.8702,6.7738 0.826,4.42369 1.1276,17.5615 0.9631,41.94141 -0.1318,19.525 0.105,37.46166 0.5262,39.85925 l 0.7659,4.35926 13.4963,4.738 c 73.7324,25.88436 154.0584,65.04692 207.4964,101.16387 44.678,30.1964 69.2335,54.66945 99.7143,99.37962 49.9766,73.30711 93.187,165.8774 126.8232,271.69541 36.6365,115.257 54.0263,208.2675 59.0447,315.8046 1.7193,36.8425 1.8296,363.097 0.1316,389.5 -0.7074,11 -1.5604,32.9375 -1.8957,48.75 l -0.6096,28.75 H 1684.8542 1756 Z M 473.5,1428.234 c 8.06119,-4.1219 13.02621,-10.6017 21.64937,-28.2544 8.60724,-17.6201 16.62038,-37.259 21.82928,-53.5 2.63304,-8.2097 3.09707,-10.9608 2.59183,-15.3668 -1.79164,-15.6243 -12.23181,-25.1332 -27.5947,-25.1332 -12.83977,0 -25.83942,14.2743 -43.05566,47.2772 -6.74052,12.9214 -8.89722,16.0899 -15.72303,23.0992 -8.5083,8.737 -10.43847,11.7252 -12.2687,18.9937 -1.83439,7.285 0.14339,12.8304 7.01107,19.6579 5.47895,5.4468 16.41508,11.9716 24.53195,14.6363 5.57605,1.8306 16.06664,1.1272 21.02859,-1.4099 z M 345.44942,1313.9406 c 11.86138,-4.4937 19.09352,-14.4352 20.1802,-27.7402 0.68945,-8.4414 2.62967,-14.8081 7.22875,-23.7208 4.66728,-9.0448 17.00632,-21.5528 26.64163,-27.0064 8.72085,-4.936 16.72641,-12.9011 19.03051,-18.9343 6.45834,-16.9109 -10.24806,-40.1769 -31.31109,-43.605 -7.19336,-1.1707 -17.15213,0.8266 -25.01344,5.0166 -14.18133,7.5586 -35.41451,26.2522 -46.03494,40.5291 -7.24809,9.7435 -16.63299,29.0626 -19.62585,40.4004 -7.579,28.7115 -5.02476,44.7715 8.40107,52.8225 7.27625,4.3633 11.71178,5.2564 24.05374,4.8434 7.81801,-0.2616 12.01965,-0.9271 16.44942,-2.6053 z m 713.21678,-254.4545 c 6.7212,-1.996 13.2799,-7.1793 17.9945,-14.2211 2.1304,-3.182 7.0629,-10.2854 10.961,-15.7854 35.5689,-50.18539 55.6316,-105.31728 60.3697,-165.89523 2.1519,-27.51196 0.9069,-37.78243 -5.766,-47.56766 -8.0466,-11.79947 -24.0601,-16.40145 -45.1598,-12.97803 -18.7166,3.03676 -25.7206,11.65307 -23.044,28.34885 1.7186,10.7204 1.4374,41.21887 -0.5172,56.09206 -3.0789,23.42847 -7.7674,37.81522 -21.5086,66 -11.6368,23.86831 -21.4707,39.19381 -34.1718,53.25471 -6.6245,7.3337 -9.2707,13.8743 -9.2023,22.7453 0.082,10.6784 5.9386,18.2319 19.3854,25.0036 12.5134,6.3016 21.4018,7.752 30.6591,5.0029 z M 536.60112,863.07318 c 7.12311,-3.23491 10.99006,-8.21636 18.35848,-23.64963 3.78376,-7.92514 7.82912,-15.74287 8.9897,-17.37276 l 2.11014,-2.96342 4.26989,2.88172 c 16.897,11.40365 49.86753,13.48538 67.0581,4.234 6.8721,-3.69833 15.44708,-12.48446 19.26218,-19.73649 4.19758,-7.97909 8.04339,-20.53588 9.25913,-30.2316 1.5675,-12.501 -1.03091,-25.62316 -7.2921,-36.82563 l -2.50149,-4.47566 16.19242,-8.09657 c 23.1144,-11.5577 27.25799,-16.42656 27.11203,-31.85755 -0.15938,-16.85095 -9.20064,-31.37014 -22.31882,-35.84139 -1.86958,-0.63724 -6.88468,-1.15861 -11.14467,-1.15861 -9.40345,0 -16.48779,2.05326 -34.83555,10.0964 -63.72539,27.93544 -111.51416,75.94927 -138.75018,139.4036 -3.90642,9.10117 -4.79932,12.33236 -5.17257,18.71845 -0.24865,4.25413 0.0792,9.86459 0.7304,12.5 3.68561,14.91535 19.75688,26.12484 37.57179,26.20581 4.75034,0.0216 8.31801,-0.56675 11.10112,-1.83067 z M 730.5,592.32807 c 2.2,-1.13352 14.9312,-7.98557 28.29156,-15.22677 26.77544,-14.51205 36.61315,-18.93055 50.30937,-22.5959 5.03648,-1.34785 9.31123,-2.60463 9.49944,-2.79285 0.18822,-0.18821 -0.14502,-4.59263 -0.74052,-9.78758 -1.34268,-11.71321 -0.48794,-43.7805 1.53074,-57.42845 0.81213,-5.49069 1.34734,-10.11233 1.18936,-10.27031 -0.60267,-0.60267 -23.52419,5.75775 -33.07995,9.17925 -21.9223,7.84942 -53.14651,25.47846 -72.44083,40.89974 -3.60754,2.88338 -8.92868,6.74109 -11.82474,8.57269 -11.51684,7.28375 -17.16767,17.4767 -15.79217,28.48585 1.42415,11.39852 11.37287,26.67736 20.70496,31.79785 4.60937,2.52914 16.70149,2.07824 22.35278,-0.83352 z"
       id="path1" />
  </g>
</svg>
