<?xml version="1.0" encoding="UTF-8" standalone="no"?>
<!-- Created with Inkscape (http://www.inkscape.org/) -->

<svg
   version="1.1"
   id="svg1"
   width="2048"
   height="2048"
   viewBox="0 0 2048 2048"
   xmlns="http://www.w3.org/2000/svg"
   xmlns:svg="http://www.w3.org/2000/svg">
  <defs
     id="defs1" />
  <g
     id="g1">
    <path
       style="fill:#000000"
       d="m 341,1758.1299 v -119.5 h 76.5 76.5 v -102.2867 -102.2868 l 85.50205,-85.4461 85.50205,-85.4461 L 664.75205,1024.219 664.5,785.27379 554,700.14349 443.5,615.01318 443.24739,427.32156 442.99478,239.62993 H 579.49739 716 v 68.5 68.5 h 85.5 85.5 v -68.5 -68.5 h 137 137 v 68.5 68.5 h 85 85 v -68.5 -68.5 h 137.0026 137.0026 l -0.2526,187.68366 -0.2526,187.68366 -110.5,85.13269 -110.5,85.13268 -0.2521,238.93378 -0.252,238.9338 85.002,84.9976 85.0021,84.9977 v 102.7522 102.7522 h 76.5 76.5 v 119.5 119.5 H 1023.5 341 Z m 1143,-84.5 v -51 H 1024 564 v 51 51 h 460 460 z m 0,-183.9145 v -28.9145 l -22.9321,-21.5855 -22.9321,-21.5855 H 1024 609.86418 L 586.93209,1439.2154 564,1460.8009 v 28.9145 28.9145 h 460 460 z m -140.2887,-169.3738 -29.7888,-29.2117 0.039,-22.75 0.039,-22.75 H 1024 734 l 0.0388,22.75 0.0387,22.75 -29.78874,29.2117 -29.78875,29.2116 H 1024 1373.5 Z m -29.4766,-545.42073 0.2653,-28.70905 29.435,-23.04095 29.435,-23.04094 -174.685,-0.2528 c -96.0767,-0.13904 -253.29326,-0.13904 -349.37002,0 l -174.68502,0.2528 29.43502,23.04094 29.43502,23.04095 0.26534,28.70905 0.26533,28.70906 H 1024 1313.9693 Z m 185.0139,-170.6165 35.2514,-27.32557 0.2684,-23.17443 0.2685,-23.17444 H 1023.5 511.96314 l 0.26843,23.14559 0.26843,23.14559 36,27.29541 36,27.29541 439.7486,0.059 439.7486,0.059 z"
       id="path1" />
  </g>
</svg>
