<?xml version="1.0" encoding="UTF-8" standalone="no"?>
<!-- Created with Inkscape (http://www.inkscape.org/) -->

<svg
   version="1.1"
   id="svg1"
   width="2048"
   height="2048"
   viewBox="0 0 2048 2048"
   xmlns="http://www.w3.org/2000/svg"
   xmlns:svg="http://www.w3.org/2000/svg">
  <defs
     id="defs1" />
  <g
     id="g1">
    <path
       style="fill:#000000"
       d="m 735.59905,1967.8466 c 4.50288,-7.8493 32.55631,-38.7299 72.63342,-79.9533 76.78958,-78.9859 127.58685,-131.9035 133.62197,-139.1996 l 6.28409,-7.5971 h -139.413 -139.413 l -6.50699,7.75 c -24.62511,29.3291 -34.63109,45.1527 -67.8194,107.25 -22.29825,41.7214 -31.52512,56.3908 -42.05131,66.8555 -13.16575,13.0888 -30.78639,19.7039 -55.43483,20.8113 -19.54368,0.878 -33.35119,-2.3676 -48.93961,-11.5038 -9.44873,-5.5377 -23.12671,-19.4698 -31.08092,-31.6583 -4.55025,-6.9725 -7.35807,-10.3815 -8.26422,-10.0338 -0.75486,0.2897 -4.91414,1.4309 -9.24286,2.5362 -15.15674,3.8698 -31.39458,6.1649 -47.49942,6.7135 l -16.02703,0.546 -10.97297,-4.3542 c -25.33421,-10.0529 -52.81543,-25.3967 -65.4786,-36.5592 -21.89529,-19.3006 -48.08643,-53.4753 -60.54499,-79.0005 -11.61566,-23.7982 -19.44697,-53.8682 -24.05686,-92.3716 -2.1888,-18.2815 -2.51369,-57.9727 -0.56464,-68.9811 10.22151,-57.732 40.19487,-114.6262 109.47526,-207.8016 49.20365,-66.1741 71.68171,-101.1237 93.707,-145.6984 19.72578,-39.9209 28.97111,-69.5465 28.99975,-92.9262 0.0227,-18.5056 4.14073,-60.3857 7.61223,-77.4152 3.80399,-18.6606 11.58437,-36.7128 24.89002,-57.7504 4.83807,-7.6495 11.62673,-18.4082 15.08591,-23.9082 11.20758,-17.81975 42.24372,-55.79098 65.56659,-80.21757 l 10.7107,-11.21758 -5.95843,-17.78242 C 510.13598,860.26667 499.79195,816.70109 493.59909,772.47886 486.9564,725.0445 484.72478,671.71307 487.61187,629.39558 l 0.55951,-8.20102 9.16431,3.32316 C 548.00755,642.89239 607.5726,672.02176 652.5,700.39844 l 12,7.57934 0.26542,-29.13946 c 0.20458,-22.45976 -0.0246,-29.42785 -1,-30.39755 C 663.06944,647.74882 613.225,609.22515 553,562.83261 L 443.5,478.48255 443.24739,290.78957 442.99478,103.0966 H 579.49739 716 v 68.5 68.5 h 85.5 85.5 v -68.5 -68.5 h 137 137 v 68.5 68.5 h 85 85 v -68.5 -68.5 h 137.0026 137.0026 l -0.2526,187.68366 -0.2526,187.68366 -110.5,85.13266 -110.5,85.13266 -0.2539,124.13729 -0.2539,124.13729 7.2539,4.17484 c 87.6321,50.43484 156.1367,107.90184 216.9421,181.98804 33.5387,40.864 72.0709,98.7187 103.9194,156.031 77.9417,140.2585 124.8473,289.3631 147.3498,468.3989 6.3132,50.2299 12.3394,141.0516 16.1401,243.25 l 0.6787,18.25 h -57.0558 -57.0557 l -0.4515,-105.75 c -0.2802,-65.6085 -0.8815,-111.0642 -1.5843,-119.75 -7.6148,-94.1172 -19.0529,-157.2751 -44.4611,-245.5 -25.8551,-89.7768 -49.175,-151.5248 -82.3301,-218 -23.3967,-46.9095 -40.9839,-76.6599 -69.2005,-117.0588 -17.4454,-24.9773 -24.2347,-34.0913 -36.2259,-48.6297 C 1442.2522,1011.765 1306.5296,928.543 1163.5,891.57257 c -19.734,-5.10087 -56.3856,-12.92371 -57.1181,-12.19118 -0.1828,0.18282 0.2088,3.23103 0.8702,6.7738 0.826,4.42369 1.1276,17.5615 0.9631,41.94141 -0.1318,19.525 0.105,37.46166 0.5262,39.85925 l 0.7659,4.35926 13.4963,4.738 C 1196.736,1002.9375 1277.062,1042.1 1330.5,1078.217 c 44.678,30.1964 69.2335,54.6694 99.7143,99.3796 49.9766,73.3071 93.187,165.8774 126.8232,271.6955 31.3141,98.5127 48.5305,181.0295 55.9202,268.0202 3.1297,36.8423 3.9111,64.127 4.6117,161.0343 l 0.6561,90.75 h -441.6718 c -353.05316,0 -441.52786,-0.2508 -440.95465,-1.25 z M 473.5,1840.351 c 8.06119,-4.1219 13.02621,-10.6017 21.64937,-28.2544 8.60724,-17.6201 16.62038,-37.259 21.82928,-53.5 2.63304,-8.2097 3.09707,-10.9608 2.59183,-15.3668 -1.79164,-15.6243 -12.23181,-25.1332 -27.5947,-25.1332 -12.83977,0 -25.83942,14.2743 -43.05566,47.2772 -6.74052,12.9214 -8.89722,16.0899 -15.72303,23.0992 -8.5083,8.737 -10.43847,11.7252 -12.2687,18.9937 -1.83439,7.285 0.14339,12.8304 7.01107,19.6579 5.47895,5.4468 16.41508,11.9716 24.53195,14.6363 5.57605,1.8306 16.06664,1.1272 21.02859,-1.4099 z M 345.44942,1726.0576 c 11.86138,-4.4937 19.09352,-14.4352 20.1802,-27.7402 0.68945,-8.4414 2.62967,-14.8081 7.22875,-23.7208 4.66728,-9.0448 17.00632,-21.5528 26.64163,-27.0064 8.72085,-4.936 16.72641,-12.9011 19.03051,-18.9343 6.45834,-16.9109 -10.24806,-40.1769 -31.31109,-43.605 -7.19336,-1.1707 -17.15213,0.8266 -25.01344,5.0166 -14.18133,7.5586 -35.41451,26.2522 -46.03494,40.5291 -7.24809,9.7435 -16.63299,29.0626 -19.62585,40.4004 -7.579,28.7115 -5.02476,44.7715 8.40107,52.8225 7.27625,4.3633 11.71178,5.2564 24.05374,4.8434 7.81801,-0.2616 12.01965,-0.9271 16.44942,-2.6053 z m 669.91888,-138.7479 c 2.2489,-3.6389 5.5861,-44.2486 4.8394,-58.8897 l -0.3661,-7.1766 -8.1708,6.2797 c -22.28597,17.1277 -52.65377,34.657 -75.1708,43.3911 -35.09374,13.6126 -41.983,16.3321 -42.38054,16.7296 -0.24904,0.249 26.82065,0.4528 60.15486,0.4528 33.3342,0 60.82648,-0.3541 61.09398,-0.7869 z m 43.2979,-115.7066 c 6.7212,-1.996 13.2799,-7.1793 17.9945,-14.2211 2.1304,-3.182 7.0629,-10.2854 10.961,-15.7854 35.5689,-50.1854 55.6316,-105.3173 60.3697,-165.8952 2.1519,-27.512 0.9069,-37.7825 -5.766,-47.5677 -8.0466,-11.7995 -24.0601,-16.4014 -45.1598,-12.978 -18.7166,3.0368 -25.7206,11.6531 -23.044,28.3488 1.7186,10.7204 1.4374,41.2189 -0.5172,56.0921 -3.0789,23.4285 -7.7674,37.8152 -21.5086,66 -11.6368,23.8683 -21.4707,39.1938 -34.1718,53.2547 -6.6245,7.3337 -9.2707,13.8743 -9.2023,22.7453 0.082,10.6784 5.9386,18.2319 19.3854,25.0036 12.5134,6.3016 21.4018,7.752 30.6591,5.0029 z M 536.60112,1275.1902 c 7.12311,-3.2349 10.99006,-8.2164 18.35848,-23.6496 3.78376,-7.9252 7.82912,-15.7429 8.9897,-17.3728 l 2.11014,-2.9634 4.26989,2.8817 c 16.897,11.4036 49.86753,13.4854 67.0581,4.234 6.8721,-3.6983 15.44708,-12.4845 19.26218,-19.7365 4.19758,-7.9791 8.04339,-20.5359 9.25913,-30.2316 1.5675,-12.501 -1.03091,-25.6231 -7.2921,-36.8256 l -2.50149,-4.4757 16.19242,-8.0965 c 23.1144,-11.5577 27.25799,-16.4266 27.11203,-31.8576 -0.15938,-16.851 -9.20064,-31.3701 -22.31882,-35.8414 -1.86958,-0.6372 -6.88468,-1.1586 -11.14467,-1.1586 -9.40345,0 -16.48779,2.0533 -34.83555,10.0964 -63.72539,27.9354 -111.51416,75.9493 -138.75018,139.4036 -3.90642,9.1012 -4.79932,12.3324 -5.17257,18.7185 -0.24865,4.2541 0.0792,9.8645 0.7304,12.5 3.68561,14.9153 19.75688,26.1248 37.57179,26.2058 4.75034,0.022 8.31801,-0.5668 11.10112,-1.8307 z M 730.5,1004.4451 c 2.2,-1.1335 14.9312,-7.98559 28.29156,-15.22679 26.77544,-14.51205 36.61315,-18.93055 50.30937,-22.5959 5.03648,-1.34785 9.31123,-2.60463 9.49944,-2.79285 0.18822,-0.18821 -0.14502,-4.59263 -0.74052,-9.78758 -1.34268,-11.71321 -0.48794,-43.7805 1.53074,-57.42845 0.81213,-5.49069 1.34734,-10.11233 1.18936,-10.27031 -0.60267,-0.60267 -23.52419,5.75775 -33.07995,9.17925 -21.9223,7.84942 -53.14651,25.47846 -72.44083,40.89974 -3.60754,2.88338 -8.92868,6.74109 -11.82474,8.57269 -11.51684,7.28375 -17.16767,17.4767 -15.79217,28.48585 1.42415,11.39852 11.37287,26.67735 20.70496,31.79785 4.60937,2.5291 16.70149,2.0782 22.35278,-0.8335 z m 217.60772,-340.43382 3.89553,-3.08531 4.19538,3.08531 4.19538,3.08532 h 176.78769 176.7876 l 0.2654,-28.70906 0.2653,-28.70905 29.435,-23.04095 29.435,-23.04094 -174.685,-0.2528 c -96.0767,-0.13904 -253.29326,-0.13904 -349.37002,0 l -174.68502,0.2528 29.43502,23.04094 29.43502,23.04095 0.26534,28.70905 0.26533,28.70906 h 105.09076 105.09076 z m 551.14088,-196.24024 35.2514,-27.32557 0.2684,-23.17443 0.2685,-23.17444 H 1023.5 511.96314 l 0.26843,23.14559 0.26843,23.14559 36,27.29541 36,27.29541 439.7486,0.059 439.7486,0.059 z"
       id="path1" />
  </g>
</svg>
