<?xml version="1.0" encoding="UTF-8" standalone="no"?>
<!-- Created with Inkscape (http://www.inkscape.org/) -->

<svg
   version="1.1"
   id="svg1"
   width="2048"
   height="1844"
   viewBox="0 0 2048 1844"
   xmlns="http://www.w3.org/2000/svg"
   xmlns:svg="http://www.w3.org/2000/svg">
  <defs
     id="defs1" />
  <g
     id="g1">
    <path
       style="fill:#000000"
       d="m 736,1721.1976 c 0,-2.3087 34.42935,-37.0498 57,-57.5161 8.525,-7.7302 15.63919,-14.3884 15.80931,-14.7961 0.17011,-0.4077 7.90593,-7.5561 17.19069,-15.8854 9.28476,-8.3293 17.02058,-15.4864 17.19069,-15.9046 0.17012,-0.4182 6.9164,-6.707 14.99173,-13.9751 8.07532,-7.2682 14.82536,-13.5615 14.99996,-13.9852 0.1747,-0.4237 5.4926,-5.3886 11.8176,-11.0331 6.325,-5.6445 12.85,-11.7229 14.5,-13.5075 1.65,-1.7846 8.175,-7.9176 14.5,-13.6289 19.0536,-17.2048 33.3728,-32.0825 42.7961,-44.4656 2.9298,-3.85 5.8697,-7.675 6.533,-8.5 11.5676,-14.3864 28.7535,-47.0957 38.35512,-73 14.1318,-38.1263 19.301,-66.0875 18.473,-99.9243 l -0.1572,-6.4243 -2.25,2.0493 c -1.2375,1.1272 -3.375,2.6291 -4.75,3.3376 -1.375,0.7086 -4.7909,3.0148 -7.5909,5.125 -2.7999,2.1102 -5.45332,3.8367 -5.89642,3.8367 -0.4431,0 -3.1022,1.5198 -5.9092,3.3774 -4.4399,2.9382 -12.7604,7.5982 -23.1035,12.9393 -6.537,3.3756 -21.2711,9.9904 -26,11.6725 -2.75,0.9782 -9.95,3.4869 -16,5.5749 -6.05,2.088 -15.5,5.4981 -21,7.578 -5.5,2.0798 -11.35,4.094 -13,4.4759 -1.65,0.3819 -6.1885,2.1398 -10.0856,3.9064 -3.8971,1.7666 -8.8471,3.7798 -11,4.4737 -10.22383,3.2954 -50.87528,22.2945 -74.41438,34.7787 -23.33128,12.374 -54.3243,31.8254 -68.47157,42.9732 -2.96645,2.3375 -5.65357,4.25 -5.97139,4.25 -1.00491,0 -13.30186,10.0748 -27.42168,22.4665 -14.71199,12.9113 -32.99252,30.6982 -40.63064,39.5335 -2.61511,3.025 -5.92834,6.85 -7.36272,8.5 -13.34829,15.3548 -23.21736,29.5125 -39.03672,56 -5.58417,9.35 -10.59252,17.675 -11.12966,18.5 -2.07728,3.1905 -8.30779,13.7946 -11.75113,20 -1.98375,3.575 -3.908,6.725 -4.27612,7 -0.36812,0.275 -1.36118,1.85 -2.2068,3.5 -0.84563,1.65 -3.40038,5.7 -5.67723,9 -2.27686,3.3 -4.90521,7.125 -5.84079,8.5 -6.22912,9.1548 -18.2009,21.7451 -23.22355,24.4235 -1.375,0.7332 -4.975,2.7073 -8,4.3868 -7.79761,4.3295 -25.62766,8.2525 -40.55292,8.9225 -14.83385,0.666 -22.35295,-0.4513 -39.19299,-5.8238 -10.30044,-3.2861 -32.89838,-20.7444 -38.4248,-29.6855 -1.11386,-1.8021 -2.56046,-3.8271 -3.21467,-4.5 -0.65421,-0.6729 -2.23885,-2.9385 -3.52142,-5.0347 -1.66495,-2.7211 -2.79834,-3.6305 -3.96257,-3.1795 -3.36088,1.3019 -21.29917,5.3806 -28.8228,6.5535 -4.29431,0.6695 -17.03283,1.2667 -28.30783,1.3272 l -20.5,0.11 -8,-3.3826 c -4.4,-1.8605 -11.15,-4.6173 -15,-6.1262 -17.25001,-6.7607 -36.69662,-17.2221 -47.98235,-25.8122 -6.63325,-5.049 -30.71377,-28.9149 -37.01765,-36.6878 -6.62298,-8.1664 -16.55892,-21.7949 -18.22,-24.9912 -0.85749,-1.65 -1.89024,-3.225 -2.29501,-3.5 -1.99093,-1.3526 -11.47632,-22.4578 -15.37906,-34.2187 -9.93496,-29.9389 -15.53628,-68.6189 -14.30471,-98.7813 0.60915,-14.9186 1.95719,-22.7447 6.98198,-40.5343 4.33043,-15.3313 19.69711,-48.0379 31.6977,-67.4657 5.20119,-8.4202 17.69345,-27.5739 19.24029,-29.5 0.4417,-0.55 3.06579,-4.15 5.83132,-8 2.76552,-3.85 5.57897,-7.675 6.25211,-8.5 0.67313,-0.825 2.32522,-3.075 3.6713,-5 3.62514,-5.1842 16.18659,-21.3453 17.48841,-22.5 0.6201,-0.55 1.79267,-1.9675 2.60572,-3.1501 0.81304,-1.1825 3.26739,-4.2861 5.4541,-6.8969 2.18672,-2.6107 5.55085,-6.6253 7.47585,-8.9213 1.925,-2.296 5.3,-6.346 7.5,-9 2.2,-2.654 5.575,-6.6994 7.5,-8.9897 1.925,-2.2903 5.075,-6.1284 7,-8.5293 1.925,-2.4008 4.85,-6.0329 6.5,-8.0713 1.65,-2.0384 4.8,-6.074 7,-8.968 2.2,-2.894 5.15369,-6.6595 6.56375,-8.3676 1.41006,-1.7082 3.65365,-4.6808 4.98575,-6.6058 1.33211,-1.925 2.97275,-4.175 3.64588,-5 0.67314,-0.825 3.48659,-4.65 6.25211,-8.5 2.76553,-3.85 5.4293,-7.4853 5.9195,-8.0784 0.4902,-0.5931 2.13793,-3.0681 3.66163,-5.5 1.5237,-2.4319 3.06434,-4.6466 3.42366,-4.9216 0.35931,-0.275 1.74025,-2.3 3.06876,-4.5 1.3285,-2.2 2.79082,-4.45 3.24958,-5 0.45877,-0.55 2.67415,-3.925 4.92307,-7.5 2.24893,-3.575 5.09664,-8.075 6.32826,-10 9.31907,-14.5656 24.1351,-43.8938 29.30044,-58 7.94283,-21.6913 9.75298,-30.6483 10.60995,-52.5 1.02171,-26.05234 5.33792,-57.32309 9.86893,-71.5 3.57473,-11.18482 9.99274,-24.13686 17.50394,-35.32427 3.68213,-5.48429 7.77534,-11.5924 9.096,-13.57358 1.32067,-1.98118 2.70878,-3.82715 3.0847,-4.10215 0.37592,-0.275 3.10188,-4.1 6.05769,-8.5 4.822,-7.17797 10.79048,-14.96395 14.9564,-19.51086 0.825,-0.90044 3.75,-4.2991 6.5,-7.55257 7.4195,-8.77786 20.94537,-22.90595 39.67029,-41.43657 l 16.67302,-16.5 -4.93104,-13 C 510.76906,726.57703 499.21061,682.72239 493.0987,642 c -5.36677,-35.75762 -7.73631,-77.88455 -6.23423,-110.83519 0.53492,-11.73436 1.12174,-21.45406 1.30405,-21.59935 0.87705,-0.69892 36.85422,11.40387 48.33148,16.25881 2.75,1.16327 7.925,3.21314 11.5,4.55527 10.41052,3.90835 25.04251,10.10985 31.51542,13.35724 3.29152,1.65132 7.10958,3.34531 8.48458,3.76442 5.86905,1.78896 55.98456,27.36215 65.71797,33.5349 2.57047,1.63014 5.07852,2.9639 5.57344,2.9639 0.49492,0 2.27408,0.97854 3.95369,2.17453 3.0049,2.13967 3.07956,2.14368 4.65893,0.25 C 671.36797,582.27121 700.24423,557 701.5261,557 c 0.3602,0 3.0252,-2.025 5.92222,-4.5 2.89702,-2.475 5.59047,-4.5 5.98545,-4.5 0.39498,0 3.34978,-2.025 6.56623,-4.5 3.21645,-2.475 6.14145,-4.5 6.5,-4.5 0.35855,0 3.28355,-2.025 6.5,-4.5 3.21645,-2.475 6.12719,-4.5 6.46833,-4.5 0.34113,0 3.51956,-2.1375 7.06317,-4.75 3.54361,-2.6125 9.39116,-6.775 12.99455,-9.25 3.60339,-2.475 8.97879,-6.4125 11.94534,-8.75 2.96654,-2.3375 5.66538,-4.25 5.99742,-4.25 0.33204,0 3.62489,-2.24545 7.31745,-4.9899 3.69256,-2.74444 9.33009,-6.90694 12.52786,-9.25 3.19776,-2.34305 8.2539,-6.1726 11.23587,-8.5101 2.98196,-2.3375 5.7171,-4.25 6.07807,-4.25 0.36097,0 3.0266,-2.025 5.92362,-4.5 2.89702,-2.475 5.59702,-4.5 6,-4.5 0.40298,0 3.10298,-2.025 6,-4.5 2.89702,-2.475 5.55275,-4.5 5.90162,-4.5 0.34887,0 3.4271,-2.24193 6.84051,-4.98208 25.66301,-20.6012 27.53477,-22.13966 33.17507,-27.26792 2.8734,-2.6125 5.5465,-4.75 5.9402,-4.75 1.3743,0 40.2492,-35.88127 59.8703,-55.25999 l 19.7794,-19.53501 -6.4419,-3.6025 c -3.543,-1.98138 -6.7616,-3.6025 -7.1524,-3.6025 -0.3908,0 -3.4676,-1.9574 -6.8375,-4.34978 -3.3698,-2.39239 -6.6553,-4.52989 -7.3009,-4.75 -0.6457,-0.22012 -5.5178,-4.45022 -10.827,-9.40022 -13.5131,-12.59906 -20.512,-22.36228 -26.5237,-37 -10.3097,-25.10292 -11.7201,-55.39976 -3.7918,-81.45619 1.8532,-6.09063 9.4853,-22.50252 11.7682,-25.30589 0.5545,-0.68086 3.3258,-4.38792 6.1585,-8.23792 6.5853,-8.95025 20.2733,-22.19627 29.8897,-28.92452 9.9377,-6.95308 28.3375,-15.81158 39.5,-19.01709 17.2571,-4.9557 23.95052,-5.88099 43.00002,-5.94433 19.4037,-0.0645 28.5083,1.18696 42.9631,5.90548 4.1793,1.36425 8.1344,2.48046 8.7891,2.48046 2.2098,0 23.1964,11.09613 29.9137,15.81611 13.9292,9.78752 27.8644,23.69826 36.6463,36.58208 3.8346,5.62558 10.1872,18.57049 12.5882,25.65125 7.2829,21.4774 7.1998,50.64552 -0.2098,73.68663 -2.6699,8.30238 -10.5575,24.38891 -13.4701,27.47203 -0.6713,0.71055 -2.549,3.0919 -4.1728,5.2919 -6.5074,8.81679 -24.9271,24.58338 -35.8376,30.67574 -0.6655,0.37166 -4.2958,2.33312 -8.0671,4.3588 l -6.8571,3.68306 23.5513,23.36208 c 43.1972,42.85005 75.7729,70.53591 130.1628,110.62428 3.85,2.83767 9.5495,7.10264 12.6655,9.47772 3.1161,2.37507 5.9589,4.31832 6.3175,4.31832 0.3585,0 3.0423,1.9125 5.9639,4.25 2.9216,2.3375 6.6037,5.02556 8.1825,5.97348 1.5788,0.94791 6.6956,4.44727 11.3706,7.77636 12.3591,8.80096 21.6645,15.21824 25.3763,17.50016 1.7892,1.1 5.5343,3.6875 8.3224,5.75 2.7881,2.0625 5.3806,3.75 5.7612,3.75 0.3806,0 3.3237,2.025 6.5401,4.5 3.2164,2.475 6.127,4.5 6.4679,4.5 0.8785,0 19.4903,14.97489 29.3431,23.60915 11.8918,10.42118 28.3846,28.19247 36.5569,39.39085 2.609,3.575 5.3015,7.1852 5.9834,8.02266 2.3233,2.85331 12.0607,19.43357 15.249,25.965 12.0302,24.64497 23.5671,58.49628 29.3139,86.01234 4.4126,21.12756 5.5111,31.15232 5.5488,50.63666 l 0.037,19.13666 6,4.15845 c 3.3,2.28715 8.25,5.72583 11,7.64151 2.75,1.91568 6.2918,4.25788 7.8706,5.20489 1.5788,0.94701 5.2609,3.63433 8.1825,5.97183 2.9216,2.3375 5.6313,4.25 6.0216,4.25 0.3903,0 3.08,2.025 5.977,4.5 2.897,2.475 5.5737,4.5 5.9483,4.5 0.3746,0 3.0028,1.92997 5.8405,4.28882 2.8377,2.35885 6.5807,5.39635 8.3178,6.75 21.4779,16.73708 49.2401,42.40771 71.0055,65.65602 16.5947,17.72524 15.8845,16.93029 29.309,32.80516 2.3255,2.75 5.1835,6.125 6.3511,7.5 3.0105,3.54534 9.8563,12.02673 12.1958,15.10963 2.6709,3.51971 14.1623,18.77699 16.4872,21.89037 1.6043,2.14833 7.784,10.6338 13.7605,18.8948 0.9529,1.3172 2.4076,3.4171 3.2326,4.6664 0.825,1.2494 5.9554,8.9468 11.4009,17.1052 13.5169,20.251 21.4312,32.7958 31.1239,49.3336 2.0952,3.575 4.7888,8.075 5.9858,10 7.9512,12.788 40.4894,74.9465 40.4894,77.3481 0,0.2337 2.0577,4.8634 4.5726,10.2884 5.838,12.5933 6.391,13.8503 11.3769,25.8635 2.2827,5.5 4.5577,10.9 5.0556,12 1.9318,4.2681 4.4297,10.7555 11.9362,31 31.8703,85.9522 53.2333,181.308 63.5139,283.5 4.0994,40.7487 11.4977,160.4931 11.5382,186.75 l 0.01,4.25 h -57 -57 l -0.01,-82.75 c 0,-45.5125 -0.4668,-91.525 -1.0296,-102.25 -3.6898,-70.324 -14.3759,-133.478 -34.3489,-203 -6.0933,-21.2096 -17.9176,-58.6063 -23.0815,-73 -10.6024,-29.5527 -18.9832,-51.9667 -21.4999,-57.5 -0.5003,-1.1 -4.0359,-9.425 -7.8568,-18.5 -12.5012,-29.691 -24.6261,-54.3146 -42.3473,-86 -14.2387,-25.4587 -16.3662,-29.1469 -17.6478,-30.5939 -0.5329,-0.6016 -1.7112,-2.5294 -2.6185,-4.2839 -0.9073,-1.7545 -3.8014,-6.4372 -6.4313,-10.4061 -2.6299,-3.9688 -5.423,-8.1903 -6.2068,-9.381 -7.6148,-11.5678 -17.7523,-26.0044 -21.4612,-30.5625 -0.7731,-0.95 -2.6035,-3.5375 -4.0676,-5.75 -1.4641,-2.2124 -2.9398,-4.0234 -3.2792,-4.0244 -0.3394,-10e-4 -1.8959,-2.026 -3.4589,-4.49999 -1.563,-2.47401 -3.1535,-4.49821 -3.5344,-4.49821 -0.3809,0 -1.5268,-1.41216 -2.5463,-3.13813 -1.0196,-1.72598 -2.5852,-3.86956 -3.4791,-4.76351 -0.894,-0.89396 -2.7236,-3.1943 -4.0659,-5.11187 -1.3423,-1.91757 -3.4378,-4.61149 -4.6566,-5.98649 -1.2189,-1.375 -4.0946,-4.75 -6.3906,-7.5 -13.0183,-15.59302 -38.5833,-41.7804 -53.0956,-54.38835 C 1475.55,903.39141 1469.9469,898.65577 1466.4603,896 c -1.8052,-1.375 -6.751,-5.2 -10.9906,-8.5 -4.2397,-3.3 -9.9069,-7.575 -12.5938,-9.5 -12.6808,-9.08484 -22.1747,-15.63416 -24.6543,-17.00749 -1.4969,-0.82912 -5.3825,-3.41662 -8.6345,-5.75 -3.252,-2.33338 -6.2852,-4.24251 -6.7403,-4.24251 -0.4551,0 -3.7853,-2.025 -7.4004,-4.5 -3.6151,-2.475 -7.0375,-4.5 -7.6053,-4.5 -0.5679,0 -2.4055,-0.97768 -4.0836,-2.17262 -2.9074,-2.07026 -10.1744,-6.17404 -26.7576,-15.11039 -17.0434,-9.18438 -55.3306,-27.52911 -61,-29.2272 -1.375,-0.41184 -4.75,-1.88037 -7.5,-3.2634 -2.75,-1.38302 -7.925,-3.53244 -11.5,-4.77648 -3.575,-1.24404 -9.875,-3.6207 -14,-5.28147 -15.5547,-6.26249 -51.5448,-18.0739 -68.5,-22.48069 -35.3743,-9.19406 -63.2917,-15.41304 -75.3311,-16.78106 -4.7316,-0.53764 -9.6954,-1.25172 -11.0307,-1.58684 -2.1711,-0.54492 -2.3633,-0.35272 -1.8184,1.81838 1.9658,7.83212 2.6269,22.84858 2.0853,47.36177 -0.3282,14.85 -0.2045,28.75872 0.2748,30.90827 0.9749,4.37192 0.8041,4.28273 18.3201,9.56936 14.4649,4.36577 54.8083,18.73261 66,23.50354 3.575,1.52399 8.75,3.56419 11.5,4.53377 5.5807,1.96762 17.6726,7.10828 30.5,12.96651 4.675,2.13505 13.675,6.19699 20,9.02653 6.325,2.82953 12.175,5.49183 13,5.91622 0.825,0.42439 4.875,2.4395 9,4.47802 8.1323,4.01889 9.0841,4.51025 22.5,11.6157 26.4595,14.01373 47.4648,27.1429 64.767,40.48208 2.8536,2.2 6.1641,4.675 7.3567,5.5 11.0596,7.65057 34.5071,30.25093 43.9036,42.31737 1.635,2.09955 4.3227,5.51788 5.9727,7.59627 1.65,2.07836 5.844,7.56056 9.32,12.18266 3.476,4.622 7.286,9.6805 8.4665,11.241 1.1806,1.5606 2.8366,3.8778 3.68,5.1494 0.8434,1.2716 6.3039,9.4448 12.1343,18.1626 5.8305,8.7179 11.3488,17.2007 12.2629,18.8507 0.9141,1.65 3.4991,5.925 5.7444,9.5 2.2453,3.575 9.337,15.95 15.7593,27.5 33.5565,60.3482 58.03,119.0027 84.4927,202.5 25.0409,79.0109 38.8391,155.0169 42.5714,234.5 0.5424,11.55 1.2789,57.5625 1.6368,102.25 l 0.6507,81.25 H 1177.1095 C 934.49928,1722 736,1721.6389 736,1721.1976 Z M 474.63098,1606.6908 c 4.97768,-2.574 13.8088,-11.8661 16.338,-17.1908 1.30624,-2.75 4.56007,-8.9088 7.23072,-13.6862 2.67065,-4.7774 6.67336,-12.8774 8.89491,-18 2.22154,-5.1226 4.45515,-10.2138 4.96356,-11.3138 0.50842,-1.1 2.54445,-6.5 4.52451,-12 4.18401,-11.6219 4.15376,-17.1398 -0.14041,-25.6139 -4.23694,-8.3612 -15.45726,-13.7156 -26.51491,-12.6531 -12.13177,1.1657 -26.91857,16.7302 -41.98312,44.1913 -5.53287,10.0858 -7.01118,11.9235 -17.25069,21.4442 -12.25947,11.3989 -13.71791,22.1606 -4.32786,31.935 4.33014,4.5074 19.43117,12.9413 25.63431,14.3167 5.42207,1.2023 19.22823,0.3303 22.63098,-1.4294 z M 346.5,1503.5108 c 12.27895,-4.8293 17.90243,-12.3162 19.42089,-25.8563 0.94579,-8.4337 4.81789,-17.813 10.33864,-25.0434 6.8458,-8.9656 14.46049,-14.7257 32.19825,-24.3559 2.87252,-1.5595 9.18616,-9.1885 10.53044,-12.7242 4.54934,-11.9657 -4.26411,-27.3626 -20.32407,-35.5057 l -8.42939,-4.2741 -9.4833,0.4147 c -8.74187,0.3824 -10.17789,0.754 -18.36738,4.753 -20.18508,9.8566 -41.1532,27.8297 -52.60415,45.0905 -6.21746,9.3719 -11.55021,21.0815 -14.1395,31.0471 -6.50562,25.0388 -3.68121,38.3605 9.54896,45.0391 8.29265,4.1861 11.95559,4.8787 23.81061,4.502 8.57671,-0.2726 11.7822,-0.838 17.5,-3.0868 z m 715.72,-229.5142 c 11.3316,-3.2716 45.4939,-49.9344 61.4948,-83.9966 2.1961,-4.675 4.3387,-9.625 4.7614,-11 0.4227,-1.375 1.1115,-2.95 1.5307,-3.5 0.4191,-0.55 2.824,-7.3 5.3441,-15 8.1898,-25.0238 12.1997,-47.4317 13.3316,-74.5 0.4984,-11.919 0.3077,-15.5266 -1.0712,-20.2677 -4.841,-16.6442 -19.0729,-24.6524 -41.6114,-23.4146 -17.8621,0.981 -28.2975,5.6574 -31.5336,14.1311 -1.5624,4.0911 -1.6379,5.6239 -0.6325,12.8482 1.7653,12.6852 1.9657,19.053 1.0801,34.3126 -0.9011,15.5262 -3.6434,30.8916 -7.5531,42.3201 -4.8776,14.2583 -17.0197,37.6286 -28.3522,54.5703 -7.5831,11.3366 -9.6464,13.9039 -19.6589,24.4609 -8.5362,9.0006 -10.5969,13.2578 -10.6915,22.0879 -0.077,7.147 1.674,11.1426 7.0217,16.027 4.3288,3.9539 17.1327,10.1844 23.82,11.5911 6.4685,1.3607 16.7345,1.0578 22.72,-0.6703 z M 536.5,1097.952 c 9.54206,-4.7809 10.21806,-5.5156 17.03041,-18.5092 6.44876,-12.3001 11.43846,-20.4428 12.52697,-20.4428 0.50192,0 3.07896,1.333 5.72677,2.9622 11.45784,7.0501 39.00745,10.0738 55.71585,6.1151 17.76557,-4.2091 28.87029,-15.2298 35.34482,-35.0773 5.45537,-16.7233 4.68516,-30.217 -2.50196,-43.83305 C 658.50429,985.68377 657,982.7332 657,982.61014 c 0,-0.12307 3.2625,-1.72201 7.25,-3.5532 26.58374,-12.20814 27.54636,-12.781 31.51118,-18.75246 3.54597,-5.34062 3.73882,-6.04817 3.73882,-13.71777 0,-7.06649 -0.41615,-8.96983 -3.29859,-15.08671 -4.15063,-8.80811 -10.39534,-14.88617 -17.44536,-16.97981 -6.24474,-1.85448 -18.11077,-1.91034 -26.43223,-0.12442 -7.08095,1.51968 -24.11884,8.00806 -35.82382,13.64245 -4.4,2.11801 -9.24787,4.31868 -10.77304,4.89036 -1.52517,0.57169 -5.12517,2.53649 -8,4.36623 -2.87483,1.82973 -6.01964,3.62479 -6.98846,3.98902 -2.32947,0.87575 -17.68265,10.98413 -25.2385,16.61677 -12.17907,9.07911 -28.69836,24.51372 -38.18335,35.6762 -8.48805,9.9892 -10.10399,12.0788 -15.02062,19.4232 -8.96711,13.3949 -12.50828,19.3292 -17.53957,29.3928 C 488.05031,1055.8063 487,1059.1384 487,1067 c 0,8.2468 1.83401,13.7405 6.4799,19.4102 8.86926,10.8237 32.04382,17.0412 43.0201,11.5418 z m 207,-249.80777 c 9.35,-4.56207 19.475,-9.57815 22.5,-11.14684 12.85372,-6.66565 31.09993,-13.84036 40.66621,-15.99065 5.59141,-1.25682 10.64852,-2.58322 11.23801,-2.94755 0.76137,-0.47055 0.75011,-3.25414 -0.0389,-9.6108 -1.35931,-10.95121 -0.53621,-38.25116 1.54994,-51.40748 0.82494,-5.2025 1.37995,-9.57904 1.23335,-9.72564 -0.42419,-0.42419 -21.54823,4.53028 -28.14861,6.60202 -27.99299,8.78651 -55.98683,22.72074 -77.05407,38.35447 -3.53661,2.62447 -7.44623,5.15926 -8.68806,5.63288 -1.24183,0.47362 -5.04754,2.95981 -8.45713,5.52487 -8.50096,6.39531 -11.85008,13.04055 -10.94354,21.71385 0.80605,7.71191 5.47706,16.73524 11.97263,23.12842 7.49311,7.37499 10.80286,8.79785 19.67017,8.45614 7.11296,-0.2741 8.3773,-0.71707 24.5,-8.58369 z M 1062.8281,626.75 c -0.3213,-23.74733 -0.3824,-24.36588 -2.9498,-29.84054 -3.0164,-6.43222 -6.1377,-9.62327 -13.2939,-13.59064 -4.9431,-2.7405 -5.5012,-2.81882 -20.0844,-2.81882 -14.52,0 -21.5,1.17567 -21.5,3.62132 0,0.48327 5.2875,6.2017 11.75,12.70762 6.4625,6.50591 13.8501,14.26841 16.4168,17.25 12.7829,14.84884 22.7873,27.63398 26.3477,33.67106 1.0542,1.7875 2.3048,3.25 2.7792,3.25 0.4744,0 0.7149,-10.9125 0.5344,-24.25 z"
       id="path1" />
  </g>
</svg>
