<?xml version="1.0" encoding="UTF-8" standalone="no"?>
<!-- Created with Inkscape (http://www.inkscape.org/) -->

<svg
   version="1.1"
   id="svg1"
   width="2048"
   height="1844"
   viewBox="0 0 2048 1844"
   xmlns="http://www.w3.org/2000/svg"
   xmlns:svg="http://www.w3.org/2000/svg">
  <defs
     id="defs1" />
  <g
     id="g1">
    <path
       style="fill:#000000"
       d="m 736,1640.8302 c 0,-2.3087 34.42935,-37.0498 57,-57.5161 8.525,-7.7302 15.63919,-14.3884 15.80931,-14.7961 0.17011,-0.4077 7.90593,-7.5561 17.19069,-15.8854 9.28476,-8.3293 17.02058,-15.481 17.19069,-15.8926 0.17012,-0.4117 5.70931,-5.599 12.30931,-11.5274 6.6,-5.9283 13.5256,-12.3713 15.39023,-14.3177 1.86462,-1.9464 8.38962,-8.0129 14.5,-13.481 6.11037,-5.4682 12.45977,-11.4022 14.10977,-13.1868 1.65,-1.7846 8.175,-7.9176 14.5,-13.6289 19.0536,-17.2048 33.37275,-32.0825 42.79611,-44.4656 2.9298,-3.85 5.86966,-7.675 6.53301,-8.5 11.56758,-14.3864 28.75344,-47.0957 38.35508,-73 14.1318,-38.1263 19.301,-66.0875 18.473,-99.9243 l -0.1572,-6.4243 -2.25,2.0493 c -1.2375,1.1272 -3.375,2.6291 -4.75,3.3376 -1.375,0.7086 -4.7909,3.0148 -7.5909,5.125 -2.7999,2.1102 -5.45337,3.8367 -5.89646,3.8367 -0.4431,0 -3.10221,1.5198 -5.90913,3.3774 -4.43989,2.9382 -12.76046,7.5982 -23.10351,12.9393 -6.53699,3.3756 -21.27113,9.9904 -26,11.6725 -2.75,0.9782 -9.95,3.4869 -16,5.5749 -6.05,2.088 -15.5,5.4981 -21,7.578 -5.5,2.0798 -11.35,4.094 -13,4.4759 -1.65,0.3819 -6.18853,2.1398 -10.08563,3.9064 -3.89709,1.7666 -8.84709,3.7798 -11,4.4737 -10.22382,3.2954 -50.87527,22.2945 -74.41437,34.7787 -23.33128,12.374 -54.3243,31.8254 -68.47157,42.9732 -2.96645,2.3375 -5.65357,4.25 -5.97139,4.25 -1.00491,0 -13.30186,10.0748 -27.42168,22.4665 -14.71199,12.9113 -32.99252,30.6982 -40.63064,39.5335 -2.61511,3.025 -5.92834,6.85 -7.36272,8.5 -5.68161,6.5357 -12.8194,15.7583 -21.28332,27.5 -2.50765,3.4788 -23.09153,36.7659 -26.28083,42.5 -0.91773,1.65 -3.43539,5.925 -5.59478,9.5 -2.1594,3.575 -5.81917,9.875 -8.13284,14 -2.31366,4.125 -4.51368,7.725 -4.88891,8 -0.37524,0.275 -1.37413,1.85 -2.21975,3.5 -0.84563,1.65 -3.40038,5.7 -5.67723,9 -2.27686,3.3 -4.90521,7.125 -5.84079,8.5 -6.22912,9.1548 -18.2009,21.7451 -23.22355,24.4235 -1.375,0.7332 -4.975,2.6892 -8,4.3468 -12.37662,6.7817 -43.33188,11.1001 -59.55292,8.3078 -11.22928,-1.933 -22.87006,-5.8804 -30.99157,-10.5093 -8.03501,-4.5795 -24.2308,-18.8519 -27.62622,-24.3453 -1.11386,-1.8021 -2.56046,-3.8271 -3.21467,-4.5 -0.65421,-0.6729 -2.23885,-2.9385 -3.52142,-5.0347 -1.66495,-2.7211 -2.79834,-3.6305 -3.96257,-3.1795 -3.36088,1.3019 -21.29917,5.3806 -28.8228,6.5535 -4.29431,0.6695 -17.03283,1.2667 -28.30783,1.3272 l -20.5,0.11 -8,-3.3826 c -4.4,-1.8605 -11.15,-4.6173 -15,-6.1262 -17.30442,-6.782 -36.77143,-17.2622 -47.98235,-25.8317 -6.69889,-5.1205 -30.80793,-28.9988 -37.01765,-36.6633 -6.65078,-8.209 -16.56284,-21.8074 -18.22,-24.9962 -0.85749,-1.65 -1.89024,-3.225 -2.29501,-3.5 -1.99093,-1.3526 -11.47632,-22.4578 -15.37906,-34.2187 -9.93496,-29.9389 -15.53628,-68.6189 -14.30471,-98.7813 1.51615,-37.132 16.75232,-75.2801 50.52351,-126.5 3.62636,-5.5 6.95477,-10.45 7.39646,-11 0.4417,-0.55 3.06579,-4.15 5.83132,-8 2.76552,-3.85 5.57897,-7.675 6.25211,-8.5 0.67313,-0.825 2.32522,-3.075 3.6713,-5 3.62514,-5.1842 16.18659,-21.3453 17.48841,-22.5 0.6201,-0.55 1.79267,-1.9675 2.60572,-3.1501 0.81304,-1.1825 3.26739,-4.2861 5.4541,-6.8969 2.18672,-2.6107 5.55085,-6.6253 7.47585,-8.9213 1.925,-2.296 5.3,-6.346 7.5,-9 2.2,-2.654 5.575,-6.6994 7.5,-8.9897 1.925,-2.2903 5.075,-6.1284 7,-8.5293 1.925,-2.4008 4.85,-6.0329 6.5,-8.0713 1.65,-2.0384 4.8,-6.074 7,-8.968 2.2,-2.894 5.15369,-6.6595 6.56375,-8.3676 1.41006,-1.7082 3.63838,-4.6808 4.95182,-6.6058 1.31344,-1.925 2.66445,-3.725 3.00225,-4 0.86028,-0.7003 11.71566,-16.0279 16.64327,-23.5 1.45084,-2.2 2.93187,-4.225 3.29119,-4.5 0.35931,-0.275 1.74025,-2.3 3.06876,-4.5 1.3285,-2.2 2.79082,-4.45 3.24958,-5 0.45877,-0.55 2.67415,-3.925 4.92307,-7.5 2.24893,-3.575 5.09664,-8.075 6.32826,-10 9.31907,-14.5655 24.1351,-43.89374 29.30044,-57.99994 7.94283,-21.69133 9.75298,-30.6483 10.60995,-52.5 1.02171,-26.05234 5.33792,-57.32309 9.86893,-71.5 3.57473,-11.18482 9.99274,-24.13686 17.50394,-35.32427 3.68213,-5.48429 7.77534,-11.5924 9.096,-13.57358 1.32067,-1.98118 2.70878,-3.82715 3.0847,-4.10215 0.37592,-0.275 3.10188,-4.1 6.05769,-8.5 4.822,-7.17797 10.79048,-14.96395 14.9564,-19.51086 0.825,-0.90044 3.75,-4.2991 6.5,-7.55257 7.4195,-8.77786 20.94537,-22.90595 39.67029,-41.43657 l 16.67302,-16.5 -4.93104,-13 c -15.14321,-39.92297 -26.70166,-83.77761 -32.81357,-124.5 -6.19487,-41.27506 -8.29448,-89.22044 -5.50057,-125.60701 l 0.54571,-7.10701 8.17808,2.30337 c 4.49794,1.26685 9.97808,3.02184 12.17808,3.89996 l 4,1.5966 -2.5,-2.07474 c -1.375,-1.1411 -3.81806,-2.78865 -5.42902,-3.66121 -1.61097,-0.87256 -5.0421,-3.22076 -7.62475,-5.21822 -2.58265,-1.99746 -5.98958,-4.40656 -7.57097,-5.35357 -2.759,-1.65221 -7.06196,-4.61499 -17.87526,-12.30791 -5.11851,-3.64147 -15.41108,-10.82316 -22.51615,-15.71076 L 445,389.65167 V 220.64216 51.632653 H 581.5 718 v 62.000007 62 h 85.5 85.5 v -62 -62.000007 h 137 137 v 62.000007 62 h 85 85 v -62 -62.000007 h 137 137 V 220.62639 389.62012 l -3.9312,2.75627 c -2.1621,1.51595 -6.8757,4.78127 -10.4747,7.25627 -9.9558,6.84656 -19.5477,13.52438 -25.0941,17.47026 -9.1885,6.53698 -14.9739,10.54031 -18,12.45555 -1.65,1.04429 -5.25,3.51935 -8,5.50015 -7.8027,5.62023 -14.7217,10.42505 -18,12.49985 -1.65,1.04429 -5.25,3.51935 -8,5.50015 -8.8519,6.37596 -14.9311,10.58842 -17.8261,12.35221 -1.5543,0.94701 -5.2178,3.52183 -8.1411,5.72183 -2.9232,2.2 -6.6015,4.77482 -8.1739,5.72183 -2.9008,1.74705 -8.8039,5.82999 -17.8589,12.35221 -2.75,1.9808 -6.35,4.45586 -8,5.50015 -3.0614,1.93757 -9.0706,6.09787 -18,12.46192 -2.75,1.95993 -6.4654,4.5536 -8.2564,5.7637 -1.791,1.21011 -6.741,4.63452 -11,7.6098 -4.259,2.97529 -10.2186,7.1124 -13.2436,9.19357 -3.025,2.08117 -8.65,5.9551 -12.5,8.60873 l -7,4.82477 v 67.41166 67.41165 l 4.6087,2.70777 c 2.5348,1.48927 5.6848,3.04902 7,3.4661 1.3152,0.41708 4.0583,1.81027 6.0957,3.09598 2.0374,1.28571 6.9874,4.07155 11,6.19076 12.5312,6.6182 25.4088,14.12988 38.7956,22.62984 3.575,2.26996 7.2456,4.55973 8.1568,5.08838 3.039,1.76304 14.2869,9.34911 18.7947,12.6759 2.4483,1.8069 5.5983,3.91209 7,4.67819 1.4017,0.7661 4.636,3.1286 7.1873,5.25 2.5513,2.1214 4.9778,3.85709 5.3922,3.85709 0.4143,0 3.1237,2.025 6.0207,4.5 2.897,2.475 5.5737,4.5 5.9483,4.5 0.3746,0 3.0028,1.92997 5.8405,4.28882 2.8377,2.35885 6.5807,5.39635 8.3178,6.75 21.5352,16.78178 52.8008,45.76936 73.1786,67.84684 4.7647,5.16211 9.7881,10.6027 11.1631,12.09018 2.4541,2.65484 7.5832,8.60322 15.9728,18.52416 2.3255,2.75 5.1835,6.125 6.3511,7.5 3.0105,3.54534 9.8563,12.02673 12.1958,15.10963 2.6709,3.51971 14.1623,18.77699 16.4872,21.89037 1.6043,2.14833 7.784,10.6338 13.7605,18.89482 0.9529,1.31715 2.4076,3.41704 3.2326,4.66643 0.825,1.24938 5.9554,8.94671 11.4009,17.10517 13.5169,20.25098 21.4312,32.79577 31.1239,49.33362 2.0952,3.575 4.7888,8.075 5.9858,10 8.0528,12.9513 40.4894,74.9128 40.4894,77.3444 0,0.2356 2.0577,4.867 4.5726,10.292 5.838,12.5933 6.391,13.8503 11.3769,25.8635 2.2827,5.5 4.5577,10.9 5.0556,12 1.9318,4.2681 4.4297,10.7555 11.9362,31 31.8703,85.9522 53.2333,181.308 63.5139,283.5 4.0994,40.7487 11.4977,160.4931 11.5382,186.75 l 0.01,4.25 h -57 -57 l -0.01,-82.75 c -0.01,-81.7789 -0.6418,-106.5313 -3.5361,-137.75 -6.938,-74.8341 -21.5538,-140.8698 -50.0212,-226 -8.004,-23.9358 -22.4117,-63.2254 -26.4026,-72 -0.5003,-1.1 -4.0359,-9.425 -7.8568,-18.5 -12.5012,-29.691 -24.6261,-54.3146 -42.3473,-86 -14.2387,-25.45861 -16.3662,-29.14684 -17.6478,-30.59382 -0.5329,-0.60163 -1.7297,-2.56525 -2.6597,-4.36359 -0.93,-1.79835 -3.6907,-6.19087 -6.1351,-9.76116 -2.4443,-3.57029 -5.0958,-7.75154 -5.8922,-9.29166 -0.7965,-1.54013 -2.0379,-3.40536 -2.7588,-4.14497 -0.7208,-0.73961 -2.402,-3.14474 -3.7358,-5.34474 -1.3338,-2.2 -3.0074,-4.59759 -3.7191,-5.32798 -0.7117,-0.73038 -1.7871,-2.24926 -2.3897,-3.37527 -1.0177,-1.90159 -6.1789,-9.03196 -9.4273,-13.02412 -0.7731,-0.95005 -2.6035,-3.53755 -4.0676,-5.75 -1.4641,-2.21245 -2.9398,-4.02343 -3.2792,-4.02442 -0.3394,-9.8e-4 -1.8959,-2.02598 -3.4589,-4.5 -1.563,-2.47401 -3.1535,-4.49821 -3.5344,-4.49821 -0.3809,0 -1.5268,-1.41216 -2.5463,-3.13813 -1.0196,-1.72598 -2.5852,-3.86956 -3.4791,-4.76351 -0.894,-0.89396 -2.7236,-3.1943 -4.0659,-5.11187 -1.3423,-1.91757 -3.4378,-4.61149 -4.6566,-5.98649 -1.2189,-1.375 -4.0946,-4.75 -6.3906,-7.5 -13.0183,-15.59302 -38.5833,-41.7804 -53.0956,-54.38835 -12.3396,-10.72024 -17.9427,-15.45588 -21.4293,-18.11165 -1.8052,-1.375 -6.751,-5.2 -10.9906,-8.5 -4.2397,-3.3 -9.9069,-7.575 -12.5938,-9.5 -12.6808,-9.08484 -22.1747,-15.63416 -24.6543,-17.00749 -1.4969,-0.82912 -5.3825,-3.41662 -8.6345,-5.75 -3.252,-2.33338 -6.3596,-4.24251 -6.9056,-4.24251 -0.5461,0 -2.5511,-1.18855 -4.4556,-2.64122 -1.9046,-1.45268 -6.6721,-4.44299 -10.5944,-6.64515 -28.7258,-16.12769 -34.1062,-19.01219 -52.6316,-28.21622 -17.5435,-8.71617 -35.5934,-17.06585 -39,-18.04088 -1.375,-0.39355 -4.75,-1.84711 -7.5,-3.23014 -2.75,-1.38302 -7.925,-3.53244 -11.5,-4.77648 -3.575,-1.24404 -9.875,-3.6207 -14,-5.28147 -15.5547,-6.26249 -51.5448,-18.0739 -68.5,-22.48069 -35.3743,-9.19406 -63.2917,-15.41304 -75.3311,-16.78106 -4.7316,-0.53764 -9.6954,-1.25172 -11.0307,-1.58684 -2.1711,-0.54492 -2.3633,-0.35272 -1.8184,1.81838 1.9658,7.83212 2.6269,22.84858 2.0853,47.36177 -0.3282,14.85 -0.2045,28.75872 0.2748,30.90827 0.9749,4.37192 0.8041,4.28273 18.3201,9.56936 14.4649,4.36577 54.8083,18.73261 66,23.50354 3.575,1.52399 8.75,3.56419 11.5,4.53377 5.5807,1.96762 17.6726,7.10828 30.5,12.96651 4.675,2.13505 13.675,6.19699 20,9.02653 6.325,2.82953 12.175,5.49183 13,5.91622 0.825,0.42439 4.875,2.4395 9,4.47802 8.1323,4.01889 9.0841,4.51025 22.5,11.6157 26.4595,14.01373 47.4648,27.1429 64.767,40.48208 2.8536,2.2 6.1641,4.675 7.3567,5.5 11.0596,7.65057 34.5071,30.25093 43.9036,42.31737 1.635,2.09955 4.3227,5.5262 5.9727,7.61478 4.23,5.35438 19.7581,26.06865 21.7902,29.06785 9.5192,14.04938 22.746,34.10384 24.0735,36.5 0.9141,1.65 3.4991,5.925 5.7444,9.5 2.2453,3.575 9.337,15.95004 15.7593,27.49994 33.6292,60.4789 57.9727,118.8219 84.4927,202.5 25.0661,79.0906 38.8353,154.9367 42.5714,234.5 0.5424,11.55 1.2789,57.5625 1.6368,102.25 l 0.6507,81.25 H 1177.1095 C 934.49927,1641.6326 736,1641.2715 736,1640.8302 Z M 474.63098,1526.3234 c 4.97768,-2.574 13.8088,-11.8661 16.338,-17.1908 1.30624,-2.75 4.56007,-8.9088 7.23072,-13.6862 4.1613,-7.4439 7.12557,-13.7451 14.26058,-30.3138 0.71055,-1.65 2.7794,-7.2189 4.59746,-12.3753 3.1364,-8.8954 3.2501,-9.6991 2.22171,-15.7028 -2.1643,-12.6351 -10.82964,-20.0542 -24.72564,-21.1696 -5.72808,-0.4598 -7.15114,-0.1885 -12.07288,2.3016 -10.29065,5.2066 -22.63068,20.167 -34.53669,41.8704 -5.53287,10.0858 -7.01118,11.9235 -17.25069,21.4442 -12.25947,11.3989 -13.71791,22.1606 -4.32786,31.935 4.33014,4.5074 19.43117,12.9413 25.63431,14.3167 5.42207,1.2023 19.22823,0.3303 22.63098,-1.4294 z M 346.5,1423.1434 c 12.27895,-4.8293 17.90243,-12.3162 19.42089,-25.8563 0.94579,-8.4337 4.81789,-17.813 10.33864,-25.0434 6.8458,-8.9656 14.46049,-14.7257 32.19825,-24.3559 2.87252,-1.5595 9.18616,-9.1885 10.53044,-12.7242 4.54934,-11.9657 -4.26411,-27.3626 -20.32407,-35.5057 l -8.42939,-4.2741 -9.4833,0.4147 c -8.74187,0.3824 -10.17789,0.754 -18.36738,4.753 -20.18508,9.8566 -41.1532,27.8297 -52.60415,45.0905 -6.21746,9.3719 -11.55021,21.0815 -14.1395,31.0471 -6.50562,25.0388 -3.68121,38.3605 9.54896,45.0391 8.29265,4.1861 11.95559,4.8787 23.81061,4.502 8.57671,-0.2726 11.7822,-0.838 17.5,-3.0868 z m 715.72,-229.5142 c 11.3316,-3.2716 45.4939,-49.9344 61.4948,-83.9966 2.1961,-4.675 4.3387,-9.625 4.7614,-11 0.4227,-1.375 1.1115,-2.95 1.5307,-3.5 0.4191,-0.55 2.824,-7.3 5.3441,-15 8.1898,-25.0238 12.1997,-47.4316 13.3316,-74.4999 0.4984,-11.91906 0.3077,-15.52668 -1.0712,-20.26773 -4.841,-16.6442 -19.0729,-24.65242 -41.6114,-23.41457 -17.8621,0.98101 -28.2975,5.65737 -31.5336,14.13102 -1.5624,4.09113 -1.6379,5.62394 -0.6325,12.84828 1.7653,12.6852 1.9657,19.0529 1.0801,34.3126 -0.9011,15.5261 -3.6434,30.8915 -7.5531,42.32 -4.8776,14.2583 -17.0197,37.6286 -28.3522,54.5703 -7.5831,11.3366 -9.6464,13.9039 -19.6589,24.4609 -8.5362,9.0006 -10.5969,13.2578 -10.6915,22.0879 -0.074,6.9431 1.6655,11.1099 6.5293,15.6382 4.0594,3.7793 18.0744,10.6959 24.2958,11.9903 6.4943,1.3511 16.764,1.0436 22.7366,-0.6807 z M 536.5,1017.5846 c 9.54206,-4.7809 10.21806,-5.5155 17.03041,-18.50913 6.44876,-12.3001 11.43846,-20.44281 12.52697,-20.44281 0.50192,0 3.07896,1.33299 5.72677,2.9622 11.45784,7.05008 39.00745,10.07381 55.71585,6.11514 17.76557,-4.20914 28.87029,-15.22983 35.34482,-35.07734 5.45537,-16.72333 4.68516,-30.21703 -2.50196,-43.83305 C 658.50429,905.31643 657,902.36586 657,902.2428 c 0,-0.12307 3.2625,-1.72201 7.25,-3.5532 26.58374,-12.20814 27.54636,-12.781 31.51118,-18.75246 3.54597,-5.34062 3.73882,-6.04817 3.73882,-13.71777 0,-7.06649 -0.41615,-8.96983 -3.29859,-15.08671 -4.15063,-8.80811 -10.39534,-14.88617 -17.44536,-16.97981 -6.24474,-1.85448 -18.11077,-1.91034 -26.43223,-0.12442 -7.08095,1.51968 -24.11884,8.00806 -35.82382,13.64245 -4.4,2.11801 -9.24787,4.31868 -10.77304,4.89036 -1.52517,0.57169 -5.12517,2.53649 -8,4.36623 -2.87483,1.82973 -6.01964,3.62479 -6.98846,3.98902 -2.32947,0.87575 -17.68265,10.98413 -25.2385,16.61677 -12.17907,9.07911 -28.69836,24.51372 -38.18335,35.6762 -8.48805,9.98922 -10.10399,12.0788 -15.02062,19.4232 -8.96711,13.39495 -12.50828,19.32923 -17.53957,29.39278 C 488.05031,975.43899 487,978.77108 487,986.63266 c 0,8.2468 1.83401,13.74044 6.4799,19.41014 8.86926,10.8238 32.04382,17.0412 43.0201,11.5418 z m 207,-249.80771 c 9.35,-4.56207 19.475,-9.57815 22.5,-11.14684 12.85372,-6.66565 31.09993,-13.84036 40.66621,-15.99065 5.59141,-1.25682 10.64852,-2.58322 11.23801,-2.94755 0.76137,-0.47055 0.75011,-3.25414 -0.0389,-9.6108 -1.35931,-10.95121 -0.53621,-38.25116 1.54994,-51.40748 0.82494,-5.2025 1.38521,-9.57378 1.24504,-9.71395 -0.77277,-0.77276 -25.00595,5.48685 -36.1603,9.34048 -13.72695,4.74241 -33.77976,13.59684 -41.76502,18.44157 -2.62077,1.59005 -5.10139,2.89099 -5.5125,2.89099 -0.71487,0 -8.83244,5.21912 -21.72248,13.96628 -3.3,2.23937 -9.59056,6.44143 -13.97902,9.33791 -10.85084,7.16179 -14.04378,12.22114 -13.96415,22.12677 0.0487,6.06225 0.5459,7.99478 3.49081,13.56904 3.74207,7.08315 11.02051,14.8986 16.79137,18.03024 2.91471,1.58172 5.18983,1.92778 11.16099,1.69768 7.11296,-0.2741 8.3773,-0.71707 24.5,-8.58369 z M 856.9487,556.99504 c 2.46109,-4.17125 11.99203,-17.14375 16.50058,-22.45885 7.29815,-8.60375 13.39454,-15.47512 18.05072,-20.34538 5.85798,-6.1273 26.13669,-24.39088 33.13845,-29.84542 10.87303,-8.47034 17.05349,-12.95773 20.61155,-14.96522 2.0625,-1.16369 3.75,-2.48293 3.75,-2.93165 0,-0.44872 -61.2,-0.81586 -136,-0.81586 -87.12561,0 -136,0.34833 -136,0.96927 0,0.5331 2.3625,2.54287 5.25,4.46615 2.8875,1.92328 8.4,5.75633 12.25,8.51789 3.85,2.76155 8.8,6.25092 11,7.75416 2.2,1.50323 6.48374,4.54651 9.51942,6.76284 3.03568,2.21633 6.24015,4.47969 7.12104,5.02969 0.8809,0.55 4.35966,3.00109 7.73058,5.44686 L 736,509.02638 v 22.70614 22.70615 l 3.75,3.06346 3.75,3.06347 55.65122,0.0335 55.65123,0.0336 z M 1316,534.82952 v -25.80314 l 6.129,-4.44686 c 3.3709,-2.44577 6.8496,-4.89686 7.7305,-5.44686 0.8809,-0.55 4.0854,-2.81336 7.1211,-5.02969 3.0357,-2.21633 7.3194,-5.25961 9.5194,-6.76284 2.2,-1.50324 7.15,-4.99261 11,-7.75416 3.85,-2.76156 9.3625,-6.59461 12.25,-8.51789 2.8875,-1.92328 5.25,-3.93305 5.25,-4.46615 0,-0.62261 -74.9278,-0.96927 -209.5,-0.96927 -141.0231,0 -209.5,0.33166 -209.5,1.0147 0,0.55808 1.4625,1.8686 3.25,2.91225 4.15665,2.42692 17.22699,11.84444 25.77706,18.57305 12.0823,9.50835 19.03854,15.70501 30.58704,27.24703 12.1832,12.17643 17.0942,17.53111 26.0527,28.40622 2.1083,2.5593 5.0997,6.1593 6.6477,8 1.548,1.84071 3.5575,4.58425 4.4656,6.09675 l 1.6511,2.75 H 1185.2156 1316 Z m 154.4347,-132.69686 c 2.3492,-1.925 4.6469,-3.5 5.1061,-3.5 0.4591,0 3.4122,-2.025 6.5625,-4.5 3.1503,-2.475 6.0107,-4.5 6.3565,-4.5 0.3458,0 3.5281,-2.1375 7.0718,-4.75 3.5436,-2.6125 9.407,-6.775 13.0296,-9.25 7.267,-4.9648 17.6306,-12.24347 24.1888,-16.98844 l 4.25,-3.07494 V 334.60097 313.63266 H 1025.5 514 v 20.91597 20.91597 l 3.75,2.93934 c 2.0625,1.61663 4.875,3.52793 6.25,4.24732 1.375,0.71939 4.79089,3.03451 7.59087,5.14469 2.79998,2.11019 5.42166,3.83671 5.82596,3.83671 0.40429,0 3.36672,2.025 6.58317,4.5 3.21645,2.475 6.21977,4.51001 6.67404,4.52224 0.45428,0.0122 1.95096,0.93054 3.32596,2.0407 2.97573,2.40256 17.84347,12.63093 22.33379,15.36469 1.74141,1.06019 4.74121,3.1826 6.66621,4.71647 l 3.5,2.78884 439.8317,0.0335 439.8317,0.0335 z"
       id="path1" />
  </g>
</svg>
