<?xml version="1.0" encoding="UTF-8" standalone="no"?>
<!-- Created with Inkscape (http://www.inkscape.org/) -->

<svg
   version="1.1"
   id="svg1"
   width="2048"
   height="2048"
   viewBox="0 0 2048 2048"
   xmlns="http://www.w3.org/2000/svg"
   xmlns:svg="http://www.w3.org/2000/svg">
  <defs
     id="defs1" />
  <g
     id="g1">
    <path
       style="fill:#000000"
       d="m 956,1866.93 c -128.74377,-3.148 -230.45824,-11.9188 -329.5,-28.4125 -76.70864,-12.7746 -138.98679,-28.9437 -179.5,-46.6031 -20.67755,-9.0132 -32.36036,-16.0799 -47.30545,-28.6142 l -2.80544,-2.3529 33.05023,-122.1424 33.05023,-122.1425 -16.38249,-92.7783 c -13.17229,-74.598 -16.81974,-93.5193 -18.6139,-96.5602 -2.82686,-4.7912 -11.2356,-10.7046 -26.49318,-18.6313 -21.39946,-11.1176 -31.5552,-18.6026 -70.57344,-52.0142 -48.40797,-41.4521 -72.85769,-64.9102 -90.23994,-86.5801 -40.91957,-51.0132 -65.4781,-111.4112 -74.60813,-183.48742 -4.5125,-35.62358 -4.98655,-62.11832 -1.53611,-85.85427 6.33155,-43.55551 24.69663,-86.53902 56.07645,-131.24705 19.04892,-27.13974 49.37113,-60.26002 71.37274,-77.95889 C 340.5186,652.51383 396.7392,629.60652 465,621.05768 c 17.08944,-2.14024 67.11319,-3.05744 83.69379,-1.53455 47.50789,4.36349 118.42965,20.89328 156.50634,36.47704 7.31493,2.9938 24.09987,9.56911 37.29987,14.6118 68.4946,26.16642 73.46896,28.27466 89.29565,37.84538 5.65263,3.41825 8.13166,4.48081 7.78094,3.33504 -1.77938,-5.81312 -3.76545,-21.75394 -4.25869,-34.18151 -1.22406,-30.8414 4.50536,-59.3688 17.26266,-85.95251 6.56536,-13.68094 11.46258,-21.65175 20.30422,-33.04749 46.43185,-59.84475 117.85656,-86.70777 191.27962,-71.94075 55.1194,11.08575 106.2469,52.49056 131.382,106.39764 10.4184,22.34431 16.4736,50.66293 16.4429,76.89906 -0.01,8.66101 -2.2637,33.91164 -3.5644,39.93778 l -0.603,2.79373 6.5856,-4.03082 c 17.5425,-10.73721 53.5017,-25.74845 121.5925,-50.75896 67.4913,-24.79031 127.115,-38.16409 179,-40.1502 95.4238,-3.65274 173.2727,19.28163 237,69.82045 22.1413,17.55916 53.7478,52.13603 73.2639,80.14916 31.0668,44.5931 48.8207,85.38301 56.8559,130.6275 2.6686,15.026 3.6531,48.62629 1.9619,66.95847 -4.6947,50.89086 -16.9554,97.12076 -36.6099,138.03976 -21.9362,45.6695 -46.6731,77.1434 -94.4718,120.2006 -57.543,51.835 -80.4963,69.7344 -107.6307,83.9327 -14.2035,7.432 -20.7409,12.1288 -24.5486,17.6367 -2.5769,3.7276 -3.8008,10.123 -18.7956,98.2165 l -16.0392,94.2292 32.9491,123.268 32.9491,123.2679 -2.192,2.347 c -6.1655,6.601 -30.5959,20.5651 -49.6921,28.4032 -84.1693,34.5476 -242.6939,60.5487 -422,69.216 -62.7605,3.0338 -162.3769,4.3165 -222,2.8585 z M 517.27194,1720.7049 C 617.84721,1691.678 740.01044,1675.3741 909,1668.425 c 40.60087,-1.6696 185.2029,-1.6787 223.5,-0.014 136.6686,5.9403 247.4247,18.5951 348.5,39.8191 19.609,4.1176 56.8292,13.1893 61.3654,14.9566 1.5073,0.5873 1.7552,0.3619 1.2914,-1.1744 -0.3157,-1.0457 -7.0808,-27.4769 -15.0334,-58.736 -7.9527,-31.2591 -14.708,-57.0833 -15.0119,-57.3871 -0.8919,-0.8919 -34.5206,-7.93 -60.8027,-12.7252 -89.2083,-16.2763 -185.773,-25.7993 -311.8088,-30.7499 -41.7008,-1.638 -192.60401,-1.63 -234,0.012 -120.98889,4.8003 -212.71483,13.6931 -302,29.2789 -27.33356,4.7713 -67.56057,13.1327 -68.7094,14.2816 -0.2783,0.2783 -7.44217,26.295 -15.91972,57.8149 -8.47755,31.52 -15.68101,58.1646 -16.0077,59.2103 -0.45719,1.4634 -0.21692,1.7566 1.04336,1.2729 0.90054,-0.3455 6.23997,-1.9566 11.8654,-3.5802 z m 49.8907,-199.0521 c 82.34046,-19.7784 182.39117,-33.2124 294.33736,-39.5214 93.1918,-5.252 215.3675,-5.8458 306,-1.4872 127.5274,6.1329 239.3884,20.677 322.4696,41.9273 6.3082,1.6135 11.6139,2.7892 11.7904,2.6127 0.1765,-0.1765 3.8822,-22.7514 8.2348,-50.1663 5.722,-36.0404 7.597,-50.0413 6.7698,-50.5525 -2.0557,-1.2705 -49.7843,-12.6511 -70.4667,-16.8023 -120.0478,-24.0954 -271.427,-35.4785 -448.2979,-33.7102 -33.275,0.3327 -72.2,1.0707 -86.5,1.64 -133.10687,5.2997 -238.01604,17.2785 -329,37.5663 -20.21752,4.5081 -49.20333,11.8217 -49.99652,12.6149 -0.34379,0.3438 11.78078,84.7127 14.03128,97.6368 0.43868,2.5193 0.97574,3.1752 2.26994,2.7722 0.93241,-0.2904 9.19349,-2.329 18.35794,-4.5303 z m 984.25276,-230.7919 c 30.8665,-29.9348 60.711,-54.8415 110.3261,-92.0723 71.3713,-53.5567 94.7852,-77.8573 115.3105,-119.6777 19.3379,-39.401 28.1403,-84.20016 26.6238,-135.50002 -1.8661,-63.12498 -17.5591,-108.46385 -53.5765,-154.78839 -37.148,-47.7787 -89.2226,-78.94781 -153.0993,-91.63714 -23.632,-4.69459 -39.0805,-6.0012 -71,-6.00511 -29.5961,-0.004 -39.1147,0.65017 -66,4.5332 -54.0202,7.80212 -115.7844,27.70339 -173.5,55.90408 -39.3409,19.22251 -64.2901,36.5479 -89.9248,62.44602 -53.3634,53.9119 -91.0722,120.08148 -116.9456,205.21036 -9.8275,32.3345 -13.6855,52.954 -16.6216,88.837 -1.0406,12.7163 -3.7185,142.1397 -2.956,142.8612 0.2464,0.2332 18.898,0.9403 41.448,1.5713 125.6192,3.5154 204.355,9.9285 302.5,24.6387 43.0856,6.4578 97.9648,16.1954 126,22.3571 4.675,1.0275 8.9119,1.914 9.4154,1.9699 0.5035,0.056 5.9035,-4.7357 12,-10.6482 z M 1516.5,1215.9776 c -8.1312,-3.0338 -28.2962,-8.4414 -45.893,-12.3071 -71.9904,-15.8147 -176.9171,-25.7076 -314.5048,-29.6526 l -23.3978,-0.6709 0.6778,-15.0206 c 2.2033,-48.8276 10.1518,-103.4867 19.0323,-130.8788 10.3611,-31.95936 37.3942,-79.21615 67.2288,-117.52364 15.2374,-19.56466 39.3161,-46.07546 52.3567,-57.64504 17.7745,-15.76947 76.082,-48.67509 107,-60.38505 64.3417,-24.36893 135.6545,-26.69451 204.7983,-6.67866 34.1994,9.90009 60.0616,23.06112 79.5643,40.48937 20.4597,18.28355 32.1941,36.5036 39.1397,60.77272 7.8704,27.5006 10.7898,76.47756 6.0173,100.94968 -4.7473,24.34332 -15.6776,47.00582 -34.3323,71.18392 -8.2079,10.638 -43.2079,45.5933 -74.6963,74.6008 -30.0077,27.6434 -47.5852,46.3269 -68.5377,72.8504 -5.0177,6.3519 -9.4224,11.5171 -9.7882,11.4783 -0.3658,-0.039 -2.4651,-0.742 -4.6651,-1.5628 z m -990.84058,80.0836 c 55.06944,-11.6076 144.76137,-25.7538 205.34058,-32.3864 60.57794,-6.6324 130.59616,-10.5502 226.25,-12.6596 l 30.75,-0.6781 v -14.3084 c 0,-23.9174 -1.93724,-98.7812 -3.05134,-117.9178 -2.80129,-48.1169 -8.66124,-81.1526 -20.48766,-115.5 C 942.61315,939.15829 914.81325,886.93589 879.22672,842.49742 866.59409,826.72249 842.80745,802.02026 831.5,792.93361 772.75752,745.72823 666.00832,703.46737 577,692.17981 c -42.82361,-5.43067 -88.32807,-4.33304 -126.34977,3.04772 -42.47119,8.2445 -80.18954,25.28385 -111.56095,50.39792 -34.56656,27.67191 -65.38899,70.73038 -79.0885,110.48543 -23.65268,68.63845 -19.183,158.58112 10.94475,220.23952 6.53051,13.3651 19.83427,34.3477 28.32793,44.6787 19.69597,23.9565 44.67079,46.4203 88.22654,79.3563 27.92761,21.1183 49.73219,38.1713 69.93337,54.6937 16.5736,13.5554 47.05332,39.9864 49.43907,42.8719 0.75485,0.9129 1.50159,1.6599 1.65942,1.6599 0.15784,0 7.86524,-1.5974 17.12756,-3.5497 z m -11.29215,-88.8086 c -16.83407,-19.8813 -34.78709,-38.6321 -70.50854,-73.6417 -39.27432,-38.4917 -68.90933,-69.7934 -78.95724,-83.398 -17.03502,-23.0649 -26.87655,-47.2567 -29.96294,-73.65302 -2.31105,-19.76514 0.19254,-58.87774 5.1175,-79.949 6.62038,-28.32499 16.40564,-46.4206 35.44395,-65.54547 21.94885,-22.04864 53.54269,-38.08888 96.07808,-48.77897 73.25667,-18.41105 145.59672,-12.67506 211.47634,16.76837 22.58084,10.09201 66.64886,35.64232 83.90572,48.64791 14.10926,10.63341 41.53916,40.61775 62.58029,68.40816 26.87412,35.49441 51.95103,79.48496 61.03164,107.06322 9.25374,28.1041 16.8861,79.2081 21.01151,140.6868 l 0.65426,9.75 -6.36892,0.013 c -3.50291,0.01 -20.09392,0.4508 -36.86892,0.9863 -153.79457,4.9094 -268.85014,18.5311 -336.77274,39.8711 l -9.27273,2.9134 z M 1026.3803,990.36088 c 1.0028,-3.9875 4.2192,-14.675 7.1475,-23.75 2.9283,-9.075 7.6165,-23.79225 10.4183,-32.70501 2.8018,-8.91275 7.1514,-21.06275 9.6658,-27 2.5144,-5.93724 6.5138,-15.57351 8.8876,-21.41392 2.3738,-5.84041 9.5892,-21.36541 16.0343,-34.5 14.4459,-29.43969 26.1619,-54.99806 32.4754,-70.84486 11.081,-27.81292 28.9323,-77.61864 30.4786,-85.03621 3.7341,-17.91209 2.9585,-39.71926 -2.0336,-57.1788 -5.4511,-19.06505 -14.8412,-34.69267 -29.9542,-49.85167 -17.9769,-18.03165 -35.9779,-27.84509 -60.9392,-33.22157 -11.2296,-2.41876 -42.0417,-2.3495 -56.0608,0.12601 -24.2649,4.28471 -43.30797,13.434 -57.5,27.62603 -19.03527,19.03527 -28.30654,44.51559 -29.65459,81.5 -0.77594,21.28851 0.81527,30.38644 10.0307,57.35163 19.59997,57.35132 28.05611,77.56753 60.9226,145.64837 17.77283,36.81529 19.12246,40.45425 40.33349,108.75 3.7153,11.9625 7.0183,21.75 7.3399,21.75 0.3217,0 1.4054,-3.2625 2.4082,-7.25 z M 1023,824.76751 c 0,-4.38178 -13.5034,-41.20912 -21.406,-58.38015 -10.42982,-22.66189 -20.32972,-47.00154 -24.79212,-60.95319 -3.04356,-9.51566 -3.30055,-11.34033 -3.28483,-23.32329 0.0138,-10.54861 0.43028,-14.31998 2.20844,-20 6.36144,-20.32052 20.01971,-29.95611 44.23181,-31.20447 29.0729,-1.49899 47.2946,8.91475 54.2258,30.99027 2.6743,8.51727 3.4597,25.5456 1.486,32.2142 -3.9405,13.31323 -19.1094,51.54514 -25.435,64.10647 -9.095,18.06088 -15.7279,33.60856 -17.7447,41.59425 -2.7054,10.7118 -7.9504,26.79422 -8.7394,26.79681 -0.4125,10e-4 -0.75,-0.82705 -0.75,-1.8409 z M 988,414.11088 v -65.5 h -44.7899 c -48.95283,0 -52.75905,-0.36298 -60.60013,-5.7791 -7.61862,-5.26246 -11.58623,-14.75526 -11.58623,-27.7209 0,-13.07743 3.82326,-22.2346 11.48386,-27.50523 8.2617,-5.68419 11.40423,-5.99477 60.65764,-5.99477 h 44.74505 l 0.29485,-48.35299 0.29486,-48.353 3.50811,-6.897 c 2.71249,-5.33279 4.60457,-7.63101 8.34269,-10.13341 6.7919,-4.54675 11.6016,-5.71426 23.6492,-5.74062 13.4859,-0.0295 19.5463,1.92809 26.0244,8.40623 8.485,8.48494 8.3826,7.75012 8.7464,62.77646 l 0.3187,48.20566 48.7052,0.29434 c 46.9901,0.28396 48.8638,0.368 53.2053,2.38617 6.7069,3.11772 10.5783,6.84924 13.6989,13.20406 2.5984,5.2913 2.8011,6.57765 2.8011,17.77481 0,11.45091 -0.1546,12.37294 -3.0104,17.95704 -3.2937,6.44034 -9.1223,11.62396 -15.2649,13.57568 -3.6636,1.16407 -45.2955,2.58443 -81.9747,2.79673 l -17.25,0.0998 v 18.33575 c 0,10.08467 -0.2984,39.33467 -0.6631,65 l -0.6632,46.66425 H 1023.3369 988 Z"
       id="path1" />
  </g>
</svg>
