<?xml version="1.0" encoding="UTF-8" standalone="no"?>
<!-- Created with Inkscape (http://www.inkscape.org/) -->

<svg
   version="1.1"
   id="svg1"
   width="2048"
   height="2048"
   viewBox="0 0 2048 2048"
   xmlns="http://www.w3.org/2000/svg"
   xmlns:svg="http://www.w3.org/2000/svg">
  <defs
     id="defs1" />
  <g
     id="g1">
    <path
       style="fill:#000000"
       d="m 482.88272,1890.5992 c -15.71479,-40.4596 -26.78396,-81.9818 -32.85681,-123.2509 -3.42848,-23.2989 -5.05309,-43.6043 -5.6806,-71 -2.79379,-121.9698 29.61622,-233.5517 96.43252,-332 58.89288,-86.7738 134.78558,-153.805 224.60605,-198.3801 17.28064,-8.5759 49.37331,-22.6199 51.68977,-22.6199 2.74785,0 -0.28065,-2.1059 -10.71731,-7.4523 -69.64805,-35.679 -124.05481,-105.8562 -140.74966,-181.54768 -4.78688,-21.70285 -6.02845,-34.47192 -6.02845,-62.00002 0,-18.8238 0.45712,-28.77265 1.74598,-38 7.35857,-52.68228 27.64503,-97.4336 62.63371,-138.16805 41.96883,-48.86087 95.94262,-80.41056 156.35237,-91.3938 22.57083,-4.10365 21.39147,-2.58421 9.6273,-12.40339 -29.70283,-24.79199 -50.63905,-55.94798 -61.33221,-91.27081 -9.45421,-31.23024 -11.11276,-69.73045 -4.4485,-103.26395 10.81731,-54.43091 48.01652,-105.39415 98.72407,-135.25279 40.2563,-23.70454 92.71145,-31.8325 142.91335,-22.14453 30.2484,5.83734 61.6382,20.89939 86.1051,41.31656 10.355,8.64104 29.3026,28.3552 36.6006,38.08136 24.5539,32.7233 37.568,70.09214 39.1793,112.4994 2.4482,64.43613 -21.1939,119.04831 -69.0491,159.5 -12.3416,10.4322 -13.4529,8.84513 9.0595,12.93815 41.7533,7.59127 79.7884,24.60842 114.1276,51.06154 14.2351,10.96591 37.8403,34.28191 49.1019,48.50031 40.916,51.65859 60.0216,110.39654 57.7354,177.5 -2.4406,71.63342 -28.8189,131.4632 -81.1546,184.0701 -21.2863,21.3966 -43.5668,37.973 -67.7833,50.4299 -9.6192,4.9481 -12.489,7 -9.7904,7 2.1073,0 33.7683,13.7493 49.5737,21.5281 91.3967,44.982 167.9406,112.53 227.7369,200.9719 47.2163,69.8353 77.6872,148.6684 89.6738,232 4.4567,30.9834 5.5019,47.3786 5.4825,86 -0.019,38.5315 -0.9641,53.0508 -5.466,84 -5.5628,38.2427 -15.1079,76.2005 -28.667,114 l -3.9459,11 -540.1815,0.2509 -540.1816,0.2509 z"
       id="path1" />
  </g>
</svg>
