<?xml version="1.0" encoding="UTF-8" standalone="no"?>
<!-- Created with Inkscape (http://www.inkscape.org/) -->

<svg
   version="1.1"
   id="svg1"
   width="2048"
   height="2048"
   viewBox="0 0 2048 2048"
   xmlns="http://www.w3.org/2000/svg"
   xmlns:svg="http://www.w3.org/2000/svg">
  <defs
     id="defs1" />
  <g
     id="g1">
    <path
       style="fill:#000000"
       d="m 735.59905,1977.9146 c 4.5021,-7.8479 32.55327,-38.7266 72.63342,-79.9547 86.90833,-89.3976 127.68222,-132.0294 136.0941,-142.2953 23.11333,-28.2077 42.77873,-64.5035 56.23723,-103.7949 14.7773,-43.1418 20.5104,-76.4712 19.5999,-113.9428 l -0.1637,-6.7377 -8.25,6.3407 c -22.37449,17.1965 -52.74468,34.7315 -75.25,43.4475 -52.64804,20.39 -65.8949,26.1515 -98,42.6234 -58.26818,29.8953 -103.29198,61.6144 -143.35189,100.9909 -26.02143,25.5775 -44.43929,47.5453 -61.64043,73.5215 -9.41681,14.2207 -15.40855,24.8056 -38.52154,68.0514 -22.29825,41.7214 -31.52512,56.3908 -42.05131,66.8555 -13.16575,13.0888 -30.78639,19.7039 -55.43483,20.8113 -19.54368,0.878 -33.35119,-2.3676 -48.93961,-11.5038 -9.44873,-5.5377 -23.12671,-19.4698 -31.08092,-31.6583 -4.55025,-6.9725 -7.35807,-10.3815 -8.26422,-10.0338 -0.75486,0.2897 -4.91414,1.4309 -9.24286,2.5362 -15.15674,3.8698 -31.39458,6.1649 -47.49942,6.7135 l -16.02703,0.546 -10.97297,-4.3542 c -25.33421,-10.0529 -52.81543,-25.3967 -65.4786,-36.5592 -21.89529,-19.3006 -48.08643,-53.4753 -60.54499,-79.0005 -11.61566,-23.7982 -19.44697,-53.8682 -24.05686,-92.3716 -2.1888,-18.2815 -2.51369,-57.9727 -0.56464,-68.9811 10.22151,-57.732 40.19487,-114.6262 109.47526,-207.8016 49.20365,-66.1741 71.68171,-101.1237 93.707,-145.6984 19.72578,-39.9209 28.97111,-69.5465 28.99975,-92.9262 0.0227,-18.5056 4.14073,-60.3857 7.61223,-77.4152 3.80399,-18.6605 11.58437,-36.7128 24.89002,-57.7504 4.83807,-7.6495 11.62673,-18.4082 15.08591,-23.9082 11.20758,-17.8197 42.24372,-55.79095 65.56659,-80.21754 l 10.7107,-11.21758 -5.95843,-17.78242 C 510.13598,870.3347 499.79195,826.76912 493.59909,782.54689 486.9564,735.11253 484.72478,681.7811 487.61187,639.46361 l 0.55951,-8.20102 9.16431,3.32316 c 35.70484,12.94732 82.85067,34.40805 115.75761,52.69273 5.82632,3.23738 11.00132,5.88062 11.5,5.87385 0.49869,-0.007 3.36382,-4.7892 6.36697,-10.62763 11.88258,-23.10098 31.4632,-48.84193 53.1657,-69.89236 13.93942,-13.52061 22.04158,-20.29155 50.87403,-42.51521 38.21016,-29.45186 85.21551,-67.54245 114,-92.37939 34.74095,-29.97653 71.27664,-66.29552 106.83233,-106.19869 l 8.13135,-9.12559 -7.73184,-4.49748 c -25.78163,-14.99676 -46.4583,-37.66663 -55.9769,-61.37301 -14.24912,-35.48786 -13.5286,-79.52628 1.83763,-112.31696 6.54621,-13.96925 16.2002,-27.45131 28.35912,-39.6043 19.65316,-19.64357 40.20417,-30.90843 66.81464,-36.62387 13.58487,-2.91778 41.68277,-3.19232 54.91587,-0.53657 17.5616,3.52444 33.4321,10.04558 48.3178,19.85363 10.5232,6.93365 32.4161,28.82651 39.3497,39.34973 14.0794,21.36825 20.7401,42.57652 21.8273,69.5 2.1408,53.01087 -20.6857,94.90867 -66.4404,121.951 l -7.2635,4.29289 6.7357,7.62805 c 32.545,36.85654 68.9847,74.16111 95.2912,97.55276 32.6659,29.04643 79.5168,67.04196 123.8936,100.47612 13.4164,10.10819 29.1664,22.47297 35,27.4773 38.6134,33.12475 66.42,71.11346 82.436,112.62188 12.9425,33.54315 22.1659,68.81412 27.327,104.5 4.3701,30.21695 0.6017,87.19371 -8.1559,123.31371 -1.3754,5.67253 -2.5007,10.47465 -2.5007,10.67136 0,0.19671 6.4125,4.95443 14.25,10.57271 99.3022,71.18439 176.4123,161.67589 248.8576,292.04329 77.9417,140.2585 124.8473,289.3631 147.3498,468.3989 6.3132,50.2299 12.3394,141.0516 16.1401,243.25 l 0.6787,18.25 h -57.0558 -57.0557 l -0.4515,-105.75 c -0.2802,-65.6085 -0.8815,-111.0642 -1.5843,-119.75 -7.6148,-94.1172 -19.0529,-157.2751 -44.4611,-245.5 -25.8551,-89.7768 -49.175,-151.5248 -82.3301,-218 -23.3967,-46.9095 -40.9839,-76.6599 -69.2005,-117.0588 -17.4454,-24.9773 -24.2347,-34.0913 -36.2259,-48.6297 C 1442.2522,1021.833 1306.5296,938.61103 1163.5,901.6406 c -19.734,-5.10087 -56.3856,-12.92371 -57.1181,-12.19118 -0.1828,0.18282 0.2088,3.23103 0.8702,6.7738 0.826,4.42369 1.1276,17.5615 0.9631,41.94141 -0.1318,19.525 0.105,37.46166 0.5262,39.85925 l 0.7659,4.35926 13.4963,4.738 c 73.7324,25.88436 154.0584,65.04696 207.4964,101.16386 44.678,30.1964 69.2335,54.6694 99.7143,99.3796 49.9766,73.3071 93.187,165.8774 126.8232,271.6955 31.3141,98.5127 48.5305,181.0295 55.9202,268.0202 3.1297,36.8423 3.9111,64.127 4.6117,161.0343 l 0.6561,90.75 h -441.6718 c -353.05316,0 -441.52786,-0.2508 -440.95465,-1.25 z M 473.5,1850.419 c 8.06119,-4.1219 13.02621,-10.6017 21.64937,-28.2544 8.60724,-17.6201 16.62038,-37.259 21.82928,-53.5 2.63304,-8.2097 3.09707,-10.9608 2.59183,-15.3668 -1.79164,-15.6243 -12.23181,-25.1332 -27.5947,-25.1332 -12.83977,0 -25.83942,14.2743 -43.05566,47.2772 -6.74052,12.9214 -8.89722,16.0899 -15.72303,23.0992 -8.5083,8.737 -10.43847,11.7252 -12.2687,18.9937 -1.83439,7.285 0.14339,12.8304 7.01107,19.6579 5.47895,5.4468 16.41508,11.9716 24.53195,14.6363 5.57605,1.8306 16.06664,1.1272 21.02859,-1.4099 z M 345.44942,1736.1256 c 11.86138,-4.4937 19.09352,-14.4352 20.1802,-27.7402 0.68945,-8.4414 2.62967,-14.8081 7.22875,-23.7208 4.66728,-9.0448 17.00632,-21.5528 26.64163,-27.0064 8.72085,-4.936 16.72641,-12.9011 19.03051,-18.9343 6.45834,-16.9109 -10.24806,-40.1769 -31.31109,-43.605 -7.19336,-1.1707 -17.15213,0.8266 -25.01344,5.0166 -14.18133,7.5586 -35.41451,26.2522 -46.03494,40.5291 -7.24809,9.7435 -16.63299,29.0626 -19.62585,40.4004 -7.579,28.7115 -5.02476,44.7715 8.40107,52.8225 7.27625,4.3633 11.71178,5.2564 24.05374,4.8434 7.81801,-0.2616 12.01965,-0.9271 16.44942,-2.6053 z m 713.21678,-254.4545 c 6.7212,-1.996 13.2799,-7.1793 17.9945,-14.2211 2.1304,-3.182 7.0629,-10.2854 10.961,-15.7854 35.5689,-50.1854 55.6316,-105.3173 60.3697,-165.8952 2.1519,-27.512 0.9069,-37.7825 -5.766,-47.5677 -8.0466,-11.7995 -24.0601,-16.4014 -45.1598,-12.978 -18.7166,3.0368 -25.7206,11.6531 -23.044,28.3488 1.7186,10.7204 1.4374,41.2189 -0.5172,56.0921 -3.0789,23.4285 -7.7674,37.8152 -21.5086,66 -11.6368,23.8683 -21.4707,39.1938 -34.1718,53.2547 -6.6245,7.3337 -9.2707,13.8743 -9.2023,22.7453 0.082,10.6784 5.9386,18.2319 19.3854,25.0036 12.5134,6.3016 21.4018,7.752 30.6591,5.0029 z M 536.60112,1285.2582 c 7.12311,-3.2349 10.99006,-8.2164 18.35848,-23.6496 3.78376,-7.9252 7.82912,-15.7429 8.9897,-17.3728 l 2.11014,-2.9634 4.26989,2.8817 c 16.897,11.4036 49.86753,13.4854 67.0581,4.234 6.8721,-3.6983 15.44708,-12.4845 19.26218,-19.7365 4.19758,-7.9791 8.04339,-20.5359 9.25913,-30.2316 1.5675,-12.501 -1.03091,-25.6231 -7.2921,-36.8256 l -2.50149,-4.4757 16.19242,-8.0965 c 23.1144,-11.5577 27.25799,-16.4266 27.11203,-31.8576 -0.15938,-16.8509 -9.20064,-31.3701 -22.31882,-35.8414 -1.86958,-0.6372 -6.88468,-1.1586 -11.14467,-1.1586 -9.40345,0 -16.48779,2.0533 -34.83555,10.0964 -63.72539,27.9354 -111.51416,75.9493 -138.75018,139.4036 -3.90642,9.1012 -4.79932,12.3324 -5.17257,18.7185 -0.24865,4.2541 0.0792,9.8645 0.7304,12.5 3.68561,14.9153 19.75688,26.1248 37.57179,26.2058 4.75034,0.022 8.31801,-0.5668 11.10112,-1.8307 z M 730.5,1014.5131 c 2.2,-1.1335 14.9312,-7.9856 28.29156,-15.22676 26.77544,-14.51205 36.61315,-18.93055 50.30937,-22.5959 5.03648,-1.34785 9.31123,-2.60463 9.49944,-2.79285 0.18822,-0.18821 -0.14502,-4.59263 -0.74052,-9.78758 -1.34268,-11.71321 -0.48794,-43.7805 1.53074,-57.42845 0.81213,-5.49069 1.34734,-10.11233 1.18936,-10.27031 -0.60267,-0.60267 -23.52419,5.75775 -33.07995,9.17925 -21.9223,7.84942 -53.14651,25.47846 -72.44083,40.89974 -3.60754,2.88338 -8.92868,6.74109 -11.82474,8.57269 -11.51684,7.28375 -17.16767,17.4767 -15.79217,28.48585 1.42415,11.39852 11.37287,26.67732 20.70496,31.79782 4.60937,2.5292 16.70149,2.0783 22.35278,-0.8335 z m 441.1042,-197.35658 c 5.3311,-2.71209 7.6302,-4.60511 10.1322,-8.34266 4.5543,-6.80316 5.7177,-11.61516 5.7177,-23.64923 0,-12.03407 -1.1634,-16.84607 -5.7177,-23.64923 -2.5024,-3.73816 -4.8006,-5.63013 -10.1335,-8.34266 l -6.8972,-3.50811 -50.8528,-0.29294 L 1063,749.07875 v -47.79028 c 0,-31.92549 -0.3803,-49.68409 -1.1457,-53.49511 -2.256,-11.23353 -10.5036,-20.66859 -20.677,-23.65397 -6.2756,-1.84158 -18.6478,-2.33915 -25.3545,-1.01968 -14.7634,2.90452 -22.66391,10.54241 -25.69842,24.84414 -0.65193,3.07253 -1.12415,15.25809 -1.12384,29 l 5.3e-4,23.70078 7.99952,7.31632 c 24.93321,22.80385 54.31801,61.06691 73.99881,96.35691 l 8.1831,14.67323 7.6588,0.6261 c 4.2123,0.34436 8.7837,0.77515 10.1587,0.95731 1.375,0.18217 17.1719,0.27247 35.1042,0.20067 l 32.6042,-0.13054 z"
       id="path1" />
  </g>
</svg>
