<?xml version="1.0" encoding="UTF-8" standalone="no"?>
<!-- Created with Inkscape (http://www.inkscape.org/) -->

<svg
   version="1.1"
   id="svg1"
   width="2048"
   height="1844"
   viewBox="0 0 2048 1844"
   xmlns="http://www.w3.org/2000/svg"
   xmlns:svg="http://www.w3.org/2000/svg">
  <defs
     id="defs1" />
  <g
     id="g1">
    <path
       style="fill:#000000"
       d="m 736,1668.4275 c 0,-2.3087 34.42935,-37.0498 57,-57.5161 8.525,-7.7302 15.63919,-14.3884 15.80931,-14.7961 0.17011,-0.4077 7.90593,-7.5561 17.19069,-15.8854 9.28476,-8.3293 17.02058,-15.481 17.19069,-15.8926 0.17012,-0.4117 5.70931,-5.599 12.30931,-11.5274 6.6,-5.9283 13.5256,-12.3713 15.39023,-14.3177 1.86462,-1.9464 8.38962,-8.0129 14.5,-13.481 6.11037,-5.4682 12.45977,-11.4022 14.10977,-13.1868 1.65,-1.7846 8.175,-7.9176 14.5,-13.6289 19.0536,-17.2048 33.37275,-32.0825 42.79611,-44.4656 2.9298,-3.85 5.86966,-7.675 6.53301,-8.5 11.56758,-14.3864 28.75344,-47.0957 38.35508,-73 14.1318,-38.1263 19.301,-66.0875 18.473,-99.9243 l -0.1572,-6.4243 -2.25,2.0493 c -1.2375,1.1272 -3.375,2.6291 -4.75,3.3376 -1.375,0.7086 -4.7909,3.0148 -7.5909,5.125 -2.7999,2.1102 -5.45337,3.8367 -5.89646,3.8367 -0.4431,0 -3.10221,1.5198 -5.90913,3.3774 -4.43989,2.9382 -12.76046,7.5982 -23.10351,12.9393 -6.53699,3.3756 -21.27113,9.9904 -26,11.6725 -2.75,0.9782 -9.95,3.4869 -16,5.5749 -6.05,2.088 -15.5,5.4981 -21,7.578 -5.5,2.0798 -11.35,4.094 -13,4.4759 -1.65,0.3819 -6.18853,2.1398 -10.08563,3.9064 -3.89709,1.7666 -8.84709,3.7798 -11,4.4737 -10.22382,3.2954 -50.87527,22.2945 -74.41437,34.7787 -23.33128,12.374 -54.3243,31.8254 -68.47157,42.9732 -2.96645,2.3375 -5.65357,4.25 -5.97139,4.25 -1.00491,0 -13.30186,10.0748 -27.42168,22.4665 -14.71199,12.9113 -32.99252,30.6982 -40.63064,39.5335 -2.61511,3.025 -5.92834,6.85 -7.36272,8.5 -5.68161,6.5357 -12.8194,15.7583 -21.28332,27.5 -2.50765,3.4788 -23.09153,36.7659 -26.28083,42.5 -0.91773,1.65 -3.43539,5.925 -5.59478,9.5 -2.1594,3.575 -5.81917,9.875 -8.13284,14 -2.31366,4.125 -4.51368,7.725 -4.88891,8 -0.37524,0.275 -1.37413,1.85 -2.21975,3.5 -0.84563,1.65 -3.40038,5.7 -5.67723,9 -2.27686,3.3 -4.90521,7.125 -5.84079,8.5 -6.22912,9.1548 -18.2009,21.7451 -23.22355,24.4235 -1.375,0.7332 -4.975,2.6892 -8,4.3468 -12.37662,6.7817 -43.33188,11.1001 -59.55292,8.3078 -11.22928,-1.933 -22.87006,-5.8804 -30.99157,-10.5093 -8.03501,-4.5795 -24.2308,-18.8519 -27.62622,-24.3453 -1.11386,-1.8021 -2.56046,-3.8271 -3.21467,-4.5 -0.65421,-0.6729 -2.23885,-2.9385 -3.52142,-5.0347 -1.66495,-2.7211 -2.79834,-3.6305 -3.96257,-3.1795 -3.36088,1.3019 -21.29917,5.3806 -28.8228,6.5535 -4.29431,0.6695 -17.03283,1.2667 -28.30783,1.3272 l -20.5,0.11 -8,-3.3826 c -4.4,-1.8605 -11.15,-4.6173 -15,-6.1262 -17.30442,-6.782 -36.77143,-17.2622 -47.98235,-25.8317 -6.69889,-5.1205 -30.80793,-28.9988 -37.01765,-36.6633 -6.65078,-8.209 -16.56284,-21.8074 -18.22,-24.9962 -0.85749,-1.65 -1.89024,-3.225 -2.29501,-3.5 -1.99093,-1.3526 -11.47632,-22.4578 -15.37906,-34.2187 -9.93496,-29.9389 -15.53628,-68.6189 -14.30471,-98.7813 1.51615,-37.132 16.75232,-75.2801 50.52351,-126.5 3.62636,-5.5 6.95477,-10.45 7.39646,-11 0.4417,-0.55 3.06579,-4.15 5.83132,-8 2.76552,-3.85 5.57897,-7.675 6.25211,-8.5 0.67313,-0.825 2.32522,-3.075 3.6713,-5 3.62514,-5.1842 16.18659,-21.3453 17.48841,-22.5 0.6201,-0.55 1.79267,-1.9675 2.60572,-3.1501 0.81304,-1.1825 3.26739,-4.2861 5.4541,-6.8969 2.18672,-2.6107 5.55085,-6.6253 7.47585,-8.9213 1.925,-2.296 5.3,-6.346 7.5,-9 2.2,-2.654 5.575,-6.6994 7.5,-8.9897 1.925,-2.2903 5.075,-6.1284 7,-8.5293 1.925,-2.4008 4.85,-6.0329 6.5,-8.0713 1.65,-2.0384 4.8,-6.074 7,-8.968 2.2,-2.894 5.15369,-6.6595 6.56375,-8.3676 1.41006,-1.7082 3.63838,-4.6808 4.95182,-6.6058 1.31344,-1.925 2.66445,-3.725 3.00225,-4 0.86028,-0.7003 11.71566,-16.0279 16.64327,-23.5 1.45084,-2.2 2.93187,-4.225 3.29119,-4.5 0.35931,-0.275 1.74025,-2.3 3.06876,-4.5 1.3285,-2.2 2.79082,-4.45 3.24958,-5 0.45877,-0.55 2.67415,-3.925 4.92307,-7.5 2.24893,-3.575 5.09664,-8.075 6.32826,-10 9.31907,-14.5655 24.1351,-43.8938 29.30044,-57.99997 7.94283,-21.69133 9.75298,-30.6483 10.60995,-52.5 1.02171,-26.05234 5.33792,-57.32309 9.86893,-71.5 3.57473,-11.18482 9.99274,-24.13686 17.50394,-35.32427 3.68213,-5.48429 7.77534,-11.5924 9.096,-13.57358 1.32067,-1.98118 2.70878,-3.82715 3.0847,-4.10215 0.37592,-0.275 3.10188,-4.1 6.05769,-8.5 4.822,-7.17797 10.79048,-14.96395 14.9564,-19.51086 0.825,-0.90044 3.75,-4.2991 6.5,-7.55257 7.4195,-8.77786 20.94537,-22.90595 39.67029,-41.43657 l 16.67302,-16.5 -4.93104,-13 c -15.14321,-39.92297 -26.70166,-83.77761 -32.81357,-124.5 -5.36677,-35.75762 -7.73631,-77.88455 -6.23423,-110.83519 0.53492,-11.73436 1.12174,-21.45406 1.30405,-21.59935 0.87705,-0.69892 36.85422,11.40387 48.33148,16.25881 2.75,1.16327 7.925,3.21314 11.5,4.55527 10.41052,3.90835 25.04251,10.10985 31.51542,13.35724 3.29152,1.65132 7.10958,3.34531 8.48458,3.76442 5.86905,1.78896 55.98456,27.36215 65.71797,33.5349 2.57047,1.63014 5.06018,2.9639 5.53268,2.9639 0.4725,0 3.4219,1.72449 6.55422,3.8322 3.13232,2.10771 7.15291,4.54587 8.93464,5.41813 l 3.23952,1.58592 6.37967,-5.66813 c 9.58089,-8.5123 16.434,-14.16812 17.1674,-14.16812 0.3602,0 3.0252,-2.025 5.92222,-4.5 2.89702,-2.475 5.59047,-4.5 5.98545,-4.5 0.39498,0 3.34978,-2.025 6.56623,-4.5 3.21645,-2.475 6.14145,-4.5 6.5,-4.5 0.35855,0 3.28355,-2.025 6.5,-4.5 3.21645,-2.475 6.12719,-4.5 6.46833,-4.5 0.34113,0 3.51956,-2.1375 7.06317,-4.75 3.54361,-2.6125 9.39116,-6.775 12.99455,-9.25 3.60339,-2.475 8.97879,-6.4125 11.94534,-8.75 2.96654,-2.3375 5.66538,-4.25 5.99742,-4.25 0.33204,0 3.62489,-2.24545 7.31745,-4.9899 3.69256,-2.74444 9.33009,-6.90694 12.52786,-9.25 3.19776,-2.34305 8.2539,-6.1726 11.23587,-8.5101 2.98196,-2.3375 5.7171,-4.25 6.07807,-4.25 0.36097,0 3.0266,-2.025 5.92362,-4.5 2.89702,-2.475 5.59702,-4.5 6,-4.5 0.40298,0 3.10298,-2.025 6,-4.5 2.89702,-2.475 5.55275,-4.5 5.90162,-4.5 0.34887,0 3.4271,-2.24193 6.84051,-4.98208 25.66301,-20.6012 27.53476,-22.13966 33.17511,-27.26792 2.87338,-2.6125 5.54643,-4.75 5.94012,-4.75 1.37435,0 40.2492,-35.88127 59.87034,-55.25999 l 19.77939,-19.53501 -6.44187,-3.6025 c -3.54303,-1.98138 -6.76161,-3.6025 -7.15239,-3.6025 -0.39079,0 -3.46767,-1.9574 -6.83752,-4.34978 -3.36984,-2.39239 -6.65528,-4.52989 -7.30096,-4.75 -0.64568,-0.22012 -5.5178,-4.45022 -10.82694,-9.40022 -13.51316,-12.59906 -20.51199,-22.36228 -26.52369,-37 -10.30974,-25.10292 -11.72009,-55.39976 -3.79187,-81.45619 1.85321,-6.09063 9.48539,-22.50251 11.76826,-25.30589 0.55444,-0.68086 3.32574,-4.38792 6.15846,-8.23792 6.58532,-8.95025 20.27337,-22.19627 29.88975,-28.92452 9.93772,-6.953081 28.33752,-15.811579 39.5,-19.017091 17.2571,-4.955696 23.9505,-5.880989 43,-5.944328 19.4037,-0.06452 28.5083,1.186965 42.9631,5.905484 4.1793,1.364251 8.1344,2.480457 8.7891,2.480457 2.2098,0 23.1964,11.096131 29.9137,15.816108 13.9292,9.78752 27.8644,23.69826 36.6463,36.58208 3.8346,5.62558 10.1872,18.57049 12.5882,25.65125 7.2829,21.4774 7.1998,50.64552 -0.2098,73.68663 -2.6699,8.30238 -10.5575,24.38891 -13.4701,27.47203 -0.6713,0.71055 -2.549,3.0919 -4.1728,5.2919 -6.5074,8.81679 -24.9271,24.58338 -35.8376,30.67574 -0.6655,0.37166 -4.2958,2.33312 -8.0671,4.3588 l -6.8571,3.68306 23.5513,23.36208 c 43.1972,42.85005 75.7729,70.53591 130.1628,110.62428 3.85,2.83767 9.5495,7.10264 12.6655,9.47772 3.1161,2.37507 5.9589,4.31832 6.3175,4.31832 0.3585,0 3.0423,1.9125 5.9639,4.25 2.9216,2.3375 6.6037,5.02556 8.1825,5.97348 1.5788,0.94791 6.6956,4.44727 11.3706,7.77636 12.3591,8.80096 21.6645,15.21824 25.3763,17.50016 1.7892,1.1 5.5343,3.6875 8.3224,5.75 2.7881,2.0625 5.3806,3.75 5.7612,3.75 0.3806,0 3.3237,2.025 6.5401,4.5 3.2164,2.475 6.127,4.5 6.4679,4.5 0.8785,0 19.4903,14.97489 29.3431,23.60915 11.8918,10.42118 28.3846,28.19247 36.5569,39.39085 2.609,3.575 5.3015,7.1852 5.9834,8.02266 2.3233,2.85331 12.0607,19.43357 15.249,25.965 18.9822,38.88684 32.7355,88.69999 35.0312,126.88036 l 0.6835,11.36802 5.7912,4.13198 c 3.1852,2.27259 7.7268,5.40194 10.0925,6.95411 2.3657,1.55217 5.7868,3.80217 7.6024,5 1.8157,1.19783 5.7228,4.09037 8.6826,6.42787 2.9598,2.3375 5.7007,4.25 6.091,4.25 0.3903,0 3.08,2.025 5.977,4.5 2.897,2.475 5.5737,4.5 5.9483,4.5 0.3746,0 3.0028,1.92997 5.8405,4.28882 2.8377,2.35885 6.5807,5.39635 8.3178,6.75 21.5352,16.78178 52.8008,45.76936 73.1786,67.84684 4.7647,5.16211 9.7881,10.6027 11.1631,12.09018 2.4541,2.65484 7.5832,8.60322 15.9728,18.52416 2.3255,2.75 5.1835,6.125 6.3511,7.5 3.0105,3.54534 9.8563,12.02673 12.1958,15.10963 2.6709,3.51971 14.1623,18.77699 16.4872,21.89037 1.6043,2.14833 7.784,10.6338 13.7605,18.89482 0.9529,1.31715 2.4076,3.41704 3.2326,4.66643 0.825,1.24938 5.9554,8.94671 11.4009,17.10517 13.5169,20.25098 21.4312,32.79575 31.1239,49.33355 2.0952,3.575 4.7888,8.075 5.9858,10 8.0528,12.9514 40.4894,74.9129 40.4894,77.3445 0,0.2356 2.0577,4.867 4.5726,10.292 5.838,12.5933 6.391,13.8503 11.3769,25.8635 2.2827,5.5 4.5577,10.9 5.0556,12 1.9318,4.2681 4.4297,10.7555 11.9362,31 31.8703,85.9522 53.2333,181.308 63.5139,283.5 4.0994,40.7487 11.4977,160.4931 11.5382,186.75 l 0.01,4.25 h -57 -57 l -0.01,-82.75 c -0.01,-81.7789 -0.6418,-106.5313 -3.5361,-137.75 -6.938,-74.8341 -21.5538,-140.8698 -50.0212,-226 -8.004,-23.9358 -22.4117,-63.2254 -26.4026,-72 -0.5003,-1.1 -4.0359,-9.425 -7.8568,-18.5 -12.5012,-29.691 -24.6261,-54.3146 -42.3473,-86 -14.2387,-25.4586 -16.3662,-29.1469 -17.6478,-30.5938 -0.5329,-0.6017 -1.7297,-2.5653 -2.6597,-4.3636 -0.93,-1.7984 -3.6907,-6.1909 -6.1351,-9.7612 -2.4443,-3.57029 -5.0958,-7.75154 -5.8922,-9.29166 -0.7965,-1.54013 -2.0379,-3.40536 -2.7588,-4.14497 -0.7208,-0.73961 -2.402,-3.14474 -3.7358,-5.34474 -1.3338,-2.2 -3.0074,-4.59759 -3.7191,-5.32798 -0.7117,-0.73038 -1.7871,-2.24926 -2.3897,-3.37527 -1.0177,-1.90159 -6.1789,-9.03196 -9.4273,-13.02412 -0.7731,-0.95005 -2.6035,-3.53755 -4.0676,-5.75 -1.4641,-2.21245 -2.9398,-4.02343 -3.2792,-4.02442 -0.3394,-9.8e-4 -1.8959,-2.02598 -3.4589,-4.5 -1.563,-2.47401 -3.1535,-4.49821 -3.5344,-4.49821 -0.3809,0 -1.5268,-1.41216 -2.5463,-3.13813 -1.0196,-1.72598 -2.5852,-3.86956 -3.4791,-4.76351 -0.894,-0.89396 -2.7236,-3.1943 -4.0659,-5.11187 -1.3423,-1.91757 -3.4378,-4.61149 -4.6566,-5.98649 -1.2189,-1.375 -4.0946,-4.75 -6.3906,-7.5 -13.0183,-15.59302 -38.5833,-41.7804 -53.0956,-54.38835 -12.3396,-10.72024 -17.9427,-15.45588 -21.4293,-18.11165 -1.8052,-1.375 -6.751,-5.2 -10.9906,-8.5 -4.2397,-3.3 -9.9069,-7.575 -12.5938,-9.5 -12.6808,-9.08484 -22.1747,-15.63416 -24.6543,-17.00749 -1.4969,-0.82912 -5.3825,-3.41662 -8.6345,-5.75 -3.252,-2.33338 -6.3596,-4.24251 -6.9056,-4.24251 -0.5461,0 -2.5511,-1.18855 -4.4556,-2.64122 -1.9046,-1.45268 -6.6721,-4.44299 -10.5944,-6.64515 -28.7258,-16.12769 -34.1062,-19.01219 -52.6316,-28.21622 -17.5435,-8.71617 -35.5934,-17.06585 -39,-18.04088 -1.375,-0.39355 -4.75,-1.84711 -7.5,-3.23014 -2.75,-1.38302 -7.925,-3.53244 -11.5,-4.77648 -3.575,-1.24404 -9.875,-3.6207 -14,-5.28147 -15.5547,-6.26249 -51.5448,-18.0739 -68.5,-22.48069 -35.3743,-9.19406 -63.2917,-15.41304 -75.3311,-16.78106 -4.7316,-0.53764 -9.6954,-1.25172 -11.0307,-1.58684 -2.1711,-0.54492 -2.3633,-0.35272 -1.8184,1.81838 1.9658,7.83212 2.6269,22.84858 2.0853,47.36177 -0.3282,14.85 -0.2045,28.75872 0.2748,30.90827 0.9749,4.37192 0.8041,4.28273 18.3201,9.56936 14.4649,4.36577 54.8083,18.73261 66,23.50354 3.575,1.52399 8.75,3.56419 11.5,4.53377 5.5807,1.96762 17.6726,7.10828 30.5,12.96651 4.675,2.13505 13.675,6.19699 20,9.02653 6.325,2.82953 12.175,5.49183 13,5.91622 0.825,0.42439 4.875,2.4395 9,4.47802 8.1323,4.01889 9.0841,4.51025 22.5,11.6157 26.4595,14.01373 47.4648,27.1429 64.767,40.48208 2.8536,2.2 6.1641,4.675 7.3567,5.5 11.0596,7.65057 34.5071,30.25093 43.9036,42.31737 1.635,2.09955 4.3227,5.5262 5.9727,7.61478 4.23,5.35438 19.7581,26.06865 21.7902,29.06785 9.5192,14.04938 22.746,34.10387 24.0735,36.49997 0.9141,1.65 3.4991,5.925 5.7444,9.5 2.2453,3.575 9.337,15.95 15.7593,27.5 33.6292,60.4789 57.9727,118.8219 84.4927,202.5 25.0661,79.0906 38.8353,154.9367 42.5714,234.5 0.5424,11.55 1.2789,57.5625 1.6368,102.25 l 0.6507,81.25 H 1177.1095 C 934.49927,1669.2299 736,1668.8688 736,1668.4275 Z M 474.63098,1553.9207 c 4.97768,-2.574 13.8088,-11.8661 16.338,-17.1908 1.30624,-2.75 4.56007,-8.9088 7.23072,-13.6862 4.1613,-7.4439 7.12557,-13.7451 14.26058,-30.3138 0.71055,-1.65 2.7794,-7.2189 4.59746,-12.3753 3.1364,-8.8954 3.2501,-9.6991 2.22171,-15.7028 -2.1643,-12.6351 -10.82964,-20.0542 -24.72564,-21.1696 -5.72808,-0.4598 -7.15114,-0.1885 -12.07288,2.3016 -10.29065,5.2066 -22.63068,20.167 -34.53669,41.8704 -5.53287,10.0858 -7.01118,11.9235 -17.25069,21.4442 -12.25947,11.3989 -13.71791,22.1606 -4.32786,31.935 4.33014,4.5074 19.43117,12.9413 25.63431,14.3167 5.42207,1.2023 19.22823,0.3303 22.63098,-1.4294 z M 346.5,1450.7407 c 12.27895,-4.8293 17.90243,-12.3162 19.42089,-25.8563 0.94579,-8.4337 4.81789,-17.813 10.33864,-25.0434 6.8458,-8.9656 14.46049,-14.7257 32.19825,-24.3559 2.87252,-1.5595 9.18616,-9.1885 10.53044,-12.7242 4.54934,-11.9657 -4.26411,-27.3626 -20.32407,-35.5057 l -8.42939,-4.2741 -9.4833,0.4147 c -8.74187,0.3824 -10.17789,0.754 -18.36738,4.753 -20.18508,9.8566 -41.1532,27.8297 -52.60415,45.0905 -6.21746,9.3719 -11.55021,21.0815 -14.1395,31.0471 -6.50562,25.0388 -3.68121,38.3605 9.54896,45.0391 8.29265,4.1861 11.95559,4.8787 23.81061,4.502 8.57671,-0.2726 11.7822,-0.838 17.5,-3.0868 z m 715.72,-229.5142 c 11.3316,-3.2716 45.4939,-49.9344 61.4948,-83.9966 2.1961,-4.675 4.3387,-9.625 4.7614,-11 0.4227,-1.375 1.1115,-2.95 1.5307,-3.5 0.4191,-0.55 2.824,-7.3 5.3441,-15 8.1898,-25.0238 12.1997,-47.4316 13.3316,-74.5 0.4984,-11.919 0.3077,-15.5266 -1.0712,-20.2677 -4.841,-16.64416 -19.0729,-24.65238 -41.6114,-23.41453 -17.8621,0.98101 -28.2975,5.65737 -31.5336,14.13103 -1.5624,4.0911 -1.6379,5.6239 -0.6325,12.8483 1.7653,12.6851 1.9657,19.0529 1.0801,34.3126 -0.9011,15.5261 -3.6434,30.8915 -7.5531,42.32 -4.8776,14.2583 -17.0197,37.6286 -28.3522,54.5703 -7.5831,11.3366 -9.6464,13.9039 -19.6589,24.4609 -8.5362,9.0006 -10.5969,13.2578 -10.6915,22.0879 -0.074,6.9431 1.6655,11.1099 6.5293,15.6382 4.0594,3.7793 18.0744,10.6959 24.2958,11.9903 6.4943,1.3511 16.764,1.0436 22.7366,-0.6807 z M 536.5,1045.1819 c 9.54206,-4.7809 10.21806,-5.5156 17.03041,-18.5092 6.44876,-12.3001 11.43846,-20.4428 12.52697,-20.4428 0.50192,0 3.07896,1.333 5.72677,2.9622 11.45784,7.0501 39.00745,10.0738 55.71585,6.1152 17.76557,-4.2092 28.87029,-15.2299 35.34482,-35.07737 5.45537,-16.72333 4.68516,-30.21703 -2.50196,-43.83305 C 658.50429,932.9137 657,929.96313 657,929.84007 c 0,-0.12307 3.2625,-1.72201 7.25,-3.5532 26.58374,-12.20814 27.54636,-12.781 31.51118,-18.75246 3.54597,-5.34062 3.73882,-6.04817 3.73882,-13.71777 0,-7.06649 -0.41615,-8.96983 -3.29859,-15.08671 -4.15063,-8.80811 -10.39534,-14.88617 -17.44536,-16.97981 -6.24474,-1.85448 -18.11077,-1.91034 -26.43223,-0.12442 -7.08095,1.51968 -24.11884,8.00806 -35.82382,13.64245 -4.4,2.11801 -9.24787,4.31868 -10.77304,4.89036 -1.52517,0.57169 -5.12517,2.53649 -8,4.36623 -2.87483,1.82973 -6.01964,3.62479 -6.98846,3.98902 -2.32947,0.87575 -17.68265,10.98413 -25.2385,16.61677 -12.17907,9.07911 -28.69836,24.51372 -38.18335,35.6762 -8.48805,9.98922 -10.10399,12.0788 -15.02062,19.4232 -8.96711,13.39495 -12.50828,19.32923 -17.53957,29.39278 C 488.05031,1003.0363 487,1006.3684 487,1014.2299 c 0,8.2468 1.83401,13.7405 6.4799,19.4102 8.86926,10.8238 32.04382,17.0412 43.0201,11.5418 z m 207,-249.80774 c 9.35,-4.56207 19.475,-9.57815 22.5,-11.14684 12.85372,-6.66565 31.09993,-13.84036 40.66621,-15.99065 5.59141,-1.25682 10.64852,-2.58322 11.23801,-2.94755 0.76137,-0.47055 0.75011,-3.25414 -0.0389,-9.6108 -1.35931,-10.95121 -0.53621,-38.25116 1.54994,-51.40748 0.82494,-5.2025 1.38521,-9.57378 1.24504,-9.71395 -0.77277,-0.77276 -25.00595,5.48685 -36.1603,9.34048 -13.72695,4.74241 -33.77976,13.59684 -41.76502,18.44157 -2.62077,1.59005 -5.10139,2.89099 -5.5125,2.89099 -0.71487,0 -8.83244,5.21912 -21.72248,13.96628 -3.3,2.23937 -9.59056,6.44143 -13.97902,9.33791 -10.85084,7.16179 -14.04378,12.22114 -13.96415,22.12677 0.0487,6.06225 0.5459,7.99478 3.49081,13.56904 3.74207,7.08315 11.02051,14.8986 16.79137,18.03024 2.91471,1.58172 5.18983,1.92778 11.16099,1.69768 7.11296,-0.2741 8.3773,-0.71707 24.5,-8.58369 z m 319.3316,-212.39423 c -0.3474,-13.86886 -0.6172,-15.75632 -2.9785,-20.84054 -2.9956,-6.44992 -6.1401,-9.65928 -13.2622,-13.53561 -4.5095,-2.45438 -6.3662,-2.81204 -16.5845,-3.19477 l -11.5064,-0.43098 1.962,2.37595 c 1.0791,1.30677 3.3291,3.75245 5,5.43484 8.9179,8.97924 29.519,34.50394 34.0525,42.19111 1.0542,1.7875 2.3178,3.25 2.808,3.25 0.4994,0 0.7232,-6.70482 0.5091,-15.25 z"
       id="path1" />
  </g>
</svg>
