<?xml version="1.0" encoding="UTF-8" standalone="no"?>
<!-- Created with Inkscape (http://www.inkscape.org/) -->

<svg
   width="2048"
   height="2047.9999"
   viewBox="0 0 541.86665 541.86663"
   version="1.1"
   id="svg1"
   xmlns="http://www.w3.org/2000/svg"
   xmlns:svg="http://www.w3.org/2000/svg">
  <defs
     id="defs1" />
  <g
     id="layer1">
    <path
       style="fill:#000000;stroke-width:0.264583"
       d="m 1.5980682,540.74389 c -1.01513103,-0.85418 -1.57040803,-2.58752 -1.80449503,-5.63292 l -0.170359,-2.21631 L 266.16569,266.35209 532.70815,-0.19047628 h 1.63457 c 3.6735,0 7.37881,0.87367 7.17939,1.69282998 C 541.47671,1.6889637 445.06823,98.450126 327.2811,216.52715 19.506532,525.05921 3.3224272,541.26317 2.8504852,541.35543 c -0.234593,0.0459 -0.798181,-0.22932 -1.252417,-0.61154 z M 127.74782,477.28176 c 35.29741,-35.27663 142.81789,-142.65254 238.9344,-238.61312 l 174.75729,-174.473773 0.071,5.845257 0.0709,5.845257 -79.18135,79.121259 C 418.8503,198.52334 313.99899,303.23696 229.39718,387.7036 l -153.821494,153.5757 -6.002488,0.0709 -6.002488,0.0709 z M 240.06619,438.29662 C 296.8264,381.57816 387.88685,290.58253 442.42272,236.08407 l 99.15612,-99.08809 -0.0697,6.08542 -0.0697,6.08541 -196.28867,196.05625 -196.28873,196.05624 -5.99813,0.0709 -5.99813,0.0709 z m 14.95094,58.03016 c 24.8173,-24.79664 99.41488,-99.24931 165.77238,-165.45033 l 120.65,-120.3655 0.071,5.8448 0.071,5.84479 -54.04596,53.98534 C 457.81019,305.87782 385.84953,377.70029 327.62292,435.79141 L 221.75631,541.4116 h -5.93078 -5.93078 z m 158.08623,-83.22955 128.33615,-128.32355 0.0708,6.15156 0.0708,6.15156 -122.11389,122.10127 -122.11391,122.10123 -6.29304,0.0707 -6.29303,0.0707 z M 373.6801,525.55255 c 8.73871,-8.72246 50.05951,-49.83432 91.82399,-91.35964 l 75.93542,-75.50063 0.0713,5.96011 0.0712,5.96011 -85.39924,85.39956 -85.39922,85.39954 h -6.49603 -6.49602 z m 85.46373,-12.1195 c 15.43087,-15.3882 40.29151,-40.18296 55.24592,-55.09948 l 27.1898,-27.12093 -0.07,6.21771 -0.07,6.21771 -48.95167,48.88177 -48.95165,48.88177 h -6.22422 -6.22424 z m 54.49877,18.51969 c 5.24721,-5.20237 13.6779,-13.56423 18.7348,-18.5819 l 9.1944,-9.12307 v 5.99924 5.99922 l -13.07716,12.58268 -13.07717,12.58269 h -5.65766 -5.65764 z M -0.29485583,465.88287 v -6.35992 L 229.56709,229.66111 459.42905,-0.20072628 l 5.96797,0.0713 5.96799,0.0713 L 299.4054,172.18556 C 204.82762,266.91962 98.704153,373.18735 63.575472,408.33608 l -63.87032783,63.90674 z m 0,-73.02455 v -6.3604 L 193.04948,193.15372 386.39381,-0.19047628 h 6.05187 6.05186 L 266.78278,131.77046 C 194.33964,204.34897 104.61135,294.21605 67.386568,331.47507 l -67.68142383,67.74365 z m 0.06132,-72.77854 0.07097,-5.84877 L 156.47076,157.08642 313.10409,-0.05818628 l 6.08542,-0.0696 6.08542,-0.0696 L 272.09336,53.053447 C 242.8435,82.341439 194.56338,130.71213 164.80422,160.5439 135.04506,190.37567 85.721396,239.79113 55.196076,270.35603 l -55.50057983,55.57255 z m -4e-5,-73.7115 0.07101,-5.72144 L 119.95826,120.29433 240.0791,-0.05818628 l 6.06836,-0.0711 c 3.3376,-0.0391 6.0133,-0.0391 5.946,0 -0.0673,0.0391 -56.8844,56.80442228 -126.26021,126.14509628 L -0.30458283,252.08973 Z m -0.06128,-73.12338 v -5.81954 L 40.91594,126.14921 c 22.665938,-22.70188 60.31638,-60.417609 83.66765,-83.812736 l 42.45685,-42.53658028 5.89424,0.071 5.89424,0.071 L 89.267035,89.503207 -0.29485583,179.06452 Z m 0,-73.427751 V 93.86834 L 46.740231,46.833804 l 47.03509,-47.03453028 5.947722,0.0713 5.947717,0.0713 L 52.687956,52.853948 -0.29485583,105.76602 Z m 9.4e-4,-73.020925 9.39e-4,-5.95233 10.51407183,-10.52199 10.514071,-10.52199028 5.890242,0.071 5.890241,0.0709 L 16.110397,16.345184 -0.29485583,32.748544 Z"
       id="path1" />
  </g>
</svg>
