<?xml version="1.0" encoding="UTF-8" standalone="no"?>
<!-- Created with Inkscape (http://www.inkscape.org/) -->

<svg
   width="2048"
   height="2047.9999"
   viewBox="0 0 541.86665 541.86663"
   version="1.1"
   id="svg1"
   xmlns="http://www.w3.org/2000/svg"
   xmlns:svg="http://www.w3.org/2000/svg">
  <defs
     id="defs1" />
  <g
     id="layer1">
    <path
       style="fill:#000000;stroke-width:0.264583"
       d="m 185.65171,475.22628 c -1.89379,-0.18894 -20.57949,-2.76768 -64.16146,-8.85465 -7.93089,-1.10768 -15.61042,-2.07672 -17.06563,-2.15342 -1.65293,-0.0871 -3.98624,0.0193 -6.217705,0.28398 -1.964531,0.23288 -4.524375,0.42576 -5.688541,0.42859 -5.777765,0.014 -15.510367,2.38054 -20.881819,5.07733 -2.4912,1.25071 -4.082817,2.30439 -5.625092,3.72393 l -1.106911,1.01881 -0.392136,-0.6128 c -0.215675,-0.33706 -6.008574,-9.82666 -12.873109,-21.08798 l -12.480975,-20.47513 1.809189,-1.83811 c 3.693232,-3.75232 5.590781,-5.04 12.39252,-8.40957 10.459445,-5.1816 18.944822,-7.92676 29.409884,-9.51452 5.711373,-0.86657 9.339067,-1.06207 19.802615,-1.06725 5.52979,-0.003 11.37808,-0.12221 12.99619,-0.26546 2.8384,-0.25127 3.20183,-0.2191 10.31875,0.91377 17.33204,2.75889 50.14186,7.28884 52.78644,7.28808 3.13996,0 8.94765,-0.46956 11.701,-0.94417 3.8161,-0.65783 6.20443,-1.5522 9.59718,-3.59394 9.0128,-5.42388 13.14721,-8.87034 18.56501,-15.4759 l 1.11669,-1.3615 -2.31667,-0.30757 c -13.90985,-1.84666 -29.16397,-5.46648 -44.00261,-10.44187 -6.79125,-2.27708 -7.80388,-2.68435 -7.72805,-3.10821 0.0347,-0.19397 5.96959,-14.99735 13.18864,-32.89642 7.21905,-17.89906 13.34611,-33.09839 13.61568,-33.77631 l 0.49014,-1.23253 -6.27045,-3.75994 c -12.26055,-7.35176 -20.09854,-12.94452 -25.02007,-17.85296 -5.01089,-4.99756 -7.87707,-9.15807 -12.21155,-17.72617 -4.82776,-9.54318 -6.7517,-15.96931 -8.23831,-27.51667 -0.66356,-5.15423 -0.66836,-17.10817 -0.009,-21.82812 2.0282,-14.51362 7.33871,-29.81472 13.63719,-39.29267 3.89068,-5.8547 10.0212,-12.59479 15.91378,-17.4961 1.23692,-1.02884 4.92786,-3.93549 8.20208,-6.45922 10.10977,-7.79247 22.5466,-17.8706 30.1625,-24.44204 9.19188,-7.93129 18.85861,-17.54069 28.26605,-28.09841 l 2.15142,-2.41448 -2.04571,-1.18995 c -6.82139,-3.9679 -12.29209,-9.965967 -14.81056,-16.23828 -3.77008,-9.389496 -3.57944,-21.041327 0.48621,-29.717195 1.73202,-3.696029 4.2863,-7.263157 7.50335,-10.478637 5.1999,-5.19736 10.63735,-8.177856 17.67804,-9.690066 3.59434,-0.771996 11.02858,-0.844633 14.52983,-0.141965 4.64651,0.932506 8.84558,2.657891 12.78409,5.25294 2.78426,1.834526 8.57676,7.627012 10.41127,10.41128 3.72518,5.653683 5.48749,11.265037 5.77514,18.388541 0.56642,14.025792 -5.47309,25.111252 -17.57902,32.266202 l -1.9218,1.13583 1.78215,2.01825 c 8.61087,9.75163 18.2522,19.62179 25.21247,25.81084 8.64285,7.6852 21.03882,17.73818 32.78018,26.5843 3.54975,2.67446 7.71694,5.94598 9.26041,7.27004 10.21647,8.76425 17.57363,18.81543 21.8112,29.79787 3.42251,8.87019 5.85726,18.17857 7.23196,27.64896 1.09254,7.52666 0.29424,21.25017 -1.80843,31.08854 -2.08687,9.76443 -6.88568,20.23962 -13.02994,28.44271 -6.08808,8.12807 -14.40912,14.76936 -31.29777,24.97976 l -5.34718,3.23276 0.49187,1.23957 c 0.27051,0.68175 6.39881,15.88426 13.61842,33.78332 7.21963,17.89907 13.155,32.70819 13.18971,32.90914 0.0436,0.25273 -1.34336,0.84564 -4.49773,1.92268 -14.83389,5.06494 -31.94833,9.36775 -44.51937,11.19277 -2.54662,0.36973 -4.72742,0.6727 -4.84621,0.67329 -0.88165,0.004 7.38298,8.80633 10.41156,11.08845 4.75036,3.57949 11.59505,7.54284 14.61259,8.46126 3.45763,1.05236 10.41437,1.88262 15.77459,1.88262 2.21801,0 38.77578,-5.06018 53.45163,-7.39854 6.40498,-1.02055 6.85406,-1.05852 9.525,-0.80521 1.54173,0.14618 7.38704,0.26712 12.98959,0.26876 11.13456,0.003 14.48784,0.19961 20.56013,1.20412 10.56079,1.74699 20.49135,5.02828 29.7107,9.8171 5.70876,2.96529 7.39325,4.10618 10.62371,7.19537 l 2.68383,2.56649 -12.38666,20.10045 c -6.81265,11.05521 -12.67134,20.55561 -13.0193,21.11197 l -0.63267,1.01156 -1.16742,-1.07609 c -2.35032,-2.16646 -6.15799,-4.22727 -10.46144,-5.66206 -5.69129,-1.89748 -11.78996,-3.08554 -15.85672,-3.08893 -1.23692,0 -3.8563,-0.19243 -5.82083,-0.42531 -2.223,-0.26353 -4.57105,-0.37129 -6.21771,-0.28538 -1.45521,0.0759 -19.7313,2.52277 -40.61354,5.43747 -20.88224,2.91468 -39.20072,5.42452 -40.70773,5.57737 -5.66714,0.57486 -12.37377,0.27151 -18.00802,-0.81449 -7.747,-1.49326 -17.5641,-5.50477 -24.25546,-9.91138 -5.23039,-3.44447 -17.35926,-13.98545 -20.28053,-17.6254 -2.32325,-2.89483 -5.09749,-9.496 -6.5655,-15.62235 -0.33999,-1.41883 -0.68403,-2.57902 -0.76451,-2.57823 -0.0805,0 -0.54362,1.45931 -1.02913,3.24114 -1.79959,6.60456 -4.27924,12.25715 -6.90631,15.74351 -3.27526,4.3466 -11.84474,11.6441 -18.58742,15.82846 -7.82727,4.85743 -18.9126,9.48457 -26.18532,10.93004 -5.22122,1.0377 -12.0648,1.35094 -17.55278,0.80333 z m 56.13847,-55.41148 c 2.66069,-6.63011 4.08014,-12.57384 4.48006,-18.75956 l 0.18128,-2.80398 h -4.26535 -4.26535 l -1.26372,2.00946 c -5.81209,9.24184 -12.32782,16.87803 -18.99289,22.25892 l -1.05625,0.85275 11.90095,-0.059 11.90095,-0.059 z m 51.67923,2.59744 c -2.27949,-1.84576 -8.64841,-8.43769 -10.94541,-11.32869 -1.27185,-1.60073 -3.81178,-5.14284 -5.64433,-7.87135 l -3.3319,-4.96094 h -4.23471 -4.23471 l 0.17211,3.01347 c 0.39365,6.89235 2.63332,15.5135 5.47966,21.09277 l 0.52504,1.02918 11.70244,-0.005 11.70244,-0.005 z m 32.39971,-45.52608 c -0.22862,-0.54571 -2.68882,-6.5286 -5.46708,-13.29532 -2.77829,-6.76671 -5.14207,-12.40565 -5.25288,-12.53098 -0.25905,-0.29292 -3.78476,-1.01857 -10.43496,-2.14762 -27.62395,-4.68998 -62.06284,-5.08818 -90.48749,-1.04627 -7.02722,0.99925 -16.64329,2.77892 -17.013,3.14862 -0.17344,0.17346 -11.14254,26.4342 -11.07154,26.50601 0.0213,0.0214 2.24136,-0.46802 4.93349,-1.08786 41.27326,-9.50275 90.37339,-9.31952 131.10104,0.48927 2.0373,0.49064 3.79506,0.90654 3.90615,0.92421 0.1111,0.0177 0.0148,-0.41436 -0.21373,-0.96006 z M 213.03608,322.59051 c 20.68865,-3.26898 45.54892,-4.0395 68.21771,-2.11437 6.73118,0.57166 14.82246,1.54803 19.59707,2.36477 1.6714,0.28591 3.06311,0.4931 3.09269,0.4604 0.0296,-0.0327 -1.65452,-4.16708 -3.74245,-9.18755 l -3.79621,-9.12812 -0.0124,-3.60858 -0.0124,-3.60857 -0.85989,-0.15388 c -3.44895,-0.61718 -14.00461,-1.70896 -22.55573,-2.33296 -5.92598,-0.43243 -27.66693,-0.4328 -33.73437,-5.2e-4 -8.13074,0.57921 -18.94066,1.67731 -22.65644,2.3015 l -0.82831,0.13914 -0.19172,3.63196 -0.19191,3.63191 -2.90706,7.54062 c -1.59888,4.14735 -3.19176,8.29379 -3.53973,9.21435 l -0.63267,1.67373 0.7233,-0.15063 c 0.39782,-0.0828 2.21159,-0.38578 4.0306,-0.6732 z m 45.82604,-59.30966 c 3.65496,-0.7755 5.75443,-2.87487 6.52886,-6.52855 0.19519,-0.92083 0.29718,-5.57123 0.29718,-13.54853 v -12.14645 l 13.45483,-0.0775 13.45481,-0.0775 1.82488,-0.92818 c 1.411,-0.71769 2.01906,-1.21828 2.68116,-2.20733 1.20499,-1.8 1.5128,-3.07318 1.5128,-6.25719 0,-3.18402 -0.30781,-4.45719 -1.5128,-6.2572 -0.6621,-0.98905 -1.27016,-1.48963 -2.68116,-2.20732 l -1.82488,-0.92819 -13.45481,-0.0775 -13.45483,-0.0775 V 199.3174 c 0,-8.44695 -0.10062,-13.14558 -0.30313,-14.15391 -0.5969,-2.97221 -2.77908,-5.46857 -5.47079,-6.25845 -1.65936,-0.48694 -4.93387,-0.6189 -6.70608,-0.27024 -3.90632,0.76852 -6.0005,2.79244 -6.80198,6.5738 -0.19621,0.92569 -0.29718,5.70887 -0.29718,14.0775 v 12.67542 l -13.19025,0.0777 -13.19025,0.0777 -1.82486,0.92819 c -1.99666,1.01557 -3.24047,2.49128 -3.8657,4.58643 -0.4239,1.42051 -0.4239,6.33566 0,7.75617 0.62528,2.0953 1.86902,3.57086 3.86589,4.58644 l 1.82505,0.92818 8.89058,0.17352 c 4.88982,0.0954 10.82534,0.18472 13.19006,0.19843 l 4.29948,0.0249 v 12.02552 c 0,7.88784 0.10225,12.50794 0.29718,13.4276 0.7613,3.59177 2.66879,5.58195 6.18511,6.45324 1.6991,0.42102 4.48389,0.45446 6.27083,0.0753 z"
       id="path1" />
  </g>
</svg>
