<svg viewBox="0 0 246 294" width="245" height="293" xmlns="http://www.w3.org/2000/svg">
<rect width="2"  height="290"  x="0"  y="0"  fill="#333" />
<rect width="242"  height="2"  x="0"  y="290"  fill="#333" />
<rect width="242"  height="2"  x="2"  y="0"  fill="#333" />
<rect width="2"  height="290"  x="242"  y="2"  fill="#333" />
<rect width="48"  height="48"  x="2"  y="2"  fill="#fff" />
<rect width="48"  height="48"  x="50"  y="2"  fill="#ccc" />
<rect width="48"  height="48"  x="98"  y="2"  fill="#fff" />
<rect width="48"  height="48"  x="146"  y="2"  fill="#ccc" />
<rect width="48"  height="48"  x="194"  y="2"  fill="#fff" />
<rect width="48"  height="48"  x="2"  y="50"  fill="#ccc" />
<rect width="48"  height="48"  x="50"  y="50"  fill="#fff" />
<rect width="48"  height="48"  x="98"  y="50"  fill="#ccc" />
<rect width="48"  height="48"  x="146"  y="50"  fill="#fff" />
<rect width="48"  height="48"  x="194"  y="50"  fill="#ccc" />
<rect width="48"  height="48"  x="2"  y="98"  fill="#fff" />
<rect width="48"  height="48"  x="50"  y="98"  fill="#ccc" />
<rect width="48"  height="48"  x="98"  y="98"  fill="#fff" />
<rect width="48"  height="48"  x="146"  y="98"  fill="#ccc" />
<rect width="48"  height="48"  x="194"  y="98"  fill="#fff" />
<rect width="48"  height="48"  x="2"  y="146"  fill="#ccc" />
<rect width="48"  height="48"  x="50"  y="146"  fill="#fff" />
<rect width="48"  height="48"  x="98"  y="146"  fill="#ccc" />
<rect width="48"  height="48"  x="146"  y="146"  fill="#fff" />
<rect width="48"  height="48"  x="194"  y="146"  fill="#ccc" />
<rect width="48"  height="48"  x="2"  y="194"  fill="#fff" />
<rect width="48"  height="48"  x="50"  y="194"  fill="#ccc" />
<rect width="48"  height="48"  x="98"  y="194"  fill="#fff" />
<rect width="48"  height="48"  x="146"  y="194"  fill="#ccc" />
<rect width="48"  height="48"  x="194"  y="194"  fill="#fff" />
<rect width="48"  height="48"  x="2"  y="242"  fill="#ccc" />
<rect width="48"  height="48"  x="50"  y="242"  fill="#fff" />
<rect width="48"  height="48"  x="98"  y="242"  fill="#ccc" />
<rect width="48"  height="48"  x="146"  y="242"  fill="#fff" />
<rect width="48"  height="48"  x="194"  y="242"  fill="#ccc" />
</svg>
