<?xml version="1.0" encoding="UTF-8" standalone="no"?>
<!-- Created with Inkscape (http://www.inkscape.org/) -->

<svg
   version="1.1"
   id="svg1"
   width="2048"
   height="2048"
   viewBox="0 0 2048 2048"
   xmlns="http://www.w3.org/2000/svg"
   xmlns:svg="http://www.w3.org/2000/svg">
  <defs
     id="defs1" />
  <g
     id="g1">
    <path
       style="fill:#000000"
       d="m 956,1847.4253 c -128.74377,-3.148 -230.45824,-11.9188 -329.5,-28.4125 -76.70864,-12.7746 -138.98679,-28.9437 -179.5,-46.6031 -20.67755,-9.0132 -32.36036,-16.0799 -47.30545,-28.6142 l -2.80544,-2.3529 33.05023,-122.1424 33.05023,-122.1425 -16.38249,-92.7783 c -13.17229,-74.598 -16.81974,-93.5193 -18.6139,-96.5602 -2.82686,-4.7912 -11.2356,-10.7046 -26.49318,-18.6313 -21.39946,-11.1176 -31.5552,-18.6026 -70.57344,-52.0142 -48.40797,-41.4521 -72.85769,-64.9102 -90.23994,-86.5801 -40.91957,-51.0132 -65.4781,-111.4112 -74.60813,-183.48743 -4.5125,-35.62363 -4.98655,-62.11837 -1.53611,-85.85432 6.33155,-43.55551 24.69663,-86.53902 56.07645,-131.24705 19.04892,-27.13974 49.37113,-60.26002 71.37274,-77.95889 C 340.5186,633.00907 396.7392,610.10176 465,601.55292 c 17.08944,-2.14024 67.11319,-3.05744 83.69379,-1.53455 47.50789,4.36349 118.42965,20.89328 156.50634,36.47704 7.31493,2.9938 24.09987,9.56911 37.29987,14.6118 68.4946,26.16642 73.46896,28.27466 89.29565,37.84538 5.65263,3.41825 8.13166,4.48081 7.78094,3.33504 -1.77938,-5.81312 -3.76545,-21.75394 -4.25869,-34.18151 -1.22406,-30.8414 4.50536,-59.3688 17.26266,-85.95251 6.56536,-13.68094 11.46258,-21.65175 20.30422,-33.04749 46.43185,-59.84475 117.85656,-86.70777 191.27962,-71.94075 55.1194,11.08575 106.2469,52.49056 131.382,106.39764 10.4184,22.34431 16.4736,50.66293 16.4429,76.89906 -0.01,8.66101 -2.2637,33.91164 -3.5644,39.93778 l -0.603,2.79373 6.5856,-4.03082 C 1231.95,678.42555 1267.9092,663.41431 1336,638.4038 c 67.4913,-24.79031 127.115,-38.16409 179,-40.1502 95.4238,-3.65274 173.2727,19.28163 237,69.82045 22.1413,17.55916 53.7478,52.13603 73.2639,80.14916 31.0668,44.5931 48.8207,85.38301 56.8559,130.6275 2.6686,15.026 3.6531,48.62629 1.9619,66.95847 -4.6947,50.89079 -16.9554,97.12082 -36.6099,138.03982 -21.9362,45.6694 -46.6731,77.1434 -94.4718,120.2006 -57.543,51.835 -80.4963,69.7344 -107.6307,83.9327 -14.2016,7.431 -20.7395,12.1278 -24.5504,17.6367 -2.5801,3.7297 -3.7934,10.0747 -18.7873,98.2477 l -16.029,94.2605 32.9408,123.2367 32.9407,123.2367 -2.192,2.347 c -6.1655,6.601 -30.5959,20.5651 -49.6921,28.4032 -84.1693,34.5476 -242.6939,60.5487 -422,69.216 -62.7605,3.0338 -162.3769,4.3165 -222,2.8585 z m 180,-69.2812 c 181.8544,-7.8559 327.0406,-30.1329 419.25,-64.3287 7.5625,-2.8045 13.75,-5.373 13.75,-5.7077 0,-0.3348 -6.4125,-2.9968 -14.25,-5.9158 -135.2874,-50.3856 -320.0698,-74.2351 -555.75,-71.7298 -59.23563,0.6297 -84.48805,1.4311 -131.5,4.1729 -140.68199,8.2047 -254.51454,27.75 -346,59.4088 -15.94817,5.5189 -40.5,15.3132 -40.5,16.1564 0,0.37 0.7875,0.9137 1.75,1.2081 0.9625,0.2945 8.26997,2.8512 16.23881,5.6815 105.84876,37.5951 252.28122,57.7244 454.01119,62.4103 27.61363,0.6414 159.3598,-0.3348 183,-1.356 z M 518.65252,1610.7045 c 77.32837,-21.3029 178.11985,-36.7654 290.34748,-44.5427 64.28085,-4.4545 106.42498,-5.972 186.5,-6.715 197.2823,-1.8308 362.2166,11.4561 487.5,39.2723 19.9638,4.4325 45.4533,10.7815 55.4533,13.8124 2.7244,0.8258 5.0594,1.3954 5.1889,1.2658 0.3599,-0.3598 -29.3567,-113.7389 -29.9721,-114.3544 -1.6867,-1.6866 -63.5714,-13.3217 -100.1701,-18.8331 -106.639,-16.0588 -215.6196,-23.726 -357.5,-25.1515 -176.12751,-1.7696 -327.77907,8.5684 -457.5,31.1875 -27.70724,4.8313 -62.18772,11.8148 -63.16638,12.7934 -0.3252,0.3252 -7.51425,25.6958 -15.97566,56.3792 -8.46141,30.6833 -15.65537,56.6434 -15.98657,57.6891 -0.44908,1.4178 -0.21624,1.7531 0.91573,1.3188 0.83485,-0.3204 7.29928,-2.1752 14.3654,-4.1218 z M 544.5,1431.2002 c 130.31464,-30.2146 304.43963,-44.6687 515,-42.7502 133.592,1.2173 233.5104,7.4821 330.9313,20.7491 40.05,5.4541 95.9636,15.5773 126.0644,22.8241 4.3976,1.0588 8.1304,1.7903 8.2951,1.6256 0.5856,-0.5857 25.0968,-145.9883 24.6801,-146.405 -0.9527,-0.9527 -41.5874,-10.4804 -64.4709,-15.1166 -133.9378,-27.1358 -295.9221,-39.4671 -494.5,-37.6445 -37.95,0.3484 -70.35,0.8236 -72,1.0561 -1.65,0.2325 -12.675,0.6978 -24.5,1.0339 -116.92949,3.3243 -245.31036,17.6277 -337.5,37.6023 -18.77058,4.067 -54.85635,12.9154 -56.29306,13.8033 -0.83435,0.5157 2.28706,20.9848 11.31042,74.1701 6.85453,40.4018 12.46726,73.6006 12.47271,73.7752 0.005,0.1746 0.79743,0.07 1.75993,-0.2322 0.9625,-0.3023 9.4,-2.3233 18.75,-4.4912 z m -86.42515,-199.6455 c 112.82754,-38.771 272.57326,-59.3983 503.67515,-65.0375 l 27.25,-0.6649 -4.3e-4,-3.1231 c -9.2e-4,-6.6518 -2.0648,-55.9915 -3.03783,-72.623 -2.11068,-36.0771 -9.14194,-70.9439 -21.66234,-107.41963 C 937.7333,905.2913 901.34775,843.28695 854.00336,794.73188 846.02651,786.55105 835.9,776.96469 831.5,773.42885 772.75752,726.22347 666.00832,683.96261 577,672.67505 513.15353,664.57837 450.73729,670.68116 402,689.78578 353.79576,708.68145 316.51539,739.55086 285.07317,786.60517 258.0933,826.98141 245,874.68502 245,932.60612 c 0,70.97668 19.25608,127.79128 58.80414,173.50008 12.82002,14.8171 40.11183,41.5519 56.69586,55.5388 10.40537,8.7758 88.75741,71.7744 90.07485,72.4243 0.0412,0.02 3.41616,-1.1113 7.5,-2.5146 z m 1180.78595,-31.8276 c 52.8291,-42.3493 66.7268,-54.3481 87.1428,-75.2359 26.5407,-27.154 39.9513,-45.0751 51.5481,-68.885 17.8874,-36.7259 26.5578,-82.61683 25.1281,-133.00008 -1.5753,-55.52041 -13.9048,-98.07739 -39.5762,-136.60329 -11.9933,-17.99867 -20.2222,-28.09203 -34.5683,-42.40063 C 1687.7,702.87345 1636.3864,679.51397 1570,671.43221 c -20.0412,-2.43977 -69.0264,-2.4321 -91,0.0143 -63.4211,7.06077 -126.0574,25.40878 -186.5,54.63129 -44.2202,21.37939 -72.1577,40.5784 -98.5917,67.75347 -46.4532,47.75561 -84.4429,112.18625 -109.514,185.7362 -19.2234,56.39503 -24.3079,87.44803 -26.0482,159.08613 l -0.6602,27.1757 28.4071,0.6723 c 205.2452,4.8579 379.2281,26.2779 492.407,60.6231 9.35,2.8373 17.1875,5.3439 17.4167,5.5701 0.2291,0.2263 0.6165,0.4114 0.8608,0.4114 0.2443,0 19.1818,-15.0206 42.0833,-33.3791 z M 1026.3803,970.85617 c 1.0028,-3.9875 4.2192,-14.67505 7.1475,-23.75005 2.9283,-9.075 7.6165,-23.79225 10.4183,-32.70501 2.8018,-8.91275 7.1514,-21.06275 9.6658,-27 2.5144,-5.93724 6.5138,-15.57351 8.8876,-21.41392 2.3738,-5.84041 9.5892,-21.36541 16.0343,-34.5 14.4459,-29.43969 26.1619,-54.99806 32.4754,-70.84486 11.081,-27.81292 28.9323,-77.61864 30.4786,-85.03621 3.7341,-17.91209 2.9585,-39.71926 -2.0336,-57.1788 -5.4511,-19.06505 -14.8412,-34.69267 -29.9542,-49.85167 -17.9769,-18.03165 -35.9779,-27.84509 -60.9392,-33.22157 -11.2296,-2.41876 -42.0417,-2.3495 -56.0608,0.12601 -24.2649,4.28471 -43.30797,13.434 -57.5,27.62603 -19.03527,19.03527 -28.30654,44.51559 -29.65459,81.5 -0.77594,21.28851 0.81527,30.38644 10.0307,57.35163 19.59997,57.35132 28.05611,77.56753 60.9226,145.64837 17.77283,36.81529 19.12246,40.45425 40.33349,108.75 3.7153,11.96255 7.0183,21.75005 7.3399,21.75005 0.3217,0 1.4054,-3.2625 2.4082,-7.25 z M 988,394.60612 v -65.5 h -44.7899 c -48.95283,0 -52.75905,-0.36298 -60.60013,-5.7791 -7.61862,-5.26246 -11.58623,-14.75526 -11.58623,-27.7209 0,-13.07743 3.82326,-22.2346 11.48386,-27.50523 8.2617,-5.68419 11.40423,-5.99477 60.65764,-5.99477 h 44.74505 l 0.29485,-48.353 0.29486,-48.353 3.50811,-6.897 c 2.71249,-5.33279 4.60457,-7.631 8.34269,-10.13341 6.7919,-4.54674 11.6016,-5.71426 23.6492,-5.74062 13.4859,-0.0295 19.5463,1.9281 26.0244,8.40623 8.485,8.48495 8.3826,7.75012 8.7464,62.77647 l 0.3187,48.20566 48.7052,0.29434 c 46.9901,0.28396 48.8638,0.368 53.2053,2.38617 6.7069,3.11772 10.5783,6.84924 13.6989,13.20406 2.5984,5.2913 2.8011,6.57765 2.8011,17.77481 0,11.45091 -0.1546,12.37294 -3.0104,17.95704 -3.2937,6.44034 -9.1223,11.62396 -15.2649,13.57568 -3.6636,1.16407 -45.2955,2.58443 -81.9747,2.79673 l -17.25,0.0998 v 18.33579 c 0,10.08467 -0.2984,39.33467 -0.6631,65 l -0.6632,46.66425 H 1023.3369 988 Z"
       id="path1" />
  </g>
</svg>
