<?xml version="1.0" encoding="UTF-8" standalone="no"?>
<!-- Created with Inkscape (http://www.inkscape.org/) -->

<svg
   version="1.1"
   id="svg1"
   width="2048"
   height="2048"
   viewBox="0 0 2048 2048"
   xmlns="http://www.w3.org/2000/svg"
   xmlns:svg="http://www.w3.org/2000/svg">
  <defs
     id="defs1" />
  <g
     id="g1">
    <path
       style="fill:#000000"
       d="m 737.07569,1769.3001 c 4.08733,-4.5521 20.03063,-20.3185 27.42431,-27.1202 3.85,-3.5417 9.25,-8.5475 12,-11.1239 2.75,-2.5764 11.075,-9.8206 18.5,-16.0982 7.425,-6.2776 14.175,-12.1734 15,-13.1018 0.825,-0.9285 7.8,-6.9492 15.5,-13.3794 7.7,-6.4302 14.907,-12.6705 16.01555,-13.8672 1.10855,-1.1967 8.30855,-7.4946 16,-13.9954 7.69145,-6.5008 14.50702,-12.4798 15.14572,-13.2866 0.6387,-0.8069 7.02411,-6.4981 14.18979,-12.6472 33.11175,-28.4143 41.57995,-36.0359 54.64895,-49.1857 13.9511,-14.0374 22.0178,-23.7049 30.8686,-36.9945 2.5641,-3.85 5.0806,-7.5172 5.5922,-8.1494 3.552,-4.3892 18.0393,-33.2354 23.01479,-45.8255 14.6701,-37.1215 20.0053,-63.8153 19.1771,-95.9494 l -0.1527,-5.9243 -2.3145,2.1743 c -1.2729,1.1959 -2.6929,2.1743 -3.1556,2.1743 -0.4626,0 -2.3161,1.125 -4.1188,2.5 -1.8027,1.375 -3.5757,2.5 -3.94,2.5 -0.3643,0 -1.8568,0.8482 -3.3167,1.8848 -2.8137,1.9979 -8.70399,5.3623 -17.37629,9.9249 -2.9029,1.5273 -6.1781,3.2566 -7.2781,3.8429 -13.8119,7.3612 -47.228,20.4837 -59.5,23.3657 -7.6383,1.7938 -56.06829,19.446 -68.05273,24.8045 -2.44601,1.0936 -7.82228,3.4085 -11.94728,5.1442 -18.83793,7.9264 -59.20283,28.2028 -73.3522,36.8469 -3.76872,2.3023 -6.9767,4.1861 -7.12885,4.1861 -0.37729,0 -10.33444,6.0318 -14.03167,8.5 -1.64773,1.1 -3.72074,2.45 -4.60669,3 -0.88596,0.55 -4.22114,2.8 -7.4115,5 -3.19037,2.2 -6.64293,4.4999 -7.67237,5.1109 -1.02943,0.611 -2.89633,2.0735 -4.14866,3.25 -1.25233,1.1765 -2.72627,2.1391 -3.27542,2.1391 -0.54915,0 -2.29184,1.35 -3.87264,3 -1.5808,1.65 -3.27226,3 -3.7588,3 -0.48654,0 -8.16485,6.1531 -17.06291,13.6736 -18.9302,15.9995 -36.87406,33.6942 -52.55604,51.8264 -0.95136,1.1 -3.28055,4.025 -5.17599,6.5 -1.89545,2.475 -3.69443,4.725 -3.99775,5 -0.30332,0.275 -2.10332,2.7394 -4,5.4764 -1.89668,2.737 -3.81975,5.437 -4.27349,6 -0.88435,1.0973 -16.61416,25.459 -23.10115,35.7781 -2.15937,3.435 -5.77987,9.1705 -8.04556,12.7455 -2.26568,3.575 -6.11516,9.65 -8.5544,13.5 -7.68558,12.1306 -18.10312,25.7605 -24.90787,32.5883 -14.96528,15.016 -31.73779,21.2194 -61.06604,22.5854 -10.31448,0.4804 -14.42325,0.2124 -23.5,-1.5326 -10.83738,-2.0836 -23.45994,-6.6075 -28.65437,-10.2697 -1.4599,-1.0293 -2.94688,-1.8714 -3.30439,-1.8714 -0.96878,0 -14.58626,-11.7408 -18.04124,-15.5549 -4.37388,-4.8286 -5.65367,-6.4152 -9.45978,-11.728 -2.23042,-3.1133 -3.93589,-4.5874 -4.88583,-4.2228 -8.29331,3.1824 -38.99616,7.6488 -56.71523,8.2505 l -15.06084,0.5114 -10.43916,-3.5831 c -17.47205,-5.9971 -34.07751,-12.5582 -41.26736,-16.3055 -1.74449,-0.9093 -4.05463,-2.1023 -5.13365,-2.6512 -6.30701,-3.2083 -10.76564,-5.7422 -13.38099,-7.6045 -1.63125,-1.1615 -3.37474,-2.1119 -3.87444,-2.1119 -0.4997,0 -2.20192,-1.35 -3.78272,-3 -1.5808,-1.65 -3.21906,-3 -3.64058,-3 -1.04886,0 -10.33603,-8.5029 -22.39082,-20.5 -10.33492,-10.2855 -22.12527,-24.4382 -29.15786,-35 -19.31504,-29.0082 -30.42288,-71.5342 -30.69111,-117.5 -0.10577,-18.1253 0.15159,-21.7118 2.22178,-30.961 5.67936,-25.3742 18.17372,-52.3117 38.90726,-83.8828 4.21022,-6.4109 7.90163,-11.8812 8.20313,-12.1562 0.30151,-0.275 2.10988,-2.75 4.0186,-5.5 1.90871,-2.75 3.82464,-5.45 4.25762,-6 3.32945,-4.2293 10.72292,-13.7806 12.77198,-16.4995 1.375,-1.8245 2.96842,-3.8085 3.54092,-4.4089 0.57251,-0.6004 1.69751,-2.0291 2.5,-3.175 1.46555,-2.0927 8.15826,-10.2461 10.95908,-13.3509 0.825,-0.9146 4.17877,-4.791 7.45282,-8.6143 3.27404,-3.8233 6.64904,-7.6776 7.5,-8.5652 0.85095,-0.8876 4.02218,-4.4683 7.04718,-7.9572 3.025,-3.4888 6.175,-7.0405 7,-7.8926 0.825,-0.852 4.39635,-4.9213 7.93632,-9.0428 3.53998,-4.1215 6.91498,-7.9765 7.5,-8.5667 0.58503,-0.5902 2.41368,-2.7761 4.06368,-4.8574 1.65,-2.0814 3.9,-4.8027 5,-6.0475 1.1,-1.2447 2.68207,-3.1089 3.5157,-4.1426 0.83364,-1.0337 3.75864,-4.6052 6.5,-7.9367 2.74137,-3.3315 6.1093,-7.5652 7.4843,-9.4083 1.375,-1.8431 2.95,-3.8424 3.5,-4.4428 0.55,-0.6004 3.25,-4.1621 6,-7.9149 2.75,-3.7529 5.94309,-8.0279 7.09575,-9.5 2.36273,-3.0177 7.35459,-10.1138 14.91066,-21.196 7.85918,-11.5268 21.66204,-35.2904 27.2883,-46.9807 10.34043,-21.4855 16.16497,-41.3401 16.19215,-55.1955 0.0377,-19.1875 5.26479,-58.8201 9.53037,-72.26 3.34528,-10.5402 8.54898,-21.2615 15.31041,-31.5445 3.07399,-4.675 6.05781,-8.98821 6.63072,-9.58492 0.5729,-0.5967 1.94164,-2.33116 3.04164,-3.85435 1.1,-1.52319 4.025,-5.36952 6.5,-8.54741 2.475,-3.17789 5.175,-6.80879 6,-8.06867 2.02905,-3.09863 11.34893,-14.31838 16.94273,-20.39652 8.44737,-9.1788 39.93809,-40.20028 46.77566,-46.07865 3.72989,-3.20665 8.18603,-7.21159 9.90255,-8.89987 L 530.74188,886.5 524.8748,871.5183 C 513.33886,842.06104 506.35614,819.62118 499.47024,789.87748 488.48659,742.43357 484.04199,686.09973 487.5994,639.41855 l 0.53965,-7.08146 9.18048,2.68583 c 5.04926,1.4772 10.92293,3.42636 13.05259,4.33145 2.12967,0.9051 4.60467,1.64434 5.5,1.64276 0.89534,-0.002 4.32788,1.08634 7.62788,2.4176 3.3,1.33126 8.025,3.07912 10.5,3.88413 2.475,0.80501 8.325,2.90706 13,4.67122 4.675,1.76416 11.2,4.21295 14.5,5.44176 3.3,1.22881 6.94107,2.74144 8.09128,3.36142 1.1502,0.61997 3.8502,1.77961 6,2.57698 2.14979,0.79737 7.21785,2.84476 11.26233,4.54976 4.04449,1.705 7.46038,3.1 7.59087,3.1 0.13049,0 0.81517,-2.58237 1.5215,-5.73861 3.13617,-14.01388 14.53181,-44.89159 23.34708,-63.26139 5.73114,-11.94292 18.01492,-30.51391 27.90632,-42.18963 14.66511,-17.31057 44.3667,-43.17753 63.50982,-55.31037 0.86778,-0.55 5.14705,-3.3625 9.50948,-6.25 4.36243,-2.8875 8.09163,-5.25 8.28712,-5.25 0.1955,0 3.96935,-2.475 8.38634,-5.5 4.41699,-3.025 8.34578,-5.5 8.73064,-5.5 0.38485,0 1.55318,-0.77235 2.59627,-1.71634 1.04309,-0.94398 3.41439,-2.63148 5.26955,-3.75 1.85516,-1.11851 9.29271,-6.08366 16.52789,-11.03366 7.23517,-4.95 13.89753,-9.45 14.80524,-10 0.9077,-0.55 3.29191,-2.2375 5.29823,-3.75 2.00631,-1.5125 4.07585,-2.75 4.59896,-2.75 0.52311,0 1.80835,-0.95164 2.85609,-2.11476 1.04775,-1.16312 2.80499,-2.50733 3.90499,-2.98713 1.1,-0.4798 4.7,-2.90104 8,-5.38052 3.3,-2.47949 6.96879,-4.93252 8.15286,-5.45119 1.18407,-0.51867 2.43653,-1.40202 2.78323,-1.963 0.34671,-0.56098 4.32792,-3.55502 8.84714,-6.65343 4.51923,-3.0984 10.01677,-6.95759 12.21677,-8.57596 2.2,-1.61837 5.575,-4.04789 7.5,-5.39893 5.30721,-3.72481 8.98629,-6.5406 14.65949,-11.21969 2.83772,-2.34046 5.46857,-4.25539 5.84632,-4.25539 0.37775,0 3.50589,-2.475 6.95141,-5.5 3.44552,-3.025 6.56585,-5.5 6.93406,-5.5 0.79661,0 31.50433,-25.92766 40.16693,-33.91441 10.6342,-9.80445 27.7684,-25.68848 33.25,-30.82383 l 5.3081,-4.9729 -10.5127,-5.23726 c -5.7821,-2.8805 -11.0383,-5.87049 -11.6806,-6.64443 -0.6424,-0.77395 -1.7105,-1.40717 -2.3737,-1.40717 -0.6631,0 -5.4455,-3.52392 -10.6275,-7.83092 -16.5536,-13.75853 -24.87,-24.59905 -31.1997,-40.66908 -5.86329,-14.88584 -7.23462,-22.76893 -7.13236,-41 0.078,-13.90702 0.4315,-17.28056 2.70238,-25.78936 6.12808,-22.96142 21.10968,-43.96725 43.47788,-60.96064 3.4388,-2.6125 6.6422,-4.75 7.1187,-4.75 0.4765,0 1.3402,-0.57088 1.9193,-1.26862 1.8523,-2.2319 28.2358,-14.73138 31.0945,-14.73138 0.587,0 5.0116,-1.15129 9.8324,-2.55842 19.40409,-5.663795 58.06839,-5.635401 78.82409,0.0579 22.0953,6.06077 38.1455,14.27767 54.441,27.87103 8.9609,7.47504 14.8584,13.21806 19,18.5024 1.375,1.75439 2.95,3.75034 3.5,4.43544 4.5254,5.63704 11.4014,18.54633 14.217,26.69166 2.7867,8.06164 4.3629,17.21081 4.9098,28.5 1.1932,24.62654 -5.3505,47.18842 -18.9971,65.5 -4.832,6.48389 -17.2761,19.05753 -22.024,22.25331 -11.881,7.997 -16.0573,10.54047 -23.8837,14.5454 l -8.778,4.4919 7.8919,7.61071 c 10.4614,10.0886 28.675,26.99236 33.6356,31.21667 2.1844,1.8601 4.8844,4.36033 6,5.55605 2.44,2.6151 27.3927,23.60979 33.0305,27.79117 2.1989,1.63086 6.7814,5.23086 10.1834,8 3.4019,2.76913 8.0252,6.38479 10.2738,8.03479 2.2486,1.65 5.8507,4.35 8.0047,6 2.1539,1.65 5.5583,4.125 7.5651,5.5 2.0069,1.375 5.1308,3.7375 6.9419,5.25 1.8112,1.5125 3.7178,2.75 4.2368,2.75 0.519,0 2.0006,1.125 3.2923,2.5 1.2917,1.375 2.8901,2.5 3.5519,2.5 0.6618,0 1.7058,0.60553 2.32,1.34562 0.6142,0.7401 4.9954,4.0026 9.7359,7.25 4.7405,3.24741 12.0555,8.27019 16.2557,11.16173 8.3326,5.73657 26.6677,18.0996 29.2542,19.72566 0.8898,0.55934 2.9148,1.88453 4.5,2.94486 1.5853,1.06033 6.7073,4.3916 11.3823,7.40283 4.675,3.01123 10.3736,6.75619 12.6635,8.32213 2.2899,1.56595 4.4574,2.84717 4.8167,2.84717 0.3593,0 2.1282,1.125 3.9309,2.5 1.8027,1.375 3.5344,2.5 3.8481,2.5 0.3137,0 4.2471,2.475 8.7408,5.5 4.4937,3.025 8.5269,5.5 8.9627,5.5 0.4358,0 1.4034,0.7362 2.1502,1.63601 0.7467,0.8998 2.9393,2.68439 4.8724,3.96575 3.6551,2.42282 5.9749,4.14319 18.1986,13.49616 7.7979,5.96659 31.3201,28.82807 36.3161,35.2961 1.65,2.13615 3.45,4.38387 4,4.99494 14.8351,16.48234 30.9576,48.33188 42.3246,83.61104 16.0679,49.86905 17.8592,84.83704 7.086,138.32453 -5.5002,27.30751 -20.3415,59.78599 -38.6043,84.48091 -6.1342,8.29466 -6.3121,7.49383 2.6937,12.12385 6.7069,3.44814 14.8979,7.84508 21.25,11.4071 2.6125,1.46499 6.8875,3.82953 9.5,5.25453 2.6125,1.42501 5.4604,3.22501 6.3287,4 0.8683,0.775 1.9446,1.40908 2.3917,1.40908 1.1009,0 16.0207,9.34141 33.0296,20.68017 18.4138,12.27531 17.0297,11.30175 32.4097,22.7971 7.3753,5.5125 14.3503,10.68504 15.5,11.49453 3.6885,2.59707 32.8999,27.18215 38.549,32.44384 10.8323,10.08945 41.7382,41.26755 49.0582,49.49035 4.1157,4.6233 8.3831,9.4158 9.4831,10.6501 4.3726,4.9061 11.0783,12.8832 12.4393,14.7978 0.7916,1.1136 2.1576,2.743 3.0355,3.6209 0.8779,0.8779 2.9302,3.3802 4.5607,5.5607 1.6305,2.1805 3.4145,4.4557 3.9645,5.0561 0.55,0.6004 2.125,2.5844 3.5,4.4089 1.375,1.8245 4.6341,6.0583 7.2424,9.4084 2.6083,3.3501 5.0913,6.5411 5.5178,7.0911 1.5044,1.9401 13.9484,19.07 17.7981,24.5 3.1578,4.4542 11.0265,16.2042 27.4567,41 1.2544,1.8932 8.685,13.927 15.4369,25 2.8507,4.675 6.9065,11.65 9.0131,15.5 2.1065,3.85 6.0808,11.05 8.8317,16 5.0978,9.1729 22.6191,43.9394 26.7104,53 1.2418,2.75 3.5482,7.8238 5.1253,11.275 1.5772,3.4513 2.8676,6.4574 2.8676,6.6803 0,0.2228 1.294,3.2491 2.8756,6.7249 5.6602,12.4396 19.0853,47.6672 25.5344,67.0025 24.5006,73.4565 40.4613,149.2383 49.0346,232.8173 3.315,32.3178 10.5554,146.6272 10.5554,166.6466 V 1772 H 1304.8257 734.65137 Z M 1760.7319,1660.75 c -0.4947,-71.4828 -1.0555,-82.3992 -6.2809,-122.25 -7.5865,-57.8583 -19.5361,-106.4433 -42.8516,-174.2274 -9.2783,-26.9743 -22.8426,-62.2004 -31.1029,-80.7726 -0.7338,-1.65 -3.2103,-7.275 -5.5032,-12.5 -6.2417,-14.2232 -19.8842,-41.7151 -28.4647,-57.3611 -7.6728,-13.9908 -24.8348,-43.2711 -28.3544,-48.3757 -1.0479,-1.5198 -6.273,-9.2882 -11.6114,-17.2632 -5.3384,-7.975 -11.7051,-17.2 -14.1482,-20.5 -2.4432,-3.3 -5.5116,-7.575 -6.8188,-9.5 -3.4058,-5.0156 -35.4852,-44.0269 -43.9523,-53.4498 -14.2587,-15.8681 -39.7318,-40.3129 -54.6435,-52.4375 -16.5825,-13.48307 -19.2057,-15.56663 -21.7992,-17.31505 -1.4854,-1.0014 -4.5008,-3.17276 -6.7008,-4.82524 -3.661,-2.74989 -11.4067,-8.24677 -16.8704,-11.97241 -1.2099,-0.825 -3.7032,-2.4 -5.5407,-3.5 -1.8375,-1.1 -4.5217,-2.94919 -5.9649,-4.10931 -1.4432,-1.16011 -3.974,-2.87855 -5.624,-3.81875 -3.2258,-1.8381 -6.6016,-3.86131 -16.6163,-9.95847 -11.0459,-6.72498 -13.431,-8.07201 -29.8837,-16.87761 -26.5022,-14.18409 -60.8663,-30.31 -81.7445,-38.35987 -3.4344,-1.3242 -9.2844,-3.57847 -13,-5.00949 C 1266.7521,890.0103 1245.5231,882.68597 1229,877.64754 1207.8812,871.20771 1200.2231,869 1199.0037,869 c -0.7219,0 -5.1805,-1.08317 -9.9081,-2.40704 -19.8211,-5.55055 -81.4186,-17.60325 -82.8172,-16.20474 -0.1325,0.13258 0.6227,4.71197 1.6784,10.17642 3.3361,17.26849 5.1089,33.36398 5.7362,52.08119 1.0177,30.36282 -2.2258,39.13982 -16.953,45.8755 -13.1617,6.01973 -34.2004,3.66223 -43.5873,-4.88418 -5.3243,-4.84753 -5.8594,-7.47897 -6.4335,-31.63715 -0.6013,-25.30332 -2.5645,-39.32116 -8.3017,-59.27429 -3.5216,-12.24768 -9.9867,-28.96982 -14.199,-36.72571 -8.135,-14.97868 -10.0729,-18.26589 -15.0325,-25.5 -8.6669,-12.64166 -19.84989,-26.12184 -30.68599,-36.9894 C 965.26551,750.23765 955.02861,741 953.55441,741 c -4.1828,0 -31.3267,28.96837 -42.6344,45.5 -1.881,2.75 -3.6785,5.225 -3.9944,5.5 -0.3159,0.275 -3.0678,4.775 -6.1154,10 -16.72709,28.67837 -25.57413,55.6411 -29.30838,89.32191 -0.82334,7.42603 -1.7867,14.32902 -2.14082,15.33998 -1.91715,5.47332 -6.22922,10.64901 -11.36101,13.63639 -5.45422,3.17507 -5.61238,3.20161 -19,3.18853 -12.75484,-0.0125 -13.84705,-0.17272 -19.78744,-2.90337 -6.69848,-3.07912 -11.03074,-7.53277 -13.85693,-14.24524 -1.75635,-4.17148 -2.34818,-14.48236 -1.03824,-18.0882 1.0596,-2.91675 -1.22975,-2.99519 -8.52988,-0.29226 -2.90813,1.07676 -7.08751,2.39109 -9.28751,2.92072 -3.47433,0.83642 -11.21457,3.51233 -32,11.06284 -7.68703,2.79239 -14.64849,5.72983 -31.28703,13.20179 -17.16337,7.70766 -22.6954,9.28682 -29.21297,8.33908 -5.40264,-0.78561 -13.56482,-5.24246 -17.3206,-9.45769 -9.29766,-10.43503 -12.70627,-20.95091 -9.19172,-28.35727 3.60326,-7.59331 10.89752,-12.53194 30.51232,-20.6586 3.025,-1.2533 8.2,-3.53421 11.5,-5.06871 3.3,-1.53449 8.925,-4.01752 12.5,-5.51783 6.14341,-2.5782 16.26365,-6.8673 25.75,-10.9132 2.3375,-0.99694 4.25,-1.93247 4.25,-2.07896 0,-1.67871 -2.12597,-4.03803 -6.83569,-7.586 -3.11537,-2.3469 -8.36431,-6.56662 -11.66431,-9.37716 -5.72827,-4.87865 -15.34542,-12.3324 -19.87764,-15.40612 -1.1673,-0.79165 -3.11799,-2.31675 -4.33487,-3.3891 -1.21689,-1.07235 -3.07614,-2.44963 -4.13169,-3.06063 -1.05554,-0.61099 -4.78491,-3.13486 -8.28748,-5.60859 -3.50258,-2.47372 -7.09563,-4.94872 -7.98456,-5.5 -1.42421,-0.88322 -6.93788,-4.52269 -20.2458,-13.36384 -2.12412,-1.41117 -4.67859,-3.03212 -5.6766,-3.60211 -0.99801,-0.57 -3.98509,-2.33633 -6.63796,-3.92518 -14.99057,-8.97813 -39.3311,-22.28079 -52.8234,-28.8692 -10.14393,-4.95337 -22.75006,-10.90757 -28,-13.22512 -2.75,-1.21397 -7.80726,-3.48212 -11.23836,-5.04034 -3.4311,-1.55822 -6.48815,-2.58335 -6.79344,-2.27805 -1.31967,1.31967 3.9958,35.63481 9.14859,59.06063 6.21863,28.27142 17.89152,65.8057 25.97427,83.52054 1.32492,2.90379 2.40894,5.52013 2.40894,5.81407 0,0.29395 1.125,2.99395 2.5,6 1.375,3.00606 2.5,5.67779 2.5,5.93717 0,0.63659 14.90175,30.45615 18.97434,37.96912 4.48871,8.28064 14.33526,24.89187 15.11549,25.5 1.61643,1.25988 5.00562,9.41722 5.5437,13.34297 1.29618,9.45668 -7.15538,20.1894 -21.59114,27.41883 -6.78612,3.39848 -8.20291,3.7382 -15.59014,3.7382 -7.68136,0 -8.42666,-0.19985 -13.63045,-3.65497 -7.8606,-5.21914 -18.36276,-18.59959 -27.93208,-35.58733 C 558.75689,946.47143 556,944.55886 556,946.86548 c 0,0.47601 -3.2625,3.57521 -7.25,6.88711 -11.76496,9.77163 -20.68249,19.20774 -28.11258,29.74741 -12.19762,17.3025 -28.21555,41.9018 -32.88327,50.5 -1.94076,3.575 -4.62781,8.525 -5.97123,11 -3.38421,6.2348 -7.50524,18.5617 -8.74159,26.1481 -0.78543,4.8194 -0.64788,10.5291 0.57015,23.6663 1.57979,17.0391 1.57148,17.4608 -0.52276,26.5237 -5.17048,22.3753 -14.02396,44.8657 -24.86414,63.1619 -3.3643,5.6783 -13.78314,21.8451 -15.46703,24 -0.42978,0.55 -2.12068,2.8 -3.75755,5 -1.63687,2.2 -3.319,4.4606 -3.73806,5.0236 -0.41907,0.563 -2.32095,3.263 -4.22641,6 -1.90545,2.737 -3.93045,5.4823 -4.5,6.1007 -0.56954,0.6183 -4.86053,6.3979 -9.53553,12.8434 -4.675,6.4456 -10.525,14.3302 -13,17.5214 -2.475,3.1912 -5.37194,7.0027 -6.43764,8.4699 -1.0657,1.4672 -2.6407,3.5384 -3.5,4.6027 -0.8593,1.0643 -3.58736,4.6453 -6.06236,7.9578 -2.475,3.3126 -7.425,9.7909 -11,14.3962 -3.575,4.6054 -7.4,9.6213 -8.5,11.1465 -1.1,1.5252 -5.04108,6.6352 -8.75797,11.3555 -6.77917,8.6092 -7.93785,10.1012 -12.032,15.4926 -1.21552,1.6007 -6.13446,7.9007 -10.93099,14 -4.79653,6.0993 -9.4099,11.9897 -10.25194,13.0897 -0.84204,1.1 -6.73227,8.525 -13.08939,16.5 -15.35233,19.2595 -14.40727,18.0853 -17.34828,21.5547 -1.42418,1.6801 -3.71443,4.5638 -5.08943,6.4083 -1.375,1.8446 -2.95,3.845 -3.5,4.4454 -1.65491,1.8065 -6.05814,8.6312 -10.8534,16.822 -4.07283,6.9568 -6.54613,11.8914 -12.11553,24.1724 -3.4164,7.5334 -11.40992,33.2943 -13.07905,42.1501 -2.32632,12.3425 -1.53556,40.5916 1.53809,54.9471 4.1381,19.327 11.12643,36.1143 19.92489,47.8635 4.93007,6.5834 20.78589,22.6365 22.35835,22.6365 0.52529,0 3.49118,2.1503 6.59086,4.7785 10.96279,9.2953 25.93962,17.9031 42.13579,24.2171 11.58144,4.515 32.73354,6.2415 48.30845,3.9431 8.00725,-1.1816 21.94057,-5.6401 31.40639,-10.0497 6.08336,-2.8339 16.53163,-10.5239 19.05744,-14.0264 0.69975,-0.9704 1.84615,-2.3489 2.54754,-3.0634 2.33795,-2.3818 7.34337,-10.2113 11.69873,-18.2992 6.54961,-12.1627 18.21675,-29.3309 24.25598,-35.6927 6.39298,-6.7344 13.49812,-10.8073 18.85341,-10.8073 2.10653,0 6.78117,0.9688 10.38809,2.1528 8.74741,2.8716 13.22161,8.4912 15.00569,18.8472 0.67325,3.908 -2.48614,13.8036 -10.09352,31.6142 -2.43551,5.7021 -4.4282,10.5808 -4.4282,10.8415 0,1.216 -15.96716,26.5287 -18.00569,28.5443 -0.27813,0.275 -1.7701,2.1961 -3.3155,4.2692 -1.5454,2.073 -3.79284,4.8393 -4.99431,6.1473 -1.20148,1.3079 -3.2744,3.6618 -4.60651,5.2308 -1.3321,1.569 -4.3806,5.0511 -6.77443,7.738 -4.83579,5.4279 -4.83125,5.1834 -0.28059,15.1147 3.40583,7.4328 10.03181,15.0711 14.84277,17.1104 10.61648,4.5 24.59744,-0.8611 38.09457,-14.6079 7.36905,-7.5053 8.70997,-9.4817 23.74774,-35.0025 11.02186,-18.7054 21.75177,-35.8789 24.09386,-38.563 0.51015,-0.5846 1.50579,-2.1596 2.21252,-3.5 0.70674,-1.3403 1.56262,-2.662 1.90196,-2.937 0.33933,-0.275 2.85829,-3.875 5.59768,-8 2.73938,-4.125 5.33421,-7.95 5.76628,-8.5 0.43207,-0.55 4.01891,-5.5 7.97075,-11 3.95184,-5.5 7.6495,-10.4912 8.21703,-11.0916 0.56753,-0.6004 2.15687,-2.5937 3.53187,-4.4295 1.375,-1.8358 3.4,-4.3513 4.5,-5.5901 1.1,-1.2387 4.23369,-4.8705 6.96376,-8.0705 7.38534,-8.6568 31.20605,-32.0971 38.43204,-37.8183 10.49283,-8.3078 18.8788,-14.8441 22.8459,-17.8068 12.21991,-9.126 18.08714,-13.447 20.64886,-15.2071 1.5898,-1.0924 4.13741,-2.8861 5.66133,-3.9861 3.79897,-2.7422 22.99639,-15.7669 25.0566,-17 0.91893,-0.55 4.53295,-2.7489 8.03115,-4.8865 7.40834,-4.5269 9.74656,-5.8906 23.86036,-13.9151 15.43172,-8.7739 32.04762,-17.3365 41.33005,-21.2986 15.77713,-6.7341 19.20005,-8.1474 22.66995,-9.3603 1.925,-0.6729 7.775,-2.8116 13,-4.7527 5.225,-1.9411 11.525,-4.1107 14,-4.8214 2.475,-0.7107 6.75,-2.1703 9.5,-3.2436 4.63451,-1.8089 16.24442,-6.1455 24.5,-9.1515 5.33062,-1.941 20.35941,-7.8146 36.00001,-14.0696 15.7552,-6.3009 37.4735,-17.2925 48.5,-24.5459 3.3,-2.1708 6.4597,-4.1737 7.0216,-4.4509 10.4847,-5.1717 38.97389,-30.1199 52.97839,-46.3934 2.75,-3.1955 5.4663,-6.3277 6.0362,-6.9603 2.5891,-2.874 13.7758,-18.9352 18.3908,-26.4043 6.7654,-10.9498 14.3593,-26.1739 18.054,-36.1943 6.6021,-17.9058 9.844,-45.9374 7.837,-67.7639 -1.342,-14.5939 -1.2815,-16.5136 0.6476,-20.5545 3.2469,-6.8013 12.3693,-10.4516 28.5534,-11.4257 21.671,-1.3042 34.4383,5.6487 39.5539,21.5406 1.4384,4.4686 1.6127,7.5171 1.0596,18.5365 -2.6333,52.4724 -19.7112,100.6262 -51.3502,144.7906 -3.6741,5.1286 -7.1532,9.8371 -7.7313,10.4632 -5.1271,5.5534 -5.0471,4.8556 -1.6927,14.7556 8.4725,25.0055 10.6549,39.5524 10.5925,70.606 -0.042,20.88 -0.3842,26.3936 -2.3166,37.3159 -5.4113,30.5864 -14.7197,57.481 -31.2046,90.1594 -10.0222,19.867 -12.1232,23.5284 -21.1532,36.8628 -17.0926,25.24 -50.27619,58.022 -89.74809,88.6619 -3.897,3.025 -8.8146,6.9625 -10.9281,8.75 -2.1134,1.7875 -4.1787,3.25 -4.5894,3.25 -0.4107,0 -2.2315,1.2375 -4.0461,2.75 -3.5801,2.9841 -7.4318,5.889 -10.9387,8.25 -6.573,4.4254 -9.1298,6.271 -21.4345,15.4728 -7.37473,5.5149 -14.13745,10.4772 -15.0283,11.0272 -3.03597,1.8744 -11.06321,8.921 -11.06321,9.7118 0,0.4335 200.0694,0.7882 444.5987,0.7882 h 444.5987 z M 313.17964,1549.0477 c -6.71299,-2.2863 -10.74818,-6.3894 -13.23121,-13.4541 -2.3454,-6.6731 -2.42524,-10.5767 -0.43142,-21.0936 3.05774,-16.1287 9.80586,-31.5592 19.0724,-43.6116 5.28032,-6.8678 17.41999,-19.1836 21.86385,-22.181 23.20027,-15.6491 26.71696,-17.4883 36.57348,-19.1277 3.40219,-0.5658 11.79961,1.1002 16.97326,3.3675 7.83206,3.4324 17.15455,13.7349 19.69289,21.7632 2.402,7.5971 0.82753,12.1645 -6.68032,19.3792 -3.19921,3.0743 -7.54831,6.4047 -9.66466,7.401 -6.33547,2.9824 -16.15257,10.8351 -20.89807,16.7163 -1.90522,2.3612 -3.86797,4.7907 -4.36168,5.3989 -2.73187,3.3654 -6.31971,13.5928 -7.04863,20.0927 -1.66656,14.8607 -8.19295,22.4764 -22.06271,25.7454 -8.86313,2.089 -23.05441,1.9003 -29.79718,-0.3962 z M 554,1185.1266 c -10.11697,-3.4637 -13.23759,-5.2336 -18.41896,-10.4465 C 529.74732,1168.8109 528,1164.3565 528,1155.3539 c 0,-5.0761 0.6782,-7.2558 4.78665,-15.384 6.16113,-12.1892 9.43546,-17.7399 15.90929,-26.9699 7.48628,-10.6734 8.49511,-12.0421 11.39052,-15.453 1.42256,-1.6759 3.67256,-4.3299 5,-5.8978 9.0015,-10.6322 33.37037,-32.2442 43.0156,-38.1492 2.10042,-1.2859 6.66369,-4.284 10.07559,-6.6198 8.11141,-5.553 32.42128,-17.8627 44.32235,-22.4434 4.95,-1.9052 11.26962,-4.3624 14.0436,-5.4605 17.58477,-6.9607 33.76768,-8.7801 43.66938,-4.9097 10.47635,4.095 18.53794,15.4601 19.5341,27.5387 1.10585,13.4089 -3.51963,18.5916 -24.24708,27.1683 -2.75,1.1379 -8.02299,3.4239 -11.71777,5.0801 l -6.71776,3.0111 3.50838,5.8176 c 9.01274,14.945 8.90436,31.629 -0.32173,49.5303 -6.27495,12.1752 -15.08317,19.6164 -28.25112,23.8666 -6.5525,2.1149 -9.33183,2.4162 -22,2.3853 -12.48374,-0.031 -15.84052,-0.4016 -24.14043,-2.6683 -5.30223,-1.4481 -11.48079,-3.7946 -13.73013,-5.2146 -2.24933,-1.4199 -4.52139,-2.5817 -5.04901,-2.5817 -0.98774,0 -9.92071,14.0316 -13.99156,21.9775 -3.32655,6.4931 -6.68132,10.134 -12.40341,13.4614 -6.63512,3.8584 -18.20733,4.5902 -26.68546,1.6877 z M 1346.0933,846.75 c 2.43,-2.85659 14.1511,-20.33391 16.6593,-24.8405 17.2377,-30.97172 25.4492,-59.46464 26.9202,-93.4095 1.3078,-30.17836 -5.3467,-58.9738 -21.3435,-92.35747 -10.7318,-22.39612 -23.3061,-39.96834 -42.0526,-58.7674 -12.0967,-12.13052 -29.1742,-26.39786 -40.3859,-33.74009 -5.2546,-3.44112 -7.1546,-4.75773 -17.5118,-12.13504 -5.4052,-3.85 -10.9642,-7.76778 -12.3533,-8.70619 -1.3891,-0.9384 -4.7757,-3.32596 -7.5257,-5.30569 -5.8564,-4.21605 -12.1371,-8.57357 -14.3963,-9.98812 -0.8784,-0.55 -3.0004,-2.125 -4.7154,-3.5 -2.641,-2.11731 -11.1479,-8.11702 -19.8504,-14 -4.0177,-2.71599 -9.9951,-6.94889 -12.5379,-8.87865 -3.0053,-2.28077 -15.2811,-11.01959 -18.4321,-13.12135 -1.2369,-0.825 -4.1812,-2.85 -6.5429,-4.5 -2.3617,-1.65 -5.2734,-3.675 -6.4704,-4.5 -4.8389,-3.33495 -19.2269,-13.97573 -39.2127,-29 -21.7677,-16.36387 -74.8509,-61.93521 -96.3096,-82.68078 -2.4572,-2.37557 -5.1578,-4.31922 -6.0013,-4.31922 -0.8434,0 -4.0703,2.3625 -7.1707,5.25 -12.4095,11.55714 -22.58779,20.72854 -26.86029,24.20296 -2.475,2.01269 -5.4,4.67686 -6.5,5.92036 -2.5986,2.93757 -34.1504,29.62668 -35.0246,29.62668 -0.3674,0 -3.4372,2.39482 -6.8217,5.32183 -5.8224,5.03532 -15.5539,12.76735 -21.6203,17.17817 -1.5128,1.1 -8.1018,6.04732 -14.642,10.99405 -6.5403,4.94672 -13.46641,10.08622 -15.39141,11.42109 -3.88009,2.69061 -10.53123,7.38609 -15.35269,10.83847 -1.73102,1.23949 -4.72231,3.35181 -6.64731,4.69406 -1.925,1.34225 -7.325,5.1653 -12,8.49567 -10.24734,7.29999 -15.57406,11.05235 -18.53478,13.05666 -1.21867,0.825 -6.58479,4.65 -11.92472,8.5 -5.33993,3.85 -10.58793,7.49991 -11.66222,8.1109 -1.07429,0.611 -2.97789,2.0735 -4.23022,3.25 -1.25233,1.17651 -2.63855,2.1391 -3.0805,2.1391 -0.44194,0 -2.26469,1.2375 -4.05055,2.75 -2.91788,2.47124 -15.22588,11.2041 -19.37909,13.75 -0.89724,0.55 -3.0553,2.125 -4.7957,3.5 -1.7404,1.375 -4.66688,3.53247 -6.50329,4.79439 -11.80202,8.1099 -28.71775,20.81454 -36.37566,27.3201 -9.56298,8.12397 -26.19995,24.99609 -31.02727,31.46583 -1.60854,2.15582 -3.20336,4.14468 -3.54405,4.41968 -0.34068,0.275 -3.65494,4.98808 -7.36501,10.4735 C 682.45464,626.84416 670.8559,652.52451 664.60885,674.5 662.48084,681.98581 659,699.09657 659,702.07146 c 0,0.71775 8.25418,5.71015 20.70886,12.52541 4.27049,2.33683 6.99406,3.96145 13.29114,7.92819 8.71551,5.49019 19.26725,12.06322 20.82877,12.97494 0.94199,0.55 3.26905,2.125 5.17123,3.5 1.90218,1.375 4.19875,2.95 5.10348,3.5 0.90474,0.55 4.25118,2.8 7.43654,5 3.18536,2.2 6.63382,4.49991 7.66326,5.1109 1.02943,0.611 2.89633,2.0735 4.14866,3.25 1.25233,1.17651 2.72627,2.1391 3.27542,2.1391 0.54915,0 2.29184,1.35 3.87264,3 1.5808,1.65 3.24467,3 3.69749,3 0.93922,0 9.52963,6.76143 23.82192,18.75 5.40943,4.5375 10.29249,8.25 10.85125,8.25 0.55876,0 1.64414,0.8969 2.41196,1.99311 0.76782,1.09621 4.95583,4.99614 9.3067,8.6665 4.35088,3.67036 10.75001,9.36163 14.22031,12.64726 3.62982,3.43667 6.6766,5.59572 7.17366,5.0835 0.47522,-0.4897 2.72194,-5.57102 4.9927,-11.29181 4.03045,-10.154 12.11465,-27.08986 16.2767,-34.09856 3.13551,-5.28006 17.00173,-26.33851 18.19888,-27.63841 1.72044,-1.86809 3.99293,-4.71956 5.64147,-7.07878 4.45119,-6.37007 27.33687,-30.22072 33.53237,-34.94626 1.856,-1.41566 3.3746,-2.93212 3.3746,-3.36992 0,-0.43779 -3.3306,-1.10809 -7.4013,-1.48955 -17.13137,-1.60534 -26.76685,-13.33571 -25.35916,-30.87259 0.86323,-10.75399 5.33213,-17.08666 15.43451,-21.87149 L 893.5,643.5 l 47.20801,-0.29555 47.2079,-0.29554 0.2921,-40.70446 0.292,-40.70445 2.4916,-4.87891 c 5.4519,-10.67538 15.39599,-15.15163 33.50839,-15.08345 17.0451,0.0642 26.1268,4.26842 31.2408,14.46236 l 2.7592,5.5 0.2921,40.71367 0.292,40.71366 48.208,0.28634 48.2079,0.28633 6,2.40914 c 10.5385,4.23145 16.5,13.45348 16.5,25.52419 0,6.36317 -2.4771,15.08902 -5.0751,17.87765 -1.0587,1.13638 -1.9249,2.33621 -1.9249,2.66629 0,0.33009 -2.5692,2.15773 -5.7094,4.06144 l -5.7095,3.46129 -50.2905,0.31624 -50.2906,0.31624 v 31.31131 c 0,26.65208 0.2238,31.4971 1.5043,32.55978 1.5608,1.29536 16.2072,23.08092 17.1247,25.47194 0.3537,0.92186 3.3046,1.57032 9.1959,2.02086 4.7713,0.36488 14.7501,1.31034 22.1751,2.10102 7.425,0.79068 18.675,1.8884 25,2.43938 24.7828,2.15887 82.9535,12.75847 107.1971,19.53297 4.7834,1.33664 9.3905,2.43026 10.238,2.43026 1.4107,0 5.7265,1.25331 29.0649,8.44048 11.8935,3.66266 30.8673,10.04502 40.5,13.62328 4.675,1.73663 10.8595,3.98369 13.7434,4.99348 2.8838,1.00979 6.0338,2.29632 7,2.85896 2.331,1.35747 2.1655,1.40184 4.3499,-1.1662 z M 1047.5,267.4557 c 3.3,-0.91931 7.7055,-2.07924 9.79,-2.57761 8.0607,-1.92721 20.9965,-11.42918 26.5005,-19.46595 6.2397,-9.11095 9.7398,-30.78769 7.3881,-45.75564 -3.7084,-23.60316 -18.3441,-38.3533 -42.8827,-43.21816 -26.3782,-5.22958 -57.01989,-1.2551 -71.53739,9.27901 -15.1846,11.01815 -21.7582,27.38815 -20.4478,50.92039 0.6043,10.85309 3.9351,22.98682 7.8988,28.7744 5.2177,7.61869 18.4771,17.58729 25.4524,19.13545 1.561,0.34645 4.8792,1.26911 7.3738,2.05035 8.07559,2.52904 16.18279,3.30421 30.46429,2.91286 8.9103,-0.24416 16.1813,-0.99129 20,-2.0551 z"
       id="path1" />
  </g>
</svg>
