<?xml version="1.0" encoding="UTF-8" standalone="no"?>
<!-- Created with Inkscape (http://www.inkscape.org/) -->

<svg
   version="1.1"
   id="svg1"
   width="2048"
   height="2048"
   viewBox="0 0 2048 2048"
   xmlns="http://www.w3.org/2000/svg"
   xmlns:svg="http://www.w3.org/2000/svg">
  <defs
     id="defs1" />
  <g
     id="g1">
    <path
       style="fill:#000000"
       d="M 938.1132,1871.5966 C 779.07531,1866.9294 642.34561,1850.9188 537,1824.6276 c -58.5866,-14.6215 -104.89356,-34.188 -124.25845,-52.5042 l -3.75844,-3.5549 31.50314,-120.0001 31.50313,-120.0002 -13.98941,-78.9575 -13.98941,-78.9575 -43.99154,-75.9642 -43.99154,-75.9642 -15.49144,-113.307 C 332.01575,1043.099 312.90003,903.25793 298.05666,794.65986 283.2133,686.0618 271.30566,596.9719 271.59525,596.68231 c 0.28958,-0.28959 11.18662,-4.89154 24.21563,-10.22657 23.06726,-9.44541 23.7285,-9.64852 25.18912,-7.73731 0.825,1.0795 62.44686,104.98756 136.93747,230.90679 74.4906,125.91924 135.56819,228.81338 135.72798,228.65358 0.15978,-0.1598 1.65452,-123.52955 3.32163,-274.15499 1.66711,-150.62545 3.19948,-274.03282 3.40527,-274.2386 0.89101,-0.89101 68.12781,-12.14365 68.68036,-11.49423 0.33688,0.39595 47.14584,124.33166 104.0199,275.41268 68.15721,181.05373 103.65293,274.11574 104.12768,273.00004 0.39616,-0.9311 5.66242,-28.0178 11.7028,-60.1928 24.40457,-129.99464 99.2295,-526.64962 99.74332,-528.75001 l 0.55041,-2.25 h 34.28318 34.2832 l 0.5487,2.25 c 0.3018,1.2375 25.3355,133.425 55.6306,293.75 30.295,160.325 55.4094,292.25811 55.8097,293.18461 0.4812,1.1138 35.5974,-91.05701 103.6294,-271.99997 56.5958,-150.52655 103.1798,-274.0086 103.5199,-274.40455 0.5529,-0.64379 67.7905,10.59859 68.6746,11.48266 0.1994,0.19943 1.7279,123.60287 3.3965,274.22987 1.6687,150.627 3.1644,273.99769 3.3238,274.15709 0.1593,0.1594 55.1546,-92.28411 122.2117,-205.42997 67.057,-113.14586 128.7951,-217.28255 137.1958,-231.41488 l 15.2739,-25.69514 22.7511,11.00478 c 12.5131,6.05263 23.0791,11.32843 23.48,11.724 0.4008,0.39558 -4.6766,41.43124 -11.2833,91.19037 -6.6067,49.75912 -25.0437,188.68387 -40.9711,308.72164 l -28.959,218.2506 -44.9918,76.4587 -44.9919,76.4587 -14.0213,80.0218 -14.0214,80.0217 32.4426,121.2597 c 30.6736,114.6476 32.3508,121.3611 30.7591,123.1199 -2.9305,3.2383 -19.2436,13.6668 -29.1486,18.634 -50.946,25.5486 -145.2983,47.6816 -266.5422,62.5251 -61.8564,7.5728 -123.8468,12.3703 -201,15.5555 -33.1821,1.3699 -166.51506,1.9823 -202.3868,0.9295 z M 1143.5,1804.6339 c 181.1254,-7.5839 303.3241,-26.6356 399.75,-62.3239 7.5625,-2.799 13.75,-5.3527 13.75,-5.6749 0,-0.3223 -6.6375,-3.1193 -14.75,-6.2156 -92.8169,-35.4254 -211.8074,-57.4064 -358.75,-66.2715 -86.8293,-5.2384 -203.85939,-5.8467 -289.5,-1.5046 -164.71717,8.3512 -296.24685,31.8109 -387.06867,69.0379 -6.83723,2.8025 -13.21883,5.3356 -14.18133,5.6292 -0.9625,0.2935 -1.75,0.8623 -1.75,1.2641 0,1.7227 42.42677,14.9073 70.5,21.9087 102.70047,25.6133 237.02937,40.9976 397.5,45.5247 23.35117,0.6587 160.3114,-0.3613 184.5,-1.3741 z M 532.87951,1639.0793 c 96.49842,-26.0976 214.10603,-41.0219 375.62049,-47.6658 39.88644,-1.6408 193.4821,-1.641 232.5,-3e-4 134.1576,5.6411 225.1009,15.2632 314,33.2223 18.4455,3.7263 71.7005,16.6459 76.3654,18.5261 1.5139,0.6102 1.7559,0.3936 1.2843,-1.1494 -0.3196,-1.0457 -6.9059,-25.8685 -14.6362,-55.1618 l -14.0551,-53.2604 5.9792,-42.6979 c 3.2885,-23.4838 5.7926,-42.8843 5.5646,-43.1124 -0.7309,-0.7308 -24.3252,-6.004 -47.5022,-10.6165 -114.5935,-22.8053 -239.4325,-33.5388 -409.5,-35.2083 -180.30387,-1.77 -338.00047,9.3587 -462,32.6036 -19.75105,3.7025 -62.87076,13.0455 -64.30854,13.9341 -0.71638,0.4427 0.86805,14.1034 4.90738,42.3106 l 5.96534,41.6569 -14.55935,54.3254 c -8.00765,29.879 -14.82401,55.181 -15.14749,56.2267 -0.46388,1.4995 -0.21948,1.7598 1.15677,1.2317 0.9597,-0.3683 9.22413,-2.6924 18.3654,-5.1646 z M 537,1367.6184 c 82.82706,-20.3495 196.61341,-34.927 320,-40.996 97.07315,-4.7747 223.1519,-5.1663 317.5,-0.9862 135.8569,6.0192 255.5205,21.2364 345.1828,43.8956 6.4962,1.6417 12.1087,2.6686 12.4721,2.282 0.3635,-0.3866 18.5212,-34.9029 40.3506,-76.7029 21.8294,-41.8 42.3634,-81.0386 45.631,-87.1969 l 5.9411,-11.1969 -10.2888,3.4873 c -33.1402,11.2326 -66.447,16.2367 -100.2888,15.0679 -59.211,-2.0451 -108.9533,-19.9877 -152.5,-55.0085 -11.3239,-9.1068 -32.479,-30.7644 -42.3443,-43.35 l -8.7768,-11.1972 -6.1895,5.0247 c -47.6319,38.6686 -109.0499,53.8412 -169.069,41.7665 -41.068,-8.2621 -78.3441,-31.3261 -107.293,-66.3859 l -4.1194,-4.989 -11.854,11.5017 c -38.47275,37.3294 -80.8571,55.655 -133.354,57.658 -17.21682,0.657 -33.89644,-0.6196 -49.5,-3.7883 -28.50866,-5.7896 -61.0126,-20.843 -84.20069,-38.9955 l -6.20068,-4.8541 -7.41438,8.7281 c -11.15514,13.1317 -33.77052,34.6387 -46.69804,44.4095 -15.71012,11.8739 -26.82745,18.7112 -44.48621,27.3599 -33.38918,16.3528 -67.9353,24.7012 -108,26.0992 -34.52056,1.2045 -66.3503,-3.4572 -98.91844,-14.4874 l -11.59598,-3.9273 4.91083,9.1371 c 2.70096,5.0254 22.09758,41.7621 43.10359,81.6371 51.37932,97.5316 47.87857,91.1699 49.83935,90.5697 0.91336,-0.2796 9.08565,-2.3326 18.16065,-4.5622 z M 1542.7894,1144.544 c 19.9873,-2.1959 40.9458,-8.0557 59.0177,-16.5007 10.2956,-4.8112 27.8137,-15.0419 32.987,-19.2647 l 3.2681,-2.6677 27.3597,-172.00001 c 15.0479,-94.6 27.2746,-172.09682 27.1704,-172.21517 -0.2648,-0.30093 -218.6689,374.00098 -218.9022,375.15568 -0.3526,1.7445 20.0904,6.5892 33.3099,7.894 8.1018,0.7996 26.7627,0.5904 35.7894,-0.4014 z M 550.5,1137.17 c 13.56005,-2.4268 19.71186,-4.374 18.77929,-5.9439 -0.42861,-0.7216 -48.68005,-83.7169 -107.22541,-184.43414 C 403.50851,846.07477 355.52176,763.76905 355.41665,763.89035 c -0.1051,0.1213 12.11384,75.59137 27.15322,167.71128 l 27.34432,167.49077 3.2929,2.7177 c 4.96643,4.0988 27.27711,17.2238 36.15689,21.2705 16.25525,7.4077 37.09051,13.5133 52.86582,15.4919 10.31647,1.2939 37.63928,0.5 48.2702,-1.4025 z m 835.2542,-392.44632 -0.2542,-114.7269 -82.1545,225.55706 c -45.185,124.05636 -82.0162,225.70076 -81.8472,225.87646 0.1689,0.1757 3.7442,-1.1114 7.9449,-2.8601 10.0508,-4.1842 20.7511,-11.3519 27.5568,-18.4593 3.025,-3.1591 8.8163,-7.9364 12.8695,-10.6161 22.8189,-15.0868 55.8599,-14.2385 79.5222,2.0416 6.333,4.3572 15.9192,14.2278 21.2955,21.9274 2.5528,3.6559 6.93,9.0252 9.7271,11.9317 l 5.0857,5.2847 0.2542,-115.6148 c 0.1398,-63.58816 0.1398,-167.24192 0,-230.34172 z M 672.18528,1069.6109 c 9.84153,-17.481 23.93169,-28.5706 42.81472,-33.6972 8.06594,-2.1899 29.82158,-2.4534 38,-0.4604 3.025,0.7372 10.10618,3.5541 15.73595,6.2599 8.75216,4.2063 11.65133,6.2764 20,14.2802 9.52195,9.1286 17.11625,13.9384 31.47113,19.9318 l 3.70708,1.5478 -3.33357,-9.1811 C 815.44554,1054.1494 675.73481,671.75674 667.42888,649.11089 l -7.33551,-20 -0.0467,227.45821 -0.0467,227.4582 4.54443,-4.4582 c 2.49944,-2.452 5.93782,-6.9332 7.64085,-9.9582 z M 1066.7128,828.82738 c -23.2031,-133.76907 -42.4259,-243.21649 -42.7173,-243.21649 -0.2914,0 -2.443,10.9125 -4.7814,24.25 -32.1557,183.4117 -79.34104,451.92711 -79.82384,454.25001 l -0.62353,3 2.36663,-2.133 c 1.30165,-1.1732 3.78602,-2.85 5.52081,-3.7262 3.62669,-1.8317 5.51104,-4.1032 12.45607,-15.0151 15.94486,-25.0524 39.08346,-36.9056 68.88976,-35.2901 27.8079,1.5071 45.6889,12.816 57.0536,36.0837 4.2945,8.7925 6.1118,11.3793 10.8047,15.3796 6.7847,5.7835 12.4954,10.1807 12.8114,9.8647 0.1269,-0.1268 -18.7537,-109.678 -41.9569,-243.44712 z M 219.5,593.99686 c -7.45303,-0.78697 -23.80278,-4.53824 -30.91878,-7.09398 -18.51228,-6.64876 -34.08631,-16.71319 -49.12953,-31.74907 -26.24982,-26.23702 -38.66649,-54.70271 -40.148916,-92.04292 -1.586765,-39.9683 11.615566,-73.52348 40.148916,-102.04292 25.4196,-25.4072 53.90165,-37.72515 90.54831,-39.16044 29.86789,-1.1698 57.24057,6.46148 81.69756,22.77661 10.17372,6.78683 31.30811,28.07979 38.14059,38.42675 14.0706,21.30822 20.74543,42.54537 21.84382,69.5 1.7175,42.14743 -14.46064,79.89888 -46.36241,108.18596 -17.63326,15.63529 -37.05904,25.48093 -60.81956,30.82541 -8.86016,1.99292 -35.36753,3.39169 -45,2.3746 z m 40.32863,-72.34979 c 21.31242,-6.06856 33.51926,-18.42721 39.40264,-39.89265 2.83003,-10.32536 3.08709,-36.11599 0.4639,-46.54308 -4.03738,-16.04844 -14.37283,-29.86039 -26.81623,-35.83632 -11.49196,-5.519 -19.92995,-7.17086 -36.87894,-7.21958 -25.1706,-0.0724 -38.93037,4.4647 -50.69424,16.71555 -10.31926,10.74644 -14.96024,23.29069 -15.9974,43.2399 -2.10104,40.41245 14.10546,64.66124 47.44527,70.98943 11.0246,2.09256 33.25644,1.34252 43.075,-1.45325 z m 1534.41827,71.92845 c -44.0956,-5.54148 -84.469,-34.78643 -104.8127,-75.92233 -4.7077,-9.51919 -8.3109,-20.29826 -11.0452,-33.0423 -2.5353,-11.81622 -2.5931,-40.88384 -0.1058,-53.18222 5.6187,-27.78192 16.3984,-47.49663 37.6891,-68.92867 21.5303,-21.67329 41.9664,-32.8234 70.6537,-38.54941 12.2477,-2.44464 40.4085,-2.46389 52.5562,-0.0359 27.8626,5.56891 47.6614,16.46123 69.3571,38.15693 17.6735,17.6735 26.929,32.12637 33.8045,52.78712 8.2193,24.69878 8.6711,56.10659 1.1834,82.25218 -13.443,46.94029 -55.6677,85.60374 -103.8001,95.04548 -9.7463,1.91185 -35.2317,2.70708 -45.4802,1.41915 z m 41.6649,-71.43099 c 15.462,-3.82442 29.4169,-14.35445 35.3241,-26.6547 5.519,-11.49196 7.1708,-19.92995 7.2195,-36.87894 0.052,-18.02682 -1.6223,-27.0671 -7.0049,-37.82636 -4.0552,-8.10583 -13.4371,-17.61296 -21.326,-21.61054 -10.4714,-5.30628 -18.9796,-6.90088 -37.1245,-6.9579 -14.2717,-0.0448 -17.5743,0.25559 -24.4549,2.22464 -22.0775,6.31795 -34.8211,19.2295 -40.2403,40.77061 -2.7217,10.8187 -2.4531,36.38171 0.4907,46.69873 6.9708,24.43037 22.2558,37.54817 48.6811,41.77868 7.5711,1.2121 31.116,0.26613 38.4352,-1.54422 z M 584,483.5602 c -49.1554,-6.06594 -93.44186,-41.61433 -110.29199,-88.53053 -5.40092,-15.03789 -7.17367,-26.37946 -7.17737,-45.91878 -0.004,-19.40161 1.27049,-28.50865 6.02744,-43.08117 11.023,-33.76804 37.7116,-64.48298 70.19081,-80.78007 18.59022,-9.32801 35.05534,-12.95802 59.25111,-13.0629 19.35783,-0.0839 27.19807,0.969 42,5.64042 39.87777,12.58524 75.27877,47.87832 88.42729,88.15773 8.18428,25.07186 8.559,55.97948 0.9989,82.39074 -3.60771,12.60356 -12.21075,29.5361 -20.79962,40.93792 -20.31423,26.96737 -48.95061,45.65319 -80.12657,52.28425 -11.52004,2.45028 -36.39148,3.45662 -48.5,1.96239 z m 43.15411,-71.79777 c 10.67379,-2.81786 17.26042,-6.42312 24.58579,-13.4573 12.25085,-11.76387 16.7879,-25.52364 16.71555,-50.69424 -0.0373,-12.98596 -0.4109,-16.79026 -2.30317,-23.45493 -6.25791,-22.04072 -19.25407,-34.86797 -40.75273,-40.2231 -9.89397,-2.46451 -34.15386,-2.46611 -44.65313,-0.003 -22.21771,5.21232 -35.92315,18.44754 -41.97769,40.53746 -2.83003,10.32536 -3.08709,36.11599 -0.4639,46.54308 3.66234,14.55766 11.60663,26.37019 22.36174,33.25015 5.90407,3.77679 17.75731,8.01112 26.1367,9.3368 9.38146,1.48421 31.60648,0.47353 40.35084,-1.83496 z M 1425,483.5602 c -49.1554,-6.06594 -93.4419,-41.61433 -110.292,-88.53053 -5.4009,-15.03789 -7.1737,-26.37946 -7.1774,-45.91878 0,-19.40161 1.2705,-28.50865 6.0275,-43.08117 11.023,-33.76804 37.7116,-64.48298 70.1908,-80.78007 18.5902,-9.32801 35.0553,-12.95802 59.2511,-13.0629 19.3578,-0.0839 27.1981,0.969 42,5.64042 39.8778,12.58524 75.2788,47.87832 88.4273,88.15773 8.1843,25.07186 8.559,55.97948 0.9989,82.39074 -3.6077,12.60356 -12.2108,29.5361 -20.7996,40.93792 -20.3143,26.96737 -48.9506,45.65319 -80.1266,52.28425 -11.52,2.45028 -36.3915,3.45662 -48.5,1.96239 z m 43.1541,-71.79777 c 10.6738,-2.81786 17.2604,-6.42312 24.5858,-13.4573 12.2509,-11.76387 16.7879,-25.52364 16.7155,-50.69424 -0.037,-12.98596 -0.4108,-16.79026 -2.3031,-23.45493 -6.2579,-22.04072 -19.2541,-34.86797 -40.7527,-40.2231 -9.894,-2.46451 -34.1539,-2.46611 -44.6532,-0.003 -22.2177,5.21232 -35.9231,18.44754 -41.9777,40.53746 -2.83,10.32536 -3.0871,36.11599 -0.4639,46.54308 3.6624,14.55766 11.6067,26.37019 22.3618,33.25015 5.904,3.77679 17.7573,8.01112 26.1367,9.3368 9.3814,1.48421 31.6065,0.47353 40.3508,-1.83496 z M 1007.5,433.92459 c -6.9546,-0.60869 -23.56786,-4.3816 -30.91878,-7.02171 -18.51228,-6.64876 -34.08631,-16.71319 -49.12953,-31.74907 -26.24982,-26.23702 -38.66649,-54.70271 -40.14892,-92.04292 -1.58676,-39.9683 11.61557,-73.52348 40.14892,-102.04292 24.97256,-24.96037 53.45472,-37.48766 89.04831,-39.16604 27.8859,-1.31493 55.0906,5.48191 77.0017,19.23807 33.7232,21.17211 56.4121,53.02113 64.0943,89.97089 2.7881,13.41011 2.5716,41.26206 -0.4292,55.23367 -6.4108,29.84806 -21.2386,54.37118 -45.5456,75.32614 -29.0431,25.03796 -63.7452,35.78773 -104.1212,32.25389 z m 31.0708,-71.38682 c 26.2869,-3.65618 43.0079,-18.13408 49.1164,-42.52733 1.2659,-5.05533 1.7277,-11.04263 1.7277,-22.39955 0,-24.37469 -4.2183,-37.03979 -16.3262,-49.01818 -7.2884,-7.21043 -13.6612,-10.72347 -25.7098,-14.17282 -6.7943,-1.94512 -10.1503,-2.2485 -24.3789,-2.20379 -13.5747,0.0427 -17.857,0.42522 -24.15411,2.15788 -10.79084,2.96911 -17.31974,6.56545 -24.58579,13.54267 -12.04125,11.5626 -16.7601,25.55415 -16.7601,49.69424 0,16.95174 1.79328,26.31976 7.04952,36.82636 5.63742,11.26854 17.28128,21.09238 29.81068,25.15104 11.5261,3.73366 29.8049,4.95312 44.2106,2.94948 z"
       id="path1" />
  </g>
</svg>
