<?xml version="1.0" encoding="UTF-8" standalone="no"?>
<!-- Created with Inkscape (http://www.inkscape.org/) -->

<svg
   version="1.1"
   id="svg1"
   width="2048"
   height="2048"
   viewBox="0 0 2048 2048"
   xmlns="http://www.w3.org/2000/svg"
   xmlns:svg="http://www.w3.org/2000/svg">
  <defs
     id="defs1" />
  <g
     id="g1">
    <path
       style="fill:#000000"
       d="m 341,1758.1299 v -119.5 h 76.5 76.5 v -102.2867 -102.2868 l 85.50205,-85.4461 85.50205,-85.4461 L 664.75205,1024.219 664.5,785.27379 554,700.14349 443.5,615.01318 443.24739,427.32156 442.99478,239.62993 H 579.49739 716 v 68.5 68.5 h 85.5 85.5 v -68.5 -68.5 h 137 137 v 68.5 68.5 h 85 85 v -68.5 -68.5 h 137.0026 137.0026 l -0.2526,187.68366 -0.2526,187.68366 -110.5,85.13269 -110.5,85.13268 -0.2521,238.93378 -0.252,238.9338 85.002,84.9976 85.0021,84.9977 v 102.7522 102.7522 h 76.5 76.5 v 119.5 119.5 H 1023.5 341 Z m 1298,0 v -51.5 H 1024 409 v 51.5 51.5 h 615 615 z m -155,-187.5 v -68 H 1024 564 v 68 68 h 460 460 z m -76.5393,-188.0059 -51.0393,-50.9941 H 1024.6308 692.84017 l -51.92008,50.5874 c -28.55605,27.8231 -51.92009,50.7731 -51.92009,51 0,0.227 195.6375,0.41 434.75,0.4067 l 434.75,-0.01 z M 1314,1024.6299 V 785.62993 H 1024 734 v 238.99997 239 h 290 290 z m 98.1717,-358.24997 63.1672,-51.25 -225.6695,-0.25218 c -124.1181,-0.1387 -327.2234,-0.1387 -451.34496,0 l -225.67556,0.25218 63.42556,51.17654 63.42556,51.17655 324.7522,0.0734 324.7522,0.0735 z M 1536,427.12993 v -119.5 h -68.5 -68.5 v 68.5 68.5 h -154 -154 v -68.5 -68.5 H 1023.5 956 v 68.5 68.5 H 802.5 649 v -68.5 -68.5 H 580.5 512 v 119.5 119.5 h 512 512 z"
       id="path1" />
  </g>
</svg>
