<?xml version="1.0" encoding="UTF-8" standalone="no"?>
<!-- Created with Inkscape (http://www.inkscape.org/) -->

<svg
   version="1.1"
   id="svg1"
   width="2048"
   height="1844"
   viewBox="0 0 2048 1844"
   xmlns="http://www.w3.org/2000/svg"
   xmlns:svg="http://www.w3.org/2000/svg">
  <defs
     id="defs1" />
  <g
     id="g1">
    <path
       style="fill:#000000"
       d="m 736,1721.1976 c 0,-2.3087 34.42935,-37.0498 57,-57.5161 8.525,-7.7302 15.63919,-14.3884 15.80931,-14.7961 0.17011,-0.4077 7.90593,-7.5561 17.19069,-15.8854 9.28476,-8.3293 17.02058,-15.4864 17.19069,-15.9046 0.17012,-0.4182 6.9164,-6.707 14.9917,-13.9751 8.0754,-7.2682 14.8254,-13.5615 15,-13.9852 0.1747,-0.4237 5.4926,-5.3886 11.8176,-11.0331 6.325,-5.6445 12.85,-11.7229 14.5,-13.5075 1.65,-1.7846 8.175,-7.9176 14.5,-13.6289 19.0536,-17.2048 33.3728,-32.0825 42.7961,-44.4656 2.9298,-3.85 5.8697,-7.675 6.533,-8.5 11.5676,-14.3864 28.7535,-47.0957 38.35511,-73 14.1318,-38.1263 19.301,-66.0875 18.473,-99.9243 l -0.1572,-6.4243 -2.25,2.0493 c -1.2375,1.1272 -3.375,2.6291 -4.75,3.3376 -1.375,0.7086 -4.7909,3.0148 -7.5909,5.125 -2.7999,2.1102 -5.45341,3.8367 -5.89641,3.8367 -0.4431,0 -3.1023,1.5198 -5.9092,3.3774 -4.4399,2.9382 -12.7604,7.5982 -23.1035,12.9393 -6.537,3.3756 -21.2711,9.9904 -26,11.6725 -2.75,0.9782 -9.95,3.4869 -16,5.5749 -6.05,2.088 -15.5,5.4981 -21,7.578 -5.5,2.0798 -11.35,4.094 -13,4.4759 -1.65,0.3819 -6.1885,2.1398 -10.0856,3.9064 -3.8971,1.7666 -8.8471,3.7798 -11,4.4737 -10.2238,3.2954 -50.87529,22.2945 -74.41439,34.7787 -23.33128,12.374 -54.3243,31.8254 -68.47157,42.9732 -2.96645,2.3375 -5.65357,4.25 -5.97139,4.25 -1.00491,0 -13.30186,10.0748 -27.42168,22.4665 -14.71199,12.9113 -32.99252,30.6982 -40.63064,39.5335 -2.61511,3.025 -5.92834,6.85 -7.36272,8.5 -13.34829,15.3548 -23.21736,29.5125 -39.03672,56 -5.58417,9.35 -10.59252,17.675 -11.12966,18.5 -2.07728,3.1905 -8.30779,13.7946 -11.75113,20 -1.98375,3.575 -3.908,6.725 -4.27612,7 -0.36812,0.275 -1.36118,1.85 -2.2068,3.5 -0.84563,1.65 -3.40038,5.7 -5.67723,9 -2.27686,3.3 -4.90521,7.125 -5.84079,8.5 -6.22912,9.1548 -18.2009,21.7451 -23.22355,24.4235 -1.375,0.7332 -4.975,2.7073 -8,4.3868 -7.79761,4.3295 -25.62766,8.2525 -40.55292,8.9225 -14.83385,0.666 -22.35295,-0.4513 -39.19299,-5.8238 -10.30044,-3.2861 -32.89838,-20.7444 -38.4248,-29.6855 -1.11386,-1.8021 -2.56046,-3.8271 -3.21467,-4.5 -0.65421,-0.6729 -2.23885,-2.9385 -3.52142,-5.0347 -1.66495,-2.7211 -2.79834,-3.6305 -3.96257,-3.1795 -3.36088,1.3019 -21.29917,5.3806 -28.8228,6.5535 -4.29431,0.6695 -17.03283,1.2667 -28.30783,1.3272 l -20.5,0.11 -8,-3.3826 c -4.4,-1.8605 -11.15,-4.6173 -15,-6.1262 -17.25001,-6.7607 -36.69662,-17.2221 -47.98235,-25.8122 -6.63325,-5.049 -30.71377,-28.9149 -37.01765,-36.6878 -6.62298,-8.1664 -16.55892,-21.7949 -18.22,-24.9912 -0.85749,-1.65 -1.89024,-3.225 -2.29501,-3.5 -1.99093,-1.3526 -11.47632,-22.4578 -15.37906,-34.2187 -9.93496,-29.9389 -15.53628,-68.6189 -14.30471,-98.7813 0.60915,-14.9186 1.95719,-22.7447 6.98198,-40.5343 4.33043,-15.3313 19.69711,-48.0379 31.6977,-67.4657 5.20119,-8.4202 17.69345,-27.5739 19.24029,-29.5 0.4417,-0.55 3.06579,-4.15 5.83132,-8 2.76552,-3.85 5.57897,-7.675 6.25211,-8.5 0.67313,-0.825 2.32522,-3.075 3.6713,-5 3.62514,-5.1842 16.18659,-21.3453 17.48841,-22.5 0.6201,-0.55 1.79267,-1.9675 2.60572,-3.1501 0.81304,-1.1825 3.26739,-4.2861 5.4541,-6.8969 2.18672,-2.6107 5.55085,-6.6253 7.47585,-8.9213 1.925,-2.296 5.3,-6.346 7.5,-9 2.2,-2.654 5.575,-6.6994 7.5,-8.9897 1.925,-2.2903 5.075,-6.1284 7,-8.5293 1.925,-2.4008 4.85,-6.0329 6.5,-8.0713 1.65,-2.0384 4.8,-6.074 7,-8.968 2.2,-2.894 5.15369,-6.6595 6.56375,-8.3676 1.41006,-1.7082 3.65365,-4.6808 4.98575,-6.6058 1.33211,-1.925 2.97275,-4.175 3.64588,-5 0.67314,-0.825 3.48659,-4.65 6.25211,-8.5 2.76553,-3.85 5.4293,-7.4853 5.9195,-8.0784 0.4902,-0.5931 2.13793,-3.0681 3.66163,-5.5 1.5237,-2.4319 3.06434,-4.6466 3.42366,-4.9216 0.35931,-0.275 1.74025,-2.3 3.06876,-4.5 1.3285,-2.2 2.79082,-4.45 3.24958,-5 0.45877,-0.55 2.67415,-3.925 4.92307,-7.5 2.24893,-3.575 5.09664,-8.075 6.32826,-10 9.31907,-14.5656 24.1351,-43.8938 29.30044,-58 7.94283,-21.6913 9.75298,-30.6483 10.60995,-52.5 1.02171,-26.05234 5.33792,-57.32309 9.86893,-71.5 3.57473,-11.18482 9.99274,-24.13686 17.50394,-35.32427 3.68213,-5.48429 7.77534,-11.5924 9.096,-13.57358 1.32067,-1.98118 2.70878,-3.82715 3.0847,-4.10215 0.37592,-0.275 3.10188,-4.1 6.05769,-8.5 4.822,-7.17797 10.79048,-14.96395 14.9564,-19.51086 0.825,-0.90044 3.75,-4.2991 6.5,-7.55257 7.4195,-8.77786 20.94537,-22.90595 39.67029,-41.43657 l 16.67302,-16.5 -4.93104,-13 C 510.76906,726.57703 499.21061,682.72239 493.0987,642 c -5.36677,-35.75762 -7.73631,-77.88455 -6.23423,-110.83519 0.53492,-11.73436 1.12174,-21.45406 1.30405,-21.59935 0.87705,-0.69892 36.85422,11.40387 48.33148,16.25881 2.75,1.16327 7.925,3.21314 11.5,4.55527 10.41052,3.90835 25.04251,10.10985 31.51542,13.35724 3.29152,1.65132 7.10958,3.34531 8.48458,3.76442 5.86905,1.78896 55.98456,27.36215 65.71797,33.5349 2.57047,1.63014 5.43887,2.9639 6.37422,2.9639 0.93534,0 3.18007,-1.6875 4.98829,-3.75 7.83882,-8.94117 35.36858,-32.03499 49.91952,-41.87585 6.65221,-4.49892 16.45932,-11.32478 25.5,-17.74828 4.4,-3.12625 9.29175,-6.45849 10.87056,-7.40498 1.57881,-0.94649 5.26096,-3.63339 8.18256,-5.97089 2.92159,-2.3375 5.58365,-4.25 5.91569,-4.25 0.61901,0 9.98407,-6.80755 19.22285,-13.97328 2.85541,-2.2147 5.50907,-4.02672 5.89701,-4.02672 0.38794,0 2.68954,-1.6259 5.11467,-3.61311 2.42513,-1.98721 6.39393,-5.02471 8.81955,-6.75 8.61979,-6.13106 23.60058,-17.34321 34.92204,-26.13689 4.2486,-3.3 8.93477,-6.9 10.41376,-8 1.4789,-1.1 8.5282,-6.82693 15.6651,-12.72651 7.1369,-5.89958 14.2268,-11.74958 15.7554,-13 15.2135,-12.44527 41.7411,-37.08693 66.1824,-61.47715 l 14.2333,-14.20367 -7.8245,-4.54633 C 949.56699,332.04585 945.73899,330 945.36389,330 c -0.3752,0 -2.973,-1.70079 -5.773,-3.77954 -2.8,-2.07875 -6.2159,-4.50991 -7.5909,-5.40259 -5.5523,-3.60465 -20.0108,-18.82835 -25.441,-26.78747 -9.0836,-13.31408 -14.4702,-27.48538 -17.1144,-45.02624 -6.4665,-42.8952 8.3706,-80.85388 43.003,-110.01759 4.5632,-3.84261 8.5782,-6.98657 8.9222,-6.98657 0.3441,0 2.7641,-1.52226 5.3779,-3.38279 4.8958,-3.4849 28.0996,-14.61721 30.4676,-14.61721 0.7318,0 5.5953,-1.07938 10.8076,-2.39862 17.49971,-4.42913 35.84001,-5.66306 53.00331,-3.56606 13.1816,1.61052 32.6492,6.7829 41.6642,11.06986 4.5047,2.14215 8.4658,3.89482 8.8025,3.89482 3.1753,0 31.0021,21.62609 37.8433,29.41062 1.0099,1.14916 2.9032,3.30138 4.2072,4.78272 12.5595,14.26672 22.025,34.98681 25.0006,54.7265 4.7064,31.22077 -2.8356,63.34742 -20.2457,86.24013 -5.5108,7.24624 -17.2796,18.9924 -22.7983,22.75445 -2.2,1.49971 -6.025,4.10367 -8.5,5.78656 -2.475,1.68289 -8.2072,5.17829 -12.7382,7.76756 l -8.2383,4.70776 22.9589,22.82769 c 22.9053,22.77426 44.7246,42.90411 63.9477,58.99601 15.945,13.34784 19.3569,16.12759 27.0025,22 3.9384,3.025 9.7931,7.6375 13.0105,10.25 3.2174,2.6125 6.1621,4.75 6.5438,4.75 0.3818,0 3.0644,2.025 5.9614,4.5 2.897,2.475 5.5627,4.5 5.9236,4.5 0.361,0 3.0961,1.9125 6.0781,4.25 2.982,2.3375 8.0381,6.16705 11.2359,8.5101 3.1977,2.34306 8.8353,6.50556 12.5278,9.25 3.6926,2.74445 6.9714,4.9899 7.2863,4.9899 0.3149,0 3.4314,2.1375 6.9256,4.75 3.4942,2.6125 9.3347,6.775 12.9787,9.25 3.6441,2.475 8.5879,5.94037 10.9863,7.70081 2.3983,1.76045 5.7141,4.01045 7.3685,5 6.1631,3.68651 28.9789,19.51181 37.8651,26.26368 19.868,15.09596 45.6056,39.90062 54.2758,52.30841 0.8559,1.2249 2.113,2.9021 2.7934,3.7271 7.0641,8.56467 15.9909,22.97884 22.7685,36.7644 3.046,6.19542 5.5381,11.50761 5.5381,11.80487 0,0.29725 0.8441,2.42827 1.8758,4.73559 6.962,15.57047 17.7508,50.49883 21.5277,69.69514 4.3652,22.18615 4.9906,28.54528 5.0435,51.28304 0.052,22.31957 0.097,22.8078 2.2256,24 3.1468,1.76261 14.1018,9.11088 19.2789,12.93168 2.4483,1.8069 5.5983,3.91209 7,4.67819 1.4017,0.7661 4.636,3.1286 7.1873,5.25 2.5513,2.1214 4.9778,3.85709 5.3922,3.85709 0.4143,0 3.1237,2.025 6.0207,4.5 2.897,2.475 5.5737,4.5 5.9483,4.5 0.3746,0 3.0028,1.92997 5.8405,4.28882 2.8377,2.35885 6.5807,5.39635 8.3178,6.75 21.4779,16.73708 49.2401,42.40771 71.0055,65.65602 16.5947,17.72524 15.8845,16.93029 29.309,32.80516 2.3255,2.75 5.1835,6.125 6.3511,7.5 3.0105,3.54534 9.8563,12.02673 12.1958,15.10963 2.6709,3.51971 14.1623,18.77699 16.4872,21.89037 1.6043,2.14833 7.784,10.6338 13.7605,18.8948 0.9529,1.3172 2.4076,3.4171 3.2326,4.6664 0.825,1.2494 5.9554,8.9468 11.4009,17.1052 13.5169,20.251 21.4312,32.7958 31.1239,49.3336 2.0952,3.575 4.7888,8.075 5.9858,10 7.9512,12.788 40.4894,74.9465 40.4894,77.3481 0,0.2337 2.0577,4.8634 4.5726,10.2884 5.838,12.5933 6.391,13.8503 11.3769,25.8635 2.2827,5.5 4.5577,10.9 5.0556,12 1.9318,4.2681 4.4297,10.7555 11.9362,31 31.8703,85.9522 53.2333,181.308 63.5139,283.5 4.0994,40.7487 11.4977,160.4931 11.5382,186.75 l 0.01,4.25 h -569.5 c -313.22501,0 -569.5,-0.3611 -569.5,-0.8024 z M 1760.9935,1615.75 c 0,-32.5875 -0.4668,-68.025 -1.0296,-78.75 -3.6898,-70.324 -14.3759,-133.478 -34.3489,-203 -6.0933,-21.2096 -17.9176,-58.6063 -23.0815,-73 -10.6024,-29.5527 -18.9832,-51.9667 -21.4999,-57.5 -0.5003,-1.1 -4.0359,-9.425 -7.8568,-18.5 -12.5012,-29.691 -24.6261,-54.3146 -42.3473,-86 -14.2387,-25.4587 -16.3662,-29.1469 -17.6478,-30.5939 -0.5329,-0.6016 -1.7112,-2.5294 -2.6185,-4.2839 -0.9073,-1.7545 -3.8014,-6.4372 -6.4313,-10.4061 -2.6299,-3.9688 -5.423,-8.1903 -6.2068,-9.381 -7.6148,-11.5678 -17.7523,-26.0044 -21.4612,-30.5625 -0.7731,-0.95 -2.6035,-3.5375 -4.0676,-5.75 -1.4641,-2.2124 -2.9398,-4.0234 -3.2792,-4.0244 -0.3394,-10e-4 -1.8959,-2.026 -3.4589,-4.49999 -1.563,-2.47401 -3.1535,-4.49821 -3.5344,-4.49821 -0.3809,0 -1.5268,-1.41216 -2.5463,-3.13813 -1.0196,-1.72598 -2.5852,-3.86956 -3.4791,-4.76351 -0.894,-0.89396 -2.7236,-3.1943 -4.0659,-5.11187 -1.3423,-1.91757 -3.4378,-4.61149 -4.6566,-5.98649 -1.2189,-1.375 -4.0946,-4.75 -6.3906,-7.5 -13.0183,-15.59302 -38.5833,-41.7804 -53.0956,-54.38835 -12.3396,-10.72024 -17.9427,-15.45588 -21.4293,-18.11165 -1.8052,-1.375 -6.751,-5.2 -10.9906,-8.5 -4.2397,-3.3 -9.9069,-7.575 -12.5938,-9.5 -12.6808,-9.08484 -22.1747,-15.63416 -24.6543,-17.00749 -1.4969,-0.82912 -5.3825,-3.41662 -8.6345,-5.75 -3.252,-2.33338 -6.2852,-4.24251 -6.7403,-4.24251 -0.4551,0 -3.7853,-2.025 -7.4004,-4.5 -3.6151,-2.475 -7.0375,-4.5 -7.6053,-4.5 -0.5679,0 -2.4055,-0.97768 -4.0836,-2.17262 -2.9074,-2.07026 -10.1744,-6.17404 -26.7576,-15.11039 -17.0434,-9.18438 -55.3306,-27.52911 -61,-29.2272 -1.375,-0.41184 -4.75,-1.88037 -7.5,-3.2634 -2.75,-1.38302 -7.925,-3.53244 -11.5,-4.77648 -3.575,-1.24404 -9.875,-3.6207 -14,-5.28147 -15.5547,-6.26249 -51.5448,-18.0739 -68.5,-22.48069 -35.3743,-9.19406 -63.2917,-15.41304 -75.3311,-16.78106 -4.7316,-0.53764 -9.6795,-1.24772 -10.9952,-1.57795 -2.1931,-0.55041 -2.3438,-0.36008 -1.8106,2.28542 6.1662,30.59128 9.5507,75.98104 6.7332,90.30174 C 1109.7714,850.81634 1097.9428,860 1079.5,860 c -14.4447,0 -25.746,-5.41599 -30.2567,-14.5 -1.7579,-3.54022 -2.0506,-6.75868 -2.5465,-28 -0.6103,-26.14341 -2.0053,-37.88108 -6.8334,-57.5 -2.8965,-11.76959 -8.9486,-30.19313 -12.4829,-38 -14.3098,-31.60828 -31.59951,-56.24287 -58.42871,-83.25 -8.4911,-8.54744 -14.4176,-13.75 -15.6632,-13.75 -3.4488,0 -26.6461,25.37437 -37.0251,40.5 -1.5096,2.2 -2.9977,4.225 -3.3069,4.5 -0.3092,0.275 -1.6397,2.3 -2.9566,4.5 -1.3169,2.2 -2.6703,4.225 -3.0075,4.5 -1.2508,1.02003 -11.2186,19.73714 -15.1612,28.46912 -11.2967,25.01949 -18.3199,51.98684 -20.3218,78.03088 -1.337,17.39473 -5.1307,25.6796 -13.8691,30.28868 -4.8616,2.56428 -5.8725,2.71033 -18.64039,2.69309 -12.08096,-0.0163 -14.12679,-0.27911 -19.463,-2.5 -9.82834,-4.09051 -15.98024,-14.25954 -16.02052,-26.48177 -0.009,-2.75 0.32959,-6.2375 0.75257,-7.75 1.06082,-3.79332 -0.6499,-3.64701 -13.94131,1.19232 -5.95526,2.16827 -12.17774,4.26471 -13.82774,4.65874 -1.65,0.39404 -6.6,2.25339 -11,4.1319 -4.4,1.8785 -10.25,4.24315 -13,5.25477 -7.11426,2.61706 -23.61938,10.00968 -33,14.78067 -4.4,2.23784 -10.66266,4.83421 -13.91701,5.76971 -14.53713,4.17886 -27.09354,-2.57507 -36.1701,-19.45544 -2.37354,-4.41425 -2.91289,-6.63618 -2.91289,-12 0,-5.81944 0.38239,-7.13341 3.29804,-11.33267 3.38714,-4.87833 11.16,-10.54482 19.20196,-13.99842 4.86832,-2.09068 40.04132,-18.31898 54.25,-25.03013 4.8125,-2.27308 8.75,-4.56216 8.75,-5.08684 0,-0.52469 -1.6875,-2.45082 -3.75,-4.28029 -6.78032,-6.01425 -24.16023,-20.78027 -29.00156,-24.6398 -2.61164,-2.08202 -6.94926,-5.60063 -9.63915,-7.81915 -2.68988,-2.21851 -6.06488,-4.77688 -7.5,-5.68528 -1.43511,-0.90839 -4.66325,-3.35228 -7.17365,-5.43086 C 692.42525,680.70065 690.0127,679 689.57442,679 c -0.43827,0 -2.88431,-1.73419 -5.43564,-3.85375 -2.55133,-2.11956 -5.76378,-4.44305 -7.13878,-5.1633 -1.375,-0.72025 -4.79089,-3.03606 -7.59087,-5.14624 C 666.60915,662.72652 664.01456,661 663.64337,661 c -0.37119,0 -3.45784,-2.025 -6.85921,-4.5 -3.40138,-2.475 -6.56898,-4.5 -7.03911,-4.5 -0.47013,0 -3.52114,-1.81069 -6.78002,-4.02375 -3.25888,-2.21306 -6.72169,-4.31382 -7.69513,-4.66836 -0.97345,-0.35453 -3.5699,-1.83961 -5.7699,-3.30018 -4.27702,-2.83949 -14.44421,-8.4482 -29,-15.9978 -4.95,-2.56739 -9.9,-5.14385 -11,-5.72546 -4.2463,-2.24516 -21.27282,-10.32163 -26.75,-12.68876 -4.34182,-1.87645 -5.75,-2.1482 -5.75,-1.10962 0,0.75649 0.91571,8.49409 2.03491,17.19468 9.40044,73.07825 33.37859,146.43865 67.84309,207.56382 3.6421,6.45952 7.80775,13.88452 9.25699,16.5 7.2222,13.03405 3.61713,24.24553 -11.37245,35.36743 -10.31458,7.65315 -19.9926,9.84215 -30.6532,6.93323 -8.40598,-2.29372 -21.58785,-18.2065 -32.70267,-39.47778 -1.59867,-3.05948 -3.18496,-5.56377 -3.52509,-5.56507 -0.34013,-10e-4 -2.59609,1.91012 -5.01325,4.24762 -2.41715,2.3375 -6.86386,6.55419 -9.88158,9.37043 -6.1531,5.74229 -11.82654,11.95004 -15.80606,17.29462 -1.46812,1.97172 -2.92063,3.80995 -3.22779,4.08495 -0.30716,0.275 -1.63597,2.3 -2.9529,4.5 -1.31693,2.2 -2.66693,4.225 -3,4.5 -0.33307,0.275 -1.68307,2.3 -3,4.5 -1.31693,2.2 -2.66328,4.225 -2.99187,4.5 -0.32859,0.275 -1.52819,2.075 -2.66577,4 -1.13758,1.925 -5.73468,9.54179 -10.21579,16.92619 -10.58819,17.44829 -19.21482,34.56419 -22.46575,44.57381 -4.44672,13.69148 -4.89105,19.33823 -3.12026,39.6535 1.45119,16.6487 1.44816,18.8058 -0.0369,26.2431 -3.54625,17.7605 -10.66137,39.3631 -18.4187,55.9219 -5.65191,12.0646 -17.39489,32.6461 -21.7879,38.1869 -0.43841,0.5529 -4.54639,6.5525 -9.12885,13.3323 -7.84516,11.6071 -19.01423,27.7178 -22.91753,33.0571 -0.9629,1.3172 -2.42573,3.4204 -3.25073,4.6738 -0.825,1.2535 -6.225,8.8726 -12,16.9314 -5.775,8.0588 -11.19008,15.7038 -12.0335,16.9888 -0.84343,1.2851 -2.49166,3.6133 -3.66274,5.1739 -6.45087,8.5961 -9.01512,12.1364 -10.74697,14.8373 -1.05798,1.65 -2.40357,3.5073 -2.99019,4.1272 -0.58663,0.62 -4.2166,5.5308 -8.0666,10.913 -3.85,5.3821 -10.34587,14.3249 -14.43526,19.8728 -4.0894,5.5478 -9.37394,12.787 -11.74344,16.087 -2.3695,3.3 -4.89528,6.675 -5.61285,7.5 -0.71757,0.825 -2.14479,2.85 -3.17161,4.5 -1.02682,1.65 -2.6795,3.9 -3.67263,5 -0.99313,1.1 -5.44126,6.95 -9.88474,13 -4.44348,6.05 -8.62675,11.675 -9.29615,12.5 -0.6694,0.825 -2.55693,3.3 -4.19452,5.5 -1.63758,2.2 -3.24403,4.225 -3.56989,4.5 -1.90622,1.6087 -12.52712,18.3429 -17.23624,27.1573 -9.06649,16.9703 -15.32597,33.5212 -21.87596,57.8427 -2.7431,10.1857 -3.15073,13.4792 -3.56679,28.818 -0.67946,25.05 2.25853,45.4088 9.40018,65.1384 3.24489,8.9644 10.99851,24.4562 13.63943,27.2517 0.67126,0.7105 2.40947,2.8669 3.86269,4.7919 4.72184,6.2548 11.1657,12.628 21.19745,20.9652 19.75268,16.416 35.63879,25.5728 53.16033,30.6418 9.06559,2.6227 11.40162,2.8916 25,2.8777 13.94546,-0.014 15.75864,-0.2407 25.79107,-3.2208 20.15692,-5.9877 33.5395,-14.2764 43.01831,-26.644 4.8487,-6.3264 5.96395,-8.2171 13.71182,-23.2461 3.15473,-6.1194 6.61328,-12.4194 7.68566,-14 1.07239,-1.5806 3.71455,-5.5659 5.87147,-8.8562 9.41826,-14.3674 19.52916,-22.5445 27.81004,-22.4911 2.2614,0.015 7.03663,1.0416 10.61163,2.2823 5.60076,1.9438 6.9401,2.9099 9.68117,6.9835 4.13613,6.1468 5.84183,14.0517 4.28201,19.8444 -1.00443,3.7302 -7.8204,22.7154 -11.25991,31.3633 -5.86522,14.7469 -23.65383,43.3657 -32.67125,52.5625 -0.84261,0.8593 -2.65702,3.2188 -4.03202,5.2431 -1.375,2.0244 -2.80686,3.6838 -3.18191,3.6876 -0.37504,0 -1.65833,1.3781 -2.85174,3.0541 -1.93029,2.7108 -2.03151,3.4008 -0.91689,6.25 6.35423,16.2423 12.56296,24.1377 20.61348,26.2133 4.40721,1.1363 6.13476,1.1095 11.80219,-0.1832 5.4465,-1.2424 7.93236,-2.5524 13.83706,-7.2922 13.02761,-10.4573 15.55631,-13.947 33.62396,-46.4025 14.58328,-26.1965 23.89292,-41.509 42.1418,-69.3147 4.3299,-6.5975 14.45169,-20.9805 15.50796,-22.0368 0.6755,-0.6755 2.20897,-2.8151 3.4077,-4.7547 1.19873,-1.9396 2.49578,-3.5265 2.88234,-3.5265 0.38656,0 1.4465,-1.2375 2.35542,-2.75 0.90892,-1.5125 2.91844,-4.1684 4.46561,-5.9021 1.54716,-1.7337 5.04002,-5.7837 7.76191,-9 6.54444,-7.7333 36.55418,-37.3479 37.84623,-37.3479 0.5564,0 3.39328,-2.1375 6.30419,-4.75 5.5888,-5.0159 10.46432,-8.9685 21.90069,-17.755 3.85,-2.9579 8.575,-6.6856 10.5,-8.2836 1.925,-1.5981 4.85,-3.7414 6.5,-4.763 1.65,-1.0217 5.08745,-3.5655 7.63878,-5.653 2.55133,-2.0875 4.94801,-3.7954 5.32596,-3.7954 0.37794,0 3.31881,-2.025 6.53526,-4.5 3.21645,-2.475 6.15704,-4.5 6.53464,-4.5 0.37761,0 3.4569,-1.9366 6.84287,-4.3036 3.38597,-2.3669 6.94515,-4.6062 7.90929,-4.9762 0.96415,-0.37 4.41935,-2.4834 7.67823,-4.6965 3.25888,-2.213 6.29343,-4.0237 6.74345,-4.0237 0.45002,0 3.11506,-1.5468 5.9223,-3.4373 14.22272,-9.5781 44.13729,-23.9179 68.86922,-33.0131 4.95,-1.8203 12.49921,-4.7137 16.77603,-6.4296 4.27681,-1.716 8.26591,-3.12 8.86471,-3.12 0.5987,0 5.1438,-1.8 10.1002,-4 4.9564,-2.2 9.5173,-4.0022 10.1353,-4.0048 0.6181,0 5.6094,-2.0277 11.0919,-4.5 5.4825,-2.4724 10.4652,-4.4952 11.0726,-4.4952 0.6074,0 5.1218,-1.9514 10.0318,-4.3363 4.9101,-2.385 10.2169,-4.6566 11.7929,-5.0481 1.576,-0.3914 5.9334,-2.4502 9.6832,-4.575 3.7498,-2.1249 7.7025,-4.1442 8.7839,-4.4875 2.5434,-0.8072 17.4991,-9.6079 22.6675,-13.3387 2.2,-1.5881 5.125,-3.4831 6.5,-4.2111 2.6265,-1.3906 9.5667,-6.6762 19.3153,-14.7106 6.3412,-5.2261 25.39151,-23.7352 30.16771,-29.3106 8.3434,-9.7395 15.4691,-19.1152 20.8868,-27.4821 2.1369,-3.3 4.8278,-7.35 5.98,-9 3.7086,-5.3111 18.1892,-34.7591 20.9253,-42.5542 3.5622,-10.1482 6.3084,-22.3433 7.7569,-34.4458 1.4539,-12.1477 1.5109,-42.0659 0.094,-49.1325 -1.2202,-6.084 -0.096,-11.3213 3.4358,-16.0027 1.7095,-2.2661 4.5235,-3.9292 10.1518,-6 6.9755,-2.5663 9.0369,-2.8633 19.7867,-2.8501 15.1864,0.019 21.5551,2.1719 28.7424,9.7176 8.3577,8.7744 9.958,17.9597 7.7129,44.2677 -3.0775,36.0602 -12.1535,69.9823 -27.1567,101.5 -3.9139,8.2219 -15.3949,29.4633 -17.0259,31.5 -0.4404,0.55 -3.1215,4.6 -5.9579,9 -2.8364,4.4 -5.4472,8.225 -5.8019,8.5 -0.3547,0.275 -2.1098,2.6527 -3.9001,5.2837 l -3.2553,4.7837 3.015,9.2163 c 11.7826,36.0179 14.3896,81.1433 7.0445,121.9343 -3.439,19.0989 -12.3302,48.9305 -19.457,65.282 -0.7191,1.65 -2.7417,6.375 -4.4946,10.5 -6.9006,16.2391 -24.4493,49.6102 -29.1855,55.5 -0.4423,0.55 -2.9362,3.9415 -5.542,7.5366 -19.5243,26.9367 -54.49681,61.9825 -90.27441,90.4634 -8.5191,6.7817 -19.4055,15.2135 -23.8857,18.5 -2.6241,1.925 -6.1828,4.625 -7.9081,6 -1.7253,1.375 -6.1016,4.75 -9.7251,7.5 -3.6235,2.75 -9.03,7.025 -12.0146,9.5 -2.9845,2.475 -7.8656,6.525 -10.8469,9 -2.9812,2.475 -5.457,4.8375 -5.5017,5.25 -0.045,0.4125 199.94361,0.75 444.41861,0.75 H 1761 Z M 312.54071,1484.6676 c -4.77358,-1.871 -6.59685,-3.2609 -9.16369,-6.9856 C 300.25396,1473.1501 298,1465.7724 298,1460.0818 c 0,-9.4175 5.69471,-31.5408 10.68362,-41.5047 3.37718,-6.7449 9.27516,-16.4942 11.79053,-19.4895 14.68931,-17.4924 28.27882,-28.8848 44.53731,-37.3367 9.99259,-5.1946 17.50889,-5.6004 25.99621,-1.4035 9.34078,4.6191 10.49888,5.4387 14.6642,10.3785 7.67077,9.0971 10.33035,16.8384 8.33313,24.2555 -1.41419,5.2519 -9.04591,13.652 -16.37248,18.0208 -7.8625,4.6884 -12.73904,8.4165 -17.22156,13.1656 -8.28798,8.7809 -14.21745,20.5539 -15.02494,29.8322 -0.90048,10.3468 -3.3821,16.8668 -8.33648,21.9026 -6.11549,6.216 -12.9007,8.3815 -27.54954,8.7922 -9.60913,0.2694 -11.75351,0.013 -16.95929,-2.0272 z m 239.29631,-388.075 C 535.75657,1091.166 528,1081.3887 528,1066.5454 c 0,-6.8749 1.1946,-10.396 8.15786,-24.0454 7.29553,-14.3007 15.42122,-26.9087 27.80736,-43.14632 6.07734,-7.9671 23.56301,-25.3117 34.66819,-34.38851 8.4757,-6.9276 13.04632,-10.21799 27.32495,-19.67124 6.92941,-4.58766 33.3576,-17.94619 42.54392,-21.50446 24.30483,-9.41436 26.75286,-10.12039 36.66137,-10.57337 8.76034,-0.40048 10.16246,-0.20661 15,2.07402 7.4569,3.51552 12.41128,8.57698 16.08955,16.43727 5.39087,11.52001 5.10309,21.89907 -0.82236,29.65939 -2.91054,3.81182 -5.37543,5.49098 -14.22569,9.69097 -5.88783,2.79413 -12.98207,5.945 -15.76497,7.00194 -2.7829,1.05693 -5.92692,2.55574 -6.98672,3.33068 -1.78656,1.30637 -1.80872,1.54303 -0.30418,3.24931 2.6368,2.99038 6.47954,11.43336 7.89228,17.34032 3.73379,15.6118 -2.03587,37.8329 -13.28812,51.1774 -3.73656,4.4313 -13.38915,11.0905 -20.25344,13.9726 -2.0689,0.8686 -9.05218,1.2561 -22.5,1.2484 -21.41506,-0.012 -25.79605,-0.88 -37.34204,-7.3962 -2.8454,-1.6058 -5.70785,-2.5894 -6.361,-2.1857 -1.25101,0.7731 -12.29696,19.7743 -12.29696,21.1531 0,0.4414 -1.87307,3.6074 -4.16238,7.0357 -3.4799,5.2112 -5.16051,6.7054 -10.25,9.1132 -7.82422,3.7015 -17.68749,3.87 -27.7506,0.4741 z M 1388.8898,752.06098 c -2.079,-18.58276 -7.2747,-38.30731 -15.5574,-59.06098 -4.69,-11.7516 -13.1062,-29.27424 -16.2893,-33.91444 -0.9755,-1.42206 -3.5033,-5.28556 -5.6173,-8.58556 -5.0298,-7.85159 -14.9364,-20.85388 -19.9133,-26.13592 C 1322.8193,615.13781 1305.4691,598 1304.8218,598 c -0.4403,0 -3.2387,-2.1375 -6.2185,-4.75 -2.9798,-2.6125 -8.153,-6.775 -11.4959,-9.25 -3.3429,-2.475 -8.7671,-6.525 -12.0538,-9 -3.2867,-2.475 -8.6867,-6.525 -12,-9 -3.3133,-2.475 -8.7218,-6.525 -12.0189,-9 -3.297,-2.475 -8.7126,-6.525 -12.0347,-9 -3.3221,-2.475 -8.7221,-6.525 -12,-9 -3.2779,-2.475 -8.6944,-6.525 -12.0366,-9 -3.3423,-2.475 -8.7316,-6.6375 -11.9763,-9.25 -3.2447,-2.6125 -6.2082,-4.75 -6.5855,-4.75 -0.3773,0 -3.0563,-2.025 -5.9533,-4.5 -2.897,-2.475 -5.5737,-4.5 -5.9483,-4.5 -0.3746,0 -3.0513,-2.025 -5.9483,-4.5 -2.897,-2.475 -5.597,-4.5 -6,-4.5 -0.403,0 -3.0545,-1.9125 -5.8922,-4.25 -2.8377,-2.3375 -5.8777,-4.7 -6.7554,-5.25 -1.6257,-1.01863 -9.4169,-7.02803 -17.7692,-13.70542 -10.3806,-8.29896 -15.4711,-12.52734 -20.5195,-17.04458 -2.9198,-2.6125 -5.6217,-4.75 -6.0042,-4.75 -1.2746,0 -59.8835,-53.48861 -75.4483,-68.8567 C 1031.7275,375.81449 1024.4352,369 1023.9576,369 c -0.4775,0 -3.4758,2.55029 -6.6629,5.6673 -24.63841,24.09669 -59.15251,56.1715 -68.29471,63.46799 -2.475,1.97533 -7.5388,6.24048 -11.2529,9.47811 -3.7141,3.23763 -9.2274,7.9116 -12.2518,10.3866 -3.0244,2.475 -7.9473,6.525 -10.9398,9 -2.9926,2.475 -7.6043,6.16863 -10.2482,8.20808 -2.644,2.03944 -7.6001,5.97694 -11.0135,8.75 -3.4134,2.77305 -6.5149,5.04192 -6.8922,5.04192 -0.3773,0 -3.0562,2.025 -5.9533,4.5 -2.897,2.475 -5.5527,4.5 -5.9016,4.5 -0.3489,0 -3.3044,2.1375 -6.5678,4.75 -3.2634,2.6125 -8.6612,6.775 -11.9951,9.25 -3.3339,2.475 -8.73505,6.525 -12.00263,9 -3.26758,2.475 -8.67869,6.525 -12.0247,9 -3.346,2.475 -7.51752,5.67785 -9.27005,7.11745 -1.75253,1.4396 -5.02054,3.9146 -7.26225,5.5 -2.24172,1.5854 -7.58382,5.58255 -11.87134,8.88255 -4.28752,3.3 -9.92598,7.575 -12.5299,9.5 -2.60393,1.925 -8.22532,6.2 -12.49198,9.5 -4.26667,3.3 -9.66011,7.35 -11.98543,9 -2.32532,1.65 -5.76182,4.26098 -7.63668,5.80218 -1.87486,1.54119 -7.47171,6.08399 -12.43746,10.09509 -11.04098,8.91841 -27.81174,25.12778 -27.32643,26.41171 0.38983,1.03136 13.4288,11.19102 14.36261,11.19102 0.31903,0 3.37285,2.23577 6.78626,4.96839 3.4134,2.73261 8.35145,6.67011 10.97342,8.75 19.58428,15.53525 43.96983,37.03285 63.04572,55.57928 3.84544,3.73871 7.31879,6.43871 7.71855,6 0.39975,-0.43872 2.31278,-5.07267 4.25116,-10.29767 9.95176,-26.82539 22.31235,-49.88488 38.59413,-72 5.5733,-7.57004 7.5368,-9.9858 16.6232,-20.45246 8.439,-9.72088 14.5393,-15.82763 26.1153,-26.14285 C 921.60719,566.93672 928.68159,561 929.54679,561 c 0.3716,0 2.7631,-1.71524 5.3144,-3.81165 2.5514,-2.09641 7.4962,-5.69214 10.9886,-7.99051 l 6.3497,-4.17886 4.6503,3.16675 c 2.5576,1.74171 6.4502,4.45612 8.6502,6.03203 2.2,1.5759 6.25,4.43521 9,6.35402 5.044,3.51945 8.0129,5.85368 21.7473,17.09852 l 7.53641,6.1703 4.3581,-1.5324 c 2.397,-0.84282 8.1832,-1.76239 12.8582,-2.0435 16.5793,-0.9969 29.3826,4.7041 34.6485,15.4281 2.8282,5.75978 2.8556,5.99592 3.3515,28.91585 0.4336,20.04187 0.735,23.42602 2.2708,25.5 0.974,1.31524 3.6251,5.31635 5.8913,8.89135 2.2663,3.575 5.1515,8.075 6.4116,10 1.26,1.925 2.8245,4.69536 3.4765,6.15635 1.1021,2.46947 1.7576,2.70167 9.3176,3.30051 14.54,1.15173 36.8225,3.54679 51.1322,5.49598 7.7,1.04885 16.925,2.19577 20.5,2.54871 3.575,0.35293 14.1413,2.21264 23.4808,4.13269 9.3394,1.92004 20.446,4.09594 24.6813,4.83533 22.9347,4.00387 81.6136,21.39611 106.8379,31.66641 5.225,2.12741 9.9197,3.86712 10.4327,3.86602 1.7327,-0.004 37.9297,16.12896 55.0287,24.52578 6.0287,2.96055 11.0538,5.29031 11.1669,5.17725 0.1131,-0.11307 -0.2193,-4.00288 -0.7385,-8.64405 z M 1042.5,289.53382 c 11.275,-1.61182 17.292,-3.48417 22.7286,-7.07271 2.0507,-1.35361 4.1168,-2.46111 4.5915,-2.46111 1.5902,0 12.881,-12.49364 14.9297,-16.52018 4.0333,-7.92733 6.3779,-17.7076 6.9471,-28.97982 1.3086,-25.91692 -5.7174,-43.2777 -22.3052,-55.11453 -20.9492,-14.94903 -69.89491,-14.90573 -90.89611,0.0804 -3.4337,2.45026 -8.1535,6.7367 -10.4883,9.52543 -14.094,16.83375 -16.1478,52.49847 -4.3382,75.33565 1.7765,3.43535 13.1067,15.67304 14.5109,15.67304 0.4746,0 2.5407,1.1075 4.5915,2.46111 11.1165,7.33771 36.69071,10.36606 59.72851,7.07271 z"
       id="path1" />
  </g>
</svg>
