<?xml version="1.0" encoding="UTF-8" standalone="no"?>
<!-- Created with Inkscape (http://www.inkscape.org/) -->

<svg
   version="1.1"
   id="svg1"
   width="2048"
   height="1844"
   viewBox="0 0 2048 1844"
   xmlns="http://www.w3.org/2000/svg"
   xmlns:svg="http://www.w3.org/2000/svg">
  <defs
     id="defs1" />
  <g
     id="g1">
    <path
       style="fill:#000000"
       d="m 736,1658.3922 c 0,-2.3087 34.42935,-37.0498 57,-57.5161 8.525,-7.7302 15.63919,-14.3884 15.80931,-14.7961 0.17011,-0.4077 7.90593,-7.5561 17.19069,-15.8854 9.28476,-8.3293 17.02058,-15.481 17.19069,-15.8926 0.17012,-0.4117 5.70931,-5.599 12.30931,-11.5274 6.6,-5.9283 13.5256,-12.3713 15.39023,-14.3177 1.86462,-1.9464 8.38962,-8.0129 14.5,-13.481 6.11037,-5.4682 12.45977,-11.4022 14.10977,-13.1868 1.65,-1.7846 8.175,-7.9176 14.5,-13.6289 19.0536,-17.2048 33.37275,-32.0825 42.79611,-44.4656 2.9298,-3.85 5.86966,-7.675 6.53301,-8.5 11.56758,-14.3864 28.75344,-47.0957 38.35508,-73 14.1318,-38.1263 19.301,-66.0875 18.473,-99.9243 l -0.1572,-6.4243 -2.25,2.0493 c -1.2375,1.1272 -3.375,2.6291 -4.75,3.3376 -1.375,0.7086 -4.7909,3.0148 -7.5909,5.125 -2.7999,2.1102 -5.45337,3.8367 -5.89646,3.8367 -0.4431,0 -3.10221,1.5198 -5.90913,3.3774 -4.43989,2.9382 -12.76046,7.5982 -23.10351,12.9393 -6.53699,3.3756 -21.27113,9.9904 -26,11.6725 -2.75,0.9782 -9.95,3.4869 -16,5.5749 -6.05,2.088 -15.5,5.4981 -21,7.578 -5.5,2.0798 -11.35,4.094 -13,4.4759 -1.65,0.3819 -6.18853,2.1398 -10.08563,3.9064 -3.89709,1.7666 -8.84709,3.7798 -11,4.4737 -10.22382,3.2954 -50.87527,22.2945 -74.41437,34.7787 -23.33128,12.374 -54.3243,31.8254 -68.47157,42.9732 -2.96645,2.3375 -5.65357,4.25 -5.97139,4.25 -1.00491,0 -13.30186,10.0748 -27.42168,22.4665 -14.71199,12.9113 -32.99252,30.6982 -40.63064,39.5335 -2.61511,3.025 -5.92834,6.85 -7.36272,8.5 -5.68161,6.5357 -12.8194,15.7583 -21.28332,27.5 -2.50765,3.4788 -23.09153,36.7659 -26.28083,42.5 -0.91773,1.65 -3.43539,5.925 -5.59478,9.5 -2.1594,3.575 -5.81917,9.875 -8.13284,14 -2.31366,4.125 -4.51368,7.725 -4.88891,8 -0.37524,0.275 -1.37413,1.85 -2.21975,3.5 -0.84563,1.65 -3.40038,5.7 -5.67723,9 -2.27686,3.3 -4.90521,7.125 -5.84079,8.5 -6.22912,9.1548 -18.2009,21.7451 -23.22355,24.4235 -1.375,0.7332 -4.975,2.6892 -8,4.3468 -12.37662,6.7817 -43.33188,11.1001 -59.55292,8.3078 -11.22928,-1.933 -22.87006,-5.8804 -30.99157,-10.5093 -8.03501,-4.5795 -24.2308,-18.8519 -27.62622,-24.3453 -1.11386,-1.8021 -2.56046,-3.8271 -3.21467,-4.5 -0.65421,-0.6729 -2.23885,-2.9385 -3.52142,-5.0347 -1.66495,-2.7211 -2.79834,-3.6305 -3.96257,-3.1795 -3.36088,1.3019 -21.29917,5.3806 -28.8228,6.5535 -4.29431,0.6695 -17.03283,1.2667 -28.30783,1.3272 l -20.5,0.11 -8,-3.3826 c -4.4,-1.8605 -11.15,-4.6173 -15,-6.1262 -17.30442,-6.782 -36.77143,-17.2622 -47.98235,-25.8317 -6.69889,-5.1205 -30.80793,-28.9988 -37.01765,-36.6633 -6.65078,-8.209 -16.56284,-21.8074 -18.22,-24.9962 -0.85749,-1.65 -1.89024,-3.225 -2.29501,-3.5 -1.99093,-1.3526 -11.47632,-22.4578 -15.37906,-34.2187 -9.93496,-29.9389 -15.53628,-68.6189 -14.30471,-98.7813 1.51615,-37.132 16.75232,-75.2801 50.52351,-126.5 3.62636,-5.5 6.95477,-10.45 7.39646,-11 0.4417,-0.55 3.06579,-4.15 5.83132,-8 2.76552,-3.85 5.57897,-7.675 6.25211,-8.5 0.67313,-0.825 2.32522,-3.075 3.6713,-5 3.62514,-5.1842 16.18659,-21.3453 17.48841,-22.5 0.6201,-0.55 1.79267,-1.9675 2.60572,-3.1501 0.81304,-1.1825 3.26739,-4.2861 5.4541,-6.8969 2.18672,-2.6107 5.55085,-6.6253 7.47585,-8.9213 1.925,-2.296 5.3,-6.346 7.5,-9 2.2,-2.654 5.575,-6.6994 7.5,-8.9897 1.925,-2.2903 5.075,-6.1284 7,-8.5293 1.925,-2.4008 4.85,-6.0329 6.5,-8.0713 1.65,-2.0384 4.8,-6.074 7,-8.968 2.2,-2.894 5.15369,-6.6595 6.56375,-8.3676 1.41006,-1.7082 3.63838,-4.6808 4.95182,-6.6058 1.31344,-1.925 2.66445,-3.725 3.00225,-4 0.86028,-0.7003 11.71566,-16.0279 16.64327,-23.5 1.45084,-2.2 2.93187,-4.225 3.29119,-4.5 0.35931,-0.275 1.74025,-2.3 3.06876,-4.5 1.3285,-2.2 2.79082,-4.45 3.24958,-5 0.45877,-0.55 2.67415,-3.925 4.92307,-7.5 2.24893,-3.575 5.09664,-8.075 6.32826,-10 9.31907,-14.5656 24.1351,-43.8938 29.30044,-58.00004 7.94283,-21.69133 9.75298,-30.6483 10.60995,-52.5 1.02171,-26.05234 5.33792,-57.32309 9.86893,-71.5 3.57473,-11.18482 9.99274,-24.13686 17.50394,-35.32427 3.68213,-5.48429 7.77534,-11.5924 9.096,-13.57358 1.32067,-1.98118 2.70878,-3.82715 3.0847,-4.10215 0.37592,-0.275 3.10188,-4.1 6.05769,-8.5 4.822,-7.17797 10.79048,-14.96395 14.9564,-19.51086 0.825,-0.90044 3.75,-4.2991 6.5,-7.55257 7.4195,-8.77786 20.94537,-22.90595 39.67029,-41.43657 l 16.67302,-16.5 -4.93104,-13 c -15.14321,-39.92297 -26.70166,-83.77761 -32.81357,-124.5 -5.36677,-35.75762 -7.73631,-77.88455 -6.23423,-110.83519 0.53492,-11.73436 1.12174,-21.45406 1.30405,-21.59935 0.87705,-0.69892 36.85422,11.40387 48.33148,16.25881 2.75,1.16327 7.925,3.21314 11.5,4.55527 10.41052,3.90835 25.04251,10.10985 31.51542,13.35724 3.29152,1.65132 7.10958,3.34531 8.48458,3.76442 5.86905,1.78896 55.98456,27.36215 65.71797,33.5349 2.57047,1.63014 5.14799,2.98583 5.72781,3.01264 0.57982,0.0268 3.52598,1.77047 6.54701,3.87482 l 5.49279,3.82609 9.73538,-8.62482 C 694.18632,508.83304 704.46031,500.69674 715,493.56871 c 6.65221,-4.49892 16.45932,-11.32478 25.5,-17.74828 4.4,-3.12625 9.29175,-6.45849 10.87056,-7.40498 1.57881,-0.94649 5.26096,-3.63339 8.18256,-5.97089 2.92159,-2.3375 5.58365,-4.25 5.91569,-4.25 0.61901,0 9.98407,-6.80755 19.22285,-13.97328 2.85541,-2.2147 5.50907,-4.02672 5.89701,-4.02672 0.38794,0 2.68954,-1.6259 5.11467,-3.61311 2.42513,-1.98721 6.39393,-5.02471 8.81955,-6.75 8.61979,-6.13106 23.60058,-17.34321 34.92204,-26.13689 4.2486,-3.3 8.93477,-6.9 10.41371,-8 1.47894,-1.1 8.52827,-6.82693 15.66517,-12.72651 7.13691,-5.89958 14.22682,-11.74958 15.75538,-13 15.21349,-12.44527 41.74113,-37.08693 66.18236,-61.47715 l 14.23337,-14.20367 -7.82449,-4.54633 c -4.30346,-2.50049 -8.13143,-4.54634 -8.50659,-4.54634 -0.37516,0 -2.97299,-1.70079 -5.77297,-3.77954 -2.79998,-2.07875 -6.21587,-4.50991 -7.59087,-5.40259 -5.5523,-3.60465 -20.01077,-18.82835 -25.44097,-26.78747 -9.08369,-13.31408 -14.47021,-27.48538 -17.11449,-45.02624 -6.46645,-42.8952 8.37062,-80.85388 43.00304,-110.017587 4.56318,-3.842616 8.57818,-6.986575 8.92224,-6.986575 0.34405,0 2.76409,-1.522257 5.37787,-3.382793 4.89575,-3.484894 28.09958,-14.617207 30.46763,-14.617207 0.7318,0 5.59523,-1.079381 10.80761,-2.398624 17.49967,-4.429125 35.83997,-5.66306 53.00327,-3.566056 13.1816,1.610523 32.6492,6.7829 41.6642,11.069857 4.5047,2.142153 8.4658,3.894823 8.8025,3.894823 3.1753,0 31.0021,21.626087 37.8433,29.410622 1.0099,1.14916 2.9032,3.30138 4.2072,4.78272 12.5595,14.26672 22.025,34.98681 25.0006,54.7265 4.7064,31.22077 -2.8356,63.34742 -20.2457,86.24013 -5.5108,7.24624 -17.2796,18.9924 -22.7983,22.75445 -2.2,1.49971 -6.025,4.10367 -8.5,5.78656 -2.475,1.68289 -8.2072,5.17829 -12.7382,7.76756 l -8.2383,4.70776 22.9589,22.82769 c 22.9053,22.77426 44.7246,42.90411 63.9477,58.99601 15.945,13.34784 19.3569,16.12759 27.0025,22 3.9384,3.025 9.7931,7.6375 13.0105,10.25 3.2174,2.6125 6.1621,4.75 6.5438,4.75 0.3818,0 3.0644,2.025 5.9614,4.5 2.897,2.475 5.5627,4.5 5.9236,4.5 0.361,0 3.0961,1.9125 6.0781,4.25 2.982,2.3375 8.0381,6.16705 11.2359,8.5101 3.1977,2.34306 8.8353,6.50556 12.5278,9.25 3.6926,2.74445 6.9714,4.9899 7.2863,4.9899 0.3149,0 3.4314,2.1375 6.9256,4.75 3.4942,2.6125 9.3347,6.775 12.9787,9.25 3.6441,2.475 8.5879,5.94037 10.9863,7.70081 2.3983,1.76045 5.7141,4.01045 7.3685,5 6.1631,3.68651 28.9789,19.51181 37.8651,26.26368 19.868,15.09596 45.6056,39.90062 54.2758,52.30841 0.8559,1.2249 2.113,2.9021 2.7934,3.7271 7.0641,8.56467 15.9909,22.97884 22.7685,36.7644 3.046,6.19542 5.5381,11.50761 5.5381,11.80487 0,0.29725 0.8441,2.42827 1.8758,4.73559 6.557,14.66474 17.8499,50.77437 21.1709,67.69514 3.1153,15.87267 5.044,31.01606 5.6139,44.07675 0.5492,12.58402 0.88,14.70296 2.42,15.5 2.4379,1.26174 13.4401,8.62998 18.8709,12.63797 2.4483,1.8069 5.5983,3.91209 7,4.67819 1.4017,0.7661 4.636,3.1286 7.1873,5.25 2.5513,2.1214 4.9778,3.85709 5.3922,3.85709 0.4143,0 3.1237,2.025 6.0207,4.5 2.897,2.475 5.5737,4.5 5.9483,4.5 0.3746,0 3.0028,1.92997 5.8405,4.28882 2.8377,2.35885 6.5807,5.39635 8.3178,6.75 21.5352,16.78178 52.8008,45.76936 73.1786,67.84684 4.7647,5.16211 9.7881,10.6027 11.1631,12.09018 2.4541,2.65484 7.5832,8.60322 15.9728,18.52416 2.3255,2.75 5.1835,6.125 6.3511,7.5 3.0105,3.54534 9.8563,12.02673 12.1958,15.10963 2.6709,3.51971 14.1623,18.77699 16.4872,21.89037 1.6043,2.14833 7.784,10.6338 13.7605,18.89482 0.9529,1.31715 2.4076,3.41704 3.2326,4.66643 0.825,1.24938 5.9554,8.94671 11.4009,17.10517 13.5169,20.25098 21.4312,32.79572 31.1239,49.33362 2.0952,3.575 4.7888,8.075 5.9858,10 8.0528,12.9513 40.4894,74.9129 40.4894,77.3445 0,0.2356 2.0577,4.867 4.5726,10.292 5.838,12.5933 6.391,13.8503 11.3769,25.8635 2.2827,5.5 4.5577,10.9 5.0556,12 1.9318,4.2681 4.4297,10.7555 11.9362,31 31.8703,85.9522 53.2333,181.308 63.5139,283.5 4.0994,40.7487 11.4977,160.4931 11.5382,186.75 l 0.01,4.25 h -569.5 c -313.225,0 -569.5,-0.3611 -569.5,-0.8024 z m 1024.9935,-105.4476 c -0.01,-59.4791 -0.7824,-84.5477 -3.5361,-114.25 -6.938,-74.8341 -21.5538,-140.8698 -50.0212,-226 -8.004,-23.9358 -22.4117,-63.2254 -26.4026,-72 -0.5003,-1.1 -4.0359,-9.425 -7.8568,-18.5 -12.5012,-29.691 -24.6261,-54.3146 -42.3473,-86 -14.2387,-25.4587 -16.3662,-29.1469 -17.6478,-30.5939 -0.5329,-0.6017 -1.7297,-2.5653 -2.6597,-4.3636 -0.93,-1.79836 -3.6907,-6.19088 -6.1351,-9.76117 -2.4443,-3.57029 -5.0958,-7.75154 -5.8922,-9.29166 -0.7965,-1.54013 -2.0379,-3.40536 -2.7588,-4.14497 -0.7209,-0.73961 -2.4021,-3.14474 -3.7359,-5.34474 -1.3338,-2.2 -3.0074,-4.59759 -3.7191,-5.32798 -0.7117,-0.73038 -1.7871,-2.24926 -2.3897,-3.37527 -1.0177,-1.90159 -6.1789,-9.03196 -9.4273,-13.02412 -0.7731,-0.95005 -2.6035,-3.53755 -4.0676,-5.75 -1.4641,-2.21245 -2.9398,-4.02343 -3.2792,-4.02442 -0.3394,-9.8e-4 -1.8959,-2.02598 -3.4589,-4.5 -1.563,-2.47401 -3.1535,-4.49821 -3.5344,-4.49821 -0.3809,0 -1.5268,-1.41216 -2.5463,-3.13813 -1.0196,-1.72598 -2.5852,-3.86956 -3.4791,-4.76351 -0.894,-0.89396 -2.7236,-3.1943 -4.0659,-5.11187 -1.3423,-1.91757 -3.4378,-4.61149 -4.6566,-5.98649 -1.2189,-1.375 -4.0946,-4.75 -6.3906,-7.5 -13.0183,-15.59302 -38.5833,-41.7804 -53.0956,-54.38835 -12.3396,-10.72024 -17.9427,-15.45588 -21.4293,-18.11165 -1.8052,-1.375 -6.751,-5.2 -10.9906,-8.5 -4.2397,-3.3 -9.9069,-7.575 -12.5938,-9.5 -12.6808,-9.08484 -22.1747,-15.63416 -24.6543,-17.00749 -1.4969,-0.82912 -5.3825,-3.41662 -8.6345,-5.75 -3.252,-2.33338 -6.3596,-4.24251 -6.9056,-4.24251 -0.5461,0 -2.5511,-1.18855 -4.4556,-2.64122 -1.9046,-1.45268 -6.6721,-4.44299 -10.5944,-6.64515 C 1358.9058,762.7805 1353.5254,759.896 1335,750.69197 c -17.5435,-8.71617 -35.5934,-17.06585 -39,-18.04088 -1.375,-0.39355 -4.75,-1.84711 -7.5,-3.23014 -2.75,-1.38302 -7.925,-3.53244 -11.5,-4.77648 -3.575,-1.24404 -9.875,-3.6207 -14,-5.28147 -15.5547,-6.26249 -51.5448,-18.0739 -68.5,-22.48069 -35.3743,-9.19406 -63.2917,-15.41304 -75.3311,-16.78106 -4.7316,-0.53764 -9.6795,-1.24772 -10.9952,-1.57795 -2.1931,-0.55041 -2.3438,-0.36008 -1.8106,2.28542 6.1662,30.59128 9.5507,75.98104 6.7332,90.30174 -3.3249,16.90044 -15.1535,26.0841 -33.5963,26.0841 -14.4447,0 -25.746,-5.41599 -30.2567,-14.5 -1.7579,-3.54022 -2.0506,-6.75868 -2.5465,-28 -0.6103,-26.14341 -2.0053,-37.88108 -6.8334,-57.5 -2.8965,-11.76959 -8.9486,-30.19313 -12.4829,-38 -14.3098,-31.60828 -31.59947,-56.24287 -58.42869,-83.25 -8.49114,-8.54744 -14.41759,-13.75 -15.66321,-13.75 -3.4488,0 -26.64607,25.37437 -37.02512,40.5 -1.50962,2.2 -2.99773,4.225 -3.30691,4.5 -0.30918,0.275 -1.63964,2.3 -2.95657,4.5 -1.31693,2.2 -2.67033,4.225 -3.00754,4.5 -1.25079,1.02003 -11.21855,19.73714 -15.16118,28.46912 -11.29668,25.01949 -18.31985,51.98684 -20.32176,78.03088 -1.33707,17.39473 -5.13069,25.6796 -13.86909,30.28868 -4.86165,2.56428 -5.87257,2.71033 -18.64043,2.69309 -12.08096,-0.0163 -14.12679,-0.27911 -19.463,-2.5 -9.82834,-4.09051 -15.98024,-14.25954 -16.02052,-26.48177 -0.009,-2.75 0.32959,-6.2375 0.75257,-7.75 1.04783,-3.74687 -0.61379,-3.63536 -12.89976,0.86567 -5.42811,1.98862 -11.89429,4.17647 -14.36929,4.86189 -2.475,0.68543 -7.425,2.50165 -11,4.03606 -3.575,1.53441 -9.2,3.79467 -12.5,5.02281 -7.94256,2.95593 -24.06068,10.17683 -34,15.23197 -4.4,2.23784 -10.66266,4.83421 -13.91701,5.76971 -14.53713,4.17886 -27.09354,-2.57507 -36.1701,-19.45544 -2.37354,-4.41425 -2.91289,-6.63618 -2.91289,-12 0,-5.81944 0.38239,-7.13341 3.29804,-11.33267 3.27502,-4.71685 10.70769,-10.21597 18.61717,-13.77408 9.02359,-4.0593 46.63153,-21.37984 54.83479,-25.25447 4.8125,-2.27308 8.75,-4.56216 8.75,-5.08684 0,-0.52469 -1.6875,-2.45082 -3.75,-4.28029 -6.78032,-6.01425 -24.16023,-20.78027 -29.00156,-24.6398 -2.61164,-2.08202 -6.94926,-5.60063 -9.63915,-7.81915 -2.68988,-2.21851 -6.06488,-4.77688 -7.5,-5.68528 -1.43511,-0.90839 -4.66325,-3.35228 -7.17365,-5.43086 -2.51039,-2.07858 -4.92294,-3.77923 -5.36122,-3.77923 -0.43827,0 -2.88431,-1.73419 -5.43564,-3.85375 -2.55133,-2.11956 -5.76378,-4.44305 -7.13878,-5.1633 -1.375,-0.72025 -4.79089,-3.03606 -7.59087,-5.14624 -2.79998,-2.11019 -5.39457,-3.83671 -5.76576,-3.83671 -0.37119,0 -3.45784,-2.025 -6.85921,-4.5 -3.40138,-2.475 -6.56898,-4.5 -7.03911,-4.5 -0.47013,0 -3.52114,-1.81069 -6.78002,-4.02375 -3.25888,-2.21306 -6.72169,-4.31382 -7.69513,-4.66836 -0.97345,-0.35453 -3.5699,-1.83961 -5.7699,-3.30018 -5.22307,-3.46757 -34.14076,-19.10188 -41.43925,-22.40407 -1.34158,-0.607 -5.39158,-2.62563 -9,-4.48585 C 567.3611,544.28092 557,540.24446 557,541.71794 c 0,6.296 5.28148,40.97138 9.13516,59.97662 7.44686,36.72573 21.36473,81.34301 35.09313,112.5 1.09054,2.475 2.67787,6.075 3.52741,8 4.87431,11.04487 16.39754,34.09132 22.1223,44.24457 3.6421,6.45952 7.80775,13.88452 9.25699,16.5 7.2222,13.03405 3.61713,24.24553 -11.37245,35.36743 -10.31458,7.65315 -19.9926,9.84215 -30.6532,6.93323 -8.40598,-2.29372 -21.58785,-18.2065 -32.70267,-39.47778 -1.59867,-3.05948 -3.18496,-5.56377 -3.52509,-5.56507 -0.34013,-0.001 -2.59609,1.91012 -5.01325,4.24762 -2.41715,2.3375 -6.86386,6.55419 -9.88158,9.37043 -6.1531,5.74229 -11.82654,11.95004 -15.80606,17.29462 -1.46812,1.97172 -2.92063,3.80995 -3.22779,4.08495 -0.30716,0.275 -1.63597,2.3 -2.9529,4.5 -1.31693,2.2 -2.66693,4.225 -3,4.5 -0.33307,0.275 -1.68307,2.3 -3,4.5 -1.31693,2.2 -2.66328,4.225 -2.99187,4.5 -0.32859,0.275 -1.52819,2.075 -2.66577,4 -1.13758,1.925 -5.73468,9.54179 -10.21579,16.92619 -10.58819,17.44829 -19.21482,34.56419 -22.46575,44.57381 -4.46682,13.75337 -4.91184,19.43245 -3.10043,39.5655 1.49522,16.6187 1.49303,18.57365 -0.0294,26.1967 -3.57475,17.89888 -10.66638,39.45004 -18.44594,56.05634 -5.65191,12.0646 -17.39489,32.6461 -21.7879,38.1869 -0.43841,0.5529 -4.54639,6.5525 -9.12885,13.3323 -7.84516,11.6071 -19.01423,27.7178 -22.91753,33.0571 -0.9629,1.3172 -2.42573,3.4204 -3.25073,4.6738 -0.825,1.2535 -6.225,8.8726 -12,16.9314 -5.775,8.0588 -11.19008,15.7038 -12.0335,16.9888 -0.84343,1.2851 -2.49166,3.6133 -3.66274,5.1739 -6.45087,8.5961 -9.01512,12.1364 -10.74697,14.8373 -1.05798,1.65 -2.40357,3.5073 -2.99019,4.1272 -0.58663,0.62 -4.2166,5.5308 -8.0666,10.913 -7.09955,9.9249 -17.32489,23.8725 -27.43351,37.4199 -3.06157,4.1031 -6.41548,8.8281 -7.45313,10.5 -1.03765,1.672 -2.71198,3.9399 -3.72074,5.0399 -1.00875,1.1 -5.46967,6.95 -9.91315,13 -4.44348,6.05 -8.62675,11.675 -9.29615,12.5 -0.6694,0.825 -2.55693,3.3 -4.19452,5.5 -1.63758,2.2 -3.24403,4.225 -3.56989,4.5 -1.90622,1.6087 -12.52712,18.3429 -17.23624,27.1573 -9.06649,16.9703 -15.32597,33.5212 -21.87596,57.8427 -2.7431,10.1857 -3.15073,13.4792 -3.56679,28.818 -0.67946,25.05 2.25853,45.4088 9.40018,65.1384 3.24489,8.9644 10.99851,24.4562 13.63943,27.2517 0.67126,0.7105 2.40947,2.8669 3.86269,4.7919 4.72184,6.2548 11.1657,12.628 21.19745,20.9652 19.75268,16.416 35.63879,25.5728 53.16033,30.6418 9.06559,2.6227 11.40162,2.8916 25,2.8777 13.94546,-0.014 15.75864,-0.2407 25.79107,-3.2208 20.15692,-5.9877 33.5395,-14.2764 43.01831,-26.644 4.8487,-6.3264 5.96395,-8.2171 13.71182,-23.2461 3.15473,-6.1194 6.61328,-12.4194 7.68566,-14 1.07239,-1.5806 3.71455,-5.5659 5.87147,-8.8562 9.41826,-14.3674 19.52916,-22.5445 27.81004,-22.4911 2.2614,0.015 7.03663,1.0416 10.61163,2.2823 5.60076,1.9438 6.9401,2.9099 9.68117,6.9835 4.13613,6.1468 5.84183,14.0517 4.28201,19.8444 -1.00443,3.7302 -7.8204,22.7154 -11.25991,31.3633 -5.86522,14.7469 -23.65383,43.3657 -32.67125,52.5625 -0.84261,0.8593 -2.65702,3.2188 -4.03202,5.2431 -1.375,2.0244 -2.80686,3.6838 -3.18191,3.6876 -0.37504,0 -1.65833,1.3781 -2.85174,3.0541 -1.93029,2.7108 -2.03151,3.4008 -0.91689,6.25 6.35423,16.2423 12.56296,24.1377 20.61348,26.2133 4.40721,1.1363 6.13476,1.1095 11.80219,-0.1832 5.4465,-1.2424 7.93236,-2.5524 13.83706,-7.2922 13.02761,-10.4573 15.55631,-13.947 33.62396,-46.4025 14.58328,-26.1965 23.89292,-41.509 42.1418,-69.3147 4.03486,-6.1479 14.32214,-20.8823 14.88381,-21.318 0.35453,-0.275 1.7052,-2.075 3.00148,-4 1.29629,-1.925 2.84961,-3.95 3.45182,-4.5 0.60222,-0.55 2.42262,-2.8 4.04535,-5 1.62272,-2.2 3.93789,-5.125 5.14482,-6.5 1.20693,-1.375 4.53973,-5.2 7.40622,-8.5 6.9484,-7.9992 35.09042,-35.5 36.32776,-35.5 0.53765,0 3.35919,-2.1375 6.2701,-4.75 5.5888,-5.0159 10.46432,-8.9685 21.90069,-17.755 3.85,-2.9579 8.575,-6.6856 10.5,-8.2836 1.925,-1.5981 4.85,-3.7414 6.5,-4.763 1.65,-1.0217 5.08745,-3.5655 7.63878,-5.653 2.55133,-2.0875 4.94801,-3.7954 5.32596,-3.7954 0.37794,0 3.31881,-2.025 6.53526,-4.5 3.21645,-2.475 6.15704,-4.5 6.53464,-4.5 0.37761,0 3.4569,-1.9366 6.84287,-4.3036 3.38597,-2.3669 6.94515,-4.6062 7.90929,-4.9762 0.96415,-0.37 4.41935,-2.4834 7.67823,-4.6965 3.25888,-2.213 6.29343,-4.0237 6.74345,-4.0237 0.45002,0 3.11506,-1.5468 5.9223,-3.4373 14.22272,-9.5781 44.13729,-23.9179 68.86922,-33.0131 4.95,-1.8203 12.49921,-4.7137 16.77603,-6.4296 4.27682,-1.716 8.26592,-3.12 8.86468,-3.12 0.59876,0 5.14387,-1.8 10.10025,-4 4.95637,-2.2 9.51727,-4.0022 10.13531,-4.0048 0.61805,0 5.6094,-2.0277 11.09188,-4.5 5.48249,-2.4724 10.46515,-4.4952 11.07258,-4.4952 0.60744,0 5.12177,-1.9514 10.03185,-4.3363 4.91008,-2.385 10.21686,-4.6566 11.79283,-5.0481 1.57598,-0.3914 5.93342,-2.4502 9.6832,-4.575 3.74978,-2.1249 7.70256,-4.1442 8.78395,-4.4875 2.54339,-0.8072 17.49905,-9.6079 22.66744,-13.3387 2.2,-1.5881 5.125,-3.4831 6.5,-4.2111 8.35686,-4.4245 38.64456,-31.3692 49.48296,-44.0212 8.3434,-9.7395 15.4691,-19.1152 20.8868,-27.4821 2.1369,-3.3 4.8278,-7.35 5.98,-9 3.7086,-5.3111 18.1892,-34.7591 20.9253,-42.5542 3.5622,-10.1482 6.3084,-22.3433 7.7569,-34.4458 1.4539,-12.1478 1.5109,-42.066 0.094,-49.1326 -1.2202,-6.08391 -0.096,-11.32123 3.4358,-16.0026 1.7095,-2.2661 4.5235,-3.92928 10.1518,-6 6.9755,-2.56637 9.0369,-2.8633 19.7867,-2.85009 15.1864,0.0187 21.5551,2.17185 28.7424,9.71757 8.3577,8.77434 9.958,17.95972 7.7129,44.26772 -3.0775,36.0602 -12.1535,69.9823 -27.1567,101.5 -3.9139,8.2219 -15.3949,29.4633 -17.0259,31.5 -0.4404,0.55 -3.1215,4.6 -5.9579,9 -2.8364,4.4 -5.4472,8.225 -5.8019,8.5 -0.3547,0.275 -2.1098,2.6527 -3.9001,5.2837 l -3.2553,4.7837 3.015,9.2163 c 11.7826,36.0179 14.3896,81.1433 7.0445,121.9343 -3.439,19.0989 -12.3302,48.9305 -19.457,65.282 -0.7191,1.65 -2.7406,6.375 -4.4921,10.5 -7.731,18.2077 -20.8021,42.7941 -30.0375,56.5 -18.8643,27.9957 -56.23883,66.1704 -94.96681,97 -8.51911,6.7817 -19.40555,15.2135 -23.88572,18.5 -2.62414,1.925 -6.18279,4.625 -7.90811,6 -1.72532,1.375 -6.10161,4.75 -9.72508,7.5 -3.62347,2.75 -9.03004,7.025 -12.0146,9.5 -2.98455,2.475 -7.86564,6.525 -10.84686,9 -2.98122,2.475 -5.45703,4.8375 -5.50179,5.25 -0.0448,0.4125 199.94357,0.75 444.41857,0.75 H 1761 Z M 312.54071,1421.8622 c -4.77358,-1.871 -6.59685,-3.2609 -9.16369,-6.9856 C 300.25396,1410.3447 298,1402.967 298,1397.2764 c 0,-9.4175 5.69471,-31.5408 10.68362,-41.5047 3.37718,-6.7449 9.27516,-16.4942 11.79053,-19.4895 14.68931,-17.4924 28.27882,-28.8848 44.53731,-37.3367 9.99259,-5.1946 17.50889,-5.6004 25.99621,-1.4035 9.34078,4.6191 10.49888,5.4387 14.6642,10.3785 7.67077,9.0971 10.33035,16.8384 8.33313,24.2555 -1.41419,5.2519 -9.04591,13.652 -16.37248,18.0208 -7.8625,4.6884 -12.73904,8.4165 -17.22156,13.1656 -8.28798,8.7809 -14.21745,20.5539 -15.02494,29.8322 -0.90048,10.3468 -3.3821,16.8668 -8.33648,21.9026 -6.11549,6.216 -12.9007,8.3815 -27.54954,8.7922 -9.60913,0.2694 -11.75351,0.013 -16.95929,-2.0272 z M 551.83702,1033.7871 C 535.75657,1028.3606 528,1018.5832 528,1003.7399 c 0,-6.86655 1.18149,-10.35397 8.14623,-24.04534 6.41946,-12.61947 21.72899,-36.7818 25.34445,-40 0.6179,-0.55 2.43847,-2.8 4.04573,-5 4.41957,-6.04947 22.80537,-24.12298 33.097,-32.53483 8.4757,-6.9276 13.04632,-10.21799 27.32495,-19.67124 6.92941,-4.58766 33.3576,-17.94619 42.54392,-21.50446 24.30483,-9.41436 26.75286,-10.12039 36.66137,-10.57337 8.76034,-0.40048 10.16246,-0.20661 15,2.07402 7.4569,3.51552 12.41128,8.57698 16.08955,16.43727 5.39087,11.52001 5.10309,21.89907 -0.82236,29.65939 -2.91054,3.81182 -5.37543,5.49098 -14.22569,9.69097 -5.88783,2.79413 -12.98207,5.945 -15.76497,7.00194 -2.7829,1.05693 -5.92692,2.55574 -6.98672,3.33068 -1.78553,1.30562 -1.80803,1.54402 -0.3067,3.24931 2.35441,2.67425 5.82554,9.88894 7.57658,15.74781 4.5,15.05666 -1.4111,39.06181 -13.00422,52.81057 -4.88416,5.79232 -17.29888,13.40918 -23.62345,14.49378 -7.12548,1.222 -34.94157,0.8608 -41.09567,-0.5336 -3.025,-0.6854 -8.91781,-2.988 -13.09514,-5.11694 -4.17733,-2.12891 -8.09021,-3.56478 -8.6953,-3.19082 C 605.01945,996.80058 594,1015.8431 594,1017.1642 c 0,0.4413 -1.87307,3.6074 -4.16238,7.0357 -3.4799,5.2112 -5.16051,6.7054 -10.25,9.1131 -7.82422,3.7015 -17.68749,3.87 -27.7506,0.4741 z M 1387,694.73329 c 0,-2.75712 -4.063,-19.04242 -7.12,-28.53873 -5.4589,-16.95707 -17.2607,-43.78427 -22.84,-51.91859 -0.9738,-1.41978 -3.5002,-5.28141 -5.6142,-8.58141 -5.0298,-7.85159 -14.9364,-20.85388 -19.9133,-26.13592 -8.6932,-9.22627 -26.0434,-26.36408 -26.6907,-26.36408 -0.4403,0 -3.2387,-2.1375 -6.2185,-4.75 -2.9798,-2.6125 -8.153,-6.775 -11.4959,-9.25 -3.3429,-2.475 -8.7671,-6.525 -12.0538,-9 -3.2867,-2.475 -8.6867,-6.525 -12,-9 -3.3133,-2.475 -8.7218,-6.525 -12.0189,-9 -3.297,-2.475 -8.7126,-6.525 -12.0347,-9 -3.3221,-2.475 -8.7221,-6.525 -12,-9 -3.2779,-2.475 -8.6944,-6.525 -12.0366,-9 -3.3423,-2.475 -8.7316,-6.6375 -11.9763,-9.25 -3.2447,-2.6125 -6.2082,-4.75 -6.5855,-4.75 -0.3773,0 -3.0563,-2.025 -5.9533,-4.5 -2.897,-2.475 -5.5737,-4.5 -5.9483,-4.5 -0.3746,0 -3.0513,-2.025 -5.9483,-4.5 -2.897,-2.475 -5.597,-4.5 -6,-4.5 -0.403,0 -3.0545,-1.9125 -5.8922,-4.25 -2.8377,-2.3375 -5.8777,-4.7 -6.7554,-5.25 -1.6257,-1.01863 -9.4169,-7.02803 -17.7692,-13.70542 -10.3806,-8.29896 -15.4711,-12.52734 -20.5195,-17.04458 -2.9198,-2.6125 -5.6217,-4.75 -6.0042,-4.75 -1.2746,0 -59.8835,-53.48861 -75.4483,-68.8567 -8.4354,-8.32881 -15.7277,-15.1433 -16.2053,-15.1433 -0.4775,0 -3.4758,2.55029 -6.6629,5.6673 -24.63841,24.09669 -59.15251,56.1715 -68.2947,63.46799 -2.475,1.97533 -7.5388,6.24048 -11.25288,9.47811 -3.71409,3.23763 -9.22739,7.9116 -12.25179,10.3866 -3.0244,2.475 -7.94735,6.525 -10.93988,9 -2.99254,2.475 -7.60424,6.16863 -10.24821,8.20808 -2.64398,2.03944 -7.60003,5.97694 -11.01343,8.75 -3.41341,2.77305 -6.51489,5.04192 -6.89219,5.04192 -0.3773,0 -3.05628,2.025 -5.9533,4.5 -2.89702,2.475 -5.55275,4.5 -5.90162,4.5 -0.34887,0 -3.30439,2.1375 -6.56781,4.75 -3.26342,2.6125 -8.66121,6.775 -11.99509,9.25 -3.33387,2.475 -8.73506,6.525 -12.00264,9 -3.26758,2.475 -8.67869,6.525 -12.0247,9 -3.346,2.475 -7.51752,5.67785 -9.27005,7.11745 -1.75253,1.4396 -5.02054,3.9146 -7.26225,5.5 -2.24172,1.5854 -7.58382,5.58255 -11.87134,8.88255 -4.28752,3.3 -9.92598,7.575 -12.5299,9.5 -2.60393,1.925 -8.22532,6.2 -12.49198,9.5 -4.26667,3.3 -9.66011,7.35 -11.98543,9 -2.32532,1.65 -5.76182,4.26098 -7.63668,5.80218 -1.87486,1.54119 -7.45883,6.1311 -12.40883,10.19978 -4.95,4.06869 -11.01957,9.17896 -13.48794,11.35616 -4.45162,3.92651 -4.47262,3.97548 -2.59501,6.05022 1.04111,1.15041 2.29289,2.09166 2.78174,2.09166 0.48885,0 3.68161,2.23577 7.09502,4.96839 3.4134,2.73261 8.35145,6.67011 10.97342,8.75 19.58428,15.53525 43.96983,37.03285 63.04572,55.57928 3.84544,3.73871 7.31879,6.43871 7.71855,6 0.39975,-0.43872 2.31278,-5.07267 4.25116,-10.29767 9.95176,-26.82539 22.31235,-49.88488 38.59417,-72 5.5733,-7.57004 7.53675,-9.9858 16.62317,-20.45246 10.14398,-11.68487 29.53235,-30.234 40.8255,-39.05834 7.77927,-6.07863 15.36785,-11.627 22.50462,-16.45418 l 7.33012,-4.95796 5.16988,3.42429 c 19.60331,12.98435 39.74823,28.90871 52.95708,41.86207 l 7.7872,7.63658 h 6.2527 c 14.7,0 26.5337,5.93064 31.3127,15.6928 2.6371,5.3867 2.8695,6.82975 3.2094,19.92886 0.3287,12.66116 0.5881,14.3875 2.5087,16.6921 1.1781,1.41375 3.7171,5.12977 5.6421,8.25783 1.925,3.12806 4.9636,7.97817 6.7525,10.77802 1.7888,2.79985 3.4922,5.84615 3.7853,6.76956 0.4178,1.31632 2.3071,1.81963 8.7475,2.33039 14.6402,1.16104 36.8848,3.55134 51.2147,5.50328 7.7,1.04885 16.925,2.19577 20.5,2.54871 3.575,0.35293 14.1413,2.21264 23.4808,4.13269 9.3394,1.92004 20.446,4.09594 24.6813,4.83533 22.9347,4.00387 81.6136,21.39611 106.8379,31.66641 5.225,2.12741 9.9197,3.86712 10.4327,3.86602 1.7052,-0.004 39.4091,16.76304 52.9517,23.5473 9.7664,4.89256 10.6156,5.13169 10.6156,2.98943 z M 1042.5,244.72838 c 11.275,-1.61182 17.292,-3.48417 22.7286,-7.07271 2.0507,-1.35361 4.1168,-2.46111 4.5915,-2.46111 1.5902,0 12.881,-12.49364 14.9297,-16.52018 4.0333,-7.92733 6.3779,-17.7076 6.9471,-28.97982 1.3086,-25.91692 -5.7174,-43.2777 -22.3052,-55.11453 -20.9492,-14.94903 -69.8949,-14.90573 -90.8961,0.0804 -3.43372,2.45025 -8.15347,6.7367 -10.48833,9.52543 -14.09401,16.83374 -16.14776,52.49846 -4.33819,75.33564 1.77649,3.43535 13.10674,15.67304 14.51087,15.67304 0.47461,0 2.54078,1.1075 4.59149,2.46111 11.11658,7.33771 36.69076,10.36606 59.72856,7.07271 z"
       id="path1" />
  </g>
</svg>
