<?xml version="1.0" encoding="UTF-8" standalone="no"?>
<!-- Created with Inkscape (http://www.inkscape.org/) -->

<svg
   version="1.1"
   id="svg1"
   width="2048"
   height="2048"
   viewBox="0 0 2048 2048"
   xmlns="http://www.w3.org/2000/svg"
   xmlns:svg="http://www.w3.org/2000/svg">
  <defs
     id="defs1" />
  <g
     id="g1">
    <path
       style="fill:#000000"
       d="m 482.88272,1848.8033 c -15.71479,-40.4596 -26.78396,-81.9818 -32.85681,-123.2509 -3.42848,-23.2989 -5.05309,-43.6043 -5.6806,-71 -2.79379,-121.9698 29.61622,-233.5517 96.43252,-332 58.89288,-86.7738 134.78558,-153.805 224.60605,-198.3801 17.28064,-8.5759 49.37331,-22.6199 51.68977,-22.6199 2.74785,0 -0.28065,-2.1059 -10.71731,-7.4523 -69.64805,-35.679 -124.05481,-105.85622 -140.74966,-181.54772 -4.78688,-21.70283 -6.02845,-34.4719 -6.02845,-62 0,-18.8238 0.45712,-28.77265 1.74598,-38 7.35857,-52.68228 27.64503,-97.4336 62.63371,-138.16805 41.96883,-48.86087 95.94262,-80.41056 156.35237,-91.3938 22.57083,-4.10365 21.39147,-2.58421 9.6273,-12.40339 -29.70283,-24.79199 -50.63905,-55.94798 -61.33221,-91.27081 -9.45421,-31.23024 -11.11276,-69.73045 -4.4485,-103.26395 10.81731,-54.43091 48.01652,-105.39414 98.72407,-135.25279 40.2563,-23.70453 92.71145,-31.8325 142.91335,-22.14452 30.2484,5.83733 61.6382,20.89938 86.1051,41.31655 10.355,8.64104 29.3026,28.3552 36.6006,38.08136 24.5539,32.7233 37.568,70.09214 39.1793,112.4994 2.4482,64.43613 -21.1939,119.04831 -69.0491,159.5 -12.3416,10.4322 -13.4529,8.84513 9.0595,12.93815 41.7533,7.59127 79.7884,24.60842 114.1276,51.06154 14.2351,10.96591 37.8403,34.28191 49.1019,48.50031 40.916,51.65859 60.0216,110.39654 57.7354,177.5 -2.4406,71.63347 -28.8189,131.46326 -81.1546,184.07012 -21.2863,21.3966 -43.5668,37.973 -67.7833,50.4299 -9.6192,4.9481 -12.489,7 -9.7904,7 2.1073,0 33.7683,13.7493 49.5737,21.5281 91.3967,44.982 167.9406,112.53 227.7369,200.9719 47.2163,69.8353 77.6872,148.6684 89.6738,232 4.4567,30.9834 5.5019,47.3786 5.4825,86 -0.019,38.5315 -0.9641,53.0508 -5.466,84 -5.5628,38.2427 -15.1079,76.2005 -28.667,114 l -3.9459,11 -540.1815,0.2509 -540.1816,0.2509 z M 1515.858,1780.3024 c 4.4979,-14.4298 10.2038,-39.9027 13.6186,-60.7978 10.4136,-63.7212 7.9469,-132.3088 -7.0437,-195.8495 -20.9919,-88.9783 -69.2976,-173.848 -138.4127,-243.1814 -41.5561,-41.6874 -82.4229,-71.133 -135.0202,-97.2858 -19.4701,-9.681 -21.0374,-10.2769 -31.1967,-11.8612 -36.0975,-5.6292 -54.5474,-26.7916 -56.4721,-64.7743 -0.7902,-15.5937 1.094,-25.4189 7.273,-37.9252 8.9179,-18.0497 28.4453,-33.8461 54.5698,-44.1434 10.9757,-4.3262 37.38,-27.09901 52.6762,-45.43142 34.7966,-41.70366 50.2561,-96.09351 43.5921,-153.36715 -5.4204,-46.58507 -27.6056,-89.67553 -63.6374,-123.6031 -30.4838,-28.70354 -67.5089,-46.99258 -106.3049,-52.51077 -23.358,-3.32235 -26.7603,-4.17661 -36.966,-9.28162 -7.727,-3.86511 -17.4165,-13.58061 -21.3852,-21.44268 -9.8854,-19.58281 -10.7601,-47.64089 -2.0667,-66.29468 5.4375,-11.66739 10.5631,-18.2421 24.6264,-31.58867 24.1234,-22.89401 36.2014,-43.56715 42.4607,-72.67766 2.931,-13.63084 3.2063,-42.62814 0.5312,-55.94348 -5.2311,-26.03822 -16.8486,-47.81637 -36.0201,-67.52327 -20.9604,-21.54572 -41.616,-33.40105 -68.6803,-39.41913 -14.7123,-3.27146 -41.5379,-3.27835 -56.73367,-0.0146 -26.6158,5.71659 -47.17024,16.98435 -66.80858,36.62387 -20.27361,20.27483 -31.91845,41.2605 -37.62699,67.80925 -2.92786,13.61661 -3.20614,42.62959 -0.53632,55.91589 6.12389,30.47549 17.01757,49.24986 44.30129,76.34967 16.3356,16.2255 17.36404,17.48018 21.72159,26.5 6.22565,12.88667 8.15402,22.83647 7.35773,37.96364 -1.00432,19.07923 -5.92584,32.81283 -15.45264,43.12097 -9.33217,10.09753 -20.86902,15.72678 -36.86176,17.98622 -28.18393,3.98179 -45.4195,8.4046 -63.1246,16.19836 -52.99632,23.32891 -97.75487,74.52157 -113.32778,129.61885 -11.14241,39.42205 -10.3367,84.35093 2.19725,122.52534 10.15358,30.92459 26.74932,56.73039 52.24719,81.24259 15.33193,14.73928 28.0814,24.17208 39.22626,29.02188 29.8933,13.0083 48.36371,31.0471 55.58946,54.2903 2.00769,6.4581 2.32314,9.5142 2.27086,22 -0.0439,10.497 -0.55518,16.4325 -1.85183,21.5 -7.02839,27.4682 -25.94211,43.257 -57.02784,47.6056 -7.73363,1.0819 -10.72282,2.2154 -27.3707,10.3793 -51.81549,25.4094 -94.48343,55.8168 -134.71669,96.006 -77.7782,77.693 -128.59353,173.3292 -145.85764,274.5091 -12.97729,76.056 -9.02484,156.3394 10.96626,222.75 l 2.48344,8.25 h 490.89031 490.8903 z"
       id="path1" />
  </g>
</svg>
