<?xml version="1.0" encoding="UTF-8" standalone="no"?>
<!-- Created with Inkscape (http://www.inkscape.org/) -->

<svg
   version="1.1"
   id="svg1"
   width="2048"
   height="2048"
   viewBox="0 0 2048 2048"
   xmlns="http://www.w3.org/2000/svg"
   xmlns:svg="http://www.w3.org/2000/svg">
  <defs
     id="defs1" />
  <g
     id="g1">
    <path
       style="fill:#000000"
       d="m 735.59905,1956.7011 c 4.5021,-7.8479 32.55327,-38.7266 72.63342,-79.9547 86.90833,-89.3976 127.68222,-132.0294 136.0941,-142.2953 23.11333,-28.2077 42.77873,-64.5035 56.23723,-103.7949 14.7773,-43.1418 20.5104,-76.4712 19.5999,-113.9428 l -0.1637,-6.7377 -8.25,6.3407 c -22.37449,17.1965 -52.74468,34.7315 -75.25,43.4475 -52.64804,20.39 -65.8949,26.1515 -98,42.6234 -58.26818,29.8953 -103.29198,61.6144 -143.35189,100.9909 -26.02143,25.5775 -44.43929,47.5453 -61.64043,73.5215 -9.41681,14.2207 -15.40855,24.8056 -38.52154,68.0514 -22.29825,41.7214 -31.52512,56.3908 -42.05131,66.8555 -13.16575,13.0888 -30.78639,19.7039 -55.43483,20.8113 -19.54368,0.878 -33.35119,-2.3676 -48.93961,-11.5038 -9.44873,-5.5377 -23.12671,-19.4698 -31.08092,-31.6583 -4.55025,-6.9725 -7.35807,-10.3815 -8.26422,-10.0338 -0.75486,0.2897 -4.91414,1.4309 -9.24286,2.5362 -15.15674,3.8698 -31.39458,6.1649 -47.49942,6.7135 l -16.02703,0.546 -10.97297,-4.3542 c -25.33421,-10.0529 -52.81543,-25.3967 -65.4786,-36.5592 -21.89529,-19.3006 -48.08643,-53.4753 -60.54499,-79.0005 -11.61566,-23.7982 -19.44697,-53.8682 -24.05686,-92.3716 -2.1888,-18.2815 -2.51369,-57.9727 -0.56464,-68.9811 10.22151,-57.732 40.19487,-114.6262 109.47526,-207.8016 49.20365,-66.1741 71.68171,-101.1237 93.707,-145.6984 19.72578,-39.9209 28.97111,-69.5465 28.99975,-92.9262 0.0227,-18.5056 4.14073,-60.3857 7.61223,-77.4153 3.80399,-18.6605 11.58437,-36.7127 24.89002,-57.7503 4.83807,-7.6495 11.62673,-18.4082 15.08591,-23.9082 11.20758,-17.81985 42.24372,-55.79106 65.56659,-80.21765 l 10.7107,-11.21758 -5.95843,-17.78242 C 510.13598,849.12109 499.79195,805.55551 493.59909,761.33328 486.9564,713.89892 484.72478,660.56749 487.61187,618.25 l 0.55951,-8.20102 9.16431,3.32316 c 36.93752,13.39432 84.81465,35.32782 119.28918,54.64886 6.80088,3.81151 12.55355,6.93002 12.78372,6.93002 0.23017,0 2.77274,-3.9375 5.65016,-8.75 12.18515,-20.37974 28.51772,-40.77492 47.07317,-58.78229 13.92517,-13.51386 22.02057,-20.27994 50.86808,-42.51521 38.21016,-29.45186 85.21551,-67.54245 114,-92.37939 34.74095,-29.97653 71.27664,-66.29552 106.83233,-106.19869 l 8.13135,-9.12559 -7.73184,-4.49748 c -25.78163,-14.99676 -46.4583,-37.66663 -55.9769,-61.37301 -14.24912,-35.48786 -13.5286,-79.52628 1.83763,-112.31696 6.54621,-13.96925 16.2002,-27.45131 28.35912,-39.6043 19.65316,-19.64357 40.20417,-30.90843 66.81464,-36.62387 13.58487,-2.917776 41.68277,-3.192316 54.91587,-0.53657 17.5616,3.52444 33.4321,10.04558 48.3178,19.85363 10.5232,6.93365 32.4161,28.82651 39.3497,39.34973 14.0794,21.36825 20.7401,42.57652 21.8273,69.5 2.1408,53.01087 -20.6857,94.90867 -66.4404,121.951 l -7.2635,4.29289 6.7357,7.62805 c 32.545,36.85654 68.9847,74.16111 95.2912,97.55276 32.6659,29.04643 79.5168,67.04196 123.8936,100.47612 38.1405,28.73567 56.4003,45.32567 75.2748,68.3912 28.0847,34.32069 45.351,71.0414 59.8139,127.20798 8.31,32.27169 11.3992,54.53974 11.445,82.5 0.038,23.01001 -1.0678,36.80503 -5.0485,63 -1.3791,9.075 -2.7237,18.075 -2.988,20 -0.4786,3.48637 -0.4311,3.53472 12.1959,12.41373 38.6127,27.15165 83.6051,66.96295 116.2358,102.85075 55.7546,61.3198 108.686,140.4561 154.6652,231.2356 64.5121,127.3701 104.6198,264.0903 124.9697,426 6.3132,50.2299 12.3394,141.0516 16.1401,243.25 l 0.6787,18.25 h -57.1381 c -37.4254,0 -57.1381,-0.345 -57.1381,-1 0,-0.6652 -157.147,-1 -469.441,-1 -311.88195,0 -469.6484,0.3356 -470.059,1 -0.99144,1.6042 -86.82134,1.3544 -85.90095,-0.25 z m 1025.10865,-131 c -0.4792,-76.2459 -0.8348,-86.6228 -4.2582,-124.25 -7.4643,-82.043 -25.2897,-165.2365 -56.447,-263.4467 -29.789,-93.8968 -66.8501,-176.4446 -111.1429,-247.5533 -16.9865,-27.2706 -44.7028,-66.2796 -61.9483,-87.1885 -84.6591,-102.6431 -220.3817,-185.86518 -363.4113,-222.83561 -19.4312,-5.02259 -56.3819,-12.9274 -57.095,-12.21426 -0.1702,0.17013 0.5526,5.59354 1.6062,12.05201 5.0019,30.66315 7.5696,76.79773 5.0722,91.1322 -3.12,17.90761 -12.6354,26.99371 -29.6138,28.27781 -12.5551,0.94965 -23.8447,-2.2409 -29.6606,-8.3822 -5.938,-6.2701 -6.7621,-10.0104 -6.7956,-30.84153 -0.049,-30.53216 -2.421,-51.86673 -8.5778,-77.15428 -9.9072,-40.6907 -28.7279,-78.86645 -55.38667,-112.34572 -8.15326,-10.23922 -28.3311,-32 -29.67224,-32 -3.44858,0 -29.32476,32.51893 -40.83182,51.31385 -23.76132,38.81031 -36.48708,78.08161 -41.04391,126.66032 -0.80101,8.53921 -1.91078,17.11636 -2.46617,19.06035 -1.7666,6.18346 -6.58707,12.61828 -11.70719,15.62785 -4.65863,2.73831 -5.30012,2.83763 -18.3276,2.83763 -12.77693,0 -13.80688,-0.1507 -19.22959,-2.81356 -6.70829,-3.29417 -11.04725,-8.14656 -13.75765,-15.38559 -2.54585,-6.79955 -3.53189,-16.76117 -2.15331,-21.754 0.59749,-2.16392 0.93305,-4.08769 0.74569,-4.27505 -0.52874,-0.52873 -24.59153,8.36751 -39.07387,14.44598 -11.304,4.74447 -27.77578,12.74568 -53.96789,26.21504 -6.02463,3.09819 -7.86528,3.56718 -14,3.56718 -5.90037,0 -7.83166,-0.45164 -11.72942,-2.74295 -9.80589,-5.76443 -18.78736,-20.37352 -19.61213,-31.90072 -0.42396,-5.92546 -0.14198,-7.49925 2.20212,-12.29042 1.47859,-3.02214 4.7246,-7.28717 7.21336,-9.47786 3.74043,-3.29246 47.50228,-26.64088 71.61269,-38.20778 2.6125,-1.25334 4.75,-2.71392 4.75,-3.24573 0,-1.07903 -22.61373,-22.95008 -36.5,-35.30127 -41.89182,-37.26081 -92.63608,-72.17341 -143.25,-98.55752 -9.42662,-4.91393 -15.24954,-7.43904 -15.24879,-6.61265 6.7e-4,0.73529 0.69623,7.4119 1.5457,14.8369 9.99124,87.33135 33.39362,165.93537 72.04944,242.00003 9.94352,19.5662 11.05551,24.6498 7.46932,34.14715 -5.0786,13.4495 -22.13586,25.9546 -35.54799,26.0611 -13.21861,0.105 -21.9162,-8.9235 -37.95018,-39.39405 l -6.64435,-12.6268 -9.53239,9.8236 c -13.86686,14.29055 -20.10959,22.49065 -31.20494,40.98905 -20.77995,34.6447 -35.8187,64.8487 -40.5802,81.5016 -4.38982,15.353 -4.75313,20.6977 -2.97105,43.7075 l 1.6039,20.709 -2.56887,12.791 c -7.25661,36.1321 -19.90559,67.9496 -40.67769,102.3215 -31.3244,51.8329 -94.63109,149.4977 -146.24701,225.6187 -20.42259,30.1185 -31.26629,55.1409 -41.10433,94.8507 -3.77072,15.22 -4.64057,22.8846 -4.64057,40.8903 0,25.2304 3.63994,48.7629 10.6637,68.9417 8.394,24.1153 18.44808,38.5896 40.7471,58.6612 14.4183,12.978 24.15895,19.828 37.09612,26.0873 14.77824,7.15 24.81039,9.2628 40.99308,8.6333 14.0128,-0.5451 18.6231,-1.6043 32.5,-7.4669 22.56566,-9.5332 32.84498,-20.5538 45.82905,-49.1339 10.38198,-22.8524 22.72143,-42.0008 31.62604,-49.0773 4.6825,-3.7212 9.48806,-4.6702 16.3548,-3.2299 10.4928,2.2009 15.81633,7.6201 18.74432,19.0814 2.16392,8.4704 1.694,10.9795 -6.70256,35.788 -10.23439,30.2387 -19.95968,48.5109 -40.3186,75.7521 l -8.54179,11.4293 2.60215,7.3217 c 3.02495,8.5113 6.29152,14.4821 10.62048,19.4125 9.31386,10.6079 22.11951,8.686 37.13013,-5.5726 9.89985,-9.4039 14.53437,-16.8463 31.45881,-50.5182 32.5154,-64.6909 62.30908,-111.8373 92.0682,-145.6915 20.7408,-23.5949 69.54137,-66.4685 100.75067,-88.5143 43.31335,-30.5959 65.36751,-42.9113 109.54805,-61.1735 35.62116,-14.7241 73.74229,-32.2095 90.33025,-41.4328 54.41434,-30.2556 96.4717,-76.4941 122.8363,-135.0482 10.2915,-22.857 15.1349,-39.9771 17.7212,-62.6397 1.4103,-12.3586 1.4659,-45.7133 0.09,-53.8699 -3.0579,-18.1242 6.9701,-27.6243 30.4725,-28.8684 8.5905,-0.4547 11.2177,-0.2021 17.3851,1.6711 6.0316,1.8321 8.1501,3.0916 12.4764,7.418 9.6869,9.6869 11.7492,20.4062 9.5723,49.7552 -2.0974,28.2788 -6.2085,51.4337 -13.7408,77.394 -9.0146,31.0687 -26.4382,68.3602 -44.5042,95.2517 l -4.8717,7.2517 2.4988,8.2483 c 12.0821,39.8816 14.9159,92.2415 7.4752,138.121 -6.5149,40.1715 -26.6235,97.7912 -47.1577,135.1273 -23.1534,42.0983 -65.24547,88.9875 -125.7531,140.0848 -18.25495,15.4159 -41.12864,35.6594 -44.40499,39.299 l -1.90529,2.1162 h 444.75788 444.7579 z M 314.12881,1695.3085 c -2.40415,-0.8827 -6.07995,-3.3656 -8.16845,-5.5177 -7.46531,-7.6925 -9.35565,-19.5123 -6.13164,-38.3397 6.28734,-36.7164 23.67823,-64.5136 54.89844,-87.7485 11.76343,-8.7546 16.68452,-10.9484 24.78051,-11.0469 11.99298,-0.1459 24.86991,9.1918 31.63999,22.9438 2.78536,5.6578 3.34664,7.9124 3.31864,13.3306 -0.0223,4.3143 -0.64319,7.6595 -1.83481,9.8854 -2.66066,4.9699 -9.37579,11.8874 -15.72521,16.1992 -8.80026,5.9762 -16.45253,13.4849 -21.53695,21.133 -5.67681,8.5391 -10.33747,21.3421 -10.35595,28.4481 -0.0182,6.9869 -3.29865,17.063 -7.01935,21.5602 -1.74243,2.106 -5.90987,5.1052 -9.65693,6.9499 -6.12495,3.0153 -7.41469,3.265 -18.2144,3.5263 -8.74792,0.2116 -12.70388,-0.1158 -15.99389,-1.3237 z m 239.14417,-431.3618 c -7.25976,-2.5808 -15.63902,-8.3688 -19.27682,-13.3155 -6.90654,-9.3914 -8.00053,-23.5471 -2.85164,-36.8986 4.28233,-11.1045 15.09813,-32.2029 22.59174,-44.0699 23.34053,-36.9622 55.46021,-67.1263 94.8843,-89.1073 11.90083,-6.6354 34.01095,-16.4879 43.73478,-19.4887 9.7356,-3.0045 21.41635,-2.9009 28.18276,0.25 10.89152,5.0717 18.4037,18.2998 19.23765,33.8751 0.42649,7.9655 0.23091,9.2254 -2.20496,14.2041 -1.47013,3.0049 -4.07747,6.6452 -5.79408,8.0896 -1.71661,1.4445 -10.16958,6.1557 -18.78438,10.4694 l -15.66326,7.8432 3.66,7.5035 c 6.80004,13.941 8.06887,27.615 4.09668,44.1495 -4.31787,17.9734 -13.35807,31.8152 -25.42906,38.9354 -17.08806,10.0796 -50.806,8.3791 -68.32736,-3.4459 l -4.26989,-2.8817 -2.11014,2.9634 c -1.16058,1.6299 -5.20594,9.4476 -8.9897,17.3728 -7.36842,15.4332 -11.23537,20.4147 -18.35848,23.6496 -5.46558,2.4821 -17.20351,2.4349 -24.32814,-0.098 z M 1387.4307,874.23865 c 6.0904,-45.44805 0.8186,-85.26543 -17.5196,-132.32311 -13.364,-34.29319 -32.899,-63.96028 -59.9046,-90.97488 -6.6509,-6.6532 -39.3573,-34.70955 -77.5065,-66.48704 -71.9933,-59.96894 -88.3586,-73.82732 -105,-88.91552 -18.5549,-16.82307 -64.6597,-62.97782 -84.2458,-84.33708 -10.2129,-11.1375 -18.8803,-20.25 -19.2609,-20.25 -0.3806,0 -5.5899,5.2875 -11.5763,11.75 C 962.36766,456.73117 926.14319,491.25386 872,536.52143 792.00223,603.40528 749.20053,639.7361 740.18252,648.41038 c -17.51604,16.8484 -34.69315,38.58413 -46.12653,58.36801 -2.32902,4.03005 -4.0819,7.43942 -3.89529,7.57636 47.88766,35.14181 76.91359,60.5287 115.83393,101.31157 8.51112,8.91842 15.76316,15.89342 16.11565,15.5 0.35249,-0.39341 2.10866,-5.2153 3.9026,-10.7153 21.3034,-65.3137 61.6868,-121.65778 117.80253,-164.36149 l 8.3154,-6.32797 11.1846,8.51875 C 969.46693,662.96562 977.425,669.2935 981,672.34227 l 6.5,5.54321 0.52326,-14.86375 c 0.51155,-14.53089 0.60131,-15.01723 4.00811,-21.71723 2.68953,-5.28937 4.5882,-7.5921 8.31943,-10.08989 6.7919,-4.54675 11.6016,-5.71426 23.6492,-5.74062 13.4859,-0.0295 19.5463,1.9281 26.0244,8.40623 8.4962,8.49617 8.3837,7.68145 8.7466,63.3208 l 0.3179,48.75 h 46.2741 c 49.4277,0 52.3231,0.24858 60.401,5.18559 13.0366,7.96758 16.4753,36.4321 6.2047,51.35997 -1.6576,2.40915 -3.6864,4.75673 -4.5086,5.21684 -0.9833,0.55027 2.7034,1.64066 10.7725,3.1861 31.7894,6.08851 71.5497,17.20421 103.8448,29.03169 27.9642,10.24137 45.6548,18.00164 75.4226,33.08533 14.85,7.52467 27.2761,13.7382 27.6136,13.80785 0.3374,0.0697 1.3801,-5.59393 2.3171,-12.58574 z M 1039.396,302.9022 c 9.4771,-1.31814 20.4883,-5.02675 26.6339,-8.97038 5.8346,-3.74402 13.7261,-11.98205 17.2244,-17.9808 9.4464,-16.19787 11.4223,-48.89989 4.232,-70.04028 -3.0837,-9.06648 -7.0594,-15.32155 -13.7647,-21.65653 -7.0626,-6.67252 -12.5536,-9.69775 -23.2216,-12.79391 -22.1744,-6.43561 -52.90532,-3.51636 -68.52993,6.50992 -5.886,3.77704 -13.77619,12.03904 -17.1716,17.9808 -12.15278,21.2666 -11.54457,62.13693 1.22073,82.02993 3.77704,5.886 12.03905,13.77619 17.9808,17.1716 13.0335,7.44798 35.2347,10.55383 55.396,7.74965 z"
       id="path1" />
  </g>
</svg>
