<?xml version="1.0" encoding="UTF-8" standalone="no"?>
<!-- Created with Inkscape (http://www.inkscape.org/) -->

<svg
   version="1.1"
   id="svg1"
   width="2048"
   height="2048"
   viewBox="0 0 2048 2048"
   xmlns="http://www.w3.org/2000/svg"
   xmlns:svg="http://www.w3.org/2000/svg">
  <defs
     id="defs1" />
  <g
     id="g1">
    <path
       style="fill:#000000"
       d="m 739.59905,1990.1378 c 4.50288,-7.8493 32.55631,-38.7299 72.63342,-79.9533 76.78958,-78.9859 127.58685,-131.9035 133.62197,-139.1996 l 6.28409,-7.5971 h -139.413 -139.413 l -6.50699,7.75 c -24.62511,29.3291 -34.63109,45.1527 -67.8194,107.25 -22.29825,41.7214 -31.52512,56.3908 -42.05131,66.8555 -13.16575,13.0888 -30.78639,19.7039 -55.43483,20.8113 -19.54368,0.878 -33.35119,-2.3676 -48.93961,-11.5038 -9.44873,-5.5377 -23.12671,-19.4698 -31.08092,-31.6583 -4.55025,-6.9725 -7.35807,-10.3815 -8.26422,-10.0338 -0.75486,0.2897 -4.91414,1.4309 -9.24286,2.5362 -15.15674,3.8698 -31.39458,6.1649 -47.49942,6.7135 l -16.02703,0.546 -10.97297,-4.3542 c -25.33421,-10.0529 -52.81543,-25.3967 -65.4786,-36.5592 -21.89529,-19.3006 -48.08643,-53.4753 -60.54499,-79.0005 -11.61566,-23.7982 -19.44697,-53.8682 -24.05686,-92.3716 -2.1888,-18.2815 -2.51369,-57.9727 -0.56464,-68.9811 10.22151,-57.732 40.19487,-114.6262 109.47526,-207.8016 49.20365,-66.1741 71.68171,-101.1237 93.707,-145.6984 19.72578,-39.9209 28.97111,-69.5465 28.99975,-92.9262 0.0227,-18.5056 4.14073,-60.3857 7.61223,-77.4153 3.80399,-18.6605 11.58437,-36.7127 24.89002,-57.7504 4.83807,-7.6495 11.62673,-18.4081 15.08591,-23.9081 11.20758,-17.8198 42.24372,-55.79102 65.56659,-80.21761 l 10.7107,-11.21758 -5.95843,-17.78242 C 514.13598,882.55783 503.79195,838.99225 497.59909,794.77002 490.9564,747.33566 488.72478,694.00423 491.61187,651.68674 l 0.55951,-8.20102 9.16431,3.32316 c 49.42238,17.92158 108.85922,46.82433 152.05709,73.94181 5.81503,3.65039 10.81254,6.63707 11.10557,6.63707 0.29304,0 0.41329,-12.68039 0.26722,-28.17865 L 664.5,671.03046 554,585.90074 443.5,500.77101 443.24739,313.07939 442.99478,125.38776 H 579.49739 716 v 68.5 68.5 h 85.5 85.5 v -68.5 -68.5 h 137 137 v 68.5 68.5 h 85 85 v -68.5 -68.5 h 137.0026 137.0026 l -0.2526,187.68366 -0.2526,187.68366 -110.5,85.13266 -110.5,85.13266 -0.2539,123.07596 -0.254,123.07596 10.254,5.78698 c 85.0038,47.97337 157.0395,108.294 217.9421,182.4986 33.5387,40.864 72.0709,98.7187 103.9194,156.031 77.9417,140.2585 124.8473,289.3631 147.3498,468.3989 6.3132,50.2299 12.3394,141.0516 16.1401,243.25 l 0.6787,18.25 h -570.1971 c -455.87349,0 -570.05336,-0.2506 -569.48005,-1.25 z m 1025.10895,-130 c -0.4776,-77.3042 -0.8245,-87.5067 -4.2585,-125.25 -7.4643,-82.043 -25.2897,-165.2365 -56.447,-263.4467 -29.789,-93.8968 -66.8501,-176.4446 -111.1429,-247.5533 -16.9865,-27.2706 -44.7028,-66.2796 -61.9483,-87.1885 -84.6591,-102.6432 -220.3817,-185.86514 -363.4113,-222.83557 -19.4312,-5.02259 -56.3819,-12.9274 -57.095,-12.21426 -0.1702,0.17013 0.5526,5.59354 1.6062,12.05201 5.0019,30.66315 7.5696,76.79773 5.0722,91.13222 -3.12,17.9076 -12.6354,26.9937 -29.6138,28.2778 -12.5551,0.9496 -23.8447,-2.2409 -29.6606,-8.3822 -5.938,-6.2701 -6.7621,-10.0104 -6.7956,-30.84154 -0.049,-30.53216 -2.421,-51.86673 -8.5778,-77.15428 -9.9072,-40.6907 -28.7279,-78.86645 -55.38667,-112.34572 -8.15326,-10.23922 -28.3311,-32 -29.67224,-32 -3.44858,0 -29.32476,32.51893 -40.83182,51.31385 -23.76132,38.81031 -36.48708,78.08161 -41.04391,126.66032 -0.80101,8.53921 -1.91078,17.11636 -2.46617,19.06035 -1.7666,6.18346 -6.58707,12.61828 -11.70719,15.62785 -4.65863,2.73831 -5.30012,2.83763 -18.3276,2.83763 -12.77693,0 -13.80688,-0.1507 -19.22959,-2.81356 -6.70829,-3.29417 -11.04725,-8.14656 -13.75765,-15.38559 -2.54585,-6.79955 -3.53189,-16.76117 -2.15331,-21.754 0.59749,-2.16392 0.93305,-4.08769 0.74569,-4.27505 -0.52874,-0.52873 -24.59153,8.36751 -39.07387,14.44598 -11.304,4.74447 -27.77578,12.74568 -53.96789,26.21504 -6.02463,3.09819 -7.86528,3.56718 -14,3.56718 -5.90037,0 -7.83166,-0.45164 -11.72942,-2.74295 -9.80589,-5.76443 -18.78736,-20.37352 -19.61213,-31.90072 -0.42396,-5.92546 -0.14198,-7.49925 2.20212,-12.29042 1.47859,-3.02214 4.7246,-7.28717 7.21336,-9.47786 3.74043,-3.29246 47.50228,-26.64088 71.61269,-38.20778 2.6125,-1.25334 4.75,-2.71392 4.75,-3.24573 0,-1.07903 -22.61373,-22.95008 -36.5,-35.30127 -41.89182,-37.26081 -92.63608,-72.17341 -143.25,-98.55752 -9.42662,-4.91393 -15.24954,-7.43904 -15.24879,-6.61265 6.7e-4,0.73529 0.69623,7.4119 1.5457,14.8369 9.99124,87.33135 33.39362,165.93537 72.04944,242.00004 9.94352,19.5662 11.05551,24.6498 7.46932,34.147 -5.0786,13.4496 -22.13586,25.9547 -35.54799,26.0612 -13.21861,0.1049 -21.9162,-8.9235 -37.95018,-39.394 l -6.64435,-12.6268 -9.53239,9.8236 c -13.86686,14.2905 -20.10959,22.4906 -31.20494,40.989 -20.77995,34.6447 -35.8187,64.8487 -40.5802,81.5016 -4.38982,15.353 -4.75313,20.6977 -2.97105,43.7075 l 1.6039,20.709 -2.56887,12.791 c -7.25661,36.1321 -19.90559,67.9496 -40.67769,102.3215 -31.3244,51.8329 -94.63109,149.4977 -146.24701,225.6187 -20.42259,30.1185 -31.26629,55.1409 -41.10433,94.8507 -3.77072,15.22 -4.64057,22.8846 -4.64057,40.8903 0,25.2304 3.63994,48.7629 10.6637,68.9417 8.394,24.1153 18.44808,38.5896 40.7471,58.6612 14.4183,12.978 24.15895,19.828 37.09612,26.0873 14.77824,7.15 24.81039,9.2628 40.99308,8.6333 14.0128,-0.5451 18.6231,-1.6043 32.5,-7.4669 22.56566,-9.5332 32.84498,-20.5538 45.82905,-49.1339 10.38198,-22.8524 22.72143,-42.0008 31.62604,-49.0773 4.6825,-3.7212 9.48806,-4.6702 16.3548,-3.2299 10.4928,2.2009 15.81633,7.6201 18.74432,19.0814 2.16392,8.4704 1.694,10.9795 -6.70256,35.788 -10.23439,30.2387 -19.95968,48.5109 -40.3186,75.7521 l -8.54179,11.4293 2.60215,7.3217 c 3.02495,8.5113 6.29152,14.4821 10.62048,19.4125 9.31386,10.6079 22.11951,8.686 37.13013,-5.5726 9.89985,-9.4039 14.53437,-16.8463 31.45881,-50.5182 32.5154,-64.6909 62.30908,-111.8373 92.0682,-145.6915 20.7408,-23.5949 69.54137,-66.4685 100.75067,-88.5143 43.31335,-30.5959 65.36751,-42.9113 109.54805,-61.1735 35.62116,-14.7241 73.74229,-32.2095 90.33025,-41.4328 54.41434,-30.2556 96.4717,-76.4941 122.8363,-135.0482 10.2915,-22.857 15.1349,-39.9771 17.7212,-62.6397 1.4103,-12.3586 1.4659,-45.7133 0.09,-53.8699 -3.0579,-18.1242 6.9701,-27.6243 30.4725,-28.8684 8.5905,-0.4547 11.2177,-0.2021 17.3851,1.6711 6.0316,1.8321 8.1501,3.0916 12.4764,7.418 9.6869,9.6869 11.7492,20.4062 9.5723,49.7552 -2.0974,28.2788 -6.2085,51.4337 -13.7408,77.394 -9.0146,31.0687 -26.4382,68.3602 -44.5042,95.2517 l -4.8717,7.2517 2.4988,8.2483 c 12.0821,39.8816 14.9159,92.2415 7.4752,138.121 -6.5149,40.1715 -26.6235,97.7912 -47.1577,135.1273 -23.1534,42.0983 -65.24547,88.9875 -125.7531,140.0848 -18.7357,15.8219 -40.63933,35.2576 -45.43709,40.3176 l -2.93739,3.0976 h 445.78908 445.789 z M 318.12881,1728.7452 c -2.40415,-0.8827 -6.07995,-3.3656 -8.16845,-5.5177 -7.46531,-7.6925 -9.35565,-19.5123 -6.13164,-38.3397 6.28734,-36.7164 23.67823,-64.5136 54.89844,-87.7485 11.76343,-8.7546 16.68452,-10.9484 24.78051,-11.0469 11.99298,-0.1459 24.86991,9.1918 31.63999,22.9438 2.78536,5.6578 3.34664,7.9124 3.31864,13.3306 -0.0223,4.3143 -0.64319,7.6595 -1.83481,9.8854 -2.66066,4.9699 -9.37579,11.8874 -15.72521,16.1992 -8.80026,5.9762 -16.45253,13.4849 -21.53695,21.133 -5.67681,8.5391 -10.33747,21.3421 -10.35595,28.4481 -0.0182,6.9869 -3.29865,17.063 -7.01935,21.5602 -1.74243,2.106 -5.90987,5.1052 -9.65693,6.9499 -6.12495,3.0153 -7.41469,3.265 -18.2144,3.5263 -8.74792,0.2116 -12.70388,-0.1158 -15.99389,-1.3237 z m 239.14417,-431.3618 c -7.25976,-2.5808 -15.63902,-8.3688 -19.27682,-13.3155 -6.90654,-9.3914 -8.00053,-23.5471 -2.85164,-36.8986 4.28233,-11.1045 15.09813,-32.2029 22.59174,-44.0699 23.34053,-36.9622 55.46021,-67.1263 94.8843,-89.1073 11.90083,-6.6354 34.01095,-16.4879 43.73478,-19.4887 9.7356,-3.0045 21.41635,-2.9009 28.18276,0.2499 10.89152,5.0718 18.4037,18.2998 19.23765,33.8752 0.42649,7.9655 0.23091,9.2254 -2.20496,14.2041 -1.47013,3.0049 -4.07747,6.6452 -5.79408,8.0896 -1.71661,1.4445 -10.16958,6.1557 -18.78438,10.4694 l -15.66326,7.8432 3.66,7.5035 c 6.80004,13.941 8.06887,27.615 4.09668,44.1495 -4.31787,17.9734 -13.35807,31.8152 -25.42906,38.9354 -17.08806,10.0796 -50.806,8.3791 -68.32736,-3.4459 l -4.26989,-2.8817 -2.11014,2.9634 c -1.16058,1.6299 -5.20594,9.4476 -8.9897,17.3728 -7.36842,15.4332 -11.23537,20.4147 -18.35848,23.6496 -5.46558,2.4821 -17.20351,2.4349 -24.32814,-0.098 z m 439.98382,386.2544 c 5.5297,-13.6907 11.5074,-31.269 15.7096,-46.1964 3.1516,-11.1953 9.0103,-39.003 9.0249,-42.8358 l 0.01,-2.2822 -40.75,0.2822 -40.75,0.2822 -18.48163,7.2774 c -65.63485,25.8445 -120.63847,55.133 -166.49885,88.6577 l -8.98178,6.5649 H 869.52501 992.51098 Z M 1314,777.88776 v -106.5 H 1024 734 v 53.27821 53.27821 l 14.75,12.61914 c 18.54802,15.86847 41.30054,37.61177 61.25691,58.53974 8.50436,8.91842 15.75088,15.89342 16.10337,15.5 0.35249,-0.39341 2.10866,-5.2153 3.9026,-10.7153 21.30109,-65.30664 61.6879,-121.65864 117.78795,-164.3504 l 8.30084,-6.31687 9.52554,7.15985 c 44.70669,33.60367 81.26359,75.77866 109.37219,126.18065 l 8.1831,14.67323 7.6588,0.63192 c 72.4597,5.97859 134.8879,19.3458 197.1587,42.21585 11.275,4.14095 21.625,8.13575 23,8.87734 1.375,0.7416 2.6125,1.36637 2.75,1.38839 0.1375,0.022 0.25,-47.88496 0.25,-106.45996 z m 98.1717,-225.75 63.1672,-51.25 -225.6695,-0.25218 c -124.1181,-0.1387 -327.2234,-0.1387 -451.34496,0 l -225.67556,0.25218 63.42556,51.17654 63.42556,51.17655 324.7522,0.0734 324.7522,0.0735 z M 1536,312.88776 v -119.5 h -68.5 -68.5 v 68.5 68.5 h -154 -154 v -68.5 -68.5 H 1023.5 956 v 68.5 68.5 H 802.5 649 v -68.5 -68.5 H 580.5 512 v 119.5 119.5 h 512 512 z"
       id="path1" />
  </g>
</svg>
