/* XPM */
static char * BlackKnight_xpm[] = {
"48 48 212 2",
"  	c #00FF00",
". 	c #FFFFFF",
"+ 	c #FFFFFF",
"@ 	c #FFFFFF",
"# 	c #FFFFFF",
"$ 	c #D6D6D6",
"% 	c #E2E2E2",
"& 	c #FFFFFF",
"* 	c #FFFFFF",
"= 	c #FFFFFF",
"- 	c #FFFFFF",
"; 	c #FFFFFF",
"> 	c #FFFFFF",
", 	c #FFFFFF",
"' 	c #FFFFFF",
") 	c #AAAAAA",
"! 	c #000000",
"~ 	c #838383",
"{ 	c #FFFFFF",
"] 	c #FFFFFF",
"^ 	c #FFFFFF",
"/ 	c #F1F1F1",
"( 	c #B9B9B9",
"_ 	c #FCFCFC",
": 	c #FFFFFF",
"< 	c #999999",
"[ 	c #F6F6F6",
"} 	c #FFFFFF",
"| 	c #FFFFFF",
"1 	c #616161",
"2 	c #898989",
"3 	c #FEFEFE",
"4 	c #FFFFFF",
"5 	c #BEBEBE",
"6 	c #E3E3E3",
"7 	c #7C7C7C",
"8 	c #B8B8B8",
"9 	c #FFFFFF",
"0 	c #FFFFFF",
"a 	c #FFFFFF",
"b 	c #FFFFFF",
"c 	c #FFFFFF",
"d 	c #D3D3D3",
"e 	c #383838",
"f 	c #D4D4D4",
"g 	c #010101",
"h 	c #DDDDDD",
"i 	c #EDEDED",
"j 	c #FFFFFF",
"k 	c #FFFFFF",
"l 	c #FFFFFF",
"m 	c #717171",
"n 	c #292929",
"o 	c #8F8F8F",
"p 	c #BFBFBF",
"q 	c #F3F3F3",
"r 	c #FFFFFF",
"s 	c #FFFFFF",
"t 	c #FFFFFF",
"u 	c #636363",
"v 	c #858585",
"w 	c #505050",
"x 	c #BABABA",
"y 	c #8D8D8D",
"z 	c #111111",
"A 	c #A2A2A2",
"B 	c #ECECEC",
"C 	c #FFFFFF",
"D 	c #909090",
"E 	c #E1E1E1",
"F 	c #C7C7C7",
"G 	c #707070",
"H 	c #191919",
"I 	c #FAFAFA",
"J 	c #FFFFFF",
"K 	c #FFFFFF",
"L 	c #FFFFFF",
"M 	c #B1B1B1",
"N 	c #E9E9E9",
"O 	c #CCCCCC",
"P 	c #DFDFDF",
"Q 	c #CBCBCB",
"R 	c #727272",
"S 	c #FFFFFF",
"T 	c #D7D7D7",
"U 	c #7E7E7E",
"V 	c #6F6F6F",
"W 	c #676767",
"X 	c #C5C5C5",
"Y 	c #F5F5F5",
"Z 	c #929292",
"` 	c #595959",
" .	c #FFFFFF",
"..	c #FFFFFF",
"+.	c #FFFFFF",
"@.	c #FBFBFB",
"#.	c #565656",
"$.	c #585858",
"%.	c #4F4F4F",
"&.	c #CECECE",
"*.	c #494949",
"=.	c #EFEFEF",
"-.	c #FFFFFF",
";.	c #FFFFFF",
">.	c #DADADA",
",.	c #9B9B9B",
"'.	c #919191",
").	c #FFFFFF",
"!.	c #868686",
"~.	c #DEDEDE",
"{.	c #5A5A5A",
"].	c #8E8E8E",
"^.	c #9A9A9A",
"/.	c #FFFFFF",
"(.	c #FFFFFF",
"_.	c #C0C0C0",
":.	c #3E3E3E",
"<.	c #FFFFFF",
"[.	c #EBEBEB",
"}.	c #F8F8F8",
"|.	c #848484",
"1.	c #C6C6C6",
"2.	c #CACACA",
"3.	c #E4E4E4",
"4.	c #5D5D5D",
"5.	c #FFFFFF",
"6.	c #FFFFFF",
"7.	c #D0D0D0",
"8.	c #E7E7E7",
"9.	c #F9F9F9",
"0.	c #878787",
"a.	c #FDFDFD",
"b.	c #6E6E6E",
"c.	c #FFFFFF",
"d.	c #949494",
"e.	c #FFFFFF",
"f.	c #FFFFFF",
"g.	c #FFFFFF",
"h.	c #FFFFFF",
"i.	c #FFFFFF",
"j.	c #ABABAB",
"k.	c #FFFFFF",
"l.	c #979797",
"m.	c #FFFFFF",
"n.	c #FFFFFF",
"o.	c #333333",
"p.	c #FFFFFF",
"q.	c #FFFFFF",
"r.	c #343434",
"s.	c #9F9F9F",
"t.	c #8A8A8A",
"u.	c #FFFFFF",
"v.	c #B7B7B7",
"w.	c #808080",
"x.	c #D1D1D1",
"y.	c #E0E0E0",
"z.	c #CFCFCF",
"A.	c #FFFFFF",
"B.	c #FFFFFF",
"C.	c #696969",
"D.	c #828282",
"E.	c #F2F2F2",
"F.	c #A0A0A0",
"G.	c #D9D9D9",
"H.	c #C2C2C2",
"I.	c #FFFFFF",
"J.	c #FFFFFF",
"K.	c #626262",
"L.	c #A3A3A3",
"M.	c #A9A9A9",
"N.	c #C9C9C9",
"O.	c #FFFFFF",
"P.	c #FFFFFF",
"Q.	c #353535",
"R.	c #7D7D7D",
"S.	c #B4B4B4",
"T.	c #656565",
"U.	c #FFFFFF",
"V.	c #959595",
"W.	c #D5D5D5",
"X.	c #171717",
"Y.	c #535353",
"Z.	c #6C6C6C",
"`.	c #7B7B7B",
" +	c #888888",
".+	c #FFFFFF",
"++	c #939393",
"@+	c #B2B2B2",
"#+	c #FFFFFF",
"$+	c #FFFFFF",
"%+	c #FFFFFF",
"&+	c #5F5F5F",
"*+	c #FFFFFF",
"=+	c #FFFFFF",
"-+	c #FFFFFF",
";+	c #B5B5B5",
">+	c #646464",
",+	c #FFFFFF",
"'+	c #FFFFFF",
")+	c #CDCDCD",
"!+	c #EEEEEE",
"~+	c #FFFFFF",
"{+	c #FFFFFF",
"]+	c #FFFFFF",
"^+	c #FFFFFF",
"/+	c #FFFFFF",
"(+	c #030303",
"_+	c #FFFFFF",
":+	c #555555",
"<+	c #FFFFFF",
"[+	c #FFFFFF",
"}+	c #FFFFFF",
"                                                                                                ",
"                      . + @                                                                     ",
"                    # $ % & * =         - ; > ,                                                 ",
"                    ' ) ! ~ % & { ]   ] ^ / ( _ :                                               ",
"                    & ) ! ! ! < [ } | ^ / 1 ! 2 3 >                                             ",
"                    4 5 ! ! ! ! 1 6 & & 7 ! ! ! 8 & 9 0 a b                                     ",
"                    c d ! ! ! ! ! e % f ! ! ! ! g h i & & j k l                                 ",
"                    : / ! ! ! ! ! ! e m ! ! ! ! ! ! ! n o p q & r s                             ",
"                    t & u ! ! ! ! ! v w ! ! ! ! ! ! x y z ! ! A B & > C                         ",
"                    r & D ! ! ! 1 E & 7 ! ! ! ! ! ! & & [ F G ! H 8 I J K                       ",
"                  L & M ! ! ! ! N 3 O w ! ! ! ! ! ! P & & & & Q w ! R / } a                     ",
"                C S T ! ! ! ! ! U V ! ! ! ! ! ! ! ! ! W X I & & Y Z ! ` 6  ...                  ",
"                +.@.#.! ! ! ! $.! ! ! ! ! ! ! ! ! ! ! ! ! %.&.& & & ) ! *.=.^ -.                ",
"                ;.>.! ! ! R % & ,.! ! ! ! ! ! ! ! ! ! ! ! ! ! '.@.& & ) ! 1 I {                 ",
"                ).Q ! ! !.I & ~.{.! ! ! ! ! ! ! ! ! ! ! ! ! ! ! ~ I & & ].! ^.& /.              ",
"              (.& _.! w [ & & Q ! ! ! ! ! ! ! ! ! ! ! ! ! ! ! ! ! ) & & / :.! T j (.            ",
"              <.& D ! p & [.}.|.! ! ! ! ! ! ! ! ! 1.2.! ! ! ! ! ! ! 3.& & 1.! 4.I 5.            ",
"            6.* B ! ! y 7.! ! ! ! ! ! ! ! ! ! ! ! 8.9.! ! ! ! ! ! ! 0.& & a.b.! X } c.          ",
"            0 & d.! ! ! ! ! ! ! ! ! ! ! ! ! ! ! ! / 8.! ! ! ! ! ! ! ! % & & O ! w I e.          ",
"          f.g.d ! ! ! ! ! ! ! ! ! ! ! ! ! ! ! ! U & p ! ! ! ! ! ! ! ! < & & I w ! Q h.i.        ",
"        C * / :.! ! ! ! ! ! ! ! ! ! ! ! ! ! ! ! h & G ! ! ! ! ! ! ! ! ! [ & & j.! 7 & k.        ",
"        + 3 U ! ! ! ! ! ! ! ! ! ! ! ! ! ! ! ! l.& p ! ! ! ! ! ! ! ! ! ! Q & & E ! ! i m.        ",
"      n.& 5 ! ! ! ! ! ! ! ! ! ! ! ! ! ! ! ! ! ! ].o.! ! ! ! ! ! ! ! ! ! D & & & w ! 5  .p.      ",
"      q.Y e ! ! ! ! ! ! ! ! ! ! ! ! ! ! ! ! ! !.! ! ! ! ! ! ! ! ! ! ! ! r._ & & s.! t.& u.      ",
"    C  .v.! ! ! g ! ! ! ! ! ! ! ! ! ! ! ! w.x.=.! ! ! ! ! ! ! ! ! ! ! ! ! y.& & z.! H & A.      ",
"    B.& C.! ! D.E.T ! ! ! ! ! ! ! ! ! F.N & & G.! ! ! ! ! ! ! ! ! ! ! ! ! H.& & N ! ! 8.I.      ",
"    J.& ! ! ! B I < ! ! ! ! ! ! ! K.~.& & & & L.! ! ! ! ! ! ! ! ! ! ! ! ! M.& & & ! ! O 9       ",
"    u.& C.! b.& N.! ! ! ! ! ! ! !.I } O.P.& E.Q.! ! ! ! ! ! ! ! ! ! ! ! ! R.& & & b.! S.&       ",
"    ] & < ! ! D w ! T.E.1 ! ! !.I ^ f.C U.& V.! ! ! ! ! ! ! ! ! ! ! ! ! ! 7 & & & 7 ! ) & c.    ",
"      c W.! ! ! ! ! T [ X.! Y.[ ^ ] C r & ) ! ! ! ! ! ! ! ! ! ! ! ! ! ! ! Z.& & & `.!  +& ..    ",
"      .+& ++! ! ! %.E.@+! ! x.& #+$+%+& ) ! ! ! ! ! ! ! ! ! ! ! ! ! ! ! ! &+& & & `.! 7 & B.    ",
"        *+I s.! ! ! ! ! ! V & |   k & M.! ! ! ! ! ! ! ! ! ! ! ! ! ! ! ! ! ` & & & `.! 7 & @     ",
"        =+| & B >.~.e ! H E -+(.O.& ;+! ! ! ! ! ! ! ! ! ! ! ! ! ! ! ! ! ! ! & & & `.! >+& /.    ",
"            ,+'+r & [ )+!+ .a ~+& 2.! ! ! ! ! ! ! ! ! ! ! ! ! ! ! ! ! ! ! ! & & & `.! ! & /.    ",
"                  (.{+> ]+^+  /+B (+! ! ! ! ! ! ! ! ! ! ! ! ! ! ! ! ! ! ! ! & & & `.! ! & /.    ",
"                            @ & D ! ! ! ! ! ! ! ! ! ! ! ! ! ! ! ! ! ! ! ! ! & & & `.! ! & /.    ",
"                            %+[.! ! ! ! ! ! ! ! ! ! ! ! ! ! ! ! ! ! ! ! ! ! & & & `.! ! & /.    ",
"                          _+& 8 ! ! ! ! ! ! ! ! ! ! ! ! ! ! ! ! ! ! ! ! ! :+& & & `.! ! & /.    ",
"                          l & R ! ! ! ! ! ! ! ! ! ! ! ! ! ! ! ! ! ! ! ! ! 7 & & & 7 ! ! & /.    ",
"                          /.& ! ! ! ! ! ! ! ! ! ! ! ! ! ! ! ! ! ! ! ! ! ! 7 & & & 7 ! ! & /.    ",
"                          <.& ! ! ! ! ! ! ! ! ! ! ! ! ! ! ! ! ! ! ! ! ! ! n &+&+&+n ! ! & <+    ",
"                          ] & `.7 7 7 7 7 7 7 7 7 7 7 7 7 7 7 7 7 7 7 7 7 7 7 7 7 7 7 7 & ]     ",
"                            <+ .& & & & & & & & & & & & & & & & & & & & & & & & & & &  .<+      ",
"                              [+......................................................}+        ",
"                                                                                                ",
"                                                                                                ",
"                                                                                                ",
"                                                                                                "};
