/* XPM */
static char * BlackQueen_xpm[] = {
"48 48 215 2",
"  	c #00FF00",
". 	c #FFFFFF",
"+ 	c #FFFFFF",
"@ 	c #FFFFFF",
"# 	c #FFFFFF",
"$ 	c #FFFFFF",
"% 	c #FFFFFF",
"& 	c #FFFFFF",
"* 	c #FFFFFF",
"= 	c #FFFFFF",
"- 	c #FFFFFF",
"; 	c #FFFFFF",
"> 	c #E0E0E0",
", 	c #AAAAAA",
"' 	c #FFFFFF",
") 	c #FFFFFF",
"! 	c #FFFFFF",
"~ 	c #FFFFFF",
"{ 	c #FFFFFF",
"] 	c #F6F6F6",
"^ 	c #CFCFCF",
"/ 	c #CBCBCB",
"( 	c #ECECEC",
"_ 	c #FFFFFF",
": 	c #FFFFFF",
"< 	c #000000",
"[ 	c #FFFFFF",
"} 	c #FFFFFF",
"| 	c #FFFFFF",
"1 	c #FFFFFF",
"2 	c #E7E7E7",
"3 	c #4E4E4E",
"4 	c #FFFFFF",
"5 	c #FFFFFF",
"6 	c #F9F9F9",
"7 	c #383838",
"8 	c #FFFFFF",
"9 	c #FFFFFF",
"0 	c #FFFFFF",
"a 	c #FFFFFF",
"b 	c #FFFFFF",
"c 	c #FFFFFF",
"d 	c #FFFFFF",
"e 	c #7A7A7A",
"f 	c #272727",
"g 	c #F2F2F2",
"h 	c #FFFFFF",
"i 	c #FFFFFF",
"j 	c #262626",
"k 	c #FFFFFF",
"l 	c #FFFFFF",
"m 	c #FFFFFF",
"n 	c #909090",
"o 	c #5D5D5D",
"p 	c #8D8D8D",
"q 	c #E3E3E3",
"r 	c #FFFFFF",
"s 	c #D0D0D0",
"t 	c #F7F7F7",
"u 	c #1B1B1B",
"v 	c #171717",
"w 	c #8E8E8E",
"x 	c #FFFFFF",
"y 	c #FFFFFF",
"z 	c #EEEEEE",
"A 	c #393939",
"B 	c #3A3A3A",
"C 	c #B8B8B8",
"D 	c #B6B6B6",
"E 	c #FFFFFF",
"F 	c #FFFFFF",
"G 	c #B3B3B3",
"H 	c #A0A0A0",
"I 	c #828282",
"J 	c #D2D2D2",
"K 	c #616161",
"L 	c #6A6A6A",
"M 	c #B1B1B1",
"N 	c #838383",
"O 	c #C5C5C5",
"P 	c #6E6E6E",
"Q 	c #515151",
"R 	c #7F7F7F",
"S 	c #4D4D4D",
"T 	c #353535",
"U 	c #7D7D7D",
"V 	c #A3A3A3",
"W 	c #9A9A9A",
"X 	c #FFFFFF",
"Y 	c #C6C6C6",
"Z 	c #B9B9B9",
"` 	c #161616",
" .	c #FBFBFB",
"..	c #F1F1F1",
"+.	c #FAFAFA",
"@.	c #3C3C3C",
"#.	c #C4C4C4",
"$.	c #C3C3C3",
"%.	c #FFFFFF",
"&.	c #868686",
"*.	c #D4D4D4",
"=.	c #D7D7D7",
"-.	c #D3D3D3",
";.	c #050505",
">.	c #FFFFFF",
",.	c #C8C8C8",
"'.	c #9B9B9B",
").	c #979797",
"!.	c #919191",
"~.	c #BCBCBC",
"{.	c #B7B7B7",
"].	c #A2A2A2",
"^.	c #FFFFFF",
"/.	c #FFFFFF",
"(.	c #FFFFFF",
"_.	c #BFBFBF",
":.	c #F4F4F4",
"<.	c #999999",
"[.	c #C0C0C0",
"}.	c #FFFFFF",
"|.	c #505050",
"1.	c #5A5A5A",
"2.	c #5B5B5B",
"3.	c #FFFFFF",
"4.	c #6B6B6B",
"5.	c #646464",
"6.	c #B4B4B4",
"7.	c #FFFFFF",
"8.	c #FFFFFF",
"9.	c #DDDDDD",
"0.	c #E2E2E2",
"a.	c #343434",
"b.	c #FFFFFF",
"c.	c #FFFFFF",
"d.	c #292929",
"e.	c #8C8C8C",
"f.	c #A6A6A6",
"g.	c #7C7C7C",
"h.	c #A7A7A7",
"i.	c #9F9F9F",
"j.	c #FFFFFF",
"k.	c #777777",
"l.	c #6F6F6F",
"m.	c #EFEFEF",
"n.	c #959595",
"o.	c #5F5F5F",
"p.	c #E1E1E1",
"q.	c #FFFFFF",
"r.	c #FFFFFF",
"s.	c #FFFFFF",
"t.	c #FFFFFF",
"u.	c #8F8F8F",
"v.	c #A9A9A9",
"w.	c #A5A5A5",
"x.	c #7B7B7B",
"y.	c #191919",
"z.	c #8A8A8A",
"A.	c #C9C9C9",
"B.	c #CACACA",
"C.	c #E4E4E4",
"D.	c #F5F5F5",
"E.	c #9C9C9C",
"F.	c #C7C7C7",
"G.	c #444444",
"H.	c #F0F0F0",
"I.	c #D9D9D9",
"J.	c #575757",
"K.	c #949494",
"L.	c #FFFFFF",
"M.	c #FFFFFF",
"N.	c #DCDCDC",
"O.	c #CCCCCC",
"P.	c #ADADAD",
"Q.	c #9D9D9D",
"R.	c #F8F8F8",
"S.	c #E5E5E5",
"T.	c #767676",
"U.	c #C2C2C2",
"V.	c #676767",
"W.	c #FFFFFF",
"X.	c #3F3F3F",
"Y.	c #FFFFFF",
"Z.	c #CDCDCD",
"`.	c #FEFEFE",
" +	c #8B8B8B",
".+	c #FFFFFF",
"++	c #FFFFFF",
"@+	c #D8D8D8",
"#+	c #FFFFFF",
"$+	c #2A2A2A",
"%+	c #DEDEDE",
"&+	c #5E5E5E",
"*+	c #B0B0B0",
"=+	c #FFFFFF",
"-+	c #FFFFFF",
";+	c #DFDFDF",
">+	c #717171",
",+	c #ACACAC",
"'+	c #010101",
")+	c #FFFFFF",
"!+	c #FFFFFF",
"~+	c #DBDBDB",
"{+	c #545454",
"]+	c #D6D6D6",
"^+	c #FFFFFF",
"/+	c #FFFFFF",
"(+	c #FFFFFF",
"_+	c #FFFFFF",
":+	c #FFFFFF",
"<+	c #FFFFFF",
"[+	c #FFFFFF",
"}+	c #FFFFFF",
"|+	c #FFFFFF",
"1+	c #FFFFFF",
"2+	c #FFFFFF",
"                                                                                                ",
"                                          . + @ # + .                                           ",
"                      $ % & * = -       ; # > , , > # ;       ' ) ! & % $                       ",
"                    ~ { ] ^ / ( @ _   : @ / < < < < / @ :   [ @ ( / ^ ] { ~                     ",
"        } | ~       1 2 3 < < < / @ 4 5 6 7 < < < < 7 ] 8 9 @ / < < < 3 2 1       ~ | }         ",
"    ~ 0 a a a b c d a e < < < < f g ! h 2 < < < < < < 2 i ! g j < < < < e a d k l a a a 1 ~     ",
"  : m 2 n o p q a r a < < < < < < s a a t u < < < < v ] a a s < < < < < < a r @ 2 n o w 2 m x   ",
"  y z 7 < < < A 2 a a B < < < < < > a a a C < < < < D a a a > < < < < < B a a ( 7 < < < 7 ( E   ",
"  F G < < < < < H a a C < < < < I a a a a a J K L J a a a a a I < < < < C a a M < < < < < M @   ",
"  a , < < < < < N a a a O P Q R 6 a a a a a a S T a a a a a a 6 U Q P O a a a V < < < < < W a   ",
"  X Y < < < < < Z a a a a a ` S  .a a a a a ..< < z a a a a a +.@.` a a a a a #.< < < < < $.m   ",
"  %.+.&.< < < &.+.a a a a a < < *.a a a a a =.< < =.a a a a a -.< ;.a a a a a +.&.< < < &.+.%   ",
"    >.a =.,.'.).a a a a a a < < !.a a a a a ~.< < {.a a a a a p < < a a a a a a '.].,.=.a ^.    ",
"      /.(.a _.< J a a a a a < < < :.a a a a <.< < !.a a a a g < < < a a a a a J < [.a (.}.      ",
"        $ r ^ < |. .a a a a < < < _.a a a a K < < 1.a a a a _.< < < a a a a +.2.< ^ r $         ",
"          3.2 < < G a a a a < < < 4.a a a ] < < < < ] a a a 5.< < < a a a a 6.< < 2 7.          ",
"          8.] < < f ( a a a < < < < q a a > < < < < 9.a a 0.< < < < a a a ( a.< < ] b.          ",
"          c.a d.< < e.a a a < < < < , a a Y < < < < [.a a f.< < < < a a a n < < d.a c.          ",
"          _ a g.< < < =.a a < < < < A +.a h.< < < < i.a +.B < < < < a a =.< < < g.a _           ",
"          j.a '.< < < K +.a < < < < < J a k.< < < < l.a J < < < < < a +.K < < < W a j.          ",
"            a 6.< < < < C a < < < < < e.a < < < < < <  .e.< < < < < a C < < < < M a             ",
"            { / < < < < 7 z < < < < < < =.< < < < < < *.< < < < < < m.7 < < < < / {             ",
"            X 0.< < < < < n.< < < < < < o.< < < < < < 1.< < < < < < n.< < < < < p.X             ",
"            >.z < < < < < < < < < < < < < < < < < < < < < < < < < < < < < < < < z >.            ",
"            % a < < < < < < < < < < < < < < < < < < < < < < < < < < < < < < < < a q.            ",
"            r.a P < < < < < < < < < < < < < < < < < < < < < < < < < < < < < < P a s.            ",
"            t.a u.< < < < < < < T g.g.h., , , v.v., , , w.x.g.y.< < < < < < < z.a '             ",
"              m A.< < o.].B.C.6 a a a a a a a a a a a a a a a a D.0.O E.Q < < F.F               ",
"              % a l.A D.a a a a a a a a a a a a a a a a a a a a a a a a +.G.l.a %               ",
"              $ r 0.< V a H.I.B., , w g.g.g.g.g.g.g.g.g.g.w , , B.I.H.a M < 0.r $               ",
"                % a u.< J.< < < < < < < < < < < < < < < < < < < < < < K 7 K.a %                 ",
"                L.M.,.< < < 1.n v.A./ N.2 2 2 2 2 2 2 2 p.O./ P.).L < < < ,.M.L.                ",
"                  X 0.< Q.g a a a a a a a a a a a a a a a a a a a a ] , < 0.X                   ",
"                  >.R.< w.a a a a ] 2 S.^ / / / / / / / q 2 g a a a a , < R.>.                  ",
"                  >.a < P O ].g.< < < < < < < < < < < < < < < < T.W U.V.< a >.                  ",
"                  W.S.< < < < < X.g.N h., , , v.v., , , , N g.Q < < < < < S.W.                  ",
"                Y.# _.< g.Z.2  .a a a a a a a a a a a a a a a a `.2 Z. +< _.# .+                ",
"                ++a n < @+a a a a a a a a a a a a a a a a a a a a a a 9.< n a _                 ",
"                #+ .$+< R.] %+B., Q.g.g.S < < < < < ;.&+g.x.w.*+/ C.6 +.< $+ .=+                ",
"                -+;+< |.>+< < < < < < < < < < < < < < < < < < < < < < l.|.< 9.b.                ",
"                +++.,+7 < < < < < < < < < < < < < < < < < < < < < < < < '+]...)+                ",
"                  c.!++.~+C p {+< < < < < < < < < < < < < < < < {+&.M ]+] a )                   ",
"                    ^+/+b a a a `.2 2 ^ / / / O.O./ / / Z.2 2 `.a a a h (+k                     ",
"                          _+| %.:+>.+ ! ! h <+a a <+[+! ! 0 >.}+|+1+2+                          ",
"                                                                                                ",
"                                                                                                ",
"                                                                                                ",
"                                                                                                "};
