/* XPM */
static char * BlackMarshall_xpm[] = {
"48 48 208 2",
"  	c #00FF00",
". 	c #FFFFFF",
"+ 	c #FFFFFF",
"@ 	c #FFFFFF",
"# 	c #FFFFFF",
"$ 	c #FFFFFF",
"% 	c #FFFFFF",
"& 	c #FFFFFF",
"* 	c #FFFFFF",
"= 	c #FFFFFF",
"- 	c #FFFFFF",
"; 	c #FFFFFF",
"> 	c #FFFFFF",
", 	c #FFFFFF",
"' 	c #FFFFFF",
") 	c #FFFFFF",
"! 	c #E2E2E2",
"~ 	c #CBCBCB",
"{ 	c #D7D7D7",
"] 	c #FFFFFF",
"^ 	c #FFFFFF",
"/ 	c #F1F6F1",
"( 	c #FFFFFF",
"_ 	c #FFFFFF",
": 	c #FFFFFF",
"< 	c #AAAAAA",
"[ 	c #000000",
"} 	c #7C7C7C",
"| 	c #FFFFFF",
"1 	c #FFFFFF",
"2 	c #FFFFFF",
"3 	c #E7E7E7",
"4 	c #FFFFFF",
"5 	c #FFFFFF",
"6 	c #FFFFFF",
"7 	c #FFFFFF",
"8 	c #FFFFFF",
"9 	c #616161",
"0 	c #CCCCCC",
"a 	c #B8B8B8",
"b 	c #FAFAFA",
"c 	c #FFFFFF",
"d 	c #BFBFBF",
"e 	c #6D6D6D",
"f 	c #FEFEFE",
"g 	c #E3E3E3",
"h 	c #626262",
"i 	c #C0C0C0",
"j 	c #FFFFFF",
"k 	c #ADADAD",
"l 	c #4E4E4E",
"m 	c #FFFFFF",
"n 	c #FFFFFF",
"o 	c #A9A9A9",
"p 	c #B1B1B1",
"q 	c #ACACAC",
"r 	c #949494",
"s 	c #F4F4F4",
"t 	c #FFFFFF",
"u 	c #FFFFFF",
"v 	c #FFFFFF",
"w 	c #383838",
"x 	c #EDEDED",
"y 	c #8A8A8A",
"z 	c #FBFBFB",
"A 	c #ECECEC",
"B 	c #373737",
"C 	c #FFFFFF",
"D 	c #B7B7B7",
"E 	c #B5B5B5",
"F 	c #515151",
"G 	c #A0A0A0",
"H 	c #C8C8C8",
"I 	c #FFFFFF",
"J 	c #FFFFFF",
"K 	c #D3D3D3",
"L 	c #FFFFFF",
"M 	c #F5F5F5",
"N 	c #080808",
"O 	c #FFFFFF",
"P 	c #FFFFFF",
"Q 	c #868686",
"R 	c #A2A2A2",
"S 	c #E0E0E0",
"T 	c #595959",
"U 	c #4C4C4C",
"V 	c #FCFCFC",
"W 	c #919191",
"X 	c #F2F2F2",
"Y 	c #FFFFFF",
"Z 	c #FFFFFF",
"` 	c #CFCFCF",
" .	c #111111",
"..	c #DDDDDD",
"+.	c #F1F1F1",
"@.	c #424242",
"#.	c #545454",
"$.	c #C2C2C2",
"%.	c #FFFFFF",
"&.	c #FFFFFF",
"*.	c #2E2E2E",
"=.	c #505050",
"-.	c #ABABAB",
";.	c #E8E8E8",
">.	c #5A5A5A",
",.	c #909090",
"'.	c #FFFFFF",
").	c #878787",
"!.	c #F8F8F8",
"~.	c #8F8F8F",
"{.	c #7A7A7A",
"].	c #F6F6F6",
"^.	c #FFFFFF",
"/.	c #FFFFFF",
"(.	c #D4D4D4",
"_.	c #7D7D7D",
":.	c #E1E1E1",
"<.	c #888888",
"[.	c #828282",
"}.	c #FFFFFF",
"|.	c #FFFFFF",
"1.	c #BCBCBC",
"2.	c #D1D1D1",
"3.	c #898989",
"4.	c #9E9E9E",
"5.	c #FFFFFF",
"6.	c #FFFFFF",
"7.	c #7B7B7B",
"8.	c #9B9B9B",
"9.	c #535353",
"0.	c #FFFFFF",
"a.	c #555555",
"b.	c #BDBDBD",
"c.	c #C6C6C6",
"d.	c #5D5D5D",
"e.	c #E9E9E9",
"f.	c #DFDFDF",
"g.	c #D8D8D8",
"h.	c #444444",
"i.	c #FFFFFF",
"j.	c #838383",
"k.	c #EEEEEE",
"l.	c #656565",
"m.	c #A6A6A6",
"n.	c #FFFFFF",
"o.	c #FFFFFF",
"p.	c #525252",
"q.	c #C7C7C7",
"r.	c #020202",
"s.	c #FFFFFF",
"t.	c #6F6F6F",
"u.	c #6A6A6A",
"v.	c #393939",
"w.	c #FFFFFF",
"x.	c #494949",
"y.	c #F7F7F7",
"z.	c #212121",
"A.	c #323232",
"B.	c #787878",
"C.	c #929292",
"D.	c #999999",
"E.	c #FFFFFF",
"F.	c #FFFFFF",
"G.	c #606060",
"H.	c #434343",
"I.	c #9C9C9C",
"J.	c #E6E6E6",
"K.	c #C3C3C3",
"L.	c #FFFFFF",
"M.	c #FFFFFF",
"N.	c #DADADA",
"O.	c #C5C5C5",
"P.	c #FFFFFF",
"Q.	c #FFFFFF",
"R.	c #4F4F4F",
"S.	c #B0B0B0",
"T.	c #717171",
"U.	c #FFFFFF",
"V.	c #989898",
"W.	c #FFFFFF",
"X.	c #FFFFFF",
"Y.	c #0B0B0B",
"Z.	c #FFFFFF",
"`.	c #F3F3F3",
" +	c #5E5E5E",
".+	c #C9C9C9",
"++	c #FFFFFF",
"@+	c #FFFFFF",
"#+	c #363636",
"$+	c #FFFFFF",
"%+	c #E5E5E5",
"&+	c #FFFFFF",
"*+	c #030303",
"=+	c #FFFFFF",
"-+	c #2D2D2D",
";+	c #060606",
">+	c #FFFFFF",
",+	c #FFFFFF",
"'+	c #FFFFFF",
")+	c #EAEAEA",
"!+	c #FFFFFF",
"~+	c #CACACA",
"{+	c #2B2B2B",
"]+	c #818181",
"^+	c #808080",
"/+	c #FFFFFF",
"(+	c #FFFFFF",
"_+	c #FFFFFF",
"                                                                                                ",
"                                                                                                ",
"                                                                                                ",
"                    . + @ @ @ # $ %     & * @ @ @ @ = -     % ; > @ @ @ , '                     ",
"                  ) ! ~ ~ ~ ~ ~ { ]   ^ / ~ ~ ~ ~ ~ ~ / (   > { ~ ~ ~ ~ ~ ! _                   ",
"                  : < [ [ [ [ [ } | 1 2 3 [ [ [ [ [ [ 3 4 5 | } [ [ [ [ [ < 6                   ",
"                7 | < [ [ [ [ [ } | | | 3 [ [ [ [ [ [ 3 | | | } [ [ [ [ [ < |                   ",
"                8 | < [ [ [ [ [ 9 0 0 0 a [ [ [ [ [ [ a 0 0 0 9 [ [ [ [ [ < |                   ",
"                8 | < [ [ [ [ [ [ [ [ [ [ [ [ [ [ [ [ [ [ [ [ [ [ [ [ [ [ < |                   ",
"                8 | < [ [ [ [ [ [ [ [ [ [ [ [ [ [ [ [ [ [ [ [ [ [ [ [ [ [ < |                   ",
"                % | < [ } } } } } } } } } } } } } } } } } } } } } } } } [ < |                   ",
"                  | < [ b | | | | | | | | | | | | | | | | | | | | | | b [ < |                   ",
"                  c d [ e 3 f f f f f f f f f f f f f f f f f f f f g h [ i j                   ",
"                  _ | k [ [ [ [ [ [ [ [ [ [ [ [ [ [ [ [ [ [ [ [ [ [ [ l { | m                   ",
"                  n | o [ [ [ [ p ~ ~ ~ ~ q h ~ ~ ~ ~ ~ ~ ~ ~ q [ [ r s t u                     ",
"                  v | < [ [ [ [ w x | | ! w [ y z | | | | | A B w ~ | 4 C                       ",
"                    | D [ [ [ [ [ E ~ ~ F [ [ [ G ~ ~ ~ ~ ~ a [ H | 5 I                         ",
"                    J K [ [ [ [ [ [ [ [ [ [ [ [ [ [ [ [ [ [ [ [ ~ | L                           ",
"                    5 M [ [ [ [ [ [ [ [ [ [ [ [ [ N [ [ [ [ [ [ ~ | O                           ",
"                    P | Q [ [ [ [ R S T [ [ [ [ [ U V S a h [ [ W X | ) Y                       ",
"                  Z | `  .[ [ [ ..| +.@.[ [ [ [ [ #.| | | | ..Q [ w $.| > %.                    ",
"                % &.g *.[ [ [ [ E R [ [ [ [ [ [ [ [ =.-.;.| | | { >.[ ,.b 2 '.                  ",
"                O b 9 [ [ [ [ [ [ [ [ [ [ [ [ [ [ [ [ [ [ ).! | | !.~.[ {.].^.%                 ",
"                /.(.[ [ [ _.:.| <.[ [ [ [ [ [ [ [ [ [ [ [ [ [ R b | | o [ [.b }.                ",
"                |.1.[ [ < | | 2.w [ [ [ [ [ [ [ [ [ [ [ [ [ [ [ Q b | f 3.[ 4.| 5.              ",
"              6.| < [ 7.f | | i [ [ [ [ [ [ [ [ [ [ [ [ [ [ [ [ [ 8.| | M 9.[ ` t 0.            ",
"              5 V a.[ ~ z b.c.d.[ [ [ [ [ [ [ [ [ e.f.[ [ [ [ [ [ [ { | | g.[ h.].P             ",
"            i.| $.[ [ =.j.[ [ [ [ [ [ [ [ [ [ [ [ k.3 [ [ [ [ [ [ [ l.z | | ).[ m.| n.          ",
"          o.&.x w [ [ [ [ [ [ [ [ [ [ [ [ [ [ [ p.| 0 [ [ [ [ [ [ [ [ q.| | g [ r.A >           ",
"        s.> b t.[ [ [ [ [ [ [ [ [ [ [ [ [ [ [ [ ~ | Q [ [ [ [ [ [ [ [ u.| | | [.[ < | 0.        ",
"        ; | r [ [ [ [ [ [ [ [ [ [ [ [ [ [ [ [ ,.| ` [ [ [ [ [ [ [ [ [ [ ..| | 0 [ v.b )         ",
"      w.| d [ [ [ [ [ [ [ [ [ [ [ [ [ [ [ [ [ x.< w [ [ [ [ [ [ [ [ [ [ o | | y.z.[ 2.2         ",
"      ] A A.[ [ [ [ [ [ [ [ [ [ [ [ [ [ [ [ [ B.[ [ [ [ [ [ [ [ [ [ [ [ =.| | | C.[ D.| E.      ",
"    F.| R [ [ [ G.H.[ [ [ [ [ [ [ [ [ [ w I.! 3 [ [ [ [ [ [ [ [ [ [ [ [ [ J.| | K.[ U | L.      ",
"    M.| v.[ [ < V N.[ [ [ [ [ [ [ [ =.O.!.| | $.[ [ [ [ [ [ [ [ [ [ [ [ [ H | | J.[ [ A P.      ",
"    Q.| [ [ p.z 3 R.[ [ [ [ [ [ [ S.b | | | | T.[ [ [ [ [ [ [ [ [ [ [ [ [ < | | V [ [ 2.@       ",
"    U.| 9 [ 9 3 V.[ [ D.[ [ [ w N.| @ Z + | ~ [ [ [ [ [ [ [ [ [ [ [ [ [ [ ).| | | T [ 1.W.      ",
"    8 X.< [ [ [ [ [ a z A.[ Y.:.| ;   O | ! w [ [ [ [ [ [ [ [ [ [ [ [ [ [ } | | | } [ < | Z.    ",
"      5 `.9.[ [ [  +f .+[ [ 1.| ++  @+| { #+[ [ [ [ [ [ [ [ [ [ [ [ [ [ [ } | | | } [ D.| &     ",
"      $+2 %+l.[ [ [ t.w [ u.z }.  &+| ~ *+[ [ [ [ [ [ [ [ [ [ [ [ [ [ [ [ } | | | } [ } | &     ",
"        '.=+V { 0 q.-+[ ;+..>+o.,+| ~ [ [ [ [ [ [ [ [ [ [ [ [ [ [ [ [ [ [ } | | | } [ } | &     ",
"          % '+] 6 | A ~ )+: n.  !+~+{+{+{+{+{+{+{+{+{+{+{+{+{+{+{+{+{+{+{+]+| | | ]+{+^+t /+    ",
"                  ^ ) (+) $+    % > | | | | | | | | | | | | | | | | | | | | | | | | | |.Q.      ",
"                                    w._+Q.Q.Q.Q.Q.Q.Q.Q.Q.Q.Q.Q.Q.Q.Q.Q.Q.Q.Q.Q.Q.Q.M.$+        ",
"                                                                                                ",
"                                                                                                ",
"                                                                                                ",
"                                                                                                "};
