/* XPM */
static char * BlackBishop_xpm[] = {
"48 48 178 2",
"  	c #00FF00",
". 	c #FFFFFF",
"+ 	c #FFFFFF",
"@ 	c #FFFFFF",
"# 	c #FFFFFF",
"$ 	c #FFFFFF",
"% 	c #E0E0E0",
"& 	c #AAAAAA",
"* 	c #FFFFFF",
"= 	c #FFFFFF",
"- 	c #FFFFFF",
"; 	c #CBCBCB",
"> 	c #000000",
", 	c #FFFFFF",
"' 	c #FFFFFF",
") 	c #F9F9F9",
"! 	c #383838",
"~ 	c #FFFFFF",
"{ 	c #E7E7E7",
"] 	c #FFFFFF",
"^ 	c #FFFFFF",
"/ 	c #F6F6F6",
"( 	c #171717",
"_ 	c #FFFFFF",
": 	c #FFFFFF",
"< 	c #FFFFFF",
"[ 	c #B6B6B6",
"} 	c #FFFFFF",
"| 	c #FFFFFF",
"1 	c #828282",
"2 	c #FFFFFF",
"3 	c #FFFFFF",
"4 	c #C3C3C3",
"5 	c #C7C7C7",
"6 	c #FFFFFF",
"7 	c #FFFFFF",
"8 	c #BABABA",
"9 	c #FFFFFF",
"0 	c #FFFFFF",
"a 	c #FAFAFA",
"b 	c #A7A7A7",
"c 	c #FEFEFE",
"d 	c #FFFFFF",
"e 	c #FFFFFF",
"f 	c #FFFFFF",
"g 	c #F1F1F1",
"h 	c #868686",
"i 	c #F3F3F3",
"j 	c #FFFFFF",
"k 	c #E2E2E2",
"l 	c #5E5E5E",
"m 	c #FFFFFF",
"n 	c #373737",
"o 	c #9F9F9F",
"p 	c #FFFFFF",
"q 	c #FFFFFF",
"r 	c #FFFFFF",
"s 	c #3D3D3D",
"t 	c #4B4B4B",
"u 	c #FFFFFF",
"v 	c #FFFFFF",
"w 	c #B8B8B8",
"x 	c #FFFFFF",
"y 	c #FFFFFF",
"z 	c #5F5F5F",
"A 	c #9C9C9C",
"B 	c #A2A2A2",
"C 	c #6E6E6E",
"D 	c #FFFFFF",
"E 	c #FFFFFF",
"F 	c #DDDDDD",
"G 	c #F8F8F8",
"H 	c #FFFFFF",
"I 	c #7D7D7D",
"J 	c #7C7C7C",
"K 	c #ECECEC",
"L 	c #E9E9E9",
"M 	c #DEDEDE",
"N 	c #FFFFFF",
"O 	c #FFFFFF",
"P 	c #8A8A8A",
"Q 	c #909090",
"R 	c #FFFFFF",
"S 	c #E1E1E1",
"T 	c #FFFFFF",
"U 	c #5B5B5B",
"V 	c #ACACAC",
"W 	c #FFFFFF",
"X 	c #BDBDBD",
"Y 	c #2A2A2A",
"Z 	c #BFBFBF",
"` 	c #FFFFFF",
" .	c #727272",
"..	c #292929",
"+.	c #747474",
"@.	c #545454",
"#.	c #3F3F3F",
"$.	c #D9D9D9",
"%.	c #939393",
"&.	c #C6C6C6",
"*.	c #CFCFCF",
"=.	c #E5E5E5",
"-.	c #515151",
";.	c #FFFFFF",
">.	c #C5C5C5",
",.	c #FFFFFF",
"'.	c #B9B9B9",
").	c #181818",
"!.	c #EEEEEE",
"~.	c #BBBBBB",
"{.	c #E4E4E4",
"].	c #FFFFFF",
"^.	c #6F6F6F",
"/.	c #050505",
"(.	c #2D2D2D",
"_.	c #FFFFFF",
":.	c #FFFFFF",
"<.	c #FFFFFF",
"[.	c #FFFFFF",
"}.	c #FFFFFF",
"|.	c #5C5C5C",
"1.	c #5D5D5D",
"2.	c #8B8B8B",
"3.	c #DFDFDF",
"4.	c #FFFFFF",
"5.	c #FFFFFF",
"6.	c #FFFFFF",
"7.	c #8F8F8F",
"8.	c #4C4C4C",
"9.	c #606060",
"0.	c #393939",
"a.	c #9B9B9B",
"b.	c #FBFBFB",
"c.	c #FFFFFF",
"d.	c #A5A5A5",
"e.	c #B7B7B7",
"f.	c #CDCDCD",
"g.	c #707070",
"h.	c #A3A3A3",
"i.	c #FFFFFF",
"j.	c #FFFFFF",
"k.	c #F6FBF6",
"l.	c #A6A6A6",
"m.	c #505050",
"n.	c #616161",
"o.	c #FFFFFF",
"p.	c #FFFFFF",
"q.	c #FFFFFF",
"r.	c #EBEBEB",
"s.	c #565656",
"t.	c #040404",
"u.	c #7B7B7B",
"v.	c #777777",
"w.	c #A1A1A1",
"x.	c #F4F4F4",
"y.	c #C8C8C8",
"z.	c #E8E8E8",
"A.	c #D7D7D7",
"B.	c #C9C9C9",
"C.	c #A9A9A9",
"D.	c #D8D8D8",
"E.	c #FFFFFF",
"F.	c #D4D4D4",
"G.	c #9A9A9A",
"H.	c #919191",
"I.	c #FFFFFF",
"J.	c #FFFFFF",
"K.	c #FFFFFF",
"L.	c #FFFFFF",
"M.	c #FFFFFF",
"N.	c #FFFFFF",
"O.	c #FFFFFF",
"P.	c #FFFFFF",
"Q.	c #FFFFFF",
"R.	c #FFFFFF",
"S.	c #FFFFFF",
"T.	c #FFFFFF",
"U.	c #FFFFFF",
"                                                                                                ",
"                                          . + @ # + .                                           ",
"                                        $ # % & & % # *                                         ",
"                                      = - ; > > > > ; - ,                                       ",
"                                      ' ) ! > > > > ! ) '                                       ",
"                                      ~ { > > > > > > { ]                                       ",
"                                      ^ / > > > > > ( / _                                       ",
"                                      : < [ > > > > [ < }                                       ",
"                                      | < < 1 > > 1 < < |                                       ",
"                                    2 3 < 4 > > > > 5 < 6                                       ",
"                                  | 7 < 8 > > > > > > 5 < + |                                   ",
"                                9 0 a b > > > > > > > > & c d e                                 ",
"                              f @ g h > > > > > > > > > > h i @ j                               ",
"                            f @ k l > > > > > > > > > > > > l k @ j                             ",
"                          m @ k n > > > > > > o o > > > > > > ! k p q                           ",
"                          r / s > > > > > > > { { > > > > > > > t / u                           ",
"                        v # [ > > > > > > > > { { > > > > > > > > w # x                         ",
"                        y < z > > > > > A ; ; / / ; ; B > > > > > C < D                         ",
"                        E i > > > > > > F < < < < < < k > > > > > > G H                         ",
"                        6 { > > > > > > ! I J K K I I ! > > > > > > { 6                         ",
"                        6 { > > > > > > > > > { { > > > > > > > > > L 6                         ",
"                        H a > > > > > > > > > M M > > > > > > > > > < N                         ",
"                        O < P > > > > > > > > > > > > > > > > > > Q < R                         ",
"                          d S > > > > > > > > > > > > > > > > > > S d                           ",
"                          T < & > > > > > U J J J J l > > > > > V < W                           ",
"                            u < X Y > > ; < < < < < < ; > > n Z < `                             ",
"                              6 < K  .> / < < < < < < / ..+.K < 6                               ",
"                                0 < @.! J #.> > > > #.J ! @.< 0                                 ",
"                                p $.> > > > > > > > > > > > $.p                                 ",
"                              D < %.n & &.*.=.{ { =.*.5 & -.%.< D                               ",
"                              ;.g > Z < < < < < < < < < < >.> g ;.                              ",
"                              ,.'.).!.k ; ~.& & & & ~.; {.g ! '.,.                              ",
"                              ].^./.> > > > > > > > > > > > (.^.#                               ",
"                _.:.<.[.. R }.d < M w P |.> > > > > > 1.2.'.3.< d }.4.. [.<.5.6.                ",
"          6.r - < < < < < < < < < < < a 7.8.i 9.C g 0.a.b.< < < < < < < < < < < - r 6.          ",
"        c.< !.w P J J ^.J d.e.f.{ { $.g.! k g > > / k ! +.$.{ { f.e.h.J ^.J J P w !.i.c.        ",
"      j.k.l.> > > > > > > > > > > > > > m.J n.( > n.J m.> > > > > > > > > > > > > > l.k.o.      ",
"      p.a ^.> > > > > > > > > > > > > > > > > Q Q > > > > > > > > > > > > > > > > > C a q.      ",
"        d F > > > > > > > > > > > > > > > > 0.L r.s.> > > > > > > > > > > > > > > > F d         ",
"        T < a.> t.u.J 9.> > > > > > > > > v.!.< < g +.> > > > > > > > > 9.J u./.> w.< T         ",
"          6 x.y.b.< < < < z.A.B.C.Q J w.D.< d E.E.d < F.G.J H.C.B.A.L < < < < a y./ 6           ",
"            I.6 J._ _ _ K.L.M.N.< < < < O.<.P.    Q.R.M.< < < < N.M.L.K._ _ _ J.6 I.            ",
"                                S.. O T.                U.O . S.                                ",
"                                                                                                ",
"                                                                                                ",
"                                                                                                ",
"                                                                                                ",
"                                                                                                "};
