/* XPM */
static char * BlackRook_xpm[] = {
"48 48 74 1",
" 	c #00FF00",
".	c #FFFFFF",
"+	c #FFFFFF",
"@	c #FFFFFF",
"#	c #FFFFFF",
"$	c #FFFFFF",
"%	c #FFFFFF",
"&	c #FFFFFF",
"*	c #FFFFFF",
"=	c #E2E2E2",
"-	c #CBCBCB",
";	c #D7D7D7",
">	c #FFFFFF",
",	c #FFFFFF",
"'	c #F2F6F2",
")	c #FFFFFF",
"!	c #AAAAAA",
"~	c #000000",
"{	c #7C7C7C",
"]	c #FFFFFF",
"^	c #FFFFFF",
"/	c #E7E7E7",
"(	c #FFFFFF",
"_	c #6F6F6F",
":	c #D1D1D1",
"<	c #ECECEC",
"[	c #FFFFFF",
"}	c #383838",
"|	c #CDCDCD",
"1	c #FFFFFF",
"2	c #FFFFFF",
"3	c #DFDFDF",
"4	c #4E4E4E",
"5	c #FFFFFF",
"6	c #FFFFFF",
"7	c #F1F1F1",
"8	c #838383",
"9	c #020202",
"0	c #B8B8B8",
"a	c #FFFFFF",
"b	c #FFFFFF",
"c	c #FCFCFC",
"d	c #B2B2B2",
"e	c #414141",
"f	c #FFFFFF",
"g	c #FFFFFF",
"h	c #FFFFFF",
"i	c #FFFFFF",
"j	c #FFFFFF",
"k	c #B9B9B9",
"l	c #FFFFFF",
"m	c #CECECE",
"n	c #0F0F0F",
"o	c #616161",
"p	c #F6F6F6",
"q	c #FFFFFF",
"r	c #090909",
"s	c #FFFFFF",
"t	c #FFFFFF",
"u	c #DEDEDE",
"v	c #FFFFFF",
"w	c #FFFFFF",
"x	c #FFFFFF",
"y	c #FFFFFF",
"z	c #FFFFFF",
"A	c #FFFFFF",
"B	c #FFFFFF",
"C	c #FFFFFF",
"D	c #868686",
"E	c #FFFFFF",
"F	c #FFFFFF",
"G	c #999999",
"H	c #FFFFFF",
"I	c #FFFFFF",
"                                                ",
"                                                ",
"          .+@@@@#$  %&@@@@&%  *#@@@@+.          ",
"         #=-----;> ,'------', +;-----=#         ",
"         )!~~~~~{]^@/~~~~~~/@(]{~~~~~!)         ",
"         ]!~~~~~{]]]/~~~~~~/]]]{~~~~~!]         ",
"         ]!~~~~~_///:~~~~~~:///_~~~~~!]         ",
"         ]!~~~~~~~~~~~~~~~~~~~~~~~~~~!]         ",
"         ]!~~~~~~~~~~~~~~~~~~~~~~~~~~!]         ",
"         ]!~~~~~~~~~~~~~~~~~~~~~~~~~~!]         ",
"         ]!~------------------------~!]         ",
"         ]!~<]]]]]]]]]]]]]]]]]]]]]]<~!]         ",
"         [:~}|////////////////////|}~:[         ",
"         1234~~~~~~~~~~~~~~~~~~~~~~4321         ",
"          5678~90--------------09~8765          ",
"           abcd~e7]]]]]]]]]]]]7e~dcba           ",
"            $+]0~:////////////:~0]+$            ",
"             f]-~~~~~~~~~~~~~~~~-]f             ",
"              g-~~~~~~~~~~~~~~~~-g              ",
"              h-~~~~~~~~~~~~~~~~-h              ",
"              h-~~~~~~~~~~~~~~~~-h              ",
"              i-~~~~~~~~~~~~~~~~-i              ",
"              i-~~~~~~~~~~~~~~~~-i              ",
"              h-~~~~~~~~~~~~~~~~-h              ",
"              h-~~~~~~~~~~~~~~~~-h              ",
"              2-~~~~~~~~~~~~~~~~-2              ",
"             $]-~~~~~~~~~~~~~~~~-]$             ",
"             j]k~:////////////:~k]j             ",
"            l]mnop]]]]]]]]]]]]ponm]l            ",
"           q]mr~0--------------0~rm]s           ",
"          a6mn~~~~~~~~~~~~~~~~~~~~nm6a          ",
"          tuno=//////////////////=onuv          ",
"          @-~=]]]]]]]]]]]]]]]]]]]]=~-@          ",
"          6-~0--------------------0~-w          ",
"         x]-~~~~~~~~~~~~~~~~~~~~~~~~-]y         ",
"       zA]]-~~~~~~~~~~~~~~~~~~~~~~~~-]]Bz       ",
"      C6!!!D~/]]]]]]]]]]]]]]]]]]]]/~D!!!6f      ",
"      E]~~~~~/]]]]]]]]]]]]]]]]]]]]/~~~~~]F      ",
"      l]~~~~~G!!!!!!!!!!!!!!!!!!!!G~~~~~]l      ",
"      l]~~~~~~~~~~~~~~~~~~~~~~~~~~~~~~~~]l      ",
"      l]~~~~~~~~~~~~~~~~~~~~~~~~~~~~~~~~]l      ",
"      H]~~~~~~~~~~~~~~~~~~~~~~~~~~~~~~~~],      ",
"       v]]]]]]]]]]]]]]]]]]]]]]]]]]]]]]]]t       ",
"        HllllllllllllllllllllllllllllllI        ",
"                                                ",
"                                                ",
"                                                ",
"                                                "};
