/* XPM */
static char * WhitePawn_xpm[] = {
"48 48 164 2",
"  	c #00FF00",
". 	c #FFFFFF",
"+ 	c #FFFFFF",
"@ 	c #FFFFFF",
"# 	c #FFFFFF",
"$ 	c #FFFFFF",
"% 	c #FFFFFF",
"& 	c #FFFFFF",
"* 	c #FFFFFF",
"= 	c #FFFFFF",
"- 	c #EDEDED",
"; 	c #8B8B8B",
"> 	c #6E6E6E",
", 	c #9E9E9E",
"' 	c #F5F5F5",
") 	c #FFFFFF",
"! 	c #FFFFFF",
"~ 	c #FFFFFF",
"{ 	c #FFFFFF",
"] 	c #C7C7C7",
"^ 	c #212121",
"/ 	c #000000",
"( 	c #303030",
"_ 	c #E3E3E3",
": 	c #FFFFFF",
"< 	c #191919",
"[ 	c #A8A8A8",
"} 	c #F7F7F7",
"| 	c #FFFFFF",
"1 	c #FFFFFF",
"2 	c #FFFFFF",
"3 	c #727272",
"4 	c #D6D6D6",
"5 	c #989898",
"6 	c #FFFFFF",
"7 	c #FFFFFF",
"8 	c #434343",
"9 	c #3F3F3F",
"0 	c #0B0B0B",
"a 	c #656565",
"b 	c #101010",
"c 	c #5D5D5D",
"d 	c #FFFFFF",
"e 	c #FFFFFF",
"f 	c #C9C9C9",
"g 	c #818181",
"h 	c #FFFFFF",
"i 	c #FFFFFF",
"j 	c #CBCBCB",
"k 	c #4B4B4B",
"l 	c #E9E9E9",
"m 	c #FFFFFF",
"n 	c #FFFFFF",
"o 	c #9D9D9D",
"p 	c #8C8C8C",
"q 	c #767676",
"r 	c #090909",
"s 	c #FFFFFF",
"t 	c #545454",
"u 	c #999999",
"v 	c #777777",
"w 	c #5B5B5B",
"x 	c #FFFFFF",
"y 	c #FFFFFF",
"z 	c #FFFFFF",
"A 	c #202020",
"B 	c #646464",
"C 	c #A3A3A3",
"D 	c #909090",
"E 	c #5C5C5C",
"F 	c #161616",
"G 	c #141414",
"H 	c #FFFFFF",
"I 	c #A0A0A0",
"J 	c #4C4C4C",
"K 	c #DFDFDF",
"L 	c #414141",
"M 	c #BCBCBC",
"N 	c #FFFFFF",
"O 	c #404040",
"P 	c #E5E5E5",
"Q 	c #262626",
"R 	c #363636",
"S 	c #FFFFFF",
"T 	c #A5A5A5",
"U 	c #939393",
"V 	c #BEBEBE",
"W 	c #FFFFFF",
"X 	c #F9F9F9",
"Y 	c #D2D2D2",
"Z 	c #D4D4D4",
"` 	c #FFFFFF",
" .	c #828282",
"..	c #FFFFFF",
"+.	c #CDCDCD",
"@.	c #787878",
"#.	c #5E5E5E",
"$.	c #060606",
"%.	c #FFFFFF",
"&.	c #0F0F0F",
"*.	c #FFFFFF",
"=.	c #FFFFFF",
"-.	c #FFFFFF",
";.	c #4E4E4E",
">.	c #606060",
",.	c #FFFFFF",
"'.	c #FFFFFF",
").	c #DADADA",
"!.	c #121212",
"~.	c #595959",
"{.	c #424242",
"].	c #FFFFFF",
"^.	c #FFFFFF",
"/.	c #747474",
"(.	c #D8D8D8",
"_.	c #454545",
":.	c #151515",
"<.	c #858585",
"[.	c #FFFFFF",
"}.	c #FFFFFF",
"|.	c #494949",
"1.	c #C5C5C5",
"2.	c #616161",
"3.	c #FFFFFF",
"4.	c #FFFFFF",
"5.	c #949494",
"6.	c #ACACAC",
"7.	c #FFFFFF",
"8.	c #383838",
"9.	c #FFFFFF",
"0.	c #FFFFFF",
"a.	c #686868",
"b.	c #FFFFFF",
"c.	c #FFFFFF",
"d.	c #FFFFFF",
"e.	c #1A1A1A",
"f.	c #343434",
"g.	c #FFFFFF",
"h.	c #FFFFFF",
"i.	c #FFFFFF",
"j.	c #DCDCDC",
"k.	c #B3B3B3",
"l.	c #FFFFFF",
"m.	c #FFFFFF",
"n.	c #FFFFFF",
"o.	c #FCFCFC",
"p.	c #FFFFFF",
"q.	c #969696",
"r.	c #FFFFFF",
"s.	c #F3F3F3",
"t.	c #D0D0D0",
"u.	c #A7A7A7",
"v.	c #C0C0C0",
"w.	c #FFFFFF",
"x.	c #FFFFFF",
"y.	c #222222",
"z.	c #2E2E2E",
"A.	c #1B1B1B",
"B.	c #FFFFFF",
"C.	c #FFFFFF",
"D.	c #FFFFFF",
"E.	c #FFFFFF",
"F.	c #FFFFFF",
"G.	c #FFFFFF",
"                                                                                                ",
"                                                                                                ",
"                                        . + @ # # $ % &                                         ",
"                                      * = - ; > > , ' ) !                                       ",
"                                    ~ { ] ^ / / / / ( _ ) &                                     ",
"                                    : _ < ( ] # # [ < ( } |                                     ",
"                                  1 2 3 / 4 # # # # [ / 5 6                                     ",
"                                  7 # 8 9 # # # # # # 0 a #                                     ",
"                                  7 # 8 8 # # # # # # b c # d                                   ",
"                                  e # c < - # # # # f / g h                                     ",
"                                    i j / k ' # # _ ( < l m                                     ",
"                                  n # # o / p # # q r ] # 2 *                                   ",
"                                s # ] t / / u # # v / 0 w 4 x y                                 ",
"                              z # g / A B C } # # ' D E F G , # H                               ",
"                            . 2 I / J - # # # # # # # # K L / M 6 &                             ",
"                            N - < O ' # # # # # # # # # # P Q R # S                             ",
"                            m T / M # # # # # # # # # # # # U / V W                             ",
"                            # > / X # # # # # # # # # # # # Y / , m                             ",
"                            # > / # # # # # # # # # # # # # Z / , m                             ",
"                            `  ./ _ # # # # # # # # # # # # V / [ ..                            ",
"                            W +./ @.# # # # # # # # # # # # #.$.- N                             ",
"                            %.# t &.] # # # # # # # # # # , / 3 # *.                            ",
"                              =._ ( / v ' # # # # # # _ a / k ' -.                              ",
"                              %.# _ ;./ > # # # # # # t / >.' # ,.                              ",
"                            & '.# ).a !.~.# # # # # # {.< v l # ].1                             ",
"                          ! ^.' /./ !.t 4 # # # # # # ] J / < ; # '.&                           ",
"                        ! @ _ L / c P # # # # # # # # # # (._./ t ' '.&                         ",
"                      & $ _ ( :.I # # # # # # # # # # # # # # <./ k ' [.                        ",
"                      }.} |.$.1.# # # # # # # # # # # # # # # # , / 2.# 3.                      ",
"                    4.# g / 5.# # # # # # # # # # # # # # # # # # > / 6.2 .                     ",
"                    7.).&.t # # # # # # # # # # # # # # # # # # # ' 8.Q } 9.                    ",
"                  0.# a./ ).# # # # # # # # # # # # # # # # # # # # 6./ 5.b.c.                  ",
"                  d.' e.t # # # # # # # # # # # # # # # # # # # # # # f.O # g.                  ",
"                  h.M / T # # # # # # # # # # # # # # # # # # # # # # g / _ 9.                  ",
"                  i.; / j.# # # # # # # # # # # # # # # # # # # # # # V / k.l.                  ",
"                  # > / # # # # # # # # # # # # # # # # # # # # # # # (./ I m.                  ",
"                n.# > / # # # # # # # # # # # # # # # # # # # # # # # o./ ; i                   ",
"                p.# > / # # # # # # # # # # # # # # # # # # # # # # # l / q.r.                  ",
"                  # 3 / s.# # # # # # # # # # # # # # # # # # # # # # t./ , m                   ",
"                  m.u./ v.# # # # # # # # # # # # # # # # # # # # # # u / ] w.                  ",
"                  x._ / y.z.z.z.z.z.z.z.z.z.z.z.z.z.z.z.z.z.z.z.z.z.z.A.< o.3.                  ",
"                  *.B./.>.>.>.>.>.>.>.>.>.>.>.>.>.>.>.>.>.>.>.>.>.>.>.>.; ` C.                  ",
"                    %.D.# # # # # # # # # # # # # # # # # # # # # # # # E.*                     ",
"                        F.7 7 7 7 7 7 7 7 7 7 7 7 7 7 7 7 7 7 7 7 7 7 G.                        ",
"                                                                                                ",
"                                                                                                ",
"                                                                                                ",
"                                                                                                "};
