/* XPM */
static char * WhiteMarshal_xpm[] = {
"48 48 213 2",
"  	c #00FF00",
". 	c #FFFFFF",
"+ 	c #FFFFFF",
"@ 	c #FFFFFF",
"# 	c #FFFFFF",
"$ 	c #FFFFFF",
"% 	c #FFFFFF",
"& 	c #FFFFFF",
"* 	c #FFFFFF",
"= 	c #FFFFFF",
"- 	c #AAAAAA",
"; 	c #707070",
"> 	c #8D8D8D",
", 	c #FFFFFF",
"' 	c #E4E4E4",
") 	c #FFFFFF",
"! 	c #FFFFFF",
"~ 	c #000000",
"{ 	c #454545",
"] 	c #1A1A1A",
"^ 	c #FFFFFF",
"/ 	c #D1D1D1",
"( 	c #323232",
"_ 	c #FFFFFF",
": 	c #FFFFFF",
"< 	c #A0A0A0",
"[ 	c #222222",
"} 	c #5D5D5D",
"| 	c #4F4F4F",
"1 	c #676767",
"2 	c #444444",
"3 	c #B4B4B4",
"4 	c #DEDEDE",
"5 	c #FFFFFF",
"6 	c #292929",
"7 	c #979797",
"8 	c #A1A1A1",
"9 	c #FFFFFF",
"0 	c #939393",
"a 	c #111111",
"b 	c #393939",
"c 	c #D7D7D7",
"d 	c #3B3B3B",
"e 	c #464646",
"f 	c #FFFFFF",
"g 	c #FFFFFF",
"h 	c #757575",
"i 	c #878787",
"j 	c #6F6F6F",
"k 	c #777777",
"l 	c #101010",
"m 	c #8A8A8A",
"n 	c #FFFFFF",
"o 	c #3C3C3C",
"p 	c #020202",
"q 	c #010101",
"r 	c #D3D3D3",
"s 	c #FFFFFF",
"t 	c #FFFFFF",
"u 	c #9E9E9E",
"v 	c #D5D5D5",
"w 	c #ABABAB",
"x 	c #303030",
"y 	c #858585",
"z 	c #F2F2F2",
"A 	c #2B2B2B",
"B 	c #565656",
"C 	c #FFFFFF",
"D 	c #FFFFFF",
"E 	c #C1C1C1",
"F 	c #F5F5F5",
"G 	c #646464",
"H 	c #888888",
"I 	c #969696",
"J 	c #5E5E5E",
"K 	c #7B7B7B",
"L 	c #A3A3A3",
"M 	c #DBDBDB",
"N 	c #FFFFFF",
"O 	c #F7F7F7",
"P 	c #606060",
"Q 	c #505050",
"R 	c #555555",
"S 	c #313131",
"T 	c #1D1D1D",
"U 	c #575757",
"V 	c #FFFFFF",
"W 	c #FFFFFF",
"X 	c #595959",
"Y 	c #F0F0F0",
"Z 	c #3A3A3A",
"` 	c #8E8E8E",
" .	c #717171",
"..	c #FDFDFD",
"+.	c #DDDDDD",
"@.	c #484848",
"#.	c #FFFFFF",
"$.	c #FFFFFF",
"%.	c #040404",
"&.	c #E2E2E2",
"*.	c #CECECE",
"=.	c #6C6C6C",
"-.	c #797979",
";.	c #FFFFFF",
">.	c #191919",
",.	c #4D4D4D",
"'.	c #4E4E4E",
").	c #232323",
"!.	c #3F3F3F",
"~.	c #424242",
"{.	c #FFFFFF",
"].	c #FFFFFF",
"^.	c #FFFFFF",
"/.	c #343434",
"(.	c #272727",
"_.	c #EEEEEE",
":.	c #EAEAEA",
"<.	c #CFCFCF",
"[.	c #E8E8E8",
"}.	c #FFFFFF",
"|.	c #B9B9B9",
"1.	c #434343",
"2.	c #B6B6B6",
"3.	c #E6E6E6",
"4.	c #FFFFFF",
"5.	c #FFFFFF",
"6.	c #696969",
"7.	c #FFFFFF",
"8.	c #FFFFFF",
"9.	c #848484",
"0.	c #7E7E7E",
"a.	c #FFFFFF",
"b.	c #FFFFFF",
"c.	c #363636",
"d.	c #404040",
"e.	c #747474",
"f.	c #171717",
"g.	c #FFFFFF",
"h.	c #FFFFFF",
"i.	c #9B9B9B",
"j.	c #545454",
"k.	c #FFFFFF",
"l.	c #E0E0E0",
"m.	c #5F5F5F",
"n.	c #131313",
"o.	c #C8C8C8",
"p.	c #FFFFFF",
"q.	c #FFFFFF",
"r.	c #F4F4F4",
"s.	c #FFFFFF",
"t.	c #ADADAD",
"u.	c #626262",
"v.	c #BBBBBB",
"w.	c #FFFFFF",
"x.	c #909090",
"y.	c #262626",
"z.	c #FFFFFF",
"A.	c #FFFFFF",
"B.	c #767676",
"C.	c #212121",
"D.	c #5A5A5A",
"E.	c #686868",
"F.	c #FFFFFF",
"G.	c #FFFFFF",
"H.	c #AFAFAF",
"I.	c #252525",
"J.	c #CCCCCC",
"K.	c #D9D9D9",
"L.	c #FFFFFF",
"M.	c #FFFFFF",
"N.	c #2D2D2D",
"O.	c #525252",
"P.	c #060606",
"Q.	c #C6C6C6",
"R.	c #FFFFFF",
"S.	c #141414",
"T.	c #0A0A0A",
"U.	c #535353",
"V.	c #818181",
"W.	c #474747",
"X.	c #FFFFFF",
"Y.	c #FFFFFF",
"Z.	c #FFFFFF",
"`.	c #FFFFFF",
" +	c #A6A6A6",
".+	c #1E1E1E",
"++	c #C4C4C4",
"@+	c #FFFFFF",
"#+	c #FFFFFF",
"$+	c #FFFFFF",
"%+	c #333333",
"&+	c #999999",
"*+	c #1F1F1F",
"=+	c #7F7F7F",
"-+	c #FFFFFF",
";+	c #FFFFFF",
">+	c #B1B1B1",
",+	c #FFFFFF",
"'+	c #2E2E2E",
")+	c #3E3E3E",
"!+	c #FFFFFF",
"~+	c #FFFFFF",
"{+	c #FFFFFF",
"]+	c #1B1B1B",
"^+	c #FFFFFF",
"/+	c #FFFFFF",
"(+	c #414141",
"_+	c #FFFFFF",
":+	c #FFFFFF",
"<+	c #FFFFFF",
"[+	c #FFFFFF",
"}+	c #FFFFFF",
"|+	c #FFFFFF",
"                                                                                                ",
"                                                                                                ",
"                                                                                                ",
"                  . + @ # # # $ % &     * = # # # # = *     & % $ # # # @ + .                   ",
"                  + - ; ; ; ; ; > = . , ' ; ; ; ; ; ; ' , . ) > ; ; ; ; ; - +                   ",
"                  ! ; ~ { { { ] { # ^ ! / ~ ( { { ( ~ / _ : # { ] { { { ~ ; !                   ",
"                  # ; ~ # # # { { # # # / ~ < # # < ~ / # # # { { # # # ~ ; #                   ",
"                  # ; ~ # # # { [ } } } | ~ < # # < ~ | } } } [ { # # # ~ ; #                   ",
"                  # ; ~ # # # 1 2 2 2 2 2 2 3 # # 3 2 2 2 2 2 2 1 # # # ~ ; #                   ",
"                  # ; ~ # # # # # # # # # # # # # # # # # # # # # # # # ~ ; #                   ",
"                  # ; ~ 4 4 4 4 4 4 4 4 4 4 4 4 4 4 4 4 4 4 4 4 4 4 4 4 ~ ; #                   ",
"                  $ ; ~ ~ ~ ~ ~ ~ ~ ~ ~ ~ ~ ~ ~ ~ ~ ~ ~ ~ ~ ~ ~ ~ ~ ~ ~ ~ ; $                   ",
"                  5 3 ] ~ 6 7 8 8 8 8 8 8 8 8 8 8 8 8 8 8 8 8 8 8 7 6 ~ ] 3 %                   ",
"                  9 # 0 a ~ b c # # # # # # # # # # # # # # # # c d ~ e 4 _ f                   ",
"                  g # ; ~ ~ ~ ] h i i i i i j i i i i i i i i k ] l m # n f                     ",
"                    # ; ~ o ~ ~ ~ p p p q ~ ~ ~ p p p p p p p ~ d r # s .                       ",
"                    t u ~ v w x ~ y # z A ( w ] B # # # # # / ~ < # C                           ",
"                    D E ~ - # F G ~ ; H ~ / # I ~ J K L M # / ~ < # g                           ",
"                    N O ] P # # # Q ~ ~ R # # # S q T ~ ~ 6 U ~ < # V                           ",
"                    W # X ] Y / Z ~ 6 ~ ` # # #  .~ ..+.0 @.~ ~ { v # #..                       ",
"                  $.# w %.~ 0 &.h *.Y =./ # # # < ~ &.# # # c 1 ~ ~ -.F ;.&                     ",
"                . = *.>.,.'.).# # # # # # # # # / -.# # # # # # / !.~ ~.' {.].                  ",
"                ^.O /.(._.:.<.# [.# # # # # # # # # # # # # # # # O ; ~ ( ' ) &                 ",
"                }.|.~ u # # E 1.~ 2.# # # # # # # # # # # # # # # # # -.~ ( 3.: 4.              ",
"                5.< ~ Y # < ~ ~ 1 F # # # # # # # # # # # # # # # # # # 6.~ '...7.              ",
"              8.# 9.~ [./ ~ ~ ~ 0.# # # # # # # # ....# # # # # # # # # F o ~ H # a.            ",
"              b.# c.d.# e.] I K Y # # # # # # # # e ,.# # # # # # # # # # <.~ f.M g.            ",
"            h.# i.~ 3 # F +.# # # # # # # # # # # { { # # # # # # # # # # # 1 ~ j.# k.          ",
"          g ) l.] m.# # # # # # # # # # # # # # Y n.-.# # # # # # # # # # # +.~ ~ o.p.          ",
"          q.F !.( r.# # # # # # # # # # # # # # 0.~ *.# # # # # # # # # # # # } ~ X # $.        ",
"        s.# } ~ o.# # # # # # # # # # # # # # t.~ u.# # # # # # # # # # # # # v.~ ~ 3.w.        ",
"      f $ x.~ H # # # # # # # # # # # # # O i ~ ~ H # # # # # # # # # # # # # # y.~ > _ z.      ",
"      A.+.] | # # # # # # # # # # # # r B.C.~ D.~ j # # # # # # # # # # # # # # E.~ | # F.      ",
"    G.# j ~ +.F -.H.# # # # # # # r ,.~ I.j J.K.~ ; # # # # # # # # # # # # # # H.~ q F L.      ",
"    M.# N.O.# E.P.< # # # # # # 9.~ 6 i.F # # < ~ > # # # # # # # # # # # # # # ' ~ ~ Q.%       ",
"    R.# S.; # T.6.# # # # # F U.~ V.F # # # # W.~ &.# # # # # # # # # # # # # # # >.~ i.)       ",
"    X.# W.O.# 2.:.# # w # # j.] v.# Y.Z.`.#  +~ G # # # # # # # # # # # # # # # # 2 ~ ; #       ",
"      5.H ~ o.# # # u .+..x.~ ++# s.  @+# o.] 6 ' # # # # # # # # # # # # # # # # { ~ m.# #+    ",
"      $+F %+] &+/ w *+=+[.] V.# -+  ;+# >+>.y.J.# # # # # # # # # # # # # # # # # e ~ { # X.    ",
"      . ,+' { ~ ~ ~ '+F m.x F %   -+# < ~ )+' # # # # # # # # # # # # # # # # # # e ~ { # !+    ",
"        ~+{+# ++8 3 ]+d P.|.5.^+/+# u ~ (+Q./ / / / / / / / / / / / / / / / / / / o ~ %+# !+    ",
"            , A.p.# _.>+' 5.Z.  X.++{ { { { { { { { { { { { { { { { { { { { { { { { { { _ _+    ",
"                  ^+@+N -+_+      + # # # # # # # # # # # # # # # # # # # # # # # # # _ ^.      ",
"                                    :+X.<+[+[+}+}+}+}+}+}+}+}+}+}+}+}+}+}+}+}+}+9 [+X.|+        ",
"                                                                                                ",
"                                                                                                ",
"                                                                                                ",
"                                                                                                "};
