/* XPM */
static char * WhiteKing_xpm[] = {
"48 48 199 2",
"  	c #00FF00",
". 	c #FFFFFF",
"+ 	c #FFFFFF",
"@ 	c #FFFFFF",
"# 	c #FFFFFF",
"$ 	c #FFFFFF",
"% 	c #939393",
"& 	c #FFFFFF",
"* 	c #FFFFFF",
"= 	c #FFFFFF",
"- 	c #414141",
"; 	c #FFFFFF",
"> 	c #FFFFFF",
", 	c #FFFFFF",
"' 	c #FFFFFF",
") 	c #9B9B9B",
"! 	c #181818",
"~ 	c #FFFFFF",
"{ 	c #FFFFFF",
"] 	c #B0B0B0",
"^ 	c #404040",
"/ 	c #ABABAB",
"( 	c #FFFFFF",
"_ 	c #FFFFFF",
": 	c #FFFFFF",
"< 	c #4C4C4C",
"[ 	c #4A4A4A",
"} 	c #FFFFFF",
"| 	c #343434",
"1 	c #000000",
"2 	c #2D2D2D",
"3 	c #FFFFFF",
"4 	c #FFFFFF",
"5 	c #FFFFFF",
"6 	c #FFFFFF",
"7 	c #FFFFFF",
"8 	c #FFFFFF",
"9 	c #9D9D9D",
"0 	c #3B3B3B",
"a 	c #6E6E6E",
"b 	c #6D6D6D",
"c 	c #252525",
"d 	c #A0A0A0",
"e 	c #FFFFFF",
"f 	c #FFFFFF",
"g 	c #FFFFFF",
"h 	c #FFFFFF",
"i 	c #FFFFFF",
"j 	c #FFFFFF",
"k 	c #FFFFFF",
"l 	c #FFFFFF",
"m 	c #FFFFFF",
"n 	c #EDEDED",
"o 	c #5A5A5A",
"p 	c #F7F7F7",
"q 	c #FFFFFF",
"r 	c #FFFFFF",
"s 	c #FFFFFF",
"t 	c #FFFFFF",
"u 	c #C6C6C6",
"v 	c #3F3F3F",
"w 	c #111111",
"x 	c #3D3D3D",
"y 	c #5B5B5B",
"z 	c #A7A7A7",
"A 	c #BDBDBD",
"B 	c #B9B9B9",
"C 	c #A9A9A9",
"D 	c #EBEBEB",
"E 	c #333333",
"F 	c #5F5F5F",
"G 	c #C4C4C4",
"H 	c #FFFFFF",
"I 	c #FFFFFF",
"J 	c #FFFFFF",
"K 	c #535353",
"L 	c #313131",
"M 	c #474747",
"N 	c #565656",
"O 	c #1B1B1B",
"P 	c #020202",
"Q 	c #B5B5B5",
"R 	c #D0D0D0",
"S 	c #9E9E9E",
"T 	c #242424",
"U 	c #585858",
"V 	c #525252",
"W 	c #E7E7E7",
"X 	c #2E2E2E",
"Y 	c #5C5C5C",
"Z 	c #DBDBDB",
"` 	c #CECECE",
" .	c #7C7C7C",
"..	c #898989",
"+.	c #8C8C8C",
"@.	c #7F7F7F",
"#.	c #D4D4D4",
"$.	c #FFFFFF",
"%.	c #FFFFFF",
"&.	c #F5F5F5",
"*.	c #8B8B8B",
"=.	c #393939",
"-.	c #515151",
";.	c #FFFFFF",
">.	c #FFFFFF",
",.	c #A2A2A2",
"'.	c #212121",
").	c #D2D2D2",
"!.	c #606060",
"~.	c #FFFFFF",
"{.	c #373737",
"].	c #DDDDDD",
"^.	c #555555",
"/.	c #4B4B4B",
"(.	c #E1E1E1",
"_.	c #FFFFFF",
":.	c #E5E5E5",
"<.	c #757575",
"[.	c #DADADA",
"}.	c #323232",
"|.	c #FFFFFF",
"1.	c #FFFFFF",
"2.	c #6B6B6B",
"3.	c #707070",
"4.	c #272727",
"5.	c #191919",
"6.	c #FFFFFF",
"7.	c #FFFFFF",
"8.	c #545454",
"9.	c #CACACA",
"0.	c #F9F9F9",
"a.	c #FFFFFF",
"b.	c #FFFFFF",
"c.	c #C3C3C3",
"d.	c #434343",
"e.	c #2C2C2C",
"f.	c #FBFBFB",
"g.	c #6C6C6C",
"h.	c #FFFFFF",
"i.	c #3A3A3A",
"j.	c #BFBFBF",
"k.	c #747474",
"l.	c #DFDFDF",
"m.	c #F3F3F3",
"n.	c #494949",
"o.	c #FFFFFF",
"p.	c #FFFFFF",
"q.	c #FFFFFF",
"r.	c #303030",
"s.	c #C8C8C8",
"t.	c #AEAEAE",
"u.	c #636363",
"v.	c #686868",
"w.	c #FFFFFF",
"x.	c #FFFFFF",
"y.	c #6A6A6A",
"z.	c #101010",
"A.	c #424242",
"B.	c #999999",
"C.	c #B2B2B2",
"D.	c #D8D8D8",
"E.	c #989898",
"F.	c #383838",
"G.	c #FDFDFD",
"H.	c #3E3E3E",
"I.	c #FFFFFF",
"J.	c #282828",
"K.	c #FFFFFF",
"L.	c #FFFFFF",
"M.	c #F1F1F1",
"N.	c #FFFFFF",
"O.	c #171717",
"P.	c #FFFFFF",
"Q.	c #444444",
"R.	c #888888",
"S.	c #BBBBBB",
"T.	c #FFFFFF",
"U.	c #FFFFFF",
"V.	c #A4A4A4",
"W.	c #FFFFFF",
"X.	c #454545",
"Y.	c #232323",
"Z.	c #767676",
"`.	c #FFFFFF",
" +	c #676767",
".+	c #828282",
"++	c #363636",
"@+	c #646464",
"#+	c #858585",
"$+	c #FFFFFF",
"%+	c #949494",
"&+	c #FFFFFF",
"*+	c #FFFFFF",
"=+	c #FFFFFF",
"-+	c #FFFFFF",
";+	c #FFFFFF",
">+	c #FFFFFF",
",+	c #FFFFFF",
"'+	c #FFFFFF",
"                                                                                                ",
"                                            . + @ .                                             ",
"                                          # $ % % &                                             ",
"                                          * = - - = *                                           ",
"                                      ; > = = - - = = & ,                                       ",
"                                      ' ) - - ! ! - - % ~                                       ",
"                                      { ] ^ ^ ! ! ^ ^ / '                                       ",
"                                      ( _ = = - - = = _ (                                       ",
"                                          $ = - - = $                                           ",
"                                        : = = < [ = = :                                         ",
"                                      } = ] | 1 1 2 ] = :                                       ",
"                  , 3 4 4 5 6       7 8 9 1 0 a b c 1 d 8 6       e f 4 4 g h                   ",
"              i j = = = = = = k l 4 m n ! o = = = p - ! n m 4 q r = = = = = = s :               ",
"          t j = u b v w 1 x y 9 n = = z 1 A = = = = B 1 C = = D ) o E 1 1 E F G = H h           ",
"        I J n K 1 1 L M N - O 1 P o Q 9 1 R = = = = R 1 S ] K 1 1 T - U M L 1 1 V W J h         ",
"        m W X 1 Y Z = = = = = `  .T 1 ! 1 ..= = = = +.1 ! 1 T @.#.= = = = = Z Y 1 X n $.        ",
"      %.= [ 1 S = = = = = = = = = &.*.! 1 v = = = = =.1 ! % &.= = = = = = = = = S 1 -.= ;.      ",
"    >.r ,.1 y = = = = = = = = = = = = u ! 1 u = = u 1 '.).= = = = = = = = = = = = !.1 C k       ",
"    ~.= {.1 ].= = = = = = = = = = = = = G 1 ^.= = /.1 u = = = = = = = = = = = = = (.1 ^ = _.    ",
"    ~ :.1 L = = = = = = = = = = = = = = = <.1 [.[.1 <.= = = = = = = = = = = = = = = }.1 n |.    ",
"    * R 1 - = = = = = = = = = = = = = = = n ! @.@.! n = = = = = = = = = = = = = = = - 1 R *     ",
"    1.Z 1 - = = = = = = = = = = = = = = = = 2.L X 3.= = = = = = = = = = = = = = = = - 1 ].1.    ",
"    4 = ! 4.= = = = = = = = = = = = = = = = A 1 1 A = = = = = = = = = = = = = = = = 4.5.= 6.    ",
"    7.= 8.1 9.= = = = = = = = = = = = = = = 0.1 P = = = = = = = = = = = = = = = = 9.1 o = a.    ",
"      b.c.1 d.= = = = = = = = = = = = = = = = e.^ = = = = = = = = = = = = = = = f.- 1 u &       ",
"      : = K 1 g.= = = = = = = = = = = = = = = - - = = = = = = = = = = = = = = f.2.1 y = h.      ",
"        j &.i.1 V p = = = = = R j.9 ) g.g.g.g.T T g.g.g.k.) 9 9.l.= = = = = m.n.1 n.&.o.        ",
"        p.q.&.n.1 r.s.t.u.i.1 1 1 1 1 1 1 1 1 1 1 1 1 1 1 1 1 1 1 1 - v.z c.X 1 n.&.s (         ",
"          w.x.&.y.1 1 1 z.A.g.B.C.R #.= = = = = = = = = = D.R C.E.2.n.w 1 1 1 k.0.m p.          ",
"            ( o.= A w F.G.= = = = = = = = = = = = = = = = = = = = = = = H.w u = l (             ",
"                I.= A.4.= = = = = = = = = = = = = = = = = = = = = = = = J.A.= K.                ",
"                L.= 2.1 D = = = M.R R S 9 9 9 9 9 9 9 9 S u R W = = = m.1 2.= L.                ",
"                  N.B.1 @.g.- O.1 1 1 1 1 1 1 1 1 1 1 1 1 1 1 1 P ^ u.<.1 % P.                  ",
"                  & G 1 1 ! Q.g.R.9 t.R R R R R R R R R R t.9 R.g.Q.5.1 1 S.&                   ",
"                  T.A 1 ..= = = = = = = = = = = = = = = = = = = = = = +.1 A q.                  ",
"                U.= @.1 [.= = = G.R R / 9 9 9 9 9 9 9 9 V.R R G.= = = [.1  .= W.                ",
"                f = X.Y.C.Z.n.4.1 1 1 1 1 1 1 1 1 1 1 1 1 1 1 1 O M <.t.O 0 = `.                ",
"                + n 1 1 1 1 1 r.K 2.B.9 C R R R R R R C.9 B.2.o | 1 1 1 1 1 n +                 ",
"                > ] 1 O  +C.n = = = = = = = = = = = = = = = = = = n B g.T 1 ] >                 ",
"                > 3.1 - ..9.= = = = = = = = = = = = = = = = = = = p c..+++1 @+&                 ",
"                %.n Z.T 1 1 1 ^ y 2.B.9 9 C.` R R ` C 9 9 #+g.K E 1 1 1 O @+l.$+                ",
"                  ~ 8 = ` %+2.^ 4.1 1 1 1 1 1 1 1 1 1 1 1 1 1 O -  +*.c.= = +                   ",
"                    W.4 I.&+= = = = (.R R u z 9 9 z c.R R D.= = = = r H *+I                     ",
"                            W.=+-+$+* * j & & & & & & j ;+* >+4 ,+'+                            ",
"                                                                                                ",
"                                                                                                ",
"                                                                                                ",
"                                                                                                "};
