/* XPM */
static char * WhiteArchbishop_xpm[] = {
"48 48 210 2",
"  	c #00FF00",
". 	c #FFFFFF",
"+ 	c #FFFFFF",
"@ 	c #FFFFFF",
"# 	c #FFFFFF",
"$ 	c #FFFFFF",
"% 	c #E2E2E2",
"& 	c #A4A4A4",
"* 	c #FFFFFF",
"= 	c #FFFFFF",
"- 	c #050505",
"; 	c #161616",
"> 	c #FFFFFF",
", 	c #FFFFFF",
"' 	c #EFEFEF",
") 	c #141414",
"! 	c #676767",
"~ 	c #FFFFFF",
"{ 	c #FFFFFF",
"] 	c #D5D5D5",
"^ 	c #000000",
"/ 	c #9A9A9A",
"( 	c #FFFFFF",
"_ 	c #3E3E3E",
": 	c #333333",
"< 	c #979797",
"[ 	c #404040",
"} 	c #FFFFFF",
"| 	c #FFFFFF",
"1 	c #EDEDED",
"2 	c #424242",
"3 	c #434343",
"4 	c #FFFFFF",
"5 	c #010101",
"6 	c #505050",
"7 	c #FFFFFF",
"8 	c #FFFFFF",
"9 	c #FFFFFF",
"0 	c #FFFFFF",
"a 	c #FAFAFA",
"b 	c #7E7E7E",
"c 	c #6F6F6F",
"d 	c #F8F8F8",
"e 	c #858585",
"f 	c #FFFFFF",
"g 	c #DFDFDF",
"h 	c #474747",
"i 	c #1B1B1B",
"j 	c #9C9C9C",
"k 	c #171717",
"l 	c #4A4A4A",
"m 	c #E4E4E4",
"n 	c #FFFFFF",
"o 	c #FFFFFF",
"p 	c #FFFFFF",
"q 	c #D9D9D9",
"r 	c #FFFFFF",
"s 	c #FFFFFF",
"t 	c #E8E8E8",
"u 	c #4F4F4F",
"v 	c #F6F6F6",
"w 	c #787878",
"x 	c #525252",
"y 	c #FFFFFF",
"z 	c #363636",
"A 	c #BEBEBE",
"B 	c #BBBBBB",
"C 	c #FFFFFF",
"D 	c #FFFFFF",
"E 	c #818181",
"F 	c #B8B8B8",
"G 	c #484848",
"H 	c #B4B4B4",
"I 	c #8F8F8F",
"J 	c #FFFFFF",
"K 	c #FFFFFF",
"L 	c #FFFFFF",
"M 	c #828282",
"N 	c #DBDBDB",
"O 	c #2A2A2A",
"P 	c #4B4B4B",
"Q 	c #747474",
"R 	c #292929",
"S 	c #494949",
"T 	c #323232",
"U 	c #111111",
"V 	c #212121",
"W 	c #5A5A5A",
"X 	c #8E8E8E",
"Y 	c #FFFFFF",
"Z 	c #FFFFFF",
"` 	c #959595",
" .	c #6D6D6D",
"..	c #F5F5F5",
"+.	c #777777",
"@.	c #A2A2A2",
"#.	c #D4D4D4",
"$.	c #FFFFFF",
"%.	c #FFFFFF",
"&.	c #AFAFAF",
"*.	c #C2C2C2",
"=.	c #A0A0A0",
"-.	c #343434",
";.	c #D0D0D0",
">.	c #C7C7C7",
",.	c #888888",
"'.	c #C9C9C9",
").	c #6B6B6B",
"!.	c #F3F3F3",
"~.	c #FFFFFF",
"{.	c #FFFFFF",
"].	c #E6E6E6",
"^.	c #878787",
"/.	c #414141",
"(.	c #303030",
"_.	c #222222",
":.	c #535353",
"<.	c #8B8B8B",
"[.	c #EBEBEB",
"}.	c #1C1C1C",
"|.	c #4C4C4C",
"1.	c #FFFFFF",
"2.	c #FFFFFF",
"3.	c #626262",
"4.	c #8A8A8A",
"5.	c #1E1E1E",
"6.	c #ADADAD",
"7.	c #8C8C8C",
"8.	c #252525",
"9.	c #929292",
"0.	c #EAEAEA",
"a.	c #2F2F2F",
"b.	c #3D3D3D",
"c.	c #BDBDBD",
"d.	c #3B3B3B",
"e.	c #6E6E6E",
"f.	c #565656",
"g.	c #4E4E4E",
"h.	c #FFFFFF",
"i.	c #5C5C5C",
"j.	c #020202",
"k.	c #C5C5C5",
"l.	c #3F3F3F",
"m.	c #6A6A6A",
"n.	c #FEFEFE",
"o.	c #FFFFFF",
"p.	c #CECECE",
"q.	c #F1F1F1",
"r.	c #444444",
"s.	c #FFFFFF",
"t.	c #FFFFFF",
"u.	c #7D7D7D",
"v.	c #1F1F1F",
"w.	c #A5A5A5",
"x.	c #DDDDDD",
"y.	c #181818",
"z.	c #D2D2D2",
"A.	c #FFFFFF",
"B.	c #C4C4C4",
"C.	c #1D1D1D",
"D.	c #FFFFFF",
"E.	c #555555",
"F.	c #595959",
"G.	c #FFFFFF",
"H.	c #FFFFFF",
"I.	c #575757",
"J.	c #353535",
"K.	c #ACACAC",
"L.	c #9F9F9F",
"M.	c #CBCBCB",
"N.	c #616161",
"O.	c #1A1A1A",
"P.	c #737373",
"Q.	c #2B2B2B",
"R.	c #FFFFFF",
"S.	c #727272",
"T.	c #E0E0E0",
"U.	c #545454",
"V.	c #CDCDCD",
"W.	c #FFFFFF",
"X.	c #030303",
"Y.	c #717171",
"Z.	c #3C3C3C",
"`.	c #B1B1B1",
" +	c #C0C0C0",
".+	c #FFFFFF",
"++	c #FFFFFF",
"@+	c #606060",
"#+	c #FFFFFF",
"$+	c #060606",
"%+	c #757575",
"&+	c #FFFFFF",
"*+	c #121212",
"=+	c #FFFFFF",
"-+	c #2C2C2C",
";+	c #636363",
">+	c #2D2D2D",
",+	c #797979",
"'+	c #FFFFFF",
")+	c #B9B9B9",
"!+	c #585858",
"~+	c #FFFFFF",
"{+	c #383838",
"]+	c #FFFFFF",
"^+	c #FFFFFF",
"/+	c #FFFFFF",
"(+	c #FFFFFF",
"_+	c #FFFFFF",
":+	c #FFFFFF",
"<+	c #FFFFFF",
"                                                                                                ",
"                                          . + @ @ + .                                           ",
"                                        # $ % & & % $ #                                         ",
"                                      * = & - ; ; - & > *                                       ",
"                                      , ' ) ! ~ ~ ! ) ' ,                                       ",
"                                      { ] ^ / ~ ~ / ^ ] {                                       ",
"                                      ( ~ _ : < < : [ ~ }                                       ",
"                                      | ~ 1 2 ^ ^ 3 1 ~ |                                       ",
"                                    4 @ ~ & 5 6 6 5 & ~ 7 8                                     ",
"                                  9 0 a b ^ c a d c ^ e ~ f |                                   ",
"                              8 + ~ g h i j ~ ~ ~ ~ < k l m ~ + n                               ",
"                            o p ~ < i _ q ~ ~ ~ ~ ~ ~ ] _ i / ~ @ r                             ",
"                          8 s t u ^ b v ~ ~ ~ ~ ~ ~ ~ ~ v w ^ x t p 8                           ",
"                        y @ v z i A ~ ~ ~ ~ ~ 6 6 ~ ~ ~ ~ ~ B i _ v +                           ",
"                    C D ~ ~ E ^ F ~ ~ ~ ~ ~ ~ G G ~ ~ ~ ~ ~ ~ H ^ I J K                         ",
"                    L I M N O P ~ ~ ~ ~ F Q Q R R Q Q F ~ ~ ~ ~ S T ~ (                         ",
"                    $ Q ^ ^ ^ b ~ ~ ~ ~ F U ^ ^ V W W F ~ ~ ~ ~ X ^ % Y                         ",
"                    Z e ^ ` _ ^  ...~ ~ +.^ _ ^ G ~ ~ ~ ~ ~ ~ ~ @.^ #.$.                        ",
"                    %.&.^ *.~ =.i -.;.>.^ ,.v 6 i '...~ ~ ~ ~ ~ ).^ !.~.                        ",
"                    {.].^ ^.~ ~ m /.i _ (.a ~ t i ^ ^ _.:.<.#.[.}.|.~ 1.                        ",
"                    2.~ |.: ~ v e R ^ ^ e ~ ~ ~ 3.^ B 4.x ^ ^ 5.^ '.~ 2.                        ",
"                  C $ ].-.^ 6.>.: 7.'.8.A ~ ~ ~ 9.^ 0.~ ~ 1 ` a.^ b.c.~ D 8                     ",
"                  %.].-.-.d.z ~ ~ ~ ~ ~ ~ ~ ~ ~ *.6 d ~ ~ ~ ~ a j 8.^ e.v s C                   ",
"                , ~ l i m q B ~ ~ ~ ~ ~ ~ ~ ~ ~ ~ ~ ~ ~ ~ ~ ~ ~ ~ 1 f.^ g.0.0 o                 ",
"                h.A ^ < ~ ~ #.i.j.k.~ ~ ~ ~ ~ ~ ~ ~ ~ ~ ~ ~ ~ ~ ~ ~ ~ Q ^ l...p K               ",
"                > & ^ [.~ & ^ ^ m.v ~ ~ ~ ~ ~ ~ ~ ~ ~ ~ ~ ~ ~ ~ ~ ~ ~ ~  .^ x n.o.              ",
"              | ~ ^.^ 0.p.^ ^ ^ ^.~ ~ ~ ~ ~ ~ ~ ~ 1 q.~ ~ ~ ~ ~ ~ ~ ~ ~ v r.^ ,.~ s.            ",
"              t.v O u ~ u.v.&.w.v ~ ~ ~ ~ ~ ~ ~ ~ G 6 ~ ~ ~ ~ ~ ~ ~ ~ ~ ~ x.y.^ #.f 8           ",
"            1.~ ^.j.z.~ ~ v ~ ~ ~ ~ ~ ~ ~ ~ ~ ~ ~ 3 6 ~ ~ ~ ~ ~ ~ ~ ~ ~ ~ ~ b ^ 2 ~ A.          ",
"          # $ B.^ X ~ ~ ~ ~ ~ ~ ~ ~ ~ ~ ~ ~ ~ ~ g ^ 4.~ ~ ~ ~ ~ ~ ~ ~ ~ ~ ~ q.C.^ 6.> K         ",
"        C D.g }.E.~ ~ ~ ~ ~ ~ ~ ~ ~ ~ ~ ~ ~ ~ ~ F.i 1 ~ ~ ~ ~ ~ ~ ~ ~ ~ ~ ~ ~ u.^ l.~ {         ",
"        p 0.-.-.' ~ ~ ~ ~ ~ ~ ~ ~ ~ ~ ~ ~ ~ v m.^ 4.~ ~ ~ ~ ~ ~ ~ ~ ~ ~ ~ ~ ~ x.^ ^ '.G.        ",
"      H.~ I.i ;.~ ~ ~ ~ ~ ~ ~ ~ ~ ~ ~ ~ !.=.J.^ ^ w ~ ~ ~ ~ ~ ~ ~ ~ ~ ~ ~ ~ ~ ~ h ^ Q ~ o       ",
"      0 K.^ L.~ t q.~ ~ ~ ~ ~ ~ ~ ~ M.N.O.^ i.c.^ P.~ ~ ~ ~ ~ ~ ~ ~ ~ ~ ~ ~ ~ ~ I ^ Q.~ ,       ",
"    R.~ |.(.~ F i S.~ ~ ~ ~ ~ ~ T.U.^ _ L.' ~ B.^ u.~ ~ ~ ~ ~ ~ ~ ~ ~ ~ ~ ~ ~ ~ V.^ ^ T.2.      ",
"    W.~ X.Y.~ O l v ~ ~ ~ ~ ~ &.i Z.`.~ ~ ~ ~  .^  +~ ~ ~ ~ ~ ~ ~ ~ ~ ~ ~ ~ ~ ~ ~ ^ ^ K..+      ",
"    ++~ 3 @+~ u.k.~ ~ t ~ ~ & ^ Y.v ~ #+> ~ q $+_ ~ ~ ~ ~ ~ ~ ~ ~ ~ ~ ~ ~ ~ ~ ~ ~ b.^ E ~       ",
"    8 $ %+}.].~ ~ ~ B.- ~ A ^ X ~ %.&+1.~ ].-.*+p.~ ~ ~ ~ ~ ~ ~ ~ ~ ~ ~ ~ ~ ~ ~ ~ G ^ ).~ =+    ",
"      2.t R -.'.~ N -.).!.-+;+~ @ 8 1.~ ;.: i &.~ ~ ~ ~ ~ ~ ~ ~ ~ ~ ~ ~ ~ ~ ~ ~ ~ G ^ G ~ |     ",
"      r 0 ] d.^ ^ ^ >+v ,+R ' '+8 { ~ B.i -.p.~ ~ ~ ~ ~ ~ ~ ~ ~ ~ ~ ~ ~ ~ ~ ~ ~ ~ G ^ G ~ ++    ",
"        C s n.)+& & i !+^ F $ ~+r J & ^ {+k.#.#.#.#.#.#.#.#.#.#.#.#.#.#.#.#.#.#.#._ ^ {+~ ++    ",
"          ]+^+D 0 ~ ' H ].$ #   /+>.G G G G G G G G G G G G G G G G G G G G G G G G G G $ y     ",
"                  C (+$._+y       :+~ ~ ~ ~ ~ ~ ~ ~ ~ ~ ~ ~ ~ ~ ~ ~ ~ ~ ~ ~ ~ ~ ~ ~ ~ $ <+      ",
"                                    y | | | | | | | | | | | | | | | | | | | | | | | | K         ",
"                                                                                                ",
"                                                                                                ",
"                                                                                                ",
"                                                                                                "};
