<?xml version="1.0" encoding="UTF-8" standalone="no"?>
<!-- Created with Inkscape (http://www.inkscape.org/) -->

<svg
   version="1.1"
   id="svg1"
   width="2048"
   height="2048"
   viewBox="0 0 2048 2048"
   xmlns="http://www.w3.org/2000/svg"
   xmlns:svg="http://www.w3.org/2000/svg">
  <defs
     id="defs1" />
  <g
     id="g1"
     transform="translate(0,-36.223129)">
    <path
       style="fill:#000000"
       d="m 482.88272,1890.5992 c -15.71479,-40.4596 -26.78396,-81.9818 -32.85681,-123.2509 -3.42848,-23.2989 -5.05309,-43.6043 -5.6806,-71 -2.79379,-121.9698 29.61622,-233.5517 96.43252,-332 58.89288,-86.7738 134.78558,-153.805 224.60605,-198.3801 17.28064,-8.5759 49.37331,-22.6199 51.68977,-22.6199 2.74785,0 -0.28065,-2.1059 -10.71731,-7.4523 -69.64805,-35.679 -124.05481,-105.8562 -140.74966,-181.54768 -4.78688,-21.70285 -6.02845,-34.47192 -6.02845,-62.00002 0,-18.8238 0.45712,-28.77265 1.74598,-38 7.35857,-52.68228 27.64503,-97.4336 62.63371,-138.16805 41.96883,-48.86087 95.94262,-80.41056 156.35237,-91.3938 22.57083,-4.10365 21.39147,-2.58421 9.6273,-12.40339 -29.70283,-24.79199 -50.63905,-55.94798 -61.33221,-91.27081 -9.45421,-31.23024 -11.11276,-69.73045 -4.4485,-103.26395 10.81731,-54.43091 48.01652,-105.39415 98.72407,-135.25279 40.2563,-23.70454 92.71145,-31.8325 142.91335,-22.14453 30.2484,5.83734 61.6382,20.89939 86.1051,41.31656 10.355,8.64104 29.3026,28.3552 36.6006,38.08136 24.5539,32.7233 37.568,70.09214 39.1793,112.4994 2.4482,64.43613 -21.1939,119.04831 -69.0491,159.5 -12.3416,10.4322 -13.4529,8.84513 9.0595,12.93815 41.7533,7.59127 79.7884,24.60842 114.1276,51.06154 14.2351,10.96591 37.8403,34.28191 49.1019,48.50031 40.916,51.65859 60.0216,110.39654 57.7354,177.5 -2.4406,71.63342 -28.8189,131.4632 -81.1546,184.0701 -21.2863,21.3966 -43.5668,37.973 -67.7833,50.4299 -9.6192,4.9481 -12.489,7 -9.7904,7 2.1073,0 33.7683,13.7493 49.5737,21.5281 91.3967,44.982 167.9406,112.53 227.7369,200.9719 47.2163,69.8353 77.6872,148.6684 89.6738,232 4.4567,30.9834 5.5019,47.3786 5.4825,86 -0.019,38.5315 -0.9641,53.0508 -5.466,84 -5.5628,38.2427 -15.1079,76.2005 -28.667,114 l -3.9459,11 -540.1815,0.2509 -540.1816,0.2509 z"
       id="path1" />
  </g>
  <path
     fill="none"
     stroke="#d4d4d4"
     stroke-width="25"
     d="M 0,0 H 2048 V 2048 H 0 Z"
     id="path2" />
  <path
     fill="#d4d4d4"
     stroke="#d4d4d4"
     stroke-width="2.79"
     d="M 13.931973,1024 V 12.538776 H 1024 2034.068 V 1024 2035.4612 H 1024 13.931973 Z M 1576.2277,1826.9031 c 36.7074,-116.5669 36.4643,-249.1909 -0.6635,-361.9727 -12.3944,-37.6503 -42.9835,-100.281 -64.9743,-133.0338 -45.6953,-68.0583 -103.5725,-126.0993 -168.9409,-169.4194 -25.5803,-16.9522 -99.6584,-54.8854 -107.1834,-54.8854 -2.2857,0 5.222,-5.5121 16.6838,-12.2492 46.844,-27.534 87.9331,-71.774 111.5503,-120.1045 42.2224,-86.40395 35.3306,-191.38371 -17.7435,-270.28028 -14.7326,-21.90053 -49.124,-57.39346 -70.3803,-72.63448 -24.1526,-17.3178 -59.8857,-33.63203 -88.965,-40.61772 -13.7927,-3.31341 -26.7524,-6.46086 -28.7994,-6.99438 -2.2506,-0.58656 2.8019,-7.39325 12.7816,-17.21922 29.5278,-29.07285 46.8676,-60.30254 54.797,-98.69122 9.6443,-46.69092 3.8256,-93.74228 -16.7974,-135.82665 -11.1375,-22.72778 -16.7654,-30.24668 -39.8012,-53.17446 -39.6941,-39.50791 -76.1092,-56.35418 -129.8595,-60.07538 -75.15238,-5.20288 -145.79575,29.94182 -186.01672,92.5423 C 828.90328,348.08279 819.2,381.27048 819.2,424.1612 c 0,57.569 19.59577,104.97619 59.33321,143.54214 10.12445,9.826 15.02694,16.37927 12.7083,16.98756 -2.07617,0.54469 -15.05974,3.70131 -28.85239,7.01472 -48.06882,11.54755 -89.81941,36.08716 -126.99088,74.64097 -33.48143,34.72661 -51.82338,64.69172 -64.79928,105.86223 -25.15287,79.80613 -12.9172,167.62858 32.96087,236.57898 18.34668,27.5734 60.6366,68.6457 84.51915,82.0857 9.53137,5.3638 19.21963,11.0192 21.52944,12.5675 3.27293,2.1939 -1.99545,5.5417 -23.87522,15.1713 -144.55447,63.6205 -265.14548,196.7689 -314.59239,347.3516 -30.4036,92.5893 -36.49717,200.3251 -16.76618,296.4307 4.81325,23.4442 17.70932,68.8973 24.95431,87.9531 l 2.58471,6.7983 542.61675,-0.7036 542.6168,-0.7036 z"
     id="path3" />
</svg>
