<?xml version="1.0" encoding="UTF-8" standalone="no"?>
<!-- Created with Inkscape (http://www.inkscape.org/) -->

<svg
   version="1.1"
   id="svg1"
   width="2048"
   height="2048"
   viewBox="0 0 2048 2048"
   xmlns="http://www.w3.org/2000/svg"
   xmlns:svg="http://www.w3.org/2000/svg">
  <defs
     id="defs1" />
  <g
     id="g1">
    <path
       style="fill:#000000"
       d="m 955.5,1903.6595 c -28.81612,-0.7791 -73.02601,-2.5672 -97.5,-3.9435 -159.38052,-8.9623 -306.71143,-33.7026 -387.15759,-65.0125 -22.30968,-8.6831 -47.2935,-22.6536 -57.10086,-31.9298 l -3.75844,-3.5549 31.50251,-119.9977 31.50251,-119.9978 -14.00257,-78.5076 -14.00258,-78.5075 -43.97986,-76.4303 -43.97985,-76.4302 -14.46408,-105.7932 C 286.34713,732.40795 272.86182,633.36479 272.6923,630.41585 l -0.1923,-3.34537 24,-9.316 c 13.2,-5.1238 24.31288,-9.01838 24.69529,-8.65463 0.3824,0.36375 26.71788,44.53637 58.52327,98.16137 31.80539,53.625 93.11882,156.9987 136.25205,229.71933 43.13324,72.72065 78.5518,132.09155 78.70792,131.93545 0.15611,-0.1561 1.64745,-123.52243 3.31409,-274.1474 1.66663,-150.62497 3.20812,-274.04145 3.42552,-274.25885 0.91638,-0.91638 67.07898,-12.14207 67.64728,-11.47759 0.51339,0.60027 79.28805,208.82582 187.80067,496.41474 13.76325,36.4764 20.87513,54.1243 21.35835,53 0.39845,-0.9271 25.5119,-133.53568 55.80768,-294.68568 30.29578,-161.15 55.33107,-294.0125 55.63397,-295.25 l 0.55073,-2.25 h 34.28318 34.2832 l 0.5489,2.25 c 0.302,1.2375 25.336,133.65 55.6313,294.25 30.2953,160.6 55.4095,292.75798 55.8095,293.68438 0.4803,1.1126 35.66,-91.39358 103.6307,-272.50002 56.597,-150.8014 103.181,-274.50832 103.5199,-274.90427 0.552,-0.64472 67.7894,10.59947 68.6744,11.4845 0.2005,0.20043 1.7297,123.60471 3.3984,274.23172 1.6687,150.62701 3.1643,273.99767 3.3236,274.15697 0.1594,0.1593 61.5571,-102.86 136.4395,-228.93181 74.8825,-126.07181 136.7328,-229.97479 137.4452,-230.89551 1.1776,-1.52183 3.3411,-0.71731 23.7954,8.84881 12.375,5.78757 22.8303,10.83119 23.234,11.20804 0.4037,0.37685 -1.7158,18.89488 -4.71,41.15118 -2.9942,22.25631 -21.6611,161.4117 -41.482,309.23422 l -36.0379,268.76817 -44.4842,76.4462 -44.4842,76.4462 -14.0174,79.5385 -14.0174,79.5386 32.4367,121.2377 c 30.668,114.6269 32.3449,121.3392 30.7532,123.098 -5.9588,6.5844 -31.8329,20.9254 -52.1908,28.9273 -89.4805,35.171 -267.2178,62.8698 -438,68.2582 -10.725,0.3384 -20.85,0.8195 -22.5,1.0692 -3.6492,0.5521 -153.15611,1.2574 -170,0.802 z M 517.27194,1768.3552 c 100.57527,-29.0269 222.7385,-45.3308 391.72806,-52.2799 40.60087,-1.6696 185.2029,-1.6787 223.5,-0.014 136.6686,5.9403 247.4247,18.5951 348.5,39.8191 19.609,4.1176 56.8292,13.1893 61.3654,14.9566 1.5073,0.5873 1.7552,0.3619 1.2914,-1.1744 -0.3157,-1.0457 -7.0808,-27.4769 -15.0334,-58.736 -7.9527,-31.2591 -14.708,-57.0833 -15.0119,-57.3871 -0.8919,-0.8919 -34.5206,-7.93 -60.8027,-12.7252 -89.2083,-16.2763 -185.773,-25.7993 -311.8088,-30.7499 -41.7008,-1.638 -192.60401,-1.63 -234,0.012 -120.98889,4.8003 -212.71483,13.6931 -302,29.2789 -27.33356,4.7713 -67.56057,13.1327 -68.7094,14.2816 -0.2783,0.2783 -7.44217,26.295 -15.91972,57.8149 -8.47755,31.52 -15.68101,58.1646 -16.0077,59.2103 -0.45719,1.4634 -0.21692,1.7566 1.04336,1.2729 0.90054,-0.3455 6.23997,-1.9566 11.8654,-3.5802 z m 49.8907,-199.0521 c 82.34046,-19.7784 182.39117,-33.2124 294.33736,-39.5214 93.1918,-5.252 215.3675,-5.8458 306,-1.4872 127.5274,6.1329 239.3884,20.677 322.4696,41.9273 6.3082,1.6135 11.6139,2.7892 11.7904,2.6127 0.1765,-0.1765 3.8822,-22.7514 8.2348,-50.1663 5.722,-36.0404 7.597,-50.0413 6.7698,-50.5525 -2.0557,-1.2705 -49.7843,-12.6511 -70.4667,-16.8023 -120.0478,-24.0954 -271.427,-35.4785 -448.2979,-33.7102 -33.275,0.3327 -72.2,1.0707 -86.5,1.64 -133.10687,5.2997 -238.01604,17.2785 -329,37.5663 -20.17504,4.4986 -49.20283,11.8212 -49.99279,12.6112 -0.33969,0.3396 11.74754,84.4552 14.03075,97.6405 0.43635,2.5199 0.97221,3.1753 2.26674,2.7722 0.93241,-0.2904 9.19349,-2.329 18.35794,-4.5303 z m 995.05946,-230.5916 c 13.7082,-24.1727 25.0036,-44.3391 25.1009,-44.8143 0.2174,-1.0611 -6.0111,-3.2877 -27.1092,-9.691 -72.2685,-21.9337 -183.8075,-40.6557 -300.2138,-50.3914 -260.35442,-21.7749 -557.49822,-5.6829 -737.5,39.9398 -23.91348,6.061 -57.279,15.9237 -58.65016,17.3366 -1.03416,1.0657 48.77547,90.691 50.30573,90.518 0.73944,-0.084 9.21943,-2.207 18.84443,-4.7187 71.18598,-18.5763 160.90914,-29.9794 288,-36.6025 183.0811,-9.5409 404.4396,-5.0899 549.5,11.049 56.1691,6.2491 116.5378,17.2922 152,27.8048 7.15,2.1196 13.4046,3.7787 13.899,3.6869 0.4945,-0.092 12.1149,-19.9445 25.8231,-44.1172 z M 221.5,624.61378 c -18.338,-2.12584 -31.86919,-5.99786 -47.01433,-13.4534 -24.43456,-12.02847 -48.41637,-36.01448 -60.35529,-60.36587 -9.27371,-18.91525 -12.81467,-33.19692 -13.76878,-55.53329 -1.065747,-24.94998 3.09368,-45.23547 13.63547,-66.5 15.43089,-31.12667 43.94894,-57.22604 74.85311,-68.50467 15.41851,-5.62706 26.59282,-7.37487 47.14982,-7.37487 20.17656,0 31.36522,1.69549 46.23367,7.00609 38.10329,13.60943 71.57749,48.099 84.19362,86.74746 8.18428,25.07186 8.559,55.97948 0.9989,82.39074 -12.24272,42.77 -51.34879,80.47189 -95.091,91.67657 -15.1593,3.88309 -36.74894,5.54419 -50.83519,3.91124 z M 1795,624.21053 c -49.1554,-6.06594 -93.4419,-41.61433 -110.292,-88.53053 -5.4009,-15.03789 -7.1737,-26.37946 -7.1774,-45.91878 0,-19.40161 1.2705,-28.50865 6.0275,-43.08117 11.023,-33.76804 37.7116,-64.48299 70.1908,-80.78007 18.5902,-9.32801 35.0553,-12.95802 59.2511,-13.0629 19.3578,-0.0839 27.1981,0.969 42,5.64042 39.8778,12.58524 75.2788,47.87832 88.4273,88.15773 8.1843,25.07186 8.559,55.97948 0.9989,82.39074 -3.6077,12.60356 -12.2108,29.5361 -20.7996,40.93792 -20.3143,26.96737 -48.9506,45.65319 -80.1266,52.28425 -11.52,2.45028 -36.3915,3.45662 -48.5,1.96239 z m -1210,-110 C 535.8446,508.14459 491.55814,472.5962 474.70801,425.68 c -5.40092,-15.03789 -7.17367,-26.37946 -7.17737,-45.91878 -0.004,-19.4037 1.25923,-28.42769 6.04333,-43.18222 6.39551,-19.72429 16.20145,-35.11766 33.3983,-52.42867 21.53035,-21.67328 41.9664,-32.8234 70.65373,-38.5494 12.24768,-2.44464 40.40853,-2.4639 52.55622,-0.0359 17.52852,3.50343 33.42137,10.03141 48.31778,19.84651 10.52322,6.93364 32.41608,28.8265 39.34972,39.34972 14.06774,21.35066 20.722,42.52296 21.84322,69.5 1.31682,31.68355 -7.69566,61.31535 -26.06637,85.70267 -20.31423,26.96737 -48.95061,45.65319 -80.12657,52.28425 -11.52004,2.45028 -36.39148,3.45662 -48.5,1.96239 z m 844.5,0.40325 c -18.338,-2.12584 -31.8692,-5.99786 -47.0143,-13.4534 -24.4346,-12.02847 -48.4164,-36.01448 -60.3553,-60.36587 -9.2737,-18.91525 -12.8147,-33.19692 -13.7688,-55.53329 -1.7227,-40.32922 11.3822,-73.84902 40.0901,-102.54291 25.4196,-25.4072 53.9016,-37.72515 90.5483,-39.16045 29.8679,-1.16979 57.2406,6.46148 81.6976,22.77661 10.1737,6.78683 31.3081,28.07979 38.1405,38.42675 21.7874,32.99433 27.8659,74.86552 16.5881,114.26475 -12.2427,42.77 -51.3488,80.47189 -95.091,91.67657 -15.1593,3.88309 -36.7489,5.54419 -50.8352,3.91124 z m -421,-50.03886 c -6.9546,-0.60869 -23.56786,-4.3816 -30.91878,-7.02171 -18.51228,-6.64876 -34.08631,-16.71319 -49.12953,-31.74907 -26.24982,-26.23702 -38.66649,-54.70271 -40.14892,-92.04292 -1.58676,-39.9683 11.61557,-73.52347 40.14892,-102.04291 24.97256,-24.96038 53.45472,-37.48766 89.04831,-39.16604 27.8859,-1.31493 55.0906,5.4819 77.0017,19.23806 33.7232,21.17211 56.4121,53.02114 64.0943,89.97089 2.7881,13.41011 2.5716,41.26206 -0.4292,55.23367 -6.4108,29.84806 -21.2386,54.37118 -45.5456,75.32614 -29.0431,25.03796 -63.7452,35.78773 -104.1212,32.25389 z"
       id="path1" />
  </g>
  <path
     style="fill:#ffffff;stroke-width:2.78639"
     d="m 511.42643,1374.1243 c -2.11094,-3.3025 -13.25813,-22.9316 -24.77155,-43.6202 -14.12351,-25.3788 -19.86441,-38.1948 -17.64724,-39.3959 7.70326,-4.173 67.75939,-19.5831 106.38284,-27.2973 128.92121,-25.7493 268.95004,-37.3819 448.60952,-37.2673 177.5001,0.1133 315.6354,11.7122 443.8257,37.2671 44.2313,8.8176 112.0794,26.4227 115.1466,29.8781 1.6613,1.8715 -40.2885,77.9228 -46.2911,83.9218 -1.8772,1.876 -11.5326,0.5871 -29.2572,-3.9056 -85.4985,-21.6713 -192.3929,-32.4264 -377.3261,-37.9642 -235.38945,-7.0488 -473.9254,8.24 -588.95,37.7481 l -25.8834,6.6401 z"
     id="path2" />
  <path
     style="fill:#ffffff;stroke-width:2.78639"
     d="m 547.59003,1566.4547 c -2.30596,-10.4704 -12.60227,-82.0089 -12.60227,-87.5603 0,-4.4452 5.00031,-6.4614 31.34693,-12.6395 247.5183,-58.0421 671.16841,-58.733 914.19291,-1.4909 l 35.782,8.4281 -1.4989,8.7645 c -0.8243,4.8205 -4.3473,26.7262 -7.8288,48.6793 -5.8899,37.1397 -6.7237,39.8301 -11.992,38.6951 -157.5529,-33.9412 -266.0919,-44.2462 -465.4171,-44.1879 -145.23623,0.043 -235.49341,5.3799 -340.9954,20.1646 -38.64043,5.415 -111.92569,19.225 -130.59791,24.6101 -8.0854,2.3319 -9.19461,1.9622 -10.38946,-3.4631 z"
     id="path3" />
  <path
     style="fill:#ffffff;stroke-width:2.78639"
     d="m 508.87147,1760.3048 c 4.85988,-20.0877 28.57811,-104.3975 29.67908,-105.4984 0.68679,-0.6868 16.78,-4.2849 35.76268,-7.9957 132.55894,-25.9135 258.21432,-35.9579 449.68677,-35.9464 161.9472,0.01 259.0441,5.8399 369.797,22.2046 39.4246,5.8253 116.699,19.911 118.2107,21.5476 1.7082,1.8494 28.9799,111.3819 27.9809,112.3809 -0.6894,0.6894 -11.1162,-1.2214 -23.1707,-4.2461 -145.0741,-36.4019 -355.9779,-53.6551 -582.42188,-47.6458 -162.78462,4.3199 -279.73487,17.4572 -384.45282,43.1864 -21.65859,5.3215 -40.17717,9.6754 -41.15241,9.6754 -0.97523,0 -0.93893,-3.4481 0.0807,-7.6625 z"
     id="path4" />
  <path
     fill="none"
     stroke="#d4d4d4"
     stroke-width="25"
     d="M 0,0 H 2048 V 2048 H 0 Z"
     id="path5" />
  <path
     fill="#d4d4d4"
     stroke="#d4d4d4"
     stroke-width="2.79"
     d="M 13.931973,1024 V 12.538776 H 1024 2034.068 V 1024 2035.4612 H 1024 13.931973 Z M 1248.3048,1897.7736 c 185.4186,-15.9375 333.8137,-49.5515 383.5879,-86.8892 l 8.8179,-6.6147 -3.7675,-16.0614 c -2.0722,-8.8337 -16.5005,-63.7087 -32.0629,-121.9444 l -28.2952,-105.8829 12.9595,-75.2327 c 7.1277,-41.378 14.2386,-78.3673 15.802,-82.1986 1.5634,-3.8313 22.0709,-40.1938 45.5723,-80.8055 l 42.7297,-73.8394 40.6482,-303.71704 c 22.3565,-167.04436 40.6455,-306.58335 40.6424,-310.08663 0,-5.21337 -4.1231,-8.36074 -22.6873,-17.33817 -12.4748,-6.03268 -23.6031,-10.39896 -24.7294,-9.70284 -1.1264,0.69613 -62.5681,102.88422 -136.5371,227.08464 -73.969,124.20042 -134.8889,225.41924 -135.3775,224.93064 -0.4885,-0.4885 -2.385,-121.83282 -4.2144,-269.65395 -1.8294,-147.82113 -4.406,-269.47832 -5.7257,-270.34934 -1.3198,-0.87103 7.3369,-3.06676 19.2371,-4.8794 49.5097,-7.5414 91.8887,-41.56584 108.9055,-87.43606 17.533,-47.26151 6.8987,-102.17759 -26.9543,-139.19286 -55.3192,-60.48693 -146.0478,-61.70648 -201.701,-2.71121 -32.8809,34.85545 -44.5081,75.19027 -35.5348,123.27051 6.6232,35.4886 37.2927,76.38418 69.2132,92.29082 14.6197,7.28533 14.6517,7.3298 5.9074,8.21064 -8.5824,0.86453 -9.1434,1.81536 -23.5377,39.89518 -8.1101,21.45524 -52.0105,137.94673 -97.5564,258.86998 -45.5459,120.92326 -84.9853,224.98059 -87.6431,231.23859 l -4.8323,11.3781 -6.1083,-32.0114 c -3.3595,-17.6062 -28.0588,-147.995 -54.8871,-289.75282 -26.8284,-141.75783 -49.4409,-259.93579 -50.2502,-262.61769 -0.9233,-3.05999 0.016,-4.87619 2.5217,-4.87619 10.1718,0 43.8378,-20.48298 59.642,-36.28722 26.6773,-26.67722 39.9223,-59.41379 39.769,-98.29346 -0.1771,-44.93526 -22.5942,-86.08666 -61.2325,-112.4057 -37.8899,-25.80915 -94.1288,-30.03588 -136.0116,-10.22215 -22.44583,10.61858 -51.3829,39.26827 -62.88586,62.26133 -27.72273,55.41445 -16.38372,119.77273 28.57447,162.18402 17.99883,16.97917 44.36866,32.76318 54.73641,32.76318 3.51158,0 4.20969,1.77922 3.00661,7.66258 -2.68015,13.10645 -93.60709,495.94781 -100.87813,535.68432 -3.78571,20.689 -7.7802,39.8517 -8.87667,42.5838 -1.35063,3.3654 -35.15678,-82.67686 -104.82509,-266.7973 l -102.83153,-271.76469 -8.61249,-0.1038 c -8.07935,-0.0974 -7.67554,-0.57171 6.52292,-7.66258 18.78183,-9.37987 46.46408,-36.40157 56.5404,-55.19126 20.10783,-37.49584 21.13442,-87.4895 2.59793,-126.51719 -10.69828,-22.52474 -42.37708,-53.4635 -66.29502,-64.74634 -17.50218,-8.25633 -21.88579,-9.10809 -51.68143,-10.042 -27.81783,-0.87193 -35.22078,-0.13407 -50.85546,5.06882 -45.82388,15.24921 -83.28993,58.97688 -91.06801,106.28796 -11.83488,71.98698 31.66851,138.64094 102.53477,157.09924 8.79757,2.29148 20.43417,4.18553 25.85914,4.20899 5.42494,0.0235 8.48443,0.96387 6.79883,2.0898 -2.15455,1.43917 -4.04964,81.86758 -6.38098,270.81361 -1.82395,147.82155 -3.72865,269.17884 -4.23265,269.68284 -0.50403,0.504 -37.62254,-60.88169 -82.48561,-136.41271 C 465.01381,847.56137 404.56067,745.83236 375.53658,697.02794 l -52.77108,-88.73533 -10.22083,1.66086 -10.22086,1.66089 6.96599,-4.82595 c 15.42093,-10.6834 41.37241,-37.81988 48.24608,-50.4491 14.5247,-26.68664 20.01846,-69.51347 12.88591,-100.45234 -10.25591,-44.48701 -51.48229,-87.29253 -95.56455,-99.22504 -13.31291,-3.60364 -25.31001,-4.56333 -47.0063,-3.76018 -27.0994,1.00313 -30.64073,1.82436 -50.77299,11.77427 -54.68793,27.02825 -83.468702,80.63037 -76.56464,142.59617 5.02089,45.0638 32.08791,84.123 72.24315,104.25089 23.54987,11.80439 41.41927,14.98425 74.66881,13.28728 16.08538,-0.82096 27.91057,-0.6672 26.27822,0.34164 -2.01653,1.2463 10.68729,101.86521 39.63031,313.88671 l 42.59823,312.05249 43.84874,76.0329 43.84874,76.033 13.89653,77.9141 13.89656,77.9141 -31.3855,119.7694 c -36.01641,137.4413 -35.68004,123.1291 -3.31918,141.2263 65.57712,36.6728 219.82546,67.7142 392.23446,78.9344 24.52027,1.5958 51.47864,3.3513 59.90748,3.9011 8.42885,0.5498 81.15375,0.637 161.61084,0.1938 104.0798,-0.5734 161.1583,-2.0843 197.8341,-5.2367 z M 1855.4853,620.26659 c 42.2566,-13.15173 79.8294,-51.90995 90.6664,-93.52684 4.9041,-18.83319 5.5592,-52.67874 1.3712,-70.84475 -9.7881,-42.45727 -47.0641,-82.77796 -90.6159,-98.01745 -13.7986,-4.82835 -21.753,-5.62704 -48.6843,-4.88837 -30.7885,0.84448 -33.1176,1.34096 -53.4604,11.39627 -28.7987,14.23503 -51.1259,36.47472 -65.1966,64.94119 -10.3149,20.86792 -10.8032,23.11476 -11.7284,53.96544 -0.8205,27.3588 -0.056,34.88703 5.0898,50.15212 14.1107,41.85547 46.0512,73.09895 88.6562,86.72141 21.9949,7.03266 61.4778,7.08017 83.902,0.10098 z"
     id="path6" />
</svg>
