<?xml version="1.0" encoding="UTF-8" standalone="no"?>
<!-- Created with Inkscape (http://www.inkscape.org/) -->

<svg
   version="1.1"
   id="svg1"
   width="2048"
   height="2048"
   viewBox="0 0 2048 2048"
   xmlns="http://www.w3.org/2000/svg"
   xmlns:svg="http://www.w3.org/2000/svg">
  <defs
     id="defs1" />
  <g
     id="g1"
     transform="rotate(180,1025.3679,1047.2422)">
    <path
       style="fill:#000000"
       d="m 643.60445,1885.9432 c -4.22576,-6.5952 -5.88025,-30.0786 -4.56308,-64.7674 1.74996,-46.0871 5.69321,-68.7745 19.62698,-112.9231 11.27942,-35.7384 27.81552,-72.8994 52.42003,-117.8018 18.39875,-33.577 34.37879,-52.8994 97.14409,-117.4624 86.90833,-89.3976 127.68222,-132.0294 136.0941,-142.2953 23.11333,-28.2077 42.77873,-64.5035 56.23723,-103.7949 14.7773,-43.1418 20.5104,-76.4712 19.5999,-113.9428 l -0.1637,-6.7377 -8.25,6.3407 c -22.37449,17.1965 -52.74468,34.7315 -75.25,43.4475 -52.64804,20.39 -65.8949,26.1515 -98,42.6234 -58.26818,29.8953 -103.29198,61.6144 -143.35189,100.9909 -26.02143,25.5775 -44.43929,47.5453 -61.64043,73.5215 -9.41681,14.2207 -15.40855,24.8056 -38.52154,68.0514 -22.29825,41.7214 -31.52512,56.3908 -42.05131,66.8555 -13.16575,13.0888 -30.78639,19.7039 -55.43483,20.8113 -19.54368,0.878 -33.35119,-2.3676 -48.93961,-11.5038 -9.44873,-5.5377 -23.12671,-19.4698 -31.08092,-31.6583 -4.55025,-6.9725 -7.35807,-10.3815 -8.26422,-10.0338 -0.75486,0.2897 -4.91414,1.4309 -9.24286,2.5362 -15.15674,3.8698 -31.39458,6.1649 -47.49942,6.7135 l -16.02703,0.546 -10.97297,-4.3542 c -25.33421,-10.0529 -52.81543,-25.3967 -65.4786,-36.5592 -21.89529,-19.3006 -48.08643,-53.4753 -60.54499,-79.0005 -11.61566,-23.7982 -19.44697,-53.8682 -24.05686,-92.3716 -2.1888,-18.2815 -2.51369,-57.9727 -0.56464,-68.9811 10.22151,-57.732 40.19487,-114.6262 109.47526,-207.80162 49.20365,-66.17413 71.68171,-101.12368 93.707,-145.69838 19.72578,-39.92095 28.97111,-69.54652 28.99975,-92.92622 0.0227,-18.50556 4.14073,-60.38566 7.61223,-77.4152 3.80399,-18.66054 11.58437,-36.71277 24.89002,-57.75039 4.83807,-7.6495 11.62673,-18.40819 15.08591,-23.90819 11.20758,-17.81975 42.24372,-55.79098 65.56659,-80.21757 l 10.7107,-11.21758 -5.95843,-17.78242 C 510.13598,445.36327 499.79195,401.79769 493.59909,357.57546 486.9564,310.1411 484.72478,256.80966 487.61187,214.49217 l 0.55951,-8.20102 9.16431,3.32317 c 37.02651,13.42658 84.70762,35.27832 119.54413,54.78579 71.4898,40.03229 130.39291,85.97635 189.11481,147.50839 8.51112,8.91842 15.76316,15.89342 16.11565,15.5 0.35249,-0.39341 2.10866,-5.2153 3.9026,-10.7153 21.30109,-65.30664 61.6879,-121.65864 117.78795,-164.3504 l 8.30084,-6.31688 9.52554,7.15986 c 44.70669,33.60367 81.26359,75.77866 109.37219,126.18065 l 8.1831,14.67323 7.6588,0.63192 c 99.1575,8.18141 182.226,30.62346 265.3765,71.69496 100.0224,49.40523 185.1182,116.78784 254.9704,201.89678 33.5387,40.864 72.0709,98.71869 103.9194,156.03096 77.9417,140.25854 124.8473,289.36312 147.3498,468.39892 6.5382,52.0199 11.7272,131.3035 16.6567,254.5 0.6097,15.2379 1.319,97.3938 1.5907,184.25 l 0.4903,156.75 H 1261.1206 645.04611 Z m 1112.41695,-78.5 c 0.012,-5.3625 0.6768,-21.675 1.4779,-36.25 3.1714,-57.7026 3.6615,-97.5555 3.2407,-263.5 -0.2871,-113.1935 -0.7835,-169.3957 -1.5811,-179 -7.9724,-95.9982 -19.0679,-157.223 -44.4911,-245.5 -25.8551,-89.77676 -49.175,-151.52481 -82.3301,-218 -23.3967,-46.90954 -40.9839,-76.65994 -69.2005,-117.05876 -17.4454,-24.97735 -24.2347,-34.09132 -36.2259,-48.62975 C 1442.2522,596.86159 1306.5296,513.6396 1163.5,476.66917 c -19.4312,-5.02259 -56.3819,-12.9274 -57.095,-12.21426 -0.1702,0.17013 0.5526,5.59354 1.6062,12.05201 5.0019,30.66315 7.5696,76.79773 5.0722,91.1322 -3.12,17.90761 -12.6354,26.99376 -29.6138,28.27783 -12.5551,0.94955 -23.8447,-2.24093 -29.6606,-8.38217 -5.938,-6.27011 -6.7621,-10.01044 -6.7956,-30.84158 -0.049,-30.53216 -2.421,-51.86673 -8.5778,-77.15428 -9.9072,-40.6907 -28.7279,-78.86645 -55.38667,-112.34572 -8.15326,-10.23922 -28.3311,-32 -29.67224,-32 -3.44858,0 -29.32476,32.51893 -40.83182,51.31385 -23.76132,38.81031 -36.48708,78.08161 -41.04391,126.66032 -0.80101,8.53921 -1.91078,17.11636 -2.46617,19.06035 -1.7666,6.18346 -6.58707,12.61828 -11.70719,15.62785 -4.65863,2.73831 -5.30012,2.83763 -18.3276,2.83763 -12.77693,0 -13.80688,-0.1507 -19.22959,-2.81356 -6.70829,-3.29417 -11.04725,-8.14656 -13.75765,-15.38559 -2.54585,-6.79955 -3.53189,-16.76117 -2.15331,-21.754 0.59749,-2.16392 0.93305,-4.08769 0.74569,-4.27505 -0.52874,-0.52873 -24.59153,8.36751 -39.07387,14.44598 -11.304,4.74447 -27.77578,12.74568 -53.96789,26.21504 -6.02463,3.09819 -7.86528,3.56718 -14,3.56718 -5.90037,0 -7.83166,-0.45164 -11.72942,-2.74295 -9.80589,-5.76443 -18.78736,-20.37352 -19.61213,-31.90072 -0.42396,-5.92546 -0.14198,-7.49925 2.20212,-12.29042 1.47859,-3.02214 4.7246,-7.28717 7.21336,-9.47786 3.74043,-3.29246 47.50228,-26.64088 71.61269,-38.20778 2.6125,-1.25334 4.75,-2.71392 4.75,-3.24573 0,-1.07903 -22.61373,-22.95008 -36.5,-35.30127 -41.89182,-37.26081 -92.63608,-72.17341 -143.25,-98.55752 -9.42662,-4.91393 -15.24954,-7.43904 -15.24879,-6.61265 6.7e-4,0.73529 0.69623,7.4119 1.5457,14.8369 9.99124,87.33135 33.39362,165.93537 72.04944,242 9.94352,19.56627 11.05551,24.64988 7.46932,34.14709 -5.0786,13.44954 -22.13586,25.95465 -35.54799,26.06115 -13.21861,0.10495 -21.9162,-8.92354 -37.95018,-39.39403 l -6.64435,-12.62674 -9.53239,9.82358 c -13.86686,14.29047 -20.10959,22.49055 -31.20494,40.98895 -20.77995,34.64476 -35.8187,64.84872 -40.5802,81.50161 -4.38982,15.35296 -4.75313,20.69771 -2.97105,43.70746 l 1.6039,20.70906 -2.56887,12.79094 c -7.25661,36.1321 -19.90559,67.9496 -40.67769,102.32151 -31.3244,51.83296 -94.63109,149.49772 -146.24701,225.61872 -20.42259,30.1184 -31.26629,55.1409 -41.10433,94.8507 -3.77072,15.22 -4.64057,22.8846 -4.64057,40.8903 0,25.2304 3.63994,48.7629 10.6637,68.9417 8.394,24.1153 18.44808,38.5896 40.7471,58.6612 14.4183,12.978 24.15895,19.828 37.09612,26.0873 14.77824,7.15 24.81039,9.2628 40.99308,8.6333 14.0128,-0.5451 18.6231,-1.6043 32.5,-7.4669 22.56566,-9.5332 32.84498,-20.5538 45.82905,-49.1339 13.9256,-30.6525 28.8572,-50.8379 39.01575,-52.7437 8.32987,-1.5627 19.86693,3.1921 24.00963,9.8952 3.09581,5.0091 5.45169,15.2085 4.68848,20.2979 -0.35367,2.3585 -3.81474,13.6592 -7.69126,25.1128 -10.23439,30.2387 -19.95968,48.5109 -40.3186,75.7521 l -8.54179,11.4293 2.60215,7.3217 c 3.02495,8.5113 6.29152,14.4821 10.62048,19.4125 9.31386,10.6079 22.11951,8.686 37.13013,-5.5726 9.89985,-9.4039 14.53437,-16.8463 31.45881,-50.5182 32.5154,-64.6909 62.30908,-111.8373 92.0682,-145.6915 20.7408,-23.5949 69.54137,-66.4685 100.75067,-88.5143 43.31335,-30.5959 65.36751,-42.9113 109.54805,-61.1735 35.62116,-14.7241 73.74229,-32.2095 90.33025,-41.4328 54.4147,-30.2558 96.4715,-76.4937 122.8363,-135.04825 10.2915,-22.85693 15.1349,-39.97705 17.7212,-62.63965 1.4103,-12.35864 1.4659,-45.71334 0.09,-53.86986 -3.0579,-18.12428 6.9701,-27.62438 30.4725,-28.86841 8.5905,-0.45471 11.2177,-0.20218 17.3851,1.6711 6.0316,1.83205 8.1501,3.09159 12.4764,7.41795 9.6869,9.68689 11.7492,20.40619 9.5723,49.75519 -2.0974,28.27879 -6.2085,51.43369 -13.7408,77.39403 -9.0146,31.06871 -26.4382,68.3602 -44.5042,95.2517 l -4.8717,7.2517 2.4988,8.2483 c 12.0821,39.8816 14.9159,92.2415 7.4752,138.121 -6.5149,40.1715 -26.6235,97.7912 -47.1577,135.1273 -23.1534,42.0983 -65.24547,88.9875 -125.7531,140.0848 -48.0749,40.5982 -82.15607,74.5125 -110.45581,109.9152 -43.94934,54.9802 -72.65476,112.6162 -83.95969,168.5779 -4.42713,21.9152 -7.02184,52.4485 -5.90366,69.4712 l 0.62051,9.4509 H 1237.1508 1756 Z M 314.12881,1291.5506 c -2.40415,-0.8827 -6.07995,-3.3656 -8.16845,-5.5177 -7.46531,-7.6925 -9.35565,-19.5123 -6.13164,-38.3397 6.28734,-36.7164 23.67823,-64.5136 54.89844,-87.7485 11.76343,-8.7546 16.68452,-10.9484 24.78051,-11.0469 11.99298,-0.1459 24.86991,9.1918 31.63999,22.9438 2.78536,5.6578 3.34664,7.9124 3.31864,13.3306 -0.0223,4.3143 -0.64319,7.6595 -1.83481,9.8854 -2.66066,4.9699 -9.37579,11.8874 -15.72521,16.1992 -8.80026,5.9762 -16.45253,13.4849 -21.53695,21.133 -5.67681,8.5391 -10.33747,21.3421 -10.35595,28.4481 -0.0182,6.9869 -3.29865,17.063 -7.01935,21.5602 -1.74243,2.106 -5.90987,5.1052 -9.65693,6.9499 -6.12495,3.0153 -7.41469,3.265 -18.2144,3.5263 -8.74792,0.2116 -12.70388,-0.1158 -15.99389,-1.3237 z M 553.27298,860.18884 c -7.25976,-2.58087 -15.63902,-8.36887 -19.27682,-13.3155 -6.90654,-9.39143 -8.00053,-23.54715 -2.85164,-36.89868 4.28233,-11.10445 15.09813,-32.20288 22.59174,-44.06982 23.34053,-36.96226 55.46021,-67.12635 94.8843,-89.10732 11.90083,-6.63534 34.01095,-16.48785 43.73478,-19.4887 9.7356,-3.0045 21.41635,-2.90089 28.18276,0.24997 10.89152,5.07177 18.4037,18.2998 19.23765,33.87516 0.42649,7.96544 0.23091,9.22535 -2.20496,14.20409 -1.47013,3.00485 -4.07747,6.64516 -5.79408,8.08959 -1.71661,1.44444 -10.16958,6.15567 -18.78438,10.46941 l -15.66326,7.84316 3.66,7.5035 c 6.80004,13.94103 8.06887,27.61502 4.09668,44.1495 -4.31787,17.97339 -13.35807,31.81519 -25.42906,38.9354 -17.08806,10.07959 -50.806,8.37912 -68.32736,-3.4459 l -4.26989,-2.88172 -2.11014,2.96342 c -1.16058,1.62989 -5.20594,9.44762 -8.9897,17.37276 -7.36842,15.43327 -11.23537,20.41472 -18.35848,23.64963 -5.46558,2.48214 -17.20351,2.43489 -24.32814,-0.0979 z"
       id="path1" />
  </g>
  <path
     style="fill:#ffffff;stroke-width:2.78639"
     d="m 1331.8296,296.5632 c -0.078,82.7129 -37.2269,166.7261 -111.3925,251.9171 -12.6867,14.5729 -50.5496,50.9355 -84.1396,80.8059 -66.2021,58.8712 -98.1596,93.2411 -122.2036,131.429 -23.2595,36.9416 -48.265,104.015 -55.5797,149.0838 -4.8783,30.057 -3.4787,88.3675 2.8688,119.515 l 5.7004,27.9719 -6.8211,10.3073 c -30.6661,46.3396 -51.0756,110.2687 -53.8842,168.7823 -1.8193,37.9019 1.0348,47.9566 15.7767,55.5799 15.4905,8.0105 47.2963,3.7998 53.0915,-7.0287 1.5002,-2.8031 2.7276,-21.2788 2.7276,-41.0571 0,-41.7233 5.1135,-66.2001 20.5781,-98.5002 15.7281,-32.8506 31.563,-54.9977 58.6274,-81.9978 31.7799,-31.7043 57.0885,-47.3814 123.8919,-76.7438 28.5217,-12.5363 60.5831,-27.1569 71.2476,-32.4902 23.4873,-11.7461 69.5315,-42.3464 93.7956,-62.335 76.6138,-63.114 105.9458,-100.4568 160.1634,-203.905 33.291,-63.5199 53.8388,-82.6529 70.1351,-65.3063 3.2497,3.4591 7.704,10.5595 9.8985,15.7787 3.9291,9.3446 3.7992,9.7481 -8.5121,26.4508 -16.1802,21.9515 -28.9631,47.5431 -37.8966,75.8697 -5.8586,18.5767 -6.6556,24.4913 -4.4007,32.658 3.3459,12.1178 11.752,18.4963 24.3758,18.4963 12.9835,0 23.169,-11.7541 43.602,-50.317 10.3337,-19.5028 20.0561,-33.9518 26.3241,-39.122 25.2281,-20.8095 62.4784,-24.7924 92.859,-9.9285 23.22,11.3605 58.415,45.5156 68.8963,66.8606 18.1636,36.9902 22.2269,93.8245 9.7789,136.78 -11.4136,39.3857 -20.8049,56.5038 -81.6933,148.9059 -108.6265,164.8482 -126.1357,195.7616 -138.7739,245.0121 -5.9096,23.0297 -6.6676,30.6241 -5.1062,51.16 2.633,34.631 -4.6098,56.3213 -38.469,115.204 -13.3097,23.1461 -40.6587,57.6934 -44.0253,55.6127 -1.3057,-0.807 -6.3956,-9.0124 -11.3108,-18.2342 -12.1874,-22.866 -22.681,-31.4206 -36.3015,-29.5937 -20.6123,2.7647 -37.6234,21.8347 -35.0172,39.2553 0.7149,4.7783 9.0285,25.2898 18.4748,45.5812 28.9206,62.1233 50.5826,135.5855 59.1558,200.6138 1.8665,14.1576 2.6046,26.5301 1.6403,27.4945 -2.3287,2.3286 -38.6141,-17.6437 -72.504,-39.9078 -29.0977,-19.116 -70.011,-51.3423 -99.2717,-78.1938 l -17.8893,-16.4164 34.236,-17.8732 c 43.6949,-22.8112 50.3046,-28.6996 50.3046,-44.815 0,-16.4747 -10.3651,-31.6897 -24.4117,-35.8342 -9.8217,-2.898 -12.4127,-2.1284 -45.2482,13.4394 -19.1564,9.0824 -42.0397,19.179 -50.8517,22.437 l -16.0217,5.9235 -0.041,-10.4098 c -0.057,-14.3632 -5.269,-23.4725 -16.7161,-29.2138 -16.4433,-8.2471 -39.6406,-5.0121 -46.8511,6.5337 -1.9722,3.1581 -5.9521,21.6304 -8.8442,41.0496 -5.7637,38.7015 -13.4276,63.8396 -28.7013,94.1417 -9.2974,18.4453 -40.4463,62.7968 -46.9085,66.7906 -6.1552,3.8041 -41.332,-38.5968 -59.1438,-71.29 -22.5915,-41.466 -32.0577,-77.0933 -35.0343,-131.8558 -1.9645,-36.1424 -2.5284,-38.9468 -9.1658,-45.5843 -15.3174,-15.3173 -48.7048,-10.2001 -56.5907,8.6735 -4.9118,11.7555 -5.385,50.7162 -1.0458,86.0966 1.6597,13.5333 2.3695,25.2543 1.5773,26.0466 -2.5983,2.5982 -55.3525,-10.5929 -96.5618,-24.1452 C 731.3142,1565.5896 632.3332,1505.3526 556.6562,1427.7152 495.099,1364.5632 437.0583,1272.8769 391.3705,1166.6149 360.6774,1095.228 319.6639,955.5672 306.68,878.2231 293.6838,800.8058 292.5822,776.6726 292.5507,568.6817 c -0.016,-108.1808 0.794,-217.5816 1.8009,-243.1129 l 1.8308,-46.4206 h 517.8318 517.8318 z m 369.1953,508.0159 c -9.6521,4.5802 -12.706,10.2007 -18.0616,33.2413 -4.3538,18.7305 -10.5213,27.913 -30.5223,45.4432 -15.0801,13.217 -16.878,15.9187 -16.878,25.362 0,13.7249 9.5881,28.023 23.2967,34.7406 14.7783,7.2419 26.7791,3.1994 48.2895,-16.2664 29.8088,-26.9755 45.4424,-59.5622 45.4424,-94.7205 0,-15.1749 -0.97,-18.4533 -7.346,-24.8293 -5.9633,-5.9633 -9.9486,-7.346 -21.1734,-7.346 -7.6051,0 -17.9764,1.9688 -23.0473,4.3751 z m -236.3805,434.2656 c -3.4404,3.7122 -9.2373,13.1163 -12.8821,20.8979 -6.9855,14.9145 -8.4076,15.8641 -16.9279,11.3042 -2.923,-1.5644 -11.9232,-4.0976 -20.0004,-5.6295 -21.315,-4.0423 -41.6445,0.7527 -53.5137,12.6219 -16.5394,16.5395 -23.4889,52.4811 -14.3681,74.3102 l 3.9606,9.479 -17.4884,9.0673 c -18.3451,9.5115 -23.8696,16.7765 -23.8696,31.3901 0,10.947 6.0634,24.8889 13.84,31.8229 20.2706,18.0745 83.5129,-8.3223 133.4855,-55.7157 24.9158,-23.6298 40.8186,-45.4185 55.8781,-76.5596 11.8708,-24.5473 13.9526,-37.9595 7.7842,-50.1499 -9.595,-18.9622 -43.0929,-26.6561 -55.8982,-12.8388 z"
     id="path2" />
</svg>
