<?xml version="1.0" encoding="UTF-8" standalone="no"?>
<!-- Created with Inkscape (http://www.inkscape.org/) -->

<svg
   version="1.1"
   id="svg1"
   width="2048"
   height="2048"
   viewBox="0 0 2048 2048"
   xmlns="http://www.w3.org/2000/svg"
   xmlns:svg="http://www.w3.org/2000/svg">
  <defs
     id="defs1" />
  <g
     id="g1"
     transform="rotate(180,1024.0602,1020.8669)">
    <path
       style="fill:#000000"
       d="m 758.5,1839.5496 c -7.15762,-0.7141 -77.78072,-10.4605 -242.5,-33.4664 -29.975,-4.1865 -59,-7.849 -64.5,-8.1389 -6.24731,-0.3293 -15.06613,0.073 -23.5,1.0733 -7.425,0.8802 -17.1,1.6092 -21.5,1.6199 -21.83722,0.053 -58.62186,8.9973 -78.92341,19.1899 -9.41556,4.7271 -15.43112,8.7095 -21.26019,14.0747 l -4.1836,3.8506 -1.48209,-2.3161 c -0.81515,-1.2739 -22.70957,-37.1401 -48.65427,-79.7026 l -47.17219,-77.3863 6.83788,-6.9472 c 13.95867,-14.182 21.13051,-19.0488 46.83787,-31.7842 39.53176,-19.584 71.60248,-29.9594 111.15547,-35.9604 21.58629,-3.2752 35.29726,-4.0141 74.84453,-4.0337 20.9,-0.01 43.00375,-0.4619 49.11944,-1.0033 10.72782,-0.9497 12.10141,-0.8281 39,3.4536 65.50695,10.4273 189.51257,27.5484 199.50781,27.5455 11.86758,0 33.8179,-1.7747 44.22427,-3.5685 14.42304,-2.4863 23.4498,-5.8666 36.2728,-13.5834 34.06412,-20.4997 49.69025,-33.5257 70.16697,-58.4916 l 4.22058,-5.1458 -8.75593,-1.1625 c -52.57267,-6.9795 -110.22602,-20.6607 -166.30907,-39.4653 -25.66772,-8.6063 -29.49501,-10.1456 -29.2084,-11.7476 0.13116,-0.7331 22.56224,-56.6829 49.84684,-124.3329 27.2846,-67.65 50.44199,-125.0963 51.46085,-127.6585 l 1.85249,-4.6584 -23.69933,-14.2108 c -46.3391,-27.7862 -75.96301,-48.9242 -94.56408,-67.4757 -18.93879,-18.8884 -29.77157,-34.6132 -46.15387,-66.9966 -18.24664,-36.0687 -25.51823,-60.3564 -31.13692,-103.99999 -2.50794,-19.48056 -2.5261,-64.66082 -0.0332,-82.5 7.66566,-54.85461 27.73687,-112.68555 51.54215,-148.50773 14.70494,-22.128 37.87542,-47.60233 60.14656,-66.12696 4.675,-3.88856 18.625,-14.87432 31,-24.41281 38.21016,-29.45186 85.21551,-67.54245 114,-92.37939 34.74095,-29.97653 71.27664,-66.29552 106.83233,-106.19869 l 8.13135,-9.12559 -7.73184,-4.49748 c -25.78163,-14.99676 -46.4583,-37.66663 -55.9769,-61.37301 -14.24912,-35.48786 -13.5286,-79.52628 1.83763,-112.31696 6.54621,-13.96925 16.2002,-27.45131 28.35912,-39.6043 19.65316,-19.64357 40.20417,-30.90843 66.81464,-36.62387 13.58491,-2.91778 41.68281,-3.19232 54.91591,-0.53656 17.5616,3.52443 33.4321,10.04557 48.3178,19.85363 10.5232,6.93364 32.4161,28.8265 39.3497,39.34972 14.0794,21.36825 20.7401,42.57652 21.8273,69.5 2.1408,53.01087 -20.6857,94.90867 -66.4404,121.951 l -7.2635,4.29289 6.7357,7.62805 c 32.545,36.85654 68.9847,74.16111 95.2912,97.55276 32.6659,29.04643 79.5168,67.04196 123.8936,100.47612 13.4164,10.10819 29.1664,22.47297 35,27.4773 38.6134,33.12475 66.42,71.11346 82.436,112.62188 12.9355,33.52513 22.1377,68.70639 27.3334,104.5 4.1293,28.44723 1.1121,80.31562 -6.835,117.49999 -7.8874,36.905 -26.0246,76.4962 -49.247,107.5 -23.0101,30.7203 -54.4597,55.8212 -118.2908,94.4117 l -20.2098,12.2183 1.859,4.685 c 1.0224,2.5767 24.1845,60.035 51.4712,127.685 27.2868,67.65 49.7197,123.6215 49.8509,124.381 0.1649,0.9552 -5.0773,3.1961 -16.9993,7.2668 -56.0651,19.1431 -120.7496,35.4057 -168.2622,42.3034 -9.625,1.3974 -17.8674,2.5425 -18.3164,2.5447 -3.3322,0.017 27.9042,33.2838 39.3508,41.9091 17.9541,13.5288 43.8238,28.5084 55.2287,31.9796 13.0682,3.9774 39.3614,7.1154 59.6205,7.1154 8.383,0 146.5541,-19.1251 202.0219,-27.963 24.2078,-3.8572 25.9051,-4.0007 36,-3.0433 5.827,0.5525 27.9195,1.0096 49.0945,1.0158 42.0834,0.012 54.7572,0.7544 77.7076,4.551 39.9148,6.6028 77.4476,19.0045 112.2924,37.104 21.5764,11.2074 27.943,15.5194 40.1526,27.1951 l 10.1436,9.7001 -46.8157,75.9702 c -25.7486,41.7835 -47.8917,77.6905 -49.2068,79.7933 l -2.3912,3.8232 -4.4123,-4.0671 c -8.8831,-8.1882 -23.2743,-15.9771 -39.5393,-21.3999 -21.5104,-7.1716 -44.5605,-11.6619 -59.9309,-11.6747 -4.675,0 -14.575,-0.7273 -22,-1.6075 -8.4019,-0.996 -17.2764,-1.4033 -23.5,-1.0786 -5.5,0.2869 -74.575,9.5349 -153.5,20.5511 -78.925,11.0161 -148.1602,20.5021 -153.856,21.0798 -21.4191,2.1727 -46.767,1.0262 -68.0618,-3.0784 -29.28,-5.6438 -66.384,-20.8054 -91.6742,-37.4603 -19.7684,-13.0185 -65.6098,-52.8584 -76.6508,-66.6157 -8.7808,-10.9411 -19.2661,-35.8904 -24.8145,-59.0451 -1.285,-5.3625 -2.5853,-9.7475 -2.8895,-9.7445 -0.3043,0 -2.0546,5.5155 -3.8896,12.25 -6.8016,24.9621 -16.1735,46.3262 -26.10259,59.503 -12.37896,16.4281 -44.76752,44.0092 -70.25166,59.8241 -29.58341,18.3588 -71.48072,35.8472 -98.96814,41.3104 -19.73377,3.922 -45.59927,5.1059 -66.34125,3.0362 z m 22.5,-68.421 c 52.72432,-6.0086 91.68977,-20.317 120,-44.0651 18.62148,-15.6206 37.82675,-37.9642 54.96191,-63.9431 19.79125,-30.0059 29.51762,-61.2586 31.66631,-101.75 l 0.67659,-12.75 h -16.0539 -16.05389 l -9.70441,14.6907 c -25.08817,37.9791 -49.34219,65.7481 -73.04025,83.6256 -17.66951,13.3297 -62.52583,33.2981 -91.30724,40.6466 -12.05627,3.0783 -25.89288,4.9785 -41.14512,5.6505 -15.03314,0.6624 -18.57698,0.2262 -94.11535,-11.5831 -62.86835,-9.8286 -74.65711,-12.1412 -113.88465,-22.3408 -28.59223,-7.4343 -35.38483,-8.1859 -74,-8.1878 -34.89306,0 -43.57623,0.5941 -74.5,5.1127 -36.45242,5.3264 -67.83813,14.5404 -93.74037,27.5196 l -7.74037,3.8786 7.8323,12.7437 c 26.45685,43.0471 35.76863,58.181 37.90671,61.6079 l 2.41095,3.8641 3.16539,-3.0619 c 4.65716,-4.505 15.29805,-9.6873 23.74932,-11.5665 49.23608,-10.9479 57.56568,-12.0879 87.91607,-12.0318 21.97201,0.041 26.04775,0.3196 39.5,2.7038 8.25,1.4622 27.65768,4.249 43.12818,6.1928 30.94303,3.888 58.12234,7.738 91.79657,13.0031 25.97392,4.0611 63.16425,8.9526 83.57525,10.9924 17.82098,1.781 57.3016,1.2928 77,-0.952 z m 579.0655,-0.8805 c 26.8639,-3.1225 42.0821,-5.2463 86.9345,-12.1327 19.525,-2.9978 51.3797,-7.4848 70.7882,-9.9712 19.4086,-2.4864 40.5586,-5.5159 47,-6.7324 10.0407,-1.8961 15.2075,-2.2157 36.2118,-2.2401 30.3345,-0.035 38.4475,1.0737 87.6037,11.9749 8.5904,1.9051 18.3697,6.3917 24.0155,11.0179 3.1287,2.5638 4.4039,3.1092 5.111,2.186 2.2383,-2.9228 46.3364,-75.3262 46.4287,-76.2301 0.2997,-2.9334 -42.449,-19.4087 -64.6589,-24.9195 -52.65,-13.0638 -130.5633,-16.5292 -171.5141,-7.6285 -5.2173,1.134 -16.9109,4.1021 -25.9859,6.5959 -22.9265,6.3003 -48.5576,11.2646 -97.5,18.8843 -83.138,12.9435 -82.3577,12.8469 -98.0944,12.1446 -23.8057,-1.0624 -41.1441,-4.4391 -62.9056,-12.2512 -23.2191,-8.3354 -50.5498,-21.4218 -65.0314,-31.1384 -24.2125,-16.2455 -49.187,-43.6244 -75.1976,-82.4372 l -12.5654,-18.75 h -16.0071 -16.0071 l 0.6225,12.25 c 2.4866,48.9307 14.8573,81.7475 46.2719,122.75 30.0837,39.2655 59.5255,61.5008 98.5568,74.433 43.7418,14.493 98.9805,18.8132 155.9229,12.1947 z M 1063.5,1492.6134 c 43.3217,-2.3311 77.855,-7.0025 129.6226,-17.5343 36.7844,-7.4836 85.8774,-19.1422 85.8774,-20.3942 0,-1.5743 -50.0123,-12.4927 -80,-17.4651 -110.2668,-18.284 -249.29158,-17.8999 -357,0.9864 -28.98288,5.082 -73,15.0039 -73,16.455 0,0.8498 50.85446,13.4663 74,18.3587 56.28311,11.8968 98.36979,17.585 147.5,19.9353 15.2145,0.7278 56.7354,0.5334 73,-0.3418 z M 820,1372.2221 c 44.5968,-8.3587 84.69188,-13.3061 136,-16.7812 24.48727,-1.6586 110.7521,-1.6648 135,-0.01 53.5112,3.6524 106.5459,10.4846 147.9957,19.0654 5.2226,1.0812 9.5678,1.8888 9.6559,1.7948 0.2802,-0.299 -47.1886,-121.5413 -47.8415,-122.1942 -0.8368,-0.8368 -29.0102,-4.8923 -51.3101,-7.3859 -83.8428,-9.3756 -168.78805,-9.3701 -252.5,0.016 -24.78008,2.7785 -50.05876,6.5272 -50.95908,7.5569 -0.40193,0.4598 -10.53037,26.0359 -22.50763,56.8359 -11.97726,30.8 -22.6282,58.1698 -23.66875,60.8217 -1.77922,4.5346 -1.78686,4.7898 -0.12822,4.2846 0.97002,-0.2955 10.08868,-2.0976 20.26368,-4.0046 z m 40.05095,-189.0676 c 106.20658,-15.8184 231.68535,-15.2462 337.74765,1.5403 l 12.2986,1.9465 10.7014,-4.1544 c 40.032,-15.5411 74.2282,-37.4823 99.7251,-63.9864 42.0141,-43.6737 66.5799,-104.4045 69.1216,-170.88009 1.0113,-26.45174 -2.3427,-51.30778 -10.6175,-78.68328 -14.4724,-47.87937 -35.7446,-84.03932 -69.0213,-117.32708 -6.6509,-6.6532 -39.3573,-34.70955 -77.5065,-66.48704 -71.9933,-59.96894 -88.3586,-73.82732 -105,-88.91552 -18.5549,-16.82307 -64.6597,-62.97782 -84.2458,-84.33708 -10.2129,-11.1375 -18.8803,-20.25 -19.2609,-20.25 -0.3806,0 -5.5899,5.2875 -11.5763,11.75 -50.04934,54.03015 -86.27381,88.55284 -140.417,133.82041 -79.97932,66.86842 -122.80568,103.21975 -131.86689,111.92959 -27.48565,26.41981 -48.20262,57.07111 -61.50616,91 -15.2849,38.98205 -21.32678,70.59835 -20.25662,106 1.32469,43.82177 10.96561,81.85919 30.39063,119.90359 10.88918,21.3267 23.89595,39.0192 41.39887,56.313 16.57293,16.375 34.40232,29.5348 56.34017,41.5847 20.51134,11.2663 49.12792,23.0161 54.05095,22.1929 1.67802,-0.2806 10.45302,-1.6126 19.5,-2.9601 z M 1011.5,1031.2768 c -12.63623,-3.2798 -19.66117,-10.6435 -22.37679,-23.4556 C 988.3908,1004.3657 988,987.4039 988,959.07119 v -43.45078 l -17.25,-0.0916 c -9.4875,-0.0503 -30.75,-0.39875 -47.25,-0.77421 -29.46167,-0.67041 -30.09869,-0.72891 -35.5,-3.25981 -6.94035,-3.25205 -10.60455,-6.90986 -13.89862,-13.87438 -2.33219,-4.93087 -2.60138,-6.68999 -2.60138,-17 0,-10.31001 0.26919,-12.06913 2.60138,-17 3.28823,-6.95217 6.94645,-10.61039 13.89862,-13.89862 l 5.5,-2.60138 47.20567,-0.29554 47.20567,-0.29554 0.29433,-48.80743 0.29433,-48.80743 3.50811,-6.89703 c 2.71249,-5.33283 4.60455,-7.63102 8.34269,-10.13344 6.7919,-4.54675 11.6016,-5.71426 23.6492,-5.74062 13.4859,-0.0295 19.5463,1.9281 26.0244,8.40623 8.4962,8.49617 8.3837,7.68145 8.7466,63.3208 l 0.3179,48.75 h 46.2741 c 49.4277,0 52.3231,0.24858 60.401,5.18559 16.3583,9.99768 16.179,47.65208 -0.2752,57.82135 -7.583,4.68655 -10.9908,4.96855 -60.1927,4.98119 l -46.2039,0.0119 -0.3423,46.75 c -0.37,50.53176 -0.3624,50.45766 -6.0268,58.91916 -2.4655,3.6829 -4.7986,5.6157 -9.9256,8.2226 -6.0383,3.0703 -7.6734,3.4404 -16.5,3.7352 -5.8869,0.1967 -11.7932,-0.1907 -14.7975,-0.9705 z m 27.896,-627.70521 c 9.4771,-1.31814 20.4883,-5.02675 26.6339,-8.97038 5.8346,-3.74402 13.7261,-11.98205 17.2244,-17.9808 9.4464,-16.19787 11.4223,-48.89989 4.232,-70.04028 -3.0837,-9.06648 -7.0594,-15.32155 -13.7647,-21.65652 -7.0626,-6.67253 -12.5536,-9.69776 -23.2216,-12.79392 -22.1744,-6.43561 -52.90532,-3.51636 -68.52993,6.50992 -5.886,3.77704 -13.77619,12.03905 -17.1716,17.9808 -12.15278,21.2666 -11.54457,62.13693 1.22073,82.02993 3.77704,5.886 12.03905,13.77619 17.9808,17.1716 13.0335,7.44798 35.2347,10.55383 55.396,7.74965 z"
       id="path1" />
  </g>
  <path
     style="fill:#ffffff;stroke-width:2.78639"
     d="m 1051.6503,1642.4019 c 13.7975,3.8231 31.1597,21.117 34.9676,34.8299 1.6235,5.8464 2.9312,19.407 2.9061,30.1347 -0.098,41.9978 -22.0197,63.2552 -65.3919,63.4112 -46.28737,0.1664 -67.49387,-23.2597 -64.94887,-71.747 1.0875,-20.7207 2.3032,-25.2874 9.4087,-35.3455 11.6384,-16.4743 25.822,-23.0248 51.34887,-23.7145 11.4939,-0.3105 25.7632,0.7835 31.7095,2.4312 z"
     id="path2" />
  <path
     style="fill:#ffffff;stroke-width:2.78639"
     d="m 1230.5839,865.38764 c 61.662,24.9579 104.1205,64.0353 131.1531,120.709 19.6526,41.20156 24.0499,61.75526 24.3543,113.83586 0.2951,50.5079 -3.6679,69.4862 -23.3432,111.7868 -23.3308,50.1599 -36.1927,64.0034 -142.9477,153.8569 -85.9488,72.3414 -123.1133,106.2102 -166.4788,151.7159 l -29.3133,30.7598 -29.20107,-31.4364 c -38.2791,-41.2094 -76.6038,-76.1051 -168.2904,-153.2336 -41.5047,-34.9145 -84.4102,-72.9045 -95.3456,-84.4222 -54.1231,-57.0056 -80.2787,-141.7826 -67.6989,-219.43 4.4717,-27.6009 18.5696,-67.11016 32.3416,-90.63676 24.7562,-42.2912 70.5939,-81.5627 119.7646,-102.6086 l 22.61,-9.6775 24.6993,3.6564 c 53.2295,7.8801 106.5173,10.4614 186.82657,9.0501 69.7213,-1.2252 135.5647,-6.2705 154.1285,-11.8103 2.2988,-0.686 14.3322,2.8621 26.741,7.8846 z M 997.43533,1017.5195 c -7.7852,7.7852 -8.1448,9.2427 -8.1448,33.0086 0,13.6752 -0.8147,36.3414 -1.8105,50.3695 l -1.8104,25.5056 h -46.7701 c -25.7235,0 -49.9263,1.2 -53.784,2.6667 -13.6995,5.2085 -20.497,33.7798 -12.3111,51.7458 6.0695,13.3213 14.3782,15.2474 65.7723,15.2474 h 47.0869 l 1.799,27.1673 c 0.9895,14.9421 1.8055,38.2353 1.8135,51.7627 0.014,23.4603 0.3902,24.9711 8.1592,32.7401 7.37567,7.3757 9.90167,8.1448 26.74937,8.1448 17.4429,0 19.1961,-0.5915 28.0784,-9.4737 l 9.4737,-9.4738 v -50.4337 -50.4337 h 48.3861 c 43.889,0 49.0335,-0.5092 55.3508,-5.4784 16.5419,-13.0118 17.7901,-42.6561 2.3761,-56.4285 -8.4092,-7.5136 -9.6525,-7.753 -40.268,-7.753 -17.3749,0 -39.197,-0.795 -48.4934,-1.7667 l -16.9027,-1.7666 -0.921,-48.6219 -0.9211,-48.6219 -9.0998,-8.1258 c -8.0927,-7.2264 -11.123,-8.1257 -27.3817,-8.1257 -16.4912,0 -19.0798,0.7978 -26.42677,8.1449 z"
     id="path3" />
  <path
     style="fill:#ffffff;stroke-width:2.78639"
     d="m 1244.4598,675.53944 c -2.1002,5.0711 -12.7651,31.9776 -23.6997,59.7922 -16.3128,41.4949 -20.9905,50.839 -26.0618,52.0599 -50.7809,12.2255 -218.39597,15.9477 -294.57247,6.5416 -22.2215,-2.7439 -42.9248,-5.608 -46.0073,-6.3647 -4.3503,-1.0679 -10.4209,-13.6615 -27.1251,-56.2719 -11.8362,-30.1928 -22.231,-56.9091 -23.0995,-59.3696 -1.4361,-4.0685 0.2629,-4.1237 18.7659,-0.6094 105.267,19.9929 245.62717,23.0553 354.71237,7.739 29.9936,-4.2113 58.3707,-9.0772 66.1034,-11.335 4.3863,-1.2807 4.4716,-0.6029 0.9842,7.8179 z"
     id="path4" />
  <path
     style="fill:#ffffff;stroke-width:2.78639"
     d="m 1093.7803,552.54404 c 47.5491,4.8628 86.6211,11.8374 149.0721,26.6107 36.7312,8.689 37.6815,7.7524 -19.5047,19.2236 -127.0168,25.4788 -288.75427,23.7178 -420.74567,-4.5811 l -29.2571,-6.2728 12.5388,-3.6833 c 18.3858,-5.4009 117.6053,-25.2004 143.4993,-28.6357 30.8718,-4.0956 134.04127,-5.7658 164.39727,-2.6614 z"
     id="path5" />
  <path
     style="fill:#ffffff;stroke-width:2.78639"
     d="m 1361.2742,272.86864 c 7.894,0.995 56.0234,7.8363 174.1497,24.7546 41.346,5.9217 57.3387,7.0507 80.8054,5.7049 35.1601,-2.0165 78.182,-10.7449 91.3994,-18.5434 5.2872,-3.1196 9.8541,-5.3075 10.1487,-4.8621 0.2945,0.4454 10.6817,17.3536 23.0827,37.5738 l 22.5472,36.764 -19.9509,8.2807 c -42.609,17.6851 -89.0329,25.4409 -152.3745,25.4563 -41.876,0.01 -49.1931,-0.7575 -80.8055,-8.4777 -35.4789,-8.6645 -106.0119,-21.1207 -165.4161,-29.2127 -51.9941,-7.0825 -86.3271,-0.4236 -145.197,28.1612 -17.9386,8.7103 -27.4892,16.0031 -48.9126,37.3494 -14.6419,14.5892 -33.9896,37.4972 -42.995,50.9067 l -16.3736,24.3809 h -15.2228 -15.2228 l 1.8477,-19.8797 c 3.7578,-40.4324 16.8864,-73.707 42.5177,-107.7613 40.7879,-54.1916 77.3872,-77.0062 141.4573,-88.1791 22.6724,-3.9537 90.8962,-5.3934 114.515,-2.4165 z"
     id="path6" />
  <path
     style="fill:#ffffff;stroke-width:2.78639"
     d="m 803.69803,275.30444 c 61.4466,11.5103 100.987,35.8705 138.0411,85.0451 28.9973,38.4822 44.5938,78.9857 44.7166,116.1272 l 0.048,14.6285 -14.6286,-0.024 -14.6286,-0.024 -11.1455,-17.3304 c -30.6574,-47.6693 -64.1967,-79.6358 -103.2746,-98.4316 -52.2483,-25.1304 -89.5763,-31.7664 -140.1311,-24.9119 -52.8251,7.1623 -126.496,20.2827 -156.2811,27.8329 -54.1545,13.7274 -115.2468,14.6584 -178.204,2.7157 -28.853,-5.4733 -81.0916,-23.5893 -81.0916,-28.122 0,-1.9105 14.7831,-26.7217 32.5327,-54.6014 l 11.9357,-18.7478 9.1128,5.2827 c 12.8959,7.4758 59.877,16.9777 92.7046,18.7494 24.2602,1.3093 42.0984,-0.5689 137.9265,-14.5229 95.5344,-13.9112 116.683,-16.1427 160.2177,-16.9057 35.7898,-0.6273 56.4545,0.301 72.149,3.2409 z"
     id="path7" />
</svg>
