<?xml version="1.0" encoding="UTF-8" standalone="no"?>
<!-- Created with Inkscape (http://www.inkscape.org/) -->

<svg
   version="1.1"
   id="svg1"
   width="2048"
   height="2048"
   viewBox="0 0 2048 2048"
   xmlns="http://www.w3.org/2000/svg"
   xmlns:svg="http://www.w3.org/2000/svg">
  <defs
     id="defs1" />
  <g
     id="g1">
    <path
       style="fill:#000000"
       d="m 734.99998,1775.3717 c 0,-0.8218 29.3365,-29.6991 40.1145,-39.4866 4.612,-4.1882 13.3355,-11.7548 19.3855,-16.8147 6.05,-5.0599 11.9,-10.1832 13,-11.3851 1.7714,-1.9355 13.9818,-12.6224 46.321,-40.5414 5.3235,-4.5958 13.279,-11.6335 17.679,-15.6392 7.7455,-7.0515 13.9102,-12.4604 42.495,-37.2849 25.3815,-22.0427 42.452,-39.9465 54.0571,-56.6962 1.8964,-2.737 3.8144,-5.437 4.2624,-6 6.8707,-8.6354 23.066,-40.0254 29.93672,-58.0236 14.09,-36.9099 18.8355,-61.5158 17.9212,-92.9243 l -0.1724,-5.9243 -2.3145,2.1743 c -1.2729,1.1959 -2.6929,2.1743 -3.1556,2.1743 -0.4626,0 -2.2336,1.0362 -3.9355,2.3027 -3.9252,2.921 -13.08782,8.3177 -24.09442,14.1916 -3.3,1.7611 -7.35,3.9292 -9,4.8181 -11.3755,6.1282 -35.261,15.6714 -53,21.1756 -6.6,2.0479 -14.8172,4.8009 -18.2605,6.1177 -3.4433,1.3169 -6.9011,2.3943 -7.6841,2.3943 -0.783,0 -4.0407,1.0655 -7.2395,2.3677 -3.1987,1.3022 -10.3159,4.0477 -15.8159,6.101 -14.2847,5.333 -25.7851,10.1564 -47.7055,20.008 -21.1657,9.5125 -56.4204,27.6212 -61.6793,31.6819 -1.3117,1.0127 -2.8867,1.8539 -3.5,1.8692 -0.6134,0.015 -2.8828,1.3653 -5.0433,3 -2.1605,1.6347 -4.2597,2.9722 -4.6648,2.9722 -0.4052,0 -4.306,2.3625 -8.6684,5.25 -4.3624,2.8875 -8.6299,5.7 -9.4832,6.25 -2.8061,1.8087 -16.1784,11.2454 -20.0535,14.1516 -2.0889,1.5666 -12.2139,9.9135 -22.50001,18.5486 -17.36874,14.581 -32.09889,28.748 -45.02598,43.3047 -7.73097,8.7055 -8.43389,9.5386 -12.22973,14.4951 -1.89545,2.475 -3.69443,4.725 -3.99775,5 -0.30332,0.275 -2.10332,2.7394 -4,5.4764 -1.89668,2.737 -3.79198,5.437 -4.21177,6 -0.65115,0.8732 -6.17175,9.3817 -15.26294,23.5236 -7.50952,11.6815 -21.36815,33.8844 -22.47054,36 -0.71647,1.375 -1.5728,2.725 -1.90296,3 -0.33017,0.275 -2.829,3.875 -5.55297,8 -7.82159,11.8445 -24.03139,31 -26.23288,31 -0.37705,0 -1.63375,0.8908 -2.79267,1.9795 -10.57819,9.9377 -49.16656,17.7006 -70.0747,14.0971 -14.01295,-2.4151 -29.43175,-8.1761 -37.44708,-13.9914 -4.85855,-3.525 -16.2593,-13.2705 -17.64736,-15.0852 -0.63104,-0.825 -2.0091,-2.484 -3.06236,-3.6867 -1.05325,-1.2026 -2.78694,-3.3862 -3.85264,-4.8523 -5.39116,-7.4168 -5.39107,-7.4167 -8.73336,-6.836 -1.76235,0.3062 -8.2752,1.6558 -14.47299,2.9991 -13.54705,2.9362 -35.6749,4.7443 -50.73129,4.1452 -8.91332,-0.3546 -12.24066,-0.9404 -17.54017,-3.0881 -3.5971,-1.4578 -8.5471,-3.2938 -11,-4.08 -12.64372,-4.0526 -37.30475,-15.8369 -48.45983,-23.1565 -9.78362,-6.4197 -16.44073,-12.2268 -32,-27.9141 -12.3549,-12.4565 -12.84795,-13.0092 -20.5795,-23.0709 -22.89604,-29.7965 -34.4882,-63.1431 -38.92016,-111.9597 -3.40408,-37.4948 2.13082,-63.6014 21.30718,-100.5 5.06909,-9.7538 17.75152,-31.2127 20.38989,-34.5 0.44143,-0.55 2.15259,-3.0235 3.80259,-5.4967 3.82571,-5.7343 15.64915,-22.1595 16.98447,-23.5949 0.55854,-0.6004 2.14053,-2.5977 3.51553,-4.4385 6.95713,-9.3137 29.2407,-36.1602 38.5,-46.3835 1.1,-1.2146 4.475,-5.0546 7.5,-8.5335 3.025,-3.4789 6.19623,-7.0515 7.04718,-7.9391 0.85096,-0.8876 4.22596,-4.7419 7.5,-8.5652 3.27405,-3.8233 6.62782,-7.6802 7.45282,-8.5709 0.825,-0.8907 2.6986,-3.1625 4.16355,-5.0485 1.46496,-1.8861 3.62074,-4.5542 4.79063,-5.9292 1.16989,-1.375 3.12129,-3.6661 4.33644,-5.0914 1.21516,-1.4252 3.33438,-4.0847 4.70938,-5.9099 1.375,-1.8252 5.425,-7.0302 9,-11.5666 3.575,-4.5364 9.425,-12.3558 13,-17.3764 3.575,-5.0206 6.96182,-9.6745 7.52626,-10.342 2.51639,-2.9759 16.78713,-25.3018 23.14783,-36.2137 9.59209,-16.4554 14.31517,-26.123 19.78249,-40.4926 5.96966,-15.6899 8.18625,-26.8809 8.98009,-45.3383 1.06962,-24.8696 4.86773,-51.6873 9.22972,-65.1691 5.50126,-17.003 12.71273,-29.30066 31.33361,-53.43278 2.475,-3.20753 5.175,-6.86269 6,-8.12257 2.00651,-3.06421 11.29398,-14.25449 16.94273,-20.41395 9.36812,-10.21512 40.8088,-41.27556 48.44114,-47.85531 12.68472,-10.93534 12.16316,-8.76151 5.89713,-24.57899 C 501.81324,812.85624 490.00339,757.94273 486.97913,694 c -1.0105,-21.36522 -0.11639,-61.19607 1.40793,-62.72039 0.72723,-0.72723 17.41253,4.58367 45.11294,14.35939 17.72952,6.2569 52.03656,20.00151 59.3007,23.75794 4.46174,2.30725 5.0003,2.07782 6.2135,-2.64694 2.33531,-9.09476 8.43227,-26.85514 13.64578,-39.75 9.95886,-24.63178 21.77375,-44.73042 36.5594,-62.19222 10.50391,-12.40509 33.07624,-33.63988 45.09106,-42.41919 8.73874,-6.38544 13.30664,-9.5442 23.27104,-16.09205 4.3552,-2.8619 9.2685,-6.13771 10.9185,-7.27958 1.65,-1.14186 13.9704,-9.37531 27.3787,-18.29654 27.2554,-18.13443 34.731,-23.1831 44.0071,-29.72042 3.5119,-2.475 7.3946,-5.175 8.6282,-6 7.3336,-4.90462 17.1876,-11.84599 19.8743,-14 1.7151,-1.375 3.8796,-2.95 4.8102,-3.5 3.9976,-2.36281 32.5885,-23.60717 34.2672,-25.46203 1.0143,-1.12088 2.2481,-2.03797 2.7417,-2.03797 0.4936,0 3.9114,-2.4915 7.595,-5.53666 22.5371,-18.63062 42.5068,-35.51479 47.7408,-40.36419 3.3238,-3.07953 8.9488,-8.27031 12.5,-11.53506 3.5513,-3.26475 10.8681,-10.12078 16.2597,-15.23562 l 9.8029,-9.2997 -6.8029,-3.35713 c -10.9626,-5.40986 -13.6237,-6.88141 -16.8973,-9.34394 -1.7019,-1.28023 -3.452,-2.3277 -3.8891,-2.3277 -1.1808,0 -13.2423,-10.48617 -19.3311,-16.80624 -16.8648,-17.50544 -25.7109,-39.14161 -26.8594,-65.69376 -1.352,-31.26028 8.4331,-56.0715 31.174,-79.04485 8.0705,-8.15297 20.4534,-18.45515 22.1824,-18.45515 0.3631,0 1.3882,-0.6589 2.2781,-1.46422 5.4743,-4.9542 27.5674,-14.07054 44.0395,-18.17221 11.16622,-2.78044 12.22572,-2.86176 36.50002,-2.80127 24.7744,0.0618 25.1067,0.0907 36.8211,3.20982 11.1414,2.96653 22.9201,7.03012 27.0023,9.31561 1.0028,0.56146 3.7028,1.98791 6,3.16988 11.0141,5.66719 26.9406,17.7227 36.1766,27.38376 13.3442,13.95835 22.0068,29.32965 26.5906,47.1832 5.3752,20.93617 2.6069,50.34801 -6.5108,69.17543 -2.4067,4.96955 -7.6696,14.21628 -8.5375,15 -0.3045,0.275 -1.796,2.16712 -3.3143,4.20471 -5.0418,6.76583 -16.5703,17.38567 -25.3387,23.34152 -9.2871,6.30815 -10.2979,6.90006 -20.7038,12.12399 l -6.8146,3.42098 7.8146,7.52548 c 11.6301,11.19995 29.2713,27.64542 33.786,31.49601 2.1844,1.86302 4.8844,4.37317 6,5.5781 2.2254,2.40349 27.0222,23.20631 39.2907,32.96232 4.2558,3.38421 10.3189,8.22171 13.4737,10.75 3.1547,2.52829 6.108,4.59689 6.5629,4.59689 0.4549,0 2.1204,1.35 3.7012,3 1.5808,1.65 3.3866,3 4.0128,3 0.6262,0 2.1955,1.125 3.4872,2.5 1.2917,1.375 2.8901,2.5 3.5519,2.5 0.6618,0 1.7734,0.68706 2.4703,1.5268 0.697,0.83974 3.2271,2.86474 5.6225,4.5 4.6789,3.19409 11.8553,8.23835 16.3228,11.4732 1.5192,1.1 5.3792,3.8 8.5779,6 3.1987,2.2 6.795,4.675 7.9919,5.5 10.7833,7.43298 14.0124,9.63768 15.3785,10.5 0.8713,0.55 7.1169,4.7125 13.8792,9.25 6.7622,4.5375 12.6122,8.26829 13,8.29064 0.3877,0.0224 2.263,1.37235 4.1672,3 1.9042,1.62765 3.8468,2.95936 4.3167,2.95936 0.47,0 2.3295,1.125 4.1322,2.5 1.8027,1.375 3.6204,2.5 4.0394,2.5 0.4189,0 2.4662,1.35 4.5495,3 2.0833,1.65 4.0995,3 4.4804,3 0.381,0 2.5662,1.28883 4.8561,2.86406 2.2899,1.57524 7.4937,5.06274 11.5639,7.75 12.883,8.50577 14.0929,9.36946 21.403,15.27797 2.3081,1.86562 6.5136,5.10867 9.3454,7.20679 5.8434,4.32938 30.3062,28.39837 34.8512,34.29014 1.65,2.13893 3.45,4.39015 4,5.0027 2.802,3.12071 8.5779,11.12971 13.8895,19.25967 3.3452,5.12016 4.2868,6.81857 9.6184,17.34867 17.4537,34.47171 31.0025,83.03941 32.6393,117 1.2815,26.58787 -4.4603,66.81876 -13.2612,92.9169 -4.3792,12.98619 -16.6542,39.55988 -19.4388,42.08234 -0.304,0.27542 -1.6046,2.30076 -2.8901,4.50076 -2.7421,4.69285 -7.3245,11.78417 -8.0774,12.5 -0.2892,0.275 -1.26,1.65609 -2.1573,3.06909 -1.8763,2.95472 -2.1098,2.72755 8.6776,8.44257 3.3,1.74829 8.1375,4.37338 10.75,5.83353 2.6125,1.46014 6.8747,3.82016 9.4716,5.24448 2.5968,1.42431 5.9288,3.44931 7.4043,4.5 1.4756,1.05068 2.8964,1.91033 3.1573,1.91033 0.6645,0 10.5901,6.0397 14.3796,8.75 1.7303,1.2375 3.4268,2.25 3.7701,2.25 0.3432,0 4.238,2.475 8.655,5.5 4.417,3.025 8.2769,5.5 8.5776,5.5 0.3007,0 2.2512,1.35 4.3345,3 2.0833,1.65 4.1113,3 4.5067,3 0.3953,0 2.1306,1.16401 3.8561,2.58669 1.7254,1.42268 8.6595,6.56193 15.409,11.42057 14.1589,10.19225 13.3086,9.51963 36.0162,28.4917 19.8085,16.54994 22.9918,19.47428 43.6194,40.07094 15.7101,15.6865 20.6258,20.8905 31.5598,33.4104 3.5931,4.1142 7.2078,8.2091 8.0328,9.0997 0.825,0.8907 2.3951,2.6996 3.4891,4.0197 7.3206,8.8337 12.3499,15.0388 14.5109,17.9032 1.375,1.8226 2.95,3.8162 3.5,4.4302 3.6807,4.1089 18.3155,23.6783 28.4679,38.0669 2.7165,3.85 5.2989,7.45 5.7388,8 0.4398,0.55 3.9482,5.7177 7.7964,11.4837 3.8483,5.7661 7.3542,10.9411 7.791,11.5 0.4367,0.559 2.7866,4.1663 5.222,8.0163 2.4354,3.85 4.8849,7.675 5.4434,8.5 4.8508,7.1652 20.6872,33.4877 25.2683,42 1.332,2.475 4.6835,8.55 7.4477,13.5 6.799,12.1753 22.5946,44.0707 29.7139,60 3.1955,7.15 6.7223,15.025 7.8372,17.5 1.115,2.475 5.8298,14.175 10.4774,26 34.0407,86.6107 56.3016,184.1037 65.76,288 2.9932,32.8787 7.0178,96.9859 9.1186,145.25 l 0.6856,15.75 h -570.1341 c -313.57382,0 -570.13412,-0.2827 -570.13412,-0.6283 z M 1760.9855,1677.75 c -0.017,-71.047 -1.0048,-92.6617 -6.0868,-133.25 -6.6244,-52.9058 -18.7068,-104.8578 -37.4516,-161.0347 -10.569,-31.6744 -24.9344,-70.7132 -30.8973,-83.9653 -0.7425,-1.65 -2.9223,-6.825 -4.8441,-11.5 -1.9219,-4.675 -4.8322,-11.425 -6.4675,-15 -1.6354,-3.575 -3.9838,-8.75 -5.2187,-11.5 -18.1903,-40.5058 -49.2654,-93.8206 -78.1032,-134 -5.1317,-7.15 -9.7998,-13.4912 -10.3734,-14.0916 -0.5736,-0.6004 -2.1679,-2.5953 -3.5429,-4.4331 -3.4439,-4.603 -22.1026,-27.3595 -22.9378,-27.9753 -0.373,-0.275 -1.4022,-1.5593 -2.2872,-2.854 -8.0338,-11.7534 -50.491,-54.1677 -66.7135,-66.646 -2.8601,-2.2 -8.2945,-6.5875 -12.0764,-9.75 -3.782,-3.1625 -7.1789,-5.75 -7.5487,-5.75 -0.3698,0 -2.1571,-1.2375 -3.9717,-2.75 -3.4784,-2.8993 -7.2558,-5.75643 -10.9071,-8.25 -1.208,-0.825 -4.798,-3.3 -7.9776,-5.5 -3.1796,-2.2 -7.2804,-4.91515 -9.1128,-6.03366 -1.8324,-1.11852 -4.1851,-2.80602 -5.2282,-3.75 -1.043,-0.94399 -2.2375,-1.71634 -2.6543,-1.71634 -0.4167,0 -2.6313,-1.25359 -4.9212,-2.78576 -2.2899,-1.53217 -5.0635,-3.3237 -6.1635,-3.98118 -1.1,-0.65748 -4.7,-2.84033 -8,-4.85077 -8.1098,-4.94072 -12.0834,-7.25353 -18,-10.47694 -2.75,-1.49822 -7.925,-4.31983 -11.5,-6.27024 -11.4254,-6.23335 -44.0388,-22.15542 -58.5,-28.56 -7.7,-3.41019 -16.3725,-7.29717 -19.2722,-8.63773 C 1297.3282,901.09682 1294.3006,900 1293.5,900 c -0.8006,0 -3.8282,-1.07439 -6.7278,-2.38753 -11.9926,-5.43089 -41.5104,-15.66863 -64.7722,-22.46506 -25.6774,-7.50219 -46.4148,-12.92575 -54.5,-14.2536 -2.75,-0.45164 -9.725,-1.91784 -15.5,-3.25821 -5.775,-1.34037 -13.65,-2.92886 -17.5,-3.52996 -3.85,-0.60111 -11.62,-1.94064 -17.2667,-2.97675 -5.6467,-1.03611 -10.4815,-1.53627 -10.7441,-1.11148 -0.2625,0.4248 0.045,3.18216 0.6825,6.12747 0.7377,3.4063 1.1904,17.43627 1.244,38.55266 0.054,21.08715 0.4559,33.57003 1.1029,34.21862 0.5603,0.56159 5.0603,2.1325 10,3.49091 13.9261,3.82962 26.8172,7.91658 44.4814,14.10232 3.575,1.25191 8.525,2.94385 11,3.75986 2.475,0.81601 8.775,3.07286 14,5.01523 5.225,1.94237 11.075,4.07794 13,4.74571 1.925,0.66778 5.8725,2.28416 8.7722,3.59197 2.8996,1.30781 5.768,2.37784 6.3741,2.37784 0.6061,0 4.7586,1.59905 9.2278,3.55345 7.9329,3.46905 13.1549,5.70755 25.8759,11.09202 18.1718,7.69168 52.012,23.97123 66.25,31.87093 2.75,1.5258 6.35,3.5116 8,4.4129 4.751,2.5951 23.6477,14.0281 27.5,16.6382 7.7481,5.2495 10.1781,6.9761 21.308,15.1395 12.5771,9.2248 32.2356,27.6704 42.4098,39.793 8.3898,9.9964 21.9785,27.1741 27.2919,34.5 2.9918,4.125 5.6863,7.725 5.9879,8 0.7045,0.6425 14.8983,21.5663 18.994,28 0.5252,0.825 2.706,4.2 4.8463,7.5 14.885,22.9501 38.67,66.5349 51.8432,95 25.8088,55.7684 51.8037,128.5493 65.7185,184 11.4758,45.731 18.3885,87.9108 22.6164,138 0.8599,10.1878 2.502,92.0589 2.9232,145.75 l 0.061,7.75 h 71.5 71.5 z M 474.06387,1666.7029 c 4.81935,-2.075 14.06333,-10.7331 16.37706,-15.3391 1.06751,-2.1251 4.11837,-7.5484 6.7797,-12.0518 5.38298,-9.109 13.65875,-26.3551 18.86438,-39.312 7.17874,-17.8681 2.5772,-30.7779 -12.80346,-35.9207 -13.02736,-4.356 -21.43874,-1.799 -33.50812,10.186 -6.73599,6.689 -16.49411,20.1777 -23.31949,32.2347 -4.06941,7.1886 -5.09516,8.3768 -13.73072,15.905 -14.40752,12.5602 -16.26235,22.6978 -5.91957,32.3536 4.95204,4.6232 16.73022,10.763 24.69635,12.874 6.0489,1.6029 17.80689,1.1185 22.56387,-0.9297 z m -125.3127,-98.1843 c 10.59387,-4.8408 16.09747,-12.285 16.96458,-22.9462 0.7393,-9.0899 6.50824,-20.4826 14.411,-28.4592 6.54928,-6.6105 10.59545,-9.5317 19.87325,-14.3478 8.889,-4.6143 10.07251,-5.3975 13.47412,-8.9168 5.31887,-5.5029 6.84438,-9.3995 6.24925,-15.9627 -1.35333,-14.9247 -19.42165,-29.0822 -37.19103,-29.1411 -8.88313,-0.029 -19.43148,3.4968 -30.04674,10.0443 -4.20074,2.591 -8.52035,5.2108 -9.59914,5.8218 -1.07879,0.611 -2.98607,2.0735 -4.2384,3.25 -1.25233,1.1765 -2.74987,2.1391 -3.32788,2.1391 -1.03924,0 -19.41846,17.7249 -22.32486,21.53 -11.50178,15.0586 -19.07398,33.5881 -20.62486,50.47 -1.10361,12.0132 3.04239,20.8838 11.97892,25.6296 7.0021,3.7184 11.02797,4.3228 25.90179,3.8884 11.17283,-0.3264 13.46275,-0.6976 18.5,-2.9994 z M 1060.7267,1352.778 c 5.3777,-1.7654 7.9243,-3.358 12.3923,-7.75 3.0931,-3.0404 6.0191,-6.2495 6.5024,-7.1313 0.7784,-1.4205 7.2646,-9.2704 11.3786,-13.7709 2.234,-2.4439 14.0572,-18.8246 18.1351,-25.1258 25.2744,-39.0532 38.9961,-83.0833 39.267,-126 0.1009,-15.9687 -1.0059,-21.7467 -4.9142,-25.6549 -0.7941,-0.7941 -1.7912,-2.0089 -2.2158,-2.6996 -1.9736,-3.21 -8.4583,-6.6802 -16.2727,-8.7082 -7.1844,-1.8644 -10.1239,-2.1147 -18.9994,-1.6172 -12.0797,0.677 -22.4435,3.2895 -26.8422,6.7663 -4.2044,3.3232 -6.6178,9.7134 -5.7238,15.1555 3.7094,22.5818 1.6042,52.5882 -5.1024,72.7236 -4.1241,12.382 -14.7814,32.8041 -25.2402,48.3664 -2.5253,3.7575 -5.2939,7.9012 -6.1525,9.2082 -2.868,4.366 -10.3661,12.8252 -17.6852,19.9522 -5.8592,5.7053 -7.6473,8.1968 -9.3406,13.0147 -3.0613,8.7097 -1.3291,16.4946 4.9278,22.1479 5.021,4.5365 17.5642,10.0724 28.6591,12.6487 4.7197,1.0959 10.9114,0.5476 17.2267,-1.5256 z M 541.29081,1184.3947 c 4.84592,-3.1211 7.47361,-6.6835 15.75669,-21.3612 2.93823,-5.2066 6.2339,-10.492 7.32371,-11.7454 1.7276,-1.9869 2.18308,-2.0978 3.55513,-0.8656 3.1119,2.7948 17.04807,7.5119 25.22079,8.5367 10.37377,1.3008 23.26254,1.3033 32.23432,0.01 13.76382,-1.9896 27.39611,-11.9072 33.44375,-24.3307 9.46909,-19.4521 10.00272,-35.1855 1.70539,-50.2806 C 658.58877,1080.8216 657,1077.79 657,1077.6175 c 0,-0.1726 1.9125,-1.1029 4.25,-2.0674 9.29329,-3.8347 16.57357,-7.0001 23.26453,-10.115 14.74853,-6.8661 19.13645,-19.5964 12.07268,-35.0256 -3.21337,-7.0189 -6.49211,-10.9338 -12.42279,-14.8332 l -4.66442,-3.0668 -14,0.098 c -13.80654,0.097 -14.152,0.1548 -25,4.1781 -20.57338,7.6302 -24.97397,9.3526 -28.4885,11.1502 -1.93132,0.9878 -6.8865,3.4477 -11.0115,5.4664 -9.62946,4.7124 -17.16422,8.8661 -20.8715,11.5059 -1.61548,1.1503 -3.16005,2.0915 -3.43238,2.0915 -0.59903,0 -9.64475,6.0498 -13.7843,9.2189 -24.56117,18.8036 -42.80439,37.7271 -56.4301,58.5344 -1.34945,2.0607 -2.80382,4.1967 -3.23193,4.7467 -1.69837,2.1819 -7.99899,13.4292 -11.76402,21 -3.402,6.8408 -4.03071,9.1261 -4.33898,15.7714 -0.31333,6.7545 -0.0238,8.4597 2.2125,13.0305 3.15169,6.4419 6.35229,9.5498 14.12965,13.7206 7.44487,3.9924 12.50231,4.9484 24.15929,4.5665 8.11216,-0.2657 9.65723,-0.6275 13.64258,-3.1943 z M 728.22978,957.42324 c 2.3486,-0.86721 7.6452,-3.18485 11.7702,-5.15031 4.125,-1.96546 9.975,-4.6909 13,-6.05654 10.2,-4.60483 15.4675,-7.03184 23.0746,-10.63182 4.166,-1.97151 8.1259,-3.58457 8.7997,-3.58457 0.6738,0 2.5327,-0.67624 4.131,-1.50276 1.5983,-0.82651 8.8236,-3.04911 16.0562,-4.9391 7.2325,-1.88999 13.3279,-3.61416 13.5452,-3.83149 0.2173,-0.21732 -0.1166,-4.18223 -0.742,-8.81089 -1.421,-10.51714 -0.5498,-36.16797 1.6399,-48.27891 0.8814,-4.87472 1.4312,-9.03442 1.2218,-9.24377 -1.2691,-1.26911 -37.6512,9.01961 -52.7264,14.91084 -12.2519,4.7879 -36.183,16.84197 -42.8221,21.56939 -1.6426,1.16968 -3.3247,2.12669 -3.7379,2.12669 -0.4131,0 -2.3616,1.2375 -4.3299,2.75 -4.3822,3.36739 -5.3013,3.93719 -12.7484,7.90315 -10.69305,5.69453 -17.36978,14.04964 -17.3561,21.71897 0.0194,10.88122 9.89569,25.62042 20.4944,30.58551 5.0487,2.36513 14.9812,2.58822 20.7298,0.46561 z M 1115.2652,707.81408 1167.5,707.5 l 6.5,-3.69432 c 9.7022,-5.51434 14,-13.50258 14,-26.02179 0,-14.8505 -5.0136,-23.24294 -17,-28.4566 l -6.5,-2.82729 -50.75,-0.29294 -50.75,-0.29294 v -40.51424 c 0,-27.46526 -0.375,-42.02572 -1.1642,-45.20706 -2.0646,-8.32221 -6.0429,-13.19072 -14.3358,-17.54351 -5.9591,-3.12786 -6.1027,-3.14931 -21.0771,-3.14931 -13.8547,0 -15.5167,0.19852 -20.5,2.44861 -6.40932,2.894 -9.36892,5.29758 -12.37662,10.05139 -4.1893,6.62148 -4.5463,10.81436 -4.5463,53.39913 v 40.5135 l -49.75,0.29368 -49.75,0.29369 -6.5,2.82729 c -9.1214,3.96751 -13.6575,9.08499 -15.8358,17.86553 -2.5105,10.11967 -0.8728,22.13799 4.0123,29.44362 3.0131,4.50616 12.875,9.98855 19.1293,10.63428 l 4.8057,0.49618 13.3762,-11.38345 C 915.84458,690.12255 922.28938,685 922.80948,685 c 0.5201,0 1.529,-0.70287 2.2419,-1.56194 1.1368,-1.36975 8.9193,-7.00698 13.7628,-9.96902 0.9272,-0.56703 4.2353,-2.69407 7.3514,-4.72676 l 5.6657,-3.6958 4.3343,2.54036 c 14.086,8.25574 33.1795,21.95523 47.83442,34.32101 7.7067,6.5029 34.0084,32.76431 39,38.94025 1.925,2.38175 4.175,5.04534 5,5.9191 1.7883,1.89396 5.7254,6.83753 8.5,10.67285 1.1,1.52053 2.9,3.94548 4,5.38877 l 2,2.62416 0.2652,-28.66241 0.2653,-28.6624 z"
       id="path1" />
  </g>
  <path
     style="fill:#ffffff;stroke-width:2.78639"
     d="m 1618.0796,1655.815 c -2.4033,-112.6438 -12.4694,-179.1266 -40.1607,-265.2455 -54.2738,-168.7892 -136.7353,-301.43 -222.4018,-357.7373 -46.2181,-30.3785 -119.8842,-63.81057 -197.7702,-89.75456 -24.5202,-8.16775 -45.5035,-16.18484 -46.6294,-17.81575 -2.1702,-3.14352 -3.0135,-74.01835 -0.8807,-74.01835 6.6986,0 66.6374,13.21161 94.1579,20.75415 95.9958,26.30953 199.0157,76.6737 268.0349,131.03641 39.8561,31.3924 95.7704,92.0645 126.3657,137.118 73.0738,107.6059 133.0316,260.2105 152.5168,388.1853 3.7827,24.8439 9.0638,129.2635 9.5477,188.7782 l 0.1416,17.415 h -70.6212 -70.6213 z"
     id="path2" />
  <path
     style="fill:#ffffff;stroke-width:2.78639"
     d="m 502.72217,1180.3572 c -11.92804,-7.2737 -16.59785,-19.3907 -12.38849,-32.1452 8.67666,-26.2905 48.83806,-73.6909 80.8772,-95.4551 16.95415,-11.517 47.78533,-26.6875 68.97437,-33.9389 31.17461,-10.6687 46.57017,-6.765 54.84081,13.9054 6.58453,16.4564 2.07055,23.8542 -21.47223,35.1904 l -18.86522,9.0838 4.71865,9.0277 c 10.20253,19.5195 2.23997,50.5524 -16.37134,63.8048 -12.02061,8.5594 -43.26057,10.5782 -62.46007,4.0363 -7.22925,-2.4633 -14.08382,-4.4786 -15.23237,-4.4786 -1.14856,0 -6.57976,7.3937 -12.06934,16.4305 -5.48958,9.0369 -11.95231,17.1871 -14.36161,18.1116 -8.85896,3.3995 -27.82758,1.5269 -36.19036,-3.5727 z"
     id="path3" />
  <path
     style="fill:#ffffff;stroke-width:2.78639"
     d="m 1041.5664,736.99552 c -19.0466,-22.10312 -55.25681,-53.15882 -77.10529,-66.12943 -11.86053,-7.04115 -12.39225,-7.1039 -20.89796,-2.46639 -4.80028,2.61722 -18.04781,12.23863 -29.43896,21.38091 -22.55582,18.10278 -26.50541,18.75444 -39.1963,6.46718 -5.58105,-5.40355 -6.91062,-9.31937 -6.6875,-19.69595 0.23312,-10.84186 1.71536,-14.23537 9.09974,-20.83331 l 8.82126,-7.8818 h 51.50434 51.50434 l 0.20341,-32.74013 c 0.41136,-66.20864 3.8407,-73.14286 36.17302,-73.14286 16.1037,0 20.2466,1.0363 26.8587,6.71834 l 7.8179,6.71834 0.8841,46.22316 0.8842,46.22315 h 51.6274 c 43.1661,0 52.9149,0.76049 59.4826,4.64011 13.4849,7.96577 17.6613,24.59135 9.9321,39.53811 -6.6132,12.78843 -14.1591,14.33607 -69.8991,14.33607 h -51.3163 l -0.7975,26.14757 -0.7975,26.14757 z"
     id="path4" />
  <path
     style="fill:#ffffff;stroke-width:2.78639"
     d="m 306.5034,1566.683 c -12.24917,-6.4688 -14.91045,-16.2792 -9.81327,-36.1754 8.13631,-31.7592 31.11095,-58.1208 64.14797,-73.605 17.55294,-8.2269 28.67935,-8.296 40.61561,-0.2521 22.64021,15.2572 21.63762,30.25 -3.02468,45.2316 -19.91929,12.1003 -29.04795,23.2415 -33.4749,40.8547 -4.80039,19.0991 -13.05245,25.5461 -34.15979,26.6878 -10.71779,0.5797 -19.98155,-0.4659 -24.29094,-2.7416 z"
     id="path5" />
  <path
     style="fill:#ffffff;stroke-width:2.78639"
     d="m 439.64914,1660.5565 c -17.00437,-8.8531 -20.50178,-15.163 -14.66285,-26.4543 2.42542,-4.6902 6.30772,-9.256 8.62735,-10.1461 2.31962,-0.8901 9.70592,-9.9493 16.41399,-20.1315 18.83767,-28.5938 30.72845,-39.2641 43.75526,-39.2641 7.89544,0 12.74013,1.9323 17.97852,7.1707 9.50062,9.5006 7.94411,18.5321 -9.11865,52.9097 -21.09662,42.5049 -35.05339,50.4623 -62.99362,35.9156 z"
     id="path6" />
  <path
     style="fill:#ffffff;stroke-width:2.78639"
     d="m 1029.0934,1347.5476 c -13.5031,-6.3092 -21.4213,-16.6503 -18.6172,-24.3142 1.0602,-2.8978 7.9544,-12.3 15.3203,-20.8937 15.8466,-18.4881 33.5896,-46.9932 41.9018,-67.3175 4.7307,-11.567 6.2261,-22.2448 7.2339,-51.6512 1.4677,-42.8268 2.3593,-44.2735 28.981,-47.0211 32.7243,-3.3774 46.0745,11.5115 42.7208,47.6447 -5.1312,55.2829 -28.9762,108.3227 -68.8077,153.0526 -10.3694,11.6446 -13.7615,13.6771 -24.5692,14.721 -8.674,0.8378 -16.1218,-0.4631 -24.1637,-4.2206 z"
     id="path7" />
</svg>
