<?xml version="1.0" encoding="UTF-8" standalone="no"?>
<!-- Created with Inkscape (http://www.inkscape.org/) -->

<svg
   version="1.1"
   id="svg1"
   width="2048"
   height="2048"
   viewBox="0 0 2048 2048"
   xmlns="http://www.w3.org/2000/svg"
   xmlns:svg="http://www.w3.org/2000/svg">
  <defs
     id="defs1" />
  <g
     id="g1"
     transform="translate(0,130.96055)">
    <path
       style="fill:#000000"
       d="m 736.02852,1703.25 c 0.0888,-2.335 37.32405,-39.7336 57.97148,-58.2257 6.325,-5.6648 13.3,-12.1594 15.5,-14.4325 2.2,-2.2731 10.75,-10.2974 19,-17.8318 28.23314,-25.7842 35.00978,-32.0397 44.0316,-40.6452 4.96737,-4.7381 17.56737,-16.4829 27.99997,-26.0996 21.7178,-20.019 44.8893,-42.9757 51.4929,-51.0152 4.1528,-5.0559 8.6263,-10.9777 15.1085,-20 7.9068,-11.005 20.4137,-34.1996 29.9267,-55.5 4.72343,-10.5761 13.30623,-36.6391 16.45733,-49.975 5.2257,-22.1162 7.9552,-47.9283 6.5794,-62.2204 l -0.5964,-6.1954 -5.5,3.9266 c -22.32603,15.9391 -59.57023,35.1133 -82.00003,42.2155 -34.3812,10.8865 -91.7596,34.3594 -117.49997,48.068 -1.1,0.5858 -6.2663,3.2885 -11.48066,6.006 -5.21436,2.7174 -11.16792,6.006 -13.23013,7.3078 -2.06221,1.3018 -4.00639,2.3669 -4.3204,2.3669 -0.82684,0 -22.88713,13.5398 -39.91763,24.5 -2.56385,1.65 -7.08137,4.9125 -10.03892,7.25 -2.95755,2.3375 -5.6967,4.25 -6.087,4.25 -0.3903,0 -3.07992,2.025 -5.97694,4.5 -2.89702,2.475 -5.56202,4.5 -5.92222,4.5 -3.00361,0 -50.76586,44.5308 -61.5261,57.3635 -1.375,1.6398 -3.40495,3.9417 -4.51099,5.1154 -2.89316,3.0701 -16.66329,20.3915 -19.49374,24.5211 -1.3194,1.925 -2.66935,3.725 -2.99988,4 -0.33053,0.275 -1.67846,2.3 -2.99539,4.5 -1.31693,2.2 -2.69523,4.225 -3.06288,4.5 -0.36765,0.275 -1.64414,2.3 -2.83665,4.5 -1.1925,2.2 -3.48772,6.025 -5.10047,8.5 -1.61275,2.475 -3.90701,6.2862 -5.09835,8.4693 -1.19134,2.1831 -2.94776,5.1081 -3.90316,6.5 -0.9554,1.3919 -5.69664,9.2807 -10.53608,17.5307 -10.70587,18.2507 -19.01228,31.816 -22.35001,36.5 -9.95151,13.9654 -18.61772,24.285 -22.25414,26.5 -0.90296,0.55 -3.67528,2.4565 -6.1607,4.2366 -9.63611,6.9016 -28.52032,12.072 -47.19756,12.9223 -15.84064,0.7212 -24.75684,-0.7473 -39.25221,-6.465 -16.88572,-6.6605 -30.7283,-18.1924 -43.18037,-35.9723 -2.41837,-3.4531 -4.88538,-6.0804 -5.48223,-5.8384 -0.59685,0.242 -5.13519,1.3462 -10.08519,2.4539 -14.6921,3.2875 -31.03703,5.3345 -47.06084,5.8936 l -15.06084,0.5255 -10.43916,-3.516 c -25.30593,-8.5233 -56.02471,-23.9295 -68.08939,-34.1484 -16.26955,-13.7805 -34.12513,-32.9283 -45.77864,-49.0918 -2.77577,-3.85 -5.38981,-7.45 -5.80899,-8 -2.49492,-3.2736 -8.59516,-14.1883 -12.01636,-21.5 -11.17705,-23.8873 -18.4915,-55.0746 -21.34254,-91 -2.55897,-32.2453 0.83104,-54.7663 12.744,-84.663 4.58696,-11.5114 15.72534,-34.0306 21.18787,-42.837 1.70581,-2.75 3.99922,-6.6372 5.09647,-8.6382 1.09725,-2.001 6.19121,-9.8954 11.31991,-17.5431 8.92906,-13.3147 13.81651,-20.1283 26.49851,-36.942 3.1625,-4.1928 6.62487,-8.8053 7.69416,-10.25 1.06929,-1.4447 3.31929,-4.2542 5,-6.2434 1.68071,-1.9892 4.63084,-5.557 6.55584,-7.9285 1.925,-2.3715 5.075,-6.1904 7,-8.4864 1.925,-2.296 5.3,-6.3461 7.5,-9.0001 2.2,-2.654 5.575,-6.6989 7.5,-8.9887 4.70455,-5.5959 9.38176,-11.3403 12.18807,-14.969 1.27156,-1.6442 3.03727,-3.7195 3.9238,-4.6119 0.88652,-0.8923 2.44605,-3.0346 3.4656,-4.7606 1.01956,-1.7259 2.1654,-3.1381 2.54631,-3.1381 0.38092,0 1.97139,-2.0242 3.5344,-4.4982 1.563,-2.474 3.11952,-4.499 3.45893,-4.5 0.33942,-10e-4 1.81504,-1.812 3.27917,-4.0244 1.46413,-2.2125 3.30654,-4.8 4.09425,-5.75 8.99503,-10.8489 34.37118,-48.6443 44.46566,-66.2274 17.0494,-29.6976 29.04545,-58.4518 32.33241,-77.5 0.85418,-4.95 1.84059,-15.975 2.19204,-24.5 1.107,-26.85285 5.38959,-57.2209 10.08312,-71.5 2.49018,-7.57583 12.71291,-29.36295 14.30127,-30.47945 0.4073,-0.2863 1.81804,-2.32055 3.13497,-4.52055 1.31693,-2.2 2.6651,-4.225 2.99592,-4.5 0.33082,-0.275 3.25766,-4.325 6.50408,-9 3.24642,-4.675 6.17326,-8.725 6.50408,-9 0.33082,-0.275 1.67899,-2.3 2.99592,-4.5 1.31693,-2.2 2.64574,-4.225 2.9529,-4.5 0.30716,-0.275 1.88994,-2.28402 3.51728,-4.46449 1.62734,-2.18047 3.64978,-4.70759 4.49431,-5.61582 0.84453,-0.90822 3.56051,-4.04008 6.03551,-6.95968 11.88379,-14.01855 40,-43.72105 40,-42.25677 0,0.28867 1.6875,-1.13444 3.75,-3.16247 2.0625,-2.02803 5.775,-4.8513 8.25,-6.27394 2.475,-1.42263 6.075,-4.01229 8,-5.75479 11.57621,-10.47873 34.58366,-22.3026 57.5,-29.55009 8.39173,-2.65397 21.29537,-7.43666 27.5,-10.1928 8.91795,-3.96141 29.01427,-5.83497 37.12296,-3.46095 2.95737,0.86585 8.52704,1.81355 12.37704,2.106 3.85,0.29245 8.0125,0.82138 9.25,1.17539 l 2.25,0.64367 v -59.57414 -59.57414 l -5.54473,-3.79249 c -3.0496,-2.08587 -8.56236,-6.04249 -12.25057,-8.79249 -3.68821,-2.75 -8.67308,-6.35 -11.07748,-8 -2.40441,-1.65 -7.12915,-4.91336 -10.49943,-7.25191 -3.37029,-2.33855 -8.37779,-5.80473 -11.12779,-7.70261 -2.75,-1.89789 -8.825,-6.15472 -13.5,-9.45962 -4.675,-3.30491 -11.425,-8.02247 -15,-10.48348 -3.575,-2.46101 -9.65,-6.66615 -13.5,-9.34475 -3.85,-2.67861 -10.15,-7.05115 -14,-9.71676 -3.85,-2.66561 -9.7,-6.71752 -13,-9.00425 -6.08352,-4.21556 -15.10712,-10.45942 -26,-17.99065 -3.3,-2.28159 -8.25,-5.73474 -11,-7.67367 -2.75,-1.93893 -7.925,-5.50333 -11.5,-7.92089 -3.575,-2.41755 -6.95,-4.92445 -7.5,-5.57087 -0.55,-0.64643 -3.925,-3.16123 -7.5,-5.58846 -6.74988,-4.5828 -16.5367,-11.35298 -26,-17.98589 -3.025,-2.12025 -7.975,-5.49395 -11,-7.49712 -3.025,-2.00316 -7.4125,-5.19639 -9.75,-7.09606 L 443,443.75908 V 275.87954 108 H 579.5 716 v 61.5 61.5 h 85.5 85.49997 V 169.5 108 H 1024 1161 v 61.5 61.5 h 85 85 V 169.5 108 h 137.0029 137.0029 l -0.2529,168.15892 -0.2529,168.15892 -6.1902,4.59108 c -3.4046,2.52509 -9.1514,6.61608 -12.7705,9.09108 -3.6192,2.475 -9.4628,6.525 -12.9859,9 -3.5231,2.475 -9.3525,6.525 -12.9542,9 -3.6018,2.475 -9.4497,6.525 -12.9954,9 -3.5458,2.475 -9.3958,6.525 -13,9 -3.6043,2.475 -9.4543,6.525 -13,9 -3.5458,2.475 -9.3958,6.525 -13,9 -3.6043,2.475 -9.4578,6.525 -13.0079,9 -7.9763,5.56096 -17.4074,12.08968 -26.0018,18 -7.3107,5.02756 -16.8465,11.66108 -26.5941,18.5 -9.369,6.5733 -19.5632,13.68064 -26.7705,18.66419 -3.4488,2.3847 -9.1771,6.36081 -12.7295,8.83581 -3.5524,2.475 -9.3742,6.525 -12.9373,9 l -6.4782,4.5 -0.034,70.5 -0.034,70.5 10.6865,5.5 c 5.8775,3.025 13.5315,7.1875 17.0088,9.25 3.4773,2.0625 6.652,3.75277 7.0548,3.75616 0.6589,0.006 8.9677,4.84844 26.9761,15.72338 3.4341,2.07375 12.6076,7.93296 20.3857,13.02046 7.778,5.0875 14.282,9.25 14.4533,9.25 0.3041,0 9.6011,6.75726 18.2335,13.25242 2.3739,1.78617 5.3664,3.92258 6.6501,4.74758 2.6617,1.71064 10.2397,7.5359 17.8449,13.71748 2.8538,2.31962 7.4388,6.04477 10.1888,8.27812 24.9964,20.30027 71.0463,65.15076 84.5846,82.38151 1.2433,1.58241 3.1954,3.85949 4.338,5.06016 1.1426,1.20068 3.8774,4.38503 6.0774,7.07634 2.2,2.6913 5.3652,6.48923 7.0337,8.43984 1.6685,1.9506 4.3685,5.28802 6,7.41649 1.6315,2.12847 4.0913,5.3305 5.4663,7.11562 2.9638,3.84781 14.3552,18.94962 16.9828,22.51444 1.0135,1.375 3.4109,4.58113 5.3277,7.12473 1.9168,2.5436 3.9781,5.54601 4.5807,6.67202 0.6026,1.12601 1.6669,2.64489 2.3649,3.37527 2.0276,2.12136 31.8406,47.39938 35.1135,53.32798 0.9109,1.65 3.4908,5.9242 5.7331,9.4981 2.2423,3.574 5.6975,9.424 7.6783,13 1.9807,3.5761 3.8775,6.7269 4.2151,7.0019 1.9894,1.6206 34.8132,64.8112 41.2956,79.5 0.9709,2.2 4.039,9.175 6.8181,15.5 2.779,6.325 5.6479,12.85 6.3752,14.5 10.3257,23.4251 27.8922,71.7745 36.1508,99.5 24.471,82.1536 39.2228,160.7707 46.8163,249.5 3.3165,38.7524 9.5117,146.0494 9.5413,165.25 l 0.01,4.25 h -569.5 c -313.22503,0 -569.48717,-0.3375 -569.47148,-0.75 z m 1024.96498,-105.5 c -0.01,-59.4791 -0.7824,-84.5477 -3.5361,-114.25 -6.938,-74.8341 -21.5538,-140.8698 -50.0212,-226 -8.004,-23.9358 -22.4117,-63.2254 -26.4026,-72 -0.5003,-1.1 -4.0359,-9.425 -7.8568,-18.5 -12.5012,-29.691 -24.6261,-54.3146 -42.3473,-86 -14.2387,-25.4587 -16.3662,-29.1469 -17.6478,-30.5939 -0.5329,-0.6016 -1.7297,-2.5652 -2.6597,-4.3636 -0.93,-1.7983 -3.6907,-6.1908 -6.1351,-9.7611 -2.4443,-3.5703 -5.0958,-7.7516 -5.8922,-9.2917 -0.7965,-1.5401 -2.0379,-3.4054 -2.7588,-4.145 -0.7209,-0.7396 -2.4021,-3.1447 -3.7359,-5.3447 -1.3338,-2.2 -3.0074,-4.5976 -3.7191,-5.328 -0.7117,-0.7304 -1.7871,-2.2492 -2.3897,-3.3752 -1.0177,-1.9016 -6.1789,-9.03201 -9.4273,-13.02417 -0.7731,-0.95005 -2.6035,-3.53755 -4.0676,-5.75 -1.4641,-2.21245 -2.9398,-4.02343 -3.2792,-4.02442 -0.3394,-9.8e-4 -1.8959,-2.02598 -3.4589,-4.5 -1.563,-2.47401 -3.1535,-4.49821 -3.5344,-4.49821 -0.3809,0 -1.5268,-1.41216 -2.5463,-3.13813 -1.0196,-1.72598 -2.5852,-3.86956 -3.4791,-4.76351 -0.894,-0.89396 -2.7236,-3.1943 -4.0659,-5.11187 -1.3423,-1.91757 -3.4378,-4.61149 -4.6566,-5.98649 -1.2189,-1.375 -4.0946,-4.75 -6.3906,-7.5 -13.0183,-15.59302 -38.5833,-41.7804 -53.0956,-54.38835 -12.3396,-10.72024 -17.9427,-15.45588 -21.4293,-18.11165 -1.8052,-1.375 -6.751,-5.2 -10.9906,-8.5 -4.2397,-3.3 -9.9069,-7.575 -12.5938,-9.5 -12.6808,-9.08484 -22.1747,-15.63416 -24.6543,-17.00749 -1.4969,-0.82912 -5.3825,-3.41662 -8.6345,-5.75 -3.252,-2.33338 -6.3596,-4.24251 -6.9056,-4.24251 -0.5461,0 -2.5511,-1.18855 -4.4556,-2.64122 -1.9046,-1.45268 -6.6721,-4.44299 -10.5944,-6.64515 -28.7258,-16.12769 -34.1062,-19.01219 -52.6316,-28.21622 -17.5435,-8.71617 -35.5934,-17.06585 -39,-18.04088 -1.375,-0.39355 -4.75,-1.84711 -7.5,-3.23014 -2.75,-1.38302 -7.925,-3.53244 -11.5,-4.77648 -3.575,-1.24404 -9.875,-3.6207 -14,-5.28147 -15.5547,-6.26249 -51.5448,-18.0739 -68.5,-22.48069 -35.3743,-9.19406 -63.2917,-15.41304 -75.3311,-16.78106 -4.7316,-0.53764 -9.6795,-1.24772 -10.9952,-1.57795 -2.1931,-0.55041 -2.3438,-0.36008 -1.8106,2.28542 6.1662,30.59128 9.5507,75.98104 6.7332,90.30174 C 1109.7714,832.81634 1097.9428,842 1079.5,842 c -14.4447,0 -25.746,-5.41599 -30.2567,-14.5 -1.7579,-3.54022 -2.0506,-6.75868 -2.5465,-28 -0.6103,-26.14341 -2.0053,-37.88108 -6.8334,-57.5 -2.8965,-11.76959 -8.9486,-30.19313 -12.4829,-38 -14.3098,-31.60828 -31.59943,-56.24287 -58.42873,-83.25 -8.4911,-8.54744 -14.4175,-13.75 -15.6632,-13.75 -3.4488,0 -26.646,25.37437 -37.0251,40.5 -1.5096,2.2 -2.9977,4.225 -3.3069,4.5 -0.3092,0.275 -1.6396,2.3 -2.9566,4.5 -1.3169,2.2 -2.6703,4.225 -3.0075,4.5 -1.2508,1.02003 -11.2186,19.73714 -15.1612,28.46912 -11.2967,25.01949 -18.31984,51.98684 -20.32175,78.03088 -1.33707,17.39473 -5.13069,25.6796 -13.86909,30.28868 -4.86165,2.56428 -5.87257,2.71033 -18.64043,2.69309 -12.08096,-0.0163 -14.12679,-0.27911 -19.463,-2.5 -9.82834,-4.09051 -15.98024,-14.25954 -16.02052,-26.48177 -0.009,-2.75 0.32959,-6.2375 0.75257,-7.75 1.04783,-3.74687 -0.61379,-3.63536 -12.89976,0.86567 -5.42811,1.98862 -11.89429,4.17647 -14.36929,4.86189 -2.475,0.68543 -7.425,2.50165 -11,4.03606 -3.575,1.53441 -9.2,3.79467 -12.5,5.02281 -3.3,1.22814 -10.725,4.3351 -16.5,6.90436 C 720.06283,792.97602 713.07135,795 703.97939,795 c -10.62921,0 -25.29735,-2.62069 -31.08592,-5.55398 -7.30257,-3.7005 -18.1273,-5.80561 -25.82791,-5.02283 -8.76417,0.8909 -9.0953,0.96486 -12.61943,2.81879 -1.67963,0.88359 -7.97963,3.6074 -14,6.0529 -25.98676,10.55593 -51.13268,22.93038 -57.63383,28.36194 -2.28116,1.90585 -5.36645,4.0955 -6.85621,4.86588 -4.12175,2.13145 -22.31151,20.71119 -28.7754,29.39235 -1.46812,1.97172 -2.92063,3.80995 -3.22779,4.08495 -0.30716,0.275 -1.63597,2.3 -2.9529,4.5 -1.31693,2.2 -2.66693,4.225 -3,4.5 -0.33307,0.275 -1.68307,2.3 -3,4.5 -1.31693,2.2 -2.66328,4.225 -2.99187,4.5 -0.32859,0.275 -1.52819,2.075 -2.66577,4 -1.13758,1.925 -5.73468,9.54179 -10.21579,16.92619 -10.58819,17.44829 -19.21482,34.56419 -22.46575,44.57381 -4.46682,13.75337 -4.91184,19.43245 -3.10043,39.5655 1.49522,16.6187 1.49303,18.5736 -0.0294,26.1967 -3.57475,17.8989 -10.66638,39.45 -18.44594,56.0563 -5.65191,12.0646 -17.39489,32.6461 -21.7879,38.1869 -0.43841,0.5529 -4.54639,6.5525 -9.12885,13.3323 -7.84516,11.6071 -19.01423,27.7178 -22.91753,33.0571 -0.9629,1.3172 -2.42573,3.4204 -3.25073,4.6738 -0.825,1.2535 -6.225,8.8726 -12,16.9314 -5.775,8.0588 -11.19008,15.7038 -12.0335,16.9888 -0.84343,1.2851 -2.49166,3.6133 -3.66274,5.1739 -6.45087,8.5961 -9.01512,12.1364 -10.74697,14.8373 -1.05798,1.65 -2.40357,3.5073 -2.99019,4.1272 -0.58663,0.62 -4.2166,5.5308 -8.0666,10.913 -7.09955,9.9249 -17.32489,23.8725 -27.43351,37.4199 -3.06157,4.1031 -6.41548,8.8281 -7.45313,10.5 -1.03765,1.672 -2.71198,3.9399 -3.72074,5.0399 -1.00875,1.1 -5.46967,6.95 -9.91315,13 -4.44348,6.05 -8.62675,11.675 -9.29615,12.5 -0.6694,0.825 -2.55693,3.3 -4.19452,5.5 -1.63758,2.2 -3.24403,4.225 -3.56989,4.5 -1.90622,1.6087 -12.52712,18.3429 -17.23624,27.1573 -9.06649,16.9703 -15.32597,33.5212 -21.87596,57.8427 -2.7431,10.1857 -3.15073,13.4792 -3.56679,28.818 -0.67946,25.05 2.25853,45.4088 9.40018,65.1384 3.24489,8.9644 10.99851,24.4562 13.63943,27.2517 0.67126,0.7105 2.40947,2.8669 3.86269,4.7919 4.72184,6.2548 11.1657,12.628 21.19745,20.9652 19.75268,16.416 35.63879,25.5728 53.16033,30.6418 9.06559,2.6227 11.40162,2.8916 25,2.8777 13.94546,-0.014 15.75864,-0.2407 25.79107,-3.2208 20.15692,-5.9877 33.5395,-14.2764 43.01831,-26.644 4.8487,-6.3264 5.96395,-8.2171 13.71182,-23.2461 3.15473,-6.1194 6.61328,-12.4194 7.68566,-14 1.07239,-1.5806 3.71455,-5.5659 5.87147,-8.8562 9.41826,-14.3674 19.52916,-22.5445 27.81004,-22.4911 2.2614,0.015 7.03663,1.0416 10.61163,2.2823 5.60076,1.9438 6.9401,2.9099 9.68117,6.9835 4.13613,6.1468 5.84183,14.0517 4.28201,19.8444 -1.00443,3.7302 -7.8204,22.7154 -11.25991,31.3633 -5.86522,14.7469 -23.65383,43.3657 -32.67125,52.5625 -0.84261,0.8593 -2.65702,3.2188 -4.03202,5.2431 -1.375,2.0244 -2.80686,3.6838 -3.18191,3.6876 -0.37504,0 -1.65833,1.3781 -2.85174,3.0541 -1.93029,2.7108 -2.03151,3.4008 -0.91689,6.25 6.35423,16.2423 12.56296,24.1377 20.61348,26.2133 4.40721,1.1363 6.13476,1.1095 11.80219,-0.1832 5.4465,-1.2424 7.93236,-2.5524 13.83706,-7.2922 13.02761,-10.4573 15.55631,-13.947 33.62396,-46.4025 14.58328,-26.1965 23.89292,-41.509 42.1418,-69.3147 4.03486,-6.1479 14.32214,-20.8823 14.88381,-21.318 0.35453,-0.275 1.7052,-2.075 3.00148,-4 1.29629,-1.925 2.84961,-3.95 3.45182,-4.5 0.60222,-0.55 2.42262,-2.8 4.04535,-5 1.62272,-2.2 3.93789,-5.125 5.14482,-6.5 1.20693,-1.375 4.53973,-5.2 7.40622,-8.5 6.9484,-7.9992 35.09042,-35.5 36.32776,-35.5 0.53765,0 3.35919,-2.1375 6.2701,-4.75 5.5888,-5.0159 10.46432,-8.9685 21.90069,-17.755 3.85,-2.9579 8.575,-6.6856 10.5,-8.2836 1.925,-1.5981 4.85,-3.7414 6.5,-4.763 1.65,-1.0217 5.08745,-3.5655 7.63878,-5.653 2.55133,-2.0875 4.94801,-3.7954 5.32596,-3.7954 0.37794,0 3.31881,-2.025 6.53526,-4.5 3.21645,-2.475 6.15704,-4.5 6.53464,-4.5 0.37761,0 3.4569,-1.9366 6.84287,-4.3036 3.38597,-2.3669 6.94515,-4.6062 7.90929,-4.9762 0.96415,-0.37 4.41935,-2.4834 7.67823,-4.6965 3.25888,-2.213 6.29343,-4.0237 6.74345,-4.0237 0.45002,0 3.11506,-1.5468 5.9223,-3.4373 14.22272,-9.5781 44.13729,-23.9179 68.86922,-33.0131 4.95,-1.8203 12.49921,-4.7137 16.77603,-6.4296 4.27682,-1.716 8.26592,-3.12 8.86468,-3.12 0.59876,0 5.14387,-1.8 10.10025,-4 4.95637,-2.2 9.51727,-4.0022 10.13527,-4.0048 0.6181,0 5.6094,-2.0277 11.0919,-4.5 5.4825,-2.4724 10.4652,-4.4952 11.0726,-4.4952 0.6074,0 5.1218,-1.9514 10.0319,-4.3363 4.91,-2.385 10.2168,-4.6566 11.7928,-5.0481 1.576,-0.3914 5.9334,-2.4502 9.6832,-4.575 3.7498,-2.1249 7.7025,-4.1442 8.7839,-4.4875 2.5434,-0.8072 17.4991,-9.6079 22.6675,-13.3387 2.2,-1.5881 5.125,-3.4831 6.5,-4.2111 8.3568,-4.4245 38.64463,-31.3692 49.48303,-44.0212 8.3434,-9.7395 15.4691,-19.1152 20.8868,-27.4821 2.1369,-3.3 4.8278,-7.35 5.98,-9 3.7086,-5.3111 18.1892,-34.7591 20.9253,-42.5542 3.5622,-10.1482 6.3084,-22.3433 7.7569,-34.4458 1.4539,-12.1477 1.5109,-42.0659 0.094,-49.1325 -1.2202,-6.084 -0.096,-11.3213 3.4358,-16.0027 1.7095,-2.2661 4.5235,-3.9292 10.1518,-6 6.9755,-2.5663 9.0369,-2.8633 19.7867,-2.8501 15.1864,0.019 21.5551,2.1719 28.7424,9.7176 8.3577,8.7744 9.958,17.9597 7.7129,44.2677 -3.0775,36.0602 -12.1535,69.9823 -27.1567,101.5 -3.9139,8.2219 -15.3949,29.4633 -17.0259,31.5 -0.4404,0.55 -3.1215,4.6 -5.9579,9 -2.8364,4.4 -5.4472,8.225 -5.8019,8.5 -0.3547,0.275 -2.1098,2.6527 -3.9001,5.2837 l -3.2553,4.7837 3.015,9.2163 c 11.7826,36.0179 14.3896,81.1433 7.0445,121.9343 -3.439,19.0989 -12.3302,48.9305 -19.457,65.282 -0.7191,1.65 -2.7406,6.375 -4.4921,10.5 -7.731,18.2077 -20.8021,42.7941 -30.0375,56.5 -18.8643,27.9957 -56.23893,66.1704 -94.96693,97 -8.5191,6.7817 -19.4055,15.2135 -23.8857,18.5 -2.6241,1.925 -6.1828,4.625 -7.9081,6 -1.7253,1.375 -6.1016,4.75 -9.7251,7.5 -3.6235,2.75 -9.03,7.025 -12.0146,9.5 -2.9845,2.475 -7.8656,6.525 -10.8468,9 -2.98127,2.475 -5.45708,4.8375 -5.50184,5.25 -0.0448,0.4125 199.94367,0.75 444.41867,0.75 H 1761 Z M 312.54071,1466.6676 c -4.77358,-1.871 -6.59685,-3.2609 -9.16369,-6.9856 C 300.25396,1455.1501 298,1447.7724 298,1442.0818 c 0,-9.4175 5.69471,-31.5408 10.68362,-41.5047 3.37718,-6.7449 9.27516,-16.4942 11.79053,-19.4895 14.68931,-17.4924 28.27882,-28.8848 44.53731,-37.3367 9.99259,-5.1946 17.50889,-5.6004 25.99621,-1.4035 9.34078,4.6191 10.49888,5.4387 14.6642,10.3785 7.67077,9.0971 10.33035,16.8384 8.33313,24.2555 -1.41419,5.2519 -9.04591,13.652 -16.37248,18.0208 -7.8625,4.6884 -12.73904,8.4165 -17.22156,13.1656 -8.28798,8.7809 -14.21745,20.5539 -15.02494,29.8322 -0.90048,10.3468 -3.3821,16.8668 -8.33648,21.9026 -6.11549,6.216 -12.9007,8.3815 -27.54954,8.7922 -9.60913,0.2694 -11.75351,0.013 -16.95929,-2.0272 z m 239.29631,-388.075 C 535.75657,1073.166 528,1063.3887 528,1048.5454 c 0,-6.8666 1.18149,-10.354 8.14623,-24.0454 6.41946,-12.6195 21.72899,-36.7818 25.34445,-40 0.6179,-0.55 2.43847,-2.8 4.04573,-5 4.41957,-6.04947 22.80537,-24.12298 33.097,-32.53483 8.4757,-6.9276 13.04632,-10.21799 27.32495,-19.67124 6.92941,-4.58766 33.3576,-17.94619 42.54392,-21.50446 24.30483,-9.41436 26.75286,-10.12039 36.66137,-10.57337 8.76034,-0.40048 10.16246,-0.20661 15,2.07402 7.4569,3.51552 12.41128,8.57698 16.08955,16.43727 5.39087,11.52001 5.10309,21.89907 -0.82236,29.65939 -2.91054,3.81182 -5.37543,5.49098 -14.22569,9.69097 -5.88783,2.79413 -12.98207,5.945 -15.76497,7.00194 -2.7829,1.05693 -5.92692,2.55574 -6.98672,3.33068 -1.78553,1.30562 -1.80803,1.54402 -0.3067,3.24931 2.35441,2.67425 5.82554,9.88894 7.57658,15.74781 4.5,15.05666 -1.4111,39.06181 -13.00422,52.81061 -4.88416,5.7923 -17.29888,13.4091 -23.62345,14.4938 -7.12548,1.2219 -34.94157,0.8608 -41.09567,-0.5336 -3.025,-0.6855 -8.91781,-2.9881 -13.09514,-5.117 -4.17733,-2.1289 -8.09021,-3.5648 -8.6953,-3.1908 -1.19011,0.7355 -12.20956,19.778 -12.20956,21.0991 0,0.4414 -1.87307,3.6074 -4.16238,7.0357 -3.4799,5.2112 -5.16051,6.7054 -10.25,9.1132 -7.82422,3.7015 -17.68749,3.87 -27.7506,0.4741 z M 744.83548,717.13977 c 8.29123,-4.1696 36.0783,-14.99543 69.85336,-27.21483 l 9.18883,-3.32441 2.16526,-6.05027 c 5.37332,-15.01439 16.69207,-38.82315 23.79402,-50.05026 7.88136,-12.45923 10.07128,-15.72093 15.38547,-22.91544 3.21568,-4.35349 5.46795,-8.29419 5.00504,-8.7571 -0.46291,-0.46291 -31.19096,-0.72596 -68.28456,-0.58456 L 734.5,598.5 l -0.25763,61.75 c -0.14169,33.9625 0.009,61.75 0.33549,61.75 0.32621,0 4.94214,-2.1871 10.25762,-4.86023 z M 1313.7585,653.75 1313.5,598.5 1175.5535,598.24645 c -75.8705,-0.13945 -138.2918,0.0918 -138.7138,0.5139 -0.4221,0.4221 1.3538,3.29885 3.9464,6.3928 8.2306,9.82201 15.0204,18.67942 18.6435,24.32086 1.0505,1.6357 2.3072,3.4357 2.7926,4 0.4854,0.56429 2.7226,3.95099 4.9715,7.52599 2.2489,3.575 5.1199,8.075 6.38,10 1.26,1.925 2.8245,4.69536 3.4765,6.15635 1.1019,2.46912 1.7587,2.70192 9.3176,3.30288 14.5998,1.16071 37.9229,3.65466 48.0211,5.13491 5.439,0.79727 14.214,1.88891 19.5,2.42587 12.109,1.23004 46.6626,7.9715 67.6111,13.19103 8.8,2.19261 18.025,4.39466 20.5,4.89345 6.147,1.23881 32.0893,9.18194 45.5,13.93143 6.05,2.14264 12.35,4.21093 14,4.5962 1.65,0.38526 4.8,1.51576 7,2.51222 2.2,0.99645 4.3413,1.82162 4.7585,1.8337 0.4171,0.0121 0.6421,-24.84054 0.5,-55.22804 z m -369.75783,-121.25047 8.1711,-5.50046 4.1641,2.83906 c 2.2903,1.56148 5.9883,4.03669 8.2179,5.50046 L 968.60747,538 h 190.28813 190.2881 l 2.6581,-2.06766 c 1.462,-1.13722 6.0332,-4.51023 10.1582,-7.4956 4.125,-2.98536 9.975,-7.25696 13,-9.49244 8.9129,-6.58668 16.5033,-12.11375 23.9564,-17.4443 3.845,-2.75 9.6799,-7.025 12.9665,-9.5 3.2866,-2.475 8.3609,-6.20433 11.2763,-8.28739 14.0855,-10.06408 30.2899,-21.98954 37.3163,-27.46261 3.0009,-2.3375 5.8001,-4.25669 6.2204,-4.26488 0.4202,-0.008 2.5641,-1.56628 4.7641,-3.46245 l 4,-3.44758 h -452 -452 l 4,3.44758 c 2.2,1.89617 4.34386,3.45427 4.76413,3.46245 0.42027,0.008 3.21943,1.92738 6.22035,4.26488 6.97561,5.43349 22.78034,17.06721 37.30869,27.46261 2.91124,2.08306 7.86124,5.70311 11,8.04455 6.51447,4.85964 18.22575,13.39532 26.0076,18.95545 2.91542,2.08306 7.98978,5.81239 11.27635,8.28739 3.28658,2.475 9.14653,6.75 13.02212,9.5 3.8756,2.75 8.25124,5.99828 9.72365,7.2184 L 697.5,537.9368 816.66482,537.9684 935.82967,538 Z M 1536,276 V 168 H 1467.5 1399 V 229.5 291 H 1245 1091 V 229.5 168 h -67.5 -67.50003 V 229.5 291 H 802.5 649 V 229.5 168 H 580.5 512 v 108 108 h 512 512 z"
       id="path1" />
  </g>
  <path
     style="fill:#ffffff;stroke-width:2.78639"
     d="m 512.6966,406.81361 v -107.2762 h 66.87347 66.87347 v 61.30069 61.30068 h 156.03809 156.0381 V 360.8381 299.53741 H 1024 h 65.4803 v 61.30069 61.30068 h 156.0381 156.0381 V 360.8381 299.53741 h 66.8734 66.8735 V 406.81361 514.0898 H 1024 512.6966 Z"
     id="path2" />
  <path
     style="fill:#ffffff;stroke-width:2.78639"
     d="m 638.30873,623.33266 -59.6831,-43.76259 223.6033,-0.71323 c 122.98182,-0.39227 323.16027,-0.39227 444.84107,0 l 221.2377,0.71323 -60.0196,43.88571 -60.0196,43.88572 h -189.5681 c -187.39449,0 -189.66114,-0.0663 -197.68894,-5.78262 l -8.12095,-5.78261 -9.35646,5.78261 c -9.09315,5.61988 -12.67979,5.77915 -127.44933,5.65949 l -118.09288,-0.12312 z"
     id="path3" />
  <path
     style="fill:#ffffff;stroke-width:2.78639"
     d="m 1284.5279,828.5677 c -38.3495,-13.47869 -100.8755,-27.05964 -154.9207,-33.64953 l -50.4309,-6.14918 -5.9864,-10.40157 c -3.2925,-5.72087 -12.2088,-18.62246 -19.8139,-28.67021 l -13.8275,-18.26864 h 136.4217 136.4216 v 52.9415 c 0,29.11782 -0.9404,52.8471 -2.0898,52.73173 -1.1493,-0.11537 -12.7477,-3.95572 -25.7741,-8.5341 z"
     id="path4" />
  <path
     style="fill:#ffffff;stroke-width:2.78639"
     d="m 735.60816,791.43409 v -60.00552 h 65.80074 65.80073 l -5.03465,7.66259 c -14.65091,22.2982 -21.57566,34.84888 -30.29789,54.91302 l -9.61989,22.12908 -37.05513,14.21522 c -20.38032,7.81836 -39.87636,15.76229 -43.32452,17.65317 l -6.26939,3.43796 z"
     id="path5" />
  <path
     style="fill:#ffffff;stroke-width:2.78639"
     d="m 896.56929,1785.4069 -18.76135,-0.9737 9.00897,-7.7002 c 4.9549,-4.2352 22.69086,-18.2102 39.41321,-31.0557 37.17173,-28.5538 78.01048,-67.127 99.21668,-93.7124 29.1496,-36.544 58.2912,-102.0544 66.8151,-150.2009 4.7107,-26.6077 2.4576,-88.9821 -4.0726,-112.7463 l -4.9769,-18.1116 10.3993,-15.3251 c 32.0875,-47.2866 51.5965,-107.4389 51.5965,-159.0884 0,-20.0593 -0.6644,-22.683 -7.753,-30.6165 -8.551,-9.5702 -25.0332,-13.226 -43.7767,-9.7097 -18.6739,3.5033 -20.9166,8.39 -20.9166,45.5774 0,38.0523 -3.8488,55.8033 -18.402,84.8723 -27.0718,54.074 -73.80977,98.7503 -130.32454,124.5759 -12.45019,5.6894 -47.48275,20.1346 -77.85013,32.1006 -86.77279,34.1919 -151.38443,75.6743 -212.58549,136.4853 -32.49937,32.2923 -59.07876,69.4393 -94.67225,132.3125 -31.80658,56.184 -55.44816,68.5356 -72.61221,37.9366 l -6.09657,-10.8686 12.32762,-15.1334 c 23.05004,-28.2964 42.93666,-70.7964 42.93666,-91.7606 0,-13.071 -10.36132,-23.1215 -23.83633,-23.1215 -13.49514,0 -23.48526,10.2661 -43.93397,45.1477 -8.83715,15.0745 -20.08521,30.267 -25.42325,34.3385 -23.36578,17.8219 -60.35519,23.1957 -87.82291,12.7588 -17.60816,-6.6906 -45.40362,-26.452 -60.99042,-43.3617 -20.83062,-22.5985 -31.05978,-54.098 -31.05978,-95.6447 0,-21.8096 1.44116,-30.432 8.79129,-52.598 10.8577,-32.744 22.4028,-51.4378 79.26585,-128.347 59.33323,-80.2501 106.85317,-148.4073 119.04754,-170.7481 5.43726,-9.9613 13.34913,-28.1425 17.58193,-40.4027 6.68641,-19.3669 7.71446,-26.6775 7.83667,-55.7279 0.13752,-32.69 0.37128,-33.9197 10.46787,-55.0641 25.54962,-53.5062 62.8996,-99.06167 94.24504,-114.94974 51.94296,-26.32835 70.83631,-30.82142 94.3087,-22.42777 20.939,7.48773 38.68098,5.70233 70.64672,-7.10925 15.73912,-6.30809 35.04975,-13.71233 42.91257,-16.45387 l 14.29598,-4.98462 1.45166,12.87894 c 2.17222,19.2719 10.85183,25.60159 35.10628,25.60159 26.19601,0 29.94895,-4.3173 35.41881,-40.74494 5.11488,-34.06361 16.42953,-67.51202 31.20486,-92.2477 11.66669,-19.53152 43.67858,-59.26858 47.74632,-59.26858 3.92422,0 38.10629,37.68565 49.72788,54.82485 28.1993,41.5876 42.4257,86.84982 42.4257,134.98033 0,11.87891 1.2,24.75428 2.6667,28.61194 6.5824,17.31318 43.1276,21.26282 58.1183,6.28117 7.2298,-7.22548 7.4816,-8.53027 7.4816,-38.76527 0,-17.20847 -0.9753,-39.7518 -2.1674,-50.09629 -2.6513,-23.00762 -5.4279,-22.50539 50.9293,-9.21201 146.8249,34.63262 285.8725,112.16952 367.7172,205.04952 88.974,100.9705 154.821,230.6293 197.9484,389.7786 22.5414,83.1826 29.3144,136.9186 32.0755,254.4818 l 1.6851,71.7497 -423.011,-0.5457 c -232.6561,-0.3002 -431.4537,-0.9839 -441.77241,-1.5195 z m -543.5354,-190.0793 c 8.65056,-5.2746 10.12425,-8.4421 15.93925,-34.2588 1.65492,-7.3473 14.35698,-21.4335 36.06981,-40.0003 11.99869,-10.2601 13.4629,-22.0199 4.33738,-34.8355 -17.36518,-24.3872 -43.5375,-21.0021 -75.6708,9.787 -20.20077,19.3557 -31.79587,41.5226 -36.39785,69.5834 -1.86738,11.3864 2.79909,25.9309 9.92,30.9185 8.91249,6.2426 34.70849,5.5699 45.80221,-1.1943 z M 580.46823,1210.407 c 3.70323,-1.6873 10.89355,-10.4645 15.9785,-19.5048 5.08495,-9.0403 10.1111,-16.4369 11.16924,-16.4369 1.05813,0 6.7093,1.9995 12.55814,4.4433 7.62836,3.1873 17.04114,4.1718 33.30059,3.483 19.48573,-0.8256 24.04664,-2.0135 32.50301,-8.4656 5.41018,-4.1279 12.1282,-12.2781 14.92895,-18.1116 7.18664,-14.9684 8.60558,-39.5075 2.92025,-50.5018 l -4.52246,-8.7454 16.55771,-8.3583 c 9.10671,-4.5971 18.52893,-11.1727 20.93825,-14.6124 12.92817,-18.4576 -5.61442,-49.4251 -29.67257,-49.5554 -10.4061,-0.056 -49.07763,14.3816 -70.28156,26.2394 -25.65083,14.3448 -55.66194,38.7844 -72.10217,58.7165 -18.952,22.9774 -38.11554,59.0227 -38.11554,71.6926 0,23.043 30.97022,40.1374 53.83966,29.7174 z"
     id="path6" />
</svg>
