/* XPM */
static char * BlackArchbishop_xpm[] = {
"48 48 220 2",
"  	c #00FF00",
". 	c #FFFFFF",
"+ 	c #FFFFFF",
"@ 	c #FFFFFF",
"# 	c #FFFFFF",
"$ 	c #FFFFFF",
"% 	c #FFFFFF",
"& 	c #F6F6F6",
"* 	c #D2D2D2",
"= 	c #D0D0D0",
"- 	c #F4F4F4",
"; 	c #FFFFFF",
"> 	c #FFFFFF",
", 	c #FFFFFF",
"' 	c #D9D9D9",
") 	c #383838",
"! 	c #000000",
"~ 	c #373737",
"{ 	c #CBCBCB",
"] 	c #FFFFFF",
"^ 	c #FFFFFF",
"/ 	c #FCFCFC",
"( 	c #3F3F3F",
"_ 	c #242424",
": 	c #FFFFFF",
"< 	c #ECECEC",
"[ 	c #E7E7E7",
"} 	c #FFFFFF",
"| 	c #FFFFFF",
"1 	c #6F6F6F",
"2 	c #5F5F5F",
"3 	c #FBFBFB",
"4 	c #FFFFFF",
"5 	c #FFFFFF",
"6 	c #F1F1F1",
"7 	c #828282",
"8 	c #707070",
"9 	c #EFEFEF",
"0 	c #FFFFFF",
"a 	c #FFFFFF",
"b 	c #FFFFFF",
"c 	c #E1E1E1",
"d 	c #363636",
"e 	c #D4D4D4",
"f 	c #FFFFFF",
"g 	c #FFFFFF",
"h 	c #FFFFFF",
"i 	c #C6C6C6",
"j 	c #1D1D1D",
"k 	c #C0C0C0",
"l 	c #FFFFFF",
"m 	c #FFFFFF",
"n 	c #FFFFFF",
"o 	c #F7F7F7",
"p 	c #999999",
"q 	c #919191",
"r 	c #FFFFFF",
"s 	c #575757",
"t 	c #4B4B4B",
"u 	c #D3D3D3",
"v 	c #FFFFFF",
"w 	c #FAFAFA",
"x 	c #A1A1A1",
"y 	c #121212",
"z 	c #131313",
"A 	c #959595",
"B 	c #FFFFFF",
"C 	c #FFFFFF",
"D 	c #FFFFFF",
"E 	c #FFFFFF",
"F 	c #FEFEFE",
"G 	c #878787",
"H 	c #E2E2E2",
"I 	c #F2F2F2",
"J 	c #868686",
"K 	c #FFFFFF",
"L 	c #FDFDFD",
"M 	c #C3C3C3",
"N 	c #FFFFFF",
"O 	c #FFFFFF",
"P 	c #B9B9B9",
"Q 	c #AAAAAA",
"R 	c #717171",
"S 	c #949494",
"T 	c #C5C5C5",
"U 	c #A8A8A8",
"V 	c #5E5E5E",
"W 	c #FFFFFF",
"X 	c #BCBCBC",
"Y 	c #B0B0B0",
"Z 	c #444444",
"` 	c #EEEEEE",
" .	c #FFFFFF",
"..	c #B7B7B7",
"+.	c #010101",
"@.	c #FFFFFF",
"#.	c #353535",
"$.	c #FFFFFF",
"%.	c #626262",
"&.	c #FFFFFF",
"*.	c #838383",
"=.	c #555555",
"-.	c #616161",
";.	c #DBDBDB",
">.	c #8C8C8C",
",.	c #CFCFCF",
"'.	c #FFFFFF",
").	c #FFFFFF",
"!.	c #FFFFFF",
"~.	c #B5B5B5",
"{.	c #7A7A7A",
"].	c #5B5B5B",
"^.	c #6C6C6C",
"/.	c #FFFFFF",
"(.	c #FFFFFF",
"_.	c #515151",
":.	c #7E7E7E",
"<.	c #BFBFBF",
"[.	c #494949",
"}.	c #A4A4A4",
"|.	c #FFFFFF",
"1.	c #808080",
"2.	c #9F9F9F",
"3.	c #E5E5E5",
"4.	c #F5F5F5",
"5.	c #8B8B8B",
"6.	c #848484",
"7.	c #F3F3F3",
"8.	c #FFFFFF",
"9.	c #DCDCDC",
"0.	c #D6D6D6",
"a.	c #909090",
"b.	c #A0A0A0",
"c.	c #F9F9F9",
"d.	c #777777",
"e.	c #FFFFFF",
"f.	c #FFFFFF",
"g.	c #A9A9A9",
"h.	c #D8D8D8",
"i.	c #898989",
"j.	c #FFFFFF",
"k.	c #FFFFFF",
"l.	c #B8B8B8",
"m.	c #797979",
"n.	c #4C4C4C",
"o.	c #747474",
"p.	c #BABABA",
"q.	c #FFFFFF",
"r.	c #545454",
"s.	c #A2A2A2",
"t.	c #3C3C3C",
"u.	c #202020",
"v.	c #030303",
"w.	c #E9E9E9",
"x.	c #EBEBEB",
"y.	c #B1B1B1",
"z.	c #FFFFFF",
"A.	c #E0E0E0",
"B.	c #A3A3A3",
"C.	c #393939",
"D.	c #D1D1D1",
"E.	c #FFFFFF",
"F.	c #454545",
"G.	c #1E1E1E",
"H.	c #262626",
"I.	c #AFAFAF",
"J.	c #767676",
"K.	c #FFFFFF",
"L.	c #FFFFFF",
"M.	c #E4E4E4",
"N.	c #FFFFFF",
"O.	c #737373",
"P.	c #ACACAC",
"Q.	c #FFFFFF",
"R.	c #FFFFFF",
"S.	c #FFFFFF",
"T.	c #F0F0F0",
"U.	c #FFFFFF",
"V.	c #FFFFFF",
"W.	c #505050",
"X.	c #606060",
"Y.	c #DEDEDE",
"Z.	c #C9C9C9",
"`.	c #070707",
" +	c #EAEAEA",
".+	c #FFFFFF",
"++	c #FFFFFF",
"@+	c #6A6A6A",
"#+	c #C8C8C8",
"$+	c #9C9C9C",
"%+	c #FFFFFF",
"&+	c #EDEDED",
"*+	c #343434",
"=+	c #7D7D7D",
"-+	c #6E6E6E",
";+	c #5D5D5D",
">+	c #FFFFFF",
",+	c #696969",
"'+	c #7B7B7B",
")+	c #7C7C7C",
"!+	c #4D4D4D",
"~+	c #979797",
"{+	c #FFFFFF",
"]+	c #FFFFFF",
"^+	c #474747",
"/+	c #FFFFFF",
"(+	c #C4C4C4",
"_+	c #FFFFFF",
":+	c #D5D5D5",
"<+	c #2E2E2E",
"[+	c #FFFFFF",
"}+	c #FFFFFF",
"|+	c #E3E3E3",
"1+	c #FFFFFF",
"2+	c #FFFFFF",
"3+	c #FFFFFF",
"4+	c #FFFFFF",
"5+	c #FFFFFF",
"6+	c #FFFFFF",
"7+	c #FFFFFF",
"                                                                                                ",
"                                          . + @ # + $                                           ",
"                                        % # & * = - # ;                                         ",
"                                      > , ' ) ! ! ~ { # ]                                       ",
"                                      ^ / ( ! ! ! ! _ - :                                       ",
"                                      % < ! ! ! ! ! ! [ }                                       ",
"                                      | # 1 ! ! ! ! 2 3 4                                       ",
"                                      5 # 6 7 ! ! 8 9 # 0                                       ",
"                                    a b # c ) ! ! d e # f g                                     ",
"                                  ^ h # i j ! ! ! ! ! k # , l                                   ",
"                              m n # o p ! ! ! ! ! ! ! ! q - # + r                               ",
"                            a f # ' s ! ! ! ! ! ! ! ! ! ! t u # f v                             ",
"                          r f w x ! ! ! ! ! ! y z ! ! ! ! ! ! A w B r                           ",
"                      C D E F G ! ! ! ! ! ! ! H I ! ! ! ! ! ! ! J 3 K                           ",
"                    0 , # # i ! ! ! ! ! ! ! ! [ L ! ! ! ! ! ! ! ! M # N                         ",
"                    O P Q [ R ! ! ! ! ! S { T & F { { U ! ! ! ! ! V # W                         ",
"                    # Q ! ! ! ! ! ! ! ! X Y Z ' # [ [ { ! ! ! ! ! ! `  .                        ",
"                    B ..! ! ! ! ! ! ! ! ! ! ! +.* ! ! ! ! ! ! ! ! ! [  .                        ",
"                    @.u ! ! ! ! ! ! ! ! ! ! ! ! #.! ! ! ! ! ! ! ! ! ` $.                        ",
"                     .6 ! ! ! ! ! ! ! ! ! ! ! ! ! ! ! ! ! ! ! ! ! %.# %                         ",
"                    &.# *.! ! ! ! =.P -.! ! ! ! ! ! ;.X >.! ! ! ! ,.# '.).                      ",
"                  !.# 6 -.! ! ! ~.3 # {.! ! ! ! ! ! # # # & M ].! ^.' # f |                     ",
"                /.(.6 -.! ! ! ! k M _.! ! ! ! ! ! ! :.<.- # # L i [.! }.w , 0                   ",
"                |.# 1.! ! ! ! ! ! ! ! ! ! ! ! ! ! ! ! ! +.2.3.# # 4.5.! 6.7., 0                 ",
"                8.9.! ! ! R 0.F a.! ! ! ! ! ! ! ! ! ! ! ! ! ! b.c.# # Q ! d.w e.a               ",
"              f.h { ! ! g./ # h.) ! ! ! ! ! ! ! ! ! ! ! ! ! ! ! -.I # # x ! i.# j.              ",
"              k.# l.! m.L # # T ! ! ! ! ! ! ! ! ! n.n.! ! ! ! ! ! 6.L # w o.! p.# :             ",
"            q.E w r.! T w s.Q t.! ! ! ! ! ! ! ! ! [ & ! ! ! ! ! ! ! X # # < u.v.[ , >           ",
"             .# P ! ! ! =.! ! ! ! ! ! ! ! ! ! ! ! w.x.! ! ! ! ! ! ! ) 9 # # y.! :.# z.          ",
"          % # A.+.! ! ! ! ! ! ! ! ! ! ! ! ! ! ! 1 # { ! ! ! ! ! ! ! ! B.# # & C.! D.h >         ",
"        0 E.6 F.! ! ! ! ! ! ! ! ! ! ! ! ! ! ! G.A.3 1 ! ! ! ! ! ! ! ! H.& # # I.! J.# K.        ",
"      L.f & -.! ! ! ! ! ! ! ! ! ! ! ! ! ! ! ! i.L g.! ! ! ! ! ! ! ! ! ! <.# # w.! ! M.f         ",
"      N.# q ! ! ! ! ! ! ! ! ! ! ! ! ! ! ! ! ! ! ! ! ! ! ! ! ! ! ! ! ! ! O.# # # d.! P.# Q.      ",
"    R.S.* ! ! ! ! ! ! ! ! ! ! ! ! ! ! ! ! ! G h.! ! ! ! ! ! ! ! ! ! ! ! ! T.# # X ! V # U.      ",
"    V.# 7 ! ! W.D.P ! ! ! ! ! ! ! ! ! X.<.I # Y.! ! ! ! ! ! ! ! ! ! ! ! ! Z.# # c ! ! ` n       ",
"    . # `.! !  +w B.! ! ! ! ! ! ! s = # # # # g.! ! ! ! ! ! ! ! ! ! ! ! ! g.# # L ! ! D..+      ",
"    ++# @+! %.# #+! ! u.! ! ! ! $+w e.%+(.# &+*+! ! ! ! ! ! ! ! ! ! ! ! ! =+# # # -+! ~.#       ",
"      (.g.! ! ;+! ! 5.F X.! ! Q # >+q. .# I ,+! ! ! ! ! ! ! ! ! ! ! ! ! ! '+# # # )+! s.# Q.    ",
"      } 9 C.! ! ! !+6 H ! ! ~+# z.   .# T.-.! ! ! ! ! ! ! ! ! ! ! ! ! ! ! V # # # =+! =+# ++    ",
"      q.@.H _.! ! ! p -.! t.- {+  ]+# H ^+! ! ! ! ! ! ! ! ! ! ! ! ! ! ! ! V # # # =+! )+# V.    ",
"        q./+w { ..(+d ! ! D.f _+a # :+) ! ! ! ! ! ! ! ! ! ! ! ! ! ! ! ! ! <+# # # =+! 8 # V.    ",
"            [+$.}+(.< { |+E a   1+u [.[.[.[.[.[.[.[.[.[.[.[.[.[.[.[.[.[.[.n.# # # 5.[.t (.q.    ",
"                    2+% 3+        4+5+# # # # # # # # # # # # # # # # # # # # # # # # 6+7+      ",
"                                                                                                ",
"                                                                                                ",
"                                                                                                ",
"                                                                                                ",
"                                                                                                "};
