/* XPM */
static char * BlackPawn_xpm[] = {
"48 48 117 2",
"  	c #00FF00",
". 	c #FFFFFF",
"+ 	c #FFFFFF",
"@ 	c #FFFFFF",
"# 	c #FFFFFF",
"$ 	c #FFFFFF",
"% 	c #FFFFFF",
"& 	c #FFFFFF",
"* 	c #F9F9F9",
"= 	c #C4C4C4",
"- 	c #AAAAAA",
"; 	c #FFFFFF",
"> 	c #FFFFFF",
", 	c #E2E2E2",
"' 	c #565656",
") 	c #000000",
"! 	c #606060",
"~ 	c #FFFFFF",
"{ 	c #F6F6F6",
"] 	c #4E4E4E",
"^ 	c #FFFFFF",
"/ 	c #B9B9B9",
"( 	c #FFFFFF",
"_ 	c #878787",
": 	c #FFFFFF",
"< 	c #7C7C7C",
"[ 	c #FFFFFF",
"} 	c #B0B0B0",
"| 	c #FFFFFF",
"1 	c #ECECEC",
"2 	c #373737",
"3 	c #FFFFFF",
"4 	c #CDCDCD",
"5 	c #FFFFFF",
"6 	c #E6E6E6",
"7 	c #909090",
"8 	c #FFFFFF",
"9 	c #CBCBCB",
"0 	c #FFFFFF",
"a 	c #D5D5D5",
"b 	c #FFFFFF",
"c 	c #FAFAFA",
"d 	c #505050",
"e 	c #FFFFFF",
"f 	c #D7D7D7",
"g 	c #FFFFFF",
"h 	c #C6C6C6",
"i 	c #FFFFFF",
"j 	c #EFEFEF",
"k 	c #FFFFFF",
"l 	c #FFFFFF",
"m 	c #9E9E9E",
"n 	c #A1A1A1",
"o 	c #FFFFFF",
"p 	c #FFFFFF",
"q 	c #616161",
"r 	c #686868",
"s 	c #FFFFFF",
"t 	c #F3F3F3",
"u 	c #969696",
"v 	c #F7F7F7",
"w 	c #A5A5A5",
"x 	c #383838",
"y 	c #A8A8A8",
"z 	c #EDEDED",
"A 	c #FFFFFF",
"B 	c #FFFFFF",
"C 	c #FDFDFD",
"D 	c #B8B8B8",
"E 	c #272727",
"F 	c #BABABA",
"G 	c #FFFFFF",
"H 	c #FFFFFF",
"I 	c #FFFFFF",
"J 	c #868686",
"K 	c #FBFBFB",
"L 	c #FFFFFF",
"M 	c #FFFFFF",
"N 	c #FFFFFF",
"O 	c #737373",
"P 	c #838383",
"Q 	c #FFFFFF",
"R 	c #8C8C8C",
"S 	c #FFFFFF",
"T 	c #BFBFBF",
"U 	c #C5C5C5",
"V 	c #FFFFFF",
"W 	c #FFFFFF",
"X 	c #FFFFFF",
"Y 	c #FFFFFF",
"Z 	c #B4B4B4",
"` 	c #FFFFFF",
" .	c #FFFFFF",
"..	c #515151",
"+.	c #5F5F5F",
"@.	c #FFFFFF",
"#.	c #FFFFFF",
"$.	c #E9E9E9",
"%.	c #FFFFFF",
"&.	c #FFFFFF",
"*.	c #CCCCCC",
"=.	c #ADADAD",
"-.	c #B5B5B5",
";.	c #FFFFFF",
">.	c #A9A9A9",
",.	c #FFFFFF",
"'.	c #C1C1C1",
").	c #C7C7C7",
"!.	c #FFFFFF",
"~.	c #DBDBDB",
"{.	c #FFFFFF",
"].	c #FFFFFF",
"^.	c #F8F8F8",
"/.	c #FFFFFF",
"(.	c #FFFFFF",
"_.	c #9D9D9D",
":.	c #FFFFFF",
"                                                                                                ",
"                                                                                                ",
"                                        . + @ # # @ $ .                                         ",
"                                      % & * = - - = * & ;                                       ",
"                                    > & , ' ) ) ) ) ! , & >                                     ",
"                                    ~ { ] ) ) ) ) ) ) ' { ~                                     ",
"                                    ^ / ) ) ) ) ) ) ) ) / ^                                     ",
"                                  ( # _ ) ) ) ) ) ) ) ) _ # (                                   ",
"                                  : # < ) ) ) ) ) ) ) ) < # :                                   ",
"                                  [ # } ) ) ) ) ) ) ) ) } # [                                   ",
"                                    | 1 2 ) ) ) ) ) ) 2 1 |                                     ",
"                                  3 # # 4 ) ) ) ) ) ) 4 # # 3                                   ",
"                                5 # 6 7 ) ) ) ) ) ) ) ) 7 6 # 5                                 ",
"                              8 # 9 ) ) ) ) ) ) ) ) ) ) ) ) 9 # 8                               ",
"                            0 ^ a ) ) ) ) ) ) ) ) ) ) ) ) ) ) a ^ 0                             ",
"                            b c d ) ) ) ) ) ) ) ) ) ) ) ) ) ) d c b                             ",
"                            e f ) ) ) ) ) ) ) ) ) ) ) ) ) ) ) ) f e                             ",
"                            ^ / ) ) ) ) ) ) ) ) ) ) ) ) ) ) ) ) / ^                             ",
"                            # - ) ) ) ) ) ) ) ) ) ) ) ) ) ) ) ) - #                             ",
"                            g h ) ) ) ) ) ) ) ) ) ) ) ) ) ) ) ) h g                             ",
"                            i j ) ) ) ) ) ) ) ) ) ) ) ) ) ) ) ) j k                             ",
"                            l # m ) ) ) ) ) ) ) ) ) ) ) ) ) ) n # o                             ",
"                              p { q ) ) ) ) ) ) ) ) ) ) ) ) r c s                               ",
"                              o # t 7 ) ) ) ) ) ) ) ) ) ) u v # o                               ",
"                            . p # 1 w x ) ) ) ) ) ) ) ) x y z # A .                             ",
"                          ; B C D E ) ) ) ) ) ) ) ) ) ) ) ) 2 F # G H                           ",
"                        I & * J ) ) ) ) ) ) ) ) ) ) ) ) ) ) ) ) J K L M                         ",
"                      N G c O ) ) ) ) ) ) ) ) ) ) ) ) ) ) ) ) ) ) P c G                         ",
"                      Q # R ) ) ) ) ) ) ) ) ) ) ) ) ) ) ) ) ) ) ) ) 7 # +                       ",
"                    S # T ) ) ) ) ) ) ) ) ) ) ) ) ) ) ) ) ) ) ) ) ) ) U V W                     ",
"                    X { x ) ) ) ) ) ) ) ) ) ) ) ) ) ) ) ) ) ) ) ) ) ) x { X                     ",
"                  Y # Z ) ) ) ) ) ) ) ) ) ) ) ) ) ) ) ) ) ) ) ) ) ) ) ) D ` Y                   ",
"                   .# ..) ) ) ) ) ) ) ) ) ) ) ) ) ) ) ) ) ) ) ) ) ) ) ) +.# @.                  ",
"                  #.$.) ) ) ) ) ) ) ) ) ) ) ) ) ) ) ) ) ) ) ) ) ) ) ) ) ) 1 %.                  ",
"                  &.*.) ) ) ) ) ) ) ) ) ) ) ) ) ) ) ) ) ) ) ) ) ) ) ) ) ) *.|                   ",
"                  # =.) ) ) ) ) ) ) ) ) ) ) ) ) ) ) ) ) ) ) ) ) ) ) ) ) ) -.;.                  ",
"                  # - ) ) ) ) ) ) ) ) ) ) ) ) ) ) ) ) ) ) ) ) ) ) ) ) ) ) - #                   ",
"                  # - ) ) ) ) ) ) ) ) ) ) ) ) ) ) ) ) ) ) ) ) ) ) ) ) ) ) >.#                   ",
"                  ,.'.) ) ) ) ) ) ) ) ) ) ) ) ) ) ) ) ) ) ) ) ) ) ) ) ) ) ).!.                  ",
"                  G f ) ) ) ) ) ) ) ) ) ) ) ) ) ) ) ) ) ) ) ) ) ) ) ) ) ) ~.{.                  ",
"                  ].{ ) ) ) ) ) ) ) ) ) ) ) ) ) ) ) ) ) ) ) ) ) ) ) ) ) ) ^.].                  ",
"                  /.(.D _._._._._._._._._._._._._._._._._._._._._._._._./ (.:.                  ",
"                    o @ # # # # # # # # # # # # # # # # # # # # # # # # @ o                     ",
"                        :.: : : : : : : : : : : : : : : : : : : : : : :.                        ",
"                                                                                                ",
"                                                                                                ",
"                                                                                                ",
"                                                                                                "};
