/* XPM */
static char * BlackKing_xpm[] = {
"48 48 225 2",
"  	c #00FF00",
". 	c #FFFFFF",
"+ 	c #FFFFFF",
"@ 	c #FFFFFF",
"# 	c #FFFFFF",
"$ 	c #FFFFFF",
"% 	c #C5C5C5",
"& 	c #FFFFFF",
"* 	c #FFFFFF",
"= 	c #FFFFFF",
"- 	c #FFFFFF",
"; 	c #7C7C7C",
"> 	c #FFFFFF",
", 	c #FFFFFF",
"' 	c #FFFFFF",
") 	c #FFFFFF",
"! 	c #CACACA",
"~ 	c #383838",
"{ 	c #FFFFFF",
"] 	c #FFFFFF",
"^ 	c #D6D6D6",
"/ 	c #7B7B7B",
"( 	c #D3D3D3",
"_ 	c #FFFFFF",
": 	c #FFFFFF",
"< 	c #FFFFFF",
"[ 	c #898989",
"} 	c #878787",
"| 	c #FFFFFF",
"1 	c #6A6A6A",
"2 	c #000000",
"3 	c #5F5F5F",
"4 	c #FFFFFF",
"5 	c #FFFFFF",
"6 	c #FFFFFF",
"7 	c #FFFFFF",
"8 	c #FFFFFF",
"9 	c #FFFFFF",
"0 	c #FFFFFF",
"a 	c #CBCBCB",
"b 	c #747474",
"c 	c #ACACAC",
"d 	c #ABABAB",
"e 	c #525252",
"f 	c #CDCDCD",
"g 	c #FFFFFF",
"h 	c #FFFFFF",
"i 	c #FFFFFF",
"j 	c #FFFFFF",
"k 	c #FFFFFF",
"l 	c #FFFFFF",
"m 	c #FFFFFF",
"n 	c #FFFFFF",
"o 	c #FFFFFF",
"p 	c #F6F6F6",
"q 	c #999999",
"r 	c #FBFBFB",
"s 	c #FFFFFF",
"t 	c #FFFFFF",
"u 	c #FFFFFF",
"v 	c #FFFFFF",
"w 	c #E2E2E2",
"x 	c #797979",
"y 	c #292929",
"z 	c #777777",
"A 	c #9A9A9A",
"B 	c #D1D1D1",
"C 	c #DDDDDD",
"D 	c #B5B5B5",
"E 	c #B1B1B1",
"F 	c #DBDBDB",
"G 	c #D2D2D2",
"H 	c #F5F5F5",
"I 	c #696969",
"J 	c #9E9E9E",
"K 	c #E1E1E1",
"L 	c #FFFFFF",
"M 	c #FFFFFF",
"N 	c #FFFFFF",
"O 	c #FFFFFF",
"P 	c #929292",
"Q 	c #656565",
"R 	c #838383",
"S 	c #959595",
"T 	c #3F3F3F",
"U 	c #050505",
"V 	c #D9D9D9",
"W 	c #E7E7E7",
"X 	c #CCCCCC",
"Y 	c #919191",
"Z 	c #191919",
"` 	c #555555",
" .	c #909090",
"..	c #F3F3F3",
"+.	c #616161",
"@.	c #9B9B9B",
"#.	c #EDEDED",
"$.	c #E6E6E6",
"%.	c #B6B6B6",
"&.	c #505050",
"*.	c #BFBFBF",
"=.	c #FCFCFC",
"-.	c #4E4E4E",
";.	c #4D4D4D",
">.	c #C1C1C1",
",.	c #393939",
"'.	c #AAAAAA",
").	c #DEDEDE",
"!.	c #FFFFFF",
"~.	c #FFFFFF",
"{.	c #FAFAFA",
"].	c #C0C0C0",
"^.	c #B2B2B2",
"/.	c #717171",
"(.	c #2A2A2A",
"_.	c #B8B8B8",
":.	c #F8F8F8",
"<.	c #E9E9E9",
"[.	c #8F8F8F",
"}.	c #FFFFFF",
"|.	c #FFFFFF",
"1.	c #CECECE",
"2.	c #BABABA",
"3.	c #515151",
"4.	c #F1F1F1",
"5.	c #B9B9B9",
"6.	c #FFFFFF",
"7.	c #6E6E6E",
"8.	c #EEEEEE",
"9.	c #B3B3B3",
"0.	c #676767",
"a.	c #EFEFEF",
"b.	c #949494",
"c.	c #888888",
"d.	c #DCDCDC",
"e.	c #5E5E5E",
"f.	c #7A7A7A",
"g.	c #FFFFFF",
"h.	c #F2F2F2",
"i.	c #343434",
"j.	c #ECECEC",
"k.	c #6F6F6F",
"l.	c #FFFFFF",
"m.	c #828282",
"n.	c #707070",
"o.	c #FFFFFF",
"p.	c #A9A9A9",
"q.	c #A5A5A5",
"r.	c #C4C4C4",
"s.	c #868686",
"t.	c #3A3A3A",
"u.	c #FFFFFF",
"v.	c #FFFFFF",
"w.	c #939393",
"x.	c #E4E4E4",
"y.	c #FDFDFD",
"z.	c #EBEBEB",
"A.	c #FFFFFF",
"B.	c #FFFFFF",
"C.	c #E0E0E0",
"D.	c #7E7E7E",
"E.	c #0B0B0B",
"F.	c #363636",
"G.	c #3B3B3B",
"H.	c #757575",
"I.	c #787878",
"J.	c #626262",
"K.	c #FFFFFF",
"L.	c #737373",
"M.	c #2F2F2F",
"N.	c #D5D5D5",
"O.	c #FEFEFE",
"P.	c #CFCFCF",
"Q.	c #FFFFFF",
"R.	c #FFFFFF",
"S.	c #FFFFFF",
"T.	c #F7F7F7",
"U.	c #5B5B5B",
"V.	c #FFFFFF",
"W.	c #FFFFFF",
"X.	c #A8A8A8",
"Y.	c #333333",
"Z.	c #C2C2C2",
"`.	c #B0B0B0",
" +	c #FFFFFF",
".+	c #7D7D7D",
"++	c #6C6C6C",
"@+	c #FFFFFF",
"#+	c #FFFFFF",
"$+	c #474747",
"%+	c #BCBCBC",
"&+	c #D7D7D7",
"*+	c #FFFFFF",
"=+	c #C9C9C9",
"-+	c #FFFFFF",
";+	c #A7A7A7",
">+	c #E5E5E5",
",+	c #9C9C9C",
"'+	c #FFFFFF",
")+	c #4F4F4F",
"!+	c #FFFFFF",
"~+	c #A2A2A2",
"{+	c #FFFFFF",
"]+	c #818181",
"^+	c #BBBBBB",
"/+	c #FFFFFF",
"(+	c #E3E3E3",
"_+	c #353535",
":+	c #ADADAD",
"<+	c #A3A3A3",
"[+	c #3E3E3E",
"}+	c #FFFFFF",
"|+	c #C6C6C6",
"1+	c #545454",
"2+	c #A6A6A6",
"3+	c #FFFFFF",
"4+	c #F0F0F0",
"5+	c #FFFFFF",
"6+	c #FFFFFF",
"7+	c #FFFFFF",
"8+	c #FFFFFF",
"9+	c #FFFFFF",
"0+	c #FFFFFF",
"a+	c #FFFFFF",
"b+	c #FFFFFF",
"                                                                                                ",
"                                            . + @ .                                             ",
"                                          # $ % % & *                                           ",
"                                        * = - ; ; - =                                           ",
"                                      > , - - ; ; - - & '                                       ",
"                                      ) ! ; ; ~ ~ ; ; % {                                       ",
"                                      ] ^ / / ~ ~ / / ( )                                       ",
"                                      _ : - - ; ; - - : _                                       ",
"                                          $ - ; ; - $                                           ",
"                                        < - - [ } - - <                                         ",
"                                      | - ^ 1 2 2 3 ^ - <                                       ",
"                  4 5 6 6 7 8       9 0 a 2 b c d e 2 f 0 8       g h 6 6 i j                   ",
"              k l - - - - - - m n 6 o p ~ q - - - r ; ~ p o 6 s t - - - - - - u <               ",
"          v l - w d x y 2 z A a p - - B 2 C - D E r F 2 G - - H ! q I 2 2 I J K - L M           ",
"        N O p P 2 2 Q R S ; T 2 U q V a 2 W W 2 2 W W 2 X ^ Y 2 2 Z ; ; ; ` 2 2  ...O M         ",
"        o ..+.2 @.#.- - - - - $.%.&.2 ~ 2 *.=.-.;.=.>.2 ~ 2 ,.'.).- - - - - W q 2 +.p !.        ",
"      ~.- } 2 X - - - $.X X W - - {.].~ 2 x - ^.E - /.2 (._.:.- - $.X B <.- - - % 2 [.- }.      ",
"    |.t 1.2 A - - 2.;.2 2 2 2 3.% {.- w ~ 2 w 4.4.w 2 ~ w - r 5.-.2 2 2 2 &.% - - q 2 G m       ",
"    6.- 7.2 8.- 9.2 2 2 2 2 2 2 2 0.a.- K 2 b.- - c.2 d.- w e.2 2 2 2 2 2 2 2 _.- 8.2 f.- g.    ",
"    { h.2 Q - =.i.2 2 2 2 2 2 2 2 2 +.4.- E 2 j.j.2 '.- #.~ 2 2 2 2 2 2 2 2 2 ;.- - k.2 p l.    ",
"    = W 2 ; - W 2 2 2 2 2 2 2 2 2 2 2 m.- p ~ _._.,.p {.n.2 2 2 2 2 2 2 2 2 2 2 {.- / 2 W =     ",
"    o.#.2 ; - #.2 2 2 2 2 2 2 2 2 2 2 2 X - p.Q +.q.- r.2 2 2 2 2 2 2 2 2 2 2 2 {.- / 2 8.o.    ",
"    6 - ,.` - - k.2 2 2 2 2 2 2 2 2 2 2 0.- C 2 2 d.- &.2 2 2 2 2 2 2 2 2 2 2 s.- - +.t.- u.    ",
"    v.- w.2 x.- $.~ 2 2 2 2 2 2 2 2 2 2 2 4.y.2 2 {.W 2 2 2 2 2 2 2 2 2 2 2 ~ z.- <.2 q - A.    ",
"      B.C.2 D.- - w ~ 2 2 2 2 2 2 2 2 2 2 W - E.F.- ( 2 2 2 2 2 2 2 2 2 2 G.w - - Y 2 w &       ",
"      < - P 2 '.y.- w ~ 2 2 2 2 2 2 2 2 2 f - H.I.- a 2 2 2 2 2 2 2 2 2 J.j.- - '.2 A - K.      ",
"        l {.L.2 } H - w M.} d a N.W W <.O.- - ; ; - - O.<.W W P.a '.R ~ W - h.} 2 s.{.Q.        ",
"        R.S.{.s.2 +.w - - - - - - - - - - ..<.k./.T.- - - - - - - - - - - w U.2 s.{.u _         ",
"          V.W.{.X.2 Y.f ..d.Z.'.m.z 2 2 2 2 2 2 2 2 2 2 2 e ; Y '.X w :.( ,.2 `.=.o R.          ",
"            _ Q.- C y 2 2 2 2 2 2 2 2 2 2 2 2 2 2 2 2 2 2 2 2 2 2 2 2 2 2 y w - n _             ",
"                 +- .+2 2 2 2 2 2 2 2 e.; ; ; ; ; ; ; ; ++U 2 2 2 2 2 2 2 .+- @+                ",
"                #+- p.2 $+Y %+&+W y.- - - - - - - - - - - - - <.F Z.A &.2 p.- #+                ",
"                  *+=+2 `.- - - - - - - - - - - - - - - - - - - - - - _.2 % -+                  ",
"                  & K 2 b.- r W a ].'.;+R ; ; ; ; ; ; / q.'.5.a >+p - ,+2 d.&                   ",
"                  '+C 2 )+k.2 2 2 2 2 2 2 2 2 2 2 2 2 2 2 2 2 2 2 2 I G.2 C S.                  ",
"                !+- _.2 2 Z ; ~+^.a P.>+W W W W W W W W W P.a _.;+; Z 2 2 %.- {+                ",
"                h - ]+2 E - - - - - - - - - - - - - - - - - - - - - - ^+2 b - /+                ",
"                + p 2 2 >+- - - - :.W W &+a a a a a X d.W W y.- - - - j.2 2 p +                 ",
"                , ^ 2 &.(+*.,+f.U 2 2 2 2 2 2 2 2 2 2 2 2 2 2 _+; q.r.w &.2 ^ ,                 ",
"                , :+2 2 2 2 2 2 2 2 2 2 2 2 2 2 2 2 2 2 2 2 2 2 2 2 2 2 2 2 <+&                 ",
"                ~.p ^.&.2 2 2 2 2 2 2 2 2 2 2 2 2 2 2 2 2 2 2 2 2 2 2 2 [+<+a.}+                ",
"                  { 0 - $.|+p./ 1+2 2 2 2 2 2 2 2 2 2 2 2 2 2 T ; 2+].C.- - +                   ",
"                    {+6  +3+- - - - 4+W W w B a a B C.W W z.- - - - t L 5+6+                    ",
"                            {+7+8+}+= = l & & & & & & l 9+= 0+6 a+b+                            ",
"                                                                                                ",
"                                                                                                ",
"                                                                                                ",
"                                                                                                "};
