/* XPM */
static char * WhiteRook_xpm[] = {
"48 48 80 1",
" 	c #00FF00",
".	c #FFFFFF",
"+	c #FFFFFF",
"@	c #FFFFFF",
"#	c #FFFFFF",
"$	c #FFFFFF",
"%	c #FFFFFF",
"&	c #FFFFFF",
"*	c #FFFFFF",
"=	c #CACACA",
"-	c #A3A3A3",
";	c #B7B7B7",
">	c #FFFFFF",
",	c #FFFFFF",
"'	c #E7EEE7",
")	c #FFFFFF",
"!	c #747474",
"~	c #000000",
"{	c #484848",
"]	c #FFFFFF",
"^	c #FFFFFF",
"/	c #D3D3D3",
"(	c #FFFFFF",
"_	c #3E3E3E",
":	c #868686",
"<	c #ADADAD",
"[	c #DCDCDC",
"}	c #FFFFFF",
"|	c #353535",
"1	c #FFFFFF",
"2	c #FFFFFF",
"3	c #C5C5C5",
"4	c #282828",
"5	c #585858",
"6	c #F8F8F8",
"7	c #5A5A5A",
"8	c #FFFFFF",
"9	c #FFFFFF",
"0	c #E5E5E5",
"a	c #4E4E4E",
"b	c #3B3B3B",
"c	c #FFFFFF",
"d	c #FFFFFF",
"e	c #F9F9F9",
"f	c #7E7E7E",
"g	c #FFFFFF",
"h	c #FFFFFF",
"i	c #FFFFFF",
"j	c #FFFFFF",
"k	c #FFFFFF",
"l	c #888888",
"m	c #FFFFFF",
"n	c #A8A8A8",
"o	c #070707",
"p	c #FFFFFF",
"q	c #040404",
"r	c #343434",
"s	c #CCCCCC",
"t	c #FFFFFF",
"u	c #414141",
"v	c #E9E9E9",
"w	c #FFFFFF",
"x	c #C3C3C3",
"y	c #181818",
"z	c #969696",
"A	c #8A8A8A",
"B	c #0C0C0C",
"C	c #FFFFFF",
"D	c #FFFFFF",
"E	c #FFFFFF",
"F	c #FFFFFF",
"G	c #FFFFFF",
"H	c #FFFFFF",
"I	c #FFFFFF",
"J	c #FFFFFF",
"K	c #505050",
"L	c #616161",
"M	c #FFFFFF",
"N	c #FFFFFF",
"O	c #FFFFFF",
"                                                ",
"                                                ",
"          .+@@@@#$  %&@@@@&%  *#@@@@+.          ",
"         #=-----;> ,'------', +;-----=#         ",
"         )!~~~~~{]^@/~~~~~~/@(]{~~~~~!)         ",
"         ]!~///_{]]]/~://:~/]]]{_///~!]         ",
"         ]!~]]]{_///<~-]]-~<///_{]]]~!]         ",
"         ]!~]]]{~~~~~~-]]-~~~~~~{]]]~!]         ",
"         ]!~]]];------[]][------;]]]~!]         ",
"         ]!~]]]]]]]]]]]]]]]]]]]]]]]]~!]         ",
"         ]!~////////////////////////~!]         ",
"         ]!~~~~~~~~~~~~~~~~~~~~~~~~~~!]         ",
"         }<~~|--------------------|~~<}         ",
"         1234~56]]]]]]]]]]]]]]]]67~4321         ",
"          890a~|=//////////////=b~a098          ",
"           cdef~~~~~~~~~~~~~~~~~~fedc           ",
"            $+]:~:------------:~:]+$            ",
"             g]-~/]]]]]]]]]]]]/~-]g             ",
"              h-~/]]]]]]]]]]]]/~-h              ",
"              i-~/]]]]]]]]]]]]/~-i              ",
"              i-~/]]]]]]]]]]]]/~-i              ",
"              j-~/]]]]]]]]]]]]/~-j              ",
"              j-~/]]]]]]]]]]]]/~-j              ",
"              i-~/]]]]]]]]]]]]/~-i              ",
"              i-~/]]]]]]]]]]]]/~-i              ",
"              2-~/]]]]]]]]]]]]/~-2              ",
"             $]-~/]]]]]]]]]]]]/~-]$             ",
"             k]l~:------------:~l]k             ",
"            m]no~~~~~~~~~~~~~~~~on]m            ",
"           p]nqr=//////////////sbqn]t           ",
"          c9nouv]]]]]]]]]]]]]]]]vbon9c          ",
"          wxoyz------------------ABoxC          ",
"          @-~~~~~~~~~~~~~~~~~~~~~~~~-@          ",
"          9-~<////////////////////<~-D          ",
"         E]-~/]]]]]]]]]]]]]]]]]]]]/~-]F         ",
"       GH]]-~/]]]]]]]]]]]]]]]]]]]]/~-]]IG       ",
"      J9!!!K~L!!!!!!!!!!!!!!!!!!!!L~K!!!9g      ",
"      M]~~~~~~~~~~~~~~~~~~~~~~~~~~~~~~~~]N      ",
"      m]~!]]]]]]]]]]]]]]]]]]]]]]]]]]]]!~]m      ",
"      m]~!]]]]]]]]]]]]]]]]]]]]]]]]]]]]!~]m      ",
"      m]~_!!!!!!!!!!!!!!!!!!!!!!!!!!!!_~]m      ",
"      %]~~~~~~~~~~~~~~~~~~~~~~~~~~~~~~~~],      ",
"       C]]]]]]]]]]]]]]]]]]]]]]]]]]]]]]]]w       ",
"        %mmmmmmmmmmmmmmmmmmmmmmmmmmmmmmO        ",
"                                                ",
"                                                ",
"                                                ",
"                                                "};
