/* XPM */
static char * WhiteQueen_xpm[] = {
"48 48 240 2",
"  	c #00FF00",
". 	c #FFFFFF",
"+ 	c #FFFFFF",
"@ 	c #FFFFFF",
"# 	c #FFFFFF",
"$ 	c #FFFFFF",
"% 	c #FFFFFF",
"& 	c #FFFFFF",
"* 	c #FFFFFF",
"= 	c #FFFFFF",
"- 	c #FFFFFF",
"; 	c #FFFFFF",
"> 	c #C0C0C0",
", 	c #6F6F6F",
"' 	c #C8C8C8",
") 	c #FFFFFF",
"! 	c #FFFFFF",
"~ 	c #FFFFFF",
"{ 	c #FFFFFF",
"] 	c #FFFFFF",
"^ 	c #EEEEEE",
"/ 	c #9F9F9F",
"( 	c #DADADA",
"_ 	c #FFFFFF",
": 	c #FFFFFF",
"< 	c #949494",
"[ 	c #000000",
"} 	c #FFFFFF",
"| 	c #D3D3D3",
"1 	c #A2A2A2",
"2 	c #FFFFFF",
"3 	c #FFFFFF",
"4 	c #FFFFFF",
"5 	c #CBCBCB",
"6 	c #1F1F1F",
"7 	c #FFFFFF",
"8 	c #FFFFFF",
"9 	c #1A1A1A",
"0 	c #4F4F4F",
"a 	c #F7F7F7",
"b 	c #F2F2F2",
"c 	c #444444",
"d 	c #F3F3F3",
"e 	c #FFFFFF",
"f 	c #FFFFFF",
"g 	c #A1A1A1",
"h 	c #252525",
"i 	c #D5D5D5",
"j 	c #FFFFFF",
"k 	c #FFFFFF",
"l 	c #FFFFFF",
"m 	c #FFFFFF",
"n 	c #FFFFFF",
"o 	c #3B3B3B",
"p 	c #272727",
"q 	c #BEBEBE",
"r 	c #CDCDCD",
"s 	c #4C4C4C",
"t 	c #191919",
"u 	c #FFFFFF",
"v 	c #D1D1D1",
"w 	c #9C9C9C",
"x 	c #FFFFFF",
"y 	c #E4E4E4",
"z 	c #4E4E4E",
"A 	c #262626",
"B 	c #474747",
"C 	c #FFFFFF",
"D 	c #FFFFFF",
"E 	c #FFFFFF",
"F 	c #555555",
"G 	c #2E2E2E",
"H 	c #525252",
"I 	c #FFFFFF",
"J 	c #B0B0B0",
"K 	c #595959",
"L 	c #F9F9F9",
"M 	c #545454",
"N 	c #181818",
"O 	c #6E6E6E",
"P 	c #FFFFFF",
"Q 	c #FFFFFF",
"R 	c #D7D7D7",
"S 	c #828282",
"T 	c #CFCFCF",
"U 	c #7F7F7F",
"V 	c #838383",
"W 	c #929292",
"X 	c #FFFFFF",
"Y 	c #FFFFFF",
"Z 	c #787878",
"` 	c #E0E0E0",
" .	c #393939",
"..	c #434343",
"+.	c #A9A9A9",
"@.	c #313131",
"#.	c #383838",
"$.	c #424242",
"%.	c #3A3A3A",
"&.	c #4A4A4A",
"*.	c #F5F5F5",
"=.	c #454545",
"-.	c #282828",
";.	c #959595",
">.	c #FFFFFF",
",.	c #8C8C8C",
"'.	c #8D8D8D",
").	c #DEDEDE",
"!.	c #3D3D3D",
"~.	c #FFFFFF",
"{.	c #B2B2B2",
"].	c #B4B4B4",
"^.	c #FFFFFF",
"/.	c #9A9A9A",
"(.	c #5B5B5B",
"_.	c #5D5D5D",
":.	c #565656",
"<.	c #808080",
"[.	c #1D1D1D",
"}.	c #878787",
"|.	c #0A0A0A",
"1.	c #575757",
"2.	c #666666",
"3.	c #FFFFFF",
"4.	c #FFFFFF",
"5.	c #FFFFFF",
"6.	c #ABABAB",
"7.	c #353535",
"8.	c #E2E2E2",
"9.	c #1B1B1B",
"0.	c #020202",
"a.	c #979797",
"b.	c #FFFFFF",
"c.	c #2D2D2D",
"d.	c #2C2C2C",
"e.	c #121212",
"f.	c #5F5F5F",
"g.	c #FFFFFF",
"h.	c #7D7D7D",
"i.	c #9D9D9D",
"j.	c #757575",
"k.	c #FFFFFF",
"l.	c #FFFFFF",
"m.	c #E6E6E6",
"n.	c #AEAEAE",
"o.	c #C4C4C4",
"p.	c #010101",
"q.	c #242424",
"r.	c #FFFFFF",
"s.	c #FFFFFF",
"t.	c #777777",
"u.	c #656565",
"v.	c #FBFBFB",
"w.	c #4D4D4D",
"x.	c #1C1C1C",
"y.	c #707070",
"z.	c #212121",
"A.	c #3F3F3F",
"B.	c #636363",
"C.	c #919191",
"D.	c #B9B9B9",
"E.	c #676767",
"F.	c #222222",
"G.	c #FFFFFF",
"H.	c #373737",
"I.	c #BDBDBD",
"J.	c #3C3C3C",
"K.	c #2B2B2B",
"L.	c #737373",
"M.	c #8A8A8A",
"N.	c #7C7C7C",
"O.	c #FDFDFD",
"P.	c #333333",
"Q.	c #7B7B7B",
"R.	c #0B0B0B",
"S.	c #D9D9D9",
"T.	c #A7A7A7",
"U.	c #585858",
"V.	c #B7B7B7",
"W.	c #070707",
"X.	c #606060",
"Y.	c #DCDCDC",
"Z.	c #BBBBBB",
"`.	c #646464",
" +	c #323232",
".+	c #686868",
"++	c #5E5E5E",
"@+	c #6A6A6A",
"#+	c #FFFFFF",
"$+	c #FFFFFF",
"%+	c #232323",
"&+	c #111111",
"*+	c #FFFFFF",
"=+	c #FFFFFF",
"-+	c #616161",
";+	c #484848",
">+	c #404040",
",+	c #A6A6A6",
"'+	c #CACACA",
")+	c #535353",
"!+	c #A4A4A4",
"~+	c #626262",
"{+	c #FFFFFF",
"]+	c #FFFFFF",
"^+	c #727272",
"/+	c #5C5C5C",
"(+	c #E8E8E8",
"_+	c #050505",
":+	c #FFFFFF",
"<+	c #C6C6C6",
"[+	c #FFFFFF",
"}+	c #868686",
"|+	c #6C6C6C",
"1+	c #2A2A2A",
"2+	c #FFFFFF",
"3+	c #FFFFFF",
"4+	c #171717",
"5+	c #FFFFFF",
"6+	c #292929",
"7+	c #FFFFFF",
"8+	c #FFFFFF",
"9+	c #EAEAEA",
"0+	c #C2C2C2",
"a+	c #F0F0F0",
"b+	c #363636",
"c+	c #FFFFFF",
"d+	c #FFFFFF",
"e+	c #797979",
"f+	c #FFFFFF",
"g+	c #FFFFFF",
"h+	c #B5B5B5",
"i+	c #FFFFFF",
"j+	c #FFFFFF",
"k+	c #FFFFFF",
"l+	c #FFFFFF",
"m+	c #FFFFFF",
"n+	c #FFFFFF",
"o+	c #FFFFFF",
"p+	c #FFFFFF",
"q+	c #FFFFFF",
"                                                                                                ",
"                                          . + @ # + .                                           ",
"                      $ % & * = -       ; # > , , ' # ;       ) ! ~ & % $                       ",
"                    { ] ^ / / ( @ _   : @ < [ [ [ [ / @ :   } @ | / 1 ^ ] {                     ",
"        2 3 {       4 5 6 [ [ [ / @ 7 8 ^ 9 0 a b c 9 d e f @ g [ [ [ h i 4       { 3 2         ",
"    { j k k k l m n k o p q r s t ^ ~ u v [ g k k w [ v x ~ y [ z v q A B k n C D k k k 4 {     ",
"  : E v F G H r k I k [ , k k / [ J k k ^ [ K L a M N d k k g [ > k k O [ k I @ r H G F v E P   ",
"  Q ( 9 p c p 9 R k k 9 0 k k S [ T k k k U [ [ [ [ V k k k q [ W k k s h k k R 9 p c p 9 ( X   ",
"  Y Z [ ` k y [ O k k S [  ...[ s k k k k k +.@.#.J k k k k k $.[ ..#.[ V k k O [ y k ` [ Z @   ",
"  k , [ k k k [ H k k k < %.p &.*.k k k k k k N h k k k k k k ^ =.-.%.;.k k k H [ k k k [ , k   ",
"  >.;.[ ,.v ;.[ '.k k k k k [ h a k k k k k ).[ [ y k k k k k *.9 !.k k k k k '.[ ;.v ,.[ ;.E   ",
"  ~.*.s [ [ [ s *.k k k k k [ [ {.k k k k k ].[ [ ].k k k k k g [ N k k k k k *.s [ [ [ s *.%   ",
"    ^.k ]./.(._.k k k k k k [ [ :.k k k k k <.[.[.}.k k k k k s [ |.k k k k k k 1.2./.].k 3.    ",
"      4.5.k V [ 6.k k k k k [ 7.[ ^ k k k k :.&.B _.k k k k 8.[ 9.0.k k k k k 1 [ a.k 5.b.      ",
"        $ I / [ c.*.k k k k [ ,.[ ,.k k k k d., , @.k k k k V e.f.[ k k k k d p [ J I $         ",
"          g.r [ [ h.k k k k [ g :.#.k k k ^ [ i.a.[ ^ k k k @._., [ k k k k j.[ [ v k.          ",
"          l.m.[ 9 N ( k k k [ g n.[ 5 k k q [ ' o.[ o.k k q [ ]., [ k k k ( p.q.[ a r.          ",
"          s.k [ t.9 :.k k k [ g *.9 , k k '.[ ^ ^ [ ;.k k u.A v., [ k k k w.x.y.z.k s.          ",
"          _ k A.B.C.[ D.k k [ g k E.F.*.k B.d.k k d.2.k b 9 , k , [ k k 6.[ ;.B.c k _           ",
"          G.k _.c a H.H.*.k [ g k I.[ n.k J.:.k k z J.k g [ 5 k , [ k a K.%.v.c 2.k G.          ",
"            k L.[ k ].[ M.k [ g k k K.M a [ N.k k L.[ O.B P.k k , [ k Q.[ I.k R.h.k             ",
"            ] g [ S.k H 9 y [ g k k S [ n.[ T.k k g [ J [ M.k k , [ ( N U.k 8.[ / ]             ",
"            >.I.[ V.k ( W.X.[ g ^ R Y.[ @.[ ].:.(.].[ A [ y *.k , [ M 9 ).k Z.[ ' >.            ",
"            ^.i [ ,.k k t.[ [ j.9 [ `. +[ [ %.[ [ B [ [ %..+[ %.++[ [ U k k < [ ).^.            ",
"            % k [ c ( k b p [ [ 9 @+[ [ [ [ 9 +./ [ [ [ [ [ F [ p.[ -.*.k *.w.[ k #+            ",
"            $+k  +[ [ A.c p [ %+' k y w L.+.^ k k ( h., Z ' k / &+[ @., ++z.[ %.k *+            ",
"            =+k 0 N U.J.G &.V ^ k k k k k k k k k k k k k k k k R -+[.[ [ ;+[ 0 k )             ",
"              E a.[ ;.k k k k k k k k k k k k k k k k k k k k k k k k k k / [ g Y               ",
"              % O.%.p *.k k k k k k k k k k k k k k k k k k k k k k k k *.p >+k %               ",
"              $ I > [ ;.k k k k d v v ,+/ / / / / / / / ,+v v d k k k k ;.[ '+I $               ",
"                % k )+q.!+y.c [.[ [ [ [ [ [ [ [ [ [ [ [ [ [ [ [ [...y.+.p ~+k %                 ",
"                {+]+;.[ [ [ [ z.c ++, ^+a./ / / / / / w L., B.c %+[ [ [ [ g ]+{+                ",
"                  >.q [ -+q ^ k k k k k k k k k k k k k k k k k k ^ o./+[ v >.                  ",
"                  ^.(+[ , k k k k k k k k k k k k k k k k k k k k k k , [ *.^.                  ",
"                  ^.k [ X.k k k k k k k k k k k k k k k k k k k k k k H _+k ^.                  ",
"                  :+<+[ C.k k k k k k k ` v v v v v v ` O.k k k k k k M.[ ( :+                  ",
"                [+# }+[ T q '.|+c  +[ [ [ [ [ [ [ [ [ [ [ [ 1+c E.,.I.I.[ C.# 2+                ",
"                3+k z [ [ [ [ [ e.c :., O }.g / / g }.O , _.c 4+[ [ [ [ [ :.k _                 ",
"                5+*.[ [ 6+^+J y k k k k k k k k k k k k k k k k m.].j.@.[ 9 k 7+                ",
"                8+q [ 6+J 9+k k k k k k k k k k k k k k k k k k k k ^ !+G [ 0+r.                ",
"                3+a+E.9 [ [ c.:.O w g v v v i m.m.S.v v v ]./ h.++b+[ [ &+2.y c+                ",
"                  s.d+*.Z.S H  +[ [ [ [ [ [ [ [ [ [ [ [ [ [ [ [ K.H e+].^ k !                   ",
"                    f+g+l k k k k S.v h+/ / / / / / / / J v S.k k k k u i+C                     ",
"                          j+3 ~.k+^.+ ~ ~ u l+k k l+m+~ ~ j ^.n+o+p+q+                          ",
"                                                                                                ",
"                                                                                                ",
"                                                                                                ",
"                                                                                                "};
