/* XPM */
static char * WhiteBishop_xpm[] = {
"48 48 193 2",
"  	c #00FF00",
". 	c #FFFFFF",
"+ 	c #FFFFFF",
"@ 	c #FFFFFF",
"# 	c #FFFFFF",
"$ 	c #FFFFFF",
"% 	c #C4C4C4",
"& 	c #6F6F6F",
"* 	c #FFFFFF",
"= 	c #FFFFFF",
"- 	c #FFFFFF",
"; 	c #9F9F9F",
"> 	c #000000",
", 	c #FFFFFF",
"' 	c #FFFFFF",
") 	c #F4F4F4",
"! 	c #191919",
"~ 	c #5B5B5B",
"{ 	c #F7F7F7",
"] 	c #FFFFFF",
"^ 	c #D1D1D1",
"/ 	c #FFFFFF",
"( 	c #FFFFFF",
"_ 	c #FFFFFF",
": 	c #EEEEEE",
"< 	c #5D5D5D",
"[ 	c #0A0A0A",
"} 	c #FFFFFF",
"| 	c #FFFFFF",
"1 	c #7F7F7F",
"2 	c #212121",
"3 	c #FFFFFF",
"4 	c #FFFFFF",
"5 	c #484848",
"6 	c #FFFFFF",
"7 	c #FFFFFF",
"8 	c #929292",
"9 	c #6A6A6A",
"0 	c #666666",
"a 	c #999999",
"b 	c #FFFFFF",
"c 	c #FFFFFF",
"d 	c #858585",
"e 	c #4D4D4D",
"f 	c #FBFBFB",
"g 	c #FFFFFF",
"h 	c #FFFFFF",
"i 	c #F5F5F5",
"j 	c #6C6C6C",
"k 	c #616161",
"l 	c #FDFDFD",
"m 	c #FFFFFF",
"n 	c #FFFFFF",
"o 	c #E4E4E4",
"p 	c #4B4B4B",
"q 	c #808080",
"r 	c #797979",
"s 	c #E8E8E8",
"t 	c #FFFFFF",
"u 	c #C8C8C8",
"v 	c #2E2E2E",
"w 	c #A5A5A5",
"x 	c #A1A1A1",
"y 	c #282828",
"z 	c #D3D3D3",
"A 	c #FFFFFF",
"B 	c #FFFFFF",
"C 	c #FFFFFF",
"D 	c #1C1C1C",
"E 	c #434343",
"F 	c #232323",
"G 	c #FFFFFF",
"H 	c #FFFFFF",
"I 	c #B6B6B6",
"J 	c #AFAFAF",
"K 	c #828282",
"L 	c #FFFFFF",
"M 	c #FFFFFF",
"N 	c #2F2F2F",
"O 	c #343434",
"P 	c #262626",
"Q 	c #CFCFCF",
"R 	c #393939",
"S 	c #FFFFFF",
"T 	c #FFFFFF",
"U 	c #7B7B7B",
"V 	c #787878",
"W 	c #F2F2F2",
"X 	c #FFFFFF",
"Y 	c #ECECEC",
"Z 	c #3E3E3E",
"` 	c #8C8C8C",
" .	c #8B8B8B",
"..	c #D5D5D5",
"+.	c #6E6E6E",
"@.	c #727272",
"#.	c #595959",
"$.	c #FFFFFF",
"%.	c #4F4F4F",
"&.	c #111111",
"*.	c #E2E2E2",
"=.	c #010101",
"-.	c #545454",
";.	c #FFFFFF",
">.	c #C6C6C6",
",.	c #525252",
"'.	c #FFFFFF",
").	c #FFFFFF",
"!.	c #898989",
"~.	c #121212",
"{.	c #5E5E5E",
"].	c #333333",
"^.	c #656565",
"/.	c #FFFFFF",
"(.	c #DBDBDB",
"_.	c #3C3C3C",
":.	c #1D1D1D",
"<.	c #3D3D3D",
"[.	c #B8B8B8",
"}.	c #C3C3C3",
"|.	c #BDBDBD",
"1.	c #575757",
"2.	c #292929",
"3.	c #CACACA",
"4.	c #CCCCCC",
"5.	c #242424",
"6.	c #FFFFFF",
"7.	c #FFFFFF",
"8.	c #838383",
"9.	c #515151",
"0.	c #DEDEDE",
"a.	c #4C4C4C",
"b.	c #FFFFFF",
"c.	c #3A3A3A",
"d.	c #FFFFFF",
"e.	c #FFFFFF",
"f.	c #FFFFFF",
"g.	c #FFFFFF",
"h.	c #FFFFFF",
"i.	c #C1C1C1",
"j.	c #2D2D2D",
"k.	c #505050",
"l.	c #FFFFFF",
"m.	c #FFFFFF",
"n.	c #FFFFFF",
"o.	c #535353",
"p.	c #424242",
"q.	c #1A1A1A",
"r.	c #5F5F5F",
"s.	c #FFFFFF",
"t.	c #696969",
"u.	c #A3A3A3",
"v.	c #0F0F0F",
"w.	c #676767",
"x.	c #FFFFFF",
"y.	c #FFFFFF",
"z.	c #EEF7EE",
"A.	c #3F3F3F",
"B.	c #494949",
"C.	c #181818",
"D.	c #888888",
"E.	c #FFFFFF",
"F.	c #353535",
"G.	c #ABABAB",
"H.	c #0C0C0C",
"I.	c #E0E0E0",
"J.	c #FFFFFF",
"K.	c #BFBFBF",
"L.	c #8F8F8F",
"M.	c #B1B1B1",
"N.	c #D9D9D9",
"O.	c #7E7E7E",
"P.	c #B4B4B4",
"Q.	c #949494",
"R.	c #020202",
"S.	c #303030",
"T.	c #EAEAEA",
"U.	c #9B9B9B",
"V.	c #9C9C9C",
"W.	c #FFFFFF",
"X.	c #555555",
"Y.	c #FFFFFF",
"Z.	c #FFFFFF",
"`.	c #FFFFFF",
" +	c #FFFFFF",
".+	c #FFFFFF",
"++	c #FFFFFF",
"@+	c #FFFFFF",
"#+	c #FFFFFF",
"$+	c #FFFFFF",
"%+	c #FFFFFF",
"&+	c #FFFFFF",
"*+	c #FFFFFF",
"                                                                                                ",
"                                          . + @ # + .                                           ",
"                                        $ # % & & % # *                                         ",
"                                      = - ; > > > > ; - ,                                       ",
"                                      ' ) ! ~ { { ~ ! ) '                                       ",
"                                      ] ^ > ; / / ; > ^ (                                       ",
"                                      _ : > < / / < [ : }                                       ",
"                                      | / 1 > 2 2 > 1 / 3                                       ",
"                                      4 / / 5 > > 5 / / 4                                       ",
"                                    6 7 / 8 > 9 0 > a / b                                       ",
"                                  4 c / d > e f { e > a / + 4                                   ",
"                                g h i j > 9 f / / { k > & l m |                                 ",
"                              n @ o p > q / / / / / / r > p s @ t                               ",
"                            n @ u v ! w / / / / / / / / x ! v u @ t                             ",
"                          3 @ u ! y u / / / / z z / / / / u y ! u A B                           ",
"                          C : D y o / / / / / E E / / / / / o F F : G                           ",
"                        H # 1 > I / / / / / / E E / / / / / / J > K # L                         ",
"                        M / N O / / / / ^ & & P P & & Q / / / / O R / S                         ",
"                        T s > U / / / / U > > > > > > V / / / / V > W X                         ",
"                        b ^ > ; / / / / / / Y Z E / / / / / / / ; > ^ b                         ",
"                        b ^ > ` / / / / / / / E E / / / / / / /  .> ..b                         ",
"                        X i > < / / / / / / / +.@./ / / / / / / #.> / $.                        ",
"                        . / %.&.: / / / / / / / / / / / / / / *.=.-./ ;.                        ",
"                          m >.> ~ / / / / / / / / / / / / / l ,.> >.m                           ",
"                          './ & > ~ : / / / / / / / / / / Y ,.> @./ ).                          ",
"                            G / !.~.! 0 {.E E ].].E E {.^.! ! ` / /.                            ",
"                              b / (._.> :.E E ~ ~ E E :.> <.(./ b                               ",
"                                h / y 0 / / / / / / / / k y / h                                 ",
"                                A [.> }./ / / / / / / / |.> [.A                                 ",
"                              S / 1.2.3.; q & & & & q ; 4.5.1./ S                               ",
"                              6.o > > > > > > > > > > > > > > o 6.                              ",
"                              7.8.> 9.x ^ 0./ / / / 0.^ x a.> 8.7.                              ",
"                              b.c.> > N < q ; ; ; ; q #.N > > c.#                               ",
"                d.e.f.g.. ;.h.m / i.K %.j.> > > > > > v k.8.}./ m h.l.. g.f.m.n.                ",
"          n.C - / / / / / / / / / / / i o.5.s R p.o q.r.{ / / / / / / / / / / / - C n.          ",
"        s./ 0.K %.E E c.E t.q u.^ ^ [.c.! u : > > W }.v.<.[.^ ^ u.q w.E c.E E %.K 0.x.s.        ",
"      y.z.9 > A.V ; ; ; K B.C.> > > > p Q / K [ > D./ Q p > > > > C.p K ; ; ; V A.> 9 z.6       ",
"      E.i c.F./ / / / / / / / s u G.o / / u > -.-.H.u / / I.G.u s / / / / / / / / F.R i J.      ",
"        m K.> L.M.V & K ; 3.Y / / / / : L.! q...N.2.! L.: / / / / Y 4.; K & O.P.Q.> K.m         ",
"        './ r.> R.E E S.> > > ! E E ].> > A.0./ / o <.> > ].E E ! > > > S.E E R.> ^./ '.        ",
"          b T.U.{ / / / / z P.V.+.-.E ^.I / m W.W.m / J {.E X.+.V.P.../ / / / i U.: b           ",
"            Y.b Z.} } } `. +.+++/ / / / @+f.      #+$+.+/ / / / ++.+ +`.} } } Z.b Y.            ",
"                                %+. . &+                *+. . %+                                ",
"                                                                                                ",
"                                                                                                ",
"                                                                                                ",
"                                                                                                ",
"                                                                                                "};
