/* XPM */
static char * WhiteKnight_xpm[] = {
"48 48 204 2",
"  	c #00FF00",
". 	c #FFFFFF",
"+ 	c #FFFFFF",
"@ 	c #FFFFFF",
"# 	c #FFFFFF",
"$ 	c #B4B4B4",
"% 	c #C9C9C9",
"& 	c #FFFFFF",
"* 	c #FFFFFF",
"= 	c #FFFFFF",
"- 	c #FFFFFF",
"; 	c #FFFFFF",
"> 	c #FFFFFF",
", 	c #FFFFFF",
"' 	c #FFFFFF",
") 	c #717171",
"! 	c #000000",
"~ 	c #4B4B4B",
"{ 	c #FFFFFF",
"] 	c #FFFFFF",
"^ 	c #FFFFFF",
"/ 	c #E5E5E5",
"( 	c #858585",
"_ 	c #FAFAFA",
": 	c #FFFFFF",
"< 	c #1A1A1A",
"[ 	c #5F5F5F",
"} 	c #EFEFEF",
"| 	c #FFFFFF",
"1 	c #FFFFFF",
"2 	c #323232",
"3 	c #505050",
"4 	c #FEFEFE",
"5 	c #FFFFFF",
"6 	c #8C8C8C",
"7 	c #CDCDCD",
"8 	c #707070",
"9 	c #CBCBCB",
"0 	c #454545",
"a 	c #646464",
"b 	c #848484",
"c 	c #FFFFFF",
"d 	c #FFFFFF",
"e 	c #FFFFFF",
"f 	c #FFFFFF",
"g 	c #FFFFFF",
"h 	c #AEAEAE",
"i 	c #BEBEBE",
"j 	c #C0C0C0",
"k 	c #252525",
"l 	c #B0B0B0",
"m 	c #949494",
"n 	c #DEDEDE",
"o 	c #FFFFFF",
"p 	c #FFFFFF",
"q 	c #FFFFFF",
"r 	c #868686",
"s 	c #3D3D3D",
"t 	c #2A2A2A",
"u 	c #131313",
"v 	c #555555",
"w 	c #8E8E8E",
"x 	c #E9E9E9",
"y 	c #FFFFFF",
"z 	c #FFFFFF",
"A 	c #333333",
"B 	c #444444",
"C 	c #C7C7C7",
"D 	c #414141",
"E 	c #565656",
"F 	c #535353",
"G 	c #080808",
"H 	c #686868",
"I 	c #DCDCDC",
"J 	c #FFFFFF",
"K 	c #272727",
"L 	c #6E6E6E",
"M 	c #A1A1A1",
"N 	c #7F7F7F",
"O 	c #F8F8F8",
"P 	c #9A9A9A",
"Q 	c #3C3C3C",
"R 	c #0B0B0B",
"S 	c #F6F6F6",
"T 	c #FFFFFF",
"U 	c #FFFFFF",
"V 	c #FFFFFF",
"W 	c #7A7A7A",
"X 	c #6F6F6F",
"Y 	c #ABABAB",
"Z 	c #E1E1E1",
"` 	c #3E3E3E",
" .	c #FFFFFF",
"..	c #B5B5B5",
"+.	c #1D1D1D",
"@.	c #E3E3E3",
"#.	c #EDEDED",
"$.	c #585858",
"%.	c #2D2D2D",
"&.	c #FFFFFF",
"*.	c #FFFFFF",
"=.	c #FFFFFF",
"-.	c #2B2B2B",
";.	c #E7E7E7",
">.	c #232323",
",.	c #FFFFFF",
"'.	c #FFFFFF",
").	c #BBBBBB",
"!.	c #979797",
"~.	c #D2D2D2",
"{.	c #4D4D4D",
"].	c #FFFFFF",
"^.	c #545454",
"/.	c #FFFFFF",
"(.	c #FFFFFF",
"_.	c #8F8F8F",
":.	c #FFFFFF",
"<.	c #3F3F3F",
"[.	c #222222",
"}.	c #999999",
"|.	c #2F2F2F",
"1.	c #FFFFFF",
"2.	c #FFFFFF",
"3.	c #797979",
"4.	c #6C6C6C",
"5.	c #FCFCFC",
"6.	c #3B3B3B",
"7.	c #FFFFFF",
"8.	c #5A5A5A",
"9.	c #1B1B1B",
"0.	c #363636",
"a.	c #A3A3A3",
"b.	c #FFFFFF",
"c.	c #FFFFFF",
"d.	c #FFFFFF",
"e.	c #FFFFFF",
"f.	c #FFFFFF",
"g.	c #484848",
"h.	c #5D5D5D",
"i.	c #727272",
"j.	c #FFFFFF",
"k.	c #474747",
"l.	c #FFFFFF",
"m.	c #FFFFFF",
"n.	c #777777",
"o.	c #FFFFFF",
"p.	c #FFFFFF",
"q.	c #7E7E7E",
"r.	c #262626",
"s.	c #656565",
"t.	c #515151",
"u.	c #FFFFFF",
"v.	c #828282",
"w.	c #D0D0D0",
"x.	c #9F9F9F",
"y.	c #696969",
"z.	c #A8A8A8",
"A.	c #FFFFFF",
"B.	c #FFFFFF",
"C.	c #373737",
"D.	c #747474",
"E.	c #292929",
"F.	c #666666",
"G.	c #D6D6D6",
"H.	c #B9B9B9",
"I.	c #FFFFFF",
"J.	c #FFFFFF",
"K.	c #121212",
"L.	c #C2C2C2",
"M.	c #ADADAD",
"N.	c #FFFFFF",
"O.	c #FFFFFF",
"P.	c #191919",
"Q.	c #282828",
"R.	c #2E2E2E",
"S.	c #FFFFFF",
"T.	c #5B5B5B",
"U.	c #B2B2B2",
"V.	c #626262",
"W.	c #4F4F4F",
"X.	c #FFFFFF",
"Y.	c #595959",
"Z.	c #767676",
"`.	c #A4A4A4",
" +	c #FFFFFF",
".+	c #FFFFFF",
"++	c #FFFFFF",
"@+	c #4E4E4E",
"#+	c #FFFFFF",
"$+	c #FFFFFF",
"%+	c #343434",
"&+	c #FFFFFF",
"*+	c #FFFFFF",
"=+	c #DFDFDF",
"-+	c #FFFFFF",
";+	c #FFFFFF",
">+	c #FFFFFF",
",+	c #FFFFFF",
"'+	c #FFFFFF",
")+	c #010101",
"!+	c #DADADA",
"~+	c #313131",
"{+	c #FFFFFF",
"]+	c #FFFFFF",
"                                                                                                ",
"                      . + @                                                                     ",
"                    # $ % & * =         - ; > ,                                                 ",
"                    ' ) ! ~ % & { ]   ] ^ / ( _ :                                               ",
"                    & ) ! < ! [ } | 1 ^ / 2 ! 3 4 >                                             ",
"                    5 6 ! 7 8 ! 2 9 & & 0 < a ! b & c d e f                                     ",
"                    g h ! i & j k < % l ! m & [ ! j n & & o p q                                 ",
"                    : / ! r & & / 2 < s t 4 & / ! ! ! u v w x & y e                             ",
"                    z & A B & & C D ! ! 8 & & & E ! r F G ! ! H I & > J                         ",
"                    y & E ! I l ! K L ! M & & & N ! O & } P Q ! R b S T U                       ",
"                  V & W ! ! X S Y O & Y / & & & M ! Z & & & & M K ! ` / | e                     ",
"                J  ...! H a +.& & & & & & & & & @.Y & & & & & & #.$.! %.9 &.*.                  ",
"                =.O -.K S S / & ;.& & & & & & & & & & & & & & & & & ) ! >.Z ^ ,.                ",
"                '.).! !.& & ~.{.! ..& & & & & & & & & & & & & & & & & ) ! 2 S {                 ",
"                ].M ! #.& % < ! [ O & & & & & & & & & & & & & & & & & & ^.! [ & /.              ",
"              (.& _.! / } < ! ! 8 & & & & & & & & & & & & & & & & & & & / +.! ..o (.            ",
"              :.& E >.& b ! <.[.~.& & & & & & & & W ( & & & & & & & & & & }.! |.S 1.            ",
"            2.* I ! 3.& ..4.& & & & & & & & & & & 0 0 & & & & & & & & & & 5.6.! !.| 7.          ",
"            d & 8.9.} & & & & & & & & & & & & & & 0.E & & & & & & & & & & & a.! K S b.          ",
"          c.d.h ! M & & & & & & & & & & & & & & I ! w & & & & & & & & & & & S K ! M e.f.        ",
"        J * / +.g.& & & & & & & & & & & & & & & h.u x & & & & & & & & & & & & i.! 0 & j.        ",
"        + 4 k.< n & & & & & & & & & & & & & & }.! W & & & & & & & & & & & & & C ! ! n l.        ",
"      m.& 6 ! w & & & & & & & & & & & & & O n.! ! r & & & & & & & & & & & & & & K ! 6 &.o.      ",
"      p.#.< 0 & & & & & & & & & & & & #.q.r.! {.! ) & & & & & & & & & & & & & & s.! t.& u.      ",
"    J &.v.! w.& x.% & & & & & & & } y.! ! g.Y Z ! ) & & & & & & & & & & & & & & z.! R & A.      ",
"    B.& C.6.& 6 ! D.& & & & & & % E.! F.G.& & H.! b & & & & & & & & & & & & & & G.! ! ~.I.      ",
"    J.& ! ) & K {.& & & & & & a.K.A L.& & & & y.! j & & & & & & & & & & & & & & & ! ! a.c       ",
"    u.& C.s.& {.M.& & & & & l ! {.S | N.O.& ;.P.Q.& & & & & & & & & & & & & & & & 6.! q.&       ",
"    ] & [ R.& & & & x A 4 / < {.S ^ c.J S.& T.! P & & & & & & & & & & & & & & & & 0 ! ) & 7.    ",
"      g U.! W & & & X A & V.E.} ^ ] J y & ) ! 3 & & & & & & & & & & & & & & & & & B ! W.& *.    ",
"      X.& Y.! [ M Z.! `.% ! Y &  +.+++& ) ! @+S & & & & & & & & & & & & & & & & & B ! 0 & B.    ",
"        #+S s.! ! ! 2 & @+6.& 1   p & 8 ! W.S & & & & & & & & & & & & & & & & & & B ! 0 & @     ",
"        J 1 & I ).L.< t R C $+(.N.& N ! ) & & & & & & & & & & & & & & & & & & & & B ! %+& /.    ",
"            &+*+y & } `.=+&.e -+& x.! ) & & & & & & & & & & & & & & & & & & & & & B ! ! & /.    ",
"                  (.;+> >+,+  '+I )+{.4 & & & & & & & & & & & & & & & & & & & & & B ! ! & /.    ",
"                            @ & E < / & & & & & & & & & & & & & & & & & & & & & & B ! ! & /.    ",
"                            ++!+! W & & & & & & & & & & & & & & & & & & & & & & & B ! ! & /.    ",
"                          f.& b ! @.& & & & & & & & & & & & & & & & & & & & & & & B ! ! & /.    ",
"                          q & ` E.& & & & & & & & & & & & & & & & & & & & & & & & 0 ! ! & /.    ",
"                          /.& ! 0 & & & & & & & & & & & & & & & & & & & & & & & & 0 ! ! & /.    ",
"                          :.& ! u ~+~+~+~+~+~+~+~+~+~+~+~+~+~+~+~+~+~+~+~+~+~+~+~+u ! ! & {+    ",
"                          ] & B 0 0 0 0 0 0 0 0 0 0 0 0 0 0 0 0 0 0 0 0 0 0 0 0 0 0 0 0 & ]     ",
"                            {+&.& & & & & & & & & & & & & & & & & & & & & & & & & & & &.{+      ",
"                                *.*.*.*.*.*.*.*.*.*.*.*.*.*.*.*.*.*.*.*.*.*.*.*.*.*.*.]+        ",
"                                                                                                ",
"                                                                                                ",
"                                                                                                ",
"                                                                                                "};
