<?xml version="1.0" encoding="UTF-8" standalone="no"?>
<!-- Created with Inkscape (http://www.inkscape.org/) -->

<svg
   version="1.1"
   id="svg1"
   width="2048"
   height="2048"
   viewBox="0 0 2048 2048"
   xmlns="http://www.w3.org/2000/svg"
   xmlns:svg="http://www.w3.org/2000/svg">
  <defs
     id="defs1" />
  <g
     id="g1">
    <path
       style="fill:#000000"
       d="m 7.0931784,2044.425 c -3.770853,-3.173 -5.879677,-9.7992 -6.75888302,-21.2374 l -0.643802,-8.3756 151.22557662,-151.2281 151.22558,-151.228 -9.32083,-4.3099 c -11.59986,-5.3638 -24.40925,-12.8524 -32.29632,-18.8812 -6.70445,-5.1248 -30.81196,-29.0006 -37.0245,-36.6686 -6.65078,-8.209 -16.56284,-21.8074 -18.22,-24.9962 -0.85749,-1.65 -1.90432,-3.2256 -2.32629,-3.5014 -0.88118,-0.5759 -10.97657,-21.0842 -12.46345,-25.3189 -0.97705,-2.7828 -2.25376,-1.5547 -95.740258,92.0928 L 3.809524e-7,1785.6857 v -24.0908 -24.0908 L 89.562872,1647.9371 l 89.562868,-89.567 -1.51323,-8.935 c -4.26164,-25.1635 -5.5888,-62.3906 -2.74276,-76.9351 6.5976,-33.7166 21.16176,-65.8467 48.95498,-108 3.62636,-5.5 6.95477,-10.45 7.39646,-11 0.4417,-0.55 3.06579,-4.15 5.83132,-8 2.76552,-3.85 5.57897,-7.675 6.25211,-8.5 0.67313,-0.825 2.32522,-3.075 3.6713,-5 3.62514,-5.1842 16.18659,-21.3453 17.48841,-22.5 0.6201,-0.55 1.79267,-1.9675 2.60572,-3.1501 0.81304,-1.1825 3.26739,-4.2861 5.4541,-6.8969 2.18672,-2.6107 5.55085,-6.6253 7.47585,-8.9213 1.925,-2.296 5.3,-6.346 7.5,-9 2.2,-2.654 5.575,-6.6994 7.5,-8.9897 1.925,-2.2903 5.075,-6.1284 7,-8.5293 1.925,-2.4008 4.85,-6.0329 6.5,-8.0713 1.65,-2.0384 4.8,-6.074 7,-8.968 2.2,-2.894 5.15369,-6.6595 6.56375,-8.3676 1.41006,-1.7082 3.63838,-4.6808 4.95182,-6.6058 1.31344,-1.925 2.66445,-3.725 3.00225,-4 0.86028,-0.7003 11.71566,-16.0279 16.64327,-23.5 1.45084,-2.2 2.93187,-4.225 3.29119,-4.5 0.35931,-0.275 1.74025,-2.3 3.06876,-4.5 1.3285,-2.2 2.79082,-4.45 3.24958,-5 0.45877,-0.55 2.67415,-3.925 4.92307,-7.5 2.24893,-3.575 5.09664,-8.075 6.32826,-10 8.50331,-13.2906 23.68026,-42.9358 28.1574,-55 l 2.41221,-6.5 L 199.04578,1310.5494 3.8095234e-7,1509.5989 v -24.0504 -24.0503 L 204,1257.5 c 180.65766,-180.656 204.00014,-204.3415 204.00121,-206.9991 0.002,-4.8156 2.96648,-29.0439 5.01681,-41.0009 3.44325,-20.08027 9.98944,-36.25234 21.78719,-53.82427 3.68213,-5.48429 7.77534,-11.5924 9.096,-13.57358 1.32067,-1.98118 2.70878,-3.82715 3.0847,-4.10215 0.37592,-0.275 3.10188,-4.1 6.05769,-8.5 4.822,-7.17797 10.79048,-14.96395 14.9564,-19.51086 0.825,-0.90044 3.75,-4.2991 6.5,-7.55257 7.4195,-8.77786 20.94537,-22.90595 39.67029,-41.43657 l 16.67302,-16.5 -4.93471,-13 C 515.42178,803.87349 508.7484,781.3059 498.83313,739.938 L 497.5,734.376 249,983.438 0.50000038,1232.5 l -0.269743,-21.979 -0.269743,-21.979 L 145.23055,1043.021 C 225.12907,962.98446 335.67704,852.21008 390.89271,796.85573 l 100.39211,-100.64427 -1.67175,-16.85573 c -3.42344,-34.51736 -4.15939,-70.24074 -2.01817,-97.96274 l 0.54894,-7.10701 8.17808,2.30337 c 4.49794,1.26685 9.97808,3.02184 12.17808,3.89996 l 4,1.5966 -2.5,-2.07474 c -1.375,-1.1411 -3.81806,-2.78865 -5.42902,-3.66121 -1.61097,-0.87256 -5.0421,-3.22076 -7.62475,-5.21822 -2.58265,-1.99746 -5.98958,-4.40656 -7.57097,-5.35357 -2.759,-1.65221 -7.06196,-4.61499 -17.87526,-12.30791 -5.11851,-3.64147 -15.41108,-10.82316 -22.51615,-15.71076 L 445,535.01901 V 521.76035 508.50169 L 222.5,731 3.8095232e-7,953.49831 v -21.5 -21.5 L 222.5,688 445,465.50169 v -116.5 -116.5 L 222.48652,455.00084 -0.02696062,677.5 l 0.26348,-22.12007 0.263481,-22.12007 L 316,316.87993 631.5,0.5 l 23,-0.26333116 23,-0.26333117 L 579.0019,98.486669 480.50381,197 h 116.02431 116.0243 L 810.97463,98.5 909.39683,0 h 22.17372 22.1738 L 835.87216,117.69116 718,235.38231 V 278.19116 321 h 73.88345 73.88344 L 877.38345,308.95112 889,296.90225 V 246.95112 197 h 49.77155 49.7715 L 1086.9797,98.5 1185.4164,0 h 22.5399 22.5399 L 1132,98.5 1033.5038,197 H 1098.2519 1163 v 50.74875 50.74874 L 1312.2513,149.24875 1461.5025,0 h 22.9976 22.9976 L 1347,160.5 1186.5023,321 H 1259.7512 1333 v -62 -62 h 103.7519 103.7519 L 1639,98.5 1737.4962,0 h 23 23 L 1685,98.5 1586.5038,197 H 1596.7519 1607 V 302.24908 407.49816 L 1810.7509,203.74908 2014.5018,0 h 6.1768 C 2034.1001,0 2048,3.1527624 2048,6.1970083 2048,6.8271146 1948.7798,106.67439 1827.5107,228.07985 l -220.4893,220.73718 -0.2607,43.3234 -0.2607,43.32339 -7,4.82452 c -3.85,2.65349 -9.475,6.52731 -12.5,8.60848 -3.025,2.08117 -8.9846,6.21828 -13.2436,9.19357 -4.259,2.97528 -9.209,6.39969 -11,7.6098 -1.791,1.2101 -5.5064,3.80377 -8.2564,5.7637 -8.9294,6.36405 -14.9386,10.52435 -18,12.46192 -1.65,1.04429 -5.25,3.51935 -8,5.50015 -9.055,6.52222 -14.9581,10.60516 -17.8589,12.35221 -1.5724,0.94701 -5.2507,3.52183 -8.1739,5.72183 -2.9233,2.2 -6.5868,4.77482 -8.1411,5.72183 -2.895,1.76379 -8.9742,5.97625 -17.8261,12.35221 -2.75,1.9808 -6.35,4.45586 -8,5.50015 -3.2783,2.0748 -10.1973,6.87962 -18,12.49985 -2.75,1.9808 -6.35,4.45586 -8,5.50015 -3.0261,1.91524 -8.8115,5.91857 -18,12.45555 -5.5464,3.94588 -15.1383,10.6237 -25.0941,17.47026 -3.599,2.475 -8.3158,5.74262 -10.4818,7.26137 l -3.9382,2.76137 0.2571,67.16872 0.257,67.16873 4.6087,2.70767 c 2.5348,1.48922 5.6587,3.04094 6.9421,3.44826 1.2834,0.40733 5.1799,2.48283 8.6589,4.61224 3.479,2.1294 6.6835,3.87164 7.121,3.87164 0.4376,0 3.6922,1.71983 7.2324,3.82185 3.5403,2.10202 9.078,5.28612 12.306,7.07577 l 5.8691,3.25393 304.8809,-304.7985 L 2048,242.55456 v 22.5068 22.5068 l -291.1879,291.13739 -291.188,291.13738 4.7582,2.82854 c 2.617,1.55569 6.8736,4.44507 9.459,6.42083 2.5855,1.97577 5.8164,4.17908 7.1798,4.89625 1.3634,0.71717 4.5664,3.03814 7.1177,5.1577 2.5513,2.11956 4.9778,3.85375 5.3922,3.85375 0.4143,0 3.1237,2.025 6.0207,4.5 2.897,2.475 5.5527,4.5 5.9016,4.5 0.3489,0 3.4271,2.26808 6.8405,5.04018 23.7998,19.32832 23.0972,18.72844 41.7062,35.60777 7.975,7.23373 18.55,17.2439 23.5,22.24481 l 9,9.09258 L 1820.25,746.24349 2048,518.50164 v 22.5535 22.5535 l -217.0625,216.98217 -217.0626,216.98216 2.3126,2.52513 c 1.2719,1.3888 4.9412,5.6474 8.154,9.4635 3.2128,3.8161 6.8009,8.0634 7.9734,9.4384 2.9303,3.4363 9.8046,11.9468 12.2048,15.1096 2.6709,3.5197 14.1623,18.777 16.4872,21.8904 1.6043,2.1483 7.784,10.6338 13.7605,18.8948 0.9529,1.3172 2.4076,3.4171 3.2326,4.6664 0.825,1.2494 5.9554,8.9468 11.4009,17.1052 9.998,14.9791 14.5242,21.9386 18.4267,28.3336 1.1748,1.925 2.5842,4.175 3.1321,5 0.797,1.2 34.6009,-32.1 169.0183,-166.49888 L 2048,795.50223 v 22.54232 22.54231 l -159.6105,159.54644 -159.6106,159.5464 4.6422,8.1812 c 8.0099,14.1163 33.5789,63.9795 33.5789,65.4836 0,0.2356 2.0577,4.867 4.5726,10.292 5.838,12.5933 6.391,13.8503 11.3769,25.8635 2.2827,5.5 4.5577,10.9 5.0556,12 1.8746,4.1416 4.3178,10.3924 8.9898,23 2.6496,7.15 5.1504,13.8335 5.5575,14.8522 0.6078,1.5214 22.6007,-20.0078 123.0938,-120.4984 L 2048,1076.5031 v 23.6223 23.6223 l -116.4033,116.22 -116.4032,116.2201 0.9714,3.1561 c 15.9965,51.9719 28.9726,107.9795 37.7989,163.1481 l 3.6785,22.992 95.1788,-94.9055 95.1789,-94.9056 v 22.9116 22.9115 l -92.6431,92.6471 -92.6431,92.6471 2.1584,24.3549 c 3.7903,42.7679 10.0871,149.5311 10.1212,171.6049 l 0.01,4.25 h -57 -57 l -0.01,-82.75 c -0.01,-81.7789 -0.6418,-106.5313 -3.5361,-137.75 -6.938,-74.8341 -21.5538,-140.8698 -50.0212,-226 -8.004,-23.9358 -22.4117,-63.2254 -26.4026,-72 -0.5003,-1.1 -4.0359,-9.425 -7.8568,-18.5 -12.5012,-29.691 -24.6261,-54.3146 -42.3473,-86 -14.2387,-25.4587 -16.3662,-29.1469 -17.6478,-30.5939 -0.5329,-0.6016 -1.7297,-2.5652 -2.6597,-4.3636 -0.93,-1.7983 -3.6907,-6.1908 -6.1351,-9.7611 -2.4443,-3.5703 -5.0958,-7.7516 -5.8922,-9.2917 -0.7965,-1.5401 -2.0379,-3.4054 -2.7588,-4.145 -0.7209,-0.7396 -2.4021,-3.1447 -3.7359,-5.3447 -1.3338,-2.2 -3.0074,-4.5976 -3.7191,-5.328 -0.7117,-0.7304 -1.7871,-2.2492 -2.3897,-3.3752 -1.0177,-1.9016 -6.1789,-9.032 -9.4273,-13.0242 -0.7731,-0.95 -2.6035,-3.5375 -4.0676,-5.75 -1.4641,-2.2124 -2.9398,-4.0234 -3.2792,-4.0244 -0.3394,-10e-4 -1.8959,-2.026 -3.4589,-4.5 -1.563,-2.474 -3.1535,-4.4982 -3.5344,-4.4982 -0.3809,0 -1.5268,-1.4122 -2.5463,-3.1381 -1.0196,-1.726 -2.5852,-3.8696 -3.4791,-4.7635 -0.894,-0.894 -2.7236,-3.1943 -4.0659,-5.1119 -1.3423,-1.9176 -3.4378,-4.6115 -4.6566,-5.9865 -1.2189,-1.375 -4.0946,-4.75 -6.3906,-7.5 -13.0183,-15.593 -38.5833,-41.7804 -53.0956,-54.38835 C 1475.55,968.39141 1469.9469,963.65577 1466.4603,961 c -1.8052,-1.375 -6.751,-5.2 -10.9906,-8.5 -4.2397,-3.3 -9.9069,-7.575 -12.5938,-9.5 -12.6808,-9.08484 -22.1747,-15.63416 -24.6543,-17.00749 -1.4969,-0.82912 -5.3825,-3.41662 -8.6345,-5.75 -3.252,-2.33338 -6.3596,-4.24251 -6.9056,-4.24251 -0.5461,0 -2.5511,-1.18855 -4.4556,-2.64122 -1.9046,-1.45268 -6.6721,-4.44299 -10.5944,-6.64515 -28.7258,-16.12769 -34.1062,-19.01219 -52.6316,-28.21622 -17.5435,-8.71617 -35.5934,-17.06585 -39,-18.04088 -1.375,-0.39355 -4.75,-1.84711 -7.5,-3.23014 -2.75,-1.38302 -7.925,-3.53244 -11.5,-4.77648 -3.575,-1.24404 -9.875,-3.6207 -14,-5.28147 -15.5547,-6.26249 -51.5448,-18.0739 -68.5,-22.48069 -35.3743,-9.19406 -63.2917,-15.41304 -75.3311,-16.78106 -4.7316,-0.53764 -9.6954,-1.25172 -11.0307,-1.58684 -2.1711,-0.54492 -2.3633,-0.35272 -1.8184,1.81838 1.9658,7.83212 2.6269,22.84858 2.0853,47.36177 -0.3282,14.85 -0.2045,28.75872 0.2748,30.90827 0.9749,4.37192 0.8041,4.28273 18.3201,9.56936 14.4649,4.36577 54.8083,18.73261 66,23.50354 3.575,1.52399 8.75,3.56419 11.5,4.53377 5.5807,1.96762 17.6726,7.10828 30.5,12.96651 4.675,2.13505 13.675,6.19699 20,9.02653 6.325,2.82953 12.175,5.49183 13,5.91622 0.825,0.42439 4.875,2.4395 9,4.47802 8.1323,4.01889 9.0841,4.51025 22.5,11.6157 26.4595,14.01373 47.4648,27.1429 64.767,40.48208 2.8536,2.2 6.1641,4.675 7.3567,5.5 11.0596,7.6506 34.5071,30.2509 43.9036,42.3174 1.635,2.0995 4.3227,5.5262 5.9727,7.6147 4.23,5.3544 19.7581,26.0687 21.7902,29.0679 9.5192,14.0494 22.746,34.1038 24.0735,36.5 0.9141,1.65 3.4991,5.925 5.7444,9.5 2.2453,3.575 9.337,15.95 15.7593,27.5 33.6292,60.4789 57.9727,118.8219 84.4927,202.5 21.0315,66.3601 33.7417,128.7046 40.0607,196.5 2.5544,27.4056 3.5735,62.2156 4.2081,143.7308 l 0.6128,78.7309 21.3818,0.2691 21.3817,0.2692 -129.272,129.268 -129.272,129.2679 -24.4806,-0.2679 -24.4806,-0.268 130.2505,-129.5 130.2505,-129.5 -114.7448,-0.2542 -114.7448,-0.2543 -130.0072,130.0043 L 1124.4971,2047 h -23.6158 -23.6158 l 130.1173,-129.9816 130.1172,-129.9817 -119.0014,-0.018 -119.0015,-0.018 -129.99715,130 -129.99707,130 H 816.94851 794.39414 L 924.44705,1917.0091 1054.5,1787.0175 l -115.50145,-0.01 -115.50143,-0.01 -129.99712,130 -129.99712,130 h -22.59165 -22.59165 l 129.88572,-129.75 129.88571,-129.75 -21.0455,-0.2699 C 745.47048,1787.0792 736,1786.6056 736,1786.1752 c 0,-2.29 34.53564,-37.1263 57,-57.4962 8.525,-7.7302 15.63919,-14.3884 15.80931,-14.7961 0.17011,-0.4077 7.90593,-7.5561 17.19069,-15.8854 9.28476,-8.3293 17.02058,-15.481 17.19069,-15.8926 0.17012,-0.4117 5.70931,-5.599 12.30931,-11.5274 6.6,-5.9283 13.5256,-12.3713 15.39023,-14.3177 1.86462,-1.9464 8.38962,-8.0129 14.5,-13.481 6.11037,-5.4682 12.45977,-11.4022 14.10977,-13.1868 1.65,-1.7846 8.175,-7.9176 14.5,-13.6289 19.05355,-17.2048 33.37275,-32.0825 42.79615,-44.4656 2.9298,-3.85 5.8696,-7.675 6.533,-8.5 11.5675,-14.3864 28.7534,-47.0957 38.35505,-73 14.1318,-38.1263 19.301,-66.0875 18.473,-99.9243 l -0.1572,-6.4243 -2.25,2.0493 c -1.2375,1.1272 -3.375,2.6291 -4.75,3.3376 -1.375,0.7086 -4.7909,3.0148 -7.5909,5.125 -2.7999,2.1102 -5.45335,3.8367 -5.89645,3.8367 -0.4431,0 -3.1022,1.5198 -5.9091,3.3774 -4.4399,2.9382 -12.7605,7.5982 -23.1036,12.9393 -6.5369,3.3756 -21.2711,9.9904 -26,11.6725 -2.75,0.9782 -9.95,3.4869 -16,5.5749 -6.05,2.088 -15.49995,5.4925 -20.99995,7.5656 -5.5,2.0732 -12.025,4.2867 -14.5,4.9191 -4.19157,1.0709 -25.1335,21.7735 -305.54224,302.0505 L 286.41553,2047 h -22.52669 -22.52669 l 143.29436,-143.1912 c 78.8119,-78.7552 143.14645,-143.3392 142.96567,-143.5199 -0.18078,-0.1808 -4.10722,0.5965 -8.72543,1.7273 -10.80832,2.6465 -31.04581,3.6808 -40.42565,2.0661 -11.25255,-1.9371 -22.88831,-5.8813 -31.01559,-10.5135 -8.03501,-4.5795 -24.2308,-18.8519 -27.62622,-24.3453 -1.11386,-1.8021 -2.56046,-3.8271 -3.21467,-4.5 -0.65421,-0.6729 -2.23885,-2.9385 -3.52142,-5.0347 -1.51497,-2.476 -2.84317,-3.615 -3.79118,-3.2512 -3.34271,1.2827 -17.41916,4.5787 -25.80202,6.0416 -4.95,0.8638 -18.08039,1.8548 -29.17864,2.2022 l -20.17864,0.6317 -160.77749,160.8435 C 84.937612,1974.6205 12.040032,2047 11.3706,2047 c -0.669432,0 -2.5942716,-1.1588 -4.2774216,-2.575 z M 694.98831,1593.5117 c 107.6018,-107.6052 109.35613,-109.4216 101.99829,-105.6078 -19.5213,10.1184 -52.7302,31.0287 -66.45817,41.8461 -2.96645,2.3375 -5.65357,4.25 -5.97139,4.25 -1.00491,0 -13.30186,10.0748 -27.42168,22.4665 -14.71199,12.9113 -32.99252,30.6982 -40.63064,39.5335 -2.61511,3.025 -5.92834,6.85 -7.36272,8.5 -14.60134,16.7962 -25.6667,33.1459 -49.06742,72.5 -1.14464,1.925 -3.61793,6.081 -5.49619,9.2355 -5.82425,9.7818 -9.73955,16.7645 -9.40007,16.7645 0.17881,0 49.59331,-49.2697 109.80999,-109.4883 z m -220.35733,78.1791 c 4.97768,-2.574 13.8088,-11.8661 16.338,-17.1908 1.30624,-2.75 4.56007,-8.9088 7.23072,-13.6862 4.1613,-7.4439 7.12557,-13.7451 14.26058,-30.3138 0.71055,-1.65 2.7794,-7.2189 4.59746,-12.3753 3.1364,-8.8954 3.2501,-9.6991 2.22171,-15.7028 -2.1643,-12.6351 -10.82964,-20.0542 -24.72564,-21.1696 -5.72808,-0.4598 -7.15114,-0.1885 -12.07288,2.3016 -10.29065,5.2066 -22.63068,20.167 -34.53669,41.8704 -5.53287,10.0858 -7.01118,11.9235 -17.25069,21.4442 -12.25947,11.3989 -13.71791,22.1606 -4.32786,31.935 4.33014,4.5074 19.43117,12.9413 25.63431,14.3167 5.42207,1.2023 19.22823,0.3303 22.63098,-1.4294 z M 346.5,1568.5108 c 12.27895,-4.8293 17.90243,-12.3162 19.42089,-25.8563 0.94579,-8.4337 4.81789,-17.813 10.33864,-25.0434 6.8458,-8.9656 14.46049,-14.7257 32.19825,-24.3559 2.87252,-1.5595 9.18616,-9.1885 10.53044,-12.7242 4.54934,-11.9657 -4.26411,-27.3626 -20.32407,-35.5057 l -8.42939,-4.2741 -9.4833,0.4147 c -8.74187,0.3824 -10.17789,0.754 -18.36738,4.753 -20.18508,9.8566 -41.1532,27.8297 -52.60415,45.0905 -6.21746,9.3719 -11.55021,21.0815 -14.1395,31.0471 -6.50562,25.0388 -3.68121,38.3605 9.54896,45.0391 8.29265,4.1861 11.95559,4.8787 23.81061,4.502 8.57671,-0.2726 11.7822,-0.838 17.5,-3.0868 z m 715.72,-229.5142 c 11.3316,-3.2716 45.4939,-49.9344 61.4948,-83.9966 2.1961,-4.675 4.3387,-9.625 4.7614,-11 0.4227,-1.375 1.1115,-2.95 1.5307,-3.5 0.4191,-0.55 2.824,-7.3 5.3441,-15 8.1898,-25.0238 12.1997,-47.4317 13.3316,-74.5 0.4984,-11.919 0.3077,-15.5266 -1.0712,-20.2677 -4.841,-16.6442 -19.0729,-24.6524 -41.6114,-23.4146 -17.8621,0.981 -28.2975,5.6574 -31.5336,14.1311 -1.5624,4.0911 -1.6379,5.6239 -0.6325,12.8482 1.7653,12.6852 1.9657,19.053 1.0801,34.3126 -0.9011,15.5262 -3.6434,30.8916 -7.5531,42.3201 -4.8776,14.2583 -17.0197,37.6286 -28.3522,54.5703 -7.5831,11.3366 -9.6464,13.9039 -19.6589,24.4609 -8.5362,9.0006 -10.5969,13.2578 -10.6915,22.0879 -0.074,6.9431 1.6655,11.1099 6.5293,15.6382 4.0594,3.7793 18.0744,10.6959 24.2958,11.9903 6.4943,1.3511 16.764,1.0436 22.7366,-0.6807 z M 536.5,1162.952 c 9.54206,-4.7809 10.21806,-5.5156 17.03041,-18.5092 6.44876,-12.3001 11.43846,-20.4428 12.52697,-20.4428 0.50192,0 3.07896,1.333 5.72677,2.9622 11.45784,7.0501 39.00745,10.0738 55.71585,6.1151 17.76557,-4.2091 28.87029,-15.2298 35.34482,-35.0773 5.45537,-16.7233 4.68516,-30.217 -2.50196,-43.8331 -1.83857,-3.4831 -3.34286,-6.4337 -3.34286,-6.5568 0,-0.123 3.2625,-1.722 7.25,-3.5532 26.58374,-12.2081 27.54636,-12.781 31.51118,-18.7524 3.54597,-5.3406 3.73882,-6.0482 3.73882,-13.7178 0,-7.0665 -0.41615,-8.9698 -3.29859,-15.0867 -4.15063,-8.80811 -10.39534,-14.88617 -17.44536,-16.97981 -6.24474,-1.85448 -18.11077,-1.91034 -26.43223,-0.12442 -7.08095,1.51968 -24.11884,8.00806 -35.82382,13.64245 -4.4,2.11801 -9.24787,4.31868 -10.77304,4.89036 -1.52517,0.57169 -5.12517,2.53652 -8,4.36622 -2.87483,1.8297 -6.01964,3.6248 -6.98846,3.989 -2.32947,0.8758 -17.68265,10.9842 -25.2385,16.6168 -12.17907,9.0791 -28.69836,24.5137 -38.18335,35.6762 -8.48805,9.9892 -10.10399,12.0788 -15.02062,19.4232 -8.96711,13.3949 -12.50828,19.3292 -17.53957,29.3928 C 488.05031,1120.8063 487,1124.1384 487,1132 c 0,8.2468 1.83401,13.7405 6.4799,19.4102 8.86926,10.8237 32.04382,17.0412 43.0201,11.5418 z m 207,-249.80777 c 9.35,-4.56207 19.475,-9.57815 22.5,-11.14684 12.85372,-6.66565 31.09993,-13.84036 40.66621,-15.99065 5.59141,-1.25682 10.64852,-2.58322 11.23801,-2.94755 0.76137,-0.47055 0.75011,-3.25414 -0.0389,-9.6108 -1.35931,-10.95121 -0.53621,-38.25116 1.54994,-51.40748 0.82494,-5.2025 1.38521,-9.57378 1.24504,-9.71395 -0.77277,-0.77276 -25.00595,5.48685 -36.1603,9.34048 -13.72695,4.74241 -33.77976,13.59684 -41.76502,18.44157 -2.62077,1.59005 -5.10139,2.89099 -5.5125,2.89099 -0.71487,0 -8.83244,5.21912 -21.72248,13.96628 -3.3,2.23937 -9.59056,6.44143 -13.97902,9.33791 -10.85084,7.16179 -14.04378,12.22114 -13.96415,22.12677 0.0487,6.06225 0.5459,7.99478 3.49081,13.56904 3.74207,7.08315 11.02051,14.8986 16.79137,18.03024 2.91471,1.58172 5.18983,1.92778 11.16099,1.69768 7.11296,-0.2741 8.3773,-0.71707 24.5,-8.58369 z M 856.9487,702.36238 c 2.46109,-4.17125 11.99203,-17.14375 16.50058,-22.45885 7.29815,-8.60375 13.39454,-15.47512 18.05072,-20.34538 5.85798,-6.1273 26.13669,-24.39088 33.13845,-29.84542 10.873,-8.47034 17.0535,-12.95773 20.6115,-14.96522 2.0625,-1.16369 3.75,-2.48293 3.75,-2.93165 C 948.99995,611.36714 887.8,611 813,611 c -87.12561,0 -136,0.34833 -136,0.96927 0,0.5331 2.3625,2.54287 5.25,4.46615 2.8875,1.92328 8.4,5.75633 12.25,8.51789 3.85,2.76155 8.8,6.25092 11,7.75416 2.2,1.50323 6.48374,4.54651 9.51942,6.76284 3.03568,2.21633 6.24015,4.47969 7.12104,5.02969 0.8809,0.55 4.35966,3.00109 7.73058,5.44686 L 736,654.39372 v 22.70614 22.70615 l 3.75,3.06346 3.75,3.06347 55.65122,0.0335 L 854.80245,706 Z M 1316,680.19686 v -25.80314 l 6.129,-4.44686 c 3.3709,-2.44577 6.8496,-4.89686 7.7305,-5.44686 0.8809,-0.55 4.0854,-2.81336 7.1211,-5.02969 3.0357,-2.21633 7.3194,-5.25961 9.5194,-6.76284 2.2,-1.50324 7.15,-4.99261 11,-7.75416 3.85,-2.76156 9.3625,-6.59461 12.25,-8.51789 2.8875,-1.92328 5.25,-3.93305 5.25,-4.46615 C 1375,611.34666 1300.0722,611 1165.5,611 c -141.0231,0 -209.50005,0.33166 -209.50005,1.0147 0,0.55808 1.4625,1.8686 3.25,2.91225 4.1567,2.42692 17.227,11.84444 25.7771,18.57305 12.0823,9.50835 19.03855,15.70501 30.58705,27.24703 12.1832,12.17643 17.0942,17.53111 26.0527,28.40622 2.1083,2.5593 5.0997,6.1593 6.6477,8 1.548,1.84071 3.5575,4.58425 4.4656,6.09675 l 1.6511,2.75 H 1185.2156 1316 Z M 1470.4347,547.5 c 2.3492,-1.925 4.6469,-3.5 5.1061,-3.5 0.4591,0 3.4122,-2.025 6.5625,-4.5 3.1503,-2.475 6.0107,-4.5 6.3565,-4.5 0.3458,0 3.5281,-2.1375 7.0718,-4.75 3.5436,-2.6125 9.407,-6.775 13.0296,-9.25 7.267,-4.9648 17.6306,-12.24347 24.1888,-16.98844 l 4.25,-3.07494 V 479.96831 459 H 1025.5 514 v 20.91597 20.91597 l 3.75,2.93934 c 2.0625,1.61663 4.875,3.52793 6.25,4.24732 1.375,0.71939 4.79089,3.03451 7.59087,5.14469 2.79998,2.11019 5.42166,3.83671 5.82596,3.83671 0.40429,0 3.36672,2.025 6.58317,4.5 3.21645,2.475 6.21977,4.51001 6.67404,4.52224 0.45428,0.0122 1.95096,0.93054 3.32596,2.0407 2.97573,2.40256 17.84347,12.63093 22.33379,15.36469 1.74141,1.06019 4.74121,3.1826 6.66621,4.71647 l 3.5,2.78884 439.8317,0.0335 439.8317,0.0335 z m 266.0265,1393.7543 c 58.3214,-58.1601 152.2829,-151.8726 208.8035,-208.25 l 102.7646,-102.5043 -0.2646,23.5 -0.2647,23.5 -185.0142,184.75 -185.0141,184.75 h -23.5246 -23.5247 z m 205.9796,69.9957 c 19.832,-19.6625 51.696,-51.2664 70.8087,-70.2308 L 2048,1906.5383 v 22.6743 22.6742 l -49.4255,47.5566 L 1949.149,2047 h -21.3833 -21.3832 z M 3.8095232e-7,377.98158 V 355.49789 L 177.77041,177.72958 355.54083,-0.03872446 378.02041,0.23063777 400.5,0.5 200.25,200.48264 3.8095232e-7,400.46527 Z M 0.00360038,101.99698 0.00710338,79.5 39.745322,39.731844 79.483552,-0.03631108 101.74588,0.23184446 124.00821,0.5 62.004102,62.496976 3.8095232e-7,124.49395 Z"
       id="path1" />
  </g>
</svg>
