<?xml version="1.0" encoding="UTF-8" standalone="no"?>
<!-- Created with Inkscape (http://www.inkscape.org/) -->

<svg
   version="1.1"
   id="svg1"
   width="2048"
   height="2048"
   viewBox="0 0 2048 2048"
   xmlns="http://www.w3.org/2000/svg"
   xmlns:svg="http://www.w3.org/2000/svg">
  <defs
     id="defs1" />
  <g
     id="g1">
    <path
       style="fill:#000000"
       d="m 7.0931767,2044.425 c -3.77085,-3.173 -5.87967,-9.7992 -6.75888003,-21.2374 l -0.6438,-8.3756 151.22557333,-151.2281 151.22558,-151.228 -9.32083,-4.3099 c -11.59986,-5.3638 -24.40925,-12.8524 -32.29632,-18.8812 -6.70445,-5.1248 -30.81196,-29.0006 -37.0245,-36.6686 -6.65078,-8.209 -16.56284,-21.8074 -18.22,-24.9962 -0.85749,-1.65 -1.90432,-3.2256 -2.32629,-3.5014 -0.88118,-0.5759 -10.97657,-21.0842 -12.46345,-25.3189 -0.97705,-2.7828 -2.25376,-1.5547 -95.740263,92.0928 L -3.3333332e-6,1785.6857 v -24.0908 -24.0908 L 89.562867,1647.9371 l 89.562873,-89.567 -1.51323,-8.935 c -4.26164,-25.1635 -5.5888,-62.3906 -2.74276,-76.9351 6.5976,-33.7166 21.16176,-65.8467 48.95498,-108 3.62636,-5.5 6.95477,-10.45 7.39646,-11 0.4417,-0.55 3.06579,-4.15 5.83132,-8 2.76552,-3.85 5.57897,-7.675 6.25211,-8.5 0.67313,-0.825 2.32522,-3.075 3.6713,-5 3.62514,-5.1842 16.18659,-21.3453 17.48841,-22.5 0.6201,-0.55 1.79267,-1.9675 2.60572,-3.1501 0.81304,-1.1825 3.26739,-4.2861 5.4541,-6.8969 2.18672,-2.6107 5.55085,-6.6253 7.47585,-8.9213 1.925,-2.296 5.3,-6.346 7.5,-9 2.2,-2.654 5.575,-6.6994 7.5,-8.9897 1.925,-2.2903 5.075,-6.1284 7,-8.5293 1.925,-2.4008 4.85,-6.0329 6.5,-8.0713 1.65,-2.0384 4.8,-6.074 7,-8.968 2.2,-2.894 5.15369,-6.6595 6.56375,-8.3676 1.41006,-1.7082 3.63838,-4.6808 4.95182,-6.6058 1.31344,-1.925 2.66445,-3.725 3.00225,-4 0.86028,-0.7003 11.71566,-16.0279 16.64327,-23.5 1.45084,-2.2 2.93187,-4.225 3.29119,-4.5 0.35931,-0.275 1.74025,-2.3 3.06876,-4.5 1.3285,-2.2 2.79082,-4.45 3.24958,-5 0.45877,-0.55 2.67415,-3.925 4.92307,-7.5 2.24893,-3.575 5.09664,-8.075 6.32826,-10 8.50331,-13.2906 23.68026,-42.9358 28.1574,-55 l 2.41221,-6.5 L 199.04578,1310.5494 -3.3333334e-6,1509.5989 v -24.0504 -24.0503 L 204,1257.5 c 180.65766,-180.656 204.00014,-204.3415 204.00121,-206.9991 0.002,-4.8156 2.96648,-29.0439 5.01681,-41.0009 3.44325,-20.08027 9.98944,-36.25234 21.78719,-53.82427 3.68213,-5.48429 7.77534,-11.5924 9.096,-13.57358 1.32067,-1.98118 2.70878,-3.82715 3.0847,-4.10215 0.37592,-0.275 3.10188,-4.1 6.05769,-8.5 4.822,-7.17797 10.79048,-14.96395 14.9564,-19.51086 0.825,-0.90044 3.75,-4.2991 6.5,-7.55257 7.4195,-8.77786 20.94537,-22.90595 39.67029,-41.43657 l 16.67302,-16.5 -4.93471,-13 C 515.42178,803.87349 508.7484,781.3059 498.83313,739.938 L 497.5,734.376 249,983.438 0.49999667,1232.5 l -0.26974,-21.979 -0.26974,-21.979 L 145.23055,1043.021 C 225.12907,962.98446 335.67704,852.21008 390.89271,796.85573 l 100.39211,-100.64427 -1.67171,-16.85573 c -3.39007,-34.18191 -4.24416,-84.15993 -1.72475,-100.92609 l 0.61164,-4.07036 9,2.72443 c 10.39425,3.14649 31.70495,10.65472 39,13.74056 2.75,1.16327 7.925,3.20902 11.5,4.54613 3.575,1.33711 11.45,4.54894 17.5,7.1374 6.05,2.58846 11.675,4.77062 12.5,4.84925 0.825,0.0786 71.97509,-70.50705 158.11132,-156.85705 l 156.61135,-157 2.2192,-7.5 c 2.0103,-6.79359 9.5088,-23.19071 12.0099,-26.26208 0.5545,-0.68086 3.3258,-4.38792 6.1585,-8.23792 6.5853,-8.95025 20.2734,-22.19627 29.8897,-28.92452 8.16,-5.70923 28.0972,-15.80752 34.5,-17.47444 3.4873,-0.90787 17.0703,-14.1206 105.95963,-103.0712 L 1185.4192,0 h 22.5385 22.5385 l -98.4106,98.414364 -98.4105,98.414366 4.9124,0.62111 c 11.5983,1.46645 22.624,3.70255 29.789,6.04143 4.2269,1.3798 8.221,2.50873 8.8757,2.50873 2.2098,0 23.1964,11.09613 29.9137,15.81611 8.7562,6.15262 23.2704,19.3064 28.7796,26.08208 12.2863,15.11062 21.3975,33.86935 23.607,48.60343 l 0.7099,4.73355 150.62,-150.61759 L 1461.5025,0 h 22.9977 22.9977 l -174.1968,174.25 -174.1967,174.25 -2.9109,9.13923 c -2.6633,8.3621 -10.5243,24.44762 -13.473,27.56887 -0.6713,0.71055 -2.549,3.0919 -4.1728,5.2919 -6.5074,8.81679 -24.9271,24.58338 -35.8376,30.67574 -0.6655,0.37166 -4.2958,2.33312 -8.0671,4.3588 l -6.8571,3.68306 23.5513,23.36208 c 22.8727,22.68885 45.2936,43.3125 65.3662,60.12649 18.6602,15.63081 22.8062,18.97765 24.8613,20.06921 1.8805,0.99883 25.8737,-22.71254 268.9993,-265.83937 L 1737.4986,0 h 23 23 L 1506.4993,277.04662 1229.5,554.09324 l 2.6932,2.20338 c 1.4813,1.21186 5.4948,4.22838 8.919,6.70338 3.4242,2.475 9.0584,6.6375 12.5205,9.25 3.4621,2.6125 6.5665,4.75 6.8985,4.75 0.332,0 2.9941,1.9125 5.9157,4.25 2.9216,2.3375 6.6037,5.02556 8.1825,5.97348 1.5788,0.94791 6.6956,4.44727 11.3706,7.77636 12.3591,8.80096 21.6645,15.21824 25.3763,17.50016 1.7892,1.1 5.5343,3.6875 8.3224,5.75 2.7881,2.0625 5.3806,3.75 5.7612,3.75 0.3806,0 3.2453,1.95606 6.3661,4.34679 3.1207,2.39074 6.1466,4.52824 6.7242,4.75 1.4048,0.53933 11.067,8.15029 18.6762,14.71133 l 6.1562,5.30813 L 1688.9419,325.55812 2014.5011,0 h 6.1771 C 2033.9225,0 2048,3.1506773 2048,6.1148861 2048,6.6998253 1898.8683,156.63252 1716.5962,339.29864 l -331.4039,332.12024 7.209,8.04056 c 3.965,4.42231 9.3468,10.96556 11.9596,14.54056 2.6128,3.575 5.3085,7.1852 5.9904,8.02266 2.3233,2.85331 12.0607,19.43357 15.249,25.965 14.1535,28.99463 27.398,70.41325 31.9454,99.90047 l 0.6768,4.38813 L 1753.1112,537.38877 2048,242.50127 v 22.53345 22.53344 l -291.1879,291.13739 -291.188,291.13738 4.7582,2.82854 c 2.617,1.55569 6.8736,4.44507 9.459,6.42083 2.5855,1.97577 5.8164,4.17908 7.1798,4.89625 1.3634,0.71717 4.5664,3.03814 7.1177,5.1577 2.5513,2.11956 4.9778,3.85375 5.3922,3.85375 0.4143,0 3.1237,2.025 6.0207,4.5 2.897,2.475 5.5527,4.5 5.9016,4.5 0.3489,0 3.4271,2.26808 6.8405,5.04018 23.7998,19.32832 23.0972,18.72844 41.7062,35.60777 7.975,7.23373 18.55,17.2439 23.5,22.24481 l 9,9.09258 L 1820.25,746.24349 2048,518.50164 v 22.5535 22.5535 l -217.0625,216.98217 -217.0626,216.98216 2.3126,2.52513 c 1.2719,1.3888 4.9412,5.6474 8.154,9.4635 3.2128,3.8161 6.8009,8.0634 7.9734,9.4384 2.9303,3.4363 9.8046,11.9468 12.2048,15.1096 2.6709,3.5197 14.1623,18.777 16.4872,21.8904 1.6043,2.1483 7.784,10.6338 13.7605,18.8948 0.9529,1.3172 2.4076,3.4171 3.2326,4.6664 0.825,1.2494 5.9554,8.9468 11.4009,17.1052 9.998,14.9791 14.5242,21.9386 18.4267,28.3336 1.1748,1.925 2.5842,4.175 3.1321,5 0.797,1.2 34.6009,-32.1 169.0183,-166.49888 L 2048,795.50223 v 22.54232 22.54231 l -159.6105,159.54644 -159.6106,159.5464 4.6422,8.1812 c 8.0099,14.1163 33.5789,63.9795 33.5789,65.4836 0,0.2356 2.0577,4.867 4.5726,10.292 5.838,12.5933 6.391,13.8503 11.3769,25.8635 2.2827,5.5 4.5577,10.9 5.0556,12 1.8746,4.1416 4.3178,10.3924 8.9898,23 2.6496,7.15 5.1504,13.8335 5.5575,14.8522 0.6078,1.5214 22.6007,-20.0078 123.0938,-120.4984 L 2048,1076.5031 v 23.6223 23.6223 l -116.4033,116.22 -116.4032,116.2201 0.9714,3.1561 c 15.9965,51.9719 28.9726,107.9795 37.7989,163.1481 l 3.6785,22.992 95.1788,-94.9055 95.1789,-94.9056 v 22.9116 22.9115 l -92.6431,92.6471 -92.6431,92.6471 2.1584,24.3549 c 3.7903,42.7679 10.0871,149.5311 10.1212,171.6049 l 0.01,4.25 h -57 -57 l -0.01,-82.75 c -0.01,-81.7789 -0.6418,-106.5313 -3.5361,-137.75 -6.938,-74.8341 -21.5538,-140.8698 -50.0212,-226 -8.004,-23.9358 -22.4117,-63.2254 -26.4026,-72 -0.5003,-1.1 -4.0359,-9.425 -7.8568,-18.5 -12.5012,-29.691 -24.6261,-54.3146 -42.3473,-86 -14.2387,-25.4587 -16.3662,-29.1469 -17.6478,-30.5939 -0.5329,-0.6016 -1.7297,-2.5652 -2.6597,-4.3636 -0.93,-1.7983 -3.6907,-6.1908 -6.1351,-9.7611 -2.4443,-3.5703 -5.0958,-7.7516 -5.8922,-9.2917 -0.7965,-1.5401 -2.0379,-3.4054 -2.7588,-4.145 -0.7209,-0.7396 -2.4021,-3.1447 -3.7359,-5.3447 -1.3338,-2.2 -3.0074,-4.5976 -3.7191,-5.328 -0.7117,-0.7304 -1.7871,-2.2492 -2.3897,-3.3752 -1.0177,-1.9016 -6.1789,-9.032 -9.4273,-13.0242 -0.7731,-0.95 -2.6035,-3.5375 -4.0676,-5.75 -1.4641,-2.2124 -2.9398,-4.0234 -3.2792,-4.0244 -0.3394,-10e-4 -1.8959,-2.026 -3.4589,-4.5 -1.563,-2.474 -3.1535,-4.4982 -3.5344,-4.4982 -0.3809,0 -1.5268,-1.4122 -2.5463,-3.1381 -1.0196,-1.726 -2.5852,-3.8696 -3.4791,-4.7635 -0.894,-0.894 -2.7236,-3.1943 -4.0659,-5.1119 -1.3423,-1.9176 -3.4378,-4.6115 -4.6566,-5.9865 -1.2189,-1.375 -4.0946,-4.75 -6.3906,-7.5 -13.0183,-15.593 -38.5833,-41.7804 -53.0956,-54.38835 C 1475.55,968.39141 1469.9469,963.65577 1466.4603,961 c -1.8052,-1.375 -6.751,-5.2 -10.9906,-8.5 -4.2397,-3.3 -9.9069,-7.575 -12.5938,-9.5 -12.6808,-9.08484 -22.1747,-15.63416 -24.6543,-17.00749 -1.4969,-0.82912 -5.3825,-3.41662 -8.6345,-5.75 -3.252,-2.33338 -6.3596,-4.24251 -6.9056,-4.24251 -0.5461,0 -2.5511,-1.18855 -4.4556,-2.64122 -1.9046,-1.45268 -6.6721,-4.44299 -10.5944,-6.64515 -28.7258,-16.12769 -34.1062,-19.01219 -52.6316,-28.21622 -17.5435,-8.71617 -35.5934,-17.06585 -39,-18.04088 -1.375,-0.39355 -4.75,-1.84711 -7.5,-3.23014 -2.75,-1.38302 -7.925,-3.53244 -11.5,-4.77648 -3.575,-1.24404 -9.875,-3.6207 -14,-5.28147 -15.5547,-6.26249 -51.5448,-18.0739 -68.5,-22.48069 -35.3743,-9.19406 -63.2917,-15.41304 -75.3311,-16.78106 -4.7316,-0.53764 -9.6954,-1.25172 -11.0307,-1.58684 -2.1711,-0.54492 -2.3633,-0.35272 -1.8184,1.81838 1.9658,7.83212 2.6269,22.84858 2.0853,47.36177 -0.3282,14.85 -0.2045,28.75872 0.2748,30.90827 0.9749,4.37192 0.8041,4.28273 18.3201,9.56936 14.4649,4.36577 54.8083,18.73261 66,23.50354 3.575,1.52399 8.75,3.56419 11.5,4.53377 5.5807,1.96762 17.6726,7.10828 30.5,12.96651 4.675,2.13505 13.675,6.19699 20,9.02653 6.325,2.82953 12.175,5.49183 13,5.91622 0.825,0.42439 4.875,2.4395 9,4.47802 8.1323,4.01889 9.0841,4.51025 22.5,11.6157 26.4595,14.01373 47.4648,27.1429 64.767,40.48208 2.8536,2.2 6.1641,4.675 7.3567,5.5 11.0596,7.6506 34.5071,30.2509 43.9036,42.3174 1.635,2.0995 4.3227,5.5262 5.9727,7.6147 4.23,5.3544 19.7581,26.0687 21.7902,29.0679 9.5192,14.0494 22.746,34.1038 24.0735,36.5 0.9141,1.65 3.4991,5.925 5.7444,9.5 2.2453,3.575 9.337,15.95 15.7593,27.5 33.6292,60.4789 57.9727,118.8219 84.4927,202.5 21.0315,66.3601 33.7417,128.7046 40.0607,196.5 2.5544,27.4056 3.5735,62.2156 4.2081,143.7308 l 0.6128,78.7309 21.3818,0.2691 21.3817,0.2692 -129.272,129.268 -129.272,129.2679 -24.4806,-0.2679 -24.4806,-0.268 130.2505,-129.5 130.2505,-129.5 -114.7448,-0.2542 -114.7448,-0.2543 -130.0072,130.0043 L 1124.4971,2047 h -23.6158 -23.6158 l 130.1173,-129.9816 130.1172,-129.9817 -119.0014,-0.018 -119.0015,-0.018 -129.99713,130 -129.99709,130 H 816.94851 794.39414 L 924.44707,1917.0091 1054.5,1787.0175 l -115.50143,-0.01 -115.50145,-0.01 -129.99712,130 -129.99712,130 h -22.59165 -22.59165 l 129.88572,-129.75 129.88571,-129.75 -21.0455,-0.2699 C 745.47048,1787.0792 736,1786.6056 736,1786.1752 c 0,-2.29 34.53564,-37.1263 57,-57.4962 8.525,-7.7302 15.63919,-14.3884 15.80931,-14.7961 0.17011,-0.4077 7.90593,-7.5561 17.19069,-15.8854 9.28476,-8.3293 17.02058,-15.481 17.19069,-15.8926 0.17012,-0.4117 5.70931,-5.599 12.30931,-11.5274 6.6,-5.9283 13.52557,-12.3713 15.39027,-14.3177 1.8646,-1.9464 8.3896,-8.0129 14.5,-13.481 6.1103,-5.4682 12.4597,-11.4022 14.1097,-13.1868 1.65,-1.7846 8.175,-7.9176 14.5,-13.6289 19.0536,-17.2048 33.3728,-32.0825 42.7961,-44.4656 2.9298,-3.85 5.8697,-7.675 6.5331,-8.5 11.5675,-14.3864 28.7534,-47.0957 38.35503,-73 14.1318,-38.1263 19.301,-66.0875 18.473,-99.9243 l -0.1572,-6.4243 -2.25,2.0493 c -1.2375,1.1272 -3.375,2.6291 -4.75,3.3376 -1.375,0.7086 -4.7909,3.0148 -7.5909,5.125 -2.7999,2.1102 -5.45333,3.8367 -5.89643,3.8367 -0.4431,0 -3.1022,1.5198 -5.9092,3.3774 -4.4398,2.9382 -12.7604,7.5982 -23.1035,12.9393 -6.537,3.3756 -21.2711,9.9904 -26,11.6725 -2.75,0.9782 -9.95,3.4869 -16,5.5749 -6.05,2.088 -15.5,5.4925 -21,7.5656 -5.5,2.0732 -12.025,4.2867 -14.5,4.9191 -4.1915,1.0709 -25.1335,21.7735 -305.54221,302.0505 L 286.41553,2047 h -22.52669 -22.52669 l 143.29436,-143.1912 c 78.8119,-78.7552 143.14645,-143.3392 142.96567,-143.5199 -0.18078,-0.1808 -4.10722,0.5965 -8.72543,1.7273 -10.80832,2.6465 -31.04581,3.6808 -40.42565,2.0661 -11.25255,-1.9371 -22.88831,-5.8813 -31.01559,-10.5135 -8.03501,-4.5795 -24.2308,-18.8519 -27.62622,-24.3453 -1.11386,-1.8021 -2.56046,-3.8271 -3.21467,-4.5 -0.65421,-0.6729 -2.23885,-2.9385 -3.52142,-5.0347 -1.51497,-2.476 -2.84317,-3.615 -3.79118,-3.2512 -3.34271,1.2827 -17.41916,4.5787 -25.80202,6.0416 -4.95,0.8638 -18.08039,1.8548 -29.17864,2.2022 l -20.17864,0.6317 -160.77749,160.8435 C 84.937617,1974.6205 12.040037,2047 11.370597,2047 c -0.66943,0 -2.5942703,-1.1588 -4.2774203,-2.575 z M 694.98831,1593.5117 c 107.6018,-107.6052 109.35613,-109.4216 101.99829,-105.6078 -19.5213,10.1184 -52.7302,31.0287 -66.45817,41.8461 -2.96645,2.3375 -5.65357,4.25 -5.97139,4.25 -1.00491,0 -13.30186,10.0748 -27.42168,22.4665 -14.71199,12.9113 -32.99252,30.6982 -40.63064,39.5335 -2.61511,3.025 -5.92834,6.85 -7.36272,8.5 -14.60134,16.7962 -25.6667,33.1459 -49.06742,72.5 -1.14464,1.925 -3.61793,6.081 -5.49619,9.2355 -5.82425,9.7818 -9.73955,16.7645 -9.40007,16.7645 0.17881,0 49.59331,-49.2697 109.80999,-109.4883 z m -220.35733,78.1791 c 4.97768,-2.574 13.8088,-11.8661 16.338,-17.1908 1.30624,-2.75 4.56007,-8.9088 7.23072,-13.6862 4.1613,-7.4439 7.12557,-13.7451 14.26058,-30.3138 0.71055,-1.65 2.7794,-7.2189 4.59746,-12.3753 3.1364,-8.8954 3.2501,-9.6991 2.22171,-15.7028 -2.1643,-12.6351 -10.82964,-20.0542 -24.72564,-21.1696 -5.72808,-0.4598 -7.15114,-0.1885 -12.07288,2.3016 -10.29065,5.2066 -22.63068,20.167 -34.53669,41.8704 -5.53287,10.0858 -7.01118,11.9235 -17.25069,21.4442 -12.25947,11.3989 -13.71791,22.1606 -4.32786,31.935 4.33014,4.5074 19.43117,12.9413 25.63431,14.3167 5.42207,1.2023 19.22823,0.3303 22.63098,-1.4294 z M 346.5,1568.5108 c 12.27895,-4.8293 17.90243,-12.3162 19.42089,-25.8563 0.94579,-8.4337 4.81789,-17.813 10.33864,-25.0434 6.8458,-8.9656 14.46049,-14.7257 32.19825,-24.3559 2.87252,-1.5595 9.18616,-9.1885 10.53044,-12.7242 4.54934,-11.9657 -4.26411,-27.3626 -20.32407,-35.5057 l -8.42939,-4.2741 -9.4833,0.4147 c -8.74187,0.3824 -10.17789,0.754 -18.36738,4.753 -20.18508,9.8566 -41.1532,27.8297 -52.60415,45.0905 -6.21746,9.3719 -11.55021,21.0815 -14.1395,31.0471 -6.50562,25.0388 -3.68121,38.3605 9.54896,45.0391 8.29265,4.1861 11.95559,4.8787 23.81061,4.502 8.57671,-0.2726 11.7822,-0.838 17.5,-3.0868 z m 715.72,-229.5142 c 11.3316,-3.2716 45.4939,-49.9344 61.4948,-83.9966 2.1961,-4.675 4.3387,-9.625 4.7614,-11 0.4227,-1.375 1.1115,-2.95 1.5307,-3.5 0.4191,-0.55 2.824,-7.3 5.3441,-15 8.1898,-25.0238 12.1997,-47.4317 13.3316,-74.5 0.4984,-11.919 0.3077,-15.5266 -1.0712,-20.2677 -4.841,-16.6442 -19.0729,-24.6524 -41.6114,-23.4146 -17.8621,0.981 -28.2975,5.6574 -31.5336,14.1311 -1.5624,4.0911 -1.6379,5.6239 -0.6325,12.8482 1.7653,12.6852 1.9657,19.053 1.0801,34.3126 -0.9011,15.5262 -3.6434,30.8916 -7.5531,42.3201 -4.8776,14.2583 -17.0197,37.6286 -28.3522,54.5703 -7.5831,11.3366 -9.6464,13.9039 -19.6589,24.4609 -8.5362,9.0006 -10.5969,13.2578 -10.6915,22.0879 -0.074,6.9431 1.6655,11.1099 6.5293,15.6382 4.0594,3.7793 18.0744,10.6959 24.2958,11.9903 6.4943,1.3511 16.764,1.0436 22.7366,-0.6807 z M 536.5,1162.952 c 9.54206,-4.7809 10.21806,-5.5156 17.03041,-18.5092 6.44876,-12.3001 11.43846,-20.4428 12.52697,-20.4428 0.50192,0 3.07896,1.333 5.72677,2.9622 11.45784,7.0501 39.00745,10.0738 55.71585,6.1151 17.76557,-4.2091 28.87029,-15.2298 35.34482,-35.0773 5.45537,-16.7233 4.68516,-30.217 -2.50196,-43.8331 -1.83857,-3.4831 -3.34286,-6.4337 -3.34286,-6.5568 0,-0.123 3.2625,-1.722 7.25,-3.5532 26.58374,-12.2081 27.54636,-12.781 31.51118,-18.7524 3.54597,-5.3406 3.73882,-6.0482 3.73882,-13.7178 0,-7.0665 -0.41615,-8.9698 -3.29859,-15.0867 -4.15063,-8.80811 -10.39534,-14.88617 -17.44536,-16.97981 -6.24474,-1.85448 -18.11077,-1.91034 -26.43223,-0.12442 -7.08095,1.51968 -24.11884,8.00806 -35.82382,13.64245 -4.4,2.11801 -9.24787,4.31868 -10.77304,4.89036 -1.52517,0.57169 -5.12517,2.53652 -8,4.36622 -2.87483,1.8297 -6.01964,3.6248 -6.98846,3.989 -2.32947,0.8758 -17.68265,10.9842 -25.2385,16.6168 -12.17907,9.0791 -28.69836,24.5137 -38.18335,35.6762 -8.48805,9.9892 -10.10399,12.0788 -15.02062,19.4232 -8.96711,13.3949 -12.50828,19.3292 -17.53957,29.3928 C 488.05031,1120.8063 487,1124.1384 487,1132 c 0,8.2468 1.83401,13.7405 6.4799,19.4102 8.86926,10.8237 32.04382,17.0412 43.0201,11.5418 z m 207,-249.80777 c 9.35,-4.56207 19.475,-9.57815 22.5,-11.14684 12.85372,-6.66565 31.09993,-13.84036 40.66621,-15.99065 5.59141,-1.25682 10.64852,-2.58322 11.23801,-2.94755 0.76137,-0.47055 0.75011,-3.25414 -0.0389,-9.6108 -1.35931,-10.95121 -0.53621,-38.25116 1.54994,-51.40748 0.82494,-5.2025 1.38521,-9.57378 1.24504,-9.71395 -0.77277,-0.77276 -25.00595,5.48685 -36.1603,9.34048 -13.72695,4.74241 -33.77976,13.59684 -41.76502,18.44157 -2.62077,1.59005 -5.10139,2.89099 -5.5125,2.89099 -0.71487,0 -8.83244,5.21912 -21.72248,13.96628 -3.3,2.23937 -9.59056,6.44143 -13.97902,9.33791 -10.85084,7.16179 -14.04378,12.22114 -13.96415,22.12677 0.0487,6.06225 0.5459,7.99478 3.49081,13.56904 3.74207,7.08315 11.02051,14.8986 16.79137,18.03024 2.91471,1.58172 5.18983,1.92778 11.16099,1.69768 7.11296,-0.2741 8.3773,-0.71707 24.5,-8.58369 z M 1062.8316,700.75 c -0.3474,-13.86886 -0.6172,-15.75632 -2.9785,-20.84054 -2.9956,-6.44992 -6.1401,-9.65928 -13.2622,-13.53561 -4.5095,-2.45438 -6.3662,-2.81204 -16.5845,-3.19477 l -11.5064,-0.43098 1.962,2.37595 c 1.0791,1.30677 3.3291,3.75245 5,5.43484 8.9179,8.97924 29.519,34.50394 34.0525,42.19111 1.0542,1.7875 2.3178,3.25 2.808,3.25 0.4994,0 0.7232,-6.70482 0.5091,-15.25 z M 685.58034,653.0325 C 693.46024,646.00233 700.80432,640 701.5261,640 c 0.3602,0 3.0252,-2.025 5.92222,-4.5 2.89702,-2.475 5.59047,-4.5 5.98545,-4.5 0.39498,0 3.34978,-2.025 6.56623,-4.5 3.21645,-2.475 6.14145,-4.5 6.5,-4.5 0.35855,0 3.28355,-2.025 6.5,-4.5 3.21645,-2.475 6.12719,-4.5 6.46833,-4.5 0.34113,0 3.51956,-2.1375 7.06317,-4.75 3.54361,-2.6125 9.39116,-6.775 12.99455,-9.25 3.60339,-2.475 8.97879,-6.4125 11.94534,-8.75 2.96654,-2.3375 5.66538,-4.25 5.99742,-4.25 0.33204,0 3.62489,-2.24545 7.31745,-4.9899 3.69256,-2.74444 9.33009,-6.90694 12.52786,-9.25 3.19776,-2.34305 8.2539,-6.1726 11.23587,-8.5101 2.98196,-2.3375 5.7171,-4.25 6.07807,-4.25 0.36097,0 3.0266,-2.025 5.92362,-4.5 2.89702,-2.475 5.59702,-4.5 6,-4.5 0.40298,0 3.10298,-2.025 6,-4.5 2.89702,-2.475 5.55275,-4.5 5.90162,-4.5 0.34887,0 3.4271,-2.24193 6.84051,-4.98208 25.66306,-20.6012 27.53476,-22.13966 33.17516,-27.26792 2.8733,-2.6125 5.5464,-4.75 5.9401,-4.75 1.3743,0 40.2492,-35.88127 59.8703,-55.25999 l 19.7794,-19.53501 -6.4419,-3.6025 c -3.543,-1.98138 -6.7616,-3.6025 -7.1524,-3.6025 -0.3907,0 -3.4676,-1.9574 -6.8375,-4.34978 -3.3698,-2.39239 -6.6553,-4.52989 -7.3009,-4.75 -0.6457,-0.22012 -5.4804,-4.42063 -10.7438,-9.33446 -17.7241,-16.54687 -26.6069,-31.46621 -32.0676,-53.86018 -1.1795,-4.83693 -2.4795,-8.80106 -2.889,-8.80917 -1.0436,-0.0207 -280.99216,281.07044 -280.45897,281.60363 0.23934,0.23933 5.13724,2.8563 10.88423,5.81547 16.7162,8.60733 27.64578,14.5362 32.66704,17.72059 2.57047,1.63014 5.06018,2.9639 5.53268,2.9639 0.4725,0 3.4219,1.73014 6.55422,3.84475 11.80553,7.96985 11.06068,7.96277 19.77547,0.18775 z M 1736.4612,1941.2543 c 58.3214,-58.1601 152.2829,-151.8726 208.8035,-208.25 l 102.7646,-102.5043 -0.2646,23.5 -0.2647,23.5 -185.0142,184.75 -185.0141,184.75 h -23.5246 -23.5247 z m 205.9796,69.9957 c 19.832,-19.6625 51.696,-51.2664 70.8087,-70.2308 L 2048,1906.5383 v 22.6743 22.6742 l -49.4255,47.5566 L 1949.149,2047 h -21.3833 -21.3832 z M 0.23161667,931.87564 0.49999667,910.25127 454.5,455.37564 908.49997,0.5 931.43557,0.23111362 c 12.6145,-0.1478875 22.7274,-0.1478875 22.4731,0 C 953.65427,0.37900113 738.91247,214.925 476.70468,477 L -0.03676333,953.5 Z M -3.3333333e-6,655.5038 V 633.5087 L 155.75734,477.50435 C 241.42388,391.70196 383.72476,249.15431 471.98153,160.7318 L 632.44837,-0.03640115 654.72582,0.23179943 677.00327,0.5 338.50164,338.99945 -3.3333333e-6,677.49889 Z m 0,-277.52222 V 355.49789 L 177.77041,177.72958 355.54083,-0.03872446 378.02041,0.23063777 400.5,0.5 200.25,200.48264 -3.3333333e-6,400.46527 Z M 0.00399667,101.99698 0.00710667,79.5 39.745327,39.731844 79.483547,-0.03631108 101.74588,0.23184446 124.00821,0.5 62.004107,62.496976 -3.3333333e-6,124.49395 Z"
       id="path1" />
  </g>
</svg>
