<?xml version="1.0" encoding="UTF-8" standalone="no"?>
<!-- Created with Inkscape (http://www.inkscape.org/) -->

<svg
   version="1.1"
   id="svg1"
   width="2048"
   height="2048"
   viewBox="0 0 2048 2048"
   xmlns="http://www.w3.org/2000/svg"
   xmlns:svg="http://www.w3.org/2000/svg">
  <defs
     id="defs1" />
  <g
     id="g1">
    <path
       style="fill:#000000"
       d="M 12.665965,2044.425 C 8.8413249,2041.2067 6.7170649,2034.42 5.9599049,2023 l -0.56355,-8.5 L 175.98457,1844.0011 346.57279,1673.5022 V 1617.2511 1561 h 56.25915 56.25915 l 20.24085,-20.2589 20.24085,-20.259 v -82.0262 -82.0262 l 85.51468,-85.4649 85.51469,-85.4648 -0.26469,-32.5 -0.26468,-32.5 -332,332.5 -332.0000051,332.5 -0.2683,-23.9811 -0.2683,-23.9812 332.5225651,-332.5237 332.52257,-332.5237 -0.25427,-114.13827 -0.25426,-114.13833 -332,332.6432 L 6.0727849,1509.5 l -0.2683,-23.9811 -0.2683,-23.9812 332.5288751,-332.53 332.52888,-332.52997 -0.26058,-44.41027 -0.26057,-44.41026 -39.3446,-30.3286 c -21.63954,-16.68073 -39.63954,-30.32129 -40,-30.31236 -0.36047,0.009 -132.0554,131.74643 -292.6554,292.75 L 6.0727849,1232.5 5.8034049,1210.6542 5.5340149,1188.8085 284.93944,908.65425 C 438.61243,754.56941 564.46419,628.07421 564.61002,627.55379 564.75585,627.03338 538.81963,606.53178 506.97397,581.9947 L 449.07279,537.38181 448.79224,523.9723 448.51169,510.56279 227.04224,732.03055 5.5727849,953.49831 v -21.5 -21.5 L 227.07279,689 l 221.5,-221.49831 v -116.5 -116.5 L 227.07279,456 5.5727849,677.49831 v -21.83457 -21.83456 l 221.5000051,-222.1269 221.5,-222.12689 V 175.78769 162 h 13.79249 13.7925 L 557.02961,81 637.90145,0 h 22.58336 22.58335 l -80.99537,81 -80.99537,81 H 621.29971 721.522 l 0.2754,15.52875 0.27539,15.52875 L 818.52016,96.528752 914.96754,0 h 22.1738 22.1738 L 840.44397,118.6916 721.57279,237.3832 V 268.1916 299 h 85.5 85.49995 V 230.5 162 h 68.276 68.27596 l 80.9234,-81 80.9234,-81 h 22.5483 22.5484 l -80.9954,81 -80.9954,81 h 46.2477 46.2477 v 68.5 c 0,37.675 0.3381,68.5 0.7513,68.5 0.4131,0 68.0251,-67.275 150.2487,-149.5 L 1467.0703,0 h 22.9989 22.999 l -80.9954,81 -80.9954,81 h 115 115 l 80.9954,-81 80.9954,-81 h 23.0002 23.0002 l -89.2479,89.252083 -89.2479,89.252087 v 115.497 115.497 L 1815.3237,204.74909 2020.0746,0 h 6.1768 c 13.4152,0 27.3214,3.1526914 27.3214,6.1940656 0,0.6284879 -99.6702,100.9289344 -221.4893,222.8898844 l -221.4893,221.74718 -0.2607,43.26982 -0.2607,43.26981 -109.5,84.35441 c -60.225,46.39492 -110.0647,84.91728 -110.7549,85.60524 -0.9931,0.9899 -1.2017,21.89435 -1,100.21021 l 0.2549,98.95938 332.2689,-331.92867 332.2688,-331.92867 -0.2688,22.92867 -0.2689,22.92867 -332,331.5 -332,331.5 -0.253,116 -0.253,116 332.503,-332.49944 332.503,-332.49943 v 22.53638 22.53638 l -321.75,321.70356 -321.75,321.70355 57.7489,57.7573 57.7489,57.7574 58.2511,-57.9967 c 32.0381,-31.8982 150.8386,-150.4718 264.0011,-263.4969 l 205.75,-205.50028 v 22.53376 22.53376 l -204.25,203.96746 c -112.3375,112.1822 -226.0692,225.6693 -252.7372,252.1938 l -48.4872,48.2262 5.2372,5.303 5.2372,5.3031 V 1458.2814 1561 h 5.2492 5.2493 l 242.2507,-242.2492 242.2508,-242.2493 v 23.5669 23.5669 l -218.5337,218.4324 -218.5336,218.4323 47.5336,0.2597 47.5337,0.2597 v 67.6145 67.6144 l 171,-170.2483 171,-170.2483 v 22.8752 22.8753 l -171,170.9978 -171,170.9978 V 1771.7489 1800 h -28.2485 -28.2485 l -123.521,123.518 -123.521,123.5179 -24.4805,-0.2679 -24.4805,-0.268 123.7122,-123 123.7123,-123 -114.7065,-0.2542 -114.7065,-0.2543 L 1253.577,1923.4958 1130.0698,2047 h -23.6216 -23.6215 l 123.623,-123.4808 123.6231,-123.4807 -119.0015,-0.019 -119.0015,-0.02 -123.49706,123.5 -123.49691,123.5 h -22.55716 -22.55716 l 123.55563,-123.4912 123.55566,-123.4911 -115.50156,-0.01 L 816.06975,1800 692.57279,1923.5 569.07583,2047 h -22.5951 -22.59509 L 647.47921,1923.5148 771.07279,1800.0295 655.07127,1800.0148 539.06975,1800 415.57279,1923.5 292.07583,2047 H 269.49576 246.9157 l 123.57854,-123.4876 123.57855,-123.4875 -73.75,-0.012 -73.75,-0.012 -0.007,-40.75 -0.007,-40.75 -164.201,164.25 C 92.047765,1973.0875 17.610325,2047 16.941775,2047 c -0.66854,0 -2.59266,-1.1588 -4.27581,-2.575 z M 1489.5728,1596 v -51 h -460 -460.00001 v 51 51 h 460.00001 460 z m 0,-183.9145 V 1383.171 L 1466.6407,1361.5855 1443.7086,1340 H 1029.5728 615.43697 l -22.93209,21.5855 -22.93209,21.5855 V 1412.0855 1441 h 460.00001 460 z m -140.2887,-169.3738 -29.7888,-29.2117 0.039,-22.75 0.038,-22.75 h -290 -290.00001 l 0.0388,22.75 0.0387,22.75 -29.78874,29.2117 -29.78875,29.2116 h 349.5 349.5 z m -29.4766,-545.42076 0.2653,-28.70905 29.435,-23.04095 29.435,-23.04094 -174.685,-0.2528 c -96.0767,-0.13904 -253.29326,-0.13904 -349.37003,0 l -174.68502,0.2528 29.43502,23.04094 29.43502,23.04095 0.26534,28.70905 L 739.60346,726 h 289.96934 289.9693 z m 185.0139,-170.6165 35.2514,-27.32557 0.2684,-23.17443 L 1540.6097,453 H 1029.0728 517.53593 l 0.26843,23.14559 0.26843,23.14559 36,27.29541 36,27.29541 439.74861,0.059 L 1469.57,554 Z M 1336.5728,238 c 0,-33.55 -0.1139,-61 -0.2531,-61 -0.1392,0 -27.7003,27.45 -61.2469,61 l -60.9939,61 h 61.247 61.2469 z m 405.4612,1703.2543 c 58.3214,-58.1601 152.2829,-151.8726 208.8035,-208.25 l 102.7646,-102.5043 -0.2646,23.5 -0.2647,23.5 -185.0142,184.75 -185.0141,184.75 h -23.5246 -23.5247 z m 205.9796,69.9957 c 19.832,-19.6625 51.696,-51.2664 70.8087,-70.2308 l 34.7505,-34.4809 v 22.6743 22.6742 l -49.4255,47.5566 -49.4255,47.5566 h -21.3833 -21.3832 z M 5.5727849,377.98158 V 355.49789 L 183.3432,177.72958 361.11362,-0.03872446 383.5932,0.23063777 406.07279,0.5 205.82279,200.48264 5.5727849,400.46527 Z m 0.004,-275.9846 L 5.5798949,79.5 45.318115,39.731844 85.056335,-0.03631108 107.31867,0.23184446 129.581,0.5 67.576895,62.496976 5.5727849,124.49395 Z"
       id="path1" />
  </g>
</svg>
