<?xml version="1.0" encoding="UTF-8" standalone="no"?>
<!-- Created with Inkscape (http://www.inkscape.org/) -->

<svg
   version="1.1"
   id="svg1"
   width="2048"
   height="2048"
   viewBox="0 0 2048 2048"
   xmlns="http://www.w3.org/2000/svg"
   xmlns:svg="http://www.w3.org/2000/svg">
  <defs
     id="defs1" />
  <g
     id="g1">
    <path
       style="fill:#000000"
       d="m 7.1543585,2044.4764 c -3.836607,-3.2283 -5.935396,-9.7796 -6.82005,-21.2886 l -0.643789,-8.3755 L 131.09383,1883.4062 C 203.36566,1811.1328 263.00411,1752 263.62373,1752 c 0.61962,0 4.44526,1.5 8.50143,3.3332 4.05616,1.8333 10.89342,4.6049 15.19391,6.1592 l 7.81907,2.8259 -140.81907,141.0809 c -77.450489,77.5946 -141.544513,141.2211 -142.431165,141.3924 -0.886652,0.1712 -3.0167485,-0.8706 -4.7335465,-2.3152 z M 360.20337,1928.25 l 118.8686,-118.75 17.21401,-0.6632 c 9.46771,-0.3648 20.52879,-1.3178 24.58018,-2.1177 l 7.36617,-1.4545 L 407.36771,1926.1323 286.5031,2047 h -22.58416 -22.58417 z m 274.61345,2.3808 116.51471,-116.3691 7.08424,3.8205 c 5.87459,3.1681 12.82499,6.0984 22.53635,9.5013 0.95305,0.334 -36.16334,38.1255 -107.99829,109.9627 L 563.50342,2047 h -22.60065 -22.60066 z m 263.89883,12.1192 104.34915,-104.25 22.7176,-0.2635 22.7176,-0.2636 L 944.00174,1942.4865 839.50359,2047 h -22.56857 -22.56856 z m 283.14035,-0.2277 104.644,-104.4778 23.4982,-0.022 23.4982,-0.023 -104.4964,104.5 -104.4964,104.5 h -23.6458 -23.6457 z m 259.1084,17.2038 c 48.1446,-48.0006 95.4269,-95.0256 105.0717,-104.5 L 1563.5722,1838 h 23.9621 23.9621 L 1507,1942.5 1402.5036,2047 h -24.5374 -24.5373 z m 294.9968,-18.0997 c 58.0464,-57.9554 107.3593,-106.9746 109.5843,-108.9316 2.2251,-1.9569 6.9501,-4.6518 10.5,-5.9885 15.3004,-5.7614 29.2155,-14.258 40.242,-24.572 10.7269,-10.0338 22.8468,-29.2932 27.2423,-43.2903 1.7211,-5.4805 3.6811,-7.5604 63.1367,-67 l 61.3605,-61.344 -0.2635,23.5 -0.2635,23.5 -185.0142,184.75 -185.0141,184.75 h -23.5246 -23.5247 z m 206.4796,69.6236 c 19.832,-19.6625 51.696,-51.2664 70.8087,-70.2308 L 2048,1906.5383 v 22.6743 22.6742 l -49.4255,47.5566 L 1949.149,2047 h -21.3833 -21.3832 z M 736,1787.0967 c 0,-1.2073 17.80341,-19.0799 33.13181,-33.2607 11.60578,-10.7369 18.63262,-16.9178 54.15008,-47.6308 7.81996,-6.7622 17.59311,-15.3758 21.71811,-19.1414 4.125,-3.7655 11.85841,-10.6078 17.18536,-15.2051 5.32694,-4.5973 15.90194,-13.7258 23.5,-20.2855 7.59805,-6.5597 14.71464,-12.9338 15.81464,-14.1646 1.1,-1.2309 6.95979,-6.4388 13.02175,-11.5733 19.17679,-16.2425 35.35999,-32.167 43.53149,-42.8353 1.8957,-2.475 3.7036,-4.725 4.0174,-5 1.3401,-1.1741 13.9294,-19.2767 13.9294,-20.0295 0,-0.4552 0.6646,-1.4923 1.477,-2.3047 3.9979,-3.9978 18.3515,-33.0645 25.36956,-51.3744 7.7953,-20.3378 11.1944,-32.0319 14.618,-50.2914 1.9835,-10.5785 3.3902,-32.4543 2.6168,-40.6935 l -0.5814,-6.1935 -5.7256,3.9435 c -3.1491,2.1689 -5.9917,3.9435 -6.3168,3.9435 -0.3251,0 -2.066,1.125 -3.8687,2.5 -1.8027,1.375 -3.73706,2.5 -4.29846,2.5 -0.5614,0 -2.0939,0.8367 -3.4056,1.8593 -2.9307,2.2849 -25.8419,13.9114 -35.3848,17.9564 -14.7847,6.2667 -19.3753,7.9971 -31,11.6851 -6.60004,2.0939 -14.81727,4.8628 -18.26056,6.1532 -3.44329,1.2903 -6.77318,2.346 -7.39975,2.346 -1.19985,0 -15.19905,4.9407 -22.83973,8.0607 -2.475,1.0107 -8.775,3.4562 -14,5.4346 -5.225,1.9783 -11.975,4.6771 -15,5.9974 -3.025,1.3202 -9.325,4.0403 -14,6.0447 -13.56313,5.8152 -42.07419,19.6539 -53.5,25.9679 -2.75,1.5197 -6.61268,3.577 -8.58373,4.5719 -1.97106,0.9948 -7.29159,4.0845 -11.82341,6.8658 -4.53182,2.7814 -8.50166,5.057 -8.82187,5.057 -0.32022,0 -2.05716,1.125 -3.85988,2.5 -1.80272,1.375 -3.52137,2.5 -3.81923,2.5 -0.45843,0 -4.65328,2.7984 -23.93955,15.9699 -7.56022,5.1633 -20.23324,15.1955 -33.65233,26.6399 -19.87927,16.9538 -32.41272,29.3133 -46.53606,45.8902 -3.28017,3.85 -6.18894,7.225 -6.46394,7.5 -2.75343,2.7534 -15.70275,21.0941 -24.00555,34 -3.07233,4.7757 -10.03099,15.7707 -13.42058,21.2052 -2.15937,3.4622 -5.77987,9.2198 -8.04556,12.7948 -2.26568,3.575 -6.10653,9.65 -8.53521,13.5 -13.52849,21.4457 -28.38948,38.1466 -39.54743,44.4438 -14.76785,8.3344 -34.1218,11.8128 -59.15892,10.6322 -11.42323,-0.5387 -14.47133,-1.0673 -22.5,-3.9025 -5.10771,-1.8037 -12.07546,-4.8306 -15.48388,-6.7265 -9.40335,-5.2304 -22.47659,-16.969 -29.52173,-26.5079 -3.89216,-5.2699 -6.76298,-8.2763 -7.59729,-7.9562 -4.4334,1.7013 -18.0331,4.5948 -25.7152,5.4713 -4.93276,0.5628 -12.34365,1.4644 -16.46865,2.0037 -4.125,0.5392 -12.675,0.9875 -19,0.9962 -11.826,0.016 -18.07247,-1.3037 -31.5,-6.6568 -2.75,-1.0963 -6.35,-2.4721 -8,-3.0574 -5.69142,-2.0189 -17.02031,-6.9688 -24,-10.4862 -13.09349,-6.5984 -14.00001,-7.0983 -17.09439,-9.426 -1.70192,-1.2802 -3.53022,-2.3277 -4.06291,-2.3277 -0.53268,0 -2.2619,-1.35 -3.8427,-3 -1.5808,-1.65 -3.21906,-3 -3.64058,-3 -1.9412,0 -27.88436,-25.4058 -36.25082,-35.5 -8.36518,-10.0926 -8.27525,-9.974 -14.30937,-18.8707 -13.67897,-20.1682 -22.81971,-45.1602 -28.20985,-77.1293 -4.43553,-26.3074 -5.13658,-55.3727 -1.71251,-71 3.62579,-16.5479 11.68745,-38.0631 19.7752,-52.7767 2.11636,-3.8501 3.84793,-7.213 3.84793,-7.4729 0,-1.4509 23.99477,-38.972 27.46055,-42.9407 0.5717,-0.6546 2.16445,-2.8134 3.53945,-4.7973 1.375,-1.984 6.325,-8.4737 11,-14.4216 4.675,-5.948 9.6986,-12.3392 11.16355,-14.2027 1.46496,-1.8634 3.48996,-4.3627 4.5,-5.5539 4.71708,-5.563 6.19395,-7.2919 11.81848,-13.8354 6.77103,-7.8774 10.09662,-11.6869 13.01797,-14.9124 1.1,-1.2146 4.475,-5.0546 7.5,-8.5335 3.025,-3.4789 6.21028,-7.0515 7.07839,-7.9391 3.38916,-3.4652 25.45238,-30.2684 41.25147,-50.1138 0.65679,-0.825 5.93064,-8.025 11.71966,-16 23.60212,-32.5144 39.81565,-60.4996 48.95992,-84.5066 6.50268,-17.0719 8.00345,-24.1395 9.0233,-42.4934 1.6802,-30.2378 5.72939,-58.182 10.41749,-71.8929 2.26475,-6.6235 12.76498,-27.8466 14.40085,-29.1071 0.35691,-0.275 2.20075,-2.75 4.09743,-5.5 1.89668,-2.75 3.70783,-5.225 4.02478,-5.5 0.48835,-0.42373 12.44307,-16.4777 17.70572,-23.77698 1.76552,-2.44877 1.82099,-2.5122 13.82099,-15.80308 10.3773,-11.49363 37.04272,-37.95618 46,-45.65004 3.85,-3.30697 8.459,-7.4766 10.24222,-9.26585 l 3.24222,-3.25319 -6.1067,-15.37543 C 504.78628,832.28922 492.56671,779.95906 487.89563,724.5 c -1.32038,-15.67666 -1.63009,-61.92427 -0.4929,-73.60278 l 0.74032,-7.60277 6.75617,1.81202 c 3.7159,0.99661 8.07121,2.34086 9.67848,2.98724 1.60726,0.64637 5.6223,1.99211 8.9223,2.99052 7.59799,2.29878 20.42479,6.80615 32,11.2449 4.95,1.89818 10.575,4.01615 12.5,4.7066 4.96309,1.78013 16.66194,6.67961 34.18885,14.31828 l 5.68884,2.47935 0.69042,-3.16668 c 1.74184,-7.98907 10.33777,-32.54087 17.21395,-49.16668 4.70032,-11.36484 18.5848,-35.90357 24.22282,-42.81021 0.53419,-0.65438 3.48772,-4.33979 6.5634,-8.18979 11.84878,-14.83178 33.1789,-34.92142 50.93172,-47.96972 4.4,-3.23399 9.55686,-7.0388 11.45969,-8.45513 1.90283,-1.41633 3.92783,-2.80015 4.5,-3.07515 1.03896,-0.49935 13.19461,-8.43972 31.9969,-20.90115 5.47613,-3.62937 10.68902,-7.04885 11.58421,-7.59885 0.89519,-0.55 4.23382,-2.8 7.41918,-5 3.18536,-2.2 6.5318,-4.45 7.43654,-5 0.90473,-0.55 3.2013,-2.125 5.10348,-3.5 1.90218,-1.375 4.19875,-2.95 5.10348,-3.5 1.47462,-0.89644 9.75068,-6.54048 15.39652,-10.5 1.17636,-0.825 4.75594,-3.3 7.95462,-5.5 3.19867,-2.2 7.21744,-5.01413 8.93058,-6.25361 1.71314,-1.23949 4.6898,-3.35192 6.6148,-4.69431 1.925,-1.34238 5.75,-4.05495 8.5,-6.02794 2.75,-1.97299 6.58161,-4.63685 8.51468,-5.91969 1.93307,-1.28284 4.12567,-3.06864 4.87244,-3.96844 C 843.6339,431.7362 844.69288,431 845.24043,431 c 0.54755,0 2.51467,-1.2375 4.37138,-2.75 1.85671,-1.5125 4.90288,-3.9875 6.76926,-5.5 1.86638,-1.5125 3.83906,-2.75 4.38373,-2.75 0.54467,0 1.58638,-0.71822 2.3149,-1.59604 0.72853,-0.87782 4.49613,-4.02868 8.37245,-7.00191 3.87632,-2.97323 9.74785,-7.51245 13.04785,-10.08717 7.11142,-5.54843 36.52391,-30.61053 41.59117,-35.43943 1.94817,-1.8565 7.49427,-6.97545 12.32467,-11.37545 4.8304,-4.4 12.6299,-11.66921 17.3321,-16.1538 l 8.5495,-8.1538 -4.3987,-2.27637 c -18.8072,-9.7328 -22.1574,-11.87542 -33.37515,-21.34513 -8.18004,-6.90533 -10.37469,-9.17053 -16.66601,-17.20179 C 890.68617,264.89562 884.85165,227.44803 895.1544,195 c 1.81602,-5.71946 9.38255,-21.22855 11.88628,-24.36326 12.59946,-15.77477 14.71994,-18.05241 24.45936,-26.27207 6.7404,-5.6887 13.9084,-10.67681 19.9874,-13.90905 2.2489,-1.19573 4.9717,-2.65856 6.0507,-3.25071 16.3759,-8.98695 44.26886,-15.1659 68.46186,-15.1659 13.0234,0 33.4421,2.61919 42.9482,5.50914 10.3756,3.1543 24.0623,8.80209 29.2182,12.0569 2.0866,1.31722 4.0978,2.39495 4.4693,2.39495 0.3716,0 2.1505,1.125 3.9532,2.5 1.8027,1.375 3.5613,2.5 3.9079,2.5 0.9615,0 20.5212,17.04125 23.968,20.88201 9.9269,11.06126 18.8987,26.20502 22.8789,38.61799 2.5264,7.87916 4.6567,22.01941 4.6523,30.88099 -0.016,31.47162 -12.7522,59.05877 -36.5412,79.14755 -8.772,7.4075 -17.7609,13.42767 -25.4548,17.04778 -1.925,0.90575 -5.4624,2.79361 -7.8608,4.19523 l -4.3609,2.54842 11.7582,11.31953 c 6.4669,6.22574 15.6119,14.81625 20.3221,19.09001 4.7103,4.27377 11.2815,10.28606 14.6027,13.36065 7.9975,7.40349 38.6263,32.93062 47.8859,39.90984 19.6183,14.78679 31.2087,23.38594 36.4922,27.07441 6.9449,4.84838 8.765,6.13687 18.6116,13.17559 3.6546,2.6125 7.0182,4.75 7.4745,4.75 0.4563,0 1.3908,0.67613 2.0766,1.50252 1.0738,1.29384 32.9599,23.1801 37.8757,25.99748 0.9597,0.55 5.7673,3.65505 10.6835,6.90011 4.9163,3.24506 10.7387,7.03019 12.9387,8.4114 2.2,1.38122 5.8736,3.78867 8.1635,5.3499 2.2899,1.56122 4.3891,2.83859 4.6648,2.83859 0.2757,0 4.178,2.475 8.6717,5.5 4.4937,3.025 8.4101,5.5 8.7032,5.5 0.293,0 2.0087,1.2375 3.8126,2.75 1.8039,1.5125 6.1383,4.85733 9.632,7.43295 17.0427,12.56413 20.3907,15.46238 35.5995,30.81705 7.3518,7.42227 14.4138,15.47941 19.2527,21.96564 1.375,1.84309 2.95,3.84232 3.5,4.44272 0.55,0.6004 2.3079,3.11664 3.9064,5.59164 1.5986,2.475 3.8243,5.83855 4.946,7.47456 11.6842,17.04095 30.218,65.64397 36.0454,94.52544 7.0581,34.98161 7.1687,54.90183 0.5266,94.86873 -3.1764,19.11281 -5.4323,28.07982 -10.4753,41.63717 -6.0171,16.17654 -19.1241,40.59769 -28.5534,53.20119 -2.1426,2.8639 -3.8957,5.60814 -3.8957,6.09831 0,0.49017 1.6875,1.62053 3.75,2.51192 2.0625,0.89138 6.45,3.14332 9.75,5.00431 12.9692,7.3138 15.6461,8.80905 20.1638,11.26285 2.5767,1.39957 5.7922,3.41561 7.1454,4.4801 1.3533,1.06448 2.9199,1.93542 3.4813,1.93542 0.5614,0 2.4957,1.125 4.2984,2.5 1.8027,1.375 3.5641,2.5 3.9142,2.5 0.3501,0 2.5987,1.35 4.9969,3 2.3982,1.65 4.6645,3 5.0363,3 0.3717,0 2.3804,1.35 4.4637,3 2.0833,1.65 4.0152,3 4.293,3 0.4768,0 5.8597,3.60198 15.8128,10.58128 11.5953,8.13083 13.6686,9.60669 17.3942,12.3819 2.2,1.63881 5.125,3.76038 6.5,4.7146 1.375,0.95422 5.0361,3.89209 8.1358,6.52859 3.0997,2.63649 5.9261,4.79363 6.281,4.79363 0.6706,0 31.7653,26.42349 37.1502,31.5692 25.1154,24 41.722,41.1739 58.7687,60.7763 5.7219,6.5798 23.0967,27.8345 26.6643,32.6187 1.375,1.8439 2.95,3.845 3.5,4.4469 1.7118,1.8732 8.4372,10.9075 18.2155,24.4688 3.4185,4.741 6.5685,9.0701 7,9.6201 4.184,5.3332 22.4716,33.0418 36.4374,55.2084 15.9179,25.265 40.2196,70.6804 52.8631,98.7916 1.2369,2.75 3.5393,7.8238 5.1164,11.275 1.5772,3.4513 2.8676,6.4574 2.8676,6.6803 0,0.2228 1.2944,3.2491 2.8765,6.7249 3.5852,7.877 15.8897,39.2809 20.1078,51.3198 26.1291,74.5746 44.321,155.5227 52.9251,235.5 4.7618,44.2614 10.7003,133.8045 11.3409,171 l 0.2497,14.5 h -56.5 -56.5 l -0.5996,-90 c -0.3298,-49.5 -0.8891,-92.25 -1.243,-95 -0.3539,-2.75 -1.1167,-10.625 -1.6952,-17.5 -4.1938,-49.8442 -14.5993,-104.0219 -29.9684,-156.0347 -10.3941,-35.1759 -32.1028,-96.7052 -41.444,-117.4653 -0.7425,-1.65 -2.9223,-6.825 -4.8441,-11.5 -1.9219,-4.675 -4.8322,-11.425 -6.4675,-15 -1.6354,-3.575 -3.9838,-8.75 -5.2187,-11.5 -18.1903,-40.5058 -49.2654,-93.8206 -78.1032,-134 -5.1317,-7.15 -9.7998,-13.4912 -10.3734,-14.0916 -0.5736,-0.6004 -2.1679,-2.5953 -3.5429,-4.4331 -3.4439,-4.603 -22.1026,-27.3595 -22.9378,-27.9753 -0.373,-0.275 -1.4022,-1.5593 -2.2872,-2.854 -8.0338,-11.7534 -50.491,-54.1677 -66.7135,-66.646 -2.8601,-2.2 -8.2945,-6.5875 -12.0764,-9.75 -3.782,-3.1625 -7.1789,-5.75 -7.5487,-5.75 -0.3698,0 -2.1571,-1.2375 -3.9717,-2.75 -3.4784,-2.8993 -7.2558,-5.75643 -10.9071,-8.25 -1.208,-0.825 -4.798,-3.3 -7.9776,-5.5 -3.1796,-2.2 -7.2804,-4.91515 -9.1128,-6.03366 -1.8324,-1.11852 -4.1851,-2.80602 -5.2282,-3.75 -1.043,-0.94399 -2.2375,-1.71634 -2.6543,-1.71634 -0.4167,0 -2.6313,-1.25359 -4.9212,-2.78576 -2.2899,-1.53217 -5.0635,-3.3237 -6.1635,-3.98118 -1.1,-0.65748 -4.7,-2.84033 -8,-4.85077 -8.1098,-4.94072 -12.0834,-7.25353 -18,-10.47694 -2.75,-1.49822 -7.925,-4.31983 -11.5,-6.27024 -11.4254,-6.23335 -44.0388,-22.15542 -58.5,-28.56 -7.7,-3.41019 -16.3725,-7.29717 -19.2722,-8.63773 C 1297.3282,913.09682 1294.3006,912 1293.5,912 c -0.8006,0 -3.8282,-1.07439 -6.7278,-2.38753 -11.9926,-5.43089 -41.5104,-15.66863 -64.7722,-22.46506 -25.6774,-7.50219 -46.4148,-12.92575 -54.5,-14.2536 -2.75,-0.45164 -9.725,-1.91784 -15.5,-3.25821 -5.775,-1.34037 -13.65,-2.92886 -17.5,-3.52996 -3.85,-0.60111 -11.62,-1.94064 -17.2667,-2.97675 -5.6467,-1.03611 -10.4815,-1.53627 -10.7441,-1.11148 -0.2625,0.4248 0.045,3.18216 0.6825,6.12747 0.7377,3.4063 1.1904,17.43627 1.244,38.55266 0.054,21.08715 0.4559,33.57003 1.1029,34.21862 0.5603,0.56159 5.0603,2.1325 10,3.49091 13.9261,3.82962 26.8172,7.91658 44.4814,14.10232 3.575,1.25191 8.525,2.94385 11,3.75986 2.475,0.81601 8.775,3.07286 14,5.01523 5.225,1.94237 11.075,4.07794 13,4.74571 1.925,0.66778 5.8725,2.28416 8.7722,3.59197 2.8996,1.30781 5.768,2.37784 6.3741,2.37784 0.6061,0 4.7586,1.59905 9.2278,3.55345 7.9329,3.46905 13.1549,5.70755 25.8759,11.09202 18.1718,7.69173 52.012,23.97123 66.25,31.87093 2.75,1.5258 6.35,3.5116 8,4.4129 4.751,2.5951 23.6477,14.0281 27.5,16.6382 7.7481,5.2495 10.1781,6.9761 21.308,15.1395 12.5771,9.2248 32.2356,27.6704 42.4098,39.793 8.3898,9.9964 21.9785,27.1741 27.2919,34.5 2.9918,4.125 5.6863,7.725 5.9879,8 0.7045,0.6425 14.8983,21.5663 18.994,28 0.5252,0.825 2.706,4.2 4.8463,7.5 14.885,22.9501 38.67,66.5349 51.8432,95 25.8088,55.7684 51.8037,128.5493 65.7185,184 11.3291,45.1464 18.227,86.989 22.585,137 1.1181,12.8313 3.5946,189.5483 2.6893,191.9074 -0.5577,1.4535 -39.1,1.5926 -441.1425,1.5926 C 914.93701,1788 736,1787.6331 736,1787.0967 Z M 474.06387,1678.7029 c 4.81935,-2.075 14.06333,-10.7331 16.37706,-15.3391 1.06751,-2.1251 4.11837,-7.5484 6.7797,-12.0518 5.38298,-9.109 13.65875,-26.3551 18.86438,-39.312 7.17874,-17.8681 2.5772,-30.7779 -12.80346,-35.9207 -13.02736,-4.356 -21.43874,-1.799 -33.50812,10.186 -6.73599,6.689 -16.49411,20.1777 -23.31949,32.2347 -4.06941,7.1886 -5.09516,8.3768 -13.73072,15.905 -14.40752,12.5602 -16.26235,22.6978 -5.91957,32.3536 4.95204,4.6232 16.73022,10.763 24.69635,12.874 6.0489,1.6029 17.80689,1.1185 22.56387,-0.9297 z m -125.3127,-98.1843 c 10.59387,-4.8408 16.09747,-12.285 16.96458,-22.9462 0.7393,-9.0899 6.50824,-20.4826 14.411,-28.4592 6.54928,-6.6105 10.59545,-9.5317 19.87325,-14.3478 8.889,-4.6143 10.07251,-5.3975 13.47412,-8.9168 5.31887,-5.5029 6.84438,-9.3995 6.24925,-15.9627 -1.35333,-14.9247 -19.42165,-29.0822 -37.19103,-29.1411 -8.88313,-0.029 -19.43148,3.4968 -30.04674,10.0443 -4.20074,2.591 -8.52035,5.2108 -9.59914,5.8218 -1.07879,0.611 -2.98607,2.0735 -4.2384,3.25 -1.25233,1.1765 -2.74987,2.1391 -3.32788,2.1391 -1.03924,0 -19.41846,17.7249 -22.32486,21.53 -11.50178,15.0586 -19.07398,33.5881 -20.62486,50.47 -1.10361,12.0132 3.04239,20.8838 11.97892,25.6296 7.0021,3.7184 11.02797,4.3228 25.90179,3.8884 11.17283,-0.3264 13.46275,-0.6976 18.5,-2.9994 z M 1060.7267,1364.778 c 5.3777,-1.7654 7.9243,-3.358 12.3923,-7.75 3.0931,-3.0404 6.0191,-6.2495 6.5024,-7.1313 0.7784,-1.4205 7.2646,-9.2704 11.3786,-13.7709 2.234,-2.4439 14.0572,-18.8246 18.1351,-25.1258 25.2744,-39.0532 38.9961,-83.0833 39.267,-126 0.1009,-15.9687 -1.0059,-21.7467 -4.9142,-25.6549 -0.7941,-0.7941 -1.7912,-2.0089 -2.2158,-2.6996 -1.9736,-3.21 -8.4583,-6.6802 -16.2727,-8.7082 -7.1844,-1.8644 -10.1239,-2.1147 -18.9994,-1.6172 -12.0797,0.677 -22.4435,3.2895 -26.8422,6.7663 -4.2044,3.3232 -6.6178,9.7134 -5.7238,15.1555 3.7094,22.5818 1.6042,52.5882 -5.1024,72.7236 -4.1241,12.382 -14.7814,32.8041 -25.2402,48.3664 -2.5253,3.7575 -5.2939,7.9012 -6.1525,9.2082 -2.868,4.366 -10.3661,12.8252 -17.6852,19.9522 -5.8592,5.7053 -7.6473,8.1968 -9.3406,13.0147 -3.0613,8.7097 -1.3291,16.4946 4.9278,22.1479 5.021,4.5365 17.5642,10.0724 28.6591,12.6487 4.7197,1.0959 10.9114,0.5476 17.2267,-1.5256 z M 541.29081,1196.3947 c 4.84592,-3.1211 7.47361,-6.6835 15.75669,-21.3612 2.93823,-5.2066 6.2339,-10.492 7.32371,-11.7454 1.7276,-1.9869 2.18308,-2.0978 3.55513,-0.8656 3.1119,2.7948 17.04807,7.5119 25.22079,8.5367 10.37377,1.3008 23.26254,1.3033 32.23432,0.01 13.76382,-1.9896 27.39611,-11.9072 33.44375,-24.3307 9.46909,-19.4521 10.00272,-35.1855 1.70539,-50.2806 C 658.58877,1092.8216 657,1089.79 657,1089.6175 c 0,-0.1726 1.9125,-1.1029 4.25,-2.0674 9.29329,-3.8347 16.57357,-7.0001 23.26453,-10.115 14.74853,-6.8661 19.13641,-19.5964 12.07268,-35.0256 -3.21337,-7.0189 -6.49211,-10.9338 -12.42279,-14.8332 l -4.66442,-3.0668 -14,0.098 c -13.80654,0.097 -14.152,0.1548 -25,4.1781 -20.57338,7.6302 -24.97397,9.3526 -28.4885,11.1502 -1.93132,0.9878 -6.8865,3.4477 -11.0115,5.4664 -9.62946,4.7124 -17.16422,8.8661 -20.8715,11.5059 -1.61548,1.1503 -3.16005,2.0915 -3.43238,2.0915 -0.59903,0 -9.64475,6.0498 -13.7843,9.2189 -24.56117,18.8036 -42.80439,37.7271 -56.4301,58.5344 -1.34945,2.0607 -2.80382,4.1967 -3.23193,4.7467 -1.69837,2.1819 -7.99899,13.4292 -11.76402,21 -3.402,6.8408 -4.03071,9.1261 -4.33898,15.7714 -0.31333,6.7545 -0.0238,8.4597 2.2125,13.0305 3.15169,6.4419 6.35229,9.5498 14.12965,13.7206 7.44487,3.9924 12.50231,4.9484 24.15929,4.5665 8.11216,-0.2657 9.65723,-0.6275 13.64258,-3.1943 z M 728.22976,969.42324 c 2.34863,-0.86721 7.64524,-3.18485 11.77024,-5.15031 4.125,-1.96546 9.975,-4.6909 13,-6.05654 10.20003,-4.60483 15.46744,-7.03184 23.07459,-10.63182 4.16603,-1.97151 8.12588,-3.58457 8.79966,-3.58457 0.67379,0 2.53277,-0.67624 4.13108,-1.50276 1.5983,-0.82651 8.82355,-3.04911 16.05611,-4.9391 7.23256,-1.88999 13.32791,-3.61416 13.54524,-3.83149 0.21733,-0.21732 -0.11657,-4.18223 -0.74198,-8.81089 -1.42106,-10.51714 -0.54978,-36.16797 1.63988,-48.27891 0.88136,-4.87472 1.43118,-9.03442 1.22184,-9.24377 -1.26911,-1.26911 -37.65119,9.01961 -52.72642,14.91084 -12.25188,4.7879 -36.18303,16.84197 -42.82208,21.56939 -1.64266,1.16968 -3.32472,2.12669 -3.7379,2.12669 -0.41318,0 -2.36166,1.2375 -4.32996,2.75 -4.38216,3.36739 -5.30129,3.93719 -12.74842,7.90315 -10.69301,5.69453 -17.36974,14.04964 -17.35606,21.71897 0.0194,10.88122 9.89569,25.62042 20.49442,30.58551 5.04872,2.36513 14.98122,2.58822 20.72976,0.46561 z M 1115.2652,719.81408 1167.5,719.5 l 6.5,-3.69432 c 9.7022,-5.51434 14,-13.50258 14,-26.02179 0,-14.8505 -5.0136,-23.24294 -17,-28.4566 l -6.5,-2.82729 -50.75,-0.29294 -50.75,-0.29294 v -40.51424 c 0,-27.46526 -0.375,-42.02572 -1.1642,-45.20706 -2.0646,-8.32221 -6.0429,-13.19072 -14.3358,-17.54351 -5.9591,-3.12786 -6.1027,-3.14931 -21.0771,-3.14931 -13.8547,0 -15.5167,0.19852 -20.5,2.44861 -6.40936,2.894 -9.36896,5.29758 -12.37656,10.05139 -4.1894,6.62148 -4.5463,10.81436 -4.5463,53.39913 v 40.5135 l -49.75,0.29368 L 889.5,658.5 883,661.32729 c -9.1214,3.96751 -13.65748,9.08499 -15.83579,17.86553 -2.51052,10.11967 -0.87281,22.13799 4.01223,29.44362 3.01312,4.50616 12.87505,9.98855 19.12932,10.63428 l 4.80576,0.49618 13.37617,-11.38345 C 915.84458,702.12255 922.28939,697 922.80948,697 c 0.5201,0 1.52896,-0.70287 2.24193,-1.56194 1.13678,-1.36975 8.91933,-7.00698 13.76273,-9.96902 0.9272,-0.56703 4.2354,-2.69407 7.3515,-4.72676 l 5.6656,-3.6958 4.3344,2.54036 c 14.086,8.25574 33.1794,21.95523 47.83436,34.32101 7.7067,6.5029 34.0084,32.76431 39,38.94025 1.925,2.38175 4.175,5.04534 5,5.9191 1.7883,1.89396 5.7254,6.83753 8.5,10.67285 1.1,1.52053 2.9,3.94548 4,5.38877 l 2,2.62416 0.2652,-28.66241 0.2653,-28.6624 z M 4.965986e-7,1761.6137 v -24.1194 L 65.959751,1671.5402 c 36.277869,-36.2747 66.104099,-65.7484 66.280529,-65.4971 0.17642,0.2513 1.83549,4.2819 3.68682,8.9569 1.85132,4.675 5.05764,11.8931 7.12515,16.0402 l 3.7591,7.5402 -73.405679,73.5763 L 4.9659859e-7,1785.7331 Z M 1916.242,1526.3693 c -0.5575,-3.2281 -2.0588,-12.0751 -3.3362,-19.66 l -2.3226,-13.7906 68.7084,-68.7085 68.7084,-68.7084 v 23.002 23.0019 l -65.3721,65.3664 -65.3722,65.3665 z M 4.965986e-7,1485.6004 v -24.1027 L 162.6184,1298.9988 325.2368,1136.5 319.369,1148 c -7.23168,14.173 -26.13794,42.7407 -41.05393,62.0333 -6.15171,7.9567 -22.94446,28.6417 -37.31722,45.9667 -14.37275,17.325 -31.54788,38.475 -38.16695,47 -10.70297,13.7849 -22.59088,26.0787 -107.432779,111.1015 L 4.9659866e-7,1509.7031 Z M 1852.883,1294.6007 1846.3093,1278.187 1947.1546,1177.3454 2048,1076.5037 v 23.6504 23.6505 l -93.5603,93.3477 c -51.4581,51.3412 -93.8803,93.4634 -94.2716,93.6049 -0.3912,0.1415 -3.6695,-7.1289 -7.2851,-16.1565 z M 4.965986e-7,1210.6867 v -21.8528 L 215.75,972.40581 431.5,755.97775 l 0.87004,5.26113 c 0.47852,2.89361 1.89305,11.33612 3.14339,18.76112 l 2.27335,13.5 -9.59174,10 c -5.27546,5.5 -103.77749,104.28389 -218.8934,219.5198 L 4.965986e-7,1232.5395 Z M 1755.3657,1110.6114 l -9.035,-13.4445 150.8477,-150.83347 150.8478,-150.83343 -0.2631,23 -0.2631,23 -141.5497,141.27797 -141.5496,141.27793 z M 1630,959.03157 1618.5,948.14209 1833.2628,733.32105 2048.0256,518.5 l -0.2628,23 -0.2628,23 -203,202.71052 -203,202.71052 z M 0.2316175,931.87564 0.5000005,910.25127 454.5,455.37564 908.5,0.5 931.43554,0.23111362 c 12.6146,-0.1478875 22.7274,-0.1478875 22.4731,0 C 953.65424,0.37900113 738.91247,214.925 476.70468,477 L -0.0367645,953.5 Z M 1511.5357,818.5 c 0.3762,-3.3 1.9324,-14.9477 3.4582,-25.88379 l 2.7741,-19.88378 265.1288,-265.11622 265.1288,-265.11621 -0.2628,23 -0.2628,23 -268.3242,268 -268.3242,268 z M 4.965986e-7,655.5038 V 633.5087 L 155.75734,477.50435 C 241.42388,391.70196 383.72476,249.15431 471.98153,160.7318 L 632.44837,-0.03640115 654.72582,0.23179943 677.00327,0.5 338.50164,338.99945 4.965986e-7,677.49889 Z M 1471.7408,563.66968 1463.9816,550.51972 1739.2401,275.25986 2014.4986,0 h 6.1784 c 13.9213,0 27.883,3.3011454 27.1352,6.4158913 C 2047.6405,7.1310102 1919.7,135.7644 1763.5,292.26788 l -284,284.55177 z M 1332,429.84386 c -6.325,-4.39426 -12.175,-8.38751 -13,-8.8739 -1.1624,-0.68532 45.7578,-48.15195 208.4991,-210.92714 L 1737.4982,0 h 23.0001 23 L 1564.5,219 c -120.4491,120.45 -219.4487,218.96252 -219.9991,218.91671 -0.5505,-0.0458 -6.1759,-3.67859 -12.5009,-8.07285 z M 4.965986e-7,377.98158 V 355.49789 L 177.77041,177.72958 355.54083,-0.03872446 378.02041,0.23063777 400.5,0.5 200.25,200.48264 4.965986e-7,400.46527 Z M 1201.6141,301.5 c 0.3492,-2.75 2.1591,-10.85 4.022,-18 1.8628,-7.15 4.6193,-18.28549 6.1255,-24.74554 L 1214.5,247.00892 1338.0209,123.4851 1461.5417,-0.03872213 1484.2732,0.23063894 1507.0046,0.5 l -153.0127,153 -153.0128,153 z M 0.0035515,101.99698 0.0071035,79.5 39.745321,39.731844 79.483551,-0.03631108 101.74588,0.23184446 124.00821,0.5 62.004101,62.496976 4.965986e-7,124.49395 Z M 1141.4968,79.430993 c -2.7482,-1.962955 -8.7445,-5.839431 -13.3251,-8.614393 l -8.3282,-5.045385 32.3282,-32.757508 L 1184.5,0.2561999 1207.4955,0.12809995 1230.491,0 1189,41.5 c -22.82,22.825 -41.7194,41.5 -41.9987,41.5 -0.2792,0 -2.7563,-1.606053 -5.5045,-3.569007 z"
       id="path1" />
  </g>
</svg>
