<?xml version="1.0" encoding="UTF-8" standalone="no"?>
<!-- Created with Inkscape (http://www.inkscape.org/) -->

<svg
   version="1.1"
   id="svg1"
   width="2048"
   height="2048"
   viewBox="0 0 2048 2048"
   xmlns="http://www.w3.org/2000/svg"
   xmlns:svg="http://www.w3.org/2000/svg">
  <defs
     id="defs1" />
  <g
     id="g1">
    <path
       style="fill:#000000"
       d="M 7.1543588,2044.4764 C 3.2640658,2041.203 1.1490298,2034.4909 0.38696482,2023 l -0.563713,-8.5 120.00199818,-119.9121 120.002,-119.912 6.28736,5.6897 c 3.45804,3.1293 9.09231,7.5898 12.52059,9.9121 l 6.23324,4.2223 -125.68422,125.9918 c -69.126322,69.2955 -126.409663,126.1312 -127.296315,126.3015 -0.886652,0.1703 -3.0167482,-0.8723 -4.7335462,-2.3169 z M 363.69581,1924.75 c 100.95547,-100.8676 122.87656,-122.3048 125.32993,-122.5633 1.63539,-0.1724 10.60235,0.6151 19.92657,1.75 9.32422,1.1348 17.31121,2.0633 17.74886,2.0633 0.43764,0 -53.42788,54.225 -119.70117,120.5 L 286.50311,2047 h -22.58189 -22.58189 z m 261.49845,15.5 C 728.48873,1837.1117 732.231,1833.5 735.80296,1833.5 c 2.03337,0 11.73926,0.3945 21.56864,0.8766 l 17.8716,0.8767 L 669.37337,1941.1266 563.50354,2047 h -22.61047 -22.61046 z m 308.241,-32.2112 139.03434,-138.9611 2.5152,1.6662 c 1.3834,0.9164 7.5326,4.8822 13.6649,8.8129 l 11.1498,7.1466 L 969.64836,1916.8517 839.49714,2047 h -22.54816 -22.54815 z m 249.70934,33.2112 c 99.9693,-99.798 106.1687,-105.7897 110.1435,-106.456 2.3165,-0.3883 13.4038,-1.4454 24.6384,-2.3491 11.2346,-0.9038 21.1346,-1.8819 22,-2.1736 0.8654,-0.2918 -47.2507,48.3528 -106.9248,108.0991 L 1124.5035,2047 h -23.6453 -23.6453 z m 257.8198,18.4933 c 48.1446,-47.9911 104.1936,-103.7911 124.5535,-124 l 37.0178,-36.7433 5.9822,0.01 c 6.1173,0.01 25.0991,1.459 33.868,2.5876 l 4.886,0.6289 -122.3844,122.3874 L 1402.5031,2047 h -24.5371 -24.5371 z m 295.4968,-18.489 c 58.3214,-58.1601 152.2829,-151.8726 208.8035,-208.25 l 102.7646,-102.5043 -0.2646,23.5 -0.2647,23.5 -185.0142,184.75 -185.0141,184.75 h -23.5246 -23.5247 z m 205.9796,69.9957 c 19.832,-19.6625 51.696,-51.2664 70.8087,-70.2308 L 2048,1906.5383 v 22.6743 22.6742 l -49.4255,47.5566 L 1949.149,2047 h -21.3833 -21.3832 z M -1.7687088e-7,1761.6063 v -24.1051 L 307.08498,1430.415 l 307.08497,-307.0862 11.16503,11.4107 c 6.14076,6.2758 11.31347,11.8222 11.49492,12.3253 C 637.19151,1148.0673 287.18843,1499 285.82691,1499 c -4.34468,0 -41.02224,17.0154 -54.82691,25.4353 -18.34435,11.1887 -37.30372,28.2818 -46.65933,42.0665 -9.4978,13.9942 -16.63088,32.3628 -18.13661,46.7041 L 165.5,1619.9117 82.749998,1702.8115 -1.7687091e-7,1785.7113 Z M 758.5,1774.9292 c -7.15762,-0.7141 -77.78072,-10.4605 -242.5,-33.4664 -29.975,-4.1865 -59,-7.849 -64.5,-8.1389 -6.24731,-0.3293 -15.06613,0.073 -23.5,1.0733 -7.425,0.8802 -17.1,1.6092 -21.5,1.6199 -21.83722,0.053 -58.62186,8.9973 -78.92341,19.1899 -9.41556,4.7271 -15.43112,8.7095 -21.26019,14.0747 l -4.1836,3.8506 -1.48209,-2.3161 c -0.81515,-1.2739 -22.70957,-37.1401 -48.65427,-79.7026 l -47.17219,-77.3863 6.83788,-6.9472 c 13.95867,-14.182 21.13051,-19.0488 46.83787,-31.7842 39.53176,-19.584 71.60248,-29.9594 111.15547,-35.9604 21.58629,-3.2752 35.29726,-4.0141 74.84453,-4.0337 20.9,-0.01 43.00375,-0.4619 49.11944,-1.0033 10.72782,-0.9497 12.10141,-0.8281 39,3.4536 65.50695,10.4273 189.51257,27.5484 199.50781,27.5455 11.86758,0 33.8179,-1.7747 44.22427,-3.5685 14.42304,-2.4863 23.4498,-5.8666 36.2728,-13.5834 34.06412,-20.4997 49.69025,-33.5257 70.16697,-58.4916 l 4.22058,-5.1458 -8.75593,-1.1625 c -52.57267,-6.9795 -110.22602,-20.6607 -166.30907,-39.4653 -25.66772,-8.6063 -29.49501,-10.1456 -29.2084,-11.7476 0.13116,-0.7331 22.56224,-56.6829 49.84684,-124.3329 27.2846,-67.65 50.44199,-125.0963 51.46085,-127.6585 l 1.85249,-4.6584 -23.69933,-14.2108 c -46.3391,-27.7862 -75.96301,-48.9242 -94.56408,-67.4758 -18.93879,-18.8883 -29.77157,-34.6131 -46.15387,-66.9965 -18.24664,-36.0687 -25.51823,-60.35645 -31.13692,-104 -2.50794,-19.48056 -2.5261,-64.66082 -0.0332,-82.5 7.66566,-54.85461 27.73687,-112.68555 51.54215,-148.50773 14.70494,-22.128 37.87542,-47.60233 60.14656,-66.12696 4.675,-3.88856 18.625,-14.87432 31,-24.41281 38.21016,-29.45186 85.21551,-67.54245 114,-92.37939 34.74095,-29.97653 71.27664,-66.29552 106.8323,-106.19869 l 8.1314,-9.12559 -7.7319,-4.49748 c -25.7816,-14.99676 -46.45826,-37.66663 -55.97686,-61.37301 -14.24912,-35.48786 -13.5286,-79.52628 1.83763,-112.31696 6.54621,-13.96924 16.2002,-27.4513 28.35913,-39.6043 19.6532,-19.64357 40.2042,-30.90843 66.8146,-36.62387 13.58494,-2.91778 41.68284,-3.19231 54.91594,-0.53656 17.5616,3.52443 33.4321,10.04557 48.3178,19.85363 10.5232,6.93364 32.4161,28.8265 39.3497,39.34972 14.0794,21.36825 20.7401,42.57652 21.8273,69.5 2.1408,53.01087 -20.6857,94.90867 -66.4404,121.951 l -7.2635,4.29289 6.7357,7.62805 c 32.545,36.85654 68.9847,74.16111 95.2912,97.55276 32.6659,29.04643 79.5168,67.04196 123.8936,100.47612 13.4164,10.10819 29.1664,22.47297 35,27.4773 38.6134,33.12475 66.42,71.11346 82.436,112.62188 12.9355,33.52513 22.1377,68.70639 27.3334,104.5 4.1293,28.44723 1.1121,80.31562 -6.835,117.5 -7.8874,36.90495 -26.0246,76.4962 -49.247,107.5 -23.0101,30.7203 -54.4597,55.8212 -118.2908,94.4117 l -20.2098,12.2183 1.859,4.685 c 1.0224,2.5767 24.1845,60.035 51.4712,127.685 27.2868,67.65 49.7197,123.6215 49.8509,124.381 0.1649,0.9552 -5.0773,3.1961 -16.9993,7.2668 -56.0651,19.1431 -120.7496,35.4057 -168.2622,42.3034 -9.625,1.3974 -17.8674,2.5425 -18.3164,2.5447 -3.3322,0.017 27.9042,33.2838 39.3508,41.9091 17.9541,13.5288 43.8238,28.5084 55.2287,31.9796 13.0682,3.9774 39.3614,7.1154 59.6205,7.1154 8.383,0 146.5541,-19.1251 202.0219,-27.963 24.2078,-3.8572 25.9051,-4.0007 36,-3.0433 5.827,0.5525 27.9195,1.0096 49.0945,1.0158 42.0834,0.012 54.7572,0.7544 77.7076,4.551 39.9148,6.6028 77.4476,19.0045 112.2924,37.104 21.5764,11.2074 27.943,15.5194 40.1526,27.1951 l 10.1436,9.7001 -46.8157,75.9702 c -25.7486,41.7835 -47.8917,77.6905 -49.2068,79.7933 l -2.3912,3.8232 -4.4123,-4.0671 c -8.8831,-8.1882 -23.2743,-15.9771 -39.5393,-21.3999 -21.5104,-7.1716 -44.5605,-11.6619 -59.9309,-11.6747 -4.675,0 -14.575,-0.7273 -22,-1.6075 -8.4019,-0.996 -17.2764,-1.4033 -23.5,-1.0786 -5.5,0.2869 -74.575,9.5349 -153.5,20.5511 -78.925,11.0161 -148.1602,20.5021 -153.856,21.0798 -21.4191,2.1727 -46.767,1.0262 -68.0618,-3.0784 -29.28,-5.6438 -66.384,-20.8054 -91.6742,-37.4603 -19.7684,-13.0185 -65.6098,-52.8584 -76.6508,-66.6157 -8.7808,-10.9411 -19.2661,-35.8904 -24.8145,-59.0451 -1.285,-5.3625 -2.5853,-9.7475 -2.8895,-9.7445 -0.3043,0 -2.0546,5.5155 -3.8896,12.25 -6.8016,24.9621 -16.1735,46.3262 -26.10254,59.503 -12.379,16.4281 -44.7676,44.0092 -70.2517,59.8241 -29.58342,18.3588 -71.48073,35.8472 -98.96815,41.3104 -19.73377,3.922 -45.59927,5.1059 -66.34125,3.0362 z M 970.67696,1565.5 c 10.0561,-25.0587 15.421,-47.5232 16.9325,-70.9023 L 988.29456,1484 h -16.121 -16.121 l -4.7763,7.5948 c -21.9669,34.9298 -46.59331,63.791 -71.7841,84.1282 l -3.99216,3.223 44.97996,-0.223 44.98,-0.223 z M 1166,1575.3171 c -8.6154,-6.9761 -32.6869,-31.8905 -41.3685,-42.8171 -4.807,-6.05 -14.4067,-19.4375 -21.3329,-29.75 l -12.593,-18.75 h -16.0052 -16.0052 l 0.6505,11.3895 c 1.4878,26.0498 9.9527,58.6337 20.7105,79.7207 l 1.9844,3.8898 44.2297,-0.02 44.2297,-0.019 z M 1288.4556,1403.25 c -0.8641,-2.0625 -10.1625,-24.675 -20.663,-50.25 -10.5006,-25.575 -19.4346,-46.8875 -19.8534,-47.3612 -0.9791,-1.1071 -14.3046,-3.8497 -39.4392,-8.117 -104.4055,-17.7259 -234.56824,-19.2309 -342,-3.9544 -26.55956,3.7767 -62.90374,10.503 -64.30107,11.9003 -0.65554,0.6556 -42.11357,99.9088 -41.8452,100.1802 0.0804,0.081 8.47127,-1.7689 18.64627,-4.1116 155.99336,-35.9159 341.5687,-35.2234 495.5,1.8492 7.7,1.8544 14.3435,3.4263 14.7634,3.4931 0.4199,0.067 0.056,-1.5661 -0.8078,-3.6286 z M 862,1198.0381 c 78.19336,-12.3552 172.1534,-15.2674 257.8307,-7.9913 25.4407,2.1606 56.0219,5.8508 74.0677,8.9377 6.3171,1.0806 11.5771,1.8637 11.6889,1.7401 0.1118,-0.1235 -6.2533,-15.7496 -14.1447,-34.7246 l -14.3479,-34.5 -0.047,-13.6387 -0.047,-13.6387 -3.25,-0.5816 c -13.0354,-2.3326 -52.9308,-6.4591 -85.25,-8.8175 -22.3974,-1.6344 -104.56794,-1.6358 -127.50004,0 -30.7303,2.1891 -71.58668,6.3394 -85.63058,8.6985 l -3.13062,0.5259 -0.72462,13.7271 -0.72463,13.7271 -10.98731,28.5 c -6.04302,15.675 -12.06335,31.3466 -13.37851,34.8259 l -2.39119,6.3259 2.73375,-0.5693 c 1.50356,-0.3131 8.35875,-1.4581 15.23375,-2.5444 z m 173.2008,-224.16248 c 13.814,-2.93104 21.749,-10.86567 24.676,-24.67484 0.7377,-3.48032 1.1232,-21.05663 1.1232,-51.20706 v -45.90784 l 50.8529,-0.29294 50.8528,-0.29294 6.8972,-3.50811 c 5.3329,-2.71253 7.6311,-4.6045 10.1335,-8.34266 4.5543,-6.80316 5.7177,-11.61516 5.7177,-23.64923 0,-12.03407 -1.1634,-16.84607 -5.7177,-23.64923 -2.5024,-3.73816 -4.8006,-5.63013 -10.1335,-8.34266 L 1162.7057,780.5 1111.8529,780.20706 1061,779.91412 v -47.79028 c 0,-31.92549 -0.3803,-49.68409 -1.1457,-53.49511 -2.256,-11.23353 -10.5036,-20.66859 -20.677,-23.65397 -6.2716,-1.84042 -18.6477,-2.33916 -25.3458,-1.0214 -14.76404,2.90466 -22.67904,10.55413 -25.70824,24.84586 -0.7416,3.49868 -1.1233,21.57684 -1.1233,53.20631 v 47.9071 l -49.8529,0.29368 -49.85288,0.29369 -6.89709,3.50811 c -7.54646,3.8384 -12.24745,9.41586 -14.61052,17.33455 -1.60216,5.36886 -1.60216,23.94582 0,29.31468 2.36323,7.91923 7.06399,13.49615 14.61123,17.33455 l 6.89781,3.50811 33.60215,0.65579 c 18.4813,0.36068 40.9147,0.69818 49.8522,0.75 l 16.25,0.0942 v 45.45078 c 0,29.8123 0.3865,47.27411 1.1233,50.75 2.8773,13.57517 10.0867,21.09711 23.37674,24.3902 6.4218,1.59123 16.947,1.71764 23.7008,0.28464 z M 1870,1577.1861 c 0,-1.3727 -8.9552,-14.3666 -13.912,-20.1861 l -4.6846,-5.5 98.2983,-97.893 98.2983,-97.893 v 22.8951 22.8951 l -88.2521,88.2479 c -48.5387,48.5364 -88.5887,88.2479 -89,88.2479 -0.4113,0 -0.7479,-0.3663 -0.7479,-0.8139 z M -1.7687088e-7,1485.5384 v -24.0398 L 265.3683,1196.1317 c 145.95257,-145.9518 265.59638,-264.97648 265.87513,-264.4993 0.27876,0.47718 0.82263,3.5676 1.2086,6.8676 0.38597,3.3 1.8207,11.80061 3.18828,18.89025 l 2.48652,12.89026 -13.28063,13.60974 c -7.30435,7.48536 -128.38289,128.82735 -269.06342,269.64885 L -1.7687074e-7,1509.5781 Z M 556.74531,1478.6166 537.99063,1476.5 l 53.10059,-53 c 29.20533,-29.15 52.85752,-52.1 52.56044,-51 -1.94762,7.2114 -2.90981,16.0223 -3.27613,30 l -0.41932,16 -31.22215,31.25 c -17.17219,17.1875 -31.67483,31.19 -32.22811,31.1166 -0.55327,-0.073 -9.44556,-1.0858 -19.76064,-2.25 z M 1681.5,1479.2624 c -4.95,-0.7437 -14.29,-1.8945 -20.7555,-2.5573 l -11.7555,-1.2051 199.5181,-199.5 199.518,-199.5 -0.2626,24 -0.2625,24 -178.5,178.0573 -178.5,178.0573 z m -277.8238,-2.6867 c -5.3818,-4.9876 -5.9574,-11.3819 -2.4608,-27.3344 l 2.2486,-10.2587 322.2867,-321.594 322.2867,-321.59406 -0.2687,22.85273 L 2047.5,841.5 1728.2299,1160 c -175.5986,175.175 -319.8522,318.6293 -320.5636,318.7874 -0.7114,0.1581 -2.507,-0.8372 -3.9901,-2.2117 z m -44.7019,-236.7742 c -2.4264,-10.1825 -3.0812,-26.9175 -1.1867,-30.3329 0.6006,-1.0827 156.1441,-156.9934 345.6522,-346.46806 L 2048,518.50109 v 22.53456 22.53455 l -342.5147,342.4649 c -188.383,188.3557 -342.9151,342.6006 -343.4045,342.7664 -0.4895,0.1659 -1.8874,-3.8841 -3.1065,-9 z M 0.23176782,1210.4642 0.49999982,1188.3524 421.40788,766.13409 C 652.90721,533.91401 842.66023,344.27221 843.08126,344.70788 c 0.80898,0.83712 8.18775,24.4787 9.39117,30.08934 0.78193,3.64552 24.92471,-20.68583 -643.21682,648.24078 L -0.03646318,1232.576 Z m -1.5e-4,-278.58856 0.268382,-21.62437 L 454.5,455.37564 908.5,0.5 931.43556,0.23111362 c 12.6146,-0.1478875 22.7274,-0.1478875 22.4731,0 C 953.65426,0.37900113 738.91247,214.925 476.70468,477 L -0.03676518,953.5 Z M 1513.6211,819.94097 c -0.2545,-0.79253 -1.4233,-6.84097 -2.5972,-13.44097 -1.174,-6.6 -2.7275,-14.30742 -3.4523,-17.12759 l -1.3178,-5.12759 270.886,-270.87241 270.8861,-270.87241 -0.263,23 -0.2629,23 -266.7081,266.44097 c -169.2017,169.03226 -266.8773,265.91417 -267.1708,265 z M -1.7687088e-7,655.5038 V 633.5087 L 155.75734,477.50435 C 241.42388,391.70196 383.72476,249.15431 471.98153,160.7318 L 632.44837,-0.03640115 654.72582,0.23179943 677.00327,0.5 338.50164,338.99945 -1.7687088e-7,677.49889 Z M 1428.32,623.29541 c -1.1678,-1.53748 -5.5502,-6.61243 -9.7387,-11.27768 l -7.6155,-8.48226 L 1712.7323,301.76773 2014.4988,0 h 6.1782 c 13.9182,0 27.8835,3.3012229 27.1352,6.414386 -0.1717,0.7142909 -139.15,140.433694 -308.8406,310.487564 L 1430.4433,626.09081 Z M 1273.5,487.82203 c -6.6,-5.52874 -12.1126,-10.33821 -12.2502,-10.68773 -0.1376,-0.34951 106.9715,-107.85643 238.0202,-238.90425 L 1737.5403,-0.03872581 1760.272,0.23063709 1783.0037,0.5 1534.2518,249.18713 1285.5,497.87427 Z M -1.7687088e-7,377.98158 V 355.49789 L 177.77041,177.72958 355.54083,-0.03872446 378.02041,0.23063777 400.5,0.5 200.25,200.48264 -1.7687088e-7,400.46527 Z M 1216.3404,277.90835 c 0.088,-7.37459 -0.1947,-17.45835 -0.6278,-22.40835 l -0.7875,-9 123.3083,-123.26936 123.3083,-123.2693621 22.7315,0.26936105 L 1507.0047,0.5 1361.5927,145.90835 1216.1807,291.31669 Z M 0.00355182,101.99698 0.00710282,79.5 39.745328,39.731844 79.483548,-0.03631108 101.74588,0.23184446 124.00821,0.5 62.004108,62.496976 -1.7687088e-7,124.49395 Z M 1115.5,103.81444 c -3.85,-2.22039 -10.2915,-5.496231 -14.3144,-7.279646 -4.023,-1.783415 -7.3319,-3.579602 -7.3532,-3.991528 -0.021,-0.411926 20.564,-21.410916 45.745,-46.664423 l 45.7837,-45.91546763 22.324,0.26831231 L 1230.0091,0.5 1176.2546,54.175758 1122.5,107.85152 Z"
       id="path1" />
  </g>
</svg>
