<?xml version="1.0" encoding="UTF-8" standalone="no"?>
<!-- Created with Inkscape (http://www.inkscape.org/) -->

<svg
   version="1.1"
   id="svg1"
   width="2048"
   height="2048"
   viewBox="0 0 2048 2048"
   xmlns="http://www.w3.org/2000/svg"
   xmlns:svg="http://www.w3.org/2000/svg">
  <defs
     id="defs1" />
  <g
     id="g1">
    <path
       style="fill:#000000"
       d="m 7.0931758,2044.425 c -3.77088,-3.173 -5.87967,-9.7992 -6.75891002,-21.2377 l -0.64383,-8.376 219.66737422,-219.6691 219.66736,-219.6691 11.97462,-43.9865 11.97461,-43.9866 -12.2372,-69.7465 c -6.73046,-38.3606 -12.47153,-69.7481 -12.75793,-69.75 -0.28641,0 -98.94891,98.4525 -219.25,218.7877 L -4.2176872e-6,1785.5824 v -24.0421 -24.042 L 215.5,1522 C 334.025,1403.476 431,1305.8756 431,1305.1104 c 0,-0.7652 -1.0125,-3.4223 -2.25,-5.9047 -2.91837,-5.854 -9.22709,-10.5633 -25.93919,-19.3628 -23.21242,-12.2221 -32.96141,-19.3875 -71.89702,-52.8429 -10.56153,-9.075 -20.76401,-17.8125 -22.67218,-19.4167 l -3.46939,-2.9167 L 152.38611,1357.1474 -4.2176872e-6,1509.6281 v -24.0627 -24.0627 L 139.69271,1321.8073 279.38542,1182.1119 264.44088,1166.806 c -32.91178,-33.7077 -55.73256,-67.9433 -72.10802,-108.1759 -2.4916,-6.1216 -4.83961,-11.4614 -5.21782,-11.8664 -0.37821,-0.405 -42.63381,41.2398 -93.901344,92.5438 L -4.2176872e-6,1232.5877 v -22.0417 -22.0418 L 88.167416,1100.3326 176.33484,1012.1609 173.19965,997.83047 C 168.87197,978.04926 168.28164,974.67234 166.06193,957 c -5.70941,-45.45584 -5.01517,-75.11705 2.50441,-107 9.95655,-42.2157 32.92258,-87.09141 65.59898,-128.18068 C 241.43837,712.67375 219.81564,733.83269 121.56955,832 l -121.59751422,121.5 0.26398,-21.62436 0.26398,-21.62437 L 454.5,455.37564 908.49996,0.5 931.06266,0.23203005 953.62526,-0.0359399 622.56261,331.13549 C 440.47817,513.27978 293.86552,660.39343 296.75672,658.05472 c 8.57359,-6.93525 31.89991,-22.0975 44.24521,-28.75966 21.80093,-11.7649 47.95969,-21.81517 74.49807,-28.62236 30.73225,-7.88295 53.01266,-10.63309 92,-11.35586 31.47529,-0.58351 48.44226,0.47077 72.87875,4.52848 l 10.53001,1.74852 143.27352,-143.27612 143.27348,-143.27612 -1.8458,-3.12473 c -6.2308,-10.54791 -6.0415,-31.01046 0.3831,-41.40564 1.2031,-1.94663 4.1346,-4.87903 6.5145,-6.51646 6.979,-4.80166 13.6382,-5.99477 33.4594,-5.99477 h 17.5467 l 27.1804,-27.25 27.1805,-27.25 0.3127,-21.1045 0.3127,-21.1045 3.5082,-6.8955 c 5.4993,-10.80945 12.88654,-14.97845 28.49184,-16.07934 8.9081,-0.62843 17.1746,0.7125 23.1279,3.75161 l 3.8721,1.97667 68.9428,-69.022222 L 1185.3856,0 h 22.555 22.555 L 1144.7478,85.752168 1059,171.50434 V 211.75217 252 h 45.9508 c 29.2937,0 47.787,0.3938 51.0163,1.08635 11.2268,2.40774 19.228,11.1671 21.3116,23.33127 l 1.1409,6.66019 141.5609,-141.55827 141.5609,-141.5582631 22.7291,0.26936155 L 1506.9996,0.5 1280.0432,227.46008 c -124.826,124.82805 -226.8558,227.06065 -226.7329,227.18357 0.1229,0.12291 4.7898,1.15404 10.371,2.29139 43.3463,8.83344 83.5828,35.19534 112.007,73.38416 4.0197,5.40056 8.5026,11.85684 9.9621,14.34729 l 2.6537,4.52808 L 1462.9027,274.59728 1737.5014,0 h 22.9986 22.9987 l -290.4249,290.42622 -290.4249,290.42622 2.0926,7.32378 c 4.6116,16.13935 7.2186,34.82466 7.2305,51.82378 0.01,8.91596 -2.2111,34.10404 -3.5471,40.29373 l -0.603,2.79373 6.5856,-4.03082 c 14.1746,-8.67581 37.9868,-19.11752 81.5925,-35.77848 48.7064,-18.60984 73.9558,-27.33469 101,-34.90026 l 12.5,-3.49685 L 1712.0006,302.44053 2014.5012,0 h 6.1771 C 2033.9113,0 2048,3.1505484 2048,6.1097721 2048,6.6918986 1916.614,138.84437 1756.0312,299.78193 c -160.5829,160.93756 -291.8184,292.76416 -291.6346,292.948 0.1838,0.18384 7.481,-0.61551 16.2159,-1.77634 39.1317,-5.20047 89.02,-4.00271 128.3875,3.08242 20.8331,3.74942 49.3404,11.80161 63,17.79507 l 4.5,1.97447 L 1862.25,428.15378 2048,242.50202 v 22.55754 22.55754 l -170,169.9123 c -93.5,93.45177 -169.9995,170.15043 -169.999,170.44145 6e-4,0.29103 2.2588,1.79723 5.0183,3.3471 9.3419,5.2469 28.4287,18.3006 38.9807,26.65941 20.6974,16.39548 53.9369,52.33402 70.5259,76.25263 L 1826.5,739.95997 1937.25,629.23168 2048,518.50338 V 541.11419 563.725 L 1946.0684,665.6125 1844.1368,767.5 l 4.5682,8 c 15.3572,26.89398 27.7649,61.50952 33.423,93.24459 3.8805,21.76443 3.5038,67.07447 -0.7515,90.41861 -0.5211,2.85862 11.3744,-8.62895 83.0076,-80.16095 L 2048,795.50449 v 22.57514 22.57514 l -89.8308,89.71507 c -88.1533,88.03986 -89.8637,89.82166 -91.5976,95.42266 -4.0757,13.1658 -12.2548,33.6996 -19.0998,47.9503 -21.9362,45.6695 -46.6731,77.1434 -94.4718,120.2006 -57.543,51.835 -80.4963,69.7344 -107.6307,83.9327 -14.2035,7.432 -20.7409,12.1288 -24.5486,17.6367 -2.5769,3.7276 -3.8009,10.1237 -18.7981,98.2316 l -16.0418,94.2444 5.121,19.2556 c 2.8166,10.5906 5.3145,19.4617 5.5509,19.7135 0.2364,0.2519 101.8862,-100.9978 225.8886,-224.9992 L 2048,1076.5017 v 23.5656 23.5656 l -220.7212,220.6229 -220.7212,220.6229 22.6602,84.8106 22.6603,84.8107 -2.1891,2.3442 c -6.1608,6.5973 -30.5958,20.5635 -49.689,28.4004 -50.98,20.9249 -128.0371,38.5865 -226,51.7994 l -22.5,3.0347 -113.5016,113.4607 L 1124.4967,2047 h -23.6364 -23.6364 l 110.3793,-110.1754 c 60.7087,-60.5964 110.2358,-110.319 110.0602,-110.4945 -0.1755,-0.1756 -10.4091,0.5579 -22.7413,1.63 -57.2756,4.9789 -107.236,7.5683 -176.4221,9.1437 l -50,1.1385 L 943.99826,1942.6212 839.49645,2047 h -22.565 -22.56499 l 104.2918,-104.1916 c 57.3605,-57.3054 104.19054,-104.2722 104.06684,-104.3706 -0.1238,-0.098 -14.62514,-0.4732 -32.22514,-0.8329 -36.9649,-0.7554 -78.554,-2.1805 -106.49996,-3.6494 -23.70463,-1.246 -75.52206,-4.7777 -79.06393,-5.3887 -2.2704,-0.3917 -15.09198,12.0861 -111.99828,108.9954 L 563.50342,2047 h -22.60621 -22.60622 l 111.37712,-111.2217 111.37712,-111.2216 -26.77261,-3.1647 C 656.46109,1814.5583 588.1267,1803.1869 550,1794.0556 l -8.5,-2.0357 -127.50146,127.49 L 286.49708,2047 H 263.9238 241.35052 L 373.17526,1915.287 C 445.67887,1842.8449 505,1783.2199 505,1782.787 c 0,-0.4328 -0.72711,-0.787 -1.61581,-0.787 -3.21889,0 -43.19903,-13.9272 -55.88419,-19.4674 -21.24286,-9.2778 -32.76872,-16.2318 -47.80356,-28.8418 l -2.80356,-2.3513 12.53575,-46.3543 c 6.89465,-25.4948 12.40856,-46.4813 12.25311,-46.6368 -0.15544,-0.1554 -92.26932,91.7276 -204.69751,204.1845 C 104.55604,1954.9898 12.025766,2047 11.361396,2047 c -0.66437,0 -2.5850702,-1.1588 -4.2682202,-2.575 z M 517.27194,1691.094 c 100.57527,-29.0269 222.7385,-45.3308 391.72802,-52.2799 40.6009,-1.6696 185.20294,-1.6787 223.50004,-0.014 136.6686,5.9403 247.4247,18.5951 348.5,39.8191 19.609,4.1176 56.8292,13.1893 61.3654,14.9566 1.5073,0.5873 1.7552,0.3619 1.2914,-1.1744 -0.3157,-1.0457 -7.0808,-27.4769 -15.0334,-58.736 -7.9527,-31.2591 -14.708,-57.0833 -15.0119,-57.3871 -0.8919,-0.8919 -34.5206,-7.93 -60.8027,-12.7252 -89.2083,-16.2763 -185.773,-25.7993 -311.8088,-30.7499 -41.7008,-1.638 -192.60404,-1.63 -234.00004,0.012 -120.98885,4.8003 -212.71479,13.6931 -301.99996,29.2789 -27.33356,4.7713 -67.56057,13.1327 -68.7094,14.2816 -0.2783,0.2783 -7.44217,26.295 -15.91972,57.8149 -8.47755,31.52 -15.68101,58.1646 -16.0077,59.2103 -0.45719,1.4634 -0.21692,1.7566 1.04336,1.2729 0.90054,-0.3455 6.23997,-1.9566 11.8654,-3.5802 z m 49.8907,-199.0521 c 82.34046,-19.7784 182.39117,-33.2124 294.33736,-39.5214 93.19176,-5.252 215.3675,-5.8458 306,-1.4872 127.5274,6.1329 239.3884,20.677 322.4696,41.9273 6.3082,1.6135 11.6139,2.7892 11.7904,2.6127 0.1765,-0.1765 3.8822,-22.7514 8.2348,-50.1663 5.722,-36.0404 7.597,-50.0413 6.7698,-50.5525 -2.0557,-1.2705 -49.7843,-12.6511 -70.4667,-16.8023 -120.0478,-24.0954 -271.427,-35.4785 -448.29794,-33.7102 -33.275,0.3327 -72.2,1.0707 -86.5,1.64 -133.10683,5.2997 -238.016,17.2785 -328.99996,37.5663 -20.21752,4.5081 -49.20333,11.8217 -49.99652,12.6149 -0.34379,0.3438 11.78078,84.7127 14.03128,97.6368 0.43868,2.5193 0.97574,3.1752 2.26994,2.7722 0.93241,-0.2904 9.19349,-2.329 18.35794,-4.5303 z M 1551.4154,1261.25 c 30.8665,-29.9348 60.711,-54.8415 110.3261,-92.0723 71.3713,-53.5567 94.7852,-77.8573 115.3105,-119.6777 19.3379,-39.401 28.1403,-84.20014 26.6238,-135.5 -1.8661,-63.12498 -17.5591,-108.46385 -53.5765,-154.78839 -37.148,-47.7787 -89.2226,-78.94781 -153.0993,-91.63714 -23.632,-4.69459 -39.0805,-6.0012 -71,-6.00511 -29.5961,-0.004 -39.1147,0.65017 -66,4.5332 -54.0202,7.80212 -115.7844,27.70339 -173.5,55.90408 -39.3409,19.22251 -64.2901,36.5479 -89.9248,62.44602 -53.3634,53.9119 -91.0722,120.08148 -116.9456,205.21033 -9.8275,32.33451 -13.6855,52.95401 -16.6216,88.83701 -1.0406,12.7163 -3.7185,142.1397 -2.956,142.8612 0.2464,0.2332 18.898,0.9403 41.448,1.5713 125.6192,3.5154 204.355,9.9285 302.5,24.6387 43.0856,6.4578 97.9648,16.1954 126,22.3571 4.675,1.0275 8.9119,1.914 9.4154,1.9699 0.5035,0.056 5.9035,-4.7357 12,-10.6482 z M 1516.5,1186.3667 c -8.1312,-3.0338 -28.2962,-8.4414 -45.893,-12.3071 -71.9904,-15.8147 -176.9171,-25.7076 -314.5048,-29.6526 l -23.3978,-0.6709 0.6778,-15.0206 c 2.2033,-48.8276 10.1518,-103.4867 19.0323,-130.87879 10.3611,-31.95935 37.3942,-79.21614 67.2288,-117.52363 15.2374,-19.56466 39.3161,-46.07546 52.3567,-57.64504 17.7745,-15.76947 76.082,-48.67509 107,-60.38505 64.3417,-24.36893 135.6545,-26.69451 204.7983,-6.67866 34.1994,9.90009 60.0616,23.06112 79.5643,40.48937 20.4597,18.28355 32.1941,36.5036 39.1397,60.77272 7.8704,27.5006 10.7898,76.47756 6.0173,100.94968 -4.7473,24.34332 -15.6776,47.0059 -34.3323,71.1839 -8.2079,10.6381 -43.2079,45.5933 -74.6963,74.6008 -30.0077,27.6434 -47.5852,46.3269 -68.5377,72.8504 -5.0177,6.3519 -9.4224,11.5171 -9.7882,11.4783 -0.3658,-0.039 -2.4651,-0.742 -4.6651,-1.5628 z m -990.84058,80.0836 c 55.06944,-11.6076 144.76137,-25.7538 205.34058,-32.3864 60.57794,-6.6324 130.59616,-10.5502 226.24996,-12.6596 l 30.75,-0.6781 v -14.3084 c 0,-23.9174 -1.9372,-98.7812 -3.0513,-117.9178 -2.8013,-48.1169 -8.6612,-81.1526 -20.4877,-115.5 -21.8478,-63.45259 -49.6477,-115.67499 -85.2342,-160.11346 C 866.59409,797.11161 842.80745,772.40938 831.5,763.32273 772.75752,716.11735 666.00832,673.85649 577,662.56893 c -42.82361,-5.43067 -88.32807,-4.33304 -126.34977,3.04772 -42.47119,8.2445 -80.18954,25.28385 -111.56095,50.39792 -34.56656,27.67191 -65.38899,70.73038 -79.0885,110.48543 -23.65268,68.63845 -19.183,158.58109 10.94475,220.2395 6.53051,13.3651 19.83427,34.3478 28.32793,44.6787 19.69597,23.9565 44.67079,46.4203 88.22654,79.3563 27.92761,21.1183 49.73219,38.1713 69.93337,54.6937 16.5736,13.5554 47.05332,39.9864 49.43907,42.8719 0.75485,0.9129 1.50159,1.6599 1.65942,1.6599 0.15784,0 7.86524,-1.5974 17.12756,-3.5497 z m -11.29215,-88.8086 C 497.5332,1157.7604 479.58018,1139.0096 443.85873,1104 c -39.27432,-38.4917 -68.90933,-69.7934 -78.95724,-83.398 -17.03502,-23.06486 -26.87655,-47.25668 -29.96294,-73.653 -2.31105,-19.76514 0.19254,-58.87774 5.1175,-79.949 6.62038,-28.32499 16.40564,-46.4206 35.44395,-65.54547 21.94885,-22.04864 53.54269,-38.08888 96.07808,-48.77897 73.25667,-18.41105 145.59672,-12.67506 211.47634,16.76837 22.58084,10.09201 66.64886,35.64232 83.90572,48.64791 14.10926,10.63341 41.53916,40.61775 62.58029,68.40816 26.87412,35.49441 51.95103,79.48496 61.03163,107.06323 9.2538,28.10407 16.8861,79.20807 21.0115,140.68677 l 0.6543,9.75 -6.3689,0.013 c -3.5029,0.01 -20.094,0.4508 -36.86896,0.9863 -153.79457,4.9094 -268.85014,18.5311 -336.77274,39.8711 l -9.27273,2.9134 z M 1026.3803,960.75 c 1.0028,-3.9875 4.2192,-14.675 7.1475,-23.75 2.9283,-9.075 7.6165,-23.79225 10.4183,-32.70501 2.8018,-8.91275 7.1514,-21.06275 9.6658,-27 2.5144,-5.93724 6.5138,-15.57351 8.8876,-21.41392 2.3738,-5.84041 9.5892,-21.36541 16.0343,-34.5 14.4459,-29.43969 26.1619,-54.99806 32.4754,-70.84486 11.081,-27.81292 28.9323,-77.61864 30.4786,-85.03621 3.7341,-17.91209 2.9585,-39.71926 -2.0336,-57.1788 -5.4511,-19.06505 -14.8412,-34.69267 -29.9542,-49.85167 -17.9769,-18.03165 -35.9779,-27.84509 -60.9392,-33.22157 -11.2296,-2.41876 -42.0417,-2.3495 -56.06084,0.12601 -24.2649,4.28471 -43.3079,13.434 -57.5,27.62603 -19.0352,19.03527 -28.3065,44.51559 -29.6545,81.5 -0.776,21.28851 0.8152,30.38644 10.0307,57.35163 19.5999,57.35132 28.0561,77.56753 60.9226,145.64837 17.7728,36.81529 19.1224,40.45425 40.33344,108.75 3.7153,11.9625 7.0183,21.75 7.3399,21.75 0.3217,0 1.4054,-3.2625 2.4082,-7.25 z M 1023,795.15663 c 0,-4.38178 -13.5034,-41.20912 -21.406,-58.38015 -10.42984,-22.66189 -20.32974,-47.00154 -24.79214,-60.95319 -3.0435,-9.51566 -3.3005,-11.34033 -3.2848,-23.32329 0.014,-10.54861 0.4303,-14.31998 2.2084,-20 6.3615,-20.32052 20.0197,-29.95611 44.23184,-31.20447 29.0729,-1.49899 47.2946,8.91475 54.2258,30.99027 2.6743,8.51727 3.4597,25.5456 1.486,32.2142 -3.9405,13.31323 -19.1094,51.54514 -25.435,64.10647 -9.095,18.06088 -15.7279,33.60856 -17.7447,41.59425 -2.7054,10.7118 -7.9504,26.79422 -8.7394,26.79681 -0.4125,10e-4 -0.75,-0.82705 -0.75,-1.8409 z M 838.722,677.75 c -0.58103,-3.1625 -1.34698,-5.75 -1.70212,-5.75 -1.32043,0 -6.47967,6.27794 -5.46493,6.64992 0.58023,0.21269 2.60523,1.45618 4.5,2.76329 1.89478,1.30712 3.50769,2.31138 3.58425,2.23169 0.0766,-0.0797 -0.33618,-2.7324 -0.9172,-5.8949 z m -1.89427,-62.36953 c 2.31508,-19.4915 8.1405,-38.40158 17.6834,-57.40264 17.48023,-34.80528 49.76003,-66.9827 84.98643,-84.71686 18.3988,-9.26262 39.46,-15.83735 58.7541,-18.34147 7.00774,-0.90952 10.21684,-1.77967 11.40494,-3.09256 1.5922,-1.75932 1.222,-1.82694 -10.00164,-1.82694 h -11.655 V 384.5 319 l -38.25,0.0129 -38.25,0.0129 -141.37547,142.02826 c -77.75652,78.11554 -141.20652,142.15956 -141,142.32005 0.20653,0.16049 7.12551,1.99379 15.37551,4.07399 26.38964,6.65405 44.38327,12.46317 70,22.599 13.75,5.4405 38.275,15.01038 54.5,21.26641 l 29.5,11.3746 18.53638,-18.37079 18.53639,-18.3708 z M 1141.5224,319.18905 c -0.2193,-0.21933 -18.6516,-0.0661 -40.9606,0.34049 L 1060,320.26882 v 30.21003 c 0,16.61551 -0.2758,35.11753 -0.6129,41.11559 l -0.6129,10.90556 41.5735,-41.45608 c 22.8654,-22.80084 41.394,-41.63553 41.1747,-41.85487 z M 987.99996,247.5 c 0,-2.475 -0.1313,-4.5 -0.2917,-4.5 -0.1605,0 -2.2792,2.025 -4.7083,4.5 l -4.4164,4.5 h 4.7082 4.7082 z M 1413.4487,1987.0603 C 1446.4769,1954.0935 1602.65,1798.7101 1760.5,1641.764 l 287,-285.3567 0.2694,22.5264 0.2693,22.5264 -322.7688,322.77 L 1402.5012,2047 h -24.5519 -24.5519 z m 323.0125,-45.806 c 58.3214,-58.1601 152.2829,-151.8726 208.8035,-208.25 l 102.7646,-102.5043 -0.2646,23.5 -0.2647,23.5 -185.0142,184.75 -185.0141,184.75 h -23.5246 -23.5247 z m 205.9796,69.9957 c 19.832,-19.6625 51.696,-51.2664 70.8087,-70.2308 L 2048,1906.5383 v 22.6743 22.6742 l -49.4255,47.5566 L 1949.149,2047 h -21.3833 -21.3832 z M -4.2176871e-6,655.5038 V 633.5087 L 155.75734,477.50435 C 241.42388,391.70196 383.72476,249.15431 471.98153,160.7318 L 632.44837,-0.03640115 654.72582,0.23179943 677.00327,0.5 338.50164,338.99945 -4.2176871e-6,677.49889 Z m 0,-277.52222 V 355.49789 L 177.77041,177.72958 355.54083,-0.03872446 378.02041,0.23063777 400.5,0.5 200.25,200.48264 -4.2176871e-6,400.46527 Z M 0.00399578,101.99698 0.00710578,79.5 39.745326,39.731844 79.483546,-0.03631108 101.74588,0.23184446 124.00821,0.5 62.004106,62.496976 -4.2176871e-6,124.49395 Z"
       id="path1" />
  </g>
</svg>
