<?xml version="1.0" encoding="UTF-8" standalone="no"?>
<!-- Created with Inkscape (http://www.inkscape.org/) -->

<svg
   version="1.1"
   id="svg1"
   width="2048"
   height="2048"
   viewBox="0 0 2048 2048"
   xmlns="http://www.w3.org/2000/svg"
   xmlns:svg="http://www.w3.org/2000/svg">
  <defs
     id="defs1" />
  <g
     id="g1">
    <path
       style="fill:#000000"
       d="m 7.0931746,2044.425 c -3.77083,-3.173 -5.87967,-9.7992 -6.75886997,-21.2372 l -0.64378,-8.3754 129.82840537,-129.8313 129.82841,-129.8313 7.07633,3.5844 c 3.89198,1.9715 10.67633,5.0455 15.07633,6.8312 4.4,1.7856 7.87605,3.6264 7.72455,4.0906 C 288.65765,1771.393 12.550785,2047 11.377585,2047 c -0.67328,0 -2.6012604,-1.1588 -4.2844104,-2.575 z M 356.21399,1932.25 471.09875,1817.5 l 17.20062,0.2872 c 9.46035,0.1579 19.8303,-0.11 23.04435,-0.5954 l 5.84372,-0.8825 -115.3421,115.3454 L 286.50325,2047 h -22.58701 -22.587 z m 161.86934,114.494 c 0.22917,-0.1408 51.31756,-51.0208 113.52977,-113.0667 l 113.11309,-112.8107 6.03283,3.8993 c 3.31806,2.1445 9.91727,5.6486 14.66491,7.7869 l 8.63207,3.8877 L 668.77978,1941.7202 563.50355,2047 h -22.91844 c -12.60514,0 -22.73094,-0.1152 -22.50178,-0.256 z m 375.34773,-98.7331 99.0689,-98.9891 22.49814,-0.011 22.4981,-0.011 -98.99624,99 -98.9962,99 h -22.5708 -22.57084 z m 282.91754,0.012 99.1514,-98.9767 23.4981,-0.023 23.4981,-0.023 -98.9962,99 -98.9962,99 h -23.6533 -23.6533 z m 264.6158,11.6882 c 48.1446,-48.0086 92.9584,-92.5586 99.5863,-99 L 1552.6015,1849 h 23.9473 23.9474 l -98.9962,99 -98.9962,99 h -24.5375 -24.5374 z M 1732.212,1945.25 c 77.7402,-77.7077 102.56,-101.9529 105.0403,-102.6089 28.2415,-7.4688 42.855,-15.0205 58.9187,-30.4469 16.7144,-16.0513 26.6371,-34.5867 32.2243,-60.1942 0.3459,-1.5853 22.3321,-24.2709 60.0886,-62 l 59.5431,-59.5 -0.2635,23.5 -0.2635,23.5 -185.0142,184.75 -185.0141,184.75 h -23.5261 -23.5261 z m 210.2288,66 c 19.832,-19.6625 51.696,-51.2664 70.8087,-70.2308 L 2048,1906.5383 v 22.6743 22.6742 l -49.4255,47.5566 L 1949.149,2047 h -21.3833 -21.3832 z M 4.6258502e-6,1761.6165 v -24.1222 L 65.949845,1671.5501 c 62.310235,-62.3048 66.002035,-65.8091 66.895525,-63.4971 4.19481,10.8543 7.62487,18.9356 10.21518,24.0669 1.6782,3.3246 2.91362,6.4357 2.74537,6.9138 -0.16826,0.4781 -33.04342,33.6823 -73.055915,73.7871 L 4.6258502e-6,1785.7388 Z M 736.02852,1785.25 c 0.0888,-2.335 37.32405,-39.7336 57.97148,-58.2257 6.325,-5.6648 13.3,-12.1594 15.5,-14.4325 2.2,-2.2731 10.74996,-10.2974 18.99996,-17.8318 28.2332,-25.7842 35.0098,-32.0397 44.0316,-40.6452 4.9674,-4.7381 17.5674,-16.4829 28,-26.0996 21.7178,-20.019 44.8893,-42.9757 51.4929,-51.0152 4.1528,-5.0559 8.6263,-10.9777 15.1085,-20 7.9068,-11.005 20.4137,-34.1996 29.9267,-55.5 4.72344,-10.5761 13.30624,-36.6391 16.45734,-49.975 5.2257,-22.1162 7.9552,-47.9283 6.5794,-62.2204 l -0.5964,-6.1954 -5.5,3.9266 c -22.32604,15.9391 -59.57024,35.1133 -82.00004,42.2155 -34.3812,10.8865 -91.7596,34.3594 -117.5,48.068 -1.1,0.5858 -6.26626,3.2885 -11.48062,6.006 -5.21436,2.7174 -11.16792,6.006 -13.23013,7.3078 -2.06221,1.3018 -4.00639,2.3669 -4.3204,2.3669 -0.82684,0 -22.88713,13.5398 -39.91763,24.5 -2.56385,1.65 -7.08137,4.9125 -10.03892,7.25 -2.95755,2.3375 -5.6967,4.25 -6.087,4.25 -0.3903,0 -3.07992,2.025 -5.97694,4.5 -2.89702,2.475 -5.56202,4.5 -5.92222,4.5 -3.00361,0 -50.76586,44.5308 -61.5261,57.3635 -1.375,1.6398 -3.40495,3.9417 -4.51099,5.1154 -2.89316,3.0701 -16.66329,20.3915 -19.49374,24.5211 -1.3194,1.925 -2.66935,3.725 -2.99988,4 -0.33053,0.275 -1.67846,2.3 -2.99539,4.5 -1.31693,2.2 -2.69523,4.225 -3.06288,4.5 -0.36765,0.275 -1.64414,2.3 -2.83665,4.5 -1.1925,2.2 -3.48772,6.025 -5.10047,8.5 -1.61275,2.475 -3.90701,6.2862 -5.09835,8.4693 -1.19134,2.1831 -2.94776,5.1081 -3.90316,6.5 -0.9554,1.3919 -5.69664,9.2807 -10.53608,17.5307 -10.70587,18.2507 -19.01228,31.816 -22.35001,36.5 -9.95151,13.9654 -18.61772,24.285 -22.25414,26.5 -0.90296,0.55 -3.67528,2.4565 -6.1607,4.2366 -9.63611,6.9016 -28.52032,12.072 -47.19756,12.9223 -15.84064,0.7212 -24.75684,-0.7473 -39.25221,-6.465 -16.88572,-6.6605 -30.7283,-18.1924 -43.18037,-35.9723 -2.41837,-3.4531 -4.88538,-6.0804 -5.48223,-5.8384 -0.59685,0.242 -5.13519,1.3462 -10.08519,2.4539 -14.6921,3.2875 -31.03703,5.3345 -47.06084,5.8936 l -15.06084,0.5255 -10.43916,-3.516 c -25.30593,-8.5233 -56.02471,-23.9295 -68.08939,-34.1484 -16.26955,-13.7805 -34.12513,-32.9283 -45.77864,-49.0918 -2.77577,-3.85 -5.38981,-7.45 -5.80899,-8 -2.49492,-3.2736 -8.59516,-14.1883 -12.01636,-21.5 -11.17705,-23.8873 -18.4915,-55.0746 -21.34254,-91 -2.55897,-32.2453 0.83104,-54.7663 12.744,-84.663 4.58696,-11.5114 15.72534,-34.0306 21.18787,-42.837 1.70581,-2.75 3.99922,-6.6372 5.09647,-8.6382 1.09725,-2.001 6.19121,-9.8954 11.31991,-17.5431 8.92906,-13.3147 13.81651,-20.1283 26.49851,-36.942 3.1625,-4.1928 6.62487,-8.8053 7.69416,-10.25 1.06929,-1.4447 3.31929,-4.2542 5,-6.2434 1.68071,-1.9892 4.63084,-5.557 6.55584,-7.9285 1.925,-2.3715 5.075,-6.1904 7,-8.4864 1.925,-2.296 5.3,-6.3461 7.5,-9.0001 2.2,-2.654 5.575,-6.6989 7.5,-8.9887 4.70455,-5.5959 9.38176,-11.3403 12.18807,-14.969 1.27156,-1.6442 3.03727,-3.7195 3.9238,-4.6119 0.88652,-0.8923 2.44605,-3.0346 3.4656,-4.7606 1.01956,-1.7259 2.1654,-3.1381 2.54631,-3.1381 0.38092,0 1.97139,-2.0242 3.5344,-4.4982 1.563,-2.474 3.11952,-4.499 3.45893,-4.5 0.33942,-10e-4 1.81504,-1.812 3.27917,-4.0244 1.46413,-2.2125 3.30654,-4.8 4.09425,-5.75 8.99503,-10.8489 34.37118,-48.6443 44.46566,-66.2274 17.0494,-29.6976 29.04545,-58.4518 32.33241,-77.5 0.85418,-4.95 1.84059,-15.975 2.19204,-24.5 1.107,-26.8528 5.38959,-57.2209 10.08312,-71.5 2.49018,-7.57583 12.71291,-29.36295 14.30127,-30.47945 0.4073,-0.2863 1.81804,-2.32055 3.13497,-4.52055 1.31693,-2.2 2.6651,-4.225 2.99592,-4.5 0.33082,-0.275 3.25766,-4.325 6.50408,-9 3.24642,-4.675 6.17326,-8.725 6.50408,-9 0.33082,-0.275 1.67899,-2.3 2.99592,-4.5 1.31693,-2.2 2.64574,-4.225 2.9529,-4.5 0.30716,-0.275 1.88994,-2.28402 3.51728,-4.46449 1.62734,-2.18047 3.64978,-4.70759 4.49431,-5.61582 0.84453,-0.90822 3.56051,-4.04008 6.03551,-6.95968 8.56447,-10.10296 16.15888,-18.29761 37,-39.92435 3.025,-3.13902 8.5911,-8.48865 12.36911,-11.88805 11.71388,-10.54 11.28253,-8.9095 6.01852,-22.74989 C 507.4193,781.52521 494.84803,729.14348 489.5732,678 c -3.25188,-31.52949 -4.03199,-70.4299 -1.95926,-97.69943 l 0.54722,-7.19944 6.66942,2.29079 c 3.66818,1.25993 9.14442,3.0234 12.16942,3.91882 l 5.5,1.62803 -2.5,-1.9733 c -1.375,-1.08531 -5.65,-4.15001 -9.5,-6.81043 -3.85,-2.66043 -10.15,-7.01893 -14,-9.68556 -3.85,-2.66663 -9.925,-6.85516 -13.5,-9.30785 -3.575,-2.45268 -7.625,-5.31142 -9,-6.35276 -3.42508,-2.59392 -11.8105,-8.41316 -15.75,-10.93005 L 445,533.80245 V 365.40122 197 H 581.5 718 v 61.5 61.5 h 85.5 85.49996 V 258.5 197 H 1026 1163 v 61.5 61.5 h 85 85 V 258.5 197 h 137 137 v 168.40122 168.40123 l -3.25,2.07637 c -3.2619,2.08398 -8.9409,6.02264 -18.25,12.65729 -2.75,1.95993 -6.575,4.63598 -8.5,5.94678 -3.8269,2.60585 -12.6012,8.67672 -23.5,16.25948 -6.6373,4.61782 -12.0954,8.40232 -27.0171,18.7327 -3.575,2.475 -9.5336,6.60213 -13.2414,9.17141 -3.7078,2.56928 -9.971,6.87649 -13.9181,9.57158 -3.9471,2.69508 -7.7147,5.54856 -8.3725,6.34105 -0.6577,0.79249 -1.6623,1.44089 -2.2325,1.44089 -0.5702,0 -3.5526,1.9125 -6.6275,4.25 -3.075,2.3375 -6.6949,4.83331 -8.0443,5.54624 -1.3494,0.71294 -4.3502,2.85044 -6.6683,4.75 -2.3182,1.89957 -4.553,3.45376 -4.9662,3.45376 -0.4132,0 -3.4875,2.03072 -6.8317,4.51271 -8.2513,6.12392 -15.4942,11.19256 -18.9557,13.26546 -1.5813,0.94701 -4.9658,3.33837 -7.521,5.31413 -2.5552,1.97577 -5.7519,4.18423 -7.1037,4.9077 -1.3518,0.72347 -4.5485,2.93193 -7.1037,4.9077 -2.5552,1.97576 -5.9397,4.36712 -7.521,5.31413 -3.6613,2.19253 -11.5181,7.68402 -17.6253,12.3192 l -4.75,3.60509 V 755.35 822.55389 l 12.25,6.36958 c 6.7375,3.50326 13.9286,7.42864 15.9801,8.72305 2.0516,1.29442 4.0766,2.35625 4.5,2.35964 0.692,0.006 8.8141,4.73308 27.0136,15.72338 3.4341,2.07375 12.6076,7.93296 20.3857,13.02046 7.778,5.0875 14.282,9.25 14.4533,9.25 0.3041,0 9.6011,6.75726 18.2335,13.25242 2.3739,1.78617 5.3664,3.92258 6.6501,4.74758 2.6617,1.71064 10.2397,7.5359 17.8449,13.71748 2.8538,2.31962 7.4388,6.04477 10.1888,8.27812 24.9964,20.30027 71.0463,65.15076 84.5846,82.3815 1.2433,1.5824 3.1954,3.8595 4.338,5.0602 1.1426,1.2006 3.8774,4.385 6.0774,7.0763 2.2,2.6913 5.3652,6.4892 7.0337,8.4398 1.6685,1.9507 4.3685,5.2881 6,7.4165 1.6315,2.1285 4.0913,5.3305 5.4663,7.1157 2.9638,3.8478 14.3552,18.9496 16.9828,22.5144 1.0135,1.375 3.4109,4.5811 5.3277,7.1247 1.9168,2.5436 3.9781,5.546 4.5807,6.6721 0.6026,1.126 1.6669,2.6448 2.3649,3.3752 2.0276,2.1214 31.8406,47.3994 35.1135,53.328 0.9109,1.65 3.4908,5.9242 5.7331,9.4981 2.2423,3.574 5.6975,9.424 7.6783,13 1.9807,3.5761 3.8775,6.7269 4.2151,7.0019 1.9894,1.6206 34.8132,64.8112 41.2956,79.5 0.9709,2.2 4.039,9.175 6.8181,15.5 2.779,6.325 5.6479,12.85 6.3752,14.5 10.3257,23.4251 27.8922,71.7745 36.1508,99.5 24.471,82.1536 39.2228,160.7707 46.8163,249.5 3.3165,38.7524 9.5117,146.0494 9.5413,165.25 l 0.01,4.25 h -57 -57 l -0.01,-82.75 c -0.01,-81.7789 -0.6418,-106.5313 -3.5361,-137.75 -6.938,-74.8341 -21.5538,-140.8698 -50.0212,-226 -8.004,-23.9358 -22.4117,-63.2254 -26.4026,-72 -0.5003,-1.1 -4.0359,-9.425 -7.8568,-18.5 -12.5012,-29.691 -24.6261,-54.3146 -42.3473,-86 -14.2387,-25.4587 -16.3662,-29.1469 -17.6478,-30.5939 -0.5329,-0.6016 -1.7297,-2.5652 -2.6597,-4.3636 -0.93,-1.7983 -3.6907,-6.1908 -6.1351,-9.7611 -2.4443,-3.5703 -5.0958,-7.7516 -5.8922,-9.2917 -0.7965,-1.5401 -2.0379,-3.4054 -2.7588,-4.145 -0.7209,-0.7396 -2.4021,-3.1447 -3.7359,-5.3447 -1.3338,-2.2 -3.0074,-4.5976 -3.7191,-5.328 -0.7117,-0.7304 -1.7871,-2.2492 -2.3897,-3.3752 -1.0177,-1.9016 -6.1789,-9.032 -9.4273,-13.0242 -0.7731,-0.95 -2.6035,-3.5375 -4.0676,-5.75 -1.4641,-2.2124 -2.9398,-4.0234 -3.2792,-4.0244 -0.3394,-10e-4 -1.8959,-2.026 -3.4589,-4.5 -1.563,-2.474 -3.1535,-4.4982 -3.5344,-4.4982 -0.3809,0 -1.5268,-1.4122 -2.5463,-3.1381 -1.0196,-1.726 -2.5852,-3.8696 -3.4791,-4.7635 -0.894,-0.894 -2.7236,-3.1943 -4.0659,-5.1119 -1.3423,-1.9176 -3.4378,-4.6115 -4.6566,-5.9865 -1.2189,-1.375 -4.0946,-4.75 -6.3906,-7.5 -13.0183,-15.593 -38.5833,-41.7804 -53.0956,-54.38835 C 1475.55,967.39141 1469.9469,962.65577 1466.4603,960 c -1.8052,-1.375 -6.751,-5.2 -10.9906,-8.5 -4.2397,-3.3 -9.9069,-7.575 -12.5938,-9.5 -12.6808,-9.08484 -22.1747,-15.63416 -24.6543,-17.00749 -1.4969,-0.82912 -5.3825,-3.41662 -8.6345,-5.75 -3.252,-2.33338 -6.3596,-4.24251 -6.9056,-4.24251 -0.5461,0 -2.5511,-1.18855 -4.4556,-2.64122 -1.9046,-1.45268 -6.6721,-4.44299 -10.5944,-6.64515 -28.7258,-16.12769 -34.1062,-19.01219 -52.6316,-28.21622 -17.5435,-8.71617 -35.5934,-17.06585 -39,-18.04088 -1.375,-0.39355 -4.75,-1.84711 -7.5,-3.23014 -2.75,-1.38302 -7.925,-3.53244 -11.5,-4.77648 -3.575,-1.24404 -9.875,-3.6207 -14,-5.28147 -15.5547,-6.26249 -51.5448,-18.0739 -68.5,-22.48069 -35.3743,-9.19406 -63.2917,-15.41304 -75.3311,-16.78106 -4.7316,-0.53764 -9.6954,-1.25172 -11.0307,-1.58684 -2.1711,-0.54492 -2.3633,-0.35272 -1.8184,1.81838 1.9658,7.83212 2.6269,22.84858 2.0853,47.36177 -0.3282,14.85 -0.2045,28.75872 0.2748,30.90827 0.9749,4.37192 0.8041,4.28273 18.3201,9.56936 14.4649,4.36577 54.8083,18.73261 66,23.50354 3.575,1.52399 8.75,3.56419 11.5,4.53377 5.5807,1.96762 17.6726,7.10828 30.5,12.96651 4.675,2.13505 13.675,6.19699 20,9.02653 6.325,2.82953 12.175,5.49183 13,5.91622 0.825,0.42439 4.875,2.4395 9,4.47802 8.1323,4.01889 9.0841,4.51025 22.5,11.6157 26.4595,14.01373 47.4648,27.1429 64.767,40.48208 2.8536,2.2 6.1641,4.675 7.3567,5.5 11.0596,7.6506 34.5071,30.2509 43.9036,42.3174 1.635,2.0995 4.3227,5.5262 5.9727,7.6147 4.23,5.3544 19.7581,26.0687 21.7902,29.0679 9.5192,14.0494 22.746,34.1038 24.0735,36.5 0.9141,1.65 3.4991,5.925 5.7444,9.5 2.2453,3.575 9.337,15.95 15.7593,27.5 33.6292,60.4789 57.9727,118.8219 84.4927,202.5 25.0661,79.0906 38.8353,154.9367 42.5714,234.5 0.5424,11.55 1.2789,57.5625 1.6368,102.25 l 0.6507,81.25 h -441.1095 c -242.61024,0 -441.09667,-0.3375 -441.08098,-0.75 z M 474.63098,1670.6908 c 4.97768,-2.574 13.8088,-11.8661 16.338,-17.1908 1.30624,-2.75 4.56007,-8.9088 7.23072,-13.6862 4.1613,-7.4439 7.12557,-13.7451 14.26058,-30.3138 0.71055,-1.65 2.7794,-7.2189 4.59746,-12.3753 3.1364,-8.8954 3.2501,-9.6991 2.22171,-15.7028 -2.1643,-12.6351 -10.82964,-20.0542 -24.72564,-21.1696 -5.72808,-0.4598 -7.15114,-0.1885 -12.07288,2.3016 -10.29065,5.2066 -22.63068,20.167 -34.53669,41.8704 -5.53287,10.0858 -7.01118,11.9235 -17.25069,21.4442 -12.25947,11.3989 -13.71791,22.1606 -4.32786,31.935 4.33014,4.5074 19.43117,12.9413 25.63431,14.3167 5.42207,1.2023 19.22823,0.3303 22.63098,-1.4294 z M 346.5,1567.5108 c 12.27895,-4.8293 17.90243,-12.3162 19.42089,-25.8563 0.94579,-8.4337 4.81789,-17.813 10.33864,-25.0434 6.8458,-8.9656 14.46049,-14.7257 32.19825,-24.3559 2.87252,-1.5595 9.18616,-9.1885 10.53044,-12.7242 4.54934,-11.9657 -4.26411,-27.3626 -20.32407,-35.5057 l -8.42939,-4.2741 -9.4833,0.4147 c -8.74187,0.3824 -10.17789,0.754 -18.36738,4.753 -20.18508,9.8566 -41.1532,27.8297 -52.60415,45.0905 -6.21746,9.3719 -11.55021,21.0815 -14.1395,31.0471 -6.50562,25.0388 -3.68121,38.3605 9.54896,45.0391 8.29265,4.1861 11.95559,4.8787 23.81061,4.502 8.57671,-0.2726 11.7822,-0.838 17.5,-3.0868 z m 715.72,-229.5142 c 11.3316,-3.2716 45.4939,-49.9344 61.4948,-83.9966 2.1961,-4.675 4.3387,-9.625 4.7614,-11 0.4227,-1.375 1.1115,-2.95 1.5307,-3.5 0.4191,-0.55 2.824,-7.3 5.3441,-15 8.1898,-25.0238 12.1997,-47.4317 13.3316,-74.5 0.4984,-11.919 0.3077,-15.5266 -1.0712,-20.2677 -4.841,-16.6442 -19.0729,-24.6524 -41.6114,-23.4146 -17.8621,0.981 -28.2975,5.6574 -31.5336,14.1311 -1.5624,4.0911 -1.6379,5.6239 -0.6325,12.8482 1.7653,12.6852 1.9657,19.053 1.0801,34.3126 -0.9011,15.5262 -3.6434,30.8916 -7.5531,42.3201 -4.8776,14.2583 -17.0197,37.6286 -28.3522,54.5703 -7.5831,11.3366 -9.6464,13.9039 -19.6589,24.4609 -8.5362,9.0006 -10.5969,13.2578 -10.6915,22.0879 -0.074,6.9431 1.6655,11.1099 6.5293,15.6382 4.0594,3.7793 18.0744,10.6959 24.2958,11.9903 6.4943,1.3511 16.764,1.0436 22.7366,-0.6807 z M 536.5,1161.952 c 9.54206,-4.7809 10.21806,-5.5156 17.03041,-18.5092 6.44876,-12.3001 11.43846,-20.4428 12.52697,-20.4428 0.50192,0 3.07896,1.333 5.72677,2.9622 11.45784,7.0501 39.00745,10.0738 55.71585,6.1151 17.76557,-4.2091 28.87029,-15.2298 35.34482,-35.0773 5.45537,-16.7233 4.68516,-30.217 -2.50196,-43.8331 -1.83857,-3.4831 -3.34286,-6.4337 -3.34286,-6.5568 0,-0.123 3.2625,-1.722 7.25,-3.5532 26.58374,-12.2081 27.54636,-12.781 31.51118,-18.7524 3.54597,-5.3406 3.73882,-6.0482 3.73882,-13.7178 0,-7.0665 -0.41615,-8.9698 -3.29859,-15.0867 -4.15063,-8.80811 -10.39534,-14.88617 -17.44536,-16.97981 -6.24474,-1.85448 -18.11077,-1.91034 -26.43223,-0.12442 -7.08095,1.51968 -24.11884,8.00806 -35.82382,13.64245 -4.4,2.11801 -9.24787,4.31868 -10.77304,4.89036 -1.52517,0.57169 -5.12517,2.53649 -8,4.36622 -2.87483,1.8297 -6.01964,3.6248 -6.98846,3.989 -2.32947,0.8758 -17.68265,10.9842 -25.2385,16.6168 -12.17907,9.0791 -28.69836,24.5137 -38.18335,35.6762 -8.48805,9.9892 -10.10399,12.0788 -15.02062,19.4232 -8.96711,13.3949 -12.50828,19.3292 -17.53957,29.3928 C 488.05031,1119.8063 487,1123.1384 487,1131 c 0,8.2468 1.83401,13.7405 6.4799,19.4102 8.86926,10.8237 32.04382,17.0412 43.0201,11.5418 z m 207,-249.80777 c 9.35,-4.56207 19.475,-9.57815 22.5,-11.14684 12.85372,-6.66565 31.09993,-13.84036 40.66621,-15.99065 5.59141,-1.25682 10.64855,-2.58322 11.23805,-2.94755 0.7613,-0.47055 0.7501,-3.25414 -0.039,-9.6108 -1.3594,-10.95121 -0.5363,-38.25116 1.5499,-51.40748 0.8249,-5.2025 1.3852,-9.57378 1.245,-9.71395 -0.7727,-0.77276 -25.00591,5.48685 -36.16026,9.34048 -13.72695,4.74241 -33.77976,13.59684 -41.76502,18.44157 -2.62077,1.59005 -5.10139,2.89099 -5.5125,2.89099 -0.71487,0 -8.83244,5.21912 -21.72248,13.96628 -3.3,2.23937 -9.59056,6.44143 -13.97902,9.33791 -10.85084,7.16179 -14.04378,12.22114 -13.96415,22.12677 0.0487,6.06225 0.5459,7.99478 3.49081,13.56904 3.74207,7.08315 11.02051,14.8986 16.79137,18.03024 2.91471,1.58172 5.18983,1.92778 11.16099,1.69768 7.11296,-0.2741 8.3773,-0.71707 24.5,-8.58369 z M 856.94866,701.36238 c 2.4611,-4.17125 11.9921,-17.14375 16.5006,-22.45885 7.2982,-8.60375 13.3946,-15.47512 18.0507,-20.34538 5.858,-6.1273 26.1367,-24.39088 33.1385,-29.84542 10.873,-8.47034 17.0535,-12.95773 20.6115,-14.96522 2.0625,-1.16369 3.75,-2.48293 3.75,-2.93165 0,-0.44872 -61.2,-0.81586 -135.99996,-0.81586 -87.12561,0 -136,0.34833 -136,0.96927 0,0.5331 2.3625,2.54287 5.25,4.46615 2.8875,1.92328 8.4,5.75633 12.25,8.51789 3.85,2.76155 8.8,6.25092 11,7.75416 2.2,1.50323 6.48374,4.54651 9.51942,6.76284 3.03568,2.21633 6.24015,4.47969 7.12104,5.02969 0.8809,0.55 4.35966,3.00109 7.73058,5.44686 L 736,653.39372 v 22.70614 22.70615 l 3.75,3.06346 3.75,3.06347 55.65122,0.0335 55.65124,0.0336 z M 1316,679.19686 v -25.80314 l 6.129,-4.44686 c 3.3709,-2.44577 6.8496,-4.89686 7.7305,-5.44686 0.8809,-0.55 4.0854,-2.81336 7.1211,-5.02969 3.0357,-2.21633 7.3194,-5.25961 9.5194,-6.76284 2.2,-1.50324 7.15,-4.99261 11,-7.75416 3.85,-2.76156 9.3625,-6.59461 12.25,-8.51789 2.8875,-1.92328 5.25,-3.93305 5.25,-4.46615 C 1375,610.34666 1300.0722,610 1165.5,610 c -141.0231,0 -209.50004,0.33166 -209.50004,1.0147 0,0.55808 1.4625,1.8686 3.25,2.91225 4.1567,2.42692 17.227,11.84444 25.7771,18.57305 12.0823,9.50835 19.03854,15.70501 30.58704,27.24703 12.1832,12.17643 17.0942,17.53111 26.0527,28.40622 2.1083,2.5593 5.0997,6.1593 6.6477,8 1.548,1.84071 3.5575,4.58425 4.4656,6.09675 l 1.6511,2.75 H 1185.2156 1316 Z M 1470.4347,546.5 c 2.3492,-1.925 4.6469,-3.5 5.1061,-3.5 0.4591,0 3.4122,-2.025 6.5625,-4.5 3.1503,-2.475 6.0107,-4.5 6.3565,-4.5 0.3458,0 3.5281,-2.1375 7.0718,-4.75 3.5436,-2.6125 9.407,-6.775 13.0296,-9.25 7.267,-4.9648 17.6306,-12.24347 24.1888,-16.98844 l 4.25,-3.07494 V 478.96831 458 H 1025.5 514 v 20.91597 20.91597 l 3.75,2.93934 c 2.0625,1.61663 4.875,3.52793 6.25,4.24732 1.375,0.71939 4.79089,3.03451 7.59087,5.14469 2.79998,2.11019 5.42166,3.83671 5.82596,3.83671 0.40429,0 3.36672,2.025 6.58317,4.5 3.21645,2.475 6.21977,4.51001 6.67404,4.52224 0.45428,0.0122 1.95096,0.93054 3.32596,2.0407 2.97573,2.40256 17.84347,12.63093 22.33379,15.36469 1.74141,1.06019 4.74121,3.1826 6.66621,4.71647 l 3.5,2.78884 439.8317,0.0335 439.8317,0.0335 z m 447.465,984.4971 c -0.055,-0.2734 -1.5399,-9.1386 -3.2994,-19.7005 l -3.199,-19.2033 68.2993,-68.2939 68.2994,-68.2939 v 23.0001 23.0002 l -65,64.9942 c -35.75,35.7468 -65.0452,64.7705 -65.1003,64.4971 z M 4.6258502e-6,1485.6167 v -24.1193 L 146.09734,1315.4987 c 127.22245,-127.1366 145.28689,-144.836 139.82417,-136.9987 -9.5485,13.699 -25.20745,34.3792 -46.94628,62 -35.54516,45.1628 -48.95308,63.5377 -66.62695,91.3089 l -9.15171,14.3802 -81.598285,81.7734 L 4.6258503e-6,1509.736 Z M 1863.0761,1304.8889 c -0.5541,-1.3139 -3.4241,-8.9886 -6.3778,-17.0548 l -5.3702,-14.666 98.3488,-98.334 98.3488,-98.3341 -0.2628,24 -0.2629,24 -91.7082,91.3889 c -86.5724,86.271 -91.7645,91.2551 -92.7157,89 z M 4.6258502e-6,1210.6868 V 1188.834 L 218.68974,969.47526 C 338.9691,848.82795 437.68499,750.30532 438.05839,750.53609 c 0.3734,0.23077 0.96491,2.11706 1.31448,4.19175 0.34957,2.07469 1.73558,10.07216 3.08002,17.77216 l 2.44445,14 -13.16125,13.5 C 424.4974,807.425 324.3955,907.78389 209.28742,1023.0198 L 4.6258502e-6,1232.5395 Z M 1770.4436,1107.8465 c -2.1001,-3.4906 -5.9428,-9.7633 -8.5394,-13.9394 l -4.721,-7.5929 145.4215,-145.40709 145.4216,-145.40711 -0.2632,23 -0.2631,23 -136.619,136.34649 -136.619,136.34651 z M 4.6258502e-6,931.99873 V 910.49808 L 194.75096,715.74904 C 301.86399,608.63707 389.78891,521 390.13967,521 c 0.35076,0 0.93615,1.59062 1.30087,3.53472 0.36471,1.9441 2.47959,9.21665 4.69974,16.16124 L 400.1769,553.32248 200.08845,753.41093 4.6258503e-6,953.49938 Z M 1647.5,941.87554 c -5.5,-6.05742 -10.1126,-11.32027 -10.2502,-11.6952 -0.1377,-0.37494 92.2248,-93.15599 205.25,-206.18011 L 2048,518.50182 v 22.56025 22.56025 l -194.5253,194.43884 c -106.9889,106.94136 -194.8514,194.52638 -195.25,194.63336 -0.3986,0.10699 -5.2247,-4.76155 -10.7247,-10.81898 z m -148.9093,-127.48259 -12.7844,-9.69794 280.8469,-280.85132 280.8468,-280.85133 0.2817,11.50382 c 0.155,6.3271 0.155,16.56632 0,22.75382 L 2047.5,288.5 1779.4375,556.29545 1511.3751,824.09089 Z M 0.23669463,655.38817 0.50000463,633.27633 193.56967,439.73364 l 193.06966,-193.5427 -0.78159,5.65453 C 385.42786,254.95546 384.60117,265.825 384.02066,276 L 382.96517,294.5 191.46928,486 -0.02661537,677.5 Z M 4.6258502e-6,377.98158 V 355.49789 L 177.77041,177.72958 355.54083,-0.03872446 378.02041,0.23063777 400.5,0.5 200.25,200.48264 4.6258502e-6,400.46527 Z M 1669,365.99793 v -20.5001 L 1841.7511,172.74892 2014.5022,0 h 6.1765 C 2034.2685,0 2048,3.1546059 2048,6.2766696 2048,6.9505897 1962.725,92.776088 1858.5,197 L 1669,386.49802 Z M 1241.5,235.83217 c -2.4353,-0.907 -6.9766,-3.57162 -9.4575,-5.54918 -0.2517,-0.20058 51.2726,-52.09631 114.4984,-115.32384 L 1461.4967,0 h 22.999 22.999 l -70.3127,70.317988 -70.3127,70.317992 -9.608,2.70053 c -19.7119,5.5404 -37.6585,16.05942 -52.0234,30.49241 -7.7558,7.79247 -15.7342,18.94215 -30.2379,42.25667 -5.5119,8.86024 -12.181,15.85943 -17.5,18.36618 -4.8485,2.28497 -11.9307,2.89599 -16,1.3804 z m -484.73004,-49.134 c -2.05153,-2.85899 -6.39864,-8.15123 -9.66024,-11.76053 l -5.9302,-6.56236 L 825.28116,84.187642 909.38276,0 h 22.207 22.2069 l -95.9572,95.75 c -52.77649,52.6625 -96.26825,95.83918 -96.64836,95.94817 -0.3801,0.109 -2.36962,-2.141 -4.42114,-5 z m 861.29314,-25.80918 c -3.7512,-3.09758 -13.8855,-8.86434 -20.7692,-11.81847 l -6.2062,-2.66334 73.2281,-73.222949 73.228,-73.22294787 22.7315,0.26935843 L 1783.0068,0.5 1701.7534,81.700628 1620.5,162.90126 Z M 563,69.364689 631.5,0.5 l 23,-0.26362278 23,-0.26362279 L 610.00278,67.486377 542.50556,135 l -7.00278,0.0227 c -7.54113,0.0244 -29.16627,1.55132 -36.50278,2.57735 l -4.5,0.62934 z M 1068.2743,135.03588 1051.0487,134.5 1118.2155,67.25 1185.3822,0 h 22.5562 22.5561 l -67.9945,68 -67.9945,68 -4.5027,-0.21412 c -2.4766,-0.11776 -12.2543,-0.45526 -21.7285,-0.75 z M 0.00355463,101.99698 0.00710463,79.5 39.745325,39.731844 79.483545,-0.03631108 101.74588,0.23184446 124.00821,0.5 62.004105,62.496976 4.6258502e-6,124.49395 Z"
       id="path1" />
  </g>
</svg>
