<?xml version="1.0" encoding="UTF-8" standalone="no"?>
<!-- Created with Inkscape (http://www.inkscape.org/) -->

<svg
   version="1.1"
   id="svg1"
   width="2048"
   height="2048"
   viewBox="0 0 2048 2048"
   xmlns="http://www.w3.org/2000/svg"
   xmlns:svg="http://www.w3.org/2000/svg">
  <defs
     id="defs1" />
  <g
     id="g1">
    <path
       style="fill:#000000"
       d="m 7.1543611,2044.4764 c -3.89033,-3.2735 -6.00537,-9.9856 -6.76732001,-21.4764 l -0.56364,-8.5 140.40550891,-140.3159 140.4055,-140.3159 1.68965,12.0389 c 0.9293,6.6214 2.45154,15.2134 3.38274,19.0935 l 1.6931,7.0546 -136.94995,137.2129 C 75.127481,1984.7352 12.774561,2046.621 11.887901,2046.792 c -0.88665,0.171 -3.0167399,-0.871 -4.7335399,-2.3156 z m 327.7430989,-90.9603 93.60254,-93.484 22.49799,-0.016 22.498,-0.016 L 380,1953.5 286.50401,2047 h -22.60454 -22.60454 z m 276.98063,0 93.62191,-93.481 22.49799,-0.019 22.498,-0.019 L 657,1953.5 563.50401,2047 H 540.8801 518.25618 Z m 276.04903,-0.01 93.5729,-93.4885 22.49798,-0.011 22.498,-0.01 -93.49598,93.5 -93.496,93.5 H 816.92916 794.3543 Z m 282.91328,0.013 93.6596,-93.4755 23.498,-0.024 23.498,-0.024 -93.496,93.5 -93.496,93.5 h -23.6616 -23.6617 z m 270.124,6.1493 c 48.1446,-48.0294 90.4988,-90.1044 94.1205,-93.5 l 6.585,-6.1738 h 23.913 23.9131 l -93.496,93.5 -93.496,93.5 h -24.5376 -24.5375 z m 295.4968,-18.4195 c 58.3214,-58.1601 152.2829,-151.8726 208.8035,-208.25 l 102.7646,-102.5043 -0.2646,23.5 -0.2647,23.5 -185.0142,184.75 -185.0141,184.75 h -23.5246 -23.5247 z m 205.9796,69.9957 c 19.832,-19.6625 51.696,-51.2664 70.8087,-70.2308 L 2048,1906.5383 v 22.6743 22.6742 l -49.4255,47.5566 L 1949.149,2047 h -21.3833 -21.3832 z M 341,1678.5 V 1559 h 76.5 76.5 v -102.2867 -102.2868 l 85.50205,-85.4461 85.50205,-85.4461 L 664.75205,944.58907 664.5,705.64386 554,620.51356 443.5,535.38325 443.24739,347.69163 442.99478,160 H 579.49739 716 v 68.5 68.5 h 85.5 85.50002 V 228.5 160 H 1024 1161 v 68.5 68.5 h 85 85 V 228.5 160 h 137.0026 137.0026 l -0.2526,187.68366 -0.2526,187.68366 -110.5,85.13269 -110.5,85.13268 -0.2521,238.93381 -0.252,238.9338 85.002,84.9976 85.0021,84.9977 V 1456.2478 1559 h 76.5 76.5 V 1678.5 1798 H 1023.5 341 Z M 1484,1594 v -51 H 1024 564 v 51 51 h 460 460 z m 0,-183.9145 V 1381.171 L 1461.0679,1359.5855 1438.1358,1338 H 1024 609.86418 L 586.93209,1359.5855 564,1381.171 V 1410.0855 1439 h 460 460 z m -140.2887,-169.3738 -29.7888,-29.2117 0.039,-22.75 0.039,-22.75 h -290 -290 l 0.0388,22.75 0.0387,22.75 -29.78874,29.2117 -29.78875,29.2116 h 349.49999 349.5 z m -29.4766,-545.42076 0.2653,-28.70905 29.435,-23.04095 29.435,-23.04094 -174.685,-0.2528 c -96.0767,-0.13904 -253.29328,-0.13904 -349.36998,0 L 674.62996,620.5 704.06498,643.54094 733.5,666.58189 733.76534,695.29094 734.03067,724 H 1024 1313.9693 Z m 185.0139,-170.6165 35.2514,-27.32557 0.2684,-23.17443 L 1535.0369,451 H 1023.5 511.96314 l 0.26843,23.14559 0.26843,23.14559 36,27.29541 36,27.29541 439.7486,0.059 439.7486,0.059 z M 1.0884354e-6,1761.5398 v -24.0411 L 297.09487,1440.4994 C 474.60761,1263.0437 593.90868,1144.5063 593.49146,1146 c -1.29229,4.6267 -5.87903,14.4472 -10.18366,21.8038 -8.45147,14.4436 -17.64397,25.1535 -51.01632,59.4377 -50.68084,52.0657 -66.1815,71.4023 -80.28273,100.1504 l -5.83309,11.8919 L 223.08783,1562.4323 1.0884354e-6,1785.5808 Z M 1767.7109,1658.3528 1767.1284,1635.5 1907.3142,1495.9085 2047.5,1356.317 l 0.2694,22.5717 0.2693,22.5717 -139.8726,139.8726 -139.8727,139.8727 z M 1.0884354e-6,1485.5384 v -24.0396 L 301,1160.5 602,859.50125 v 23.48475 23.48475 l -45.24684,45.51463 c -24.88576,25.03304 -160.33576,160.73222 -301,301.55372 L 1.0884354e-6,1509.5781 Z M 1660,1497.568 c -9.9836,-3.4383 -22,-9.0824 -22,-10.3333 0,-0.4051 92.25,-92.9857 205,-205.7347 l 205,-204.9982 v 23.5772 23.5772 l -188.5319,188.4219 c -103.6926,103.632 -188.8551,188.4984 -189.25,188.5918 -0.395,0.093 -4.9931,-1.3024 -10.2181,-3.1019 z m -80.5149,-197.818 c -1.5294,-2.3375 -5.7016,-8.0111 -9.2716,-12.608 l -6.4908,-8.3581 18.3887,-18.2143 c 10.1137,-10.0179 119.0846,-118.7339 242.1575,-241.5911 l 223.7689,-223.37675 -0.2689,22.94913 L 2047.5,841.5 1815.774,1072.75 C 1688.3248,1199.9375 1583.6471,1304 1583.1569,1304 c -0.4901,0 -2.1424,-1.9125 -3.6718,-4.25 z M 0.04994109,1210.5198 0.09994109,1188.5 258.29999,929.7771 516.50005,671.05419 l 12.31014,9.65182 12.31014,9.65183 -61.30565,61.57108 C 446.09652,785.79301 324.34445,907.78389 209.25449,1023.0198 L 1.0884354e-6,1232.5395 Z M 1454.6747,1146.3636 c -2.8677,-9.0777 -5.6747,-21.9745 -5.6747,-26.0721 0,-2.3842 43.8195,-46.6103 299.5129,-302.29213 L 2048.0258,518.5 l -0.2629,23 -0.2629,23 -295.1614,294.8927 -295.1614,294.8927 z M 1.0884354e-6,931.9981 V 910.49807 L 194.28248,716.21752 388.56496,521.93697 l 1.79841,6.78151 c 0.98913,3.72984 3.49113,10.90282 5.56001,15.93997 l 3.76159,9.15845 L 199.84248,753.65751 1.0884353e-6,953.49812 Z M 1446.2311,865.81028 1446.5,843.5 1747.25,543.01365 2048,242.5273 v 22.51993 22.51992 l -299.448,299.39759 c -164.6965,164.66868 -300.155,299.7932 -301.019,300.27671 -1.4106,0.78942 -1.5434,-1.39733 -1.3019,-21.43117 z M 0.23647109,655.38275 0.50000109,633.2655 190.75,442.56552 381,251.86554 v 22.31822 22.31821 L 190.48647,487.00098 -0.02705891,677.5 Z M 1.0884354e-6,377.98158 V 355.49789 L 177.77041,177.72958 355.54083,-0.03872446 378.02041,0.23063777 400.5,0.5 200.25,200.48264 1.0884354e-6,400.46527 Z M 1667,367.99794 v -20.5001 L 1840.7511,173.74892 2014.5021,0 h 6.1766 C 2034.2685,0 2048,3.1546052 2048,6.2766644 2048,6.9505817 1962.275,93.226083 1857.5,198 L 1667,388.49803 Z M 1252,209.75065 c 0,-0.16539 3.4258,-3.66444 7.6129,-7.77568 7.6761,-7.53694 8.679,-7.10693 1.8689,0.80125 -2.9726,3.45181 -9.4818,8.23975 -9.4818,6.97443 z M 768.13651,172.3112 c -2.35602,-4.75053 -5.86123,-11.10344 -7.78934,-14.11757 L 756.8415,152.71339 832.67075,76.606697 908.50002,0.5 931.46892,0.23103151 c 12.633,-0.14793266 22.533,0.0969717 22,0.54423184 -0.5329,0.44726015 -41.4869,41.16921765 -91.0088,90.49323965 l -90.03993,89.680037 z m 862.14669,-35.68215 c -4.5193,-4.57918 -9.8037,-9.40652 -11.7432,-10.72742 -1.9395,-1.32089 -3.5294,-2.628 -3.5332,-2.90468 0,-0.27668 27.5658,-28.072886 61.2656,-61.769356 l 61.2724,-61.26630837 22.7313,0.26935719 L 1783.0073,0.5 1710.7537,72.727413 1638.5,144.95483 Z M 0.00355109,101.99698 0.00710109,79.5 39.745321,39.731844 79.483551,-0.03631108 101.74588,0.23184446 124.00821,0.5 62.004101,62.496976 1.0884354e-6,124.49395 Z M 1408.4965,53.112989 1461.4929,0 h 22.9998 22.9997 l -49.3144,49.321984 -49.3144,49.321985 -14.1818,1.219528 c -12.2516,1.053543 -25.2633,3.087793 -36.1818,5.656653 -2.3203,0.54592 9.0068,-11.32737 49.9965,-52.407161 z M 1118,102.46555 c -3.575,-0.71282 -11.8996,-1.82126 -18.4991,-2.4632 -6.5995,-0.641933 -12.085,-1.253117 -12.1901,-1.358185 -0.105,-0.105068 21.9087,-22.342988 48.9195,-49.417599 L 1185.3408,0 h 22.576 22.576 L 1178.5,52 c -28.596,28.6 -52.4444,51.94636 -52.9964,51.8808 -0.552,-0.0656 -3.9286,-0.70242 -7.5036,-1.41525 z M 583.06577,49.121536 631.5,0.24307123 654.49617,0.12153561 677.49235,0 628.5,49 579.50765,98 H 557.0696 534.63155 Z"
       id="path1" />
  </g>
</svg>
