<?xml version="1.0" encoding="UTF-8" standalone="no"?>
<!-- Created with Inkscape (http://www.inkscape.org/) -->

<svg
   version="1.1"
   id="svg1"
   width="2048"
   height="2048"
   viewBox="0 0 2048 2048"
   xmlns="http://www.w3.org/2000/svg"
   xmlns:svg="http://www.w3.org/2000/svg">
  <defs
     id="defs1" />
  <g
     id="g1">
    <path
       style="fill:#000000"
       d="m 7.1543577,2044.4764 c -3.83666,-3.2283 -5.9354,-9.7796 -6.82009001,-21.2892 l -0.64383,-8.376 L 228.80005,1785.6556 457.90967,1556.5 l 7.5414,-28.7568 7.5414,-28.7568 -14.03701,-78.7006 c -7.72036,-43.2854 -14.15451,-78.8182 -14.29811,-78.9618 -0.1436,-0.1436 -100.25025,99.7555 -222.45922,221.998 L -2.3129253e-6,1785.5812 v -24.0397 -24.0398 L 213.46438,1524.0009 426.92877,1310.5 l -34.94239,-60.6931 -34.94239,-60.6931 -2.20285,-16.1526 -2.20285,-16.1527 L 176.31915,1333.2098 -2.3129253e-6,1509.6111 v -24.0545 -24.0545 L 173.44419,1288.0011 346.88838,1114.5 333.19419,1014.8246 c -7.5318,-54.82152 -13.94096,-99.9183 -14.24258,-100.21509 -0.30161,-0.29679 -72.18911,71.11883 -159.75,158.70139 L -2.3129253e-6,1232.5519 v -21.9602 -21.9602 L 157.05571,1031.3712 C 311.87837,876.34676 314.10336,874.06381 313.54524,870.8054 312.74425,866.12915 286,669.70323 286,668.49657 286,667.9499 221.65,731.85144 143,810.5 L -2.3129253e-6,953.49738 V 931.99735 910.49733 L 140.30051,770.19949 280.60101,629.90165 276.32083,598.7305 c -2.3541,-17.14413 -3.95183,-31.45916 -3.55051,-31.81118 0.57208,-0.50179 21.94676,-8.87707 45.8134,-17.95115 2.20854,-0.83969 2.83272,-0.096 10.12882,12.06866 l 7.77524,12.96348 30.82163,-30.75015 c 16.9519,-16.91259 53.81585,-54.05662 81.9199,-82.5423 l 51.09827,-51.79214 -2.15881,-2.70786 C 483.15212,387.372 474.79539,370.18277 469.86399,347.9869 c -3.04812,-13.71937 -3.34083,-41.5222 -0.58083,-55.16912 5.61872,-27.78192 16.39841,-47.49663 37.68911,-68.92867 13.29219,-13.38043 21.98318,-19.83558 36.54298,-27.14195 33.67911,-16.90078 78.56239,-18.19455 113.43205,-3.26972 10.33659,4.42425 18.11661,9.02542 28.44511,16.82267 l 7.89241,5.95819 L 801.34653,108.12915 909.40822,0 h 22.1661 22.1661 l -119.78356,119.60553 -119.78359,119.60553 4.48222,6.64447 c 20.80504,30.84152 26.85785,74.17621 15.7707,112.90922 -10.77485,37.64199 -42.94166,72.33997 -80.77188,87.12771 -38.83788,15.18164 -87.05366,10.98852 -121.3683,-10.55488 l -8.67371,-5.44551 -85.32348,85.30396 c -46.92791,46.91718 -85.20318,85.83379 -85.05615,86.48134 0.14703,0.64756 19.61733,33.83744 43.26733,73.75529 l 43,72.5779 80.09252,-80.25528 80.09252,-80.25528 0.67299,-63.43217 c 0.37014,-34.8877 0.84902,-63.60822 1.06418,-63.82338 0.91278,-0.91278 67.07571,-12.13633 67.63643,-11.47351 0.33922,0.40098 4.57549,11.30406 9.41394,24.22906 4.83845,12.925 9.09099,23.83201 9.45009,24.23779 0.3591,0.40578 46.03628,-44.67972 101.50484,-100.19 l 100.85191,-100.9278 -0.6663,-4.30999 c -0.3665,-2.3705 -0.9363,-10.61 -1.26628,-18.31 -1.70502,-39.79214 11.53948,-73.49147 40.10488,-102.04292 20.0618,-20.05204 42.0965,-31.87766 69.0483,-37.05706 9.88898,-1.90038 33.72788,-2.4635 46.49998,-1.09842 l 7.5,0.8016 66.939,-67.051598 L 1185.3781,0 h 22.5584 22.5584 l -72.8051,72.81016 -72.805,72.81016 8.348,5.10133 c 34.1457,20.86579 57.5714,53.39701 65.3695,90.77835 2.6405,12.65761 2.4765,42.15483 -0.3048,54.81841 l -1.9368,8.8184 152.5709,-152.5684 L 1461.5024,0 h 22.998 22.9979 l -220.8744,220.87615 -220.8745,220.87614 18.2065,96.37176 c 10.0136,53.00447 18.3016,96.46682 18.4178,96.58299 0.1162,0.11618 52.5689,-52.1479 116.5617,-116.14241 l 116.3504,-116.35364 -5.1832,-7.74953 c -9.1111,-13.62217 -16.3199,-31.07048 -19.6192,-47.48626 -0.8264,-4.11136 -1.7811,-14.0002 -2.1218,-21.9752 -1.7227,-40.32922 11.3822,-73.84902 40.0901,-102.54292 25.4196,-25.4072 53.9016,-37.72515 90.5483,-39.16044 29.5121,-1.15586 56.1148,6.10963 80.3237,21.93723 l 7.8238,5.1151 105.178,-105.17448 L 1737.5035,0 h 22.9967 22.9966 L 1667.2484,116.2516 C 1603.3118,180.18998 1551,232.83496 1551,233.24044 c 0,0.40547 1.9536,3.32975 4.3412,6.49839 24.4414,32.43554 32.0129,77.35253 20.0716,119.07215 -12.2022,42.63111 -51.1523,80.23974 -94.8697,91.60223 -25.3548,6.5899 -55.9671,5.8186 -80.0326,-2.0165 -11.3634,-3.6996 -26.9027,-11.55599 -35.1939,-17.79335 l -7.0905,-5.33408 -79.864,80.11536 c -43.9252,44.06345 -99.8316,100.19774 -124.2364,124.74287 l -44.3723,44.62751 18.2112,96.37249 c 10.0162,53.00487 18.3036,96.46695 18.4166,96.5824 0.1129,0.11545 26.8057,-26.43455 59.3174,-59 l 59.1122,-59.20991 56.2509,-150 c 30.938,-82.5 56.527,-150.32396 56.8645,-150.71991 0.5243,-0.61517 67.7659,10.57867 68.6087,11.42143 0.1657,0.16574 0.6311,24.08251 1.0341,53.14837 l 0.7328,52.84702 L 1731.4015,283.09846 2014.5013,0 h 6.177 C 2034.2639,0 2048,3.1545138 2048,6.2744425 2048,6.9471377 1980.1625,75.3741 1897.25,158.33436 1751.0133,304.6553 1746.7096,309.06761 1753.5,305.71122 c 19.1729,-9.4768 35.2695,-13.03033 59.5,-13.13536 19.3578,-0.0839 27.1981,0.969 42,5.64042 26.7286,8.43542 53.6074,28.58951 70.7433,53.0442 l 5.558,7.93187 58.3493,-58.34297 L 2048,242.50641 v 22.6761 22.6761 l -51.5095,51.32069 -51.5096,51.3207 2.0349,9.5 c 1.1546,5.39056 2.296,15.55602 2.6387,23.5 1.386,32.13731 -7.5199,61.63302 -26.0279,86.20267 -20.4166,27.1032 -48.6736,45.48424 -80.6266,52.44715 -14.3383,3.12448 -44.605,3.15444 -58.5,0.0579 l -9,-2.00567 -3,3.01298 c -1.6866,1.69385 -2.5148,3.19776 -1.8918,3.43503 0.6095,0.23213 1.843,0.96833 2.7412,1.63599 1.4918,1.10896 0.1639,12.15325 -15.3549,127.71394 -9.3434,69.575 -16.9894,127.17445 -16.9912,127.99878 0,0.82433 69.0717,-67.57512 153.4967,-151.99878 L 2048,518.50243 v 22.57319 22.57319 l -157.2035,157.09362 -157.2034,157.09361 -17.7666,132.33196 c -9.7717,72.7826 -17.7801,133.0065 -17.7966,133.8309 -0.016,0.8244 78.7201,-77.2501 174.9701,-173.49891 l 175,-174.99786 v 22.53741 22.5374 l -183.8556,183.79766 -183.8555,183.7977 -38.6264,66.377 -38.6264,66.377 -14.0248,79.5808 -14.0249,79.5808 5.2343,19.4778 5.2342,19.4778 231.2725,-231.2709 L 2048,1076.5016 v 23.5639 23.5639 l -226.3606,226.4353 -226.3606,226.4353 22.2985,82.9899 c 21.0821,78.463 22.2065,83.0915 20.6142,84.851 -3.0499,3.3701 -19.4256,13.76 -30.1535,19.1314 -49.7606,24.9151 -132.4831,44.7608 -258.568,62.0322 -3.7963,0.52 -10.4347,6.957 -114.4983,111.0238 L 1124.5034,2047 h -23.6419 -23.6419 l 107.6402,-107.5751 107.6402,-107.5752 -5.5,0.5856 c -30.3917,3.2358 -96.6324,7.6166 -137,9.0605 -8.525,0.3049 -19.325,0.7575 -24,1.0057 -4.675,0.2482 -25.375,0.7313 -46,1.0736 l -37.5,0.6224 L 940.99822,1945.5988 839.49634,2047 h -22.56685 -22.56686 l 101.36659,-101.25 c 81.9071,-81.8128 100.9255,-101.2913 99.0687,-101.4654 -1.2638,-0.1184 -21.4229,-0.6871 -44.7979,-1.2636 -58.5427,-1.4439 -102.91994,-3.6886 -152.31083,-7.704 l -20.8108,-1.6919 L 670.18745,1940.3126 563.49651,2047 h -22.60505 -22.60504 l 108.91289,-108.75 108.9129,-108.75 -14.8061,-1.7401 C 666.0731,1821.2688 605.20623,1811 559.28296,1800.4251 548.71358,1797.9913 539.48791,1796 538.78146,1796 538.07501,1796 481.02336,1852.475 412,1921.5 L 286.50299,2047 H 263.9262 241.34942 l 130.76948,-130.657 130.76949,-130.6569 -13.6942,-4.6823 c -18.72739,-6.4032 -25.56634,-9.1791 -40.69419,-16.5176 -13.61176,-6.6031 -28.37708,-15.938 -34.76303,-21.9779 l -3.76304,-3.5591 15.95294,-60.7014 c 8.77412,-33.3857 15.86748,-60.7118 15.76303,-60.7246 C 441.58546,1617.5102 345.2,1714.023 227.5,1831.9955 109.8,1949.968 12.774558,2046.6287 11.887908,2046.797 c -0.88665,0.1683 -3.0167503,-0.876 -4.7335503,-2.3206 z M 517.27194,1708.094 c 100.57527,-29.0269 222.7385,-45.3308 391.72808,-52.2799 40.6009,-1.6696 185.20288,-1.6787 223.49998,-0.014 136.6686,5.9403 247.4247,18.5951 348.5,39.8191 19.609,4.1176 56.8292,13.1893 61.3654,14.9566 1.5073,0.5873 1.7552,0.3619 1.2914,-1.1744 -0.3157,-1.0457 -7.0808,-27.4769 -15.0334,-58.736 -7.9527,-31.2591 -14.708,-57.0833 -15.0119,-57.3871 -0.8919,-0.8919 -34.5206,-7.93 -60.8027,-12.7252 -89.2083,-16.2763 -185.773,-25.7993 -311.8088,-30.7499 -41.7008,-1.638 -192.60398,-1.63 -233.99998,0.012 -120.98891,4.8003 -212.71485,13.6931 -302.00002,29.2789 -27.33356,4.7713 -67.56057,13.1327 -68.7094,14.2816 -0.2783,0.2783 -7.44217,26.295 -15.91972,57.8149 -8.47755,31.52 -15.68101,58.1646 -16.0077,59.2103 -0.45719,1.4634 -0.21692,1.7566 1.04336,1.2729 0.90054,-0.3455 6.23997,-1.9566 11.8654,-3.5802 z m 49.8907,-199.0521 c 82.34046,-19.7784 182.39117,-33.2124 294.33736,-39.5214 93.19182,-5.252 215.3675,-5.8458 306,-1.4872 127.5274,6.1329 239.3884,20.677 322.4696,41.9273 6.3082,1.6135 11.6139,2.7892 11.7904,2.6127 0.1765,-0.1765 3.8822,-22.7514 8.2348,-50.1663 5.722,-36.0404 7.597,-50.0413 6.7698,-50.5525 -2.0557,-1.2705 -49.7843,-12.6511 -70.4667,-16.8023 -120.0478,-24.0954 -271.427,-35.4785 -448.29788,-33.7102 -33.275,0.3327 -72.2,1.0707 -86.5,1.64 -133.10689,5.2997 -238.01606,17.2785 -329.00002,37.5663 -20.17504,4.4986 -49.20283,11.8212 -49.99279,12.6112 -0.33969,0.3396 11.74754,84.4552 14.03075,97.6405 0.43635,2.5199 0.97221,3.1753 2.26674,2.7722 0.93241,-0.2904 9.19349,-2.329 18.35794,-4.5303 z m 995.05946,-230.5916 c 13.7082,-24.1727 25.0036,-44.3391 25.1009,-44.8143 0.2174,-1.0611 -6.0111,-3.2877 -27.1092,-9.691 -72.2685,-21.9337 -183.8075,-40.6557 -300.2138,-50.3914 -260.35438,-21.7749 -557.49822,-5.6829 -737.5,39.9398 -23.91348,6.061 -57.279,15.9237 -58.65016,17.3366 -1.03416,1.0657 48.77547,90.691 50.30573,90.518 0.73944,-0.084 9.21943,-2.207 18.84443,-4.7187 71.18598,-18.5763 160.90914,-29.9794 288,-36.6025 183.0811,-9.5409 404.4396,-5.0899 549.5,11.049 56.1691,6.2491 116.5378,17.2922 152,27.8048 7.15,2.1196 13.4046,3.7787 13.899,3.6869 0.4945,-0.092 12.1149,-19.9445 25.8231,-44.1172 z M 595.7464,928.23785 595.5,912.97571 577.29394,931.23785 559.08788,949.5 l 17.70606,29.81878 17.70606,29.81882 0.7464,-32.81882 c 0.41053,-18.05033 0.63553,-39.68675 0.5,-48.08093 z M 1541.4719,861 c 47.1714,-79.475 88.4459,-149 91.721,-154.5 l 5.9549,-10 -93.5739,93.49799 -93.5739,93.498 v 29.002 c 0,52.64086 1.1716,96.70481 2.5129,94.74371 0.6552,-0.9579 39.786,-66.7667 86.9574,-146.2417 z m -652.40848,81.24163 c 5.8923,-31.20789 10.6305,-56.83713 10.5294,-56.95386 -0.1012,-0.11672 -10.8338,10.45828 -23.85039,23.5 L 852.07597,932.5 l 12.71202,33.64793 c 6.9916,18.50636 12.90327,33.46509 13.13704,33.24163 0.23377,-0.22346 5.24603,-25.94003 11.13839,-57.14793 z M 1237.7129,820.3796 c -0.1653,-0.16537 -19.2733,18.69407 -42.462,41.90986 l -42.1614,42.21054 8.4279,44.5 c 4.6353,24.475 8.7006,45.61972 9.0341,46.98827 0.4532,1.86007 9.0455,-19.95508 34.0342,-86.40987 18.3853,-48.89397 33.2926,-89.03343 33.1272,-89.1988 z M 597.92884,749.1352 c 0.64619,-63.45064 1.01972,-115.51998 0.83005,-115.70964 -0.18966,-0.18967 -32.39669,31.70935 -71.57117,70.8867 L 455.9614,775.54381 498.7307,847.73383 541.5,919.92384 569.12697,892.21192 596.75394,864.5 Z M 936.99312,687.5 c 14.358,-76.45 26.3512,-139.9 26.6516,-141 0.3003,-1.1 -41.5719,40.0741 -93.04936,91.49799 C 819.11791,689.42189 777,732.0057 777,732.62869 c 0,0.62299 13.73714,37.52389 30.52697,82.00201 16.78983,44.47811 30.76061,81.52275 31.04617,82.32141 0.34553,0.96638 12.52674,-10.57367 36.4168,-34.5 L 910.88752,826.5 Z m 645.13198,20.81352 123.625,-123.81352 11.1452,-18.68601 11.1452,-18.68601 5.3309,2.35758 5.3309,2.35757 2.5933,-2.59328 2.5933,-2.59328 -8.1945,-5.56287 c -10.9778,-7.45242 -28.8684,-25.4501 -35.8788,-36.0937 -10.3084,-15.65087 -15.9096,-28.85349 -19.974,-47.08122 -1.9895,-8.92198 -2.3149,-13.07655 -2.2652,-28.91878 0.078,-24.88644 3.3955,-40.28804 12.7722,-59.29631 L 1694.5,361.2882 1571.6917,484.3941 1448.8834,607.5 1449.444,675 c 0.3083,37.125 0.855,88.96956 1.2147,115.21013 l 0.6542,47.71014 3.5935,-2.89661 c 1.9765,-1.59314 59.2249,-58.6127 127.2187,-126.71014 z M 982.00092,448.5 c 3.9161,-20.9 7.3667,-39.0125 7.668,-40.25 l 0.5479,-2.25 h 32.70448 32.7045 l 2.6884,-2.80603 2.6883,-2.80604 -8.7512,1.9471 c -13.6271,3.03195 -43.1063,2.93569 -57.17008,-0.18667 -26.6791,-5.92314 -46.965,-16.99902 -66.1494,-36.11686 -10.7458,-10.70856 -16.7782,-18.4131 -23.7261,-30.30275 l -3.8725,-6.62687 -100.16664,100.86484 c -55.09162,55.47566 -100.1738,101.24024 -100.18263,101.69906 -0.009,0.45882 14.05139,38.07374 31.24492,83.58872 L 763.48983,698.009 869.1853,592.2545 974.88082,486.5 Z M 1413.4487,1987.0603 C 1446.4769,1954.0935 1602.65,1798.7101 1760.5,1641.764 l 287,-285.3567 0.2694,22.5264 0.2693,22.5264 -322.7688,322.77 L 1402.5012,2047 h -24.5519 -24.5519 z m 323.0125,-45.806 c 58.3214,-58.1601 152.2829,-151.8726 208.8035,-208.25 l 102.7646,-102.5043 -0.2646,23.5 -0.2647,23.5 -185.0142,184.75 -185.0141,184.75 h -23.5246 -23.5247 z m 205.9796,69.9957 c 19.832,-19.6625 51.696,-51.2664 70.8087,-70.2308 L 2048,1906.5383 v 22.6743 22.6742 l -49.4255,47.5566 L 1949.149,2047 h -21.3833 -21.3832 z M -2.3129253e-6,655.49443 V 633.494 L 62.389778,571.11021 124.77956,508.72642 120.81259,502.61321 C 112.70687,490.12206 105.57767,472.37103 102.48336,456.9752 101.65705,452.86384 100.70225,442.975 100.3616,435 c -1.065742,-24.94998 3.09368,-45.23547 13.63547,-66.5 7.05746,-14.23608 14.67603,-24.71437 26.96198,-37.0825 19.33521,-19.46453 40.14667,-30.95684 66.23866,-36.57768 14.81736,-3.19202 42.75734,-3.19881 57.53596,-0.014 16.81028,3.62265 32.61532,10.1359 45.21862,18.63458 l 5.45229,3.67659 L 473.90859,158.56851 632.4126,0 h 22.5426 22.54259 L 508.21104,169.28895 338.9243,338.57791 l 4.90463,6.11129 c 32.14872,40.05805 38.3738,97.32335 15.65289,143.99284 -16.81194,34.53227 -50.38135,62.22962 -86.93874,71.73117 -25.3548,6.5899 -55.96705,5.8186 -80.0326,-2.0165 -12.36683,-4.02631 -27.34019,-11.83519 -37.53472,-19.57504 L 145.71464,531.79048 72.857318,604.64267 -2.3129253e-6,677.49486 Z m 0,-277.51285 V 355.49789 L 177.77041,177.72958 355.54083,-0.03872446 378.02041,0.23063777 400.5,0.5 200.25,200.48264 -2.3129253e-6,400.46527 Z M 0.00399769,101.99698 0.00710769,79.5 39.745328,39.731844 79.483548,-0.03631108 101.74588,0.23184446 124.00821,0.5 62.004108,62.496976 -2.3129253e-6,124.49395 Z"
       id="path1" />
  </g>
</svg>
