<?xml version="1.0" encoding="UTF-8" standalone="no"?>
<!-- Created with Inkscape (http://www.inkscape.org/) -->

<svg
   version="1.1"
   id="svg1"
   width="2048"
   height="2048"
   viewBox="0 0 2048 2048"
   xmlns="http://www.w3.org/2000/svg"
   xmlns:svg="http://www.w3.org/2000/svg">
  <defs
     id="defs1" />
  <g
     id="g1">
    <path
       style="fill:#000000"
       d="M 7.154362,2044.4764 C 3.264052,2041.203 1.149012,2034.4908 0.38700197,2023 l -0.56368,-8.5 129.02949803,-128.9397 129.0295,-128.9397 11.80884,5.5896 c 6.49486,3.0744 13.50523,6.1783 15.57859,6.8978 l 3.76974,1.3081 -137.76974,138.0323 c -75.773368,75.9179 -138.495188,138.1724 -139.381848,138.3435 -0.88665,0.1711 -3.01675,-0.8709 -4.73354,-2.3155 z m 348.514208,-111.6884 114.34006,-114.2121 4.24568,0.4621 c 2.33513,0.2541 12.23438,0.4601 21.99834,0.4577 H 514.0053 L 400.25429,1933.2457 286.50329,2047 h -22.58738 -22.58739 z m 275.06168,1.962 c 61.84061,-61.7375 112.82079,-112.1471 113.28928,-112.0214 0.4685,0.1257 3.98883,2.2578 7.82298,4.7381 3.83414,2.4803 9.82559,5.7215 13.31433,7.2026 3.48874,1.481 6.54901,2.8547 6.8006,3.0525 0.25159,0.1979 -46.54761,47.3664 -103.99821,104.819 L 563.50359,2047 h -22.60541 -22.60542 z m 261.70008,14.261 98.0697,-97.989 22.49807,-0.011 22.4981,-0.011 -97.99617,98 -97.9962,98 h -22.57154 -22.57153 z m 282.91687,0.013 98.1528,-97.9765 23.4981,-0.024 23.4981,-0.024 -97.9962,98 -97.9962,98 h -23.6547 -23.6548 z m 265.6172,10.6839 c 48.1446,-48.011 92.5102,-92.111 98.5904,-98 L 1550.6095,1851 h 23.9434 23.9433 l -97.9962,98 -97.9962,98 h -24.5375 -24.5374 z m 189.1449,87.0426 c 0.2434,-0.1375 45.6559,-45.3524 100.9167,-100.4775 l 100.474,-100.2276 10.3053,-2.5954 c 30.4651,-7.6728 53.2333,-22.9253 69.0679,-46.2692 7.7502,-11.4256 14.4437,-27.7311 17.153,-41.7849 l 1.1768,-6.1047 59.412,-59.3953 59.412,-59.3954 -0.2635,23.5 -0.2635,23.5 -185.0142,184.75 -185.0141,184.75 h -23.9025 c -13.1464,0 -23.7034,-0.1125 -23.4599,-0.25 z m 312.3315,-35.5 c 19.832,-19.6625 51.696,-51.2664 70.8087,-70.2308 L 2048,1906.5383 v 22.6743 22.6742 l -49.4255,47.5566 L 1949.149,2047 h -21.3833 -21.3832 z m -1206.41228,-224 c 0.0888,-2.335 37.32405,-39.7336 57.97148,-58.2257 6.325,-5.6648 13.3,-12.1594 15.5,-14.4325 2.2,-2.2731 10.75,-10.2974 19,-17.8318 28.23313,-25.7842 35.00973,-32.0397 44.03163,-40.6452 4.9674,-4.7381 17.5674,-16.4829 28,-26.0996 21.3215,-19.6538 44.9402,-42.9959 51.114,-50.5152 8.3018,-10.1113 17.3527,-22.8781 25.1673,-35.5 2.4753,-3.998 16.8312,-32.5341 19.3799,-38.5225 9.49757,-22.3159 17.34397,-48.497 21.31257,-71.1134 1.9497,-11.1113 3.3793,-34.8702 2.591,-43.0595 l -0.5964,-6.1954 -5.5,3.9266 c -22.32597,15.9391 -59.57027,35.1133 -81.99997,42.2155 -34.3812,10.8865 -91.7597,34.3594 -117.50003,48.068 -1.1,0.5858 -6.2663,3.2885 -11.48066,6.006 -5.21436,2.7174 -11.16792,6.006 -13.23013,7.3078 -2.06221,1.3018 -4.00639,2.3669 -4.3204,2.3669 -0.82684,0 -22.88713,13.5398 -39.91763,24.5 -2.56385,1.65 -7.08137,4.9125 -10.03892,7.25 -2.95755,2.3375 -5.6967,4.25 -6.087,4.25 -0.3903,0 -3.07992,2.025 -5.97694,4.5 -2.89702,2.475 -5.56856,4.5 -5.93677,4.5 -2.95995,0 -50.89623,44.7037 -61.51155,57.3635 -1.375,1.6398 -3.40495,3.9417 -4.51099,5.1154 -2.89316,3.0701 -16.66329,20.3915 -19.49374,24.5211 -1.3194,1.925 -2.66935,3.725 -2.99988,4 -0.33053,0.275 -1.67846,2.3 -2.99539,4.5 -1.31693,2.2 -2.69523,4.225 -3.06288,4.5 -0.36765,0.275 -1.64414,2.3 -2.83665,4.5 -1.1925,2.2 -3.48772,6.025 -5.10047,8.5 -1.61275,2.475 -3.90701,6.2862 -5.09835,8.4693 -1.19134,2.1831 -2.94776,5.1081 -3.90316,6.5 -0.9554,1.3919 -5.69664,9.2807 -10.53608,17.5307 -10.70587,18.2507 -19.01228,31.816 -22.35001,36.5 -9.95151,13.9654 -18.61772,24.285 -22.25414,26.5 -0.90296,0.55 -3.67528,2.4565 -6.1607,4.2366 -9.63611,6.9016 -28.52032,12.072 -47.19756,12.9223 -15.84064,0.7212 -24.75684,-0.7473 -39.25221,-6.465 -16.88572,-6.6605 -30.7283,-18.1924 -43.18037,-35.9723 -2.41837,-3.4531 -4.88538,-6.0804 -5.48223,-5.8384 -0.59685,0.242 -5.13519,1.3462 -10.08519,2.4539 -14.6921,3.2875 -31.03703,5.3345 -47.06084,5.8936 l -15.06084,0.5255 -10.43916,-3.516 c -25.30593,-8.5233 -56.02471,-23.9295 -68.08939,-34.1484 -16.26955,-13.7805 -34.12513,-32.9283 -45.77864,-49.0918 -2.77577,-3.85 -5.38981,-7.45 -5.80899,-8 -2.49492,-3.2736 -8.59516,-14.1883 -12.01636,-21.5 -11.17705,-23.8873 -18.4915,-55.0746 -21.34254,-91 -2.55897,-32.2453 0.83104,-54.7663 12.744,-84.663 4.58696,-11.5114 15.72534,-34.0306 21.18787,-42.837 1.70581,-2.75 3.99922,-6.6372 5.09647,-8.6382 4.23254,-7.7187 27.81322,-41.8687 34.58676,-50.0892 0.78283,-0.95 2.62125,-3.5375 4.08538,-5.75 1.46413,-2.2124 2.95523,-4.0226 3.31356,-4.0226 0.35833,0 1.45274,-1.3564 2.43203,-3.0142 0.97928,-1.6578 3.43881,-4.9848 5.4656,-7.3933 2.0268,-2.4085 5.26009,-6.3074 7.18509,-8.6643 1.925,-2.3568 5.075,-6.1638 7,-8.4598 1.925,-2.296 5.3,-6.3461 7.5,-9.0001 2.2,-2.654 5.575,-6.6989 7.5,-8.9887 4.70455,-5.5959 9.38176,-11.3403 12.18807,-14.969 1.27156,-1.6442 3.03727,-3.7195 3.9238,-4.6119 0.88652,-0.8923 2.44605,-3.0346 3.4656,-4.7606 1.01956,-1.7259 2.1654,-3.1381 2.54631,-3.1381 0.38092,0 1.97139,-2.0242 3.5344,-4.4982 1.563,-2.474 3.11952,-4.499 3.45893,-4.5 0.33942,0 1.81504,-1.812 3.27917,-4.0244 1.46413,-2.2125 3.30654,-4.8 4.09425,-5.75 4.19931,-5.0648 15.97342,-21.7166 25.96911,-36.7274 25.35988,-38.0836 42.4542,-72.6907 49.64243,-100.5 1.2702,-4.9141 2.27994,-13.8786 2.92857,-26 1.76826,-33.0449 5.7451,-61.9253 10.53407,-76.5 2.48887,-7.57459 12.71129,-29.36247 14.30032,-30.47945 0.4073,-0.2863 1.81804,-2.32055 3.13497,-4.52055 1.31693,-2.2 2.6651,-4.225 2.99592,-4.5 0.33082,-0.275 3.25766,-4.325 6.50408,-9 3.24642,-4.675 6.17326,-8.725 6.50408,-9 0.33082,-0.275 1.67899,-2.3 2.99592,-4.5 1.31693,-2.2 2.64574,-4.225 2.9529,-4.5 0.30716,-0.275 1.88994,-2.28402 3.51728,-4.46449 1.62734,-2.18047 3.64978,-4.70759 4.49431,-5.61582 0.84453,-0.90822 3.56051,-4.04761 6.03551,-6.97642 7.09613,-8.39725 13.89448,-15.89543 20.9652,-23.12338 3.59414,-3.67406 9.43341,-9.74906 12.97615,-13.5 3.54274,-3.75094 9.99272,-10.06935 14.33328,-14.04091 12.97759,-11.87433 12.40757,-9.96052 7.113,-23.88126 C 507.43081,783.55547 494.91011,731.40406 489.55937,680 c -3.24109,-31.13682 -4.02579,-70.45797 -1.94934,-97.68144 l 0.54776,-7.18144 7.67111,2.54722 c 4.2191,1.40097 11.4961,3.91517 16.1711,5.5871 4.675,1.67193 12.55,4.45451 17.5,6.18352 4.95,1.729 11.7,4.31709 15,5.75131 3.3,1.43421 8.925,3.74595 12.5,5.13719 3.575,1.39124 11.675,4.85777 18,7.7034 6.325,2.84563 14.875,6.64251 19,8.43751 9.92012,4.31676 46.24513,22.84192 49.91862,25.45768 1.58957,1.13187 3.28947,2.05795 3.77756,2.05795 0.48809,0 4.54356,2.25 9.01216,5 8.52113,5.24395 10.98208,5.97033 11.92269,3.51914 0.71036,-1.85117 23.6039,-22.21283 32.92696,-29.28546 7.17887,-5.44601 15.60958,-11.45623 26.97964,-19.23368 3.61827,-2.475 9.46119,-6.6375 12.98426,-9.25 3.52308,-2.6125 6.66684,-4.75 6.98613,-4.75 0.3193,0 3.59812,-2.2271 7.28626,-4.9491 3.68815,-2.72201 9.1069,-6.65951 12.04168,-8.75 2.93478,-2.0905 8.10978,-5.83081 11.5,-8.31182 3.39022,-2.48101 7.96404,-5.77252 10.16404,-7.31448 2.2,-1.54195 6.7,-4.8015 10,-7.24343 3.3,-2.44193 8.475,-6.24783 11.5,-8.45757 3.025,-2.20973 8.425,-6.24561 12,-8.96862 3.575,-2.72301 8.52503,-6.38983 11.00003,-8.14848 2.475,-1.75866 6.1635,-4.58332 8.1968,-6.27703 2.0333,-1.69371 6.6857,-5.32947 10.3388,-8.07947 3.6531,-2.75 8.5767,-6.69845 10.9414,-8.77434 2.3647,-2.07589 5.6755,-4.77589 7.3574,-6 5.0976,-3.71008 19.8113,-16.38461 35.9774,-30.99113 16.9311,-15.29775 57.1882,-54.59144 57.1882,-55.8196 0,-0.42908 -1.0125,-1.0985 -2.25,-1.48759 -4.038,-1.26957 -18.0822,-9.73746 -25.75,-15.52574 -32.0792,-24.21601 -47.31,-56.19177 -45.6803,-95.9016 1.1859,-28.89516 10.231,-51.0338 29.6211,-72.5 6.911,-7.65095 26.5086,-24.5 28.4967,-24.5 0.392,0 3.7165,-1.77057 7.3876,-3.93461 6.5237,-3.84552 23.3913,-10.71066 31.9833,-13.0173 6.1591,-1.65347 28.25637,-4.00564 37.84617,-4.02858 4.4851,-0.0107 14.2549,0.65684 21.7108,1.48349 13.1341,1.45619 15.0632,1.96116 36.2563,9.49036 2.8169,1.00076 6.8669,2.91515 9,4.25419 2.1331,1.33904 6.0586,3.64611 8.7234,5.12682 9.536,5.29874 29.7209,23.17954 36.8296,32.62563 8.6798,11.53371 12.3646,18.21072 17.3198,31.38457 10.2062,27.13368 8.019,63.41086 -5.407,89.68069 -3.5796,7.004 -10.4475,17.64567 -12.2249,18.94214 -0.3825,0.27907 -1.9706,2.09594 -3.5291,4.03749 -3.3087,4.12206 -13.1425,13.00487 -19.7329,17.82448 -5.6237,4.11266 -21.8237,13.74929 -24.5895,14.62711 -1.1061,0.35106 -2.0111,0.94677 -2.0111,1.32379 0,0.96963 31.127,32.24585 47.1025,47.32836 19.1811,18.10895 40.4571,36.49514 62.6412,54.13298 2.6159,2.07989 7.5491,6.01739 10.9625,8.75 3.4134,2.73262 6.4916,4.96839 6.8405,4.96839 0.3489,0 3.0046,2.025 5.9016,4.5 2.897,2.475 5.597,4.5 6,4.5 0.403,0 3.103,2.025 6,4.5 2.897,2.475 5.6064,4.5 6.0207,4.5 0.4144,0 2.8409,1.70126 5.3922,3.78058 2.5513,2.07932 6.5417,5.11682 8.8675,6.75 2.3259,1.63318 6.8259,4.85802 10,7.1663 10.1503,7.38135 43.9025,30.82271 52.2713,36.30312 4.2424,2.77819 18.0026,12.23764 25.095,17.25159 8.5755,6.06236 22.2108,17.54922 33.5319,28.24841 10.1463,9.58887 25.011,26.00074 29.1906,32.2288 1.3919,2.07416 2.8137,3.9962 3.1594,4.2712 0.8041,0.63962 8.1007,11.42101 10.8285,16 9.0005,15.10886 19.289,39.1084 27.0078,63 11.4256,35.36506 17.0626,69.01531 15.9139,95 l -0.5525,12.5 7.6627,5 c 4.2145,2.75 8.7877,5.68653 10.1627,6.52562 2.6836,1.63764 12.7831,8.87733 19.8162,14.20487 2.3739,1.79823 5.3664,3.94451 6.6501,4.76951 2.6617,1.71064 10.2397,7.5359 17.8449,13.71748 2.8538,2.31962 7.4388,6.04477 10.1888,8.27812 24.9964,20.30027 71.0463,65.15076 84.5846,82.3815 1.2433,1.5824 3.1954,3.8595 4.338,5.0602 1.1426,1.2006 3.8774,4.385 6.0774,7.0763 2.2,2.6913 5.3652,6.4892 7.0337,8.4398 1.6685,1.9507 4.3685,5.2881 6,7.4165 1.6315,2.1285 4.0913,5.3305 5.4663,7.1157 2.2482,2.9187 12.198,16.0864 17.0125,22.5144 10.9977,14.6835 42.1245,61.0217 47.3571,70.5 0.9109,1.65 3.4908,5.9242 5.7331,9.4981 2.2423,3.574 5.6975,9.424 7.6783,13 1.9807,3.5761 3.8775,6.7269 4.2151,7.0019 1.9894,1.6206 34.8132,64.8112 41.2956,79.5 0.9709,2.2 4.039,9.175 6.8181,15.5 2.779,6.325 5.6479,12.85 6.3752,14.5 10.2058,23.1532 27.9881,72.0963 36.1508,99.5 24.4375,82.0409 39.2248,160.8487 46.8155,249.5 3.3152,38.7177 9.5125,146.0411 9.5421,165.25 l 0.01,4.25 h -57 -57 l -0.01,-82.75 c 0,-45.5125 -0.4668,-91.525 -1.0296,-102.25 -3.6898,-70.324 -14.3759,-133.478 -34.3489,-203 -6.0933,-21.2096 -17.9176,-58.6063 -23.0815,-73 -10.6024,-29.5527 -18.9832,-51.9667 -21.4999,-57.5 -0.5003,-1.1 -4.0359,-9.425 -7.8568,-18.5 -12.5012,-29.691 -24.6261,-54.3146 -42.3473,-86 -14.2387,-25.4587 -16.3662,-29.1469 -17.6478,-30.5939 -0.5329,-0.6016 -1.7112,-2.5294 -2.6185,-4.2839 -0.9073,-1.7545 -3.8014,-6.4372 -6.4313,-10.4061 -2.6299,-3.9688 -5.423,-8.1903 -6.2068,-9.381 -7.6148,-11.5678 -17.7523,-26.0044 -21.4612,-30.5625 -0.7731,-0.95 -2.6035,-3.5375 -4.0676,-5.75 -1.4641,-2.2124 -2.9398,-4.0234 -3.2792,-4.0244 -0.3394,-10e-4 -1.8959,-2.026 -3.4589,-4.5 -1.563,-2.474 -3.1535,-4.4982 -3.5344,-4.4982 -0.3809,0 -1.5268,-1.4122 -2.5463,-3.1381 -1.0196,-1.726 -2.5852,-3.8696 -3.4791,-4.7635 -0.894,-0.894 -2.7236,-3.1943 -4.0659,-5.1119 -1.3423,-1.9176 -3.4378,-4.6115 -4.6566,-5.9865 -1.2189,-1.375 -4.0946,-4.75 -6.3906,-7.5 -13.0183,-15.593 -38.5833,-41.7804 -53.0956,-54.38835 C 1475.55,969.39141 1469.9469,964.65577 1466.4603,962 c -1.8052,-1.375 -6.751,-5.2 -10.9906,-8.5 -4.2397,-3.3 -9.9069,-7.575 -12.5938,-9.5 -12.6808,-9.08484 -22.1747,-15.63416 -24.6543,-17.00749 -1.4969,-0.82912 -5.3825,-3.41662 -8.6345,-5.75 -3.252,-2.33338 -6.2852,-4.24251 -6.7403,-4.24251 -0.4551,0 -3.7853,-2.025 -7.4004,-4.5 -3.6151,-2.475 -7.0375,-4.5 -7.6053,-4.5 -0.5679,0 -2.4055,-0.97768 -4.0836,-2.17262 -2.9074,-2.07026 -10.1744,-6.17404 -26.7576,-15.11039 -17.0434,-9.18438 -55.3306,-27.52911 -61,-29.2272 -1.375,-0.41184 -4.75,-1.88037 -7.5,-3.2634 -2.75,-1.38302 -7.925,-3.53244 -11.5,-4.77648 -3.575,-1.24404 -9.875,-3.6207 -14,-5.28147 -15.5547,-6.26249 -51.5448,-18.0739 -68.5,-22.48069 -35.3743,-9.19406 -63.2917,-15.41304 -75.3311,-16.78106 -4.7316,-0.53764 -9.6954,-1.25172 -11.0307,-1.58684 -2.1711,-0.54492 -2.3633,-0.35272 -1.8184,1.81838 1.9658,7.83212 2.6269,22.84858 2.0853,47.36177 -0.3282,14.85 -0.2045,28.75872 0.2748,30.90827 0.9749,4.37192 0.8041,4.28273 18.3201,9.56936 14.4649,4.36577 54.8083,18.73261 66,23.50354 3.575,1.52399 8.75,3.56419 11.5,4.53377 5.5807,1.96762 17.6726,7.10828 30.5,12.96651 4.675,2.13505 13.675,6.19699 20,9.02653 6.325,2.82953 12.175,5.49183 13,5.91622 0.825,0.42439 4.875,2.4395 9,4.47802 8.1323,4.01889 9.0841,4.51025 22.5,11.6157 26.4595,14.01373 47.4648,27.1429 64.767,40.48208 2.8536,2.2 6.1641,4.675 7.3567,5.5 11.0596,7.6506 34.5071,30.2509 43.9036,42.3174 1.635,2.0995 4.3227,5.5178 5.9727,7.5962 1.65,2.0784 5.844,7.5606 9.32,12.1827 3.476,4.622 7.286,9.6805 8.4665,11.241 1.1806,1.5606 2.8366,3.8778 3.68,5.1494 0.8434,1.2716 6.3039,9.4448 12.1343,18.1626 5.8305,8.7179 11.3488,17.2007 12.2629,18.8507 0.9141,1.65 3.4991,5.925 5.7444,9.5 2.2453,3.575 9.337,15.95 15.7593,27.5 33.5565,60.3482 58.03,119.0027 84.4927,202.5 25.0409,79.0109 38.8391,155.0169 42.5714,234.5 0.5424,11.55 1.2789,57.5625 1.6368,102.25 l 0.6507,81.25 h -441.1095 c -242.61027,0 -441.09667,-0.3375 -441.08098,-0.75 z M 474.63098,1672.6908 c 4.97768,-2.574 13.8088,-11.8661 16.338,-17.1908 1.30624,-2.75 4.56007,-8.9088 7.23072,-13.6862 2.67065,-4.7774 6.67336,-12.8774 8.89491,-18 2.22154,-5.1226 4.45515,-10.2138 4.96356,-11.3138 0.50842,-1.1 2.54445,-6.5 4.52451,-12 4.18401,-11.6219 4.15376,-17.1398 -0.14041,-25.6139 -4.23694,-8.3612 -15.45726,-13.7156 -26.51491,-12.6531 -12.13177,1.1657 -26.91857,16.7302 -41.98312,44.1913 -5.53287,10.0858 -7.01118,11.9235 -17.25069,21.4442 -12.25947,11.3989 -13.71791,22.1606 -4.32786,31.935 4.33014,4.5074 19.43117,12.9413 25.63431,14.3167 5.42207,1.2023 19.22823,0.3303 22.63098,-1.4294 z M 346.5,1569.5108 c 12.27895,-4.8293 17.90243,-12.3162 19.42089,-25.8563 0.94579,-8.4337 4.81789,-17.813 10.33864,-25.0434 6.8458,-8.9656 14.46049,-14.7257 32.19825,-24.3559 2.87252,-1.5595 9.18616,-9.1885 10.53044,-12.7242 4.54934,-11.9657 -4.26411,-27.3626 -20.32407,-35.5057 l -8.42939,-4.2741 -9.4833,0.4147 c -8.74187,0.3824 -10.17789,0.754 -18.36738,4.753 -20.18508,9.8566 -41.1532,27.8297 -52.60415,45.0905 -6.21746,9.3719 -11.55021,21.0815 -14.1395,31.0471 -6.50562,25.0388 -3.68121,38.3605 9.54896,45.0391 8.29265,4.1861 11.95559,4.8787 23.81061,4.502 8.57671,-0.2726 11.7822,-0.838 17.5,-3.0868 z m 715.72,-229.5142 c 11.3316,-3.2716 45.4939,-49.9344 61.4948,-83.9966 2.1961,-4.675 4.3387,-9.625 4.7614,-11 0.4227,-1.375 1.1115,-2.95 1.5307,-3.5 0.4191,-0.55 2.824,-7.3 5.3441,-15 8.1898,-25.0238 12.1997,-47.4317 13.3316,-74.5 0.4984,-11.919 0.3077,-15.5266 -1.0712,-20.2677 -4.841,-16.6442 -19.0729,-24.6524 -41.6114,-23.4146 -17.8621,0.981 -28.2975,5.6574 -31.5336,14.1311 -1.5624,4.0911 -1.6379,5.6239 -0.6325,12.8482 1.7653,12.6852 1.9657,19.053 1.0801,34.3126 -0.9011,15.5262 -3.6434,30.8916 -7.5531,42.3201 -4.8776,14.2583 -17.0197,37.6286 -28.3522,54.5703 -7.5831,11.3366 -9.6464,13.9039 -19.6589,24.4609 -8.5362,9.0006 -10.5969,13.2578 -10.6915,22.0879 -0.077,7.147 1.674,11.1426 7.0217,16.027 4.3288,3.9539 17.1327,10.1844 23.82,11.5911 6.4685,1.3607 16.7345,1.0578 22.72,-0.6703 z M 536.5,1163.952 c 9.54206,-4.7809 10.21806,-5.5156 17.03041,-18.5092 6.44876,-12.3001 11.43846,-20.4428 12.52697,-20.4428 0.50192,0 3.07896,1.333 5.72677,2.9622 11.45784,7.0501 39.00745,10.0738 55.71585,6.1151 17.76557,-4.2091 28.87029,-15.2298 35.34482,-35.0773 5.45537,-16.7233 4.68516,-30.217 -2.50196,-43.8331 -1.83857,-3.4831 -3.34286,-6.4337 -3.34286,-6.5568 0,-0.123 3.2625,-1.722 7.25,-3.5532 26.58374,-12.2081 27.54636,-12.781 31.51118,-18.7524 3.54597,-5.3406 3.73882,-6.0482 3.73882,-13.7178 0,-7.0665 -0.41615,-8.9698 -3.29859,-15.0867 -4.15063,-8.80811 -10.39534,-14.88617 -17.44536,-16.97981 -6.24474,-1.85448 -18.11077,-1.91034 -26.43223,-0.12442 -7.08095,1.51968 -24.11884,8.00806 -35.82382,13.64245 -4.4,2.11801 -9.24787,4.31868 -10.77304,4.89036 -1.52517,0.57169 -5.12517,2.53652 -8,4.36622 -2.87483,1.8297 -6.01964,3.6248 -6.98846,3.989 -2.32947,0.8758 -17.68265,10.9842 -25.2385,16.6168 -12.17907,9.0791 -28.69836,24.5137 -38.18335,35.6762 -8.48805,9.9892 -10.10399,12.0788 -15.02062,19.4232 -8.96711,13.3949 -12.50828,19.3292 -17.53957,29.3928 C 488.05031,1121.8063 487,1125.1384 487,1133 c 0,8.2468 1.83401,13.7405 6.4799,19.4102 8.86926,10.8237 32.04382,17.0412 43.0201,11.5418 z m 207,-249.80777 c 9.35,-4.56207 19.475,-9.57815 22.5,-11.14684 12.85372,-6.66565 31.09993,-13.84036 40.66621,-15.99065 5.59141,-1.25682 10.64852,-2.58322 11.23801,-2.94755 0.76137,-0.47055 0.75011,-3.25414 -0.0389,-9.6108 -1.35931,-10.95121 -0.53621,-38.25116 1.54994,-51.40748 0.82494,-5.2025 1.37995,-9.57904 1.23335,-9.72564 -0.42419,-0.42419 -21.54823,4.53028 -28.14861,6.60202 -27.99299,8.78651 -55.98683,22.72074 -77.05407,38.35447 -3.53661,2.62447 -7.44623,5.15926 -8.68806,5.63288 -1.24183,0.47362 -5.04754,2.95981 -8.45713,5.52487 -8.50096,6.39531 -11.85008,13.04055 -10.94354,21.71385 0.80605,7.71191 5.47706,16.73524 11.97263,23.12842 7.49311,7.37499 10.80286,8.79785 19.67017,8.45614 7.11296,-0.2741 8.3773,-0.71707 24.5,-8.58369 z M 1062.8281,692.75 c -0.3213,-23.74733 -0.3824,-24.36588 -2.9498,-29.84054 -3.0164,-6.43222 -6.1377,-9.62327 -13.2939,-13.59064 -4.9431,-2.7405 -5.5012,-2.81882 -20.0844,-2.81882 -14.52,0 -21.5,1.17567 -21.5,3.62132 0,0.48327 5.2875,6.2017 11.75,12.70762 6.4625,6.50591 13.8501,14.26841 16.4168,17.25 12.7829,14.84884 22.7873,27.63398 26.3477,33.67106 1.0542,1.7875 2.3048,3.25 2.7792,3.25 0.4744,0 0.7149,-10.9125 0.5344,-24.25 z M 1.9727892e-6,1761.6201 v -24.1145 L 65.685892,1671.8141 l 65.685898,-65.6916 4.22371,10.7882 c 2.32305,5.9335 5.57274,13.4606 7.22154,16.7269 l 2.99783,5.9386 -72.907438,73.0792 L 1.9727892e-6,1785.7346 Z M 1914.2896,1512.2563 1911.0974,1492.5 1979.5487,1424.0009 2048,1355.5018 v 23.002 23.0019 l -65.2592,65.2535 -65.2591,65.2534 z M 1.9727892e-6,1485.6147 v -24.1172 L 148.14071,1313.4987 C 275.00982,1186.7512 295.4419,1166.7205 290.4348,1174 c -10.49599,15.2594 -21.52849,30.1431 -37.8036,51 -8.79814,11.275 -22.47982,28.8021 -30.40375,38.9491 -18.92476,24.2342 -30.06548,39.6529 -44.44404,61.5104 l -11.81432,17.9594 -82.984548,83.1565 L 1.9727892e-6,1509.7319 Z M 1857.5818,1292.2532 c -3.1759,-8.6643 -5.9715,-16.4282 -6.2122,-17.2532 -0.2809,-0.9624 34.879,-36.7999 98.1092,-100 l 98.5469,-98.5 -0.2628,24 -0.2629,24 -92.0718,91.7532 -92.0718,91.7532 z M 1.9727892e-6,1210.6868 V 1188.834 L 218.68974,969.47526 C 338.9691,848.82795 437.68499,750.30532 438.05839,750.53609 c 0.3734,0.23077 0.96491,2.11706 1.31448,4.19175 0.34957,2.07469 1.73558,10.07216 3.08002,17.77216 l 2.44445,14 -13.16125,13.5 C 424.4974,807.425 324.3955,907.78389 209.28742,1023.0198 L 1.9727892e-6,1232.5395 Z M 1765.4988,1101.7939 c -4.3994,-7.2401 -8.119,-13.6431 -8.2658,-14.2289 -0.1469,-0.5857 65.2215,-66.54 145.2631,-146.565 l 145.5302,-145.5 -0.2632,23 -0.2631,23 -137.0012,136.72888 -137.0013,136.72892 z M 1646.5,942.83872 c -5.5,-6.04326 -10.1126,-11.29202 -10.2502,-11.66391 -0.1377,-0.3719 92.4498,-93.37546 205.75,-206.67458 L 2048,518.50182 v 22.5601 22.56009 l -195.0252,194.939 c -107.2639,107.21644 -195.3514,195.01244 -195.75,195.10222 -0.3986,0.0898 -5.2248,-4.78125 -10.7248,-10.82451 z M 0.23162197,931.87564 0.50000197,910.25127 454.5,455.37564 908.50003,0.5 931.43553,0.23111362 c 12.6146,-0.1478875 22.7275,-0.1478875 22.4731,0 C 953.65423,0.37900113 738.91247,214.925 476.70468,477 L -0.03676803,953.5 Z M 1519.0806,795.34063 c -2.8619,-8.71235 -5.3594,-16.33226 -5.5502,-16.93315 -0.1907,-0.60088 119.9927,-121.42588 267.0743,-268.5 L 2048.0259,242.5 l -0.263,23 -0.2629,23 -261.6081,261.34063 -261.608,261.34063 z M 1.9727892e-6,655.5038 V 633.5087 L 155.75734,477.50435 C 241.42388,391.70196 383.72476,249.15431 471.98153,160.7318 L 632.44837,-0.03640115 654.72582,0.23179943 677.00327,0.5 338.50164,338.99945 1.9727892e-6,677.49889 Z M 1425.2464,610.26509 1415.1247,599.37402 1714.813,299.68701 2014.5012,0 h 6.1771 c 13.9165,0 27.8823,3.3013613 27.1339,6.4141537 C 2047.6405,7.1283168 1909.7703,145.73742 1741.434,314.43439 L 1435.368,621.15615 Z M 636,561.91771 c -2.475,-0.47474 -5.59494,-1.1297 -6.9332,-1.45547 -2.18129,-0.53098 8.53396,-11.55983 103.49823,-106.52727 C 790.82732,395.67074 838.83473,348 839.24823,348 c 0.4135,0 0.7518,0.65459 0.7518,1.45465 0,0.80006 1.9881,8.31847 4.418,16.70759 l 4.418,15.25293 -20.85412,21.54242 c -11.46978,11.84832 -51.37191,52.03019 -88.67139,89.29304 l -67.81725,67.75062 -6.99663,1.48201 c -7.58067,1.60572 -21.29992,1.81488 -28.49664,0.43445 z m 635.7094,-72.39648 C 1264.7192,484.26409 1259,479.63331 1259,479.23061 c 0,-0.4027 107.6716,-108.40304 239.2701,-240.00076 L 1737.5403,-0.03872583 1760.272,0.23063708 1783.0037,0.5 1533.7113,249.78983 1284.4188,499.07966 Z M 1.9727892e-6,377.98158 V 355.49789 L 177.77041,177.72958 355.54083,-0.03872446 378.02041,0.23063777 400.5,0.5 200.25,200.48264 1.9727892e-6,400.46527 Z M 1216.5989,286.92127 c -1.9637,-12.08445 -3.8338,-21.33075 -5.5461,-27.42127 l -1.968,-7 126.2275,-126.26936 126.2274,-126.2693673 22.7325,0.26936365 L 1507.0047,0.5 1362.0798,145.42127 1217.1549,290.34253 Z M 1088.5,134.27726 c -2.2,-0.81928 -9.7099,-2.9189 -16.6887,-4.66582 l -12.6888,-3.17622 63.1263,-63.217612 L 1185.375,0 h 22.5597 22.5598 L 1162.5,68 c -37.397,37.4 -68.4457,67.94755 -68.9972,67.88344 -0.5516,-0.0641 -2.8028,-0.78689 -5.0028,-1.60618 z M 0.00355197,101.99698 0.00710197,79.5 39.745322,39.731844 79.483552,-0.03631108 101.74588,0.23184446 124.00821,0.5 62.004102,62.496976 1.9727892e-6,124.49395 Z"
       id="path1" />
  </g>
</svg>
