<?xml version="1.0" encoding="UTF-8" standalone="no"?>
<!-- Created with Inkscape (http://www.inkscape.org/) -->

<svg
   version="1.1"
   id="svg1"
   width="2048"
   height="2048"
   viewBox="0 0 2048 2048"
   xmlns="http://www.w3.org/2000/svg"
   xmlns:svg="http://www.w3.org/2000/svg">
  <defs
     id="defs1" />
  <g
     id="g1">
    <path
       style="fill:#000000"
       d="m 7.0931803,2044.425 c -3.77081,-3.173 -5.87968,-9.7992 -6.75884996,-21.2369 l -0.64377,-8.3752 L 106.94355,1907.5565 214.19653,1800.3 l -6.67016,-11.108 c -18.83778,-31.3711 -29.7606,-71.8917 -33.61222,-124.692 -1.08182,-14.8303 -0.71492,-41.8729 0.68517,-50.5 0.50501,-3.1118 -9.14621,6.2159 -87.01566,84.0988 L 3.4013601e-7,1785.6976 v -24.1007 -24.1007 L 99.52726,1637.9981 199.05453,1538.5 207.14847,1523 c 17.76837,-34.0266 39.2402,-66.8103 77.15467,-117.8016 49.20365,-66.1741 71.68171,-101.1237 93.707,-145.6984 C 397.63928,1219.7746 407,1189.8755 407,1166.9033 c 0,-11.7177 1.88007,-36.5621 4.07165,-53.8054 1.07667,-8.4711 1.81431,-15.5453 1.6392,-15.7204 -0.1751,-0.1751 -93.10668,92.5026 -206.51461,205.9504 L 3.4013595e-7,1509.5967 v -24.0492 -24.0492 L 227.05302,1234.4992 C 388.01463,1073.5757 455.65053,1005.3169 459.41202,1000 c 13.35497,-18.87729 41.42311,-52.47332 60.75262,-72.71757 l 10.7107,-11.21758 -5.95843,-17.78242 C 513.78816,865.06969 506.25235,836.49742 499.62366,802.38226 496.01235,783.79637 491,750.46797 491,745.04136 c 0,-1.67275 -0.3375,-3.00576 -0.75,-2.96226 -0.4125,0.0435 -110.775,110.40601 -245.25,245.25 L 0.50000034,1232.5 l -0.26932,-21.8207 -0.26932,-21.8206 L 243.23068,944.86737 486.5,700.87608 l 0.21322,-37.68804 c 0.11728,-20.72842 0.56728,-40.02592 1,-42.88334 l 0.78678,-5.1953 15.5,5.84436 c 8.525,3.21439 22.025,8.60664 30,11.98276 l 14.5,6.13841 34.22466,-34.78747 c 18.82356,-19.1331 34.12356,-35.10512 34,-35.49338 -0.18611,-0.58479 -98.96617,-77.02826 -123.54773,-95.61056 L 485.85386,467.64768 242.92693,710.57307 3.4013595e-7,953.49846 V 931.99837 910.49828 L 218.56298,691.99914 C 338.77262,571.82461 442.48759,467.82752 449.04069,460.8945 L 460.95543,448.289 452.97771,442.10515 445,435.9213 V 334.21149 232.50169 L 222.5,455 3.4013595e-7,677.49831 V 655.66407 633.82982 L 222.5,410.69913 445,187.56844 V 124.28422 61 h 63.34928 63.34927 L 601.88583,30.5 632.07311,0 h 22.7073 22.70729 L 647,30.5 616.5123,61 H 667.25615 718 l 0.008,65.25 0.008,65.25 L 813.70638,95.75 909.39655,0 h 22.4485 22.4485 l -30.8968,30.449939 -30.8968,30.449939 116.06435,0.05006 L 1124.6286,61 1154.9346,30.5 1185.2407,0 h 22.6241 22.6242 L 1196.7445,33.755436 1163,67.510871 V 132.75544 198 h 50.2554 50.2553 L 1298.2554,163.24472 1333,128.48944 V 94.744718 61 h 33.7561 33.7562 L 1431,30.5 1461.4877,0 h 23 23 L 1477,30.5 1446.5123,61 H 1526.7561 1607 V 95.747137 130.49427 L 1672.2528,65.247137 1737.5057,0 h 22.995 22.9951 L 1695.2479,88.252107 1607,176.50421 V 292.00119 407.49816 L 1810.7509,203.74908 2014.5018,0 h 6.1768 C 2033.9226,0 2048,3.1507121 2048,6.1148861 2048,6.6998253 1898.8334,156.65077 1716.5186,339.33921 L 1385.0372,671.5 l -0.019,110.2647 -0.019,110.2647 3.25,1.98156 c 1.7875,1.08986 3.8468,1.98325 4.5762,1.9853 0.7294,0.002 148.4504,-147.00596 328.2689,-326.68448 l 326.9427,-326.68822 -0.2689,22.93822 -0.2689,22.93822 -313,312.5 -313,312.5 19.5019,13.00457 c 34.3482,22.90465 65.9734,47.81188 95.8516,75.49023 l 14.3534,13.2967 L 1799.6035,766.89653 2048,518.50151 v 22.54966 22.54966 l -237,236.92448 c -130.35,130.30847 -237,237.32089 -237,237.80539 0,0.4845 3.2174,4.3207 7.1498,8.5251 22.0191,23.5418 53.9794,64.9542 77.3694,100.2511 L 1673.5,1169.7137 1860.75,982.60785 2048,795.502 v 22.53789 22.53789 l -178.6236,178.56622 -178.6237,178.5662 6.9835,11.8949 c 23.7672,40.4824 48.0915,88.4934 65.3032,128.8949 3.5146,8.25 6.537,15.2059 6.7164,15.4577 0.1794,0.2517 62.8577,-62.0727 139.2852,-138.4987 L 2048,1076.5027 v 23.6082 23.6083 l -132.3754,132.2129 -132.3754,132.213 4.7704,12.808 c 7.0112,18.8243 20.0817,58.7847 26.38,80.6517 5.6876,19.7468 17.3377,65.7777 19.6513,77.6452 0.7238,3.7125 1.6493,6.75 2.0566,6.75 0.4073,0 48.2498,-47.3011 106.3165,-105.1135 L 2048,1355.773 v 22.8617 22.8617 l -102.1017,102.1053 -102.1016,102.1053 4.0542,23.8965 c 8.6388,50.9193 14.4349,99.2416 18.0996,150.8965 0.5853,8.25 1.3306,18.3294 1.6561,22.3987 l 0.5919,7.3986 89.9008,-89.8965 89.9007,-89.8966 v 23.0643 23.0643 l -88.6705,88.573 -88.6705,88.573 1.6668,37.8606 c 0.9168,20.8233 1.9613,45.3981 2.3211,54.6106 l 0.6542,16.75 h -56.905 -56.905 l -41.9911,42 -41.9911,42 h -23.5962 -23.5962 l 42.0918,-41.986 42.0917,-41.9859 23.3324,-0.014 23.3323,-0.014 -0.4515,-105.75 c -0.2802,-65.6085 -0.8815,-111.0642 -1.5843,-119.75 -7.6148,-94.1172 -19.0529,-157.2751 -44.4611,-245.5 -25.8551,-89.7768 -49.175,-151.5248 -82.3301,-218 -23.3967,-46.9095 -40.9839,-76.6599 -69.2005,-117.0588 -17.4454,-24.9773 -24.2347,-34.0913 -36.2259,-48.6297 -84.6591,-102.6431 -220.3817,-185.8651 -363.4113,-222.83553 -19.734,-5.10087 -56.3856,-12.92371 -57.1181,-12.19118 -0.1828,0.18282 0.2088,3.23103 0.8702,6.7738 0.826,4.42369 1.1276,17.5615 0.9631,41.94141 -0.1318,19.525 0.105,37.46166 0.5262,39.85925 l 0.7659,4.35926 13.4963,4.738 c 73.7324,25.88436 154.0584,65.04689 207.4964,101.16389 44.678,30.1964 69.2335,54.6694 99.7143,99.3796 49.9766,73.3071 93.187,165.8774 126.8232,271.6955 31.3141,98.5127 48.5305,181.0295 55.9202,268.0202 3.1297,36.8423 3.9111,64.127 4.6117,161.0343 l 0.6561,90.75 h -65.8672 -65.8672 l -41.9911,42 -41.9911,42 h -24.5742 -24.5742 l 42.0697,-41.9894 42.0698,-41.9894 -114.5045,-0.011 -114.5044,-0.011 -41.9911,42 -41.9911,42 h -23.8282 -23.8283 l 42.3238,-41.9558 42.3238,-41.9557 -119.0045,-0.044 -119.00445,-0.044 -41.9911,42 -41.99102,42 h -22.66349 -22.6635 l 41.98616,-41.75 41.98615,-41.75 -71.73072,-0.5 -71.73073,-0.5 6.27108,-7.7951 c 12.37671,-15.3847 31.59013,-36.2093 67.26859,-72.9096 86.90828,-89.3976 127.68218,-132.0294 136.09408,-142.2953 17.5029,-21.3607 33.3211,-47.7539 45.2567,-75.5122 6.3849,-14.8493 15.96475,-42.1692 20.33015,-57.9778 l 2.0684,-7.4901 L 787.74004,1822.76 563.49833,2047 H 540.95157 518.4048 l 250.67512,-250.6038 250.67508,-250.6038 0.4236,-7.6462 c 0.233,-4.2054 0.241,-11.0918 0.018,-15.3032 l -0.4057,-7.6569 -8.1454,6.26 c -22.27015,17.1153 -52.68635,34.6686 -75.14545,43.3667 -52.648,20.39 -65.89485,26.1515 -97.99995,42.6234 -58.26818,29.8953 -103.29198,61.6144 -143.35189,100.9909 -26.02143,25.5775 -44.43929,47.5453 -61.64043,73.5215 -9.41681,14.2207 -15.40855,24.8056 -38.52154,68.0514 -22.29825,41.7214 -31.52512,56.3908 -42.05131,66.8555 -13.16575,13.0888 -30.78639,19.7039 -55.43483,20.8113 -26.1689,1.1756 -45.21934,-5.7119 -62.99183,-22.7743 l -8.11517,-7.7908 -69.94382,69.9491 L 286.50536,2047 h -22.62345 -22.62345 l 79.85841,-79.679 c 43.92212,-43.8235 79.71691,-79.8206 79.54397,-79.9935 -0.17293,-0.1729 -4.32987,0.5617 -9.23763,1.6326 -13.91887,3.037 -31.43934,5.0399 -44.08615,5.0399 -11.24117,0 -11.85437,-0.1166 -22.19878,-4.2209 -15.30236,-6.0714 -40.1788,-18.6444 -50.63828,-25.5934 -11.44307,-7.6025 -17.52278,-12.9695 -30.53545,-26.9561 L 233.5,1825.9818 123.06214,1936.4909 C 62.32132,1997.2709 12.06834,2047 11.38886,2047 c -0.67947,0 -2.6125297,-1.1588 -4.2956797,-2.575 z M 473.5,1834.2544 c 8.06119,-4.1219 13.02621,-10.6017 21.64937,-28.2544 8.60724,-17.6201 16.62038,-37.259 21.82928,-53.5 2.63304,-8.2097 3.09707,-10.9608 2.59183,-15.3668 C 517.77884,1721.5089 507.33867,1712 491.97578,1712 c -12.83977,0 -25.83942,14.2743 -43.05566,47.2772 -6.74052,12.9214 -8.89722,16.0899 -15.72303,23.0992 -8.5083,8.737 -10.43847,11.7252 -12.2687,18.9937 -1.83439,7.285 0.14339,12.8304 7.01107,19.6579 5.47895,5.4468 16.41508,11.9716 24.53195,14.6363 5.57605,1.8306 16.06664,1.1272 21.02859,-1.4099 z M 345.44942,1719.961 c 11.86138,-4.4937 19.09352,-14.4352 20.1802,-27.7402 0.68945,-8.4414 2.62967,-14.8081 7.22875,-23.7208 4.66728,-9.0448 17.00632,-21.5528 26.64163,-27.0064 8.72085,-4.936 16.72641,-12.9011 19.03051,-18.9343 6.45834,-16.9109 -10.24806,-40.1769 -31.31109,-43.605 -7.19336,-1.1707 -17.15213,0.8266 -25.01344,5.0166 -14.18133,7.5586 -35.41451,26.2522 -46.03494,40.5291 -7.24809,9.7435 -16.63299,29.0626 -19.62585,40.4004 -7.579,28.7115 -5.02476,44.7715 8.40107,52.8225 7.27625,4.3633 11.71178,5.2564 24.05374,4.8434 7.81801,-0.2616 12.01965,-0.9271 16.44942,-2.6053 z m 713.21678,-254.4545 c 6.7212,-1.996 13.2799,-7.1793 17.9945,-14.2211 2.1304,-3.182 7.0629,-10.2854 10.961,-15.7854 35.5689,-50.1854 55.6316,-105.3173 60.3697,-165.8952 2.1519,-27.512 0.9069,-37.7825 -5.766,-47.5677 -8.0466,-11.7995 -24.0601,-16.4014 -45.1598,-12.978 -18.7166,3.0368 -25.7206,11.6531 -23.044,28.3488 1.7186,10.7204 1.4374,41.2189 -0.5172,56.0921 -3.0789,23.4285 -7.7674,37.8152 -21.5086,66 -11.6368,23.8683 -21.4707,39.1938 -34.1718,53.2547 -6.6245,7.3337 -9.2707,13.8743 -9.2023,22.7453 0.082,10.6784 5.9386,18.2319 19.3854,25.0036 12.5134,6.3016 21.4018,7.752 30.6591,5.0029 z M 536.60112,1269.0936 c 7.12311,-3.2349 10.99006,-8.2164 18.35848,-23.6496 3.78376,-7.9252 7.82912,-15.7429 8.9897,-17.3728 l 2.11014,-2.9634 4.26989,2.8817 c 16.897,11.4036 49.86753,13.4854 67.0581,4.234 6.8721,-3.6983 15.44708,-12.4845 19.26218,-19.7365 4.19758,-7.9791 8.04339,-20.5359 9.25913,-30.2316 1.5675,-12.501 -1.03091,-25.6231 -7.2921,-36.8256 l -2.50149,-4.4757 16.19242,-8.0965 c 23.1144,-11.5577 27.25799,-16.4266 27.11203,-31.8576 -0.15938,-16.8509 -9.20064,-31.3701 -22.31882,-35.8414 -1.86958,-0.6372 -6.88468,-1.1586 -11.14467,-1.1586 -9.40345,0 -16.48779,2.0533 -34.83555,10.0964 -63.72539,27.9354 -111.51416,75.9493 -138.75018,139.4036 -3.90642,9.1012 -4.79932,12.3324 -5.17257,18.7185 -0.24865,4.2541 0.0792,9.8645 0.7304,12.5 3.68561,14.9153 19.75688,26.1248 37.57179,26.2058 4.75034,0.022 8.31801,-0.5668 11.10112,-1.8307 z M 730.5,998.34848 c 2.2,-1.13352 14.9312,-7.98557 28.29156,-15.22677 26.77544,-14.51205 36.61315,-18.93055 50.30937,-22.5959 5.03648,-1.34785 9.31123,-2.60463 9.49944,-2.79285 0.18822,-0.18821 -0.14502,-4.59263 -0.74052,-9.78758 -1.34268,-11.71321 -0.48794,-43.7805 1.53074,-57.42845 0.81213,-5.49069 1.34734,-10.11233 1.18936,-10.27031 -0.60267,-0.60267 -23.52419,5.75775 -33.07995,9.17925 -21.9223,7.84942 -53.14651,25.47846 -72.44083,40.89974 -3.60754,2.88338 -8.92868,6.74109 -11.82474,8.57269 -11.51684,7.28375 -17.16767,17.4767 -15.79217,28.48585 1.42415,11.39852 11.37287,26.67736 20.70496,31.79785 4.60937,2.5291 16.70149,2.0782 22.35278,-0.83352 z M 667,655.04944 v -47.95056 l -11.06698,-8.60653 c -6.08684,-4.73359 -11.59934,-8.80996 -12.25,-9.0586 -1.1833,-0.45218 -65.49828,63.12568 -64.63843,63.89761 0.25048,0.22487 7.20541,3.82561 15.45541,8.00166 18.49724,9.36309 41.96067,22.77183 58.5,33.43124 6.875,4.43087 12.8375,8.09653 13.25,8.14593 0.4125,0.0494 0.75,-21.48794 0.75,-47.86075 z m 766.5039,-74.14971 47.9961,-48.10027 -48,36.92051 -48,36.92051 -0.2828,11.17976 c -0.1555,6.14887 -0.1537,11.17976 0,11.17976 0.1576,0 21.8849,-21.64512 48.2827,-48.10027 z m -117.2692,15.39121 0.2653,-28.70905 29.435,-23.04095 29.435,-23.04094 -174.685,-0.2528 c -96.0767,-0.13904 -253.29325,-0.13904 -349.37002,0 L 676.62996,521.5 706.06498,544.54094 735.5,567.58189 735.76534,596.29094 736.03067,625 H 1026 1315.9693 Z m 185.0139,-170.6165 35.2514,-27.32557 0.2684,-23.17443 L 1537.0369,352 H 1025.5 513.96314 l 0.26843,23.14559 0.26843,23.14559 36,27.29541 36,27.29541 439.7486,0.059 439.7486,0.059 z M 888.99995,131.5 c 0,-36.575 -0.1137,-66.5 -0.2528,-66.5 C 888.60815,65 858.5719,94.925 822,131.5 L 755.50564,198 h 66.74718 66.74713 z M 1333,186.5 c 0,-6.325 -0.1198,-11.5 -0.2663,-11.5 -0.1465,0 -5.4266,5.175 -11.7337,11.5 L 1309.5326,198 H 1321.2663 1333 Z m 609.4408,1824.75 c 19.832,-19.6625 51.696,-51.2664 70.8087,-70.2308 L 2048,1906.5383 v 22.6743 22.6742 l -49.4255,47.5566 L 1949.149,2047 h -21.3833 -21.3832 z M 3.4013595e-7,377.98158 V 355.49789 L 177.77041,177.72958 355.54083,-0.03872446 378.02041,0.23063777 400.5,0.5 200.25,200.48264 3.4013601e-7,400.46527 Z M 0.00400034,101.99698 0.00710034,79.5 39.74533,39.731844 79.48355,-0.03631108 101.74588,0.23184446 124.00821,0.5 62.00411,62.496976 3.4013595e-7,124.49395 Z"
       id="path1" />
  </g>
</svg>
