<?xml version="1.0" encoding="UTF-8" standalone="no"?>
<!-- Created with Inkscape (http://www.inkscape.org/) -->

<svg
   version="1.1"
   id="svg1"
   width="2048"
   height="2048"
   viewBox="0 0 2048 2048"
   xmlns="http://www.w3.org/2000/svg"
   xmlns:svg="http://www.w3.org/2000/svg">
  <defs
     id="defs1" />
  <g
     id="g1">
    <path
       style="fill:#000000"
       d="M 7.1543585,2044.4764 C 3.2639955,2041.2029 1.1489545,2034.4906 0.38713252,2023 l -0.563545,-8.5 L 176.41179,1838.0011 c 97.12352,-97.0745 176.58447,-176.0495 176.5799,-175.5 -0.005,0.5494 -0.67078,5.9489 -1.48047,11.9989 -0.8097,6.05 -1.48096,16.3918 -1.4917,22.9817 l -0.0195,11.9817 -168.25,168.506 c -92.537497,92.6784 -168.975443,168.6473 -169.862095,168.8198 -0.886652,0.1726 -3.0167485,-0.8682 -4.7335465,-2.3128 z M 241.08372,2046.75 c 0.22938,-0.1375 49.06974,-48.7721 108.53414,-108.077 l 108.11708,-107.827 15.38253,5.1808 c 8.46039,2.8494 16.03594,5.3798 16.83456,5.6231 0.91909,0.28 -36.15011,38.0459 -100.99817,102.8962 L 286.50366,2047 h -22.9185 c -12.60517,0 -22.73082,-0.1125 -22.50144,-0.25 z m 276.99961,-0.022 C 518.3125,2046.5784 556.075,2009.0412 602,1963.3119 l 83.5,-83.1442 19,2.3881 c 10.45,1.3135 19.44896,2.4008 19.99769,2.4162 0.54872,0.015 -35.45024,36.478 -79.99769,81.028 l -80.99537,81 h -22.91898 c -12.60544,0 -22.73148,-0.1224 -22.50232,-0.272 z m 276.00103,0.022 c 0.22972,-0.1375 33.78092,-33.4831 74.5582,-74.1013 l 74.14051,-73.8514 21.72002,0.7373 21.72,0.7372 -73.35899,73.3641 -73.359,73.3641 h -22.91922 c -12.60557,0 -22.73125,-0.1125 -22.50152,-0.25 z m 360.05624,-76.5 77.0264,-76.75 15.1665,-1.1089 c 8.3416,-0.6099 19.6665,-1.439 25.1665,-1.8424 l 10,-0.7335 -78.4976,78.5924 -78.4976,78.5924 h -23.6954 -23.6953 z m 286.8238,-10.5305 c 48.1446,-48.0043 94.1236,-93.7226 102.1756,-101.5963 l 14.64,-14.3158 17.36,-5.8035 c 25.3516,-8.4751 50.1343,-19.7485 64.36,-29.2766 1.65,-1.1051 -50.9993,52.0541 -116.9984,118.1317 L 1402.5031,2047 h -24.5371 -24.5371 z m 295.4968,-18.4652 c 58.3214,-58.1601 152.2829,-151.8726 208.8035,-208.25 l 102.7646,-102.5043 -0.2646,23.5 -0.2647,23.5 -185.0142,184.75 -185.0141,184.75 h -23.5246 -23.5247 z m 205.9796,69.9957 c 19.832,-19.6625 51.696,-51.2664 70.8087,-70.2308 L 2048,1906.5383 v 22.6743 22.6742 l -49.4255,47.5566 L 1949.149,2047 h -21.3833 -21.3832 z M 955.99999,1837.3191 C 827.25623,1834.1711 725.54176,1825.4003 626.5,1808.9066 549.79136,1796.132 487.51321,1779.9629 447,1762.3035 c -20.67755,-9.0132 -32.36036,-16.0799 -47.30545,-28.6142 l -2.80544,-2.3529 33.05023,-122.1424 33.05023,-122.1425 -16.38249,-92.7783 c -13.17229,-74.598 -16.81974,-93.5193 -18.6139,-96.5602 -2.82686,-4.7912 -11.2356,-10.7046 -26.49318,-18.6313 -21.39946,-11.1176 -31.5552,-18.6026 -70.57344,-52.0142 -48.40797,-41.4521 -72.85769,-64.9102 -90.23994,-86.5801 -40.91957,-51.0132 -65.4781,-111.4112 -74.60813,-183.4874 -4.5125,-35.62358 -4.98655,-62.11832 -1.53611,-85.85427 6.33155,-43.55551 24.69663,-86.53902 56.07645,-131.24705 19.04892,-27.13974 49.37113,-60.26002 71.37274,-77.95889 C 340.5186,622.90295 396.7392,599.99564 465,591.4468 c 17.08944,-2.14024 67.11319,-3.05744 83.69379,-1.53455 47.50789,4.36349 118.42965,20.89328 156.50634,36.47704 7.31493,2.9938 24.09987,9.56911 37.29987,14.6118 68.4946,26.16642 73.46896,28.27466 89.29565,37.84538 5.65263,3.41825 8.13166,4.48081 7.78094,3.33504 -1.77938,-5.81312 -3.76545,-21.75394 -4.25869,-34.18151 -1.22406,-30.8414 4.50536,-59.3688 17.26266,-85.95251 6.56536,-13.68094 11.46258,-21.65175 20.30422,-33.04749 46.43185,-59.84475 117.85651,-86.70777 191.27962,-71.94075 55.1194,11.08575 106.2469,52.49056 131.382,106.39764 10.4184,22.34431 16.4736,50.66293 16.4429,76.89906 -0.01,8.66101 -2.2637,33.91164 -3.5644,39.93778 l -0.603,2.79373 6.5856,-4.03082 c 17.5425,-10.73721 53.5017,-25.74845 121.5925,-50.75896 67.4913,-24.79031 127.115,-38.16409 179,-40.1502 95.4238,-3.65274 173.2727,19.28163 237,69.82045 22.1413,17.55916 53.7478,52.13603 73.2639,80.14916 31.0668,44.5931 48.8207,85.38301 56.8559,130.6275 2.6686,15.026 3.6531,48.62629 1.9619,66.95847 -4.6947,50.89083 -16.9554,97.12074 -36.6099,138.03974 -21.9362,45.6695 -46.6731,77.1434 -94.4718,120.2006 -57.543,51.835 -80.4963,69.7344 -107.6307,83.9327 -14.2035,7.432 -20.7409,12.1288 -24.5486,17.6367 -2.5769,3.7276 -3.8008,10.123 -18.7956,98.2165 l -16.0392,94.2292 32.9491,123.268 32.9491,123.2679 -2.192,2.347 c -6.1655,6.601 -30.5959,20.5651 -49.6921,28.4032 -84.1693,34.5476 -242.6939,60.5487 -422,69.216 -62.7605,3.0338 -162.3769,4.3165 -222.00001,2.8585 z M 517.27194,1691.094 c 100.57527,-29.0269 222.7385,-45.3308 391.72806,-52.2799 40.60087,-1.6696 185.2029,-1.6787 223.5,-0.014 136.6686,5.9403 247.4247,18.5951 348.5,39.8191 19.609,4.1176 56.8292,13.1893 61.3654,14.9566 1.5073,0.5873 1.7552,0.3619 1.2914,-1.1744 -0.3157,-1.0457 -7.0808,-27.4769 -15.0334,-58.736 -7.9527,-31.2591 -14.708,-57.0833 -15.0119,-57.3871 -0.8919,-0.8919 -34.5206,-7.93 -60.8027,-12.7252 -89.2083,-16.2763 -185.773,-25.7993 -311.8088,-30.7499 -41.7008,-1.638 -192.60401,-1.63 -234,0.012 -120.98889,4.8003 -212.71483,13.6931 -302,29.2789 -27.33356,4.7713 -67.56057,13.1327 -68.7094,14.2816 -0.2783,0.2783 -7.44217,26.295 -15.91972,57.8149 -8.47755,31.52 -15.68101,58.1646 -16.0077,59.2103 -0.45719,1.4634 -0.21692,1.7566 1.04336,1.2729 0.90054,-0.3455 6.23997,-1.9566 11.8654,-3.5802 z m 49.8907,-199.0521 c 82.34046,-19.7784 182.39117,-33.2124 294.33736,-39.5214 93.19179,-5.252 215.3675,-5.8458 306,-1.4872 127.5274,6.1329 239.3884,20.677 322.4696,41.9273 6.3082,1.6135 11.6139,2.7892 11.7904,2.6127 0.1765,-0.1765 3.8822,-22.7514 8.2348,-50.1663 5.722,-36.0404 7.597,-50.0413 6.7698,-50.5525 -2.0557,-1.2705 -49.7843,-12.6511 -70.4667,-16.8023 -120.0478,-24.0954 -271.427,-35.4785 -448.29791,-33.7102 -33.275,0.3327 -72.19999,1.0707 -86.49999,1.64 -133.10687,5.2997 -238.01604,17.2785 -329,37.5663 -20.21752,4.5081 -49.20333,11.8217 -49.99652,12.6149 -0.34379,0.3438 11.78078,84.7127 14.03128,97.6368 0.43868,2.5193 0.97574,3.1752 2.26994,2.7722 0.93241,-0.2904 9.19349,-2.329 18.35794,-4.5303 z M 1551.4154,1261.25 c 30.8665,-29.9348 60.711,-54.8415 110.3261,-92.0723 71.3713,-53.5567 94.7852,-77.8573 115.3105,-119.6777 19.3379,-39.401 28.1403,-84.20014 26.6238,-135.5 -1.8661,-63.12498 -17.5591,-108.46385 -53.5765,-154.78839 -37.148,-47.7787 -89.2226,-78.94781 -153.0993,-91.63714 -23.632,-4.69459 -39.0805,-6.0012 -71,-6.00511 -29.5961,-0.004 -39.1147,0.65017 -66,4.5332 -54.0202,7.80212 -115.7844,27.70339 -173.5,55.90408 -39.3409,19.22251 -64.2901,36.5479 -89.9248,62.44602 -53.3634,53.9119 -91.0722,120.08148 -116.9456,205.21033 -9.8275,32.33451 -13.6855,52.95401 -16.6216,88.83701 -1.0406,12.7163 -3.7185,142.1397 -2.956,142.8612 0.2464,0.2332 18.898,0.9403 41.448,1.5713 125.6192,3.5154 204.355,9.9285 302.5,24.6387 43.0856,6.4578 97.9648,16.1954 126,22.3571 4.675,1.0275 8.9119,1.914 9.4154,1.9699 0.5035,0.056 5.9035,-4.7357 12,-10.6482 z M 1516.5,1186.3667 c -8.1312,-3.0338 -28.2962,-8.4414 -45.893,-12.3071 -71.9904,-15.8147 -176.9171,-25.7076 -314.5048,-29.6526 l -23.3978,-0.6709 0.6778,-15.0206 c 2.2033,-48.8276 10.1518,-103.4867 19.0323,-130.87879 10.3611,-31.95935 37.3942,-79.21614 67.2288,-117.52363 15.2374,-19.56466 39.3161,-46.07546 52.3567,-57.64504 17.7745,-15.76947 76.082,-48.67509 107,-60.38505 64.3417,-24.36893 135.6545,-26.69451 204.7983,-6.67866 34.1994,9.90009 60.0616,23.06112 79.5643,40.48937 20.4597,18.28355 32.1941,36.5036 39.1397,60.77272 7.8704,27.5006 10.7898,76.47756 6.0173,100.94968 -4.7473,24.34332 -15.6776,47.0059 -34.3323,71.1839 -8.2079,10.6381 -43.2079,45.5933 -74.6963,74.6008 -30.0077,27.6434 -47.5852,46.3269 -68.5377,72.8504 -5.0177,6.3519 -9.4224,11.5171 -9.7882,11.4783 -0.3658,-0.039 -2.4651,-0.742 -4.6651,-1.5628 z m -990.84058,80.0836 c 55.06944,-11.6076 144.76137,-25.7538 205.34058,-32.3864 60.57794,-6.6324 130.59616,-10.5502 226.24999,-12.6596 l 30.75,-0.6781 v -14.3084 c 0,-23.9174 -1.9372,-98.7812 -3.0513,-117.9178 -2.8013,-48.1169 -8.6613,-81.1526 -20.4877,-115.5 C 942.61315,909.54741 914.81325,857.32501 879.22672,812.88654 866.59409,797.11161 842.80745,772.40938 831.5,763.32273 772.75752,716.11735 666.00832,673.85649 577,662.56893 c -42.82361,-5.43067 -88.32807,-4.33304 -126.34977,3.04772 -42.47119,8.2445 -80.18954,25.28385 -111.56095,50.39792 -34.56656,27.67191 -65.38899,70.73038 -79.0885,110.48543 -23.65268,68.63845 -19.183,158.58109 10.94475,220.2395 6.53051,13.3651 19.83427,34.3478 28.32793,44.6787 19.69597,23.9565 44.67079,46.4203 88.22654,79.3563 27.92761,21.1183 49.73219,38.1713 69.93337,54.6937 16.5736,13.5554 47.05332,39.9864 49.43907,42.8719 0.75485,0.9129 1.50159,1.6599 1.65942,1.6599 0.15784,0 7.86524,-1.5974 17.12756,-3.5497 z m -11.29215,-88.8086 C 497.5332,1157.7604 479.58018,1139.0096 443.85873,1104 c -39.27432,-38.4917 -68.90933,-69.7934 -78.95724,-83.398 -17.03502,-23.06486 -26.87655,-47.25668 -29.96294,-73.653 -2.31105,-19.76514 0.19254,-58.87774 5.1175,-79.949 6.62038,-28.32499 16.40564,-46.4206 35.44395,-65.54547 21.94885,-22.04864 53.54269,-38.08888 96.07808,-48.77897 73.25667,-18.41105 145.59672,-12.67506 211.47634,16.76837 22.58084,10.09201 66.64886,35.64232 83.90572,48.64791 14.10926,10.63341 41.53916,40.61775 62.58029,68.40816 26.87412,35.49441 51.95103,79.48496 61.03164,107.06323 9.25374,28.10407 16.8861,79.20807 21.01151,140.68677 l 0.65426,9.75 -6.36892,0.013 c -3.50291,0.01 -20.09392,0.4508 -36.86892,0.9863 -153.79457,4.9094 -268.85014,18.5311 -336.77274,39.8711 l -9.27273,2.9134 z M 1026.3803,960.75 c 1.0028,-3.9875 4.2192,-14.675 7.1475,-23.75 2.9283,-9.075 7.6165,-23.79225 10.4183,-32.70501 2.8018,-8.91275 7.1514,-21.06275 9.6658,-27 2.5144,-5.93724 6.5138,-15.57351 8.8876,-21.41392 2.3738,-5.84041 9.5892,-21.36541 16.0343,-34.5 14.4459,-29.43969 26.1619,-54.99806 32.4754,-70.84486 11.081,-27.81292 28.9323,-77.61864 30.4786,-85.03621 3.7341,-17.91209 2.9585,-39.71926 -2.0336,-57.1788 -5.4511,-19.06505 -14.8412,-34.69267 -29.9542,-49.85167 -17.9769,-18.03165 -35.9779,-27.84509 -60.9392,-33.22157 -11.2296,-2.41876 -42.0417,-2.3495 -56.06081,0.12601 C 968.23509,529.65868 949.19203,538.80797 935,553 c -19.03527,19.03527 -28.30654,44.51559 -29.65459,81.5 -0.77594,21.28851 0.81527,30.38644 10.0307,57.35163 19.59997,57.35132 28.05611,77.56753 60.92258,145.64837 17.7728,36.81529 19.1225,40.45425 40.33351,108.75 3.7153,11.9625 7.0183,21.75 7.3399,21.75 0.3217,0 1.4054,-3.2625 2.4082,-7.25 z M 1023,795.15663 c 0,-4.38178 -13.5034,-41.20912 -21.406,-58.38015 -10.42981,-22.66189 -20.32971,-47.00154 -24.79211,-60.95319 -3.0436,-9.51566 -3.3006,-11.34033 -3.2848,-23.32329 0.014,-10.54861 0.4302,-14.31998 2.2084,-20 6.3614,-20.32052 20.0197,-29.95611 44.23181,-31.20447 29.0729,-1.49899 47.2946,8.91475 54.2258,30.99027 2.6743,8.51727 3.4597,25.5456 1.486,32.2142 -3.9405,13.31323 -19.1094,51.54514 -25.435,64.10647 -9.095,18.06088 -15.7279,33.60856 -17.7447,41.59425 -2.7054,10.7118 -7.9504,26.79422 -8.7394,26.79681 -0.4125,10e-4 -0.75,-0.82705 -0.75,-1.8409 z M -4.8299316e-7,1761.9157 V 1737.498 L 186.251,1551.249 C 288.68905,1448.812 372.78781,1365 373.13712,1365 c 0.69693,0 5.83918,18.2066 8.4368,29.8712 l 1.6415,7.3711 -191.35771,191.6083 C 86.610973,1699.2351 0.38749952,1785.6556 0.24999952,1785.8961 0.11249952,1786.1366 -4.8299313e-7,1775.3454 -4.8299316e-7,1761.9157 Z M 1681.7328,1766.5 c 9.0608,-13.4977 15.5311,-34.224 17.0664,-54.6686 l 0.7008,-9.3314 174,-173.123 174,-173.123 0.2694,22.6033 0.2693,22.6033 -184.1598,184.0197 C 1762.5909,1686.6911 1680.6252,1768.15 1681.7328,1766.5 Z m -22.1644,-257.5934 c -0.8954,-3.9304 -2.547,-25.8214 -2.5581,-33.9076 l -0.01,-7.5009 195.5126,-195.4991 195.5125,-195.499 -0.2625,24 -0.2626,24 -193.6916,193.4066 c -171.3152,171.063 -193.755,193.1285 -194.24,191 z M -4.8299316e-7,1485.5729 v -24.0761 L 117.91337,1343.5866 l 117.91338,-117.9102 3.33662,2.7958 c 1.83515,1.5377 7.4418,6.7144 12.45923,11.5038 l 9.12261,8.7081 L 130.3726,1379.1665 -4.8299316e-7,1509.649 Z m 0,-275.018 v -22.0607 L 64.293543,1124.2064 l 64.293547,-64.2877 5.95646,15.1924 c 3.27605,8.3558 5.95645,15.5607 5.95645,16.0109 0,0.4503 -31.6125,32.4705 -70.249997,71.1561 L -4.8299317e-7,1232.6155 Z m 0,-278.56122 V 910.49419 L 64.554273,845.99709 C 126.20676,784.39922 129.01017,781.74723 126.91983,787 c -4.62917,11.63258 -10.94146,31.35322 -14.0277,43.82488 L 109.67292,843.83386 54.836463,898.66352 -4.8299317e-7,953.49318 Z M 1943.8244,922.19596 1944.1508,899.5 l 51.9377,-52 51.9377,-52 -0.2631,23 -0.2631,23 -52.001,51.69596 -52.0009,51.69595 z m -65.0417,-212.48285 -8.7174,-13.21311 88.7174,-88.75319 88.7173,-88.75319 0.2685,22.379 0.2684,22.37899 -79.5759,79.3742 c -43.7668,43.6558 -79.8876,79.47009 -80.2685,79.5873 -0.3809,0.11721 -4.6153,-5.73279 -9.4098,-13 z M -4.8299316e-7,655.5038 V 633.5087 L 155.75734,477.50435 C 241.42388,391.70196 383.72476,249.15431 471.98153,160.7318 L 632.44837,-0.03640115 654.72582,0.23179943 677.00327,0.5 338.50164,338.99945 -4.8299316e-7,677.49889 Z M 1744.5,580.91247 c -2.75,-1.65712 -9.009,-5.05578 -13.909,-7.55258 l -8.9089,-4.53964 162.9089,-162.91236 162.909,-162.91235 0.2683,22.301 0.2682,22.301 -148.0373,147.95123 c -81.4206,81.37318 -148.5913,148.04695 -149.2683,148.16394 -0.677,0.11698 -3.4809,-1.14312 -6.2309,-2.80024 z M 401.5075,508.75 c 26.93895,-27.0875 152.24768,-152.6375 278.46385,-279 L 909.45528,0 h 22.07735 22.07736 l -269.80611,269.72384 -269.8061,269.72384 -12.24889,3.16119 c -14.05364,3.62696 -27.55933,7.80499 -39.69029,12.27833 -4.64278,1.71204 -8.68657,3.1128 -8.98621,3.1128 -0.29964,0 21.49616,-22.1625 48.43511,-49.25 z m 257.67861,38.95633 -16.31389,-4.07493 102.78632,-102.78994 102.78631,-102.78995 6.02757,6.29803 c 3.31517,3.46392 8.42837,8.30829 11.36266,10.76527 l 5.33509,4.46725 -95.68568,96.20897 c -70.63821,71.02451 -96.24833,96.18034 -97.83509,96.0996 -1.18217,-0.0602 -9.49065,-1.94308 -18.46329,-4.1843 z m 583.32319,-22.37736 c -3.2072,-5.40593 -7.1675,-11.79524 -8.8006,-14.19847 l -2.9692,-4.36949 253.3999,-253.39987 253.3998,-253.39986856 22.7322,0.26936428 L 1783.0036,0.5 1515.6721,267.82897 1248.3407,535.15794 Z M 1749.4993,265.1085 2014.4986,0 h 6.1783 c 13.9483,0 27.8789,3.3005254 27.1353,6.4290519 C 2047.6405,7.1514091 1930.725,124.73225 1788,267.71981 l -259.5,259.97737 -19,0.68028 c -10.45,0.37415 -20.35,0.94111 -22,1.25991 -2.359,0.45579 53.6201,-56.06383 261.9993,-264.52887 z M 987.99999,384.5 V 319 H 943.2101 c -48.95283,0 -52.75905,-0.36298 -60.60013,-5.7791 -7.61862,-5.26246 -11.58623,-14.75526 -11.58623,-27.7209 0,-13.07743 3.82326,-22.2346 11.48386,-27.50523 C 890.7693,252.31058 893.91183,252 943.16524,252 h 44.74505 l 0.2948,-48.353 0.2949,-48.353 3.5081,-6.897 c 2.7125,-5.33279 4.6046,-7.631 8.34271,-10.13341 6.7919,-4.54675 11.6016,-5.71426 23.6492,-5.74062 13.4859,-0.0295 19.5463,1.9281 26.0244,8.40623 8.485,8.48494 8.3826,7.75012 8.7464,62.77647 l 0.3187,48.20566 48.7052,0.29434 c 46.9901,0.28396 48.8638,0.368 53.2053,2.38617 6.7069,3.11772 10.5783,6.84924 13.6989,13.20406 2.5984,5.2913 2.8011,6.57765 2.8011,17.77481 0,11.45091 -0.1546,12.37294 -3.0104,17.95704 -3.2937,6.44034 -9.1223,11.62396 -15.2649,13.57568 -3.6636,1.16407 -45.2955,2.58443 -81.9747,2.79673 l -17.25,0.0998 v 18.33575 c 0,10.08467 -0.2984,39.33467 -0.6631,65 L 1058.6737,450 h -35.3368 -35.33691 z M -4.8299316e-7,377.98158 V 355.49789 L 177.77041,177.72958 355.54083,-0.03872446 378.02041,0.23063777 400.5,0.5 200.25,200.48264 -4.8299316e-7,400.46527 Z M 1219.4988,279.88377 c -0.7569,-7.64542 -4.4907,-22.03366 -6.9538,-26.79674 l -1.4094,-2.72557 125.203,-125.20009 125.2031,-125.20009222 22.7315,0.26936111 L 1507.0048,0.5 1363.6173,143.88377 1220.2299,287.26754 Z M 1092.1505,125.01249 c -2.9309,-3.84313 -7.6139,-9.042 -10.4068,-11.55305 l -5.078,-4.56554 53.9171,-54.196949 L 1184.5,0.5 l 23,-0.26364385 23,-0.26364384 -65.9972,66.01364369 C 1128.2044,102.29386 1098.2748,132 1097.9926,132 c -0.2823,0 -2.9112,-3.14438 -5.8421,-6.98751 z M 0.00355152,101.99698 0.00710352,79.5 39.745326,39.731844 79.483553,-0.03631108 101.74588,0.23184446 124.00821,0.5 62.004103,62.496976 -4.8299316e-7,124.49395 Z"
       id="path1" />
  </g>
</svg>
