<?xml version="1.0" encoding="UTF-8" standalone="no"?>
<!-- Created with Inkscape (http://www.inkscape.org/) -->

<svg
   version="1.1"
   id="svg1"
   width="2048"
   height="2048"
   viewBox="0 0 2048 2048"
   xmlns="http://www.w3.org/2000/svg"
   xmlns:svg="http://www.w3.org/2000/svg">
  <defs
     id="defs1" />
  <g
     id="g1">
    <path
       style="fill:#000000"
       d="m 4.3067814,2047.2114 c -3.77084004,-3.173 -5.87967,-9.7992 -6.75887,-21.2373 l -0.6438,-8.3755 139.3076186,-139.3103 139.30761,-139.3103 -36.73978,-60.2331 -36.73977,-60.2331 6.83691,-6.9463 c 13.95762,-14.1809 21.12993,-19.048 46.83691,-31.7832 39.53176,-19.584 71.60248,-29.9594 111.15547,-35.9604 21.37831,-3.2436 35.23225,-4.0144 72.34589,-4.0252 l 35.50137,-0.01 137.09972,-137.25 137.09973,-137.25 15.81855,-39.5 c 8.7002,-21.725 16.40371,-40.9157 17.1189,-42.6461 l 1.30035,-3.146 -23.71999,-14.2232 c -28.78426,-17.2598 -56.7899,-35.813 -72.09753,-47.7631 l -11.37753,-8.882 -334.16819,334.5802 C 157.99785,1627.7253 5.2899414,1780.7614 2.4394514,1783.7864 l -5.1827,5.5 -0.0216,-24.4994 -0.0216,-24.4995 327.6108786,-327.612 327.61089,-327.612 -5.51033,-6.8286 c -8.27057,-10.2491 -16.96421,-24.7112 -28.22234,-46.9485 -15.73936,-31.0887 -23.72622,-55.16243 -28.36608,-85.5 -1.13559,-7.425 -2.41533,-15.75995 -2.84386,-18.5221 l -0.77916,-5.02211 -294.5,295.02211 -294.5000086,295.0221 -0.2683,-23.9811 -0.2683,-23.981 293.9205586,-294.019 293.92056,-294.0189 0.6666,-10.5 c 3.67139,-57.83042 25.74331,-127.91653 53.38233,-169.50773 14.70494,-22.128 37.87542,-47.60233 60.14656,-66.12696 4.675,-3.88856 18.625,-14.87432 31,-24.41281 38.21016,-29.45186 85.21551,-67.54245 114,-92.37939 34.74095,-29.97653 71.27659,-66.29552 106.83229,-106.19869 l 8.1314,-9.12559 -7.7319,-4.49748 c -23.0121,-13.38577 -42.4425,-33.34501 -53.2032,-54.65117 l -2.2221,-4.39982 -17.72702,17.89982 c -35.564,35.91068 -468.02601,469.41699 -671.81551,673.43782 l -209.3004286,209.538 0.26823,-22.1241 0.26823,-22.124 L 441.90892,745.57399 886.10428,300.03368 885.52862,284.16004 c -1.5295,-42.17521 11.11271,-74.9068 40.13662,-103.91656 25.285,-25.27263 53.9097,-37.71221 90.04826,-39.13264 7.15,-0.28103 16.2466,-0.10224 20.2146,0.39732 l 7.2146,0.90827 69.727,-69.81502 69.727,-69.8150155 h 22.5559 22.5559 l -74.8187,74.8236715 -74.8187,74.823674 8.3212,4.82271 c 12.5749,7.28802 21.4125,14.34034 32.9057,26.25859 19.2032,19.91326 30.4866,41.0872 35.4473,66.51918 2.3171,11.87907 2.9105,34.06796 1.2449,46.54967 l -1.3741,10.29749 152.0499,-152.04749 152.05,-152.0474955 h 22.9978 22.9979 L 1300.4627,207.03731 c -112.337,112.33801 -204.2491,204.64331 -204.2491,205.12291 0,0.47959 4.3478,5.65418 9.6618,11.49908 30.7735,33.84798 60.7106,63.39385 90.7789,89.59244 l 14.7451,12.84745 261.6578,-261.6564 L 1734.715,2.7863945 h 22.9986 22.9986 L 1508.9629,274.53709 c -149.4621,149.46288 -271.7493,272.03763 -271.7493,272.38834 0,1.02214 40.1121,32.72413 70,55.32337 28.5203,21.56521 33.3315,25.46526 48.4656,39.28773 l 9.033,8.25013 323.5013,-323.50013 323.5013,-323.5001355 h 6.177 c 13.2436,0 27.3218,3.1506691 27.3218,6.1145527 0,0.5847559 -148.6746,150.0596128 -330.388,332.1663428 l -330.3879,331.10315 5.2702,6.55798 c 8.5326,10.61759 19.9559,28.73682 26.8693,42.61914 13.3584,26.82426 28.0048,72.77253 34.2064,107.31173 l 1.6829,9.3729 296.3736,-296.37226 296.3735,-296.37227 v 22.53351 22.5335 l -294.3499,294.29868 -294.35,294.29868 -0.6673,13.97976 c -1.1552,24.1985 -4.733,53.80271 -8.8048,72.85461 -7.8874,36.9049 -26.0246,76.4962 -49.247,107.5 -23.0101,30.7203 -54.4597,55.8212 -118.2908,94.4117 l -20.2098,12.2183 1.8596,4.685 c 9.9357,25.0322 34.189,84.6473 34.6074,85.0657 0.2945,0.2945 169.0418,-167.9704 374.994,-373.92212 L 2045.2136,521.2874 v 22.5322 22.5322 l -368.0355,367.9673 c -294.2588,294.2043 -367.9347,368.3682 -367.5327,369.9673 0.2765,1.1 12.2193,31.0065 26.5396,66.4589 14.3203,35.4525 26.1475,65.0989 26.2827,65.8811 0.1744,1.0087 -4.7649,3.133 -16.9919,7.3078 -56.0651,19.1431 -120.7496,35.4057 -168.2622,42.3034 -9.625,1.3974 -17.8674,2.5425 -18.3164,2.5447 -3.3322,0.017 27.9042,33.2838 39.3508,41.9091 9.4085,7.0895 29.8805,20.1045 40.4656,25.7258 9.4064,4.9954 23.6049,9.3348 31.5661,9.6474 l 5.6474,0.2218 384.662,-383.8774 384.662,-383.87737 -0.2688,22.87739 -0.2687,22.87738 -363.3516,362.5 c -208.9278,208.4381 -362.7308,362.6259 -361.891,362.7962 1.7863,0.3622 160.3716,-22.1384 195.6481,-27.7592 24.2078,-3.8572 25.9051,-4.0007 36,-3.0433 5.827,0.5525 15.7691,1.005 22.0937,1.0055 l 11.4992,8e-4 230.2508,-230.2492 230.2508,-230.2492 v 23.57 23.57 l -206.6161,206.5114 -206.6161,206.5114 15.789,1.2133 c 49.9554,3.8386 100.9036,18.7186 145.9432,42.6245 8.8,4.6708 16.2564,8.4936 16.5697,8.4951 0.3133,0 53.3008,-52.4624 117.75,-116.5865 l 117.1803,-116.5891 v 22.8374 22.8373 l -104.7101,104.7137 -104.7101,104.7137 2.2866,2.434 2.2867,2.4341 -46.7441,75.854 c -25.7093,41.7198 -47.8202,77.5745 -49.1353,79.6773 l -2.3912,3.8232 -4.4123,-4.0671 c -7.5285,-6.9395 -19.3223,-13.7949 -32.9702,-19.1647 l -7,-2.7541 -149.0192,148.9377 -149.0192,148.9377 -24.4808,-0.2679 -24.4808,-0.268 153.7698,-152.9302 c 84.6838,-84.2214 153.3871,-153.3129 152.918,-153.782 -0.4685,-0.4685 -9.1399,-1.2727 -19.2698,-1.7871 -10.1299,-0.5145 -22.241,-1.459 -26.9136,-2.0991 -4.687,-0.6421 -12.9805,-0.9178 -18.5,-0.6151 -5.5024,0.3017 -49.1544,6.0144 -97.0044,12.6948 l -87,12.1462 -143.5013,143.4362 -143.5013,143.4363 h -23.6094 -23.6094 l 139.3458,-139.1816 c 76.6402,-76.5498 139.2025,-139.3248 139.0273,-139.5 -0.1752,-0.1752 -13.106,1.4582 -28.7351,3.6298 -37.0096,5.1422 -46.3907,6.0518 -62.4166,6.0518 -38.1065,0 -75.0155,-9.1894 -112.5383,-28.0192 l -10.2808,-5.1592 -151.0917,151.0892 -151.09166,151.0892 h -22.54198 -22.54198 l 160.04322,-160.0334 160.0432,-160.0334 -3.0717,-2.7166 c -1.6894,-1.4941 -9.7894,-8.3889 -18,-15.3217 -19.7497,-16.6762 -35.6267,-31.5683 -41.6267,-39.0445 -8.8244,-10.9954 -19.2992,-35.8984 -24.8589,-59.1004 -1.285,-5.3625 -2.5853,-9.7475 -2.8895,-9.7445 -0.3043,0 -2.0546,5.5155 -3.8896,12.25 -6.8016,24.9621 -16.1735,46.3262 -26.1026,59.503 -12.379,16.4281 -44.7675,44.0092 -70.2516,59.8241 -20.0762,12.4589 -52.94452,27.781 -74.80939,34.8737 l -8.5,2.7573 -138.50134,138.3932 -138.50135,138.3932 H 538.12496 515.539 l 134.3851,-134.25 134.38511,-134.25 -14.7978,-0.7212 c -10.0004,-0.4874 -42.83755,-4.6209 -101.28774,-12.75 -47.56946,-6.6158 -87.39504,-12.0288 -88.50127,-12.0288 -1.33934,0 -51.12392,49.1134 -149.00879,147 l -146.99745,147 h -22.5673 -22.5673 l 149.79076,-149.6919 c 82.38492,-82.3306 149.63792,-149.8448 149.45112,-150.0316 -0.85328,-0.8533 -79.27422,-11.3898 -88.60983,-11.9054 -6.8981,-0.3811 -15.13102,-0.03 -24,1.0232 -7.425,0.8818 -17.1,1.6121 -21.5,1.6228 -21.83722,0.053 -58.62186,8.9973 -78.92341,19.1899 -9.41895,4.7288 -15.43121,8.7096 -21.26784,14.0817 l -4.19124,3.8577 -2.39062,-3.8232 c -1.31484,-2.1028 -2.8193,-4.6065 -3.34324,-5.5638 -0.79981,-1.4614 -23.63574,20.9546 -142.36833,139.75 -77.778649,77.8198 -141.9661086,141.4906 -142.6387986,141.4906 -0.67269,0 -2.6002,-1.1588 -4.28335,-2.575 z M 967.8905,1570.2864 c 10.0561,-25.0587 15.421,-47.5232 16.9325,-70.9023 l 0.6851,-10.5977 h -16.1209 -16.121 l -4.7763,7.5948 c -21.967,34.9298 -46.5933,63.791 -71.78413,84.1282 l -3.99216,3.223 44.97999,-0.223 44.98,-0.223 z m 195.3231,9.8171 c -8.6154,-6.9761 -32.6869,-31.8905 -41.3685,-42.8171 -4.807,-6.05 -14.4067,-19.4375 -21.3329,-29.75 l -12.593,-18.75 h -16.0052 -16.0052 l 0.6505,11.3895 c 1.4878,26.0498 9.9527,58.6337 20.7105,79.7207 l 1.9844,3.8898 44.2297,-0.02 44.2297,-0.019 z M 765.14904,1523.351 c 41.7325,-41.7398 46.1815,-46.4937 43.99597,-47.0115 -38.01542,-9.0074 -70.66443,-18.1416 -99.98453,-27.9726 -25.77553,-8.6425 -29.49553,-10.1417 -29.20527,-11.7701 0.13288,-0.7455 8.03713,-20.6953 17.56501,-44.3329 9.52787,-23.6376 18.10815,-45.0025 19.06727,-47.4775 1.50842,-3.8924 -11.76577,9.0014 -98.31641,95.4995 -55.03316,54.9998 -99.72215,100.105 -99.30888,100.2339 2.43158,0.7583 66.96428,10.3008 116.25141,17.1902 47.53722,6.6448 80.33304,11.3721 83.00403,11.9646 0.27722,0.061 21.39635,-20.7841 46.9314,-46.3236 z m 25.02567,38.8879 c 12.1169,-3.8278 43.64091,-23.4635 60.85074,-37.9028 8.36448,-7.018 19.40326,-18.52 28.97945,-30.1956 l 4.22058,-5.1458 -8.75593,-1.1836 c -4.81577,-0.651 -12.58094,-1.7829 -17.25594,-2.5152 l -8.5,-1.3316 -41.87251,41.785 -41.8725,41.7851 8.20928,-1.4177 c 4.51511,-0.7798 11.71368,-2.5248 15.99683,-3.8778 z m 495.49449,-154.2025 c -0.8641,-2.0625 -10.1625,-24.675 -20.663,-50.25 -10.5006,-25.575 -19.4346,-46.8875 -19.8534,-47.3612 -0.9791,-1.1071 -14.3046,-3.8497 -39.4392,-8.117 -104.4055,-17.7259 -234.5682,-19.2309 -341.99999,-3.9544 -26.55956,3.7767 -62.90374,10.503 -64.30107,11.9003 -0.65554,0.6556 -42.11357,99.9088 -41.8452,100.1802 0.0804,0.081 8.47127,-1.7689 18.64627,-4.1116 155.99339,-35.9159 341.56869,-35.2234 495.49999,1.8492 7.7,1.8544 14.3435,3.4263 14.7634,3.4931 0.4199,0.067 0.056,-1.5661 -0.8078,-3.6286 z M 859.21361,1202.8245 c 78.19329,-12.3552 172.15339,-15.2674 257.83069,-7.9913 25.4407,2.1606 56.0219,5.8508 74.0677,8.9377 6.3171,1.0806 11.5771,1.8637 11.6889,1.7401 0.1118,-0.1235 -6.2533,-15.7496 -14.1447,-34.7246 l -14.3479,-34.5 -0.047,-13.6387 -0.047,-13.6387 -3.25,-0.5816 c -13.0354,-2.3326 -52.9308,-6.4591 -85.25,-8.8175 -22.3974,-1.6344 -104.568,-1.6358 -127.5,0 -30.7303,2.1891 -71.58671,6.3394 -85.63061,8.6985 l -3.13062,0.5259 -0.72462,13.7271 -0.72463,13.7271 -10.98731,28.5 c -6.04302,15.675 -12.06335,31.3466 -13.37851,34.8259 l -2.39119,6.3259 2.73375,-0.5693 c 1.50356,-0.3131 8.35875,-1.4581 15.23375,-2.5444 z M 1032.4144,978.66202 c 13.814,-2.93104 21.749,-10.86567 24.676,-24.67484 0.7377,-3.48032 1.1232,-21.05663 1.1232,-51.20706 v -45.90784 l 50.8529,-0.29294 50.8528,-0.29294 6.8972,-3.50811 c 5.3329,-2.71253 7.6311,-4.6045 10.1335,-8.34266 4.5543,-6.80316 5.7177,-11.61516 5.7177,-23.64923 0,-12.03407 -1.1634,-16.84607 -5.7177,-23.64923 -2.5024,-3.73816 -4.8006,-5.63013 -10.1335,-8.34266 l -6.8972,-3.50811 -50.8528,-0.29294 -50.8529,-0.29294 v -47.79028 c 0,-31.92549 -0.3803,-49.68409 -1.1457,-53.49511 -2.256,-11.23353 -10.5036,-20.66859 -20.677,-23.65397 -6.2716,-1.84042 -18.6477,-2.33916 -25.3458,-1.0214 -14.7641,2.90466 -22.6791,10.55413 -25.7083,24.84586 -0.7416,3.49868 -1.1232,21.57684 -1.1232,53.20631 v 47.9071 l -49.8529,0.29368 -49.85291,0.29369 -6.89709,3.50811 c -7.54646,3.8384 -12.24745,9.41586 -14.61052,17.33455 -1.60216,5.36886 -1.60216,23.94582 0,29.31468 2.36323,7.91923 7.06399,13.49615 14.61123,17.33455 l 6.89781,3.50811 33.60218,0.65579 c 18.4812,0.36068 40.9147,0.69818 49.8522,0.75 l 16.25,0.0942 v 45.45078 c 0,29.8123 0.3864,47.27411 1.1232,50.75 2.8773,13.57517 10.0867,21.09711 23.3768,24.3902 6.4218,1.59123 16.947,1.71764 23.7008,0.28464 z m 701.2604,965.37868 c 58.3214,-58.1601 152.2829,-151.8726 208.8035,-208.25 l 102.7646,-102.5043 -0.2646,23.5 -0.2647,23.5 -185.0142,184.75 -185.0141,184.75 h -23.5246 -23.5247 z m 205.9796,69.9957 c 19.832,-19.6625 51.696,-51.2664 70.8087,-70.2308 l 34.7505,-34.4809 v 22.6743 22.6742 l -49.4255,47.5566 -49.4255,47.5566 h -21.3833 -21.3832 z M -2.5547786,934.66204 -2.2863986,913.03767 451.71361,458.16204 905.7136,3.2863945 928.6492,3.0175082 c 12.6145,-0.1478875 22.7274,-0.1478875 22.473,0 C 950.8679,3.1653957 736.12608,217.7114 473.91829,479.7864 l -476.7414486,476.5 z M -2.7863986,658.2902 V 636.2951 L 152.97095,480.29075 C 238.63749,394.48836 380.93837,251.94071 469.19514,163.5182 L 629.66198,2.7499934 651.93943,3.018194 674.21688,3.2863945 335.71525,341.78585 -2.7863986,680.28529 Z m 0,-277.52222 V 358.28429 L 174.98402,180.51598 352.75444,2.7476701 375.23402,3.0170323 397.71361,3.2863945 197.46361,203.26904 -2.7863986,403.25167 Z m 0.004,-275.98461 0.004,-22.496976 L 36.959831,42.518238 76.698061,2.7500835 98.960391,3.018239 121.22272,3.2863945 59.218611,65.28337 -2.7854986,127.28035 Z"
       id="path1" />
  </g>
</svg>
