<?xml version="1.0" encoding="UTF-8" standalone="no"?>
<!-- Created with Inkscape (http://www.inkscape.org/) -->

<svg
   version="1.1"
   id="svg1"
   width="2048"
   height="2048"
   viewBox="0 0 2048 2048"
   xmlns="http://www.w3.org/2000/svg"
   xmlns:svg="http://www.w3.org/2000/svg">
  <defs
     id="defs1" />
  <g
     id="g1">
    <path
       style="fill:#000000"
       d="M 7.1543581,2044.4764 C 3.2639891,2041.2029 1.1489471,2034.4906 0.38715015,2023 l -0.563528,-8.5 L 185.41181,1829.001 c 102.0735,-102.0244 185.58154,-185.0494 185.57341,-184.5 -0.008,0.5495 -0.65765,3.7247 -1.44338,7.056 -2.0879,8.8524 -5.33644,28.8004 -6.0976,37.443 l -0.66054,7.5 -174.64185,174.9873 c -96.053016,96.243 -175.367296,175.1287 -176.253946,175.3015 -0.88665,0.1728 -3.0167469,-0.8678 -4.7335459,-2.3124 z M 348.80951,1939.643 456.2985,1832.2861 l 10.60075,4.2436 c 5.83041,2.3339 13.21067,5.0588 16.40058,6.0553 l 5.79983,1.8117 L 387.80168,1945.6983 286.50369,2047 H 263.9121 241.32051 Z m 169.27382,107.0832 c 0.22917,-0.1506 36.9145,-36.6203 81.52295,-81.0437 l 81.10628,-80.7699 16.39372,2.0407 c 9.01655,1.1224 17.93288,2.3019 19.81407,2.621 l 3.42034,0.5802 -78.41796,78.4228 L 563.50478,2047 h -22.91906 c -12.60548,0 -22.73155,-0.1232 -22.50239,-0.2738 z m 347.10965,-70.4762 70.88679,-70.75 5.7101,-0.3338 c 3.1406,-0.1836 13.0833,-0.021 22.0951,0.3624 l 16.3849,0.6962 -70.38227,70.3876 L 839.50532,2047 h -22.59958 -22.59958 z m 213.82972,68.4377 c 1.3625,-1.2717 34.7466,-34.4095 74.1869,-73.6395 l 71.7097,-71.3274 22.7903,-1.8205 c 12.5347,-1.0012 23.9143,-1.8384 25.2879,-1.8604 1.9979,-0.032 -12.6066,15.0652 -72.9975,75.4601 l -75.495,75.5 h -23.9798 -23.9797 z m 361.9417,-84.9743 c 48.1446,-48.0077 93.1606,-92.712 100.0356,-99.3429 l 12.5,-12.0563 13.9367,-4.7629 c 38.844,-13.2752 64.8838,-27.9576 84.5357,-47.6651 19.589,-19.6445 30.985,-43.211 34.2782,-70.8862 l 1.2494,-10.5 180,-179.1016 180,-179.1016 0.2694,22.5817 0.2693,22.5816 -322.7688,322.77 L 1402.5012,2047 h -24.5362 -24.5361 z m 295.4968,-18.4591 c 58.3214,-58.1601 152.2829,-151.8726 208.8035,-208.25 l 102.7646,-102.5043 -0.2646,23.5 -0.2647,23.5 -185.0142,184.75 -185.0141,184.75 h -23.5246 -23.5247 z m 205.9796,69.9957 c 19.832,-19.6625 51.696,-51.2664 70.8087,-70.2308 L 2048,1906.5383 v 22.6743 22.6742 l -49.4255,47.5566 L 1949.149,2047 h -21.3833 -21.3832 z M 955.49997,1843.3983 c -28.8161,-0.7791 -73.02598,-2.5672 -97.49997,-3.9435 -159.38052,-8.9623 -306.71143,-33.7026 -387.15759,-65.0125 -22.30968,-8.6831 -47.2935,-22.6536 -57.10086,-31.9298 l -3.75844,-3.5549 31.50251,-119.9977 31.50251,-119.9978 -14.00257,-78.5076 -14.00258,-78.5075 -43.97986,-76.4303 -43.97985,-76.4302 -14.46408,-105.7932 C 286.34713,672.14673 272.86182,573.10357 272.6923,570.15463 l -0.1923,-3.34537 24,-9.316 c 13.2,-5.1238 24.31288,-9.01838 24.69529,-8.65463 0.3824,0.36375 26.71788,44.53637 58.52327,98.16137 31.80539,53.625 93.11882,156.9987 136.25205,229.71933 43.13324,72.72063 78.5518,132.09157 78.70792,131.93547 0.15611,-0.1561 1.64745,-123.52245 3.31409,-274.14742 1.66663,-150.62497 3.20812,-274.04145 3.42552,-274.25885 0.91638,-0.91638 67.07898,-12.14207 67.64728,-11.47759 0.51339,0.60027 79.28805,208.82582 187.80067,496.4147 13.76325,36.47646 20.87513,54.12435 21.35835,53 0.39845,-0.9271 25.5119,-133.53564 55.80763,-294.68564 30.2958,-161.15 55.3311,-294.0125 55.634,-295.25 l 0.5507,-2.25 h 34.28323 34.2832 l 0.5489,2.25 c 0.302,1.2375 25.336,133.65 55.6313,294.25 30.2953,160.6 55.4095,292.75796 55.8095,293.68436 0.4803,1.11257 35.66,-91.39356 103.6307,-272.5 56.597,-150.8014 103.181,-274.50832 103.5199,-274.90427 0.552,-0.64472 67.7894,10.59947 68.6744,11.4845 0.2005,0.20043 1.7297,123.60471 3.3984,274.23172 1.6687,150.62701 3.1643,273.99769 3.3236,274.15699 0.1594,0.1593 61.5571,-102.86002 136.4395,-228.93183 74.8825,-126.07181 136.7328,-229.97479 137.4452,-230.89551 1.1776,-1.52183 3.3411,-0.71731 23.7954,8.84881 12.375,5.78757 22.8303,10.83119 23.234,11.20804 0.4037,0.37685 -1.7158,18.89488 -4.71,41.15118 -2.9942,22.25631 -21.6611,161.4117 -41.482,309.23422 l -36.0379,268.76819 -44.4842,76.4462 -44.4842,76.4462 -14.0174,79.5385 -14.0174,79.5386 32.4367,121.2377 c 30.668,114.6269 32.3449,121.3392 30.7532,123.098 -5.9588,6.5844 -31.8329,20.9254 -52.1908,28.9273 -89.4805,35.171 -267.2178,62.8698 -438,68.2582 -10.725,0.3384 -20.85,0.8195 -22.5,1.0692 -3.6492,0.5521 -153.15613,1.2574 -170.00003,0.802 z M 517.27194,1708.094 c 100.57527,-29.0269 222.7385,-45.3308 391.72806,-52.2799 40.60087,-1.6696 185.2029,-1.6787 223.5,-0.014 136.6686,5.9403 247.4247,18.5951 348.5,39.8191 19.609,4.1176 56.8292,13.1893 61.3654,14.9566 1.5073,0.5873 1.7552,0.3619 1.2914,-1.1744 -0.3157,-1.0457 -7.0808,-27.4769 -15.0334,-58.736 -7.9527,-31.2591 -14.708,-57.0833 -15.0119,-57.3871 -0.8919,-0.8919 -34.5206,-7.93 -60.8027,-12.7252 -89.2083,-16.2763 -185.773,-25.7993 -311.8088,-30.7499 -41.7008,-1.638 -192.60403,-1.63 -234,0.012 -120.98889,4.8003 -212.71483,13.6931 -302,29.2789 -27.33356,4.7713 -67.56057,13.1327 -68.7094,14.2816 -0.2783,0.2783 -7.44217,26.295 -15.91972,57.8149 -8.47755,31.52 -15.68101,58.1646 -16.0077,59.2103 -0.45719,1.4634 -0.21692,1.7566 1.04336,1.2729 0.90054,-0.3455 6.23997,-1.9566 11.8654,-3.5802 z m 49.8907,-199.0521 c 82.34046,-19.7784 182.39117,-33.2124 294.33736,-39.5214 93.19177,-5.252 215.3675,-5.8458 306,-1.4872 127.5274,6.1329 239.3884,20.677 322.4696,41.9273 6.3082,1.6135 11.6139,2.7892 11.7904,2.6127 0.1765,-0.1765 3.8822,-22.7514 8.2348,-50.1663 5.722,-36.0404 7.597,-50.0413 6.7698,-50.5525 -2.0557,-1.2705 -49.7843,-12.6511 -70.4667,-16.8023 -120.0478,-24.0954 -271.427,-35.4785 -448.29793,-33.7102 -33.275,0.3327 -72.2,1.0707 -86.5,1.64 -133.10684,5.2997 -238.01601,17.2785 -328.99997,37.5663 -20.17504,4.4986 -49.20283,11.8212 -49.99279,12.6112 -0.33969,0.3396 11.74754,84.4552 14.03075,97.6405 0.43635,2.5199 0.97221,3.1753 2.26674,2.7722 0.93241,-0.2904 9.19349,-2.329 18.35794,-4.5303 z m 995.05946,-230.5916 c 13.7082,-24.1727 25.0036,-44.3391 25.1009,-44.8143 0.2174,-1.0611 -6.0111,-3.2877 -27.1092,-9.691 -72.2685,-21.9337 -183.8075,-40.6557 -300.2138,-50.3914 -260.35443,-21.7749 -557.49822,-5.6829 -737.5,39.9398 -23.91348,6.061 -57.279,15.9237 -58.65016,17.3366 -1.03416,1.0657 48.77547,90.691 50.30573,90.518 0.73944,-0.084 9.21943,-2.207 18.84443,-4.7187 71.18598,-18.5763 160.90914,-29.9794 288,-36.6025 183.0811,-9.5409 404.4396,-5.0899 549.5,11.049 56.1691,6.2491 116.5378,17.2922 152,27.8048 7.15,2.1196 13.4046,3.7787 13.899,3.6869 0.4945,-0.092 12.1149,-19.9445 25.8231,-44.1172 z M 1.4965985e-7,1761.9157 V 1737.498 L 188.81483,1548.6852 l 188.81482,-188.8129 3.14852,9.3139 c 1.73169,5.1226 4.29229,13.3522 5.69022,18.288 l 2.5417,8.9741 -194.25504,194.505 C 87.914774,1697.9309 0.38750015,1785.6551 0.25000015,1785.8957 0.11250015,1786.1364 1.4965985e-7,1775.3454 1.4965985e-7,1761.9157 Z M 1648.6335,1520.3627 C 1647.7998,1517.6519 1646,1493.9004 1646,1485.61 v -7.0995 l 201.0115,-201.0052 201.0115,-201.0053 -0.2615,24 -0.2615,24 -199.1468,198.8627 c -156.9009,156.677 -199.2684,198.4676 -199.7197,197 z M 1.4965985e-7,1485.563 v -24.0656 L 146.45897,1315.041 c 80.55244,-80.551 146.63837,-146.2504 146.85764,-145.9987 0.21926,0.2517 1.43372,4.7327 2.69879,9.9577 1.26507,5.225 3.50944,13.3809 4.98749,18.1242 l 2.68736,8.6243 -151.84513,151.94 L 1.4965983e-7,1509.6285 Z m 0,-275.0332 v -22.0327 L 129.33251,1059.1675 258.66502,929.83787 l 2.29604,17.33106 c 1.26281,9.53209 2.35068,18.31857 2.41748,19.52551 0.0915,1.6522 -32.43359,34.77096 -131.62854,134.03126 L 1.4965985e-7,1232.5625 Z M 1763.3167,1123.1102 c 0.313,-1.3143 2.0314,-13.1015 3.8187,-26.1938 l 3.2495,-23.804 138.8207,-138.80621 138.8207,-138.80619 -0.2632,23 -0.2631,23 -142.3762,142 c -86.8712,86.6416 -142.1544,141.0684 -141.8071,139.6102 z M 1.4965985e-7,931.99779 V 910.49667 L 112.37574,798.12426 224.75148,685.75185 l 1.08035,6.37407 c 0.5942,3.50575 1.85218,11.92178 2.79551,18.70229 l 1.71515,12.32822 L 115.17124,838.32767 1.4965985e-7,953.49892 Z M 1806.2831,803 c 0.2955,-1.375 1.9838,-13.13179 3.7517,-26.1262 l 3.2144,-23.62619 117.3886,-117.37381 117.3887,-117.3738 -0.2633,23 -0.2632,23 -120.877,120.5 c -80.2847,80.03427 -120.6967,119.66046 -120.3399,118 z M 500.42989,716.75385 c -3.81144,-4.04648 -8.3631,-9.39176 -10.11481,-11.8784 l -3.18492,-4.52116 24.02118,-23.92714 L 535.17253,652.5 534.55837,664 c -0.33779,6.325 -1.10702,16.96203 -1.70941,23.63785 l -1.09524,12.13785 -12.19697,12.16769 -12.19698,12.16769 z m 325.15093,-39.4643 c -1.00502,-2.08425 -4.2763,-9.38443 -7.26951,-16.22262 l -5.44218,-12.43306 41.47297,-41.47297 41.47297,-41.47297 -1.22801,6.40603 c -0.67541,3.52332 -3.19179,16.6169 -5.59195,29.09684 l -4.36393,22.69079 -28.61152,28.59876 -28.61151,28.59875 z M 1.4965985e-7,655.49447 V 633.49128 L 43.000004,590.5 c 23.65,-23.6452 43,-42.46873 43,-41.83007 0,0.63867 4.57899,5.95719 10.17553,11.81893 L 106.35107,571.14658 53.175534,624.32212 1.4965988e-7,677.49765 Z M 1163.5225,617.87747 c -0.3188,-1.30761 -2.0989,-10.02747 -3.9559,-19.37747 l -3.3762,-17 66.152,-66.25 c 36.3836,-36.4375 66.46,-66.25 66.8366,-66.25 0.3765,0 1.448,3.43129 2.381,7.62509 1.2866,5.78322 1.586,10.68265 1.2394,20.28298 -0.2514,6.96184 -0.8716,13.37085 -1.3783,14.24223 -0.5066,0.87139 -29.3606,30.27641 -64.1201,65.34449 -56.0967,56.59485 -63.264,63.49297 -63.7785,61.38268 z M 221.5,564.35256 C 203.162,562.22672 189.63081,558.3547 174.48567,550.89916 150.05111,538.87069 126.0693,514.88468 114.13038,490.53329 104.85667,471.61804 101.31571,457.33637 100.3616,435 c -1.065746,-24.94998 3.09368,-45.23547 13.63547,-66.5 15.43089,-31.12667 43.94894,-57.22604 74.85311,-68.50467 15.41851,-5.62706 26.59282,-7.37487 47.14982,-7.37487 20.17656,0 31.36522,1.69549 46.23367,7.00609 38.10329,13.60943 71.57749,48.099 84.19362,86.74746 8.18428,25.07186 8.559,55.97948 0.9989,82.39074 -12.24272,42.77 -51.34879,80.47189 -95.091,91.67657 -15.1593,3.88309 -36.74894,5.54419 -50.83519,3.91124 z M 1795,563.94931 c -49.1554,-6.06594 -93.4419,-41.61433 -110.292,-88.53053 -5.4009,-15.03789 -7.1737,-26.37946 -7.1774,-45.91878 0,-19.40161 1.2705,-28.50865 6.0275,-43.08117 11.023,-33.76804 37.7116,-64.48299 70.1908,-80.78007 18.5902,-9.32801 35.0553,-12.95802 59.2511,-13.0629 19.3578,-0.0839 27.1981,0.969 42,5.64042 39.8778,12.58524 75.2788,47.87832 88.4273,88.15773 8.1843,25.07186 8.559,55.97948 0.9989,82.39074 -3.6077,12.60356 -12.2108,29.5361 -20.7996,40.93792 -20.3143,26.96737 -48.9506,45.65319 -80.1266,52.28425 -11.52,2.45028 -36.3915,3.45662 -48.5,1.96239 z M 409.45976,538.10539 c 0.91042,-8.65985 4.44051,-21.86516 10.22411,-38.24627 l 4.81613,-13.64088 15.10048,-15.54093 15.10048,-15.54093 5.109,2.36703 c 4.62697,2.1437 14.27411,8.21353 19.86235,12.49707 2.14673,1.64553 1.74221,2.09392 -34.35626,38.08233 L 408.78748,544.5 Z M 1514,540.47569 c 0,-6.8573 6.8126,-23.9387 13.3511,-33.47569 8.5776,-12.51114 45.8717,-43.15539 61.995,-50.94082 6.414,-3.09709 13.6539,-4.90854 13.6539,-3.41626 0,0.47603 -20.025,20.88671 -44.5,45.35708 -30.5699,30.56411 -44.5,43.86053 -44.5,42.47569 z M 754.0538,471.70784 C 753.93891,459.3386 758.82085,443.37539 768.94984,423 l 5.21974,-10.5 34.61236,-34.70249 34.61236,-34.70249 4.13243,7.73411 c 2.27283,4.25376 5.78411,10.31612 7.80285,13.47191 2.01873,3.15579 3.67042,6.08589 3.67042,6.51133 0,0.42545 -23.60079,24.60421 -52.4462,53.73059 L 754.1076,477.5 Z M 585,453.94931 c -49.1554,-6.06594 -93.44186,-41.61433 -110.29199,-88.53053 -5.40092,-15.03789 -7.17367,-26.37946 -7.17737,-45.91878 -0.004,-19.4037 1.25923,-28.42769 6.04333,-43.18222 6.39551,-19.72429 16.20145,-35.11766 33.3983,-52.42867 21.53035,-21.67329 41.9664,-32.8234 70.65373,-38.54941 12.24768,-2.44464 40.40853,-2.46389 52.55622,-0.0359 17.52852,3.50343 33.42137,10.03141 48.31778,19.84651 10.52322,6.93364 32.41608,28.8265 39.34972,39.34972 14.06774,21.35066 20.722,42.52296 21.84322,69.5 1.31682,31.68355 -7.69566,61.31535 -26.06637,85.70267 -20.31423,26.96737 -48.95061,45.65319 -80.12657,52.28425 -11.52004,2.45028 -36.39148,3.45662 -48.5,1.96239 z m 844.5,0.40325 c -18.338,-2.12584 -31.8692,-5.99786 -47.0143,-13.4534 -24.4346,-12.02847 -48.4164,-36.01448 -60.3553,-60.36587 -9.2737,-18.91525 -12.8147,-33.19692 -13.7688,-55.53329 -1.7227,-40.32922 11.3822,-73.84902 40.0901,-102.54292 25.4196,-25.4072 53.9016,-37.72515 90.5483,-39.16044 29.8679,-1.1698 57.2406,6.46148 81.6976,22.77661 10.1737,6.78683 31.3081,28.07979 38.1405,38.42675 21.7874,32.99433 27.8659,74.86552 16.5881,114.26475 -12.2427,42.77 -51.3488,80.47189 -95.091,91.67657 -15.1593,3.88309 -36.7489,5.54419 -50.8352,3.91124 z m -421,-50.03886 c -6.9546,-0.60869 -23.56783,-4.3816 -30.91883,-7.02171 -18.5122,-6.64876 -34.0863,-16.71319 -49.1295,-31.74907 -26.2498,-26.23702 -38.66647,-54.70271 -40.1489,-92.04292 -1.58676,-39.9683 11.61557,-73.52348 40.1489,-102.04292 24.9726,-24.96037 53.4547,-37.48766 89.04833,-39.16604 27.8859,-1.31493 55.0906,5.48191 77.0017,19.23807 33.7232,21.17211 56.4121,53.02113 64.0943,89.97089 2.7881,13.41011 2.5716,41.26206 -0.4292,55.23367 -6.4108,29.84806 -21.2386,54.37118 -45.5456,75.32614 -29.0431,25.03796 -63.7452,35.78773 -104.1212,32.25389 z M 1.4965985e-7,377.99374 V 355.49789 L 177.75105,177.74895 355.5021,0 h 22.55175 22.55174 L 268.0528,132.46235 C 168.04203,232.40486 133.606,266.22433 127.7852,270.21851 110.1674,282.30766 92.222994,300.25185 78.503104,319.5 c -4.55267,6.38712 -16.87942,19.45003 -42.4591,44.99479 L 1.4965985e-7,400.48958 Z M 1984.6079,341.26194 c -1.5512,-3.16907 -5.198,-9.41376 -8.1038,-13.8771 l -5.2835,-8.11517 38.3897,-38.37996 L 2048,242.50974 v 22.79312 22.79313 l -29.6094,29.202 c -16.2852,16.06111 -29.9138,29.31988 -30.2859,29.46395 -0.372,0.14407 -1.9455,-2.33093 -3.4968,-5.5 z M 381.13751,291.92723 c -4.0514,-1.62229 -24.23037,-15.14981 -23.92623,-16.0396 0.1588,-0.46456 62.14067,-62.72933 137.7375,-138.36614 L 632.39756,0 h 22.5485 22.54851 l -68.96802,68.973444 c -62.83646,62.841416 -69.45958,69.168586 -74.49728,71.168416 -47.942,19.03167 -88.04656,58.36433 -110.06381,107.94538 -4.08616,9.2017 -4.57526,9.81077 -21.81226,27.16276 -9.6978,9.7625 -17.86205,17.72148 -18.14278,17.68661 -0.28073,-0.0349 -1.57354,-0.48908 -2.87291,-1.00938 z m 843.48469,-13.01291 c -0.2915,-1.87788 -0.7957,-6.60279 -1.1205,-10.49981 -0.3247,-3.89703 -1.4623,-11.32203 -2.5279,-16.5 L 1219.0363,242.5 1340.2666,121.25 1461.4969,0 h 22.999 22.9989 L 1435.04,72.459952 c -69.5471,69.552158 -72.7775,72.627368 -80.4974,76.631908 -34.5442,17.91911 -65.1921,48.74465 -86.5527,87.05433 -3.4888,6.25713 -7.7671,11.14656 -23.5505,26.91432 l -19.2871,19.26813 z M 1895,119.5 2014.4969,0 h 6.1792 C 2034.2697,0 2048,3.154348 2048,6.2773177 2048,6.9515943 1996.5868,58.915038 1933.7484,121.75164 L 1819.4967,236 l -10.4983,0.0195 c -5.7741,0.0107 -15.4484,0.682 -21.4984,1.4917 -6.05,0.80969 -11.2243,1.4759 -11.4984,1.48047 C 1775.7274,238.99667 1829.2767,185.225 1895,119.5 Z M 743.83775,187.59066 733.17549,176.37696 821.29994,88.17025 909.4244,-0.03646252 931.46217,0.23176874 953.49997,0.5 854,99.652182 754.5,198.80436 Z m 834.22895,-5.37382 -11.4334,-11.34869 85.4534,-85.453437 85.4535,-85.4534391 22.7329,0.26936305 L 1783.006,0.5 1686.253,97.032766 1589.5,193.56553 Z M 0.00355215,101.99698 0.00710315,79.5 39.745324,39.731844 79.483544,-0.03631108 101.74588,0.23184446 124.00821,0.5 62.004104,62.496976 1.4965985e-7,124.49395 Z M 1119.5,101.81059 c -2.75,-1.73327 -9.2063,-5.149076 -14.3472,-7.590672 l -9.3473,-4.439267 44.3473,-44.752184 L 1184.5,0.27628256 1207.4964,0.13814128 1230.4929,0 1178,52.5 c -28.8711,28.875 -52.7195,52.49145 -52.9964,52.481 -0.277,-0.0104 -2.7536,-1.43713 -5.5036,-3.17041 z"
       id="path1" />
  </g>
</svg>
