<?xml version="1.0" encoding="UTF-8" standalone="no"?>
<!-- Created with Inkscape (http://www.inkscape.org/) -->

<svg
   version="1.1"
   id="svg1"
   width="2048"
   height="2048"
   viewBox="0 0 2048 2048"
   xmlns="http://www.w3.org/2000/svg"
   xmlns:svg="http://www.w3.org/2000/svg">
  <defs
     id="defs1" />
  <g
     id="g1">
    <path
       style="fill:#000000"
       d="m 7.1543564,2044.4764 c -3.83669,-3.2283 -5.9354,-9.7796 -6.82012001,-21.2896 l -0.64386,-8.3764 462.90481361,-462.9193 462.9048,-462.9193 -10.1085,3.9315 c -63.9144,24.8582 -120.88755,55.5658 -167.66559,90.369 -35.75576,26.6025 -70.78746,60.7333 -96.66221,94.1763 -18.44836,23.8444 -26.15089,36.5568 -56.07755,92.5514 -22.29825,41.7214 -31.52512,56.3908 -42.05131,66.8555 -13.16575,13.0888 -30.78639,19.7039 -55.43483,20.8113 -19.54368,0.878 -33.35119,-2.3676 -48.93961,-11.5038 -9.44873,-5.5377 -23.12671,-19.4698 -31.08092,-31.6583 -5.05107,-7.7399 -7.30411,-10.4006 -8.43562,-9.9621 -3.11563,1.2076 -21.02344,5.3087 -28.32077,6.4859 l -7.51155,1.2118 -186.60577,186.678 L -3.6054423e-6,1785.5963 v -24.0493 -24.0493 L 163.4444,1574.0556 326.88881,1410.6135 316.1944,1405.9868 c -23.66752,-10.2393 -44.55304,-22.3669 -56.20003,-32.6336 -15.011,-13.2321 -32.66118,-34.0457 -46.33788,-54.643 L 204.5,1304.9204 102.25,1407.3041 -3.6054422e-6,1509.6879 v -24.092 -24.092 L 94.958266,1366.502 189.91654,1271.5 l -2.92346,-9.7604 c -11.85722,-39.5872 -17.23722,-100.8605 -11.56513,-131.716 6.31702,-34.3638 21.69721,-71.7859 47.27388,-115.0236 l 7.39421,-12.5 L 115.04802,1117.5346 -3.6054423e-6,1232.5693 v -21.9245 -21.9244 L 168.75755,1019.6042 337.5151,850.48796 l 9.59806,-15.49398 c 14.27368,-23.04174 22.16272,-37.2761 32.97303,-59.49398 17.79671,-36.57668 26.89639,-66.63198 26.9237,-88.92622 0.0227,-18.50556 4.14073,-60.38566 7.61223,-77.4152 3.80399,-18.66054 11.58437,-36.71277 24.89002,-57.75039 4.83807,-7.6495 11.62673,-18.40819 15.08591,-23.90819 11.20435,-17.81462 42.24306,-55.79022 65.55216,-80.20252 l 10.69628,-11.20252 -1.62827,-5.09174 -1.62828,-5.09174 L 263.79497,689.70503 -3.6054421e-6,953.49858 V 932.10499 910.7114 L 258.41274,651.95601 516.82549,393.20063 l -2.44327,-8.35032 c -14.52131,-49.62913 -25.21545,-115.43926 -26.89998,-165.53842 -0.31091,-9.24654 -0.81284,-19.2453 -1.11541,-22.21947 L 485.81671,191.68483 242.90835,434.59164 -3.6054421e-6,677.49846 V 655.49645 633.49444 L 67.563886,565.99722 C 104.72403,528.87375 214.36617,418.9512 311.21309,321.72489 l 176.08532,-176.77511 0.46564,-4.84604 0.46565,-4.84604 3.48301,1.06897 3.48302,1.06896 L 563.7494,68.697817 632.30307,0 h 22.59597 22.59596 l -74.95458,74.959582 c -41.22503,41.227768 -74.7489,75.109168 -74.4975,75.291998 0.25139,0.18284 6.75708,3.01229 14.45708,6.28767 38.50825,16.38045 84.89029,41.28022 121.43344,65.19044 l 14.43344,9.44382 L 793.89048,115.58675 909.41409,0 h 22.1586 22.1586 l -124.9051,124.73353 -124.90513,124.73353 2.78947,2.01396 c 7.36458,5.31713 33.55739,26.64122 44.24439,36.02024 16.59965,14.56801 36.76108,34.06069 55.03967,53.21404 8.5112,8.91842 15.7632,15.89342 16.1157,15.5 0.3525,-0.39341 2.1087,-5.2153 3.9026,-10.7153 21.3011,-65.30664 61.6879,-121.65864 117.7879,-164.3504 l 8.3009,-6.31687 9.5255,7.15985 c 5.2391,3.93792 12.4027,9.60056 15.9191,12.58364 3.5164,2.98308 6.7541,5.42378 7.1948,5.42378 0.4407,0 45.77321,-45 100.73891,-100 L 1185.4176,0 h 22.5395 22.5395 l -111.2129,111.25 -111.2129,111.25 9.0022,10 c 19.8157,22.01189 39.0619,49.01939 53.9264,75.67323 l 8.1831,14.67323 7.6588,0.63442 c 4.2123,0.34893 16.3903,1.55132 27.0623,2.67199 l 19.4037,2.03757 L 1297.4048,164.09522 1461.5023,0 h 22.9977 22.9978 L 1340,167.5 c -92.1238,92.125 -167.1679,167.5 -166.7648,167.5 1.8437,0 26.7849,5.52199 40.9657,9.06979 40.429,10.11474 84.9085,25.88161 122.2778,43.34438 l 9.2749,4.33416 L 1541.6258,195.87416 1737.4981,0 h 23 23.0001 L 1580.2491,203.25092 C 1468.4621,315.03892 1377,406.79825 1377,407.16053 c 0,0.36228 3.4875,2.56268 7.75,4.88976 37.1852,20.30105 84.2823,52.24671 117.75,79.86909 l 11,9.07879 L 1764.0007,250.49909 2014.5015,0 h 6.1769 C 2034.2692,0 2048,3.1545782 2048,6.2769733 c 0,0.6740871 -65.2784,66.4750307 -145.0631,146.2243167 -79.7848,79.74929 -194.9864,195.23178 -256.0036,256.62775 l -110.9405,111.62904 15.5935,15.37096 c 28.5205,28.11368 52.5938,55.85428 78.1783,90.08797 L 1644.5,645.93402 1846.25,444.21794 2048,242.50186 v 22.5502 22.55021 l -192.6472,192.57158 -192.6472,192.57157 9.4741,14.87729 c 21.3129,33.46789 41.6268,69.14884 60.8474,106.87729 6.4445,12.65 11.9513,23.675 12.2375,24.5 0.3515,1.01341 49.5387,-47.48318 151.6278,-149.49876 L 2048,518.50248 v 22.57965 22.57964 L 1904.0666,707.58089 1760.1332,851.5 l 8.7994,21 c 16.9328,40.41006 35.3069,92.87122 46.6752,133.265 l 4.859,17.265 L 1934.2334,909.26663 2048,795.50329 v 22.56132 22.56133 l -109.1921,109.09934 -109.192,109.09932 2.267,10.3377 c 13.6848,62.4024 22.8584,116.8528 28.1082,166.8377 1.1841,11.275 2.3748,21.5948 2.6459,22.933 0.435,2.1469 11.361,-8.4346 92.928,-89.998 L 2048,1076.5041 v 23.6541 23.6541 l -90.8952,90.6655 -90.8953,90.6655 0.4094,3.6783 c 1.7495,15.7198 6.9446,123.4153 8.4985,176.1784 0.6561,22.275 1.3663,40.7058 1.5783,40.9572 0.212,0.2515 38.8422,-37.9975 85.8449,-84.9978 L 2048,1355.5044 v 23 23 L 1962.5,1487 1877,1572.4956 v 114.5 114.5 l 85.5132,-85.4978 85.5132,-85.4978 -0.2632,23.5 -0.2632,23.5 -185.0328,184.7686 -185.0328,184.7686 -23.4672,-0.2686 -23.4672,-0.2686 115,-114.5 115,-114.5 -113.9941,-0.2543 -113.9941,-0.2542 -115.0255,115.0222 -115.0255,115.0222 -24.4804,-0.2679 -24.4804,-0.268 115.1487,-114.5 115.1486,-114.5 -114.6428,-0.2542 -114.6428,-0.2543 -115.0075,115.0043 L 1124.4968,2047 h -23.63 -23.63 l 115.1316,-114.9795 115.1316,-114.9795 -119.0016,-0.02 -119.0017,-0.021 -114.99671,115 -114.9967,115 h -22.5613 -22.56125 L 909.44039,1932.0094 1024.5,1817.0189 l -115.50161,-0.01 -115.50165,-0.01 -114.99674,115 -114.99674,115 h -22.60309 -22.6031 l 114.90152,-114.75 114.90151,-114.75 -51.80005,-0.5 -51.80005,-0.5 -1.72036,-3.5156 c -0.9462,-1.9336 -2.2312,-6.8836 -2.85555,-11 -1.42286,-9.3811 -1.40433,-54.9031 0.0297,-72.9844 1.07809,-13.5933 3.65621,-34.789 4.68291,-38.5 0.30433,-1.1 -80.15239,78.6625 -178.79273,177.25 L 286.49792,2047 h -22.54639 -22.54639 l 210.18879,-210.1177 210.1888,-210.1176 4.27378,-11.6324 c 9.50625,-25.874 26.50065,-62.0557 45.03187,-95.8746 18.39875,-33.577 34.37879,-52.8994 97.14411,-117.4624 86.9083,-89.3976 127.6822,-132.0294 136.0941,-142.2953 27.4961,-33.5565 48.9028,-76.296 63.76141,-127.3022 3.4678,-11.9043 8.2713,-34.1071 9.8865,-45.6978 1.5763,-11.3109 2.7866,-35.9303 2.1025,-42.7674 l -0.577,-5.7675 -95.05821,95.2675 c -52.282,52.397 -278.63198,279.3174 -502.99998,504.2674 -224.36799,224.95 -408.667254,409.1357 -409.553904,409.3015 -0.88665,0.1658 -3.0167496,-0.8805 -4.7335496,-2.3251 z M 1756.0214,1736.25 c 0.012,-5.3625 0.6768,-21.675 1.4779,-36.25 3.1714,-57.7026 3.6615,-97.5555 3.2407,-263.5 -0.2871,-113.1935 -0.7835,-169.3957 -1.5811,-179 -7.9724,-95.9982 -19.0679,-157.223 -44.4911,-245.5 -25.8551,-89.77676 -49.175,-151.52481 -82.3301,-218 -23.3967,-46.90954 -40.9839,-76.65994 -69.2005,-117.05876 -17.4454,-24.97735 -24.2347,-34.09132 -36.2259,-48.62975 C 1442.2522,525.66839 1306.5296,442.4464 1163.5,405.47597 c -19.734,-5.10087 -56.3856,-12.92371 -57.1181,-12.19118 -0.1828,0.18282 0.2088,3.23103 0.8702,6.7738 0.826,4.42369 1.1276,17.5615 0.9631,41.94141 -0.1318,19.525 0.105,37.46166 0.5262,39.85925 l 0.7659,4.35926 13.4963,4.738 c 73.7324,25.88436 154.0584,65.04692 207.4964,101.16387 44.678,30.1964 69.2335,54.66945 99.7143,99.37962 49.9766,73.30711 93.187,165.8774 126.8232,271.69545 36.6365,115.25695 54.0263,208.26745 59.0447,315.80455 1.7193,36.8425 1.8296,363.097 0.1316,389.5 -0.7074,11 -1.5604,32.9375 -1.8957,48.75 l -0.6096,28.75 H 1684.8542 1756 Z M 473.5,1354.2544 c 8.06119,-4.1219 13.02621,-10.6017 21.64937,-28.2544 8.60724,-17.6201 16.62038,-37.259 21.82928,-53.5 2.63304,-8.2097 3.09707,-10.9608 2.59183,-15.3668 C 517.77884,1241.5089 507.33867,1232 491.97578,1232 c -12.83977,0 -25.83942,14.2743 -43.05566,47.2772 -6.74052,12.9214 -8.89722,16.0899 -15.72303,23.0992 -8.5083,8.737 -10.43847,11.7252 -12.2687,18.9937 -1.83439,7.285 0.14339,12.8304 7.01107,19.6579 5.47895,5.4468 16.41508,11.9716 24.53195,14.6363 5.57605,1.8306 16.06664,1.1272 21.02859,-1.4099 z M 345.44942,1239.961 c 11.86138,-4.4937 19.09352,-14.4352 20.1802,-27.7402 0.68945,-8.4414 2.62967,-14.8081 7.22875,-23.7208 4.66728,-9.0448 17.00632,-21.5528 26.64163,-27.0064 8.72085,-4.936 16.72641,-12.9011 19.03051,-18.9343 6.45834,-16.9109 -10.24806,-40.1769 -31.31109,-43.605 -7.19336,-1.1707 -17.15213,0.8266 -25.01344,5.0166 -14.18133,7.5586 -35.41451,26.2522 -46.03494,40.5291 -7.24809,9.7435 -16.63299,29.0626 -19.62585,40.4004 -7.579,28.7115 -5.02476,44.7715 8.40107,52.8225 7.27625,4.3633 11.71178,5.2564 24.05374,4.8434 7.81801,-0.2616 12.01965,-0.9271 16.44942,-2.6053 z M 1058.6662,985.50649 c 6.7212,-1.99597 13.2799,-7.1793 17.9945,-14.22105 2.1304,-3.18199 7.0629,-10.28544 10.961,-15.78544 35.5689,-50.18538 55.6316,-105.31727 60.3697,-165.89522 2.1519,-27.51196 0.9069,-37.78243 -5.766,-47.56766 -8.0466,-11.79947 -24.0601,-16.40145 -45.1598,-12.97803 -18.7166,3.03676 -25.7206,11.65307 -23.044,28.34885 1.7186,10.7204 1.4374,41.21887 -0.5172,56.09206 -3.0789,23.42847 -7.7674,37.81522 -21.5086,66 -11.6368,23.86831 -21.4707,39.19381 -34.1718,53.25469 -6.6245,7.33374 -9.2707,13.87432 -9.2023,22.74531 0.082,10.67843 5.9386,18.23187 19.3854,25.00356 12.5134,6.30167 21.4018,7.75206 30.6591,5.00293 z M 536.60112,789.09359 c 7.12311,-3.23491 10.99006,-8.21636 18.35848,-23.64963 3.78376,-7.92514 7.82912,-15.74287 8.9897,-17.37276 l 2.11014,-2.96342 4.26989,2.88172 c 16.897,11.40365 49.86753,13.48538 67.0581,4.234 6.8721,-3.69833 15.44708,-12.48446 19.26218,-19.73649 4.19758,-7.97909 8.04339,-20.53588 9.25913,-30.2316 1.5675,-12.501 -1.03091,-25.62316 -7.2921,-36.82563 l -2.50149,-4.47566 16.19242,-8.09657 C 695.42197,641.29985 699.56556,636.43099 699.4196,621 699.26022,604.14905 690.21896,589.62986 677.10078,585.15861 675.2312,584.52137 670.2161,584 665.95611,584 c -9.40345,0 -16.48779,2.05326 -34.83555,10.0964 -63.72539,27.93544 -111.51416,75.94927 -138.75018,139.4036 -3.90642,9.10117 -4.79932,12.33236 -5.17257,18.71845 -0.24865,4.25413 0.0792,9.86459 0.7304,12.5 3.68561,14.91535 19.75688,26.12484 37.57179,26.20581 4.75034,0.0216 8.31801,-0.56675 11.10112,-1.83067 z M 730.5,518.34848 c 2.2,-1.13352 14.9312,-7.98557 28.29156,-15.22677 26.77544,-14.51205 36.61315,-18.93055 50.30933,-22.5959 5.0365,-1.34785 9.3113,-2.60463 9.4995,-2.79285 0.1882,-0.18821 -0.145,-4.59263 -0.7405,-9.78758 -1.3427,-11.71321 -0.488,-43.7805 1.5307,-57.42845 0.8121,-5.49069 1.3473,-10.11233 1.1894,-10.27031 -0.6027,-0.60267 -23.52423,5.75775 -33.07999,9.17925 -21.9223,7.84942 -53.14651,25.47846 -72.44083,40.89974 -3.60754,2.88338 -8.92868,6.74109 -11.82474,8.57269 -11.51684,7.28375 -17.16767,17.4767 -15.79217,28.48585 1.42415,11.39852 11.37287,26.67736 20.70496,31.79785 4.60937,2.52914 16.70149,2.07824 22.35278,-0.83352 z M 1942.4408,2011.25 c 19.832,-19.6625 51.696,-51.2664 70.8087,-70.2308 L 2048,1906.5383 v 22.6743 22.6742 l -49.4255,47.5566 L 1949.149,2047 h -21.3833 -21.3832 z M -3.6054421e-6,377.98158 V 355.49789 L 177.77041,177.72958 355.54083,-0.03872446 378.02041,0.23063777 400.5,0.5 200.25,200.48264 -3.6054421e-6,400.46527 Z M 0.00399639,101.99698 0.00710639,79.5 39.745326,39.731844 79.483546,-0.03631108 101.74588,0.23184446 124.00821,0.5 62.004106,62.496976 -3.6054421e-6,124.49395 Z"
       id="path1" />
  </g>
</svg>
