<?xml version="1.0" encoding="UTF-8" standalone="no"?>
<!-- Created with Inkscape (http://www.inkscape.org/) -->

<svg
   version="1.1"
   id="svg1"
   width="2048"
   height="2048"
   viewBox="0 0 2048 2048"
   xmlns="http://www.w3.org/2000/svg"
   xmlns:svg="http://www.w3.org/2000/svg">
  <defs
     id="defs1" />
  <g
     id="g1">
    <path
       style="fill:#000000"
       d="m 12.66596,2049.9978 c -3.7708099,-3.173 -5.8796699,-9.7992 -6.7588499,-21.237 l -0.64377,-8.3753 113.7771699,-113.7804 113.77716,-113.7805 -7.08965,-9.8759 c -20.64886,-28.7639 -31.46883,-53.8692 -39.02709,-90.5536 -3.75997,-18.2492 -5.93743,-34.8281 -7.4374,-56.6274 l -1.19074,-17.3051 -86.25,86.4067 -86.2499999,86.4067 v -24.0996 -24.0995 l 90.0165899,-90.0207 90.01661,-90.0207 4.58128,-13.4709 c 16.1226,-47.4074 44.02344,-94.9291 99.68866,-169.7934 13.37205,-17.9841 28.39461,-38.5484 33.38346,-45.6984 39.6146,-56.7755 67.61373,-108.0444 80.27997,-147 6.65084,-20.455 7.97613,-27.7919 9.03163,-50 0.52281,-11 1.21437,-22.475 1.5368,-25.5 l 0.58625,-5.5 -204.56063,204.5481 -204.5606199,204.5482 v -24.0473 -24.0472 l 209.0341699,-209.036 209.03417,-209.0359 4.34585,-10.6637 c 6.21171,-15.2419 14.14638,-28.8955 36.18543,-62.26621 10.69941,-16.2006 40.68987,-52.3545 61.56569,-74.2183 l 10.71138,-11.2182 -5.48763,-16.2818 c -11.82407,-35.08178 -20.29492,-67.802 -26.86778,-103.7817 -1.95927,-10.725 -3.89058,-21.10158 -4.29179,-23.05906 l -0.72949,-3.55905 -246.5,247.05901 -246.4999999,247.05911 -0.26933,-21.8212 -0.26932,-21.8212 244.2693299,-245.00311 244.26932,-245.00311 -0.0391,-5.1757 c -0.0215,-2.84663 -0.60658,-17.71754 -1.30021,-33.04646 -1.15216,-25.46241 -1.01081,-46.64939 0.45587,-68.33025 l 0.55479,-8.20102 9.16431,3.32316 c 14.93284,5.41496 38.96904,15.22609 56.12298,22.90835 l 16.04136,7.18399 171.82819,-172.28832 171.82819,-172.28832 -2.1055,-3.21841 c -13.1163,-20.0488 -19.6265,-41.80397 -20.7133,-69.21841 -1.6272,-41.0442 11.2949,-74.23778 40.1141,-103.04292 19.6532,-19.643572 40.2042,-30.908432 66.81463,-36.623872 13.5849,-2.91778 41.6828,-3.19231 54.9159,-0.53656 16.483,3.30796 33.6253,10.13399 45.7787,18.22891 l 5.461,3.63732 40.9447,-41.08144 40.9447,-41.0814396 h 22.5907 22.5908 l -51.6823,51.7499996 -51.6822,51.750002 3.9604,4.5 c 5.9002,6.70409 13.5421,18.47427 17.8545,27.5 8.2541,17.27565 11.8874,32.54073 12.7338,53.5 2.1416,53.03069 -20.6821,94.90587 -66.4814,121.97533 l -7.3044,4.31723 2.878,3.10372 c 1.5829,1.70704 7.7626,8.64804 13.7326,15.42443 l 10.8546,12.32071 L 1294.0021,178.6435 1467.075,5.5727884 h 22.9979 22.9979 l -184.999,185.0684616 -184.999,185.06846 19.5,19.08457 c 10.725,10.49652 25.8,24.71453 33.5,31.59559 13.1529,11.75403 56.4117,48.20129 64.824,54.61688 l 3.8241,2.91638 239.1767,-239.17517 239.1768,-239.1751716 h 22.9984 22.9985 L 1539.7287,254.91689 1290.3861,504.261 l 8.3433,6.48044 c 4.5889,3.56424 16.5751,12.65828 26.6361,20.20896 37.1649,27.89195 62.7139,52.77568 80.9008,78.79403 l 3.9645,5.67164 304.9204,-304.92164 304.9204,-304.9216416 h 6.1782 c 13.5939,0 27.323,3.15446 27.323,6.2778196 0,0.67456 -39.4036,40.6005 -87.5636,88.724322 -48.1599,48.12382 -189.3033,189.54776 -313.6518,314.27541 l -226.0883,226.77755 2.7701,6.22245 c 16.7839,37.70132 28.9191,80.17297 35.2076,123.22245 1.8625,12.74962 2.5139,54.05896 0.9778,62 -0.7145,3.69387 21.7697,-18.53871 293.7872,-290.49936 l 294.561,-294.49937 v 22.53266 22.53266 l -298.0421,297.99273 -298.0421,297.99278 -1.9408,7.4739 c -1.0674,4.1107 -1.9484,7.7761 -1.9579,8.1454 -0.01,0.3692 6.3954,5.2681 14.2329,10.8864 31.0075,22.2276 60.2919,46.7786 87.0571,72.9857 l 17.1929,16.83441 240.75,-240.68819 240.75,-240.68816 v 22.55054 22.55054 l -229.9268,229.94868 -229.9268,229.94869 13.043,15.5 c 24.2563,28.8257 59.7477,78.3816 79.3185,110.7508 l 4.9885,8.2507 181.2518,-181.24971 181.2518,-181.24973 v 22.53984 22.53985 l -172.8439,172.78245 -172.8439,172.7824 11.3996,20.6767 c 20.8277,37.7775 43.3374,84.9349 58.7961,123.1767 3.2238,7.975 6.0217,14.7059 6.2177,14.9576 0.196,0.2517 60.8629,-60.0476 134.8154,-133.9986 l 134.459,-134.4562 v 23.6107 23.6107 l -128.1251,127.9605 -128.1251,127.9605 8.5745,25.9274 c 14.5181,43.8992 26.6993,88.9787 35.649,131.9274 2.2922,11 4.4982,20.8536 4.9023,21.8969 0.6098,1.5745 18.2781,-15.5741 103.9296,-100.8724 l 103.1948,-102.7694 v 22.8743 22.8744 l -99.8522,99.8484 -99.8521,99.8484 0.8546,4.5747 c 1.3777,7.3744 6.5844,43.3787 8.7815,60.7247 4.0104,31.6606 8.0089,77.3008 10.0751,115 0.6029,11 1.3327,21.5393 1.6219,23.4206 l 0.5258,3.4206 88.9227,-88.9185 88.9227,-88.9185 v 23.0647 23.0647 l -88.0423,87.9443 -88.0423,87.9444 1.0047,21.4889 c 0.5526,11.8188 1.3087,29.7013 1.6804,39.7388 l 0.6757,18.25 h -41.3914 -41.3913 l -57.4935,57.5 -57.4935,57.5 h -23.5736 -23.5737 l 57.3512,-57.25 57.3512,-57.25 8.0515,-0.2918 8.0514,-0.2917 -0.4514,-105.7083 c -0.2801,-65.5781 -0.8815,-111.023 -1.5842,-119.7082 -7.6148,-94.1172 -19.0529,-157.2751 -44.4611,-245.5 -25.8551,-89.7768 -49.175,-151.5248 -82.3301,-218 -23.3967,-46.9095 -40.9839,-76.6599 -69.2005,-117.0588 -17.4454,-24.9773 -24.2347,-34.0913 -36.2259,-48.6297 -84.6591,-102.64311 -220.3817,-185.86511 -363.4113,-222.83551 -19.734,-5.1009 -56.3856,-12.92374 -57.1181,-12.19121 -0.1828,0.18282 0.2088,3.23103 0.8702,6.77381 0.826,4.4237 1.1276,17.5615 0.9631,41.9414 -0.1318,19.525 0.105,37.4617 0.5262,39.8593 l 0.7659,4.3592 13.4963,4.738 c 73.7324,25.8844 154.0584,65.04691 207.4964,101.16391 44.678,30.1964 69.2335,54.6694 99.7143,99.3796 49.9766,73.3071 93.187,165.8774 126.8232,271.6955 31.3141,98.5127 48.5305,181.0295 55.9202,268.0202 3.1297,36.8423 3.9111,64.127 4.6117,161.0343 l 0.6561,90.75 h -50.366 -50.366 l -57.4935,57.5 -57.4935,57.5 h -24.5548 -24.5548 l 57.5515,-57.4921 57.5516,-57.4921 -114.5033,-0.01 -114.5032,-0.01 -57.4935,57.5 -57.4935,57.5 h -23.7509 -23.751 l 57.7477,-57.464 57.7477,-57.4641 -119.0033,-0.036 -119.00323,-0.032 -57.4935,57.5 -57.4935,57.5 h -22.6217 -22.62169 l 57.42689,-57.25 57.4269,-57.25 -87.212,-0.5 -87.21199,-0.5 6.2711,-7.7951 c 12.3761,-15.3841 31.5896,-36.2089 67.26849,-72.9096 86.9083,-89.3976 127.6822,-132.0294 136.0941,-142.2953 19.721,-24.0677 34.9746,-50.32 48.8073,-84 l 4.92853,-12 -217.28202,217.25 -217.28211,217.25 H 546.5245 523.97794 l 248.75344,-248.75 248.75342,-248.75 1.6038,-11 c 1.8522,-12.7035 3.2239,-36.7443 2.6919,-47.1766 l -0.3661,-7.1766 -8.1708,6.2797 c -22.29553,17.135 -52.70053,34.6838 -75.17083,43.3863 -52.648,20.39 -65.8949,26.1515 -98,42.6234 -58.26819,29.8953 -103.29199,61.6144 -143.35189,100.9909 -26.0214,25.5775 -44.4393,47.5453 -61.6404,73.5215 -9.4168,14.2207 -15.4086,24.8056 -38.5216,68.0514 -22.2982,41.7214 -31.52507,56.3908 -42.05126,66.8555 -13.16575,13.0888 -30.78639,19.7039 -55.43483,20.8113 -19.70735,0.8853 -33.95187,-2.5039 -49.1346,-11.6905 l -6.13459,-3.7119 -77.863,77.8678 -77.863,77.8678 h -22.60929 -22.60929 l 89.51581,-89.359 89.51581,-89.359 -4.79627,-7.6953 c -3.28216,-5.266 -5.25124,-7.5207 -6.23753,-7.1422 -10.88191,4.1758 -38.25227,8.6439 -56.82576,9.2766 l -16.0417,0.5464 -9.4583,-3.7321 c -5.20206,-2.0527 -16.20829,-6.9837 -24.45829,-10.9577 -22.93468,-11.0477 -37.08785,-20.354 -48.55329,-31.9259 l -5.55329,-5.6048 -117.88724,117.9765 C 71.24099,1999.4831 17.637,2052.5725 16.95899,2052.5725 c -0.67802,0 -2.60988,-1.1588 -4.29303,-2.575 z m 466.40683,-241.1706 c 8.06119,-4.1219 13.02621,-10.6017 21.64937,-28.2544 8.60724,-17.6201 16.62038,-37.259 21.82928,-53.5 2.63304,-8.2097 3.09707,-10.9608 2.59183,-15.3668 -1.79164,-15.6243 -12.23181,-25.1332 -27.5947,-25.1332 -12.83977,0 -25.83942,14.2743 -43.05566,47.2772 -6.74052,12.9214 -8.89722,16.0899 -15.72303,23.0992 -8.5083,8.737 -10.43847,11.7252 -12.2687,18.9937 -1.83439,7.285 0.14339,12.8304 7.01107,19.6579 5.47895,5.4468 16.41508,11.9716 24.53195,14.6363 5.57605,1.8306 16.06664,1.1272 21.02859,-1.4099 z M 351.02221,1694.5338 c 11.86138,-4.4937 19.09352,-14.4352 20.1802,-27.7402 0.68945,-8.4414 2.62967,-14.8081 7.22875,-23.7208 4.66728,-9.0448 17.00632,-21.5528 26.64163,-27.0064 8.72085,-4.936 16.72641,-12.9011 19.03051,-18.9343 6.45834,-16.9109 -10.24806,-40.1769 -31.31109,-43.605 -7.19336,-1.1707 -17.15213,0.8266 -25.01344,5.0166 -14.18133,7.5586 -35.41451,26.2522 -46.03494,40.5291 -7.24809,9.7435 -16.63299,29.0626 -19.62585,40.4004 -7.579,28.7115 -5.02476,44.7715 8.40107,52.8225 7.27625,4.3633 11.71178,5.2564 24.05374,4.8434 7.81801,-0.2616 12.01965,-0.9271 16.44942,-2.6053 z M 1064.239,1440.0793 c 6.7212,-1.996 13.2799,-7.1793 17.9945,-14.2211 2.1304,-3.182 7.0629,-10.2854 10.961,-15.7854 35.5689,-50.1854 55.6316,-105.3173 60.3697,-165.8952 2.1519,-27.512 0.9069,-37.7825 -5.766,-47.5677 -8.0466,-11.7995 -24.0601,-16.4014 -45.1598,-12.978 -18.7166,3.0368 -25.7206,11.6531 -23.044,28.3488 1.7186,10.7204 1.4374,41.2189 -0.5172,56.0921 -3.0789,23.4285 -7.7674,37.8152 -21.5086,66 -11.6368,23.8683 -21.4707,39.1938 -34.1718,53.2547 -6.6245,7.3337 -9.2707,13.8743 -9.2023,22.7453 0.082,10.6784 5.9386,18.2319 19.3854,25.0036 12.5134,6.3016 21.4018,7.752 30.6591,5.0029 z M 542.17391,1243.6664 c 7.12311,-3.2349 10.99006,-8.2164 18.35848,-23.6496 3.78376,-7.9252 7.82912,-15.7429 8.9897,-17.3728 l 2.11014,-2.9634 4.26989,2.8817 c 16.897,11.4036 49.86756,13.4854 67.05806,4.234 6.8721,-3.6983 15.4471,-12.4845 19.2622,-19.7365 4.1976,-7.9791 8.0434,-20.5359 9.2591,-30.2316 1.5675,-12.501 -1.0309,-25.6231 -7.2921,-36.8256 l -2.5014,-4.4757 16.1924,-8.0965 c 23.1144,-11.5577 27.258,-16.4266 27.112,-31.8576 -0.1594,-16.8509 -9.2006,-31.3701 -22.3188,-35.8414 -1.8696,-0.6372 -6.8847,-1.1586 -11.1447,-1.1586 -9.4034,0 -16.4878,2.0533 -34.8355,10.0964 -63.72542,27.9354 -111.51419,75.9493 -138.75021,139.4036 -3.90642,9.1012 -4.79932,12.3324 -5.17257,18.7185 -0.24865,4.2541 0.0792,9.8645 0.7304,12.5 3.68561,14.9153 19.75688,26.1248 37.57179,26.2058 4.75034,0.022 8.31801,-0.5668 11.10112,-1.8307 z M 736.07278,972.92129 c 2.2,-1.1335 14.9312,-7.9856 28.2916,-15.2268 26.7754,-14.512 36.6131,-18.9305 50.30929,-22.5959 5.0365,-1.3478 9.3113,-2.6046 9.4995,-2.7928 0.1882,-0.1882 -0.145,-4.5927 -0.7405,-9.7876 -1.3427,-11.7132 -0.488,-43.7805 1.5307,-57.4285 0.8121,-5.4907 1.3473,-10.1123 1.1894,-10.2703 -0.6027,-0.6026 -23.52419,5.7578 -33.07999,9.1793 -21.9223,7.8494 -53.1465,25.4784 -72.4408,40.8997 -3.6076,2.8834 -8.9287,6.7411 -11.8248,8.5727 -11.5168,7.2838 -17.1676,17.4767 -15.7921,28.4859 1.4241,11.3985 11.3728,26.6773 20.7049,31.7978 4.6094,2.5291 16.7015,2.0782 22.3528,-0.8335 z M 1177.177,775.56468 c 5.3311,-2.71209 7.6302,-4.60511 10.1322,-8.34266 4.5543,-6.80316 5.7177,-11.61516 5.7177,-23.64923 0,-12.03407 -1.1634,-16.84607 -5.7177,-23.64923 -2.5024,-3.73816 -4.8006,-5.63013 -10.1335,-8.34266 l -6.8972,-3.50811 -50.8528,-0.29294 -50.8529,-0.29294 v -47.79028 c 0,-31.92549 -0.3803,-49.68409 -1.1457,-53.49511 -2.256,-11.23353 -10.5036,-20.66859 -20.677,-23.65397 -6.2756,-1.84158 -18.6478,-2.33915 -25.3545,-1.01968 -14.7634,2.90452 -22.66393,10.54241 -25.69843,24.84414 -0.6519,3.07253 -1.1242,15.25809 -1.1239,29 l 6e-4,23.70078 7.99953,7.31632 c 24.9332,22.80385 54.318,61.06691 73.9988,96.35691 l 8.1831,14.67323 7.6588,0.6261 c 4.2123,0.34436 8.7837,0.77515 10.1587,0.95731 1.375,0.18217 17.1719,0.27247 35.1042,0.20067 l 32.6042,-0.13054 z M 636.53308,640.93286 c 11.8826,-23.10098 31.4632,-48.84193 53.1657,-69.89236 13.9394,-13.52061 22.0416,-20.29155 50.874,-42.51521 38.2102,-29.45186 85.21549,-67.54245 113.99999,-92.37939 34.7517,-29.98577 71.2687,-66.28741 106.8613,-106.23099 l 8.1604,-9.15788 -6.3011,-3.52376 c -3.4656,-1.93807 -10.108,-6.2458 -14.7608,-9.57274 l -8.4598,-6.04899 -167.58659,168.23063 -167.5866,168.23062 12.0866,6.7227 c 6.6476,3.69748 12.5366,6.72945 13.0866,6.7377 0.55,0.008 3.4571,-4.7619 6.4603,-10.60033 z M 1948.0136,2016.8228 c 19.832,-19.6625 51.696,-51.2664 70.8087,-70.2308 l 34.7505,-34.4809 v 22.6743 22.6742 l -49.4255,47.5566 -49.4255,47.5566 h -21.3833 -21.3832 z M 5.8044001,937.44839 6.0727901,915.82409 460.07279,460.94843 914.07277,6.0727884 l 22.9356,-0.26889 c 12.6145,-0.14788 22.7274,-0.14788 22.473,0 -0.2543,0.14789 -214.99609,214.6938916 -477.2039,476.7688916 l -476.7414499,476.5 z m -0.23161,-276.3718 v -21.9951 L 161.33013,483.07714 C 246.99667,397.27475 389.29755,254.7271 477.55432,166.30459 L 638.02118,5.5363884 l 22.2774,0.2682 22.2775,0.2682 L 344.07443,344.57224 5.5727901,683.07168 Z m 0,-277.52222 V 361.07068 L 183.3432,183.30237 361.11362,5.5340684 l 22.47958,0.26936 22.47959,0.26936 L 205.82279,206.05543 5.5727901,406.03806 Z m 0.004,-275.9846 0.004,-22.496982 39.7382199,-39.76816 39.73822,-39.7681496 22.26234,0.26816 22.26233,0.26815 L 67.57779,68.069768 5.5736901,130.06674 Z"
       id="path1" />
  </g>
</svg>
