<?xml version="1.0" encoding="UTF-8" standalone="no"?>
<!-- Created with Inkscape (http://www.inkscape.org/) -->

<svg
   version="1.1"
   id="svg1"
   width="2048"
   height="2048"
   viewBox="0 0 2048 2048"
   xmlns="http://www.w3.org/2000/svg"
   xmlns:svg="http://www.w3.org/2000/svg">
  <defs
     id="defs1" />
  <g
     id="g1">
    <path
       style="fill:#000000"
       d="m 7.1543603,2044.4764 c -3.89038,-3.2735 -6.00542,-9.9858 -6.76719996,-21.4764 l -0.56351,-8.5 L 192.48444,1822 l 192.66079,-192.5 -0.55284,7.5 c -0.30407,4.125 -0.82433,14.7 -1.15614,23.5 l -0.6033,16 -184.66647,184.9867 C 96.59991,1963.2293 12.77456,2046.615 11.8879,2046.7882 c -0.88665,0.1731 -3.0167397,-0.8672 -4.7335397,-2.3118 z M 329.1846,1959.25 c 48.34788,-48.2625 88.22981,-87.8649 88.62652,-88.0054 0.39671,-0.1405 2.19559,2.4263 3.99751,5.704 1.80192,3.2777 5.67418,9.3017 8.60502,13.3867 l 5.32879,7.4272 -74.6237,74.6188 L 286.49503,2047 H 263.8872 241.27936 Z m 238.09455,38.7825 49.22085,-48.9675 22.49617,-0.033 22.49618,-0.033 -48.99235,49 -48.99235,49 H 540.78298 518.0583 Z m 276.08628,-0.012 49.13452,-48.9794 22.4962,-0.021 22.4962,-0.021 -48.9924,49 -48.9923,49 h -22.63839 -22.63839 z m 282.85007,0.02 49.2845,-48.9598 23.4962,-0.04 23.4961,-0.04 -48.9923,49 -48.9923,49 h -23.7883 -23.7883 z m 226.8874,48.7098 c 0.24,-0.1375 22.4775,-22.1349 49.4167,-48.8831 l 48.9804,-48.6332 24.9478,-0.5684 24.9478,-0.5684 -49.444,49.4515 -49.444,49.4516 h -24.9205 c -13.7062,0 -24.7241,-0.1125 -24.4842,-0.25 z m 383.3583,-105.4957 c 58.3214,-58.1601 152.2829,-151.8726 208.8035,-208.25 l 102.7646,-102.5043 -0.2646,23.5 -0.2647,23.5 -185.0142,184.75 -185.0141,184.75 h -23.5246 -23.5247 z m 205.9796,69.9957 c 19.832,-19.6625 51.696,-51.2664 70.8087,-70.2308 L 2048,1906.5383 v 22.6743 22.6742 l -49.4255,47.5566 L 1949.149,2047 h -21.3833 -21.3832 z M 482.88272,1884.2509 C 467.16793,1843.7913 456.09876,1802.2691 450.02591,1761 c -3.42848,-23.2989 -5.05309,-43.6043 -5.6806,-71 -2.79379,-121.9698 29.61622,-233.5517 96.43252,-332 58.89288,-86.7738 134.78558,-153.8049 224.60605,-198.3801 17.28064,-8.5759 49.37331,-22.6199 51.68977,-22.6199 2.74785,0 -0.28065,-2.1059 -10.71731,-7.4523 C 736.70829,1093.8687 682.30153,1023.6915 665.60668,948 c -4.78688,-21.70283 -6.02845,-34.4719 -6.02845,-62 0,-18.8238 0.45712,-28.77265 1.74598,-38 7.35857,-52.68228 27.64503,-97.4336 62.63371,-138.16805 41.96883,-48.86087 95.94262,-80.41056 156.35233,-91.3938 22.5709,-4.10365 21.3915,-2.58421 9.6273,-12.40339 -29.70279,-24.79199 -50.63901,-55.94798 -61.33217,-91.27081 -9.45421,-31.23024 -11.11276,-69.73045 -4.4485,-103.26395 10.81731,-54.43091 48.01647,-105.39415 98.72407,-135.25279 40.2563,-23.70454 92.71145,-31.8325 142.91335,-22.14453 30.2484,5.83734 61.6382,20.89939 86.1051,41.31656 10.355,8.64104 29.3026,28.3552 36.6006,38.08136 24.5539,32.7233 37.568,70.09214 39.1793,112.4994 2.4482,64.43613 -21.1939,119.04831 -69.0491,159.5 -12.3416,10.4322 -13.4529,8.84513 9.0595,12.93815 41.7533,7.59127 79.7884,24.60842 114.1276,51.06154 14.2351,10.96591 37.8403,34.28191 49.1019,48.50031 40.916,51.65859 60.0216,110.39654 57.7354,177.5 -2.4406,71.63347 -28.8189,131.4633 -81.1546,184.0701 -21.2863,21.3966 -43.5668,37.9731 -67.7833,50.4299 -9.6192,4.9481 -12.489,7 -9.7904,7 2.1073,0 33.7683,13.7493 49.5737,21.5281 91.3967,44.982 167.9406,112.53 227.7369,200.9719 47.2163,69.8353 77.6872,148.6684 89.6738,232 4.4567,30.9834 5.5019,47.3786 5.4825,86 -0.019,38.5315 -0.9641,53.0508 -5.466,84 -5.5628,38.2427 -15.1079,76.2005 -28.667,114 l -3.9459,11 -540.1815,0.2509 -540.1816,0.2509 z M 1655.1568,1780.7814 c 1.4962,-8.9548 3.3105,-21.5051 4.0318,-27.8895 l 1.3114,-11.6082 193.5,-192.4625 193.5,-192.4626 0.2694,22.551 0.2693,22.551 -197.8011,197.8012 -197.8011,197.8011 z M 3.4013607e-7,1761.5295 v -24.0306 L 329.30985,1408.1901 658.6197,1078.8814 l 5.26562,9.5051 c 5.48251,9.8966 9.11468,18.4068 9.11468,21.3559 0,2.1622 -8.14531,10.3632 -372.24128,374.7877 L 3.4013607e-7,1785.5602 Z M 1645.5761,1523.9288 c -0.2742,-0.7858 -1.4388,-5.2538 -2.5882,-9.9288 -1.1493,-4.675 -3.2291,-12.2875 -4.6218,-16.9167 l -2.5321,-8.4167 206.0953,-206.0833 206.0954,-206.0833 -0.2624,24 -0.2623,24 -200.7128,200.4288 c -129.1273,128.9447 -200.8905,199.9193 -201.2111,199 z M 3.4013607e-7,1485.5384 v -24.0396 L 300.25,1161.2487 600.5,860.9986 l -0.25323,23.739 -0.25323,23.73899 -44.24332,44.5117 C 531.41639,977.46973 396.41785,1112.7176 255.75345,1253.5391 L 3.4013607e-7,1509.5781 Z M 1556.4629,1322.75 c -1.5416,-2.3375 -5.562,-8.0844 -8.9343,-12.7708 l -6.1314,-8.5208 253.3202,-252.8627 253.3201,-252.86276 -0.2687,22.88353 L 2047.5,841.5 1804.2083,1084.25 C 1670.3979,1217.7625 1560.5452,1327 1560.0912,1327 c -0.454,0 -2.0867,-1.9125 -3.6283,-4.25 z M 3.4013607e-7,1210.6445 v -21.895 L 291.71415,896.12473 C 452.15693,735.18113 623.87506,563 673.30998,513.5 l 89.88169,-90 -0.68838,6.5 c -0.3786,3.575 -0.85726,14.13375 -1.06369,23.46388 l -0.37532,16.96389 -170.78383,171.03611 C 496.34934,735.53375 325.10987,907.00889 209.7483,1022.5198 L 3.401361e-7,1232.5395 Z M 1417,1172.265 c -6.325,-5.2589 -11.6126,-9.8326 -11.7501,-10.1638 -0.1376,-0.3311 144.4249,-145.2766 321.25,-322.10105 L 2048,518.50117 v 22.53826 22.53827 l -309.0162,308.96115 c -169.9589,169.92865 -309.3464,309.03465 -309.75,309.12455 -0.4036,0.09 -5.9088,-4.1394 -12.2338,-9.3984 z M 0.23162034,931.87564 0.50000034,910.25127 454.5,455.37564 908.49995,0.5 931.43555,0.23111362 c 12.6146,-0.1478875 22.7274,-0.1478875 22.4731,0 C 953.65425,0.37900113 738.91247,214.925 476.70468,477 L -0.03676966,953.5 Z M 1447.4772,870.32653 C 1447.0157,861.07194 1446.607,851.25 1446.569,848.5 l -0.069,-5 300.7672,-300.5 300.7673,-300.5 -0.2673,23 -0.2672,23 -299.5918,299.32653 -299.5918,299.32653 z m -73.4468,-193.50512 c -1.3482,-1.82678 -5.6896,-6.96366 -9.6475,-11.4153 l -7.1963,-8.0939 328.6573,-328.6561 L 2014.5011,0 h 6.1771 c 13.9303,0 27.8802,3.3010383 27.134,6.4208678 C 2047.6405,7.1387237 1896.5209,159.01983 1711.9909,343.93444 L 1376.4817,680.14282 Z M 3.4013607e-7,655.5038 V 633.5087 L 155.75734,477.50435 C 241.42388,391.70196 383.72476,249.15431 471.98153,160.7318 L 632.44837,-0.03640115 654.72582,0.23179943 677.00327,0.5 338.50164,338.99945 3.4013607e-7,677.49889 Z M 1283.3451,498.5 c 1.0207,-3.81597 2.565,-20.07339 3.2427,-34.13537 l 0.6813,-14.13536 225.1356,-225.134 L 1737.5404,-0.03872558 1760.272,0.23063721 1783.0037,0.5 l -250.0968,250 c -137.5532,137.5 -249.856,249.1 -249.5618,248 z M 3.4013607e-7,377.98158 V 355.49789 L 177.77041,177.72958 355.54083,-0.03872446 378.02041,0.23063777 400.5,0.5 200.25,200.48264 3.4013613e-7,400.46527 Z M 1212.2497,272.23871 1200.9995,260.50146 1331.2696,130.23136 1461.5397,-0.03872738 1484.2722,0.23063631 1507.0048,0.5 1365.2524,142.23798 1223.5,283.97596 Z M 1088,97.374597 1184.5,0.5 l 23,-0.2633477 23,-0.26334769 -95.8536,95.86893439 -95.8537,95.868931 -21.1463,0.59555 c -11.6305,0.32755 -22.27145,0.8986 -23.64645,1.26901 -1.5443,0.41603 34.38795,-36.35767 94.00005,-96.201133 z M 0.00355034,101.99698 0.00710034,79.5 39.74533,39.731844 79.48355,-0.03631108 101.74588,0.23184446 124.00821,0.5 62.00411,62.496976 3.4013607e-7,124.49395 Z"
       id="path1" />
  </g>
</svg>
