<?xml version="1.0" encoding="UTF-8" standalone="no"?>
<!-- Created with Inkscape (http://www.inkscape.org/) -->

<svg
   version="1.1"
   id="svg1"
   width="2048"
   height="2048"
   viewBox="0 0 2048 2048"
   xmlns="http://www.w3.org/2000/svg"
   xmlns:svg="http://www.w3.org/2000/svg">
  <defs
     id="defs1" />
  <g
     id="g1">
    <path
       style="fill:#000000"
       d="m 7.0931781,2044.425 c -3.770895,-3.173 -5.879678,-9.7992 -6.75891795,-21.2378 l -0.643837,-8.3761 L 250.59446,1763.9055 c 222.16518,-222.1665 251.24776,-250.9062 253.90479,-250.9114 11.10741,-0.022 34.03627,-5.5353 47.97926,-11.537 l 7.97851,-3.4344 -66.9783,67.2387 C 272.54484,1787.054 12.394214,2047 11.360904,2047 c -0.6641,0 -2.5845759,-1.1588 -4.2677259,-2.575 z m 234.0053019,2.325 c 0.2375,-0.1375 77.09079,-76.75 170.78509,-170.25 169.59969,-169.248 170.35054,-169.9801 169.73622,-165.5 -0.33938,2.475 -0.89218,13.05 -1.22845,23.5 l -0.6114,19 -146.6387,146.75 L 286.50255,2047 h -22.91794 c -12.60487,0 -22.72363,-0.1125 -22.48613,-0.25 z m 362.61278,-85 c 47.01406,-46.8875 85.8241,-85.1585 86.24453,-85.0466 0.42042,0.1118 7.68986,0.7071 16.15431,1.3229 8.46444,0.6158 17.37538,1.3503 19.80207,1.6322 l 4.41217,0.5127 -83.40993,83.4144 L 563.50449,2047 h -22.63667 -22.63667 z m 274.20752,1.7627 83.58119,-83.4872 22.4978,-0.013 22.49773,-0.013 -83.49553,83.5 -83.49548,83.5 h -22.58347 -22.58347 z m 282.90402,0.014 83.6772,-83.4731 23.4978,-0.027 23.4977,-0.027 -83.4955,83.5 -83.4955,83.5 h -23.6794 -23.6795 z m 276.1413,-0.021 83.5359,-83.4944 24.4978,-0.01 24.4977,-0.01 -83.4955,83.5 -83.4955,83.5 h -24.5381 -24.5381 z m 277.2613,-0.2555 83.8229,-83.75 14.2258,-1.2837 c 12.7439,-1.1499 33.9362,-4.7909 39.2259,-6.7391 1.1,-0.4052 -37.599,38.9217 -85.9979,87.3931 L 1677.5043,2047 h -23.5509 -23.5508 z m 228.2154,48 c 19.832,-19.6625 51.696,-51.2664 70.8087,-70.2308 L 2048,1906.5383 v 22.6743 22.6742 l -49.4255,47.5566 L 1949.149,2047 h -21.3833 -21.3832 z M 643.60445,1815.75 c -4.22576,-6.5952 -5.88025,-30.0786 -4.56308,-64.7674 1.74996,-46.0871 5.69321,-68.7745 19.62698,-112.9231 11.27942,-35.7384 27.81552,-72.8994 52.42003,-117.8018 18.39875,-33.577 34.37879,-52.8994 97.14409,-117.4624 86.90833,-89.3976 127.6822,-132.0294 136.0941,-142.2953 23.1133,-28.2077 42.7787,-64.5035 56.23723,-103.7949 14.7773,-43.1418 20.5104,-76.4712 19.5999,-113.9428 l -0.1637,-6.7377 -8.25,6.3407 c -22.37453,17.1965 -52.74473,34.7315 -75.25003,43.4475 -52.64801,20.39 -65.89487,26.1515 -97.99997,42.6234 -58.26818,29.8953 -103.29198,61.6144 -143.35189,100.9909 -26.02143,25.5775 -44.43929,47.5453 -61.64043,73.5215 -9.41681,14.2207 -15.40855,24.8056 -38.52154,68.0514 -22.29825,41.7214 -31.52512,56.3908 -42.05131,66.8555 -13.16575,13.0888 -30.78639,19.7039 -55.43483,20.8113 -19.54368,0.878 -33.35119,-2.3676 -48.93961,-11.5038 -9.44873,-5.5377 -23.12671,-19.4698 -31.08092,-31.6583 -4.55025,-6.9725 -7.35807,-10.3815 -8.26422,-10.0338 -0.75486,0.2897 -4.91414,1.4309 -9.24286,2.5362 -15.15674,3.8698 -31.39458,6.1649 -47.49942,6.7135 l -16.02703,0.546 -10.97297,-4.3542 c -25.33421,-10.0529 -52.81543,-25.3967 -65.4786,-36.5592 -21.89529,-19.3006 -48.08643,-53.4753 -60.54499,-79.0005 -11.61566,-23.7982 -19.44697,-53.8682 -24.05686,-92.3716 -2.1888,-18.2815 -2.51369,-57.9727 -0.56464,-68.9811 10.22151,-57.732 40.19487,-114.6262 109.47526,-207.80162 49.20365,-66.17413 71.68171,-101.12368 93.707,-145.69838 19.72578,-39.92095 28.97111,-69.54652 28.99975,-92.92622 0.0227,-18.50556 4.14073,-60.38566 7.61223,-77.4152 3.80399,-18.66054 11.58437,-36.71277 24.89002,-57.75039 4.83807,-7.6495 11.62673,-18.40819 15.08591,-23.90819 11.20758,-17.81975 42.24372,-55.79098 65.56659,-80.21757 l 10.7107,-11.21758 -5.95843,-17.78242 C 510.13598,375.17007 499.79195,331.60449 493.59909,287.38226 486.9564,239.9479 484.72478,186.61647 487.61187,144.29898 l 0.55951,-8.20102 9.16431,3.32316 c 37.02651,13.42659 84.70762,35.27832 119.54413,54.78579 71.4898,40.03229 130.39291,85.97635 189.11481,147.50839 8.51112,8.91842 15.76316,15.89342 16.11565,15.5 0.35249,-0.39341 2.10866,-5.2153 3.9026,-10.7153 21.30109,-65.30664 61.6879,-121.65864 117.78799,-164.3504 l 8.3008,-6.31687 9.5255,7.15985 c 44.70673,33.60367 81.26363,75.77866 109.37223,126.18065 l 8.1831,14.67323 7.6588,0.63192 c 99.1575,8.18141 182.226,30.62346 265.3765,71.69496 100.0224,49.40523 185.1182,116.78784 254.9704,201.89678 33.5387,40.864 72.0709,98.71869 103.9194,156.03096 77.9417,140.25854 124.8473,289.36312 147.3498,468.39892 6.5382,52.0199 11.7272,131.3035 16.6567,254.5 0.6097,15.2379 1.319,97.3938 1.5907,184.25 l 0.4903,156.75 H 1261.1206 645.04611 Z m 1112.41695,-78.5 c 0.012,-5.3625 0.6768,-21.675 1.4779,-36.25 3.1714,-57.7026 3.6615,-97.5555 3.2407,-263.5 -0.2871,-113.1935 -0.7835,-169.3957 -1.5811,-179 -7.9724,-95.9982 -19.0679,-157.223 -44.4911,-245.5 -25.8551,-89.77676 -49.175,-151.52481 -82.3301,-218 -23.3967,-46.90954 -40.9839,-76.65994 -69.2005,-117.05876 -17.4454,-24.97735 -24.2347,-34.09132 -36.2259,-48.62975 C 1442.2522,526.66839 1306.5296,443.4464 1163.5,406.47597 c -19.734,-5.10087 -56.3856,-12.92371 -57.1181,-12.19118 -0.1828,0.18282 0.2088,3.23103 0.8702,6.7738 0.826,4.42369 1.1276,17.5615 0.9631,41.94141 -0.1318,19.525 0.105,37.46166 0.5262,39.85925 l 0.7659,4.35926 13.4963,4.738 c 73.7324,25.88436 154.0584,65.04692 207.4964,101.16387 44.678,30.1964 69.2335,54.66945 99.7143,99.37962 49.9766,73.30711 93.187,165.8774 126.8232,271.69545 36.6365,115.25695 54.0263,208.26745 59.0447,315.80455 1.7193,36.8425 1.8296,363.097 0.1316,389.5 -0.7074,11 -1.5604,32.9375 -1.8957,48.75 l -0.6096,28.75 H 1684.8542 1756 Z M 473.5,1355.2544 c 8.06119,-4.1219 13.02621,-10.6017 21.64937,-28.2544 8.60724,-17.6201 16.62038,-37.259 21.82928,-53.5 2.63304,-8.2097 3.09707,-10.9608 2.59183,-15.3668 C 517.77884,1242.5089 507.33867,1233 491.97578,1233 c -12.83977,0 -25.83942,14.2743 -43.05566,47.2772 -6.74052,12.9214 -8.89722,16.0899 -15.72303,23.0992 -8.5083,8.737 -10.43847,11.7252 -12.2687,18.9937 -1.83439,7.285 0.14339,12.8304 7.01107,19.6579 5.47895,5.4468 16.41508,11.9716 24.53195,14.6363 5.57605,1.8306 16.06664,1.1272 21.02859,-1.4099 z M 345.44942,1240.961 c 11.86138,-4.4937 19.09352,-14.4352 20.1802,-27.7402 0.68945,-8.4414 2.62967,-14.8081 7.22875,-23.7208 4.66728,-9.0448 17.00632,-21.5528 26.64163,-27.0064 8.72085,-4.936 16.72641,-12.9011 19.03051,-18.9343 6.45834,-16.9109 -10.24806,-40.1769 -31.31109,-43.605 -7.19336,-1.1707 -17.15213,0.8266 -25.01344,5.0166 -14.18133,7.5586 -35.41451,26.2522 -46.03494,40.5291 -7.24809,9.7435 -16.63299,29.0626 -19.62585,40.4004 -7.579,28.7115 -5.02476,44.7715 8.40107,52.8225 7.27625,4.3633 11.71178,5.2564 24.05374,4.8434 7.81801,-0.2616 12.01965,-0.9271 16.44942,-2.6053 z M 1058.6662,986.50649 c 6.7212,-1.99597 13.2799,-7.1793 17.9945,-14.22105 2.1304,-3.18199 7.0629,-10.28544 10.961,-15.78544 35.5689,-50.18538 55.6316,-105.31727 60.3697,-165.89522 2.1519,-27.51196 0.9069,-37.78243 -5.766,-47.56766 -8.0466,-11.79947 -24.0601,-16.40145 -45.1598,-12.97803 -18.7166,3.03676 -25.7206,11.65307 -23.044,28.34885 1.7186,10.7204 1.4374,41.21887 -0.5172,56.09206 -3.0789,23.42847 -7.7674,37.81522 -21.5086,66 -11.6368,23.86831 -21.4707,39.19381 -34.1718,53.25469 -6.6245,7.33374 -9.2707,13.87432 -9.2023,22.74531 0.082,10.67843 5.9386,18.23187 19.3854,25.00356 12.5134,6.30167 21.4018,7.75206 30.6591,5.00293 z M 536.60112,790.09359 c 7.12311,-3.23491 10.99006,-8.21636 18.35848,-23.64963 3.78376,-7.92514 7.82912,-15.74287 8.9897,-17.37276 l 2.11014,-2.96342 4.26989,2.88172 c 16.897,11.40365 49.86753,13.48538 67.0581,4.234 6.8721,-3.69833 15.44708,-12.48446 19.26218,-19.73649 4.19758,-7.97909 8.04339,-20.53588 9.25913,-30.2316 1.5675,-12.501 -1.03091,-25.62316 -7.2921,-36.82563 l -2.50149,-4.47566 16.19242,-8.09657 C 695.42197,642.29985 699.56556,637.43099 699.4196,622 699.26022,605.14905 690.21896,590.62986 677.10078,586.15861 675.2312,585.52137 670.2161,585 665.95611,585 c -9.40345,0 -16.48779,2.05326 -34.83555,10.0964 -63.72539,27.93544 -111.51416,75.94927 -138.75018,139.4036 -3.90642,9.10117 -4.79932,12.33236 -5.17257,18.71845 -0.24865,4.25413 0.0792,9.86459 0.7304,12.5 3.68561,14.91535 19.75688,26.12484 37.57179,26.20581 4.75034,0.0216 8.31801,-0.56675 11.10112,-1.83067 z M 730.5,519.34848 c 2.2,-1.13352 14.9312,-7.98557 28.29156,-15.22677 26.77544,-14.51205 36.61315,-18.93055 50.30937,-22.5959 5.03648,-1.34785 9.31123,-2.60463 9.49944,-2.79285 0.18822,-0.18821 -0.14502,-4.59263 -0.74052,-9.78758 -1.34268,-11.71321 -0.48794,-43.7805 1.53074,-57.42845 0.81213,-5.49069 1.34734,-10.11233 1.18936,-10.27031 -0.60267,-0.60267 -23.52419,5.75775 -33.07995,9.17925 -21.9223,7.84942 -53.14651,25.47846 -72.44083,40.89974 -3.60754,2.88338 -8.92868,6.74109 -11.82474,8.57269 -11.51684,7.28375 -17.16767,17.4767 -15.79217,28.48585 1.42415,11.39852 11.37287,26.67736 20.70496,31.79785 4.60937,2.52914 16.70149,2.07824 22.35278,-0.83352 z M 1930.4613,1792.5 c 1.9368,-5.1595 5.5743,-26.15 6.6871,-38.5877 l 1.2349,-13.8024 54.822,-54.8049 54.8219,-54.805 -0.2636,23.5 -0.2636,23.5 -58.8947,58.5 c -32.3921,32.175 -58.5569,57.6 -58.144,56.5 z M 1.4965985e-7,1761.5568 v -24.0542 L 141.1849,1596.3151 c 126.61586,-126.6182 141.39089,-141.0773 143.18106,-140.1192 1.09788,0.5875 9.0865,3.3875 17.7525,6.2222 l 15.75635,5.1539 L 158.9374,1626.5916 1.4965983e-7,1785.6111 Z M 1937.6599,1495.9277 c -0.363,-8.3851 -0.6599,-18.4382 -0.6599,-22.3401 v -7.0944 L 1992.5,1411 2048,1355.5068 v 23 23 l -54.8401,54.8333 -54.8401,54.8334 z M 1.4965985e-7,1485.6149 v -24.1201 L 72.409794,1389.0902 l 72.409796,-72.4046 4.06801,8.0908 c 2.23741,4.45 6.03826,11.4235 8.44635,15.4966 l 4.37833,7.4056 -80.856136,81.0282 L 1.4965983e-7,1509.735 Z M 650.05452,1406 c 1.7609,-3.025 8.16318,-14.0281 14.22729,-24.4514 27.02336,-46.4489 43.38665,-68.8817 70.7016,-96.9262 26.2506,-26.9517 55.60451,-49.992 89.01659,-69.8702 10.93632,-6.5065 28.13908,-15.3706 34.40322,-17.7271 3.74392,-1.4084 -36.28277,39.5234 -135.41305,138.4749 -60.01552,59.9073 -75.45935,74.8354 -72.93565,70.5 z m 1270.99958,-179.1524 -2.3118,-21.0879 64.6288,-64.6289 64.6289,-64.6289 -0.094,23.9991 -0.094,23.999 -62.2234,61.7178 -62.2234,61.7177 z M 1.4965985e-7,1210.5648 v -22.0702 L 68.930734,1119.5693 l 68.930736,-68.9253 -5.04421,14.428 c -2.77432,7.9354 -6.93754,21.9819 -9.25161,31.2144 l -4.20739,16.7863 -59.679126,59.7812 L 1.4965983e-7,1232.6351 Z M 1878.4848,1002.3942 c -0.9102,-3.24182 -3.1722,-11.0692 -5.0267,-17.3942 l -3.3717,-11.5 88.9697,-89 88.9698,-89 -0.263,23 -0.2629,23 -83.6801,83.39418 -83.6802,83.39422 z M 1.4965985e-7,931.99798 V 910.49806 L 193.08221,717.49903 386.16441,524.5 l -5.95301,12 c -7.31074,14.73688 -13.84929,31.08845 -18.89074,47.24188 L 357.5,595.98375 178.75,774.74083 1.4965985e-7,953.49791 Z M 1799.214,789.71031 1791.9281,774.57289 1919.9769,646.53645 2048.0257,518.5 l -0.2628,23 -0.2629,23 L 1927,684.67387 1806.5,804.84773 Z M 0.23650915,655.41107 0.50000015,633.32213 214.5,418.72313 l 214,-214.599 -0.28482,22.72364 -0.28483,22.72363 L 213.95168,463.5357 -0.02698285,677.5 Z M 1698,615.73636 c -4.675,-6.73 -8.6201,-12.68636 -8.7669,-13.23636 -0.1469,-0.55 80.5156,-81.77453 179.25,-180.49896 L 2048,242.50209 v 22.5575 22.55751 l -170.0243,169.94145 c -93.5134,93.4678 -170.3509,170.04781 -170.75,170.17781 -0.3991,0.13 -4.5507,-5.27 -9.2257,-12 z M 1571.7695,471.31754 c -3.4789,-3.19965 -8.2848,-7.55765 -10.6797,-9.68444 l -4.3544,-3.86691 L 1785.6169,228.8831 2014.4984,0 h 6.1784 C 2034.0273,0 2048,3.1517614 2048,6.1631675 2048,7.173982 1580.5887,476.07793 1578.8439,476.81754 c -0.412,0.17465 -3.5955,-2.30035 -7.0744,-5.5 z M 1.4965985e-7,377.98158 V 355.49789 L 177.77041,177.72958 355.54083,-0.03872446 378.02041,0.23063777 400.5,0.5 200.25,200.48264 1.4965985e-7,400.46527 Z M 1419.4745,362.11005 c -0.536,-0.51641 -7.2103,-4.19148 -14.8318,-8.16683 l -13.8573,-7.22791 173.377,-173.37702 173.377,-173.37701798 22.7324,0.26936399 L 1783.0042,0.5 1601.7266,181.77448 C 1486.3565,297.14263 1420.0947,362.7076 1419.4745,362.11005 Z m -213.783,-82.66059 c -9.7947,-2.32827 -17.9888,-4.41343 -18.2091,-4.63369 -0.2202,-0.22026 61.353,-62.15262 136.8293,-137.62748 L 1461.5414,-0.03872288 1484.2731,0.23063856 1507.0048,0.5 1365.2524,142.09134 1223.5,283.68268 Z M 744.91913,203.16753 c -1.33052,-1.03751 -6.98838,-5.01925 -12.57302,-8.84831 L 722.19222,187.3573 815.7933,93.678648 909.39439,0 h 22.19228 22.1923 L 851.33389,102.25 c -56.34483,56.2375 -102.794,102.37463 -103.22039,102.52696 -0.42638,0.15232 -1.86385,-0.57192 -3.19437,-1.60943 z M 1044,176.87433 c -2.475,-2.22221 -7.7779,-6.54418 -11.7843,-9.60436 -4.0064,-3.06019 -7.1564,-5.93796 -7,-6.39506 0.1564,-0.45709 36.2612,-36.84094 80.233,-80.852994 L 1185.3975,0 h 22.5492 22.5492 L 1140,90.5 c -49.7727,49.775 -90.7218,90.48081 -90.9979,90.45736 -0.2762,-0.0234 -2.5271,-1.86081 -5.0021,-4.08303 z M 0.00355215,101.99698 0.00710315,79.5 39.745324,39.731844 79.483544,-0.03631108 101.74588,0.23184446 124.00821,0.5 62.004104,62.496976 1.4965985e-7,124.49395 Z M 560,103.38401 c -4.675,-1.30518 -12.40704,-2.94079 -17.18231,-3.634677 L 534.13538,98.487711 583.18266,49.243855 632.22995,0 h 22.63149 22.63148 L 624.5,53 c -29.14611,29.15 -53.66952,52.94534 -54.49646,52.87853 -0.82695,-0.0668 -5.32854,-1.18934 -10.00354,-2.49452 z"
       id="path1" />
  </g>
</svg>
