<?xml version="1.0" encoding="UTF-8" standalone="no"?>
<!-- Created with Inkscape (http://www.inkscape.org/) -->

<svg
   version="1.1"
   id="svg1"
   width="2048"
   height="2048"
   viewBox="0 0 2048 2048"
   xmlns="http://www.w3.org/2000/svg"
   xmlns:svg="http://www.w3.org/2000/svg">
  <defs
     id="defs1" />
  <g
     id="g1">
    <path
       style="fill:#000000"
       d="m 7.093175,2044.425 c -3.770885,-3.173 -5.879674,-9.7992 -6.75890997,-21.2378 l -0.643832,-8.376 L 228.73721,1785.6556 457.784,1556.5 l 7.103,-27.2696 7.103,-27.2696 -14.02903,-79.1811 c -7.71597,-43.5496 -14.26182,-79.4139 -14.54634,-79.6984 -0.28452,-0.2845 -100.16921,99.1614 -221.96597,220.9908 L 3.4013624e-8,1785.5803 v -24.041 -24.0411 L 212.5,1525 C 329.375,1408.126 425,1312.2098 425,1311.853 c 0,-0.3569 -15.52085,-27.4469 -34.49078,-60.2 l -34.49079,-59.5512 -2.22053,-16.5509 c -1.22129,-9.103 -2.47566,-16.5509 -2.78749,-16.5509 -0.31183,0 -79.41673,78.888 -175.78868,175.3067 L 3.4013624e-8,1509.6133 v -24.0556 -24.0555 L 172.85196,1288.5011 345.70391,1115.5 331.97899,1015.7104 c -7.54871,-54.88433 -13.91637,-99.98112 -14.15037,-100.21511 -0.23399,-0.23399 -71.84115,71.00805 -159.12703,158.31561 L 3.4013624e-8,1232.552 v -21.9625 -21.9626 L 156.37596,1032.0541 312.75191,875.48128 l -1.30552,-9.49064 c -0.71803,-5.21985 -7.06518,-51.68709 -14.10476,-103.26053 L 284.5424,668.96023 142.2712,811.2288 3.4013624e-8,953.49737 V 932.00002 910.50267 L 139.66793,770.83206 l 139.66793,-139.6706 -4.1416,-30.30705 c -2.27789,-16.66888 -3.81596,-30.58979 -3.41794,-30.93536 0.39803,-0.34556 9.94868,-4.36839 21.22368,-8.93961 11.275,-4.57122 21.94279,-8.90944 23.70619,-9.64049 l 3.20619,-1.32918 7.19194,12.02765 c 3.95557,6.6152 7.5357,12.2401 7.95586,12.49977 0.76031,0.4699 162.11313,-161.55712 162.73112,-163.41108 0.17832,-0.53497 -1.85251,-3.67397 -4.51295,-6.97555 -18.46461,-22.91437 -28.44216,-55.48402 -26.99105,-88.10678 1.50162,-33.75845 13.40678,-62.31915 36.15996,-86.7484 20.58283,-22.09903 43.68593,-35.43413 71.81907,-41.45392 12.48447,-2.67136 40.52984,-3.19383 52.73367,-0.9824 19.27882,3.49348 39.67464,12.44781 55.48602,24.3599 L 691.5,218.00998 800.45454,109.00499 909.40909,0 h 22.1639 22.164 l -120.53322,120.35926 -120.5332,120.35927 5.7415,9.05685 c 24.66642,38.90972 27.41135,90.12434 7.06975,131.90666 -17.98425,36.94023 -54.02298,65.21492 -93.48182,73.34246 -35.21953,7.25434 -72.82396,0.9128 -101.27735,-17.07922 l -9.22265,-5.83179 -85.21163,85.15269 -85.21162,85.15269 2.71162,4.64711 c 22.36721,38.33227 83.85346,141.85185 84.27489,141.88702 0.30979,0.0258 36.57775,-36.0655 80.59547,-80.203 l 80.03221,-80.25 0.66771,-62.42985 c 0.36724,-34.33641 0.83424,-62.59638 1.03778,-62.79992 0.88663,-0.88662 68.12369,-12.13809 68.66336,-11.49014 0.32978,0.39595 4.12043,10.16991 8.42365,21.71991 4.30322,11.55 8.32886,22.01045 8.94585,23.24544 1.05398,2.10964 7.22088,-3.85737 101.97771,-98.6722 95.15313,-95.21136 100.82028,-101.07752 100.22591,-103.74543 -0.3465,-1.5553 -0.91365,-9.35281 -1.26034,-17.32781 -1.75136,-40.2872 11.36322,-73.84102 40.07912,-102.54292 20.0618,-20.05204 42.0965,-31.87766 69.0483,-37.05706 9.71981,-1.86787 33.99841,-2.47858 45.52561,-1.14516 l 6.5256,0.75486 L 1116.966,68.504862 1185.3807,0 h 22.5571 22.5571 l -73.9974,74.10805 c -40.6986,40.75943 -73.4541,74.31558 -72.7898,74.56922 0.6642,0.25365 5.0434,2.86932 9.7315,5.81261 33.7962,21.21795 56.5358,53.12839 64.1416,90.01012 3.1004,15.03428 2.4681,45.63258 -1.2193,59 -0.3034,1.1 68.2292,-66.7375 152.2946,-150.75 L 1461.5024,0 h 22.998 22.9979 L 1286.2492,221.25084 C 1151.7682,355.73287 1065,443.22543 1065,444.34716 c 0,1.55629 33.9372,182.4173 35.5744,189.58617 0.4951,2.16777 13.2461,-10.25672 116.8378,-113.84554 l 116.2821,-116.27886 -4.4598,-6.65072 c -9.2754,-13.83196 -15.4634,-28.5924 -19.3851,-46.23943 -3.0332,-13.64894 -3.3193,-41.48851 -0.5662,-55.101 5.1235,-25.33337 16.5825,-47.64571 34.1641,-66.5224 20.5828,-22.09903 43.6859,-35.43413 71.819,-41.45392 12.4845,-2.67136 40.5299,-3.19383 52.7337,-0.9824 17.1682,3.11102 36.2476,10.92001 50.4691,20.65639 l 6.8335,4.67842 L 1631.4031,106.09694 1737.5035,0 h 22.9967 22.9966 l -117.3252,117.3284 -117.3252,117.32841 6.0778,8.42159 c 3.3428,4.63188 8.3121,12.9216 11.0428,18.4216 9.0172,18.1618 12.8118,33.50496 13.7259,55.5 1.3169,31.68355 -7.6956,61.31535 -26.0663,85.70267 -20.4226,27.11114 -48.7296,45.52058 -80.6266,52.43531 -13.7099,2.97209 -42.5395,3.25195 -56.1822,0.54539 -18.8735,-3.7443 -37.5095,-11.76691 -52.546,-22.62061 l -8.2281,-5.93928 -123.2719,123.95041 c -67.7995,68.17273 -123.4108,124.586 -123.5806,125.36282 -0.3013,1.37796 34.2122,185.84814 35.6071,190.31563 0.6244,1.99972 7.3921,-4.44949 60.3394,-57.5 L 1264.7738,749.5 1320.5364,601 c 30.6694,-81.675 56.0418,-148.82396 56.383,-149.21991 0.5296,-0.61458 67.7779,10.57857 68.6111,11.41999 0.1633,0.16496 0.6276,23.63285 1.0316,52.15087 l 0.7347,51.85095 L 1730.899,283.60095 2014.5013,0 h 6.177 C 2034.2639,0 2048,3.1545142 2048,6.2744665 2048,6.947175 1978.8316,76.667099 1894.2924,161.20763 l -153.7077,153.71006 9.4577,-4.94326 c 19.8239,-10.36147 37.4994,-14.40598 62.9576,-14.40598 29.8984,0 51.0406,6.12468 74.5,21.58183 9.7406,6.418 32.4442,28.81913 38.0343,37.52763 l 3.9657,6.17791 59.25,-59.17476 59.25,-59.17476 v 22.67459 22.67458 l -52.073,51.82227 -52.073,51.82226 2.1603,10.5 c 4.4803,21.77603 3.5491,47.42277 -2.4871,68.5 -11.7259,40.94439 -47.2129,77.64527 -87.9285,90.93619 -22.4689,7.33459 -52.1977,8.4734 -75.4594,2.89059 l -7.1289,-1.71095 -3.0332,2.906 -3.0332,2.906 3.6052,1.84957 c 3.3773,1.73269 3.5679,2.08251 3.0165,5.53608 -0.3238,2.02759 -7.7808,58.13652 -16.5711,124.68652 -8.7903,66.55 -16.1594,122.07376 -16.3758,123.38614 -0.2638,1.59933 50.3495,-48.35604 153.4938,-151.49879 L 2048,518.50244 v 22.57296 22.57296 L 1890.6044,721.07418 1733.2089,878.5 l -17.1432,130 c -9.4288,71.5 -17.3978,131.575 -17.709,133.5 -0.5005,3.0953 19.6801,-16.7338 174.5387,-171.49893 L 2048,795.50214 v 22.53772 22.53771 l -182.5397,182.46123 -182.5397,182.4612 -40.4447,68.7112 -40.4448,68.7112 -14.0317,80.0811 -14.0318,80.0811 4.067,15.2077 c 2.2369,8.3642 4.5482,16.7283 5.1364,18.5868 l 1.0693,3.379 231.8798,-231.8782 L 2048,1076.5016 v 23.5638 23.5638 l -227.0385,226.9429 -227.0385,226.943 22.4777,83.9809 c 21.2583,79.4247 22.3863,84.0819 20.7922,85.8434 -2.9324,3.2402 -19.2427,13.6675 -29.1507,18.6362 -36.9166,18.5131 -95.2335,34.8826 -174.5422,48.9938 -21.341,3.7972 -70.0015,11.0875 -84.1157,12.6022 l -6.1157,0.6563 L 1233.886,1937.614 1124.5034,2047 h -23.6446 -23.6446 l 106.3853,-106.1743 c 58.5119,-58.3959 106.2762,-106.2787 106.1429,-106.4063 -0.1333,-0.1276 -4.0674,0.1534 -8.7424,0.6243 -51.6374,5.2023 -129.6089,9.2189 -204.5,10.5346 l -36,0.6325 L 939.99819,1946.6054 839.49631,2047 h -22.5675 -22.5675 l 100.29503,-100.191 c 55.16225,-55.105 100.19345,-100.2816 100.06935,-100.3925 -0.1241,-0.1108 -13.2757,-0.4947 -29.2257,-0.8532 -15.95,-0.3584 -40.925,-1.0842 -55.5,-1.6129 -42.60101,-1.5451 -57.2014,-2.4076 -126.99999,-7.5019 l -8.5,-0.6204 L 669.00178,1941.414 563.50355,2047 H 540.89356 518.28357 L 625.64179,1939.8027 C 684.6888,1880.8441 733,1832.3023 733,1831.9319 c 0,-0.3704 -3.2625,-0.9863 -7.25,-1.3686 -44.61685,-4.2779 -123.23814,-17.2624 -170.69571,-28.191 l -19.4457,-4.4779 L 411.0528,1922.4472 286.49701,2047 h -22.57464 -22.57464 l 129.31998,-129.2062 c 71.12599,-71.0633 128.98525,-129.4922 128.57613,-129.8418 -0.40911,-0.3496 -7.04384,-2.7874 -14.74384,-5.4174 -31.72825,-10.8366 -58.79672,-24.8064 -71.76291,-37.036 l -3.76292,-3.5492 16.0475,-61.2247 c 8.82613,-33.6736 16.2098,-61.6747 16.40817,-62.2247 0.41962,-1.1634 -418.321265,417.9095 -423.913885,424.25 -4.34426,4.9252 -6.20473,5.2242 -10.42278,1.675 z M 1143.5,1778.023 c 181.1254,-7.5839 303.3241,-26.6356 399.75,-62.3239 7.5625,-2.799 13.75,-5.3527 13.75,-5.6749 0,-0.3223 -6.6375,-3.1193 -14.75,-6.2156 -92.8169,-35.4254 -211.8074,-57.4064 -358.75,-66.2715 -86.8293,-5.2384 -203.85941,-5.8467 -289.5,-1.5046 -164.71717,8.3512 -296.24685,31.8109 -387.06867,69.0379 -6.83723,2.8025 -13.21883,5.3356 -14.18133,5.6292 -0.9625,0.2935 -1.75,0.8623 -1.75,1.2641 0,1.7227 42.42677,14.9073 70.5,21.9087 102.70047,25.6133 237.02937,40.9976 397.49999,45.5247 23.3512,0.6587 160.31141,-0.3613 184.50001,-1.3741 z M 532.87951,1612.4684 c 96.49842,-26.0976 214.10603,-41.0219 375.62048,-47.6658 39.8865,-1.6408 193.48211,-1.641 232.50001,-3e-4 134.1576,5.6411 225.1009,15.2632 314,33.2223 18.4455,3.7263 71.7005,16.6459 76.3654,18.5261 1.5139,0.6102 1.7559,0.3936 1.2843,-1.1494 -0.3196,-1.0457 -6.9059,-25.8685 -14.6362,-55.1618 l -14.0551,-53.2604 5.9792,-42.6979 c 3.2885,-23.4838 5.7926,-42.8843 5.5646,-43.1124 -0.7309,-0.7308 -24.3252,-6.004 -47.5022,-10.6165 -114.5935,-22.8053 -239.4325,-33.5388 -409.5,-35.2083 -180.30387,-1.77 -338.00047,9.3587 -462,32.6036 -19.75105,3.7025 -62.87076,13.0455 -64.30854,13.9341 -0.71638,0.4427 0.86805,14.1034 4.90738,42.3106 l 5.96534,41.6569 -14.55935,54.3254 c -8.00765,29.879 -14.82401,55.181 -15.14749,56.2267 -0.46388,1.4995 -0.21948,1.7598 1.15677,1.2317 0.9597,-0.3683 9.22413,-2.6924 18.3654,-5.1646 z M 537,1341.0075 c 82.82706,-20.3495 196.61341,-34.927 320,-40.996 97.07319,-4.7747 223.1519,-5.1663 317.5,-0.9862 135.8569,6.0192 255.5205,21.2364 345.1828,43.8956 6.4962,1.6417 12.1087,2.6686 12.4721,2.282 0.3635,-0.3866 18.5212,-34.9029 40.3506,-76.7029 21.8294,-41.8 42.3634,-81.0386 45.631,-87.1969 l 5.9411,-11.1969 -10.2888,3.4873 c -33.1402,11.2326 -66.447,16.2367 -100.2888,15.0679 -59.211,-2.0451 -108.9533,-19.9877 -152.5,-55.0085 -11.3239,-9.1068 -32.479,-30.7644 -42.3443,-43.35 l -8.7768,-11.1972 -6.1895,5.0247 c -47.6319,38.6686 -109.0499,53.8412 -169.069,41.7665 -41.068,-8.2621 -78.3441,-31.3261 -107.293,-66.3859 l -4.1194,-4.989 -11.854,11.5017 c -38.47271,37.3294 -80.85711,55.655 -133.354,57.6581 -17.21682,0.6569 -33.89644,-0.6197 -49.5,-3.7884 -28.50866,-5.7896 -61.0126,-20.843 -84.20069,-38.9955 l -6.20068,-4.8541 -7.41438,8.7281 c -11.15514,13.1317 -33.77052,34.6388 -46.69804,44.4095 -15.71012,11.8739 -26.82745,18.7112 -44.48621,27.3599 -33.38918,16.3528 -67.9353,24.7012 -108,26.0992 -34.52056,1.2045 -66.3503,-3.4572 -98.91844,-14.4874 l -11.59598,-3.9273 4.91083,9.1371 c 2.70096,5.0254 22.09758,41.7621 43.10359,81.6371 51.37932,97.5316 47.87857,91.1699 49.83935,90.5697 0.91336,-0.2796 9.08565,-2.3326 18.16065,-4.5622 z m 1005.7894,-223.0744 c 19.9873,-2.1959 40.9458,-8.0557 59.0177,-16.5007 10.2956,-4.8112 27.8137,-15.0419 32.987,-19.2647 l 3.2681,-2.6677 27.3597,-172 c 15.0479,-94.6 27.2746,-172.09682 27.1704,-172.21517 -0.2648,-0.30093 -218.6689,374.00097 -218.9022,375.15567 -0.3526,1.7445 20.0904,6.5892 33.3099,7.894 8.1018,0.7996 26.7627,0.5904 35.7894,-0.4014 z M 550.5,1110.5591 c 13.56005,-2.4268 19.71186,-4.374 18.77929,-5.9439 -0.42861,-0.7216 -48.68005,-83.7169 -107.22541,-184.43413 C 403.50851,819.46388 355.52176,737.15816 355.41665,737.27946 c -0.1051,0.1213 12.11384,75.59137 27.15322,167.71128 l 27.34432,167.49076 3.2929,2.7177 c 4.96643,4.0988 27.27711,17.2238 36.15689,21.2705 16.25525,7.4077 37.09051,13.5133 52.86582,15.4919 10.31647,1.2939 37.63928,0.5 48.2702,-1.4025 z m 835.2542,-392.44631 -0.2542,-114.7269 -82.1545,225.55706 c -45.185,124.05638 -82.0162,225.70075 -81.8472,225.87645 0.1689,0.1757 3.7442,-1.1114 7.9449,-2.8601 10.0508,-4.1842 20.7511,-11.3519 27.5568,-18.4593 3.025,-3.1591 8.8163,-7.9364 12.8695,-10.6161 22.8189,-15.0868 55.8599,-14.2385 79.5222,2.0416 6.333,4.3572 15.9192,14.2278 21.2955,21.9274 2.5528,3.6559 6.93,9.0252 9.7271,11.9317 l 5.0857,5.2847 0.2542,-115.61481 c 0.1398,-63.58814 0.1398,-167.2419 0,-230.3417 z M 672.18528,1043 c 9.84153,-17.481 23.93169,-28.5706 42.81472,-33.6972 8.06594,-2.1899 29.82158,-2.4534 38,-0.4604 3.025,0.7372 10.10618,3.5541 15.73595,6.2599 8.75216,4.2064 11.65133,6.2764 20,14.2802 9.52195,9.1286 17.11625,13.9384 31.47113,19.9318 l 3.70708,1.5478 -3.33357,-9.1811 C 815.44554,1027.5385 675.73481,645.14585 667.42888,622.5 l -7.33551,-20 -0.0467,227.45821 -0.0467,227.45819 4.54443,-4.4582 c 2.49944,-2.452 5.93782,-6.9332 7.64085,-9.9582 z M 1066.7128,802.21649 C 1043.5097,668.44742 1024.2869,559 1023.9955,559 c -0.2914,0 -2.443,10.9125 -4.7814,24.25 -32.15571,183.4117 -79.34101,451.9271 -79.82381,454.25 l -0.6236,3 2.3667,-2.133 c 1.3016,-1.1732 3.786,-2.8499 5.5208,-3.7262 3.6267,-1.8317 5.511,-4.1032 12.4561,-15.0151 15.9448,-25.05238 39.0834,-36.90557 68.88971,-35.29014 27.8079,1.50712 45.6889,12.81602 57.0536,36.08374 4.2945,8.7925 6.1118,11.3793 10.8047,15.3796 6.7847,5.7835 12.4954,10.1807 12.8114,9.8648 0.1269,-0.1269 -18.7537,-109.67814 -41.9569,-243.44721 z M 594.86803,936.01014 595,913.52027 576.5,932 c -10.175,10.16385 -18.5,18.86202 -18.5,19.32928 0,0.46725 7.9875,14.3486 17.75,30.84745 l 17.75,29.99787 0.61803,-26.83728 c 0.33992,-14.76053 0.67742,-36.95776 0.75,-49.32718 z M 1541.4703,862 c 47.7221,-80.575 89.4472,-151 92.7225,-156.5 l 5.9549,-10 -94.5738,94.49802 L 1451,884.49603 v 30.00199 c 0,53.51882 1.1623,97.71878 2.5114,95.74368 0.6544,-0.9579 40.2351,-67.6667 87.9573,-148.2417 z m -653.02388,80.5582 c 5.77682,-30.76799 10.38162,-56.06349 10.23288,-56.21223 -0.14873,-0.14873 -10.969,10.43513 -24.04504,23.51969 l -23.77463,23.79011 12.82019,34.11392 c 8.60964,22.90986 13.05716,33.55831 13.54174,32.42211 0.39685,-0.93049 5.44804,-26.86561 11.22486,-57.6336 z m 316.16008,-33.52207 c 18.3145,-48.65513 33.1881,-88.57486 33.0525,-88.71051 -0.1357,-0.13565 -19.4836,18.99419 -42.9954,42.51075 l -42.7487,42.7574 8.5862,45.45311 c 9.2408,48.91822 9.5354,50.28852 10.3093,47.95312 0.2734,-0.825 15.4816,-41.30874 33.7961,-89.96387 z M 568.14716,893.25 l 27.63376,-27.75 0.61344,-69 c 0.3374,-37.95 0.88542,-90.15 1.21783,-116 l 0.60439,-47 -71.60829,71.49738 C 487.22373,744.32094 455,776.85761 455,777.30109 c 0,1.08108 84.36027,143.67822 85.0067,143.68982 0.27868,0.005 12.94189,-12.47841 28.14046,-27.74091 z M 936.55559,687.04488 c 14.5548,-77.19764 26.3273,-140.49529 26.1612,-140.66144 -0.1662,-0.16616 -42.4058,41.8671 -93.86587,93.40723 L 775.28718,733.5 l 30.62496,81 c 16.84373,44.55 30.97489,81.87845 31.40258,82.95211 0.6632,1.66485 6.07498,-3.34526 36.77761,-34.04789 l 35.99996,-35.99998 z M 1583.1077,707.31349 1706.7153,583.5 l 10.1738,-17.25092 10.1738,-17.25091 4.8065,2.43566 4.8066,2.43566 2.622,-2.62208 2.6221,-2.62209 -6.21,-4.19157 C 1712.4469,528.73194 1691.3991,501.3361 1683.1335,476 c -8.3432,-25.57437 -9.2835,-54.72975 -2.5968,-80.52371 2.7228,-10.50347 7.8871,-23.1934 12.4694,-30.64058 2.2251,-3.61635 -35.1751,33.24708 -120.9505,119.21456 L 1447.8839,608.5 l 0.5607,70 c 0.3084,38.5 0.8549,90.34553 1.2144,115.21228 l 0.6535,45.21228 4.5938,-3.89879 c 2.5265,-2.14434 60.2171,-59.61487 128.2014,-127.71228 z M 981.59819,448.3833 c 4.0513,-21.38582 7.374,-38.9958 7.3839,-39.1333 0.01,-0.1375 14.33951,-0.25 31.84361,-0.25 h 31.8257 l 2.4243,-2.66013 c 1.8159,-1.99251 1.9884,-2.50361 0.6876,-2.03647 -0.9552,0.34301 -6.8052,1.37374 -13,2.29052 -21.2565,3.14577 -48.65131,0.37208 -67.77641,-6.86227 -28.7278,-10.86675 -53.6764,-32.17691 -70.04505,-59.82991 L 899.58999,330.8604 800.045,431.06897 c -54.74975,55.11471 -99.6884,100.57631 -99.86366,101.02577 -0.17526,0.44947 13.765,38.1965 30.97835,83.8823 L 762.4567,699.04213 868.34446,593.15436 974.23219,487.2666 Z m 854.31361,47.15034 c 15.462,-3.82442 29.4169,-14.35445 35.3241,-26.6547 5.519,-11.49196 7.1708,-19.92995 7.2195,-36.87894 0.052,-18.02682 -1.6223,-27.0671 -7.0049,-37.82636 -4.0552,-8.10583 -13.4371,-17.61296 -21.326,-21.61054 -10.4714,-5.30628 -18.9796,-6.90088 -37.1245,-6.9579 -14.2717,-0.0448 -17.5743,0.25559 -24.4549,2.22464 -22.0775,6.31795 -34.8211,19.2295 -40.2403,40.77061 -2.7217,10.8187 -2.4531,36.38171 0.4907,46.69873 6.9708,24.43037 22.2558,37.54817 48.6811,41.77868 7.5711,1.2121 31.116,0.26613 38.4352,-1.54422 z M 627.15411,385.15154 c 10.67379,-2.81786 17.26042,-6.42312 24.58579,-13.4573 12.25085,-11.76387 16.7879,-25.52364 16.71555,-50.69424 -0.0373,-12.98596 -0.4109,-16.79026 -2.30317,-23.45493 -6.25791,-22.04072 -19.25407,-34.86797 -40.75273,-40.2231 -9.89397,-2.46451 -34.15386,-2.46611 -44.65313,-0.003 -22.21771,5.21232 -35.92315,18.44754 -41.97769,40.53746 -2.83003,10.32536 -3.08709,36.11599 -0.4639,46.54308 3.66234,14.55766 11.60663,26.37019 22.36174,33.25015 5.90407,3.77679 17.75731,8.01112 26.1367,9.3368 9.38146,1.48421 31.60648,0.47353 40.35084,-1.83496 z m 840.99999,0 c 10.6738,-2.81786 17.2604,-6.42312 24.5858,-13.4573 12.2509,-11.76387 16.7879,-25.52364 16.7155,-50.69424 -0.037,-12.98596 -0.4108,-16.79026 -2.3031,-23.45493 -6.2579,-22.04072 -19.2541,-34.86797 -40.7527,-40.2231 -9.894,-2.46451 -34.1539,-2.46611 -44.6532,-0.003 -22.2177,5.21232 -35.9231,18.44754 -41.9777,40.53746 -2.83,10.32536 -3.0871,36.11599 -0.4639,46.54308 3.6624,14.55766 11.6067,26.37019 22.3618,33.25015 5.904,3.77679 17.7573,8.01112 26.1367,9.3368 9.3814,1.48421 31.6065,0.47353 40.3508,-1.83496 z m -429.5833,-49.22466 c 26.2869,-3.65618 43.0079,-18.13408 49.1164,-42.52733 1.2659,-5.05533 1.7277,-11.04263 1.7277,-22.39955 0,-24.37469 -4.2183,-37.03979 -16.3262,-49.01818 -7.2884,-7.21043 -13.6612,-10.72348 -25.7098,-14.17283 -6.7943,-1.94512 -10.1503,-2.24849 -24.3789,-2.20379 -13.5747,0.0427 -17.857,0.42522 -24.15411,2.15789 -10.7908,2.96911 -17.3197,6.56545 -24.5858,13.54267 -12.0412,11.5626 -16.7601,25.55415 -16.7601,49.69424 0,16.95174 1.7933,26.31976 7.0495,36.82636 5.6375,11.26854 17.2813,21.09238 29.8107,25.15104 11.52611,3.73366 29.80491,4.95312 44.21061,2.94948 z M 1413.4487,1987.0603 C 1446.4769,1954.0935 1602.65,1798.7101 1760.5,1641.764 l 287,-285.3567 0.2694,22.5264 0.2693,22.5264 -322.7688,322.77 L 1402.5012,2047 h -24.5519 -24.5519 z m 323.0125,-45.806 c 58.3214,-58.1601 152.2829,-151.8726 208.8035,-208.25 l 102.7646,-102.5043 -0.2646,23.5 -0.2647,23.5 -185.0142,184.75 -185.0141,184.75 h -23.5246 -23.5247 z m 205.9796,69.9957 c 19.832,-19.6625 51.696,-51.2664 70.8087,-70.2308 L 2048,1906.5383 v 22.6743 22.6742 l -49.4255,47.5566 L 1949.149,2047 h -21.3833 -21.3832 z M 3.4013624e-8,655.5004 V 633.506 L 61.603045,571.89694 123.2061,510.28788 117.73637,501.21483 C 98.756975,469.73227 93.830095,428.41635 104.61656,391.19451 114.32913,357.67849 142.1799,324.81542 174.5,308.73419 c 29.2161,-14.53681 67.14591,-17.67035 100,-8.26141 9.7985,2.80614 26.87173,10.62284 34.16994,15.64414 l 4.59387,3.16067 L 472.83847,159.63879 632.41314,0 h 22.54233 22.54233 L 507.3119,170.25 337.12599,340.5 l 3.96157,4.5 c 5.89953,6.70135 13.54203,18.47182 17.8556,27.5 8.25074,17.26858 11.88422,32.52832 12.73881,53.5 1.7175,42.14743 -14.46064,79.89888 -46.36241,108.18596 -18.10305,16.05185 -38.27136,26.05978 -63.31956,31.42046 -13.32723,2.85222 -42.08172,2.60826 -55.9869,-0.47502 -22.41117,-4.96937 -40.08162,-13.62131 -58.83042,-28.80502 L 143.86535,533.63985 71.932675,605.56732 3.4013581e-8,677.49479 Z M 259.82863,495.03618 c 21.31242,-6.06856 33.51926,-18.42721 39.40264,-39.89265 2.83003,-10.32536 3.08709,-36.11599 0.4639,-46.54308 -4.03738,-16.04844 -14.37283,-29.86039 -26.81623,-35.83632 -11.49196,-5.519 -19.92995,-7.17086 -36.87894,-7.21958 -25.1706,-0.0724 -38.93037,4.4647 -50.69424,16.71555 -10.31926,10.74644 -14.96024,23.29069 -15.9974,43.2399 -2.10104,40.41245 14.10546,64.66124 47.44527,70.98943 11.0246,2.09256 33.25644,1.34252 43.075,-1.45325 z M 3.4013624e-8,377.98158 V 355.49789 L 177.77041,177.72958 355.54083,-0.03872446 378.02041,0.23063777 400.5,0.5 200.25,200.48264 3.4013624e-8,400.46527 Z M 0.00360003,101.99698 0.00710303,79.5 39.745325,39.731844 79.483545,-0.03631108 101.74588,0.23184446 124.00821,0.5 62.004105,62.496976 3.4013624e-8,124.49395 Z"
       id="path1" />
  </g>
</svg>
