<?xml version="1.0" encoding="UTF-8" standalone="no"?>
<!-- Created with Inkscape (http://www.inkscape.org/) -->

<svg
   version="1.1"
   id="svg1"
   width="2048"
   height="2048"
   viewBox="0 0 2048 2048"
   xmlns="http://www.w3.org/2000/svg"
   xmlns:svg="http://www.w3.org/2000/svg">
  <defs
     id="defs1" />
  <g
     id="g1">
    <path
       style="fill:#000000"
       d="M 7.1543586,2044.4764 C 3.2639836,2041.2029 1.1489416,2034.4906 0.38716261,2023 l -0.563516,-8.5 L 192.4971,1822 l 192.67345,-192.5 -0.54526,5 c -0.2999,2.75 -0.82389,13.325 -1.16442,23.5 l -0.61916,18.5 -184.67086,184.9867 C 96.601881,1963.2293 12.774557,2046.615 11.887905,2046.7882 c -0.886652,0.1731 -3.0167484,-0.8672 -4.7335464,-2.3118 z m 233.9289714,2.2654 c 0.22917,-0.1421 40.30823,-40.0117 89.06459,-88.5993 l 88.64792,-88.341 4.00463,6.8569 c 2.20254,3.7712 6.07348,9.6672 8.60208,13.102 2.5286,3.4349 4.59745,6.5803 4.59745,6.9899 0,0.4096 -33.63637,34.3834 -74.7475,75.4972 L 286.505,2047 h -22.91917 c -12.60554,0 -22.73166,-0.1162 -22.5025,-0.2582 z m 327.19976,-49.7098 50.21691,-49.968 22.49625,-0.032 22.49625,-0.032 -49.9925,50 -49.9925,50 h -22.72066 -22.72066 z m 276.08486,-0.012 50.13205,-49.9798 22.49625,-0.02 22.49628,-0.02 -49.99253,50 -49.9925,50 h -22.6358 -22.63581 z m 282.85245,0.019 50.2796,-49.9603 23.4962,-0.04 23.4963,-0.04 -49.9925,50 -49.9925,50 h -23.7833 -23.7834 z m 225.883,49.7104 c 0.2401,-0.1375 22.9276,-22.5841 50.4166,-49.8813 l 49.98,-49.6314 24.9917,-0.6141 24.9918,-0.6141 -50.4881,50.4955 -50.488,50.4954 h -24.9204 c -13.7062,0 -24.7238,-0.1125 -24.4836,-0.25 z m 383.3578,-105.4957 c 58.3214,-58.1601 152.2829,-151.8726 208.8035,-208.25 l 102.7646,-102.5043 -0.2646,23.5 -0.2647,23.5 -185.0142,184.75 -185.0141,184.75 h -23.5246 -23.5247 z m 205.9796,69.9957 c 19.832,-19.6625 51.696,-51.2664 70.8087,-70.2308 L 2048,1906.5383 v 22.6743 22.6742 l -49.4255,47.5566 L 1949.149,2047 h -21.3833 -21.3832 z M 482.88272,1882.2509 C 467.16793,1841.7913 456.09876,1800.2691 450.02591,1759 c -3.42848,-23.2989 -5.05309,-43.6043 -5.6806,-71 -2.79379,-121.9698 29.61622,-233.5517 96.43252,-332 58.89288,-86.7738 134.78558,-153.8049 224.60605,-198.3801 17.28064,-8.5759 49.37331,-22.6199 51.68977,-22.6199 2.74785,0 -0.28065,-2.1059 -10.71731,-7.4523 C 736.70829,1091.8687 682.30153,1021.6915 665.60668,946 c -4.78688,-21.70283 -6.02845,-34.4719 -6.02845,-62 0,-18.8238 0.45712,-28.77265 1.74598,-38 7.35857,-52.68228 27.64503,-97.4336 62.63371,-138.16805 41.96883,-48.86087 95.94262,-80.41056 156.35237,-91.3938 22.57083,-4.10365 21.39147,-2.58421 9.6273,-12.40339 -29.70283,-24.79199 -50.63905,-55.94798 -61.33221,-91.27081 -9.45421,-31.23024 -11.11276,-69.73045 -4.4485,-103.26395 10.81731,-54.43091 48.01652,-105.39415 98.72407,-135.25279 40.25628,-23.70454 92.71145,-31.8325 142.91335,-22.14453 30.2484,5.83734 61.6382,20.89939 86.1051,41.31656 10.355,8.64104 29.3026,28.3552 36.6006,38.08136 24.5539,32.7233 37.568,70.09214 39.1793,112.4994 2.4482,64.43613 -21.1939,119.04831 -69.0491,159.5 -12.3416,10.4322 -13.4529,8.84513 9.0595,12.93815 41.7533,7.59127 79.7884,24.60842 114.1276,51.06154 14.2351,10.96591 37.8403,34.28191 49.1019,48.50031 40.916,51.65859 60.0216,110.39654 57.7354,177.5 -2.4406,71.63347 -28.8189,131.4633 -81.1546,184.0701 -21.2863,21.3966 -43.5668,37.9731 -67.7833,50.4299 -9.6192,4.9481 -12.489,7 -9.7904,7 2.1073,0 33.7683,13.7493 49.5737,21.5281 91.3967,44.982 167.9406,112.53 227.7369,200.9719 47.2163,69.8353 77.6872,148.6684 89.6738,232 4.4567,30.9834 5.5019,47.3786 5.4825,86 -0.019,38.5315 -0.9641,53.0508 -5.466,84 -5.5628,38.2427 -15.1079,76.2005 -28.667,114 l -3.9459,11 -540.1815,0.2509 -540.1816,0.2509 z M 1515.858,1813.75 c 4.4979,-14.4298 10.2038,-39.9027 13.6186,-60.7978 10.4136,-63.7212 7.9469,-132.3088 -7.0437,-195.8495 -20.9919,-88.9783 -69.2976,-173.848 -138.4127,-243.1814 -41.5561,-41.6874 -82.4229,-71.133 -135.0202,-97.2858 -19.4701,-9.681 -21.0374,-10.2769 -31.1967,-11.8612 -36.0975,-5.6292 -54.5474,-26.7915 -56.4721,-64.7743 -0.7902,-15.5936 1.094,-25.4189 7.273,-37.9251 8.9179,-18.0498 28.4453,-33.8462 54.5698,-44.1435 10.9757,-4.3262 37.38,-27.099 52.6762,-45.4314 34.7966,-41.70366 50.2561,-96.09351 43.5921,-153.36715 -5.4204,-46.58507 -27.6056,-89.67553 -63.6374,-123.6031 -30.4838,-28.70354 -67.5089,-46.99258 -106.3049,-52.51077 -23.358,-3.32235 -26.7603,-4.17661 -36.966,-9.28162 -7.727,-3.86511 -17.4165,-13.58061 -21.3852,-21.44268 -9.8854,-19.58281 -10.7601,-47.64089 -2.0667,-66.29468 5.4375,-11.66739 10.5631,-18.2421 24.6264,-31.58867 24.1234,-22.89401 36.2014,-43.56715 42.4607,-72.67766 2.931,-13.63084 3.2063,-42.62814 0.5312,-55.94348 -5.2311,-26.03822 -16.8486,-47.81637 -36.0201,-67.52327 -20.9604,-21.54572 -41.616,-33.40105 -68.6803,-39.41913 -14.7123,-3.27146 -41.5379,-3.27836 -56.73367,-0.0146 -26.6158,5.71659 -47.1702,16.98435 -66.80858,36.62387 -20.27361,20.27483 -31.91845,41.2605 -37.62699,67.80925 -2.92786,13.61661 -3.20614,42.62959 -0.53632,55.91589 6.12389,30.47549 17.01757,49.24986 44.30129,76.34967 16.3356,16.2255 17.364,17.48018 21.7216,26.5 6.2256,12.88667 8.154,22.83647 7.3577,37.96364 -1.0043,19.07923 -5.9258,32.81283 -15.4526,43.12097 -9.3322,10.09753 -20.86904,15.72678 -36.86178,17.98622 -28.18393,3.98179 -45.4195,8.4046 -63.1246,16.19836 -52.99632,23.32891 -97.75487,74.52157 -113.32778,129.61885 -11.14241,39.42205 -10.3367,84.35093 2.19725,122.52534 10.15358,30.92459 26.74932,56.73045 52.24719,81.24265 15.33193,14.7392 28.0814,24.172 39.22626,29.0218 29.8933,13.0083 48.36371,31.0471 55.58946,54.2903 2.00769,6.4582 2.32314,9.5142 2.27086,22 -0.0439,10.497 -0.55518,16.4325 -1.85183,21.5 -7.02839,27.4682 -25.94211,43.257 -57.02784,47.6056 -7.73363,1.0819 -10.72282,2.2155 -27.3707,10.3793 -51.81549,25.4094 -94.48343,55.8168 -134.71669,96.006 -77.7782,77.693 -128.59353,173.3292 -145.85764,274.5091 -12.97729,76.056 -9.02484,156.3394 10.96626,222.75 l 2.48344,8.25 h 490.89031 490.8903 z M 1652.3366,1795 c 1.2283,-5.4807 4.8457,-28.2336 6.4568,-40.6124 l 1.7066,-13.1125 193.5,-192.4583 193.5,-192.4582 0.2694,22.551 0.2693,22.551 -198.1312,198.0197 C 1720.813,1728.5021 1651.9715,1796.6289 1652.3366,1795 Z M -3.8775522e-7,1761.5295 v -24.0306 L 329.47528,1408.0247 c 208.90042,-208.8997 329.81631,-329.1174 330.40714,-328.4994 2.11575,2.2131 11.06989,20.3711 12.54756,25.4451 l 1.5931,5.4703 -36.25304,36.5297 c -19.93917,20.0913 -171.59436,171.9931 -337.01154,337.5597 L -3.8775522e-7,1785.5602 Z M 1643.469,1513.8314 c -1.5402,-6.2323 -3.7871,-14.5456 -4.993,-18.474 l -2.1926,-7.1426 205.8708,-205.8574 205.8709,-205.8574 -0.2626,24 -0.2625,24 -200.6153,200.3314 -200.6153,200.3315 z M -3.8775522e-7,1485.5384 v -24.0396 L 300.25,1161.2507 600.5,861.00256 l -0.16225,23.64595 -0.16225,23.64594 -44.3343,44.60277 C 531.45734,977.42875 396.41785,1112.7176 255.75345,1253.5391 L -3.8775525e-7,1509.5781 Z M 1551.4297,1313.6553 l -9.0702,-13.1536 252.5702,-252.1185 252.5703,-252.11847 0.2682,22.13413 0.2682,22.13414 -204.2682,203.9896 C 1731.4207,1156.7169 1621.725,1266.129 1600,1287.6606 l -39.5,39.1483 z M -3.8775522e-7,1210.6445 v -21.895 L 291.71415,896.12473 C 452.15693,735.18113 623.87297,563 673.30535,513.5 l 89.87705,-90 -0.70354,5 c -0.38695,2.75 -0.83642,13.28163 -0.99881,23.40363 l -0.29527,18.40363 -170.84409,171.09637 C 496.37645,735.50663 325.10987,907.00889 209.7483,1022.5198 L -3.8775522e-7,1232.5395 Z M 1418.2678,1171.2852 c -6.6693,-5.3819 -12.1579,-10.0105 -12.1969,-10.2858 -0.039,-0.2753 144.3849,-144.9503 320.942,-321.49998 L 2048.0258,518.5 l -0.2629,23 -0.2629,23 -308.5531,308.28518 -308.5531,308.28522 z M 0.23161761,931.87564 0.49999961,910.25127 454.5,455.37564 908.5,0.5 931.43555,0.23111362 c 12.61458,-0.1478875 22.72748,-0.1478875 22.47308,0 C 953.65423,0.37900113 738.91247,214.925 476.70468,477 L -0.03676439,953.5 Z M 1447.5003,869.32468 C 1447.0494,859.52111 1446.6398,849.7 1446.5902,847.5 l -0.09,-4 300.7672,-300.5 300.7673,-300.5 -0.2673,23 -0.2672,23 -299.59,299.32468 -299.5899,299.32469 z M 1374.468,675.35946 c -1.615,-2.1227 -5.9416,-7.27412 -9.6146,-11.44758 l -6.6783,-7.58813 328.163,-328.16187 L 2014.5011,0 h 6.1771 c 13.93,0 27.8803,3.3010466 27.134,6.4206934 -0.1717,0.7177601 -151.0837,152.3909866 -335.36,337.0516266 l -335.0478,335.7466 z M -3.8775522e-7,655.5038 V 633.5087 L 155.75734,477.50435 C 241.42388,391.70196 383.72476,249.15431 471.98153,160.7318 L 632.44837,-0.03640115 654.72582,0.23179943 677.00327,0.5 338.50164,338.99945 -3.8775522e-7,677.49889 Z M 1283.3648,497 c 1.2924,-7.88262 2.566,-21.25366 3.2024,-33.62209 l 0.6753,-13.12209 225.1489,-225.14727 225.149,-225.14727558 22.7316,0.26936279 L 1783.0037,0.5 1532.8973,250.5 C 1312.4234,470.88026 1282.859,500.08532 1283.3648,497 Z M -3.8775522e-7,377.98158 V 355.49789 L 177.77041,177.72958 355.54083,-0.03872446 378.02041,0.23063777 400.5,0.5 200.25,200.48264 -3.8775522e-7,400.46527 Z M 1223,282.23823 c 0,-0.41898 -4.7116,-5.70648 -10.4702,-11.75 L 1202.0597,259.5 1331.7784,129.75 1461.4971,0 h 23.0001 23.0001 L 1366,141.5 C 1288.1765,219.325 1224.1646,283 1223.7513,283 1223.3381,283 1223,282.6572 1223,282.23823 Z M 1089.2262,96.040881 1184.5,0.5 l 23,-0.26335455 23,-0.26335456 L 1135.502,94.986645 1040.5039,190 l -16.0019,0.0618 c -8.8011,0.034 -19.2752,0.3899 -23.2758,0.79088 l -7.27367,0.72906 z M 0.00355161,101.99698 0.00710361,79.5 39.745331,39.731844 79.483551,-0.03631108 101.74588,0.23184446 124.00821,0.5 62.004111,62.496976 -3.8775522e-7,124.49395 Z"
       id="path1" />
  </g>
</svg>
