<?xml version="1.0" encoding="UTF-8" standalone="no"?>
<!-- Created with Inkscape (http://www.inkscape.org/) -->

<svg
   version="1.1"
   id="svg1"
   width="2048"
   height="2048"
   viewBox="0 0 2048 2048"
   xmlns="http://www.w3.org/2000/svg"
   xmlns:svg="http://www.w3.org/2000/svg">
  <defs
     id="defs1" />
  <g
     id="g1">
    <path
       style="fill:#000000"
       d="m 7.093174,2044.425 c -3.77088,-3.173 -5.87967,-9.7992 -6.75890999,-21.2377 l -0.64383,-8.376 L 218.30172,1796.1556 436.913,1577.5 l 13.04055,-48.206 13.04054,-48.206 -11.65055,-66.294 c -6.40781,-36.4617 -11.93489,-66.6249 -12.28239,-67.0293 -0.34751,-0.4045 -99.27843,97.939 -219.84649,218.5411 L 4.0136055e-6,1785.5823 v -24.0403 -24.0403 L 216.01796,1521.482 l 216.01795,-216.0196 -0.96383,-5.0823 c -2.03398,-10.7252 -7.64982,-15.9092 -29.57208,-27.2984 -21.51879,-11.1796 -32.29269,-19.1348 -70.53579,-52.0817 -10.5338,-9.075 -20.05285,-17.1458 -21.15344,-17.9352 -1.89025,-1.3556 -10.5247,7.0937 -155.90592,152.5635 L 4.0136055e-6,1509.6269 v -24.0621 -24.0622 L 141.1966,1320.3034 282.3932,1179.1042 265.93675,1162.3021 c -23.14861,-23.6348 -38.60207,-43.4276 -52.83297,-67.6686 -6.71872,-11.4447 -15.76619,-29.6353 -20.62762,-41.4734 l -3.83553,-9.3399 -94.320316,94.3819 L 4.0136055e-6,1232.584 v -22.0441 -22.0441 L 88.869964,1099.63 l 88.869966,-88.8657 -1.86314,-7.1322 C 167.20846,970.4496 161.0195,917.99167 162.36974,889.14573 164.72457,838.83818 182.4594,789.66391 215.97922,740.5 c 5.52396,-8.10205 -4.94566,2.07468 -104.93555,102 l -111.07172599,111 0.26403,-21.62436 0.26403,-21.62437 L 454.5,455.37564 908.50003,0.5 931.06413,0.23202617 953.62833,-0.03594766 634.06418,319.52682 C 323.72957,629.86006 314.77438,638.91896 324,633.18193 c 40.74239,-25.33598 86.7811,-40.92427 141,-47.7413 7.55177,-0.94949 24.57367,-1.78368 43,-2.10729 32.66595,-0.57369 45.8485,0.28403 74.31119,4.83507 l 13.81119,2.20834 142.0299,-142.02991 142.0299,-142.0299 -3.1206,-4.42724 c -7.61104,-10.79786 -8.13205,-31.94944 -1.06852,-43.37847 1.20308,-1.94663 4.13463,-4.87903 6.51457,-6.51646 7.2322,-4.97593 13.4288,-5.99477 36.4601,-5.99477 h 20.5476 l 24.1852,-24.25 24.1852,-24.25 0.3071,-24.10476 0.3072,-24.10476 3.5081,-6.89524 c 5.5661,-10.94037 12.94597,-15.0348 28.99187,-16.08521 10.2899,-0.6736 19.5133,1.34347 25.6335,5.6058 l 4.1335,2.87872 67.306,-67.397277 L 1185.379,0 h 22.5583 22.5583 L 1144.7478,85.752168 1059,171.50434 v 37.20337 37.20337 l 48.75,0.29446 c 47.0353,0.2841 48.9083,0.36804 53.25,2.3863 10.7413,4.99313 15.8197,13.01779 16.7405,26.45299 l 0.5589,8.15318 L 1319.901,141.599 1461.5026,0 h 22.9979 22.9978 l -224.814,224.81575 -224.8141,224.81575 8.2378,1.77021 c 41.8646,8.99626 81.791,35.58159 109.6504,73.01167 4.0582,5.45236 9.0246,12.77523 11.0363,16.27306 l 3.6578,6.35968 L 1463.9769,273.52306 1737.5014,0 h 22.9986 22.9987 l -289.7174,289.75 -289.7174,289.75 1.8516,7 c 5.6282,21.27693 7.262,46.03064 4.6527,70.4939 -0.9089,8.52164 -1.9148,16.53869 -2.2353,17.81566 -0.5449,2.17142 -0.1539,2.05933 6.0387,-1.73099 14.2127,-8.69909 37.9838,-19.1246 81.6284,-35.80041 51.3666,-19.62626 77.3819,-28.51549 106.5,-36.39025 l 15,-4.05663 L 1716.0006,298.41564 2014.5013,0 h 6.177 C 2033.9127,0 2048,3.150565 2048,6.110374 c 0,0.5824576 -129.813,131.157916 -288.4733,290.167696 -158.6603,159.00977 -288.3135,289.26846 -288.1182,289.46374 0.1953,0.19529 5.9207,-0.37421 12.7233,-1.26555 26.2017,-3.43322 73.771,-3.46876 100.8682,-0.0753 31.7762,3.97938 56.1335,9.82557 82.844,19.88412 l 13.3439,5.02501 183.4061,-183.404 L 2048,242.50208 v 22.55738 22.55738 l -168.25,168.26308 c -150.8151,150.82687 -168.0566,168.38521 -166.3834,169.4416 14.9816,9.45886 30.1714,19.9357 38.6334,26.64645 21.199,16.81183 53.2519,51.60495 71.4259,77.53207 2.6987,3.85 5.0752,7.20587 5.2812,7.45748 0.206,0.25161 49.6312,-48.79762 109.8337,-108.99829 L 2048,518.50342 v 22.61239 22.61238 l -100.6975,100.53012 -100.6975,100.53012 8.0978,16.35578 c 12.1475,24.53561 19.6697,45.24532 24.6467,67.85579 4.5698,20.76094 5.1524,27.08274 5.1144,55.5 -0.034,25.41864 -0.7888,35.65874 -4.0913,55.5 -0.5172,3.10733 8.8533,-5.92385 83.5224,-80.49777 L 2048,795.50446 v 22.57393 22.57392 l -91.5,91.38592 c -50.325,50.26225 -91.5,91.77597 -91.5,92.25277 0,2.5247 -11.1694,30.2134 -17.5282,43.4518 -21.9362,45.6695 -46.6731,77.1434 -94.4718,120.2006 -57.543,51.835 -80.4963,69.7344 -107.6307,83.9327 -14.2016,7.431 -20.7395,12.1278 -24.5504,17.6367 -2.5802,3.7297 -3.7937,10.0764 -18.794,98.2874 l -16.0358,94.3003 5.526,20.6997 c 3.0393,11.3849 5.7627,21.3535 6.0519,22.1525 0.3475,0.9601 76.821,-74.8418 225.4794,-223.4991 L 2048,1076.5017 v 23.5657 23.5658 l -220.0963,219.9978 -220.0963,219.9978 22.0391,82.4321 22.0391,82.432 -2.1928,2.3477 c -6.1662,6.6018 -30.5956,20.5655 -49.6928,28.404 -50.4434,20.7047 -132.306,39.4918 -225.5,51.7513 l -16,2.1048 -117.0016,116.9497 L 1124.4968,2047 h -23.6325 -23.6324 l 113.8744,-113.6763 c 62.631,-62.5219 113.7663,-113.7638 113.6341,-113.8709 -0.1322,-0.1071 -9.0154,0.6224 -19.7404,1.621 -54.746,5.0974 -114.1708,8.3351 -183.5,9.9979 l -47,1.1272 L 946.99823,1939.5994 839.49654,2047 h -22.56323 -22.56323 l 107.28955,-107.1921 c 59.0093,-58.9556 107.18857,-107.2702 107.06497,-107.3658 -0.1235,-0.096 -16.19957,-0.4693 -35.72457,-0.8303 -60.4839,-1.1183 -105.42008,-3.0384 -156.93924,-6.7057 L 787.62158,1822.8817 675.55913,1934.9409 563.49668,2047 h -22.60065 -22.60066 l 113.91636,-113.75 113.91635,-113.75 -3.81404,-0.7184 c -2.09772,-0.3951 -14.16404,-1.885 -26.81404,-3.3108 -44.37358,-5.0017 -94.89601,-12.9004 -137.5,-21.4968 -13.475,-2.719 -26.07384,-5.4009 -27.99742,-5.9599 l -3.49741,-1.0164 L 416.50115,1916.9988 286.49714,2047 h -22.57091 -22.57091 l 134.50886,-134.4021 134.50886,-134.4021 -7.43652,-2.1374 c -26.23314,-7.5397 -59.71846,-20.415 -74.80941,-28.7647 -12.32329,-6.8183 -29.88282,-19.4355 -30.84916,-22.1662 -0.12212,-0.3451 4.90662,-19.5238 11.17498,-42.6192 6.26837,-23.0954 11.29557,-42.0931 11.17157,-42.2171 -0.12401,-0.124 -91.76207,91.3347 -203.64014,203.2416 C 104.10628,1955.4398 12.026024,2047 11.361564,2047 c -0.66446,0 -2.58524,-1.1588 -4.26839,-2.575 z M 1136,1762.0379 c 181.8544,-7.8559 327.0406,-30.1329 419.25,-64.3287 7.5625,-2.8045 13.75,-5.373 13.75,-5.7077 0,-0.3348 -6.4125,-2.9968 -14.25,-5.9158 -135.2874,-50.3856 -320.0698,-74.2351 -555.74997,-71.7298 -59.2357,0.6297 -84.4881,1.4311 -131.50003,4.1729 -140.68199,8.2047 -254.51454,27.75 -346,59.4088 -15.94817,5.5189 -40.5,15.3132 -40.5,16.1564 0,0.37 0.7875,0.9137 1.75,1.2081 0.9625,0.2945 8.26997,2.8512 16.23881,5.6815 105.84876,37.5951 252.28122,57.7244 454.01122,62.4103 27.6136,0.6414 159.35977,-0.3348 182.99997,-1.356 z M 518.65252,1594.5983 c 77.32837,-21.3029 178.11985,-36.7654 290.34748,-44.5427 64.28085,-4.4545 106.42493,-5.972 186.50003,-6.715 197.28227,-1.8308 362.21657,11.4561 487.49997,39.2723 19.9638,4.4325 45.4533,10.7815 55.4533,13.8124 2.7244,0.8258 5.0594,1.3954 5.1889,1.2658 0.3599,-0.3598 -29.3567,-113.7389 -29.9721,-114.3544 -1.6867,-1.6866 -63.5714,-13.3217 -100.1701,-18.8331 -106.639,-16.0588 -215.6196,-23.726 -357.5,-25.1515 -176.12751,-1.7696 -327.77907,8.5684 -457.5,31.1875 -27.70724,4.8313 -62.18772,11.8148 -63.16638,12.7934 -0.3252,0.3252 -7.51425,25.6958 -15.97566,56.3792 -8.46141,30.6833 -15.65537,56.6434 -15.98657,57.6891 -0.44908,1.4178 -0.21624,1.7531 0.91573,1.3188 0.83485,-0.3204 7.29928,-2.1752 14.3654,-4.1218 z M 544.5,1415.094 c 130.31464,-30.2146 304.43963,-44.6687 515,-42.7502 133.592,1.2173 233.5104,7.4821 330.9313,20.7491 40.05,5.4541 95.9636,15.5773 126.0644,22.8241 4.3976,1.0588 8.1304,1.7903 8.2951,1.6256 0.5856,-0.5857 25.0968,-145.9883 24.6801,-146.405 -0.9527,-0.9527 -41.5874,-10.4804 -64.4709,-15.1166 -133.9378,-27.1358 -295.9221,-39.4671 -494.49997,-37.6445 -37.95,0.3484 -70.35,0.8236 -72,1.0561 -1.65,0.2325 -12.675,0.6978 -24.5,1.0339 -116.92952,3.3243 -245.31039,17.6277 -337.50003,37.6023 -18.77058,4.067 -54.85635,12.9154 -56.29306,13.8033 -0.83435,0.5157 2.28706,20.9848 11.31042,74.1701 6.85453,40.4018 12.46726,73.6006 12.47271,73.7752 0.005,0.1746 0.79743,0.07 1.75993,-0.2322 0.9625,-0.3023 9.4,-2.3233 18.75,-4.4912 z m -86.42515,-199.6455 c 112.82754,-38.771 272.57326,-59.3983 503.67518,-65.0375 l 27.25,-0.6649 -5e-4,-3.1231 c -9e-4,-6.6518 -2.0648,-55.9915 -3.0378,-72.623 -2.1107,-36.0771 -9.1419,-70.9438 -21.6623,-107.41959 C 937.73333,889.18518 901.34773,827.18083 854.00336,778.62576 846.02651,770.44493 835.9,760.85857 831.5,757.32273 772.75752,710.11735 666.00832,667.85649 577,656.56893 513.15353,648.47225 450.73729,654.57504 402,673.67966 353.79576,692.57533 316.51539,723.44474 285.07317,770.49905 258.0933,810.87529 245,858.5789 245,916.5 c 0,70.97668 19.25608,127.7912 58.80414,173.5 12.82002,14.8171 40.11183,41.5519 56.69586,55.5388 10.40537,8.7758 88.75741,71.7744 90.07485,72.4243 0.0412,0.02 3.41616,-1.1113 7.5,-2.5146 z m 1180.78595,-31.8276 c 52.8291,-42.3493 66.7268,-54.3481 87.1428,-75.2359 26.5407,-27.154 39.9513,-45.0751 51.5481,-68.885 17.8874,-36.7259 26.5578,-82.6168 25.1281,-133 -1.5753,-55.52041 -13.9048,-98.07739 -39.5762,-136.60329 -11.9933,-17.99867 -20.2222,-28.09203 -34.5683,-42.40063 C 1687.7,686.76733 1636.3864,663.40785 1570,655.32609 c -20.0412,-2.43977 -69.0264,-2.4321 -91,0.0143 -63.4211,7.06077 -126.0574,25.40878 -186.5,54.63129 -44.2202,21.37939 -72.1577,40.5784 -98.5917,67.75347 -46.4532,47.75561 -84.4429,112.18625 -109.514,185.73615 -19.2234,56.395 -24.3079,87.448 -26.0482,159.0861 l -0.6602,27.1757 28.4071,0.6723 c 205.2452,4.8579 379.2281,26.2779 492.407,60.6231 9.35,2.8373 17.1875,5.3439 17.4167,5.5701 0.2291,0.2263 0.6165,0.4114 0.8608,0.4114 0.2443,0 19.1818,-15.0206 42.0833,-33.3791 z M 1026.3803,954.75 c 1.0028,-3.9875 4.2192,-14.675 7.1475,-23.75 2.9283,-9.075 7.6165,-23.79225 10.4183,-32.70501 2.8018,-8.91275 7.1514,-21.06275 9.6658,-27 2.5144,-5.93724 6.5138,-15.57351 8.8876,-21.41392 2.3738,-5.84041 9.5892,-21.36541 16.0343,-34.5 14.4459,-29.43969 26.1619,-54.99806 32.4754,-70.84486 11.081,-27.81292 28.9323,-77.61864 30.4786,-85.03621 3.7341,-17.91209 2.9585,-39.71926 -2.0336,-57.1788 -5.4511,-19.06505 -14.8412,-34.69267 -29.9542,-49.85167 -17.9769,-18.03165 -35.9779,-27.84509 -60.9392,-33.22157 -11.2296,-2.41876 -42.0417,-2.3495 -56.06077,0.12601 -24.2649,4.28471 -43.308,13.434 -57.5,27.62603 -19.0353,19.03527 -28.3066,44.51559 -29.6546,81.5 -0.776,21.28851 0.8152,30.38644 10.0307,57.35163 19.5999,57.35132 28.0561,77.56753 60.9226,145.64837 17.7728,36.81529 19.1224,40.45425 40.33347,108.75 3.7153,11.9625 7.0183,21.75 7.3399,21.75 0.3217,0 1.4054,-3.2625 2.4082,-7.25 z M 839.26798,674.25 c -0.55055,-3.61486 -1.37977,-4.02515 -3.34624,-1.6557 -1.1294,1.36084 -0.96646,1.86336 1.11261,3.43161 1.33967,1.01052 2.50166,1.75558 2.58218,1.6557 0.0805,-0.0999 -0.0763,-1.64411 -0.34855,-3.43161 z m -20.06164,-32 15.68289,-15.75 1.11057,-10.5 c 3.02389,-28.58987 12.01873,-55.36906 26.18339,-77.95251 31.47494,-50.18214 85.50154,-84.22201 142.66361,-89.88627 6.2826,-0.62255 9.877,-1.45645 10.9643,-2.5437 1.49,-1.49003 0.4577,-1.61752 -13.0968,-1.61752 H 988.00003 V 378.5 313 l -35.25,0.006 -35.25,0.006 -142.12185,142.78186 -142.12182,142.78186 13.12182,3.32285 c 24.5596,6.21923 43.08524,12.24214 68.12182,22.14721 35.21446,13.93168 86.80779,33.7927 88.01172,33.8804 0.55645,0.0405 8.06903,-7.0138 16.69462,-15.6763 z M 1147.5028,313.16946 c -0.2299,-0.22994 -20.0121,-0.0841 -43.9604,0.3241 L 1060,314.23574 v 28.72314 c 0,15.79772 -0.2757,35.65718 -0.6126,44.13213 l -0.6127,15.40899 44.5731,-44.45623 c 24.5152,-24.45093 44.3849,-44.64436 44.155,-44.87431 z m -159.50277,-68.7919 c 0,-1.3288 -0.2715,-1.39713 -1.5,-0.37756 -0.825,0.68469 -1.5,1.41479 -1.5,1.62244 0,0.20766 0.675,0.37756 1.5,0.37756 0.825,0 1.5,-0.7301 1.5,-1.62244 z M 1413.4487,1987.0603 C 1446.4769,1954.0935 1602.65,1798.7101 1760.5,1641.764 l 287,-285.3567 0.2694,22.5264 0.2693,22.5264 -322.7688,322.77 L 1402.5012,2047 h -24.5519 -24.5519 z m 323.0125,-45.806 c 58.3214,-58.1601 152.2829,-151.8726 208.8035,-208.25 l 102.7646,-102.5043 -0.2646,23.5 -0.2647,23.5 -185.0142,184.75 -185.0141,184.75 h -23.5246 -23.5247 z m 205.9796,69.9957 c 19.832,-19.6625 51.696,-51.2664 70.8087,-70.2308 L 2048,1906.5383 v 22.6743 22.6742 l -49.4255,47.5566 L 1949.149,2047 h -21.3833 -21.3832 z M 4.0136054e-6,655.5038 V 633.5087 L 155.75734,477.50435 C 241.42388,391.70196 383.72476,249.15431 471.98153,160.7318 L 632.44837,-0.03640115 654.72582,0.23179943 677.00327,0.5 338.50164,338.99945 4.0136054e-6,677.49889 Z m 0,-277.52222 V 355.49789 L 177.77041,177.72958 355.54083,-0.03872446 378.02041,0.23063777 400.5,0.5 200.25,200.48264 4.0136055e-6,400.46527 Z M 0.00400401,101.99698 0.00710401,79.5 39.745324,39.731844 79.483544,-0.03631108 101.74588,0.23184446 124.00821,0.5 62.004104,62.496976 4.0136054e-6,124.49395 Z"
       id="path1" />
  </g>
</svg>
