<?xml version="1.0" encoding="UTF-8" standalone="no"?>
<!-- Created with Inkscape (http://www.inkscape.org/) -->

<svg
   version="1.1"
   id="svg1"
   width="2048"
   height="2048"
   viewBox="0 0 2048 2048"
   xmlns="http://www.w3.org/2000/svg"
   xmlns:svg="http://www.w3.org/2000/svg">
  <defs
     id="defs1" />
  <g
     id="g1">
    <path
       style="fill:#000000"
       d="M 7.093174,2044.425 C 3.268534,2041.2067 1.144274,2034.42 0.38713401,2023 l -0.56355,-8.5 176.20721599,-176 c 103.48055,-103.3589 175.90544,-174.9682 175.47606,-173.5 -0.40213,1.375 -0.89335,11.9282 -1.09159,23.4515 l -0.36046,20.9516 -168.73557,168.7984 C 88.514674,1971.0407 12.036864,2047 11.368554,2047 c -0.66831,0 -2.59223,-1.1588 -4.27538,-2.575 z m 233.991626,2.325 c 0.22998,-0.1375 50.3686,-50.0709 111.41916,-110.9631 l 111.00101,-110.7132 15.49752,4.9887 c 8.52363,2.7438 16.15094,5.223 16.94958,5.5093 0.95897,0.3438 -34.35709,36.331 -103.99822,105.9745 L 286.50355,2047 h -22.91844 c -12.60514,0 -22.73028,-0.1125 -22.50031,-0.25 z m 276.99853,-0.02 c 0.22917,-0.1483 39.56888,-39.2742 87.42159,-86.9464 l 87.00491,-86.6769 19.49509,2.3822 c 10.72229,1.3102 19.71908,2.4111 19.99286,2.4464 0.27378,0.035 -37.52522,38.0892 -83.99778,84.5642 l -84.49556,84.5 h -22.91889 c -12.60538,0 -22.73138,-0.1213 -22.50222,-0.2695 z m 354.12219,-77.4805 77.88261,-77.75 6.4559,0.031 c 3.5508,0.017 13.5424,0.1296 22.2035,0.25 l 15.7476,0.2195 -77.4951,77.5 -77.49519,77.5 h -22.59098 -22.59099 z m 206.32228,75.9417 c 1.0847,-0.9946 37.7739,-37.4405 81.5314,-80.9909 l 79.5593,-79.1826 18.9407,-1.4963 c 10.4175,-0.823 21.8658,-1.7703 25.4408,-2.105 l 6.5,-0.6087 -82.9977,83.0959 L 1124.5045,2047 H 1100.53 c -23.1878,0 -23.9097,-0.059 -22.0022,-1.8083 z m 362.4366,-85.4608 C 1489.109,1911.7323 1537.725,1863.381 1549,1852.283 l 20.5,-20.1783 12,-4.1893 c 61.4281,-21.445 97.6447,-51.8957 111.4342,-93.6934 1.5827,-4.7974 3.3813,-11.8725 3.9968,-15.7225 0.6155,-3.85 1.4453,-9.025 1.844,-11.5 0.7076,-4.3923 4.8892,-8.6432 174.725,-177.623 l 174,-173.123 0.2694,22.603 0.2693,22.6031 -322.7688,322.77 L 1402.5012,2047 h -24.5362 -24.5361 z m 295.4968,-18.4766 c 58.3214,-58.1601 152.2829,-151.8726 208.8035,-208.25 l 102.7646,-102.5043 -0.2646,23.5 -0.2647,23.5 -185.0142,184.75 -185.0141,184.75 h -23.5246 -23.5247 z m 205.9796,69.9957 c 19.832,-19.6625 51.696,-51.2664 70.8087,-70.2308 L 2048,1906.5383 v 22.6743 22.6742 l -49.4255,47.5566 L 1949.149,2047 h -21.3833 -21.3832 z M 956.00003,1829.3191 C 827.25623,1826.1711 725.54176,1817.4003 626.5,1800.9066 549.79136,1788.132 487.51321,1771.9629 447,1754.3035 c -20.67755,-9.0132 -32.36036,-16.0799 -47.30545,-28.6142 l -2.80544,-2.3529 33.05023,-122.1424 33.05023,-122.1425 -16.38249,-92.7783 c -13.17229,-74.598 -16.81974,-93.5193 -18.6139,-96.5602 -2.82686,-4.7912 -11.2356,-10.7046 -26.49318,-18.6313 -21.39946,-11.1176 -31.5552,-18.6026 -70.57344,-52.0142 -48.40797,-41.4521 -72.85769,-64.9102 -90.23994,-86.5801 -40.91957,-51.0132 -65.4781,-111.4112 -74.60813,-183.4874 -4.5125,-35.62358 -4.98655,-62.11832 -1.53611,-85.85427 6.33155,-43.55551 24.69663,-86.53902 56.07645,-131.24705 19.04892,-27.13974 49.37113,-60.26002 71.37274,-77.95889 C 340.5186,614.90295 396.7392,591.99564 465,583.4468 c 17.08944,-2.14024 67.11319,-3.05744 83.69379,-1.53455 47.50789,4.36349 118.42965,20.89328 156.50634,36.47704 7.31493,2.9938 24.09987,9.56911 37.29987,14.6118 68.4946,26.16642 73.46896,28.27466 89.29565,37.84538 5.65263,3.41825 8.13166,4.48081 7.78094,3.33504 -1.77938,-5.81312 -3.76545,-21.75394 -4.25869,-34.18151 -1.22406,-30.8414 4.50536,-59.3688 17.26266,-85.95251 6.56536,-13.68094 11.46258,-21.65175 20.30422,-33.04749 46.43185,-59.84475 117.85655,-86.70777 191.27962,-71.94075 55.1194,11.08575 106.2469,52.49056 131.382,106.39764 10.4184,22.34431 16.4736,50.66293 16.4429,76.89906 -0.01,8.66101 -2.2637,33.91164 -3.5644,39.93778 l -0.603,2.79373 6.5856,-4.03082 c 17.5425,-10.73721 53.5017,-25.74845 121.5925,-50.75896 67.4913,-24.79031 127.115,-38.16409 179,-40.1502 95.4238,-3.65274 173.2727,19.28163 237,69.82045 22.1413,17.55916 53.7478,52.13603 73.2639,80.14916 31.0668,44.5931 48.8207,85.38301 56.8559,130.6275 2.6686,15.026 3.6531,48.62629 1.9619,66.95847 -4.6947,50.89083 -16.9554,97.12074 -36.6099,138.03974 -21.9362,45.6695 -46.6731,77.1434 -94.4718,120.2006 -57.543,51.835 -80.4963,69.7344 -107.6307,83.9327 -14.2016,7.431 -20.7395,12.1278 -24.5504,17.6367 -2.5801,3.7297 -3.7934,10.0747 -18.7873,98.2477 l -16.029,94.2605 32.9408,123.2367 32.9407,123.2367 -2.192,2.347 c -6.1655,6.601 -30.5959,20.5651 -49.6921,28.4032 -84.1693,34.5476 -242.6939,60.5487 -422,69.216 -62.7605,3.0338 -162.3769,4.3165 -221.99997,2.8585 z M 1136,1760.0379 c 181.8544,-7.8559 327.0406,-30.1329 419.25,-64.3287 7.5625,-2.8045 13.75,-5.373 13.75,-5.7077 0,-0.3348 -6.4125,-2.9968 -14.25,-5.9158 -135.2874,-50.3856 -320.0698,-74.2351 -555.74997,-71.7298 -59.2357,0.6297 -84.4881,1.4311 -131.50003,4.1729 -140.68199,8.2047 -254.51454,27.75 -346,59.4088 -15.94817,5.5189 -40.5,15.3132 -40.5,16.1564 0,0.37 0.7875,0.9137 1.75,1.2081 0.9625,0.2945 8.26997,2.8512 16.23881,5.6815 105.84876,37.5951 252.28122,57.7244 454.01122,62.4103 27.6136,0.6414 159.35977,-0.3348 182.99997,-1.356 z M 518.65252,1592.5983 c 77.32837,-21.3029 178.11985,-36.7654 290.34748,-44.5427 64.28085,-4.4545 106.42493,-5.972 186.50003,-6.715 197.28227,-1.8308 362.21657,11.4561 487.49997,39.2723 19.9638,4.4325 45.4533,10.7815 55.4533,13.8124 2.7244,0.8258 5.0594,1.3954 5.1889,1.2658 0.3599,-0.3598 -29.3567,-113.7389 -29.9721,-114.3544 -1.6867,-1.6866 -63.5714,-13.3217 -100.1701,-18.8331 -106.639,-16.0588 -215.6196,-23.726 -357.5,-25.1515 -176.12751,-1.7696 -327.77907,8.5684 -457.5,31.1875 -27.70724,4.8313 -62.18772,11.8148 -63.16638,12.7934 -0.3252,0.3252 -7.51425,25.6958 -15.97566,56.3792 -8.46141,30.6833 -15.65537,56.6434 -15.98657,57.6891 -0.44908,1.4178 -0.21624,1.7531 0.91573,1.3188 0.83485,-0.3204 7.29928,-2.1752 14.3654,-4.1218 z M 544.5,1413.094 c 130.31464,-30.2146 304.43963,-44.6687 515,-42.7502 133.592,1.2173 233.5104,7.4821 330.9313,20.7491 40.05,5.4541 95.9636,15.5773 126.0644,22.8241 4.3976,1.0588 8.1304,1.7903 8.2951,1.6256 0.5856,-0.5857 25.0968,-145.9883 24.6801,-146.405 -0.9527,-0.9527 -41.5874,-10.4804 -64.4709,-15.1166 -133.9378,-27.1358 -295.9221,-39.4671 -494.49997,-37.6445 -37.95,0.3484 -70.35,0.8236 -72,1.0561 -1.65,0.2325 -12.675,0.6978 -24.5,1.0339 -116.92952,3.3243 -245.31039,17.6277 -337.50003,37.6023 -18.77058,4.067 -54.85635,12.9154 -56.29306,13.8033 -0.83435,0.5157 2.28706,20.9848 11.31042,74.1701 6.85453,40.4018 12.46726,73.6006 12.47271,73.7752 0.005,0.1746 0.79743,0.07 1.75993,-0.2322 0.9625,-0.3023 9.4,-2.3233 18.75,-4.4912 z m -86.42515,-199.6455 c 112.82754,-38.771 272.57326,-59.3983 503.67518,-65.0375 l 27.25,-0.6649 -5e-4,-3.1231 c -9e-4,-6.6518 -2.0648,-55.9915 -3.0378,-72.623 -2.1107,-36.0771 -9.1419,-70.9438 -21.6623,-107.41959 C 937.73333,887.18518 901.34773,825.18083 854.00336,776.62576 846.02651,768.44493 835.9,758.85857 831.5,755.32273 772.75752,708.11735 666.00832,665.85649 577,654.56893 513.15353,646.47225 450.73729,652.57504 402,671.67966 353.79576,690.57533 316.51539,721.44474 285.07317,768.49905 258.0933,808.87529 245,856.5789 245,914.5 c 0,70.97668 19.25608,127.7912 58.80414,173.5 12.82002,14.8171 40.11183,41.5519 56.69586,55.5388 10.40537,8.7758 88.75741,71.7744 90.07485,72.4243 0.0412,0.02 3.41616,-1.1113 7.5,-2.5146 z m 1180.78595,-31.8276 c 52.8291,-42.3493 66.7268,-54.3481 87.1428,-75.2359 26.5407,-27.154 39.9513,-45.0751 51.5481,-68.885 17.8874,-36.7259 26.5578,-82.6168 25.1281,-133 -1.5753,-55.52041 -13.9048,-98.07739 -39.5762,-136.60329 -11.9933,-17.99867 -20.2222,-28.09203 -34.5683,-42.40063 C 1687.7,684.76733 1636.3864,661.40785 1570,653.32609 c -20.0412,-2.43977 -69.0264,-2.4321 -91,0.0143 -63.4211,7.06077 -126.0574,25.40878 -186.5,54.63129 -44.2202,21.37939 -72.1577,40.5784 -98.5917,67.75347 -46.4532,47.75561 -84.4429,112.18625 -109.514,185.73615 -19.2234,56.395 -24.3079,87.448 -26.0482,159.0861 l -0.6602,27.1757 28.4071,0.6723 c 205.2452,4.8579 379.2281,26.2779 492.407,60.6231 9.35,2.8373 17.1875,5.3439 17.4167,5.5701 0.2291,0.2263 0.6165,0.4114 0.8608,0.4114 0.2443,0 19.1818,-15.0206 42.0833,-33.3791 z M 1026.3803,952.75 c 1.0028,-3.9875 4.2192,-14.675 7.1475,-23.75 2.9283,-9.075 7.6165,-23.79225 10.4183,-32.70501 2.8018,-8.91275 7.1514,-21.06275 9.6658,-27 2.5144,-5.93724 6.5138,-15.57351 8.8876,-21.41392 2.3738,-5.84041 9.5892,-21.36541 16.0343,-34.5 14.4459,-29.43969 26.1619,-54.99806 32.4754,-70.84486 11.081,-27.81292 28.9323,-77.61864 30.4786,-85.03621 3.7341,-17.91209 2.9585,-39.71926 -2.0336,-57.1788 -5.4511,-19.06505 -14.8412,-34.69267 -29.9542,-49.85167 -17.9769,-18.03165 -35.9779,-27.84509 -60.9392,-33.22157 -11.2296,-2.41876 -42.0417,-2.3495 -56.06077,0.12601 -24.2649,4.28471 -43.308,13.434 -57.5,27.62603 -19.0353,19.03527 -28.3066,44.51559 -29.6546,81.5 -0.776,21.28851 0.8152,30.38644 10.0307,57.35163 19.5999,57.35132 28.0561,77.56753 60.9226,145.64837 17.7728,36.81529 19.1224,40.45425 40.33347,108.75 3.7153,11.9625 7.0183,21.75 7.3399,21.75 0.3217,0 1.4054,-3.2625 2.4082,-7.25 z M 4.0136054e-6,1761.5459 V 1737.498 L 187.45883,1550.0412 c 103.10236,-103.1013 187.66274,-187.2508 187.91195,-186.999 0.99141,1.0017 7.61272,29.7557 7.86249,34.144 L 383.5,1401.8724 191.75,1593.7331 4.0136054e-6,1785.5938 Z m 0,-275.9741 v -24.0749 L 119.87617,1341.6238 c 65.93189,-65.9301 120.31597,-119.7044 120.85351,-119.4984 0.53753,0.206 6.20179,5.3253 12.58724,11.3762 l 11.60991,11.0017 L 132.46342,1377.075 4.0136055e-6,1509.6468 Z M 1660.6333,1507.361 c -1.089,-5.4242 -2.5342,-18.8889 -3.1514,-29.361 l -0.6189,-10.5 195.5811,-195.5 195.581,-195.5 -0.2625,24 -0.2626,24 -193.1462,192.861 c -183.0464,182.7763 -193.1762,192.7115 -193.7205,190 z M 4.0136054e-6,1210.5537 v -22.0594 L 65.519404,1122.9971 c 54.293816,-54.2753 65.613346,-65.1437 66.067706,-63.4342 0.30157,1.1346 3.00725,7.8846 6.01262,15 3.00537,7.1154 5.5624,13.2449 5.68229,13.6211 0.11989,0.3763 -32.06952,33.0267 -71.532016,72.5566 L 4.0136055e-6,1232.6132 Z m 0,-278.5602 V 910.49395 L 61.951694,848.5483 l 61.951696,-61.94565 -3.92978,11.7271 c -3.58928,10.71097 -9.95089,35.11491 -11.38456,43.67257 -0.50387,3.00761 -8.21459,11.12919 -54.587896,57.49653 L 4.0136055e-6,953.49306 Z M 1942.4206,944.5 c 0.3956,-1.1 0.9815,-11.74538 1.3021,-23.6564 l 0.5829,-21.6564 51.8611,-51.8436 51.8611,-51.8436 -0.2639,23 -0.2639,23 -52.8993,52.5 c -29.0946,28.875 -52.5757,51.6 -52.1801,50.5 z m -53.8668,-227.74042 c -1.0389,-1.79277 -4.9042,-7.81982 -8.5896,-13.39344 l -6.7007,-10.13386 87.3682,-87.364 L 2048,518.50429 v 22.64466 22.64466 l -78.0585,77.8532 c -42.9321,42.81925 -78.3825,77.97 -78.7787,78.11277 -0.3961,0.14277 -1.5702,-1.20723 -2.609,-3 z M 4.0136054e-6,655.5038 V 633.5087 L 155.75734,477.50435 C 241.42388,391.70196 383.72476,249.15431 471.98153,160.7318 L 632.44837,-0.03640115 654.72582,0.23179943 677.00327,0.5 338.50164,338.99945 4.0136054e-6,677.49889 Z M 1749.6908,575.95632 c -2.6451,-1.66854 -8.8083,-5.17861 -13.696,-7.80018 L 1727.108,563.38966 1887.554,402.946 2048,242.50234 v 22.56696 22.56697 l -145.5196,145.43186 c -80.0358,79.98753 -146.0733,145.54212 -146.75,145.67687 -0.6767,0.13476 -3.3945,-1.12015 -6.0396,-2.78868 z M 407.60821,502.64941 C 431.18995,478.91724 553.75261,356.1125 679.96969,229.75 L 909.45523,0 h 22.0784 22.0784 l -264.82,264.75 c -145.65099,145.6125 -265.60119,264.88319 -266.556,265.04598 -6.77849,1.15568 -35.85176,8.85346 -45.61986,12.07885 l -11.88384,3.924 z M 666.5,541.44819 c -8.8,-2.35209 -16.22417,-4.31515 -16.49815,-4.36236 -0.27399,-0.0472 45.13032,-45.71596 100.89845,-101.48613 l 101.39661,-101.4003 2.23711,2.6503 c 1.23041,1.45767 6.33861,6.01165 11.35155,10.11997 C 870.8985,351.07799 875,354.72134 875,355.066 875,356.67188 685.63912,545.98561 684.15613,545.86236 683.24526,545.78666 675.3,543.80028 666.5,541.44819 Z M 1242.7137,517.85478 1234.1383,503.5 1485.8388,251.73064 1737.5392,-0.03872856 1760.2714,0.23063572 1783.0036,0.5 1517.1463,266.35478 1251.289,532.20955 Z M 1754.1665,260.33355 2014.4986,0 h 6.1783 c 13.9559,0 27.8778,3.3003524 27.1353,6.4327634 C 2047.6405,7.1571619 1932.525,122.94379 1792,263.73638 l -255.5,255.98653 -21.3328,0.47209 -21.3329,0.4721 z M 988.00003,376.5 V 311 h -44.7899 c -48.9529,0 -52.7591,-0.36298 -60.6002,-5.7791 -7.61858,-5.26246 -11.58619,-14.75526 -11.58619,-27.7209 0,-13.07743 3.82326,-22.2346 11.48389,-27.50523 8.2617,-5.68419 11.4042,-5.99477 60.6576,-5.99477 h 44.7451 l 0.2948,-48.353 0.2949,-48.353 3.5081,-6.897 c 2.7125,-5.33279 4.6045,-7.631 8.34267,-10.13341 6.7919,-4.54675 11.6016,-5.71426 23.6492,-5.74062 13.4859,-0.0295 19.5463,1.9281 26.0244,8.40623 8.485,8.48494 8.3826,7.75012 8.7464,62.77647 l 0.3187,48.20566 48.7052,0.29434 c 46.9901,0.28396 48.8638,0.368 53.2053,2.38617 6.7069,3.11772 10.5783,6.84924 13.6989,13.20406 2.5984,5.2913 2.8011,6.57765 2.8011,17.77481 0,11.45091 -0.1546,12.37294 -3.0104,17.95704 -3.2937,6.44034 -9.1223,11.62396 -15.2649,13.57568 -3.6636,1.16407 -45.2955,2.58443 -81.9747,2.79673 L 1060,312 v 18.33575 c 0,10.08467 -0.2984,39.33467 -0.6631,65 L 1058.6737,442 h -35.3368 -35.33687 z M 4.0136055e-6,377.98158 V 355.49789 L 177.77041,177.72958 355.54083,-0.03872446 378.02041,0.23063777 400.5,0.5 200.25,200.48264 4.0136055e-6,400.46527 Z M 1219.3628,276.74809 c -0.1098,-8.99982 -0.67,-13.03639 -2.8027,-20.19493 l -2.6654,-8.94683 L 1337.7172,123.7838 1461.5397,-0.03872725 1484.2722,0.23063637 1507.0048,0.5 1363.2524,144.24809 1219.5,287.99618 Z M 1095.4716,121.32186 c -3.2334,-4.30202 -7.7822,-9.86139 -10.1085,-12.35415 l -4.2295,-4.53229 52.1262,-52.23599 52.1263,-52.23599062 22.3109,0.26828031 L 1230.008,0.5 1165.6792,64.821861 1101.3505,129.14372 Z M 0.00355401,101.99698 0.00710401,79.5 39.745324,39.731844 79.483544,-0.03631108 101.74588,0.23184446 124.00821,0.5 62.004104,62.496976 4.0136054e-6,124.49395 Z"
       id="path1" />
  </g>
</svg>
