<?xml version="1.0" encoding="UTF-8" standalone="no"?>
<!-- Created with Inkscape (http://www.inkscape.org/) -->

<svg
   version="1.1"
   id="svg1"
   width="2048"
   height="2048"
   viewBox="0 0 2048 2048"
   xmlns="http://www.w3.org/2000/svg"
   xmlns:svg="http://www.w3.org/2000/svg">
  <defs
     id="defs1" />
  <g
     id="g1">
    <path
       style="fill:#000000"
       d="m 7.0931805,2047.2114 c -3.82457,-3.2182 -5.948829,-10.0048 -6.70623102,-21.425 l -0.563729,-8.5 116.47529952,-116.3853 116.4753,-116.3853 -4.98008,-6.1147 c -8.53817,-10.4834 -22.49571,-32.2792 -28.34436,-44.262 -8.98861,-18.4158 -16.33969,-42.9741 -20.9092,-69.8527 -2.133,-12.5466 -4.5372,-33.9177 -4.55549,-40.4939 -0.008,-3.0283 -0.37091,-6.0661 -0.80552,-6.7504 -0.53701,-0.8457 -28.40847,26.4224 -86.98469,85.1015 L 4.7619039e-7,1788.4896 v -24.0995 -24.0995 L 88.35918,1651.7885 l 88.35918,-88.5021 2.27701,-9.5 c 4.78615,-19.9684 15.63983,-47.1004 29.20244,-73 16.90003,-32.2729 38.99112,-65.8866 76.10533,-115.8016 49.20365,-66.1741 71.68171,-101.1237 93.707,-145.6984 21.31331,-43.1338 28.22042,-66.7434 29.39533,-100.4781 l 0.50424,-14.478 L 203.95486,1308.3566 4.7619034e-7,1512.3829 v -24.0474 -24.0473 L 206.98572,1257.2873 l 206.98571,-207.0009 2.94308,-10.5 c 6.12112,-21.8383 13.74176,-36.1892 41.68511,-78.50001 10.69924,-16.20038 40.68983,-52.35449 61.56502,-74.21757 l 10.7107,-11.21758 -5.95843,-17.78242 C 513.37262,823.61592 505.19821,792.20861 498.86042,757.95581 497.01219,747.96698 495.275,739.8261 495,739.86497 494.725,739.90387 383.35,851.38956 247.5,987.61102 L 0.50000048,1235.2864 0.23067748,1213.465 -0.03864452,1191.6435 244.73068,946.13843 489.5,700.63334 l -0.0253,-4.67347 c -0.0139,-2.57042 -0.65061,-13.22348 -1.41486,-23.67348 -1.48681,-20.3301 -1.87541,-74.34229 -0.63818,-88.70102 l 0.74973,-8.70102 9.16431,3.32316 c 21.40858,7.7632 58.8525,23.58539 74.29341,31.39322 l 5.44447,2.75304 153.23848,-153.53369 C 814.59322,374.37655 889.50919,299.18323 896.79198,291.72381 l 13.24141,-13.56258 -4.9242,-8.19309 c -14.08076,-23.42827 -20.1871,-58.69644 -15.5591,-89.8644 4.41145,-29.70961 16.6964,-53.66585 38.9016,-75.86027 24.9726,-24.960368 53.4547,-37.487654 89.04831,-39.166033 27.288,-1.286739 53.5958,5.117757 75.4009,18.355937 l 7.4882,4.546156 42.4642,-42.596567 42.4643,-42.5965684 h 22.5877 22.5877 l -53.179,53.2500004 -53.179,53.249995 4.4715,5 c 13.6838,15.30137 24.7045,38.06938 28.9205,59.74782 2.4979,12.84439 2.9718,33.16953 1.1016,47.25218 -5.585,42.05507 -27.1344,73.83966 -65.392,96.451 l -7.2635,4.29289 6.7475,7.62805 c 3.7111,4.19543 9.6602,10.90959 13.2201,14.92034 l 6.4726,7.29229 174.5444,-174.54229 174.5444,-174.5422754 h 22.998 22.9979 L 1320.999,189.35397 1134.5,375.92155 l 20,19.58889 c 11,10.77389 26.3,25.21853 34,32.09919 14.2045,12.69302 61.0624,52.11116 65.3311,54.95826 2.307,1.53869 4.8208,-0.93491 243.0008,-239.11336 L 1737.5016,2.7863946 h 22.9984 22.9985 L 1532.5413,253.7451 c -138.0265,138.02729 -250.7511,251.14194 -250.4993,251.36591 0.2519,0.22396 12.833,9.74903 27.958,21.16682 31.1974,23.55076 42.89,33.35425 58.269,48.85461 9.3221,9.39566 26.7313,29.94236 31.9063,37.6566 l 1.6754,2.49735 306.3252,-306.25 306.3253,-306.2499954 h 6.1771 c 13.5927,0 27.3217,3.1545838 27.3217,6.2778604 0,0.6745751 -38.7286,39.925519 -86.0636,87.22432 -47.335,47.298795 -189.0899,189.334085 -315.0109,315.633975 l -228.9473,229.63616 4.8982,10.86384 c 11.1182,24.65913 23.2986,63.24196 29.1413,92.30824 5.6195,27.95649 8.0217,58.65308 6.2864,80.33423 l -0.8626,10.77864 295.2792,-295.278 L 2048,245.28766 v 22.53299 22.533 l -299,298.94946 c -203.0678,203.0335 -298.9911,299.59658 -298.9721,300.96637 0.02,1.43059 3.6918,4.60816 12.6315,10.93064 30.0658,21.26361 60.6092,47.03142 89.8259,75.78112 L 1572.5,996.67608 1810.25,758.98202 2048,521.28797 v 22.55119 22.55119 l -227.1453,227.06832 -227.1453,227.06833 11.6763,14.2056 c 24.4096,29.6972 54.0913,71.5876 75.1452,106.0538 4.8715,7.975 9.0135,14.706 9.2044,14.9578 0.1908,0.2518 80.8785,-80.0727 179.3058,-178.49895 L 2048,798.28848 v 22.54043 22.54042 l -170.5,170.43757 c -93.775,93.7407 -170.5,170.6781 -170.5,170.972 0,0.2939 4.3061,8.4033 9.5692,18.0209 12.0508,22.0214 31.9421,62.2836 41.7691,84.5453 6.3407,14.3642 20.7302,49.228 23.0691,55.8936 0.5688,1.6209 23.261,-20.623 133.6389,-130.9986 L 2048,1079.2892 v 23.6119 23.612 l -126.6381,126.4717 -126.6381,126.4717 6.5984,19.9149 c 15.2935,46.1577 30.3302,103.9661 39.2549,150.915 0.9409,4.95 2.0296,9.6129 2.4193,10.362 0.4901,0.9423 32.1867,-29.9902 102.856,-100.3765 L 2048,1358.5334 v 22.8746 22.8746 l -98.9471,99.0019 -98.9472,99.0019 2.4171,16 c 7.6187,50.4331 12.2539,97.3087 16.0995,162.8117 l 1.7501,29.8117 88.8138,-88.8096 88.8138,-88.8096 v 23.0667 23.0666 l -87.6081,87.4313 -87.6082,87.4312 0.6201,18.5 c 0.3411,10.175 0.9087,25.5875 1.2615,34.25 l 0.6414,15.75 h -35.4063 -35.4063 l -63.4941,63.5 -63.4941,63.5 h -23.5669 -23.5669 l 63.3313,-63.25 c 34.8323,-34.7875 64.2235,-63.3938 65.314,-63.5696 1.0904,-0.1757 1.9826,-0.7382 1.9826,-1.25 0,-1.3332 -938.27749,-1.2529 -939.61088,0.081 -0.65798,0.658 -15.96761,0.9198 -43.85368,0.75 l -42.8428,-0.2609 6.27117,-7.7951 c 12.37736,-15.3853 31.59067,-36.2098 67.26866,-72.9096 86.90833,-89.3976 127.68222,-132.0294 136.09412,-142.2953 10.253,-12.5129 22.8174,-31.1932 31.1311,-46.2847 5.9278,-10.7603 13.8093,-27.2817 13.2713,-27.8196 -0.1723,-0.1723 -95.91886,95.2932 -212.77022,212.1455 l -212.45701,212.4583 h -22.54658 -22.54659 l 247.1962,-247.25 247.19621,-247.25 2.5652,-14 c 3.9607,-21.6164 5.3281,-38.6282 4.8018,-59.7377 l -0.168,-6.7377 -8.25,6.3407 c -22.37451,17.1965 -52.74471,34.7315 -75.25001,43.4475 -52.64803,20.39 -65.89489,26.1515 -97.99999,42.6234 -58.26818,29.8953 -103.29198,61.6144 -143.35189,100.9909 -26.02143,25.5775 -44.43929,47.5453 -61.64043,73.5215 -9.41681,14.2207 -15.40855,24.8056 -38.52154,68.0514 -22.29825,41.7214 -31.52512,56.3908 -42.05131,66.8555 -12.93742,12.8618 -30.62604,19.6063 -54.61398,20.8237 -17.64508,0.8954 -30.10294,-1.4463 -43.5054,-8.178 l -5.20019,-2.6119 -81.5599,81.5553 -81.55991,81.5554 H 263.8936 241.29175 l 91.98763,-91.8348 91.98763,-91.8349 -7.35267,-11.188 c -4.81598,-7.3282 -7.82168,-11.0081 -8.71211,-10.6664 -0.7477,0.2869 -4.90112,1.4259 -9.22984,2.5312 -15.15674,3.8698 -31.39458,6.1649 -47.49942,6.7135 l -16.02703,0.546 -10.97297,-4.3542 c -25.20121,-10.0001 -53.31096,-25.6676 -65.15179,-36.3135 -2.81327,-2.5294 -5.51208,-4.5989 -5.99735,-4.5989 -0.48526,0 -55.06792,54.225 -121.29479,120.5 -66.22688,66.275 -120.96669,120.5 -121.64404,120.5 -0.67735,0 -2.6086695,-1.1588 -4.2918195,-2.575 z M 1760.7077,1790.5364 c -0.4792,-76.2459 -0.8348,-86.6228 -4.2582,-124.25 -7.4643,-82.043 -25.2897,-165.2365 -56.447,-263.4467 -29.789,-93.8968 -66.8501,-176.4446 -111.1429,-247.5533 -16.9865,-27.2706 -44.7028,-66.2796 -61.9483,-87.1885 C 1442.2522,965.45478 1306.5296,882.23279 1163.5,845.26236 c -19.4312,-5.02259 -56.3819,-12.9274 -57.095,-12.21426 -0.1702,0.17013 0.5526,5.59354 1.6062,12.05201 5.0019,30.66315 7.5696,76.79773 5.0722,91.1322 -3.12,17.90761 -12.6354,26.99376 -29.6138,28.27783 -12.5551,0.94955 -23.8447,-2.24093 -29.6606,-8.38217 -5.938,-6.27011 -6.7621,-10.01044 -6.7956,-30.84158 -0.049,-30.53216 -2.421,-51.86673 -8.5778,-77.15428 -9.9072,-40.6907 -28.7279,-78.86645 -55.38671,-112.34572 -8.1532,-10.23922 -28.3311,-32 -29.6722,-32 -3.4486,0 -29.3248,32.51893 -40.8318,51.31385 -23.76134,38.81031 -36.4871,78.08161 -41.04393,126.66032 -0.80101,8.53921 -1.91078,17.11636 -2.46617,19.06035 -1.7666,6.18346 -6.58707,12.61828 -11.70719,15.62785 -4.65863,2.73831 -5.30012,2.83763 -18.3276,2.83763 -12.77693,0 -13.80688,-0.1507 -19.22959,-2.81356 -6.70829,-3.29417 -11.04725,-8.14656 -13.75765,-15.38559 -2.54585,-6.79955 -3.53189,-16.76117 -2.15331,-21.754 0.59749,-2.16392 0.93305,-4.08769 0.74569,-4.27505 -0.52874,-0.52873 -24.59153,8.36751 -39.07387,14.44598 -11.304,4.74447 -27.77578,12.74568 -53.96789,26.21504 -6.02463,3.09819 -7.86528,3.56718 -14,3.56718 -5.90037,0 -7.83166,-0.45164 -11.72942,-2.74295 -9.80589,-5.76443 -18.78736,-20.37352 -19.61213,-31.90072 -0.42396,-5.92546 -0.14198,-7.49925 2.20212,-12.29042 1.47859,-3.02214 4.7246,-7.28717 7.21336,-9.47786 3.74043,-3.29246 47.50228,-26.64088 71.61269,-38.20778 2.6125,-1.25334 4.75,-2.71392 4.75,-3.24573 0,-1.07903 -22.61373,-22.95008 -36.5,-35.30127 -41.89182,-37.26081 -92.63608,-72.17341 -143.25,-98.55752 -9.42662,-4.91393 -15.24954,-7.43904 -15.24879,-6.61265 6.7e-4,0.73529 0.69623,7.4119 1.5457,14.8369 9.99124,87.33135 33.39362,165.93537 72.04944,242 9.94352,19.56627 11.05551,24.64988 7.46932,34.14709 -5.0786,13.44954 -22.13586,25.95465 -35.54799,26.06115 -13.21861,0.10495 -21.9162,-8.92354 -37.95018,-39.39403 l -6.64435,-12.62674 -9.53239,9.82358 c -13.86686,14.29047 -20.10959,22.49055 -31.20494,40.98895 -20.77995,34.64481 -35.8187,64.84871 -40.5802,81.50161 -4.38982,15.353 -4.75313,20.6977 -2.97105,43.7075 l 1.6039,20.709 -2.56887,12.791 c -7.25661,36.1321 -19.90559,67.9496 -40.67769,102.3215 -31.3244,51.8329 -94.63109,149.4977 -146.24701,225.6187 -20.42259,30.1185 -31.26629,55.1409 -41.10433,94.8507 -3.77072,15.22 -4.64057,22.8846 -4.64057,40.8903 0,25.2304 3.63994,48.7629 10.6637,68.9417 8.394,24.1153 18.44808,38.5896 40.7471,58.6612 14.4183,12.978 24.15895,19.828 37.09612,26.0873 14.77824,7.15 24.81039,9.2628 40.99308,8.6333 14.0128,-0.5451 18.6231,-1.6043 32.5,-7.4669 22.56566,-9.5332 32.84498,-20.5538 45.82905,-49.1339 10.38198,-22.8524 22.72143,-42.0008 31.62604,-49.0773 4.6825,-3.7212 9.48806,-4.6702 16.3548,-3.2299 10.4928,2.2009 15.81633,7.6201 18.74432,19.0814 2.16392,8.4704 1.694,10.9795 -6.70256,35.788 -10.23439,30.2387 -19.95968,48.5109 -40.3186,75.7521 l -8.54179,11.4293 2.60215,7.3217 c 3.02495,8.5113 6.29152,14.4821 10.62048,19.4125 9.31386,10.6079 22.11951,8.686 37.13013,-5.5726 9.89985,-9.4039 14.53437,-16.8463 31.45881,-50.5182 32.5154,-64.6909 62.30908,-111.8373 92.0682,-145.6915 20.7408,-23.5949 69.54137,-66.4685 100.75067,-88.5143 43.31335,-30.5959 65.36751,-42.9113 109.54805,-61.1735 35.62116,-14.7241 73.74224,-32.2095 90.33024,-41.4328 54.4143,-30.2556 96.47171,-76.4941 122.83631,-135.0482 10.2915,-22.857 15.1349,-39.9771 17.7212,-62.6397 1.4103,-12.3586 1.4659,-45.7133 0.09,-53.8699 -3.0579,-18.1242 6.9701,-27.6243 30.4725,-28.8684 8.5905,-0.4547 11.2177,-0.2021 17.3851,1.6711 6.0316,1.8321 8.1501,3.0916 12.4764,7.418 9.6869,9.6869 11.7492,20.4062 9.5723,49.7552 -2.0974,28.2788 -6.2085,51.4337 -13.7408,77.394 -9.0146,31.0687 -26.4382,68.3602 -44.5042,95.2517 l -4.8717,7.2517 2.4988,8.2483 c 12.0821,39.8816 14.9159,92.2415 7.4752,138.121 -6.5149,40.1715 -26.6235,97.7912 -47.1577,135.1273 -23.1534,42.0983 -65.24551,88.9875 -125.75311,140.0848 -18.25494,15.4159 -41.12863,35.6594 -44.40498,39.299 l -1.90529,2.1162 h 444.75788 444.7579 z M 314.12881,1660.1438 c -2.40415,-0.8827 -6.07995,-3.3656 -8.16845,-5.5177 -7.46531,-7.6925 -9.35565,-19.5123 -6.13164,-38.3397 6.28734,-36.7164 23.67823,-64.5136 54.89844,-87.7485 11.76343,-8.7546 16.68452,-10.9484 24.78051,-11.0469 11.99298,-0.1459 24.86991,9.1918 31.63999,22.9438 2.78536,5.6578 3.34664,7.9124 3.31864,13.3306 -0.0223,4.3143 -0.64319,7.6595 -1.83481,9.8854 -2.66066,4.9699 -9.37579,11.8874 -15.72521,16.1992 -8.80026,5.9762 -16.45253,13.4849 -21.53695,21.133 -5.67681,8.5391 -10.33747,21.3421 -10.35595,28.4481 -0.0182,6.9869 -3.29865,17.063 -7.01935,21.5602 -1.74243,2.106 -5.90987,5.1052 -9.65693,6.9499 -6.12495,3.0153 -7.41469,3.265 -18.2144,3.5263 -8.74792,0.2116 -12.70388,-0.1158 -15.99389,-1.3237 z M 553.27298,1228.782 c -7.25976,-2.5808 -15.63902,-8.3688 -19.27682,-13.3155 -6.90654,-9.3914 -8.00053,-23.5471 -2.85164,-36.8986 4.28233,-11.1045 15.09813,-32.2029 22.59174,-44.0699 23.34053,-36.9622 55.46021,-67.1263 94.8843,-89.1073 11.90083,-6.6353 34.01095,-16.4878 43.73478,-19.4887 9.7356,-3.0045 21.41635,-2.9009 28.18276,0.25 10.89152,5.0718 18.4037,18.2998 19.23765,33.8751 0.42649,7.9655 0.23091,9.2254 -2.20496,14.2041 -1.47013,3.0049 -4.07747,6.6452 -5.79408,8.0896 -1.71661,1.4445 -10.16958,6.1557 -18.78438,10.4694 l -15.66326,7.8432 3.66,7.5035 c 6.80004,13.941 8.06887,27.615 4.09668,44.1495 -4.31787,17.9734 -13.35807,31.8152 -25.42906,38.9354 -17.08806,10.0796 -50.806,8.3791 -68.32736,-3.4459 l -4.26989,-2.8817 -2.11014,2.9634 c -1.16058,1.6299 -5.20594,9.4476 -8.9897,17.3728 -7.36842,15.4332 -11.23537,20.4147 -18.35848,23.6496 -5.46558,2.4821 -17.20351,2.4349 -24.32814,-0.098 z M 1387.4307,839.07402 c 6.0904,-45.44805 0.8186,-85.26543 -17.5196,-132.32311 -13.364,-34.29319 -32.899,-63.96028 -59.9046,-90.97488 -6.6509,-6.6532 -39.3573,-34.70955 -77.5065,-66.48704 -71.9933,-59.96894 -88.3586,-73.82732 -105,-88.91552 -18.5549,-16.82307 -64.6597,-62.97782 -84.2458,-84.33708 -10.2129,-11.1375 -18.8803,-20.25 -19.2609,-20.25 -0.3806,0 -5.5899,5.2875 -11.5763,11.75 C 962.36769,421.56654 926.14319,456.08923 872,501.3568 792.00223,568.24065 749.20053,604.57147 740.18252,613.24575 c -17.51604,16.8484 -34.69315,38.58413 -46.12653,58.36801 -2.32902,4.03005 -4.0819,7.43942 -3.89529,7.57636 47.88766,35.14181 76.91359,60.5287 115.83393,101.31157 8.51112,8.91842 15.76316,15.89342 16.11565,15.5 0.35249,-0.39341 2.10866,-5.2153 3.9026,-10.7153 21.3034,-65.3137 61.6868,-121.65778 117.80251,-164.36149 l 8.3154,-6.32797 11.1846,8.51875 c 6.1515,4.68531 14.1096,11.01319 17.6846,14.06196 l 6.5,5.54321 0.5233,-14.86375 c 0.5115,-14.53089 0.6013,-15.01723 4.0081,-21.71723 2.6895,-5.28937 4.5882,-7.5921 8.31941,-10.08989 6.7919,-4.54675 11.6016,-5.71426 23.6492,-5.74062 13.4859,-0.0295 19.5463,1.9281 26.0244,8.40623 8.4962,8.49617 8.3837,7.68145 8.7466,63.3208 l 0.3179,48.75 h 46.2741 c 49.4277,0 52.3231,0.24858 60.401,5.18559 13.0366,7.96758 16.4753,36.4321 6.2047,51.35997 -1.6576,2.40915 -3.6864,4.75673 -4.5086,5.21684 -0.9833,0.55027 2.7034,1.64066 10.7725,3.1861 31.7894,6.08851 71.5497,17.20421 103.8448,29.03169 27.9642,10.24137 45.6548,18.00164 75.4226,33.08533 14.85,7.52467 27.2761,13.7382 27.6136,13.80785 0.3374,0.0697 1.3801,-5.59393 2.3171,-12.58574 z M 635.05875,631.03639 c 12.18515,-20.37974 28.51772,-40.77492 47.07317,-58.78229 13.92517,-13.51386 22.02057,-20.27994 50.86808,-42.51521 38.21016,-29.45186 85.21551,-67.54245 114,-92.37939 34.74095,-29.97653 71.27659,-66.29552 106.83229,-106.19869 l 8.1314,-9.12559 -7.7319,-4.50882 c -4.2525,-2.47985 -11.1068,-7.00933 -15.2318,-10.0655 l -7.5,-5.55668 -42.07409,42.19108 c -23.14076,23.2051 -96.17407,96.46864 -162.29625,162.80786 l -120.22215,120.61677 10.79625,6.06159 c 5.93794,3.33388 11.09484,6.09383 11.45979,6.13323 0.36495,0.0394 3.01779,-3.86586 5.89521,-8.67836 z M 1039.396,267.73757 c 9.4771,-1.31814 20.4883,-5.02675 26.6339,-8.97038 5.8346,-3.74402 13.7261,-11.98205 17.2244,-17.9808 9.4464,-16.19787 11.4223,-48.89989 4.232,-70.04028 -3.0837,-9.06648 -7.0594,-15.32155 -13.7647,-21.65652 -7.0626,-6.67253 -12.5536,-9.69776 -23.2216,-12.79392 -22.1744,-6.43561 -52.90531,-3.51636 -68.52991,6.50992 -5.886,3.77704 -13.7762,12.03905 -17.1716,17.9808 -12.1528,21.2666 -11.5446,62.13693 1.2207,82.02993 3.777,5.886 12.0391,13.77619 17.9808,17.1716 13.0335,7.44798 35.23471,10.55383 55.39601,7.74965 z m -181.50147,1718.56523 63.60546,-63.4837 22.4971,-0.016 22.497,-0.016 -63.4941,63.5 -63.49408,63.5 h -22.60842 -22.60842 z m 282.87857,0.017 63.7269,-63.4666 23.497,-0.033 23.4971,-0.033 -63.4941,63.5 -63.4941,63.5 h -23.7299 -23.7298 z m 276.1801,-0.026 63.5468,-63.4928 24.497,-0.01 24.4971,-0.01 -63.4941,63.5 -63.4941,63.5 h -24.5498 -24.5498 z m 525.4876,27.7428 c 19.832,-19.6625 51.696,-51.2664 70.8087,-70.2308 L 2048,1909.3247 v 22.6743 22.6742 l -49.4255,47.5566 -49.4255,47.5566 h -21.3833 -21.3832 z M 0.23161748,934.66203 0.50000048,913.03766 454.5,458.16203 908.49999,3.2863946 931.43559,3.0175082 c 12.6145,-0.1478875 22.7274,-0.1478875 22.473,0 C 953.65429,3.1653957 738.91247,217.71139 476.70468,479.78639 l -476.74144452,476.5 z M 4.7619037e-7,658.29019 v -21.9951 L 155.75734,480.29074 C 241.42388,394.48835 383.72476,251.9407 471.98153,163.51819 L 632.44837,2.7499934 654.72582,3.018194 677.00327,3.2863946 338.50164,341.78584 4.7619037e-7,680.28528 Z m 0,-277.52222 V 358.28428 L 177.77041,180.51597 355.54083,2.7476701 378.02041,3.0170323 400.5,3.2863946 200.25,203.26903 4.7619039e-7,403.25166 Z M 0.00360048,104.78337 0.00710348,82.286395 39.74533,42.518239 79.48355,2.7500835 101.74588,3.018239 124.00821,3.2863946 62.00411,65.283371 4.7619037e-7,127.28034 Z"
       id="path1" />
  </g>
</svg>
