<?xml version="1.0" encoding="UTF-8" standalone="no"?>
<!-- Created with Inkscape (http://www.inkscape.org/) -->

<svg
   version="1.1"
   id="svg1"
   width="2048"
   height="2048"
   viewBox="0 0 2048 2048"
   xmlns="http://www.w3.org/2000/svg"
   xmlns:svg="http://www.w3.org/2000/svg">
  <defs
     id="defs1" />
  <g
     id="g1">
    <path
       style="fill:#000000"
       d="m 7.1543602,2044.4764 c -3.89037,-3.2735 -6.00541,-9.9858 -6.76721,-21.4764 l -0.56353,-8.5 L 185.41181,1829.001 C 287.48531,1726.9766 371,1643.8216 371,1644.2123 c 0,0.3906 -0.87133,4.4471 -1.93629,9.0144 -2.14935,9.2181 -5.54119,29.0223 -6.55498,38.2733 l -0.65752,6 -174.17561,174.4873 c -95.79658,95.9681 -174.90104,174.6287 -175.7877,174.8015 -0.88665,0.1728 -3.0167398,-0.8678 -4.7335398,-2.3124 z M 347.23725,1941.25 c 58.25706,-58.1625 106.22362,-105.6676 106.59234,-105.5669 1.36334,0.3722 30.6867,11.7327 31.1278,12.0595 0.25157,0.1864 -44.29758,45.0955 -98.99811,99.7981 L 286.50377,2047 H 263.90954 241.31532 Z M 518.55,2046.2136 c 0.5225,-0.4324 36.52959,-36.2106 80.01576,-79.5068 l 79.06576,-78.7206 19.43424,2.4891 c 10.68883,1.3689 19.65814,2.497 19.9318,2.5069 0.27367,0.01 -34.15024,34.6678 -76.49756,77.0178 l -76.99513,77 h -22.95243 c -12.62384,0 -22.52494,-0.3539 -22.00244,-0.7864 z m 345.14331,-68.4636 69.3912,-69.25 6.7077,-0.3304 c 3.6893,-0.1817 13.6313,-0.019 22.0934,0.3617 l 15.3857,0.692 -68.8829,68.8883 L 839.50543,2047 H 816.9038 794.30216 Z m 215.32939,66.9363 c 1.3625,-1.2726 34.0121,-33.6755 72.5547,-72.0065 l 70.0773,-69.6927 19.4227,-1.456 c 10.6824,-0.8007 22.1226,-1.7215 25.4226,-2.0461 l 6,-0.5902 -73.9975,74.0526 -73.9974,74.0526 h -23.9798 -23.9798 z m 361.9417,-84.9839 c 48.1446,-48.0137 92.0356,-91.598 97.5356,-96.8541 l 10,-9.5565 16.5,-5.5441 c 27.8152,-9.3462 46.9755,-18.233 63.5,-29.4524 6.758,-4.5884 -10.1645,12.7436 -108.9984,111.6365 L 1402.5032,2047 h -24.5372 -24.5371 z m 295.4968,-18.4481 c 58.3214,-58.1601 152.2829,-151.8726 208.8035,-208.25 l 102.7646,-102.5043 -0.2646,23.5 -0.2647,23.5 -185.0142,184.75 -185.0141,184.75 h -23.5246 -23.5247 z m 205.9796,69.9957 c 19.832,-19.6625 51.696,-51.2664 70.8087,-70.2308 L 2048,1906.5383 v 22.6743 22.6742 l -49.4255,47.5566 L 1949.149,2047 h -21.3833 -21.3832 z M 938.11321,1845.9857 c -159.0379,-4.6672 -295.7676,-20.6778 -401.11321,-46.969 -58.5866,-14.6215 -104.89356,-34.188 -124.25845,-52.5042 l -3.75844,-3.5549 31.50314,-120.0001 31.50313,-120.0002 -13.98941,-78.9575 -13.98941,-78.9575 -43.99154,-75.9642 -43.99154,-75.9642 -15.49144,-113.307 c -8.52029,-62.3188 -27.63601,-202.15986 -42.47938,-310.75793 -14.84336,-108.59806 -26.751,-197.68796 -26.46141,-197.97755 0.28958,-0.28959 11.18662,-4.89154 24.21563,-10.22657 23.06726,-9.44541 23.7285,-9.64852 25.18912,-7.73731 0.825,1.0795 62.44686,104.98756 136.93747,230.90679 74.4906,125.91924 135.56819,228.81337 135.72798,228.65357 0.15978,-0.1598 1.65452,-123.52954 3.32163,-274.15498 1.66711,-150.62545 3.19948,-274.03282 3.40527,-274.2386 0.89101,-0.89101 68.12781,-12.14365 68.68036,-11.49423 0.33688,0.39595 47.14584,124.33166 104.0199,275.41268 68.1572,181.05373 103.6529,274.11573 104.1277,273.00003 0.3961,-0.9311 5.6624,-28.0178 11.7028,-60.1928 24.4045,-129.99463 99.2295,-526.64961 99.7433,-528.75 l 0.5504,-2.25 h 34.28319 34.2832 l 0.5487,2.25 c 0.3018,1.2375 25.3355,133.425 55.6306,293.75 30.295,160.325 55.4094,292.25809 55.8097,293.18464 0.4812,1.11376 35.5974,-91.05704 103.6294,-272 56.5958,-150.52655 103.1798,-274.0086 103.5199,-274.40455 0.5529,-0.64379 67.7905,10.59859 68.6746,11.48266 0.1994,0.19943 1.7279,123.60287 3.3965,274.22987 1.6687,150.627 3.1644,273.99768 3.3238,274.15708 0.1593,0.1594 55.1546,-92.2841 122.2117,-205.42996 67.057,-113.14586 128.7951,-217.28255 137.1958,-231.41488 l 15.2739,-25.69514 22.7511,11.00478 c 12.5131,6.05263 23.0791,11.32843 23.48,11.724 0.4008,0.39558 -4.6766,41.43124 -11.2833,91.19037 -6.6067,49.75912 -25.0437,188.68387 -40.9711,308.72166 l -28.959,218.25057 -44.9918,76.4587 -44.9919,76.4587 -14.0213,80.0218 -14.0214,80.0217 32.4426,121.2597 c 30.6736,114.6476 32.3508,121.3611 30.7591,123.1199 -2.9305,3.2383 -19.2436,13.6668 -29.1486,18.634 -50.946,25.5486 -145.2983,47.6816 -266.5422,62.5251 -61.8564,7.5728 -123.8468,12.3703 -201,15.5555 -33.1821,1.3699 -166.51509,1.9823 -202.38679,0.9295 z M 1143.5,1779.023 c 181.1254,-7.5839 303.3241,-26.6356 399.75,-62.3239 7.5625,-2.799 13.75,-5.3527 13.75,-5.6749 0,-0.3223 -6.6375,-3.1193 -14.75,-6.2156 -92.8169,-35.4254 -211.8074,-57.4064 -358.75,-66.2715 -86.8293,-5.2384 -203.85939,-5.8467 -289.49999,-1.5046 -164.71718,8.3512 -296.24686,31.8109 -387.06868,69.0379 -6.83723,2.8025 -13.21883,5.3356 -14.18133,5.6292 -0.9625,0.2935 -1.75,0.8623 -1.75,1.2641 0,1.7227 42.42677,14.9073 70.5,21.9087 102.70047,25.6133 237.02937,40.9976 397.50001,45.5247 23.3512,0.6587 160.31139,-0.3613 184.49999,-1.3741 z M 532.87951,1613.4684 c 96.49842,-26.0976 214.10603,-41.0219 375.6205,-47.6658 39.8864,-1.6408 193.48209,-1.641 232.49999,-3e-4 134.1576,5.6411 225.1009,15.2632 314,33.2223 18.4455,3.7263 71.7005,16.6459 76.3654,18.5261 1.5139,0.6102 1.7559,0.3936 1.2843,-1.1494 -0.3196,-1.0457 -6.9059,-25.8685 -14.6362,-55.1618 l -14.0551,-53.2604 5.9792,-42.6979 c 3.2885,-23.4838 5.7926,-42.8843 5.5646,-43.1124 -0.7309,-0.7308 -24.3252,-6.004 -47.5022,-10.6165 -114.5935,-22.8053 -239.4325,-33.5388 -409.5,-35.2083 -180.30389,-1.77 -338.00047,9.3587 -462,32.6036 -19.75105,3.7025 -62.87076,13.0455 -64.30854,13.9341 -0.71638,0.4427 0.86805,14.1034 4.90738,42.3106 l 5.96534,41.6569 -14.55935,54.3254 c -8.00765,29.879 -14.82401,55.181 -15.14749,56.2267 -0.46388,1.4995 -0.21948,1.7598 1.15677,1.2317 0.9597,-0.3683 9.22413,-2.6924 18.3654,-5.1646 z M 537,1342.0075 c 82.82706,-20.3495 196.61341,-34.927 320.00001,-40.996 97.0731,-4.7747 223.15189,-5.1663 317.49999,-0.9862 135.8569,6.0192 255.5205,21.2364 345.1828,43.8956 6.4962,1.6417 12.1087,2.6686 12.4721,2.282 0.3635,-0.3866 18.5212,-34.9029 40.3506,-76.7029 21.8294,-41.8 42.3634,-81.0386 45.631,-87.1969 l 5.9411,-11.1969 -10.2888,3.4873 c -33.1402,11.2326 -66.447,16.2367 -100.2888,15.0679 -59.211,-2.0451 -108.9533,-19.9877 -152.5,-55.0085 -11.3239,-9.1068 -32.479,-30.7644 -42.3443,-43.35 l -8.7768,-11.1972 -6.1895,5.0247 c -47.6319,38.6686 -109.0499,53.8412 -169.069,41.7665 -41.068,-8.2621 -78.3441,-31.3261 -107.293,-66.3859 l -4.1194,-4.989 -11.854,11.5017 c -38.47279,37.3294 -80.85709,55.655 -133.35399,57.6581 -17.2168,0.6569 -33.8965,-0.6197 -49.50001,-3.7884 -28.50866,-5.7896 -61.0126,-20.843 -84.20069,-38.9955 l -6.20068,-4.8541 -7.41438,8.7281 c -11.15514,13.1317 -33.77052,34.6388 -46.69804,44.4095 -15.71012,11.8739 -26.82745,18.7112 -44.48621,27.3599 -33.38918,16.3528 -67.9353,24.7012 -108,26.0992 -34.52056,1.2045 -66.3503,-3.4572 -98.91844,-14.4874 l -11.59598,-3.9273 4.91083,9.1371 c 2.70096,5.0254 22.09758,41.7621 43.10359,81.6371 51.37932,97.5316 47.87857,91.1699 49.83935,90.5697 0.91336,-0.2796 9.08565,-2.3326 18.16065,-4.5622 z m 1005.7894,-223.0744 c 19.9873,-2.1959 40.9458,-8.0557 59.0177,-16.5007 10.2956,-4.8112 27.8137,-15.0419 32.987,-19.2647 l 3.2681,-2.6677 27.3597,-172 c 15.0479,-94.6 27.2746,-172.09682 27.1704,-172.21517 -0.2648,-0.30093 -218.6689,374.00097 -218.9022,375.15567 -0.3526,1.7445 20.0904,6.5892 33.3099,7.894 8.1018,0.7996 26.7627,0.5904 35.7894,-0.4014 z M 550.5,1111.5591 c 13.56005,-2.4268 19.71186,-4.374 18.77929,-5.9439 -0.42861,-0.7216 -48.68005,-83.7169 -107.22541,-184.43413 C 403.50851,820.46388 355.52176,738.15816 355.41665,738.27946 c -0.1051,0.1213 12.11384,75.59137 27.15322,167.71128 l 27.34432,167.49076 3.2929,2.7177 c 4.96643,4.0988 27.27711,17.2238 36.15689,21.2705 16.25525,7.4077 37.09051,13.5133 52.86582,15.4919 10.31647,1.2939 37.63928,0.5 48.2702,-1.4025 z m 835.2542,-392.44631 -0.2542,-114.7269 -82.1545,225.55706 c -45.185,124.05638 -82.0162,225.70075 -81.8472,225.87645 0.1689,0.1757 3.7442,-1.1114 7.9449,-2.8601 10.0508,-4.1842 20.7511,-11.3519 27.5568,-18.4593 3.025,-3.1591 8.8163,-7.9364 12.8695,-10.6161 22.8189,-15.0868 55.8599,-14.2385 79.5222,2.0416 6.333,4.3572 15.9192,14.2278 21.2955,21.9274 2.5528,3.6559 6.93,9.0252 9.7271,11.9317 l 5.0857,5.2847 0.2542,-115.61481 c 0.1398,-63.58814 0.1398,-167.2419 0,-230.3417 z M 672.18528,1044 c 9.84153,-17.481 23.93169,-28.5706 42.81472,-33.6972 8.06594,-2.1899 29.82158,-2.4534 38,-0.4604 3.025,0.7372 10.10618,3.5541 15.73595,6.2599 8.75216,4.2064 11.65133,6.2764 20,14.2802 9.52195,9.1286 17.11625,13.9384 31.47113,19.9318 l 3.70708,1.5478 -3.33357,-9.1811 C 815.44554,1028.5385 675.73481,646.14585 667.42888,623.5 l -7.33551,-20 -0.0467,227.45821 -0.0467,227.45819 4.54443,-4.4582 c 2.49944,-2.452 5.93782,-6.9332 7.64085,-9.9582 z M 1066.7128,803.21649 C 1043.5097,669.44742 1024.2869,560 1023.9955,560 c -0.2914,0 -2.443,10.9125 -4.7814,24.25 -32.15569,183.4117 -79.34109,451.9271 -79.82389,454.25 l -0.6235,3 2.3666,-2.133 c 1.3017,-1.1732 3.7861,-2.8499 5.5209,-3.7262 3.6266,-1.8317 5.511,-4.1032 12.456,-15.0151 15.9449,-25.05238 39.0835,-36.90557 68.88979,-35.29014 27.8079,1.50712 45.6889,12.81602 57.0536,36.08374 4.2945,8.7925 6.1118,11.3793 10.8047,15.3796 6.7847,5.7835 12.4954,10.1807 12.8114,9.8648 0.1269,-0.1269 -18.7537,-109.67814 -41.9569,-243.44721 z M 2.0408154e-7,1761.5455 V 1737.498 L 187.86841,1549.6316 c 103.32763,-103.3265 188.09931,-187.4761 188.3815,-186.999 1.45897,2.4665 9.85066,29.9354 10.03526,32.8488 0.20632,3.2561 -7.44294,11.0526 -193.03517,196.7511 L 2.0408152e-7,1785.5931 Z M 1666.9045,1780.7742 c 5.0843,-7.6077 11.8466,-22.5667 14.6008,-32.2984 1.4047,-4.9634 3.1032,-14.4134 3.7744,-21 L 1686.5,1715.5 1867,1535.9 l 180.5,-179.6001 0.2694,22.5804 0.2693,22.5803 -192.1462,192.0197 c -105.6804,105.6108 -190.725,189.8931 -188.988,187.2939 z m -20.5368,-265.4077 c -0.4572,-4.8766 -0.8395,-15.0533 -0.8495,-22.6149 l -0.018,-13.7485 201.2623,-201.2515 201.2624,-201.2516 -0.2624,24 -0.2623,24 -200.1505,199.8665 -200.1505,199.8666 z M 2.0408154e-7,1485.9154 v -24.418 L 145.85884,1315.6412 l 145.85884,-145.8563 2.80686,11.3575 c 1.54377,6.2467 3.84345,14.7326 5.11041,18.8576 l 2.30356,7.5 -150.71926,150.9881 C 68.32366,1441.5316 0.3875002,1509.6691 0.2500002,1509.9048 0.1125002,1510.1405 2.0408152e-7,1499.3453 2.0408154e-7,1485.9154 Z m 0,-275.3854 v -22.0329 L 128.45376,1060.0462 c 82.64926,-82.64734 128.62239,-127.93293 128.92668,-126.9985 0.92151,2.82989 4.76696,33.88222 4.44577,35.90005 -0.1802,1.13204 -58.85105,60.58895 -131.07621,132.83225 L 2.0408152e-7,1232.563 Z M 1764.0479,1122.4782 c 0.026,-1.088 1.5241,-12.7008 3.3284,-25.8062 l 3.2806,-23.828 138.6844,-138.67201 138.6844,-138.67199 -0.2629,23 -0.2628,23 -141.75,141.47821 c -91.8886,91.71239 -141.7332,140.78239 -141.7021,139.49999 z M 2.0408154e-7,931.99777 V 910.49664 L 111.45917,799.04083 c 61.30255,-61.3007 111.65612,-111.24994 111.89682,-110.99832 0.2407,0.25162 1.60533,8.55749 3.0325,18.45749 l 2.59486,18 L 114.49167,838.99946 2.0408154e-7,953.49891 Z M 1806,804.91239 c 0,-0.27488 1.5827,-11.95512 3.5172,-25.95609 l 3.5172,-25.4563 117.4957,-117.5 117.4956,-117.5 -0.2628,23 -0.2629,23 -120.75,120.45609 C 1860.3375,751.20694 1806,805.18728 1806,804.91239 Z M 497.77956,718.62774 c -3.45376,-4.05474 -7.71274,-9.37499 -9.46441,-11.82276 l -3.18485,-4.4505 24.52667,-24.42724 24.52667,-24.42724 -0.66658,14 c -0.36663,7.7 -1.09056,18.275 -1.60875,23.5 l -0.94216,9.5 -12.71865,12.75 c -6.99525,7.0125 -13.04934,12.75 -13.45351,12.75 -0.40418,0 -3.56068,-3.31752 -7.01443,-7.37226 z M 824.44304,679.6165 c -0.51867,-1.31092 -3.61544,-8.5365 -6.8817,-16.05683 l -5.93867,-13.67333 41.43754,-41.44656 c 22.7906,-22.79561 41.5568,-41.08869 41.7026,-40.65129 0.1458,0.4374 -2.2029,13.36029 -5.2194,28.71752 l -5.4844,27.92225 -28.773,28.78587 C 839.4608,669.04636 826.25939,682 825.94951,682 c -0.30989,0 -0.9878,-1.07257 -1.50647,-2.3835 z M 2.0408154e-7,655.49188 V 633.49096 L 41.55311,591.99548 83.10622,550.5 l 4.18323,5 c 2.30077,2.75 6.98497,7.94352 10.40933,11.54116 l 6.2261,6.54116 L 51.96244,625.53755 2.0408152e-7,677.49279 Z M 1158.6496,601.83466 l -3.8003,-19.18205 66.4976,-66.49763 66.4976,-66.49763 1.814,5.92133 c 1.4065,4.59123 1.8171,9.30979 1.8278,21.00625 l 0.014,15.08492 -63.8108,64.41508 c -35.0959,35.42829 -64.1322,64.53133 -64.5251,64.67342 -0.3928,0.1421 -2.4244,-8.37356 -4.5145,-18.92369 z M 219.5,568.38597 C 212.04697,567.599 195.69722,563.84773 188.58122,561.29199 170.06894,554.64323 154.49491,544.5788 139.45169,529.54292 113.20187,503.3059 100.7852,474.84021 99.30277,437.5 c -1.58676,-39.9683 11.61557,-73.52348 40.14892,-102.04292 25.4196,-25.4072 53.90165,-37.72515 90.54831,-39.16044 29.86789,-1.1698 57.24057,6.46148 81.69756,22.77661 10.17372,6.78683 31.30811,28.07979 38.14059,38.42675 14.0706,21.30822 20.74543,42.54537 21.84382,69.5 1.7175,42.14743 -14.46064,79.89888 -46.36241,108.18596 -17.63326,15.63529 -37.05904,25.48093 -60.81956,30.82541 -8.86016,1.99292 -35.36753,3.39169 -45,2.3746 z m 40.32863,-72.34979 c 21.31242,-6.06856 33.51926,-18.42721 39.40264,-39.89265 2.83003,-10.32536 3.08709,-36.11599 0.4639,-46.54308 -4.03738,-16.04844 -14.37283,-29.86039 -26.81623,-35.83632 -11.49196,-5.519 -19.92995,-7.17086 -36.87894,-7.21958 -25.1706,-0.0724 -38.93037,4.4647 -50.69424,16.71555 -10.31926,10.74644 -14.96024,23.29069 -15.9974,43.2399 -2.10104,40.41245 14.10546,64.66124 47.44527,70.98943 11.0246,2.09256 33.25644,1.34252 43.075,-1.45325 z m 1534.41827,71.92845 c -44.0956,-5.54148 -84.469,-34.78643 -104.8127,-75.92233 -4.7077,-9.51919 -8.3109,-20.29826 -11.0452,-33.0423 -2.5353,-11.81622 -2.5931,-40.88384 -0.1058,-53.18222 5.6187,-27.78192 16.3984,-47.49663 37.6891,-68.92867 21.5303,-21.67329 41.9664,-32.8234 70.6537,-38.54941 12.2477,-2.44464 40.4085,-2.46389 52.5562,-0.0359 27.8626,5.56891 47.6614,16.46123 69.3571,38.15693 17.6735,17.6735 26.929,32.12637 33.8045,52.78712 8.2193,24.69878 8.6711,56.10659 1.1834,82.25218 -13.443,46.94029 -55.6677,85.60374 -103.8001,95.04548 -9.7463,1.91185 -35.2317,2.70708 -45.4802,1.41915 z m 41.6649,-71.43099 c 15.462,-3.82442 29.4169,-14.35445 35.3241,-26.6547 5.519,-11.49196 7.1708,-19.92995 7.2195,-36.87894 0.052,-18.02682 -1.6223,-27.0671 -7.0049,-37.82636 -4.0552,-8.10583 -13.4371,-17.61296 -21.326,-21.61054 -10.4714,-5.30628 -18.9796,-6.90088 -37.1245,-6.9579 -14.2717,-0.0448 -17.5743,0.25559 -24.4549,2.22464 -22.0775,6.31795 -34.8211,19.2295 -40.2403,40.77061 -2.7217,10.8187 -2.4531,36.38171 0.4907,46.69873 6.9708,24.43037 22.2558,37.54817 48.6811,41.77868 7.5711,1.2121 31.116,0.26613 38.4352,-1.54422 z M 408,543.90708 c 0,-6.54639 10.21577,-41.99539 15.84088,-54.9683 1.73259,-3.99578 26.44689,-29.94639 28.50317,-29.92901 2.25881,0.0191 11.62125,4.90586 19.21046,10.02701 l 7.70138,5.19684 -35.37266,35.38319 C 424.42826,529.07756 408.39569,545 408.25528,545 408.11488,545 408,544.50819 408,543.90708 Z m 1105,-0.93149 c 0,-2.58578 4.7472,-16.5092 7.4769,-21.92975 4.2042,-8.34849 13.3648,-19.85689 21.1302,-26.54584 15.1905,-13.08474 34.465,-27.63262 43.6529,-32.94799 4.3996,-2.54526 13.6815,-5.94388 14.3654,-5.25998 0.1625,0.16258 -19.2616,19.84895 -43.1649,43.74748 C 1532.5572,523.93804 1513,543.25927 1513,542.97559 Z M 754.27057,469 c 0.63704,-11.17256 4.61682,-22.97808 14.66436,-43.5 l 7.8336,-16 32.39557,-32.27415 32.39561,-32.27415 2.8186,5.77415 c 1.5503,3.17578 5.0637,9.50178 7.8076,14.05778 l 4.989,8.28362 -29.02083,29.71638 C 812.19265,419.12763 788.93014,442.625 776.45961,455 l -22.6737,22.5 z M 584,457.94931 c -49.1554,-6.06594 -93.44186,-41.61433 -110.29199,-88.53053 -5.40092,-15.03789 -7.17367,-26.37946 -7.17737,-45.91878 -0.004,-19.40161 1.27049,-28.50865 6.02744,-43.08117 11.023,-33.76804 37.7116,-64.48299 70.19081,-80.78007 18.59022,-9.32801 35.05534,-12.95802 59.25111,-13.0629 19.35783,-0.0839 27.19807,0.969 42,5.64042 39.87777,12.58524 75.27877,47.87832 88.42729,88.15773 8.18428,25.07186 8.559,55.97948 0.9989,82.39074 -3.60771,12.60356 -12.21075,29.5361 -20.79962,40.93792 -20.31423,26.96737 -48.95061,45.65319 -80.12657,52.28425 -11.52004,2.45028 -36.39148,3.45662 -48.5,1.96239 z m 43.15411,-71.79777 c 10.67379,-2.81786 17.26042,-6.42312 24.58579,-13.4573 12.25085,-11.76387 16.7879,-25.52364 16.71555,-50.69424 -0.0373,-12.98596 -0.4109,-16.79026 -2.30317,-23.45493 -6.25791,-22.04072 -19.25407,-34.86797 -40.75273,-40.2231 -9.89397,-2.46451 -34.15386,-2.46611 -44.65313,-0.003 -22.21771,5.21232 -35.92315,18.44754 -41.97769,40.53746 -2.83003,10.32536 -3.08709,36.11599 -0.4639,46.54308 3.66234,14.55766 11.60663,26.37019 22.36174,33.25015 5.90407,3.77679 17.75731,8.01112 26.1367,9.3368 9.38146,1.48421 31.60648,0.47353 40.35084,-1.83496 z M 1425,457.94931 c -49.1554,-6.06594 -93.4419,-41.61433 -110.292,-88.53053 -5.4009,-15.03789 -7.1737,-26.37946 -7.1774,-45.91878 0,-19.40161 1.2705,-28.50865 6.0275,-43.08117 11.023,-33.76804 37.7116,-64.48299 70.1908,-80.78007 18.5902,-9.32801 35.0553,-12.95802 59.2511,-13.0629 19.3578,-0.0839 27.1981,0.969 42,5.64042 39.8778,12.58524 75.2788,47.87832 88.4273,88.15773 8.1843,25.07186 8.559,55.97948 0.9989,82.39074 -3.6077,12.60356 -12.2108,29.5361 -20.7996,40.93792 -20.3143,26.96737 -48.9506,45.65319 -80.1266,52.28425 -11.52,2.45028 -36.3915,3.45662 -48.5,1.96239 z m 43.1541,-71.79777 c 10.6738,-2.81786 17.2604,-6.42312 24.5858,-13.4573 12.2509,-11.76387 16.7879,-25.52364 16.7155,-50.69424 -0.037,-12.98596 -0.4108,-16.79026 -2.3031,-23.45493 -6.2579,-22.04072 -19.2541,-34.86797 -40.7527,-40.2231 -9.894,-2.46451 -34.1539,-2.46611 -44.6532,-0.003 -22.2177,5.21232 -35.9231,18.44754 -41.9777,40.53746 -2.83,10.32536 -3.0871,36.11599 -0.4639,46.54308 3.6624,14.55766 11.6067,26.37019 22.3618,33.25015 5.904,3.77679 17.7573,8.01112 26.1367,9.3368 9.3814,1.48421 31.6065,0.47353 40.3508,-1.83496 z M 1007.5,408.3137 c -6.9546,-0.60869 -23.56789,-4.3816 -30.91879,-7.02171 -18.5123,-6.64876 -34.0863,-16.71319 -49.1295,-31.74907 -26.2498,-26.23702 -38.6665,-54.70271 -40.1489,-92.04292 -1.5868,-39.9683 11.6155,-73.52348 40.1489,-102.04292 24.9725,-24.96037 53.4547,-37.48766 89.04829,-39.16604 27.8859,-1.31493 55.0906,5.48191 77.0017,19.23807 33.7232,21.17211 56.4121,53.02113 64.0943,89.97089 2.7881,13.41011 2.5716,41.26206 -0.4292,55.23367 -6.4108,29.84806 -21.2386,54.37118 -45.5456,75.32614 -29.0431,25.03796 -63.7452,35.78773 -104.1212,32.25389 z m 31.0708,-71.38682 c 26.2869,-3.65618 43.0079,-18.13408 49.1164,-42.52733 1.2659,-5.05533 1.7277,-11.04263 1.7277,-22.39955 0,-24.37469 -4.2183,-37.03979 -16.3262,-49.01818 -7.2884,-7.21043 -13.6612,-10.72348 -25.7098,-14.17283 -6.7943,-1.94512 -10.1503,-2.24849 -24.3789,-2.20379 -13.5747,0.0427 -17.857,0.42522 -24.15409,2.15789 -10.7909,2.96911 -17.3198,6.56545 -24.5858,13.54267 -12.0413,11.5626 -16.7601,25.55415 -16.7601,49.69424 0,16.95174 1.7933,26.31976 7.0495,36.82636 5.6374,11.26854 17.2813,21.09238 29.8107,25.15104 11.52609,3.73366 29.80489,4.95312 44.21059,2.94948 z M 2.0408152e-7,377.99388 V 355.49789 L 177.75105,177.74895 355.5021,0 h 22.55006 22.55005 L 263.55111,136.94598 C 188.173,212.26627 123.35,276.25839 119.5,279.15069 109.09062,286.9707 92.92613,303.06041 82.98175,315.5 77.91061,321.84358 58.48585,342.16037 37.0941,363.49493 L 2.0408157e-7,400.48986 Z M 1982.4353,342.27507 c -2.0707,-3.72629 -5.9044,-9.96348 -8.5195,-13.86043 l -4.7545,-7.08535 39.4193,-39.4099 39.4194,-39.4099 -0.071,22.99526 -0.071,22.99525 -30.8286,30.27507 -30.8286,30.27507 z M 373.8446,292.12936 c -3.64301,-2.12886 -9.63516,-6.01961 -13.3159,-8.64613 L 353.83646,278.70774 492.66823,139.60387 631.5,0.5 l 23,-0.26357094 23,-0.26357094 L 606.22895,71.236429 534.95789,142.5 l -7.7492,3.25841 c -19.82523,8.33616 -39.40145,21.68429 -57.54544,39.23757 -18.97215,18.35449 -33.53205,38.61111 -44.25788,61.57427 -4.56887,9.7816 -4.93086,10.22442 -24.26234,29.67975 -10.79335,10.8625 -19.86064,19.75 -20.14952,19.75 -0.28889,0 -3.5059,-1.74179 -7.14891,-3.87064 z m 848.8729,-16.79166 c -0.3245,-4.86074 -1.6024,-13.92824 -2.8399,-20.15001 L 1217.6277,243.87537 1339.5623,121.93769 1461.4969,0 h 22.9991 22.999 l -75.4858,75.490846 c -72.3434,72.348084 -75.8611,75.704134 -84.4976,80.614144 -29.5236,16.78479 -55.2737,42.45238 -75.0475,74.80729 -5.7439,9.39842 -9.0137,13.15266 -27.8326,31.95633 l -21.3241,21.30679 z M 1892.4985,122.05394 2014.4969,0 h 6.1792 C 2034.2697,0 2048,3.1543507 2048,6.2772896 2048,6.9515507 1995.6875,59.767292 1931.75,123.6456 l -116.25,116.14239 -14,0.5471 c -12.278,0.47981 -19.0386,1.24967 -28.5,3.24545 -1.6651,0.35124 38.2424,-40.2336 119.4985,-121.5266 z M 741.72184,189.70896 730.94369,178.60344 819.72184,89.551718 908.50001,0.5 l 22.969,-0.26896849 c 12.6329,-0.14793266 22.5329,0.0940195 22,0.53767155 -0.533,0.44365204 -45.969,45.63544694 -100.969,100.42620694 L 752.5,200.81448 Z m 840.22906,0.56606 c -2.998,-3.2006 -8.2178,-8.33087 -11.5996,-11.4006 l -6.1487,-5.58131 86.6702,-86.665916 86.6702,-86.66591287 22.7315,0.26935943 L 1783.006,0.5 1685.2039,98.297152 1587.4019,196.0943 Z M 0.0035502,101.99698 0.0071002,79.5 39.74533,39.731844 79.48355,-0.03631108 101.74588,0.23184446 124.00821,0.5 62.00411,62.496976 2.0408154e-7,124.49395 Z M 1118.5,105.83353 c -1.65,-1.11114 -8.1173,-4.49542 -14.3717,-7.520612 L 1092.7566,92.812571 1138.6283,46.656285 1184.5,0.5 l 23,-0.2638545 23,-0.2638545 -53.9965,54.013855 c -29.6981,29.707619 -54.2231,53.980964 -54.5,53.940754 -0.2769,-0.0402 -1.8535,-0.98222 -3.5035,-2.09337 z"
       id="path1" />
  </g>
</svg>
