<?xml version="1.0" encoding="UTF-8" standalone="no"?>
<!-- Created with Inkscape (http://www.inkscape.org/) -->

<svg
   version="1.1"
   id="svg1"
   width="2048"
   height="2048"
   viewBox="0 0 2048 2048"
   xmlns="http://www.w3.org/2000/svg"
   xmlns:svg="http://www.w3.org/2000/svg">
  <defs
     id="defs1" />
  <g
     id="g1">
    <path
       style="fill:#000000"
       d="m 7.1543576,2044.4764 c -3.8366,-3.2283 -5.9354,-9.7796 -6.82005005,-21.2886 l -0.64378,-8.3754 L 128.44001,1886.06 l 128.74948,-128.7524 10.65525,4.7348 c 5.8604,2.6042 13.01546,5.5648 15.90014,6.5791 l 5.24489,1.8443 -137.74489,138.0075 c -75.759682,75.9042 -138.470322,138.1475 -139.356972,138.3186 -0.88665,0.1711 -3.0167504,-0.8709 -4.7335504,-2.3155 z M 356.53084,1931.9259 471.73174,1816.8518 494.36493,1816.6759 516.99812,1816.5 401.75068,1931.75 286.50325,2047 H 263.9166 241.32995 Z m 275.66683,1.3241 c 62.64626,-62.5625 114.06681,-113.75 114.26788,-113.75 0.20108,0 3.89109,2.1113 8.20002,4.6918 4.30894,2.5805 10.91753,5.9091 14.68577,7.3969 l 6.85133,2.7051 L 669.8531,1940.6469 563.50352,2047 h -22.60407 -22.60408 z m 262.51671,13.5 100.353,-100.25 22.71632,-0.2636 22.7163,-0.2635 L 940.00188,1946.4864 839.50373,2047 h -22.57121 -22.57121 z m 283.13632,-0.227 100.6493,-100.477 23.4981,-0.023 L 1325.4963,1846 1225,1946.5 1124.5037,2047 h -23.6511 -23.6512 z m 263.1137,13.1937 c 48.1446,-48.0059 93.6312,-93.2309 101.0813,-100.5 L 1555.5914,1846 h 23.9524 23.9525 L 1503,1946.5 1402.5037,2047 h -24.5374 -24.5374 z m 292.763,-15.9667 c 56.8187,-56.7875 104.3116,-103.5432 105.5397,-103.9015 22.3869,-6.5317 30.6472,-9.9787 42.003,-17.528 22.2409,-14.7858 37.4838,-36.5704 44.8526,-64.1021 l 2.1369,-7.9842 59.8837,-59.8671 59.8837,-59.8671 -0.2635,23.5 -0.2635,23.5 -185.0142,184.75 -185.0141,184.75 h -23.5256 -23.5255 z m 208.7134,67.5 c 19.832,-19.6625 51.696,-51.2664 70.8087,-70.2308 L 2048,1906.5383 v 22.6743 22.6742 l -49.4255,47.5566 L 1949.149,2047 h -21.3833 -21.3832 z M -2.4489797e-6,1761.6159 v -24.1217 L 64.807408,1672.6926 l 64.807412,-64.8017 3.33086,8.8046 c 1.83198,4.8425 5.00538,12.443 7.05202,16.8901 l 3.72115,8.0855 -71.859422,72.0333 L -2.4489796e-6,1785.7377 Z M 736,1783.1831 c 0,-0.7116 18.20663,-19.0908 28.90909,-29.1831 7.62452,-7.1898 19.93085,-18.048 30.59091,-26.9912 6.05,-5.0755 12.13732,-10.4164 13.52739,-11.8685 2.33669,-2.4411 14.73872,-13.2026 48.29837,-41.9096 7.24582,-6.198 13.84922,-12.048 14.67422,-13 0.825,-0.9519 7.575,-6.9024 15,-13.2235 7.425,-6.321 14.4,-12.4501 15.5,-13.6203 1.1,-1.1702 6.725,-6.1125 12.5,-10.9828 19.6661,-16.5854 32.9842,-29.8171 44.3732,-44.0855 7.7054,-9.6534 9.5604,-12.2131 18.3482,-25.3186 2.0284,-3.025 7.3254,-12.7 11.7711,-21.5 14.12522,-27.9603 23.57812,-55.0509 28.08922,-80.5 1.934,-10.9101 3.2464,-31.7367 2.4992,-39.658 l -0.5809,-6.158 -5.5,3.5513 c -3.025,1.9532 -7.3,4.7446 -9.5,6.2032 -2.2,1.4585 -5.12502,3.2168 -6.50002,3.9072 -1.375,0.6904 -4.75,2.5055 -7.5,4.0335 -8.6295,4.7951 -20.711,10.777 -28.5,14.1113 -16.2535,6.9577 -18.8263,7.9617 -28,10.9265 -8.3191,2.6887 -29.7394,9.7614 -40,13.2075 -6.5668,2.2056 -19.4916,7.0893 -23.7767,8.9843 -2.3522,1.0401 -4.7706,1.8912 -5.3742,1.8912 -0.6035,0 -4.754,1.6012 -9.22322,3.5583 -4.46922,1.957 -10.37586,4.4961 -13.12586,5.6425 -2.75,1.1463 -8.23475,3.5951 -12.18833,5.4417 -3.95359,1.8466 -7.4544,3.3575 -7.7796,3.3575 -0.90883,0 -35.08604,17.2162 -43.42056,21.8723 -4.06367,2.2703 -7.68874,4.1277 -8.05572,4.1277 -0.36698,0 -2.21716,1.1563 -4.11151,2.5695 -1.89435,1.4132 -4.79428,3.2058 -6.44428,3.9835 -1.65,0.7777 -5.7,3.2063 -9,5.3968 -3.3,2.1906 -6.675,4.3034 -7.5,4.6951 -1.69178,0.8033 -18.14429,12.0213 -25,17.0459 -2.475,1.8139 -6.075,4.3817 -8,5.7062 -6.14156,4.2256 -33.17992,27.4958 -42.5,36.5771 -10.13785,9.8781 -16.21916,16.34 -24.96365,26.5259 -3.30518,3.85 -6.24048,7.225 -6.52289,7.5 -4.87187,4.7441 -23.92379,33.0757 -45.58733,67.7916 -4.93791,7.9131 -15.60877,24.3804 -16.65911,25.7084 -0.43499,0.55 -2.14874,2.8 -3.80833,5 -6.24486,8.2784 -7.59703,9.8826 -12.94905,15.363 -9.99255,10.2322 -20.07174,15.5931 -37.00964,19.6844 -12.95826,3.13 -32.36123,4.2859 -42.5289,2.5334 -13.46445,-2.3207 -29.28672,-8.0848 -36.87939,-13.4353 -7.40057,-5.2152 -17.50533,-14.5399 -22.30401,-20.5823 -9.79054,-12.328 -7.95933,-11.1453 -14.7877,-9.5508 -19.67657,4.5949 -29.30234,5.7996 -49.8895,6.2436 -23.30383,0.5026 -18.7821,1.3287 -43.1105,-7.8766 -15.10607,-5.7158 -31.58865,-13.2247 -39,-17.7672 -9.74345,-5.9717 -12.5757,-8.0408 -22,-16.0717 -13.18269,-11.2336 -19.93599,-18.0667 -34,-34.4015 -24.46743,-28.4181 -38.10477,-66.0792 -42.59782,-117.639 -3.50141,-40.1804 4.17335,-68.9949 30.23078,-113.5 4.42652,-7.5603 19.437,-30.6582 22.09542,-34 0.43752,-0.55 2.14144,-2.8 3.78648,-5 1.64505,-2.2 3.68266,-4.9 4.52803,-6 0.84538,-1.1 2.53156,-3.317 3.74708,-4.9266 5.95111,-7.8806 26.00571,-32.3788 30.71003,-37.5146 0.825,-0.9007 4.425,-4.9771 8,-9.0588 3.575,-4.0817 7.175,-8.1434 8,-9.026 3.70728,-3.9663 15.10714,-16.8913 18.49906,-20.974 2.05626,-2.475 4.04875,-4.725 4.42776,-5 0.37901,-0.275 1.33802,-1.4375 2.13114,-2.5834 1.43387,-2.0716 7.59231,-9.5544 11.47444,-13.942 1.11783,-1.2634 3.14283,-3.759 4.5,-5.5458 1.35718,-1.7868 5.3926,-6.9543 8.9676,-11.4833 6.98963,-8.8549 7.34236,-9.326 16.71548,-22.3254 3.41852,-4.741 6.62015,-9.0984 7.11473,-9.6831 0.49459,-0.5846 1.47749,-2.1596 2.18422,-3.5 0.70674,-1.3403 1.56496,-2.662 1.90715,-2.937 2.24903,-1.8074 20.52083,-32.7731 26.9209,-45.6235 11.7373,-23.5668 15.91514,-38.3712 17.17955,-60.8765 1.66085,-29.5616 5.3291,-55.8358 9.63338,-69 2.66853,-8.1614 8.13284,-20.1338 12.37498,-27.1138 2.21873,-3.6506 18.76044,-26.29974 20.00146,-27.3862 0.31412,-0.275 2.12296,-2.72995 4.01964,-5.45544 5.10907,-7.34163 5.22364,-7.47852 18.44851,-22.04266 10.1195,-11.1443 39.43284,-39.97221 50.19517,-49.36395 4.50734,-3.93332 8.43409,-7.53808 8.7261,-8.01057 0.29201,-0.47248 -2.1709,-7.55693 -5.47315,-15.74322 -27.67793,-68.6138 -41.47197,-147.64429 -38.08416,-218.19648 0.51004,-10.62178 1.2195,-19.60448 1.57659,-19.96156 0.65318,-0.65318 3.61222,0.22535 26.55945,7.88537 23.31009,7.78116 28.81507,9.71917 31.13629,10.96145 1.27416,0.68191 3.67725,1.5845 5.34018,2.00575 4.18114,1.05914 14.66204,5.30667 34.10329,13.82079 3.89386,1.70529 7.52129,3.10052 8.06095,3.10052 0.53965,0 1.57743,-2.3625 2.30617,-5.25 7.25699,-28.75456 21.5502,-62.89035 34.9667,-83.50928 3.3137,-5.09261 6.47718,-9.81761 7.02996,-10.5 0.55278,-0.6824 3.34609,-4.16572 6.20735,-7.74072 12.19802,-15.24082 39.79611,-40.7349 56.29151,-52 1.20804,-0.825 4.81339,-3.3 8.01189,-5.5 3.19851,-2.2 6.52511,-4.45 7.39246,-5 0.86734,-0.55 5.10837,-3.3625 9.4245,-6.25 4.31613,-2.8875 8.17529,-5.25 8.5759,-5.25 0.40062,0 2.2864,-1.33171 4.19062,-2.95936 1.90423,-1.62765 3.79105,-2.97765 4.19294,-3 0.40188,-0.0224 4.22688,-2.40314 8.5,-5.29064 4.27311,-2.8875 8.50019,-5.7 9.39352,-6.25 0.89332,-0.55 4.23185,-2.8 7.41894,-5 6.55494,-4.52478 6.68709,-4.61471 14.35226,-9.76779 9.00461,-6.05353 21.24492,-14.42414 26.10457,-17.85176 2.475,-1.74567 7.7112,-5.36249 11.636,-8.03737 3.9248,-2.67489 7.6924,-5.53385 8.37244,-6.35325 0.68005,-0.81941 1.67889,-1.48983 2.21965,-1.48983 0.54076,0 2.2576,-1.0125 3.8152,-2.25 1.5576,-1.2375 4.77256,-3.64454 7.14436,-5.34897 2.37179,-1.70444 8.75548,-6.42944 14.18597,-10.5 5.43046,-4.07057 11.13796,-8.30103 12.68326,-9.40103 6.822,-4.85615 49.5753,-40.41792 56.0047,-46.58417 1.9589,-1.8787 7.2988,-6.79083 11.8665,-10.91583 4.5676,-4.125 12.3886,-11.40135 17.3799,-16.16966 l 9.0751,-8.66966 -6.9416,-3.46861 c -10.2643,-5.12898 -13.7072,-7.033 -17.1495,-9.48417 -1.7054,-1.21435 -3.3932,-2.2079 -3.7507,-2.2079 -0.3576,0 -3.8881,-2.75815 -7.8457,-6.12923 -21.0204,-17.90527 -30.6531,-33.13936 -36.3379,-57.46876 -2.8508,-12.20041 -2.5898,-35.9639 0.5254,-47.84929 6.8342,-26.07349 22.4997,-47.31916 48.6169,-65.93426 5.1366,-3.66115 28.5772,-15.61846 30.6177,-15.61846 0.6272,0 4.1288,-1.07798 7.7813,-2.39551 16.3156,-5.88537 50.76102,-7.89898 73.34702,-4.28772 19.3253,3.08991 41.5929,11.80881 56.0763,21.95678 5.2763,3.69688 21.9202,17.99587 25.1521,21.60846 18.2467,20.39613 27.5407,43.84782 27.5197,69.44035 -0.013,15.41227 -4.6269,35.37745 -10.7879,46.67764 -3.3373,6.12114 -6.484,11.39557 -7.1591,12 -0.3072,0.275 -1.7463,2.075 -3.198,4 -9.2446,12.25828 -23.8229,23.86256 -41.703,33.19547 -5.3053,2.76925 -9.9973,5.35689 -10.4266,5.75029 -0.646,0.59194 9.0024,10.18099 30.7433,30.55424 13.4725,12.62506 46.9785,41.5 48.1558,41.5 0.3628,0 3.4095,2.37279 6.7705,5.27286 5.7572,4.96769 13.9357,11.38953 20.9888,16.48075 1.7172,1.23949 4.6971,3.38797 6.6221,4.77441 1.925,1.38644 5.3,3.86352 7.5,5.50462 2.2,1.6411 6.025,4.40605 8.5,6.14432 2.475,1.73827 6.4521,4.54706 8.8381,6.24176 2.3859,1.69471 5.2153,3.58119 6.2875,4.19218 1.0721,0.611 2.945,2.00644 4.1619,3.10099 1.2169,1.09455 2.8875,2.2745 3.7125,2.62212 0.825,0.34762 4.2,2.66439 7.5,5.14838 3.3,2.48399 6.675,4.8164 7.5,5.18312 0.825,0.36673 3.1398,1.94201 5.1439,3.50063 2.0042,1.55862 4.0866,2.83386 4.6276,2.83386 0.541,0 1.5711,0.70789 2.2892,1.57309 0.718,0.8652 2.9106,2.45145 4.8724,3.525 1.9618,1.07355 6.4083,3.96566 9.881,6.42691 3.4728,2.46125 6.5231,4.475 6.7785,4.475 0.2554,0 4.0783,2.475 8.4953,5.5 4.417,3.025 8.2681,5.5 8.558,5.5 0.2899,0 2.4007,1.27737 4.6906,2.83859 2.2899,1.56123 6.1885,4.11419 8.6635,5.67325 2.475,1.55907 6.2379,3.97784 8.362,5.37505 2.1242,1.39722 4.6521,3.00676 5.6178,3.57675 5.5126,3.25402 25.1736,17.77982 26.8926,19.86868 0.7549,0.91723 1.8918,1.66768 2.5266,1.66768 1.1178,0 7.6831,5.84369 20.101,17.89189 10.7312,10.41171 16.4346,16.74893 23.5,26.11189 1.375,1.82212 2.9617,3.80418 3.526,4.40458 3.1657,3.36815 12.9472,19.75717 18.2582,30.59164 13.6626,27.87192 24.935,63.12948 29.8935,93.5 5.438,33.30727 -1.0876,88.00184 -14.6153,122.5 -2.5967,6.6222 -9.9977,21.72024 -13.806,28.16418 -1.516,2.56529 -4.2797,7.29029 -6.1416,10.5 -1.8618,3.2097 -3.6618,6.06082 -4,6.33582 -0.3381,0.275 -2.1738,2.75 -4.0793,5.5 -1.9054,2.75 -4.063,5.61473 -4.7946,6.36607 -0.7316,0.75134 -1.1771,1.82526 -0.99,2.38648 0.187,0.56122 4.1446,3.01177 8.7946,5.44566 8.4143,4.40418 15.3786,8.19752 23.9545,13.04749 2.475,1.39971 5.8742,3.28598 7.5537,4.19171 1.6795,0.90574 4.449,2.64035 6.1543,3.85469 1.7054,1.21435 3.5136,2.2079 4.0182,2.2079 0.5047,0 2.6852,1.33748 4.8457,2.97218 2.1604,1.6347 4.3356,2.9847 4.8337,3 0.4981,0.0153 2.3806,1.15282 4.1833,2.52782 1.8027,1.375 3.524,2.5 3.8251,2.5 0.3011,0 4.0436,2.3625 8.3167,5.25 4.2731,2.8875 8.5102,5.7 9.4157,6.25 3.9661,2.40894 16.4067,11.23979 19.3706,13.75 1.7859,1.5125 3.5759,2.75 3.9778,2.75 0.7428,0 1.858,0.85879 13.6814,10.53578 3.6719,3.00532 6.9436,5.46422 7.2705,5.46422 0.7704,0 25.6022,21.03031 36.4581,30.8767 11.3708,10.3135 35.7896,34.7258 45.5952,45.5832 4.4,4.8719 9.9313,10.9842 12.2918,13.5828 4.0728,4.4836 29.2117,35.2542 33.9182,41.5166 1.2155,1.6174 2.9017,3.8407 3.7471,4.9407 0.8454,1.1 2.883,3.8 4.528,6 1.6451,2.2 3.3472,4.45 3.7826,5 0.4353,0.55 2.3532,3.2394 4.2619,5.9764 1.9087,2.737 3.8288,5.437 4.2669,6 0.7621,0.9794 7.0696,9.9558 13.7188,19.5236 3.7735,5.4299 20.31,30.8992 24.4505,37.6584 1.6313,2.6629 5.1765,8.4416 7.8784,12.8416 14.897,24.2599 38.6844,70.3384 52.6562,102 43.441,98.442 70.3254,209.2254 80.447,331.5 3.1262,37.7661 8.5503,129.2552 8.5521,144.25 L 1875,1784 H 1305.5 C 992.27498,1784 736,1783.6324 736,1783.1831 Z M 1760.7319,1672.75 c -0.4947,-71.4828 -1.0555,-82.3992 -6.2809,-122.25 -7.5865,-57.8583 -19.5361,-106.4433 -42.8516,-174.2274 -9.2783,-26.9743 -22.8426,-62.2004 -31.1029,-80.7726 -0.7338,-1.65 -3.2103,-7.275 -5.5032,-12.5 -6.2417,-14.2232 -19.8842,-41.7151 -28.4647,-57.3611 -7.6728,-13.9908 -24.8348,-43.2711 -28.3544,-48.3757 -1.0479,-1.5198 -6.273,-9.2882 -11.6114,-17.2632 -5.3384,-7.975 -11.7051,-17.2 -14.1482,-20.5 -2.4432,-3.3 -5.5116,-7.575 -6.8188,-9.5 -3.4058,-5.0156 -35.4852,-44.0269 -43.9523,-53.4498 -14.2587,-15.8681 -39.7318,-40.3129 -54.6435,-52.4375 -16.5825,-13.4831 -19.2057,-15.5666 -21.7992,-17.315 -1.4854,-1.0014 -4.5008,-3.1728 -6.7008,-4.8253 -3.661,-2.74988 -11.4067,-8.24676 -16.8704,-11.9724 -1.2099,-0.825 -3.7032,-2.4 -5.5407,-3.5 -1.8375,-1.1 -4.5217,-2.94919 -5.9649,-4.10931 -1.4432,-1.16011 -3.974,-2.87855 -5.624,-3.81875 -3.2258,-1.8381 -6.6016,-3.86131 -16.6163,-9.95847 -11.0459,-6.72498 -13.431,-8.07201 -29.8837,-16.87761 -26.5022,-14.18409 -60.8663,-30.31 -81.7445,-38.35987 -3.4344,-1.3242 -9.2844,-3.57847 -13,-5.00949 C 1266.7521,902.0103 1245.5231,894.68597 1229,889.64754 1207.8812,883.20771 1200.2231,881 1199.0037,881 c -0.7219,0 -5.1805,-1.08317 -9.9081,-2.40704 -19.8211,-5.55055 -81.4186,-17.60325 -82.8172,-16.20474 -0.1325,0.13258 0.6227,4.71197 1.6784,10.17642 3.3361,17.26849 5.1089,33.36398 5.7362,52.08119 1.0177,30.36282 -2.2258,39.13982 -16.953,45.8755 -13.1617,6.01973 -34.2004,3.66223 -43.5873,-4.88418 -5.3243,-4.84753 -5.8594,-7.47897 -6.4335,-31.63715 -0.6013,-25.30332 -2.5645,-39.32116 -8.3017,-59.27429 -3.5216,-12.24768 -9.9867,-28.96982 -14.199,-36.72571 -8.135,-14.97868 -10.0729,-18.26589 -15.0325,-25.5 -8.6669,-12.64166 -19.84992,-26.12184 -30.68602,-36.9894 C 965.26548,762.23765 955.02868,753 953.55448,753 c -4.1829,0 -31.3268,28.96837 -42.6345,45.5 -1.881,2.75 -3.6784,5.225 -3.9943,5.5 -0.3159,0.275 -3.0679,4.775 -6.1154,10 -16.7272,28.67837 -25.5742,55.6411 -29.3084,89.32191 -0.8234,7.42603 -1.7867,14.32902 -2.1409,15.33998 -1.9171,5.47332 -6.2292,10.64901 -11.361,13.63639 -5.4542,3.17507 -5.61236,3.20161 -18.99998,3.18853 -12.75484,-0.0125 -13.84705,-0.17272 -19.78744,-2.90337 -6.69848,-3.07912 -11.03074,-7.53277 -13.85693,-14.24524 -1.75635,-4.17148 -2.34818,-14.48236 -1.03824,-18.0882 1.0596,-2.91675 -1.22975,-2.99519 -8.52988,-0.29226 -2.90813,1.07676 -7.08751,2.39109 -9.28751,2.92072 -3.47433,0.83642 -11.21457,3.51233 -32,11.06284 -7.68703,2.79239 -14.64849,5.72983 -31.28703,13.20179 -17.16337,7.70766 -22.6954,9.28682 -29.21297,8.33908 -5.40264,-0.78561 -13.56482,-5.24246 -17.3206,-9.45769 -9.29766,-10.43503 -12.70627,-20.95091 -9.19172,-28.35727 3.60326,-7.59331 10.89752,-12.53194 30.51232,-20.6586 3.025,-1.2533 8.2,-3.53421 11.5,-5.06871 3.3,-1.53449 8.925,-4.01752 12.5,-5.51783 6.14341,-2.5782 16.26365,-6.8673 25.75,-10.9132 2.3375,-0.99694 4.25,-1.93247 4.25,-2.07896 0,-1.67871 -2.12597,-4.03803 -6.83569,-7.586 -3.11537,-2.3469 -8.36431,-6.56662 -11.66431,-9.37716 -5.72827,-4.87865 -15.34542,-12.3324 -19.87764,-15.40612 -1.1673,-0.79165 -3.11799,-2.31675 -4.33487,-3.3891 -1.21689,-1.07235 -3.07614,-2.44963 -4.13169,-3.06063 -1.05554,-0.61099 -4.78491,-3.13486 -8.28748,-5.60859 -3.50258,-2.47372 -7.09563,-4.94872 -7.98456,-5.5 -1.42421,-0.88322 -6.93788,-4.52269 -20.2458,-13.36384 -2.12412,-1.41117 -4.67859,-3.03212 -5.6766,-3.60211 -0.99801,-0.57 -3.98509,-2.33633 -6.63796,-3.92518 -14.99057,-8.97813 -39.3311,-22.28079 -52.8234,-28.8692 -10.14393,-4.95337 -22.75006,-10.90757 -28,-13.22512 -2.75,-1.21397 -7.80726,-3.48212 -11.23836,-5.04034 -3.4311,-1.55822 -6.48815,-2.58335 -6.79344,-2.27805 -1.31967,1.31967 3.9958,35.63481 9.14859,59.06063 6.21863,28.27142 17.89152,65.8057 25.97427,83.52054 1.32492,2.90379 2.40894,5.52013 2.40894,5.81407 0,0.29395 1.125,2.99395 2.5,6 1.375,3.00606 2.5,5.67779 2.5,5.93717 0,0.63659 14.90175,30.45615 18.97434,37.96912 4.48871,8.28064 14.33526,24.89187 15.11549,25.5 1.61643,1.25988 5.00562,9.41722 5.5437,13.34297 1.29618,9.45668 -7.15538,20.1894 -21.59114,27.41883 -6.78612,3.3985 -8.20291,3.7382 -15.59014,3.7382 -7.68136,0 -8.42666,-0.1999 -13.63045,-3.65497 -7.8606,-5.21914 -18.36276,-18.59959 -27.93208,-35.58733 C 558.75689,958.47143 556,956.55886 556,958.86548 c 0,0.47601 -3.2625,3.57521 -7.25,6.88711 -11.76496,9.77163 -20.68249,19.20774 -28.11258,29.74741 -12.19762,17.3025 -28.21555,41.9018 -32.88327,50.5 -1.94076,3.575 -4.62781,8.525 -5.97123,11 -3.38421,6.2348 -7.50524,18.5617 -8.74159,26.1481 -0.78543,4.8194 -0.64788,10.5291 0.57015,23.6663 1.57979,17.0391 1.57148,17.4608 -0.52276,26.5237 -5.17048,22.3753 -14.02396,44.8657 -24.86414,63.1619 -3.3643,5.6783 -13.78314,21.8451 -15.46703,24 -0.42978,0.55 -2.12068,2.8 -3.75755,5 -1.63687,2.2 -3.319,4.4606 -3.73806,5.0236 -0.41907,0.563 -2.32095,3.263 -4.22641,6 -1.90545,2.737 -3.93045,5.4823 -4.5,6.1007 -0.56954,0.6183 -4.86053,6.3979 -9.53553,12.8434 -4.675,6.4456 -10.525,14.3302 -13,17.5214 -2.475,3.1912 -5.37194,7.0027 -6.43764,8.4699 -1.0657,1.4672 -2.6407,3.5384 -3.5,4.6027 -0.8593,1.0643 -3.58736,4.6453 -6.06236,7.9578 -2.475,3.3126 -7.425,9.7909 -11,14.3962 -3.575,4.6054 -7.4,9.6213 -8.5,11.1465 -1.1,1.5252 -5.04108,6.6352 -8.75797,11.3555 -6.77917,8.6092 -7.93785,10.1012 -12.032,15.4926 -1.21552,1.6007 -6.13446,7.9007 -10.93099,14 -4.79653,6.0993 -9.4099,11.9897 -10.25194,13.0897 -0.84204,1.1 -6.73227,8.525 -13.08939,16.5 -15.35233,19.2595 -14.40727,18.0853 -17.34828,21.5547 -1.42418,1.6801 -3.71443,4.5638 -5.08943,6.4083 -1.375,1.8446 -2.95,3.845 -3.5,4.4454 -1.65491,1.8065 -6.05814,8.6312 -10.8534,16.822 -4.07283,6.9568 -6.54613,11.8914 -12.11553,24.1724 -3.4164,7.5334 -11.40992,33.2943 -13.07905,42.1501 -2.32632,12.3425 -1.53556,40.5916 1.53809,54.9471 4.1381,19.327 11.12643,36.1143 19.92489,47.8635 4.93007,6.5834 20.78589,22.6365 22.35835,22.6365 0.52529,0 3.49118,2.1503 6.59086,4.7785 10.96279,9.2953 25.93962,17.9031 42.13579,24.2171 11.58144,4.515 32.73354,6.2415 48.30845,3.9431 8.00725,-1.1816 21.94057,-5.6401 31.40639,-10.0497 6.08336,-2.8339 16.53163,-10.5239 19.05744,-14.0264 0.69975,-0.9704 1.84615,-2.3489 2.54754,-3.0634 2.33795,-2.3818 7.34337,-10.2113 11.69873,-18.2992 6.54961,-12.1627 18.21675,-29.3309 24.25598,-35.6927 6.39298,-6.7344 13.49812,-10.8073 18.85341,-10.8073 2.10653,0 6.78117,0.9688 10.38809,2.1528 8.74741,2.8716 13.22161,8.4912 15.00569,18.8472 0.67325,3.908 -2.48614,13.8036 -10.09352,31.6142 -2.43551,5.7021 -4.4282,10.5808 -4.4282,10.8415 0,1.216 -15.96716,26.5287 -18.00569,28.5443 -0.27813,0.275 -1.7701,2.1961 -3.3155,4.2692 -1.5454,2.073 -3.79284,4.8393 -4.99431,6.1473 -1.20148,1.3079 -3.2744,3.6618 -4.60651,5.2308 -1.3321,1.569 -4.3806,5.0511 -6.77443,7.738 -4.83579,5.4279 -4.83125,5.1834 -0.28059,15.1147 3.40583,7.4328 10.03181,15.0711 14.84277,17.1104 10.61648,4.5 24.59744,-0.8611 38.09457,-14.6079 7.36905,-7.5053 8.70997,-9.4817 23.74774,-35.0025 11.02186,-18.7054 21.75177,-35.8789 24.09386,-38.563 0.51015,-0.5846 1.50579,-2.1596 2.21252,-3.5 0.70674,-1.3403 1.56262,-2.662 1.90196,-2.937 0.33933,-0.275 2.85829,-3.875 5.59768,-8 2.73938,-4.125 5.33421,-7.95 5.76628,-8.5 0.43207,-0.55 4.01891,-5.5 7.97075,-11 3.95184,-5.5 7.6495,-10.4912 8.21703,-11.0916 0.56753,-0.6004 2.15687,-2.5937 3.53187,-4.4295 1.375,-1.8358 3.4,-4.3513 4.5,-5.5901 1.1,-1.2387 4.23369,-4.8705 6.96376,-8.0705 7.38534,-8.6568 31.20605,-32.0971 38.43204,-37.8183 10.49283,-8.3078 18.8788,-14.8441 22.8459,-17.8068 12.21991,-9.126 18.08714,-13.447 20.64886,-15.2071 1.5898,-1.0924 4.13741,-2.8861 5.66133,-3.9861 3.79897,-2.7422 22.99639,-15.7669 25.0566,-17 0.91893,-0.55 4.53295,-2.7489 8.03115,-4.8865 7.40834,-4.5269 9.74656,-5.8906 23.86036,-13.9151 15.43172,-8.7739 32.04762,-17.3365 41.33005,-21.2986 15.77713,-6.7341 19.20005,-8.1474 22.66995,-9.3603 1.925,-0.6729 7.775,-2.8116 13,-4.7527 5.225,-1.9411 11.525,-4.1107 14,-4.8214 2.475,-0.7107 6.75,-2.1703 9.5,-3.2436 4.63448,-1.8089 16.24438,-6.1455 24.49998,-9.1515 5.3306,-1.941 20.3594,-7.8146 36,-14.0696 15.7552,-6.3009 37.4735,-17.2925 48.5,-24.5459 3.3,-2.1708 6.4598,-4.1737 7.0216,-4.4509 10.4847,-5.1717 38.97392,-30.1199 52.97842,-46.3934 2.75,-3.1955 5.4663,-6.3277 6.0362,-6.9603 2.5891,-2.874 13.7758,-18.9352 18.3908,-26.4043 6.7654,-10.9498 14.3593,-26.1739 18.054,-36.1943 6.6021,-17.9058 9.844,-45.9374 7.837,-67.7639 -1.342,-14.5939 -1.2815,-16.5136 0.6476,-20.5545 3.2469,-6.8013 12.3693,-10.4516 28.5534,-11.4257 21.671,-1.3042 34.4383,5.6487 39.5539,21.5406 1.4384,4.4686 1.6127,7.5171 1.0596,18.5365 -2.6333,52.4724 -19.7112,100.6262 -51.3502,144.7906 -3.6741,5.1286 -7.1532,9.8371 -7.7313,10.4632 -5.1271,5.5534 -5.0471,4.8556 -1.6927,14.7556 8.4725,25.0055 10.6549,39.5524 10.5925,70.606 -0.042,20.88 -0.3842,26.3936 -2.3166,37.3159 -5.4113,30.5864 -14.7197,57.481 -31.2046,90.1594 -10.0222,19.867 -12.1232,23.5284 -21.1532,36.8628 -17.0926,25.24 -50.27622,58.022 -89.74812,88.6619 -3.897,3.025 -8.8146,6.9625 -10.928,8.75 -2.1135,1.7875 -4.1787,3.25 -4.5895,3.25 -0.4107,0 -2.2314,1.2375 -4.0461,2.75 -3.5801,2.9841 -7.4317,5.889 -10.9386,8.25 -6.5731,4.4254 -9.1299,6.271 -21.4346,15.4728 -7.3747,5.5149 -14.1374,10.4772 -15.0283,11.0272 -3.0359,1.8744 -11.0632,8.921 -11.0632,9.7118 0,0.4335 200.06942,0.7882 444.59872,0.7882 h 444.5987 z M 313.17964,1561.0477 c -6.71299,-2.2863 -10.74818,-6.3894 -13.23121,-13.4541 -2.3454,-6.6731 -2.42524,-10.5767 -0.43142,-21.0936 3.05774,-16.1287 9.80586,-31.5592 19.0724,-43.6116 5.28032,-6.8678 17.41999,-19.1836 21.86385,-22.181 23.20027,-15.6491 26.71696,-17.4883 36.57348,-19.1277 3.40219,-0.5658 11.79961,1.1002 16.97326,3.3675 7.83206,3.4324 17.15455,13.7349 19.69289,21.7632 2.402,7.5971 0.82753,12.1645 -6.68032,19.3792 -3.19921,3.0743 -7.54831,6.4047 -9.66466,7.401 -6.33547,2.9824 -16.15257,10.8351 -20.89807,16.7163 -1.90522,2.3612 -3.86797,4.7907 -4.36168,5.3989 -2.73187,3.3654 -6.31971,13.5928 -7.04863,20.0927 -1.66656,14.8607 -8.19295,22.4764 -22.06271,25.7454 -8.86313,2.089 -23.05441,1.9003 -29.79718,-0.3962 z M 554,1197.1266 c -10.11697,-3.4637 -13.23759,-5.2336 -18.41896,-10.4465 C 529.74732,1180.8109 528,1176.3565 528,1167.3539 c 0,-5.0761 0.6782,-7.2558 4.78665,-15.384 6.16113,-12.1892 9.43546,-17.7399 15.90929,-26.9699 7.48628,-10.6734 8.49511,-12.0421 11.39052,-15.453 1.42256,-1.6759 3.67256,-4.3299 5,-5.8978 9.0015,-10.6322 33.37037,-32.2442 43.0156,-38.1492 2.10042,-1.2859 6.66369,-4.284 10.07559,-6.6198 8.11141,-5.553 32.42128,-17.8627 44.32235,-22.4434 4.95,-1.9052 11.26962,-4.3624 14.0436,-5.4605 17.58477,-6.9607 33.76768,-8.7801 43.66938,-4.9097 10.47635,4.095 18.53794,15.4601 19.5341,27.5387 1.10585,13.4089 -3.51963,18.5916 -24.24708,27.1683 -2.75,1.1379 -8.02299,3.4239 -11.71777,5.0801 l -6.71776,3.0111 3.50838,5.8176 c 9.01274,14.945 8.90436,31.629 -0.32173,49.5303 -6.27495,12.1752 -15.08317,19.6164 -28.25112,23.8666 -6.5525,2.1149 -9.33183,2.4162 -22,2.3853 -12.48374,-0.031 -15.84052,-0.4016 -24.14043,-2.6683 -5.30223,-1.4481 -11.48079,-3.7946 -13.73013,-5.2146 -2.24933,-1.4199 -4.52139,-2.5817 -5.04901,-2.5817 -0.98774,0 -9.92071,14.0316 -13.99156,21.9775 -3.32655,6.4931 -6.68132,10.134 -12.40341,13.4614 -6.63512,3.8584 -18.20733,4.5902 -26.68546,1.6877 z M 1346.0933,858.75 c 2.43,-2.85659 14.1511,-20.33391 16.6593,-24.8405 17.2377,-30.97172 25.4492,-59.46464 26.9202,-93.4095 1.3078,-30.17836 -5.3467,-58.9738 -21.3435,-92.35747 -10.7318,-22.39612 -23.3061,-39.96834 -42.0526,-58.7674 -12.0967,-12.13052 -29.1742,-26.39786 -40.3859,-33.74009 -5.2546,-3.44112 -7.1546,-4.75773 -17.5118,-12.13504 -5.4052,-3.85 -10.9642,-7.76778 -12.3533,-8.70619 -1.3891,-0.9384 -4.7757,-3.32596 -7.5257,-5.30569 -5.8564,-4.21605 -12.1371,-8.57357 -14.3963,-9.98812 -0.8784,-0.55 -3.0004,-2.125 -4.7154,-3.5 -2.641,-2.11731 -11.1479,-8.11702 -19.8504,-14 -4.0177,-2.71599 -9.9951,-6.94889 -12.5379,-8.87865 -3.0053,-2.28077 -15.2811,-11.01959 -18.4321,-13.12135 -1.2369,-0.825 -4.1812,-2.85 -6.5429,-4.5 -2.3617,-1.65 -5.2734,-3.675 -6.4704,-4.5 -4.8389,-3.33495 -19.2269,-13.97573 -39.2127,-29 -21.7677,-16.36387 -74.8509,-61.93521 -96.3096,-82.68078 -2.4572,-2.37557 -5.1578,-4.31922 -6.0013,-4.31922 -0.8434,0 -4.0703,2.3625 -7.1707,5.25 -12.4095,11.55714 -22.58782,20.72854 -26.86032,24.20296 -2.475,2.01269 -5.4,4.67686 -6.5,5.92036 -2.5985,2.93757 -34.1504,29.62668 -35.0246,29.62668 -0.3674,0 -3.4372,2.39482 -6.8217,5.32183 -5.8224,5.03532 -15.5538,12.76735 -21.6202,17.17817 -1.5129,1.1 -8.1018,6.04732 -14.6421,10.99405 -6.5403,4.94672 -13.4664,10.08622 -15.3914,11.42109 -3.8801,2.69061 -10.5312,7.38609 -15.3527,10.83847 -1.731,1.23949 -4.7223,3.35181 -6.6473,4.69406 -1.925,1.34225 -7.325,5.1653 -11.99998,8.49567 -10.24734,7.29999 -15.57406,11.05235 -18.53478,13.05666 -1.21867,0.825 -6.58479,4.65 -11.92472,8.5 -5.33993,3.85 -10.58793,7.49991 -11.66222,8.1109 -1.07429,0.611 -2.97789,2.0735 -4.23022,3.25 -1.25233,1.17651 -2.63855,2.1391 -3.0805,2.1391 -0.44194,0 -2.26469,1.2375 -4.05055,2.75 -2.91788,2.47124 -15.22588,11.2041 -19.37909,13.75 -0.89724,0.55 -3.0553,2.125 -4.7957,3.5 -1.7404,1.375 -4.66688,3.53247 -6.50329,4.79439 -11.80202,8.1099 -28.71775,20.81454 -36.37566,27.3201 -9.56298,8.12397 -26.19995,24.99609 -31.02727,31.46583 -1.60854,2.15582 -3.20336,4.14468 -3.54405,4.41968 -0.34068,0.275 -3.65494,4.98808 -7.36501,10.4735 C 682.45464,638.84416 670.8559,664.52451 664.60885,686.5 662.48084,693.98581 659,711.09657 659,714.07146 c 0,0.71775 8.25418,5.71015 20.70886,12.52541 4.27049,2.33683 6.99406,3.96145 13.29114,7.92819 8.71551,5.49019 19.26725,12.06322 20.82877,12.97494 0.94199,0.55 3.26905,2.125 5.17123,3.5 1.90218,1.375 4.19875,2.95 5.10348,3.5 0.90474,0.55 4.25118,2.8 7.43654,5 3.18536,2.2 6.63382,4.49991 7.66326,5.1109 1.02943,0.611 2.89633,2.0735 4.14866,3.25 1.25233,1.17651 2.72627,2.1391 3.27542,2.1391 0.54915,0 2.29184,1.35 3.87264,3 1.5808,1.65 3.24467,3 3.69749,3 0.93922,0 9.52963,6.76143 23.82192,18.75 5.40943,4.5375 10.29249,8.25 10.85125,8.25 0.55876,0 1.64414,0.8969 2.41196,1.99311 0.76782,1.09621 4.95583,4.99614 9.3067,8.6665 4.35088,3.67036 10.75001,9.36163 14.22031,12.64726 3.62982,3.43667 6.6766,5.59572 7.17366,5.0835 0.47522,-0.4897 2.72194,-5.57102 4.9927,-11.29181 4.03045,-10.154 12.11465,-27.08986 16.2767,-34.09856 3.13551,-5.28006 17.00169,-26.33851 18.19889,-27.63841 1.7204,-1.86809 3.9929,-4.71956 5.6415,-7.07878 4.4512,-6.37007 27.3368,-30.22072 33.5323,-34.94626 1.8561,-1.41566 3.3746,-2.93212 3.3746,-3.36992 0,-0.43779 -3.3306,-1.10809 -7.4013,-1.48955 -17.1313,-1.60534 -26.7668,-13.33571 -25.3591,-30.87259 0.8632,-10.75399 5.3321,-17.08666 15.4345,-21.87149 l 6.8259,-3.233 47.208,-0.29555 47.208,-0.29554 0.292,-40.70446 0.292,-40.70445 2.4917,-4.87891 c 5.4518,-10.67538 15.39592,-15.15163 33.50832,-15.08345 17.0451,0.0642 26.1268,4.26842 31.2408,14.46236 l 2.7592,5.5 0.2921,40.71367 0.292,40.71366 48.208,0.28634 48.2079,0.28633 6,2.40914 c 10.5385,4.23145 16.5,13.45348 16.5,25.52419 0,6.36317 -2.4771,15.08902 -5.0751,17.87765 -1.0587,1.13638 -1.9249,2.33621 -1.9249,2.66629 0,0.33009 -2.5692,2.15773 -5.7094,4.06144 l -5.7095,3.46129 -50.2905,0.31624 -50.2906,0.31624 v 31.31131 c 0,26.65208 0.2238,31.4971 1.5043,32.55978 1.5608,1.29536 16.2072,23.08092 17.1247,25.47194 0.3537,0.92186 3.3046,1.57032 9.1959,2.02086 4.7713,0.36488 14.7501,1.31034 22.1751,2.10102 7.425,0.79068 18.675,1.8884 25,2.43938 24.7828,2.15887 82.9535,12.75847 107.1971,19.53297 4.7834,1.33664 9.3905,2.43026 10.238,2.43026 1.4107,0 5.7265,1.25331 29.0649,8.44048 11.8935,3.66266 30.8673,10.04502 40.5,13.62328 4.675,1.73663 10.8595,3.98369 13.7434,4.99348 2.8838,1.00979 6.0338,2.29632 7,2.85896 2.331,1.35747 2.1655,1.40184 4.3499,-1.1662 z M 1047.5,279.4557 c 3.3,-0.91931 7.7055,-2.07924 9.79,-2.57761 8.0607,-1.92721 20.9965,-11.42918 26.5005,-19.46595 6.2397,-9.11095 9.7398,-30.78769 7.3881,-45.75564 -3.7084,-23.60316 -18.3441,-38.3533 -42.8827,-43.21816 -26.3782,-5.22958 -57.01992,-1.2551 -71.53742,9.27901 -15.1845,11.01815 -21.7582,27.38815 -20.4478,50.92039 0.6043,10.85309 3.9351,22.98682 7.8988,28.7744 5.2177,7.61869 18.4771,17.58729 25.4524,19.13545 1.561,0.34645 4.8792,1.26911 7.3739,2.05035 8.07552,2.52904 16.18272,3.30421 30.46422,2.91286 8.9103,-0.24416 16.1813,-0.99129 20,-2.0551 z m 868.1008,1251.4766 c -0.2909,-1.3377 -1.9163,-10.0607 -3.612,-19.3843 l -3.083,-16.952 69.5471,-69.5471 69.5471,-69.5471 v 23.0019 23.002 l -65.9352,65.9295 c -58.6546,58.6495 -65.9936,65.6609 -66.464,63.4971 z M -2.4489797e-6,1485.5832 v -24.0855 L 166.5586,1294.9989 C 312.08232,1149.5273 332.90834,1129.0683 331.46341,1133 c -0.90958,2.475 -4.96078,11.25 -9.00267,19.5 -14.24488,29.0756 -32.26735,54.7141 -72.65258,103.3545 -16.2664,19.5914 -28.97224,32.6616 -133.89003,137.7298 L -2.4489798e-6,1509.6686 Z M 1849.8296,1297.7249 1843.1593,1281.5 1945.3296,1179.2472 2047.5,1076.9943 l 0.2678,23.3851 0.2678,23.3851 -95.0772,94.8678 c -52.2925,52.1772 -95.388,94.9689 -95.7678,95.0926 -0.3798,0.1237 -3.6923,-7.0763 -7.361,-16 z M -2.4489797e-6,1210.6866 v -21.8529 L 214.75,973.4203 C 332.8625,854.94292 429.77936,758.00534 430.12079,758.00345 c 0.34143,-0.002 0.94157,3.25905 1.33363,7.24655 0.39206,3.9875 1.5549,12.41647 2.58409,18.73103 l 1.87126,11.48104 -8.64724,9.01896 c -4.75598,4.96044 -102.83568,103.30286 -217.95489,218.53877 L -2.4489797e-6,1232.5395 Z M 1750.6146,1114.8577 l -8.8853,-13.0845 152.8853,-152.88892 152.8854,-152.88889 0.2682,22.28322 0.2682,22.28322 -143.5388,143.46908 c -78.9464,78.90799 -143.8671,143.56859 -144.2682,143.69019 -0.4012,0.1216 -4.7278,-5.667 -9.6148,-12.8634 z M 1630.9798,971.70272 c -2.4861,-2.31149 -7.72,-7.1817 -11.6309,-10.82268 l -7.1107,-6.61996 L 1830.1321,736.38004 2048.026,518.5 l -0.263,23 -0.263,23 -206,205.70272 -206,205.70272 z M 0.23161755,931.87564 0.49999755,910.25127 454.5,455.37564 908.49998,0.5 931.43558,0.23111362 c 12.6145,-0.1478875 22.7274,-0.1478875 22.473,0 C 953.65428,0.37900113 738.91247,214.925 476.70468,477 L -0.03676245,953.5 Z M 1509.3393,821.5 c 0.3162,-2.75 1.6884,-12.2 3.0493,-21 1.3608,-8.8 2.7612,-18.28139 3.1119,-21.06975 l 0.6376,-5.06975 L 1782.082,508.43025 2048.0259,242.5 l -0.263,23 -0.2629,23 -269.3678,269 -269.3678,269 z M -2.4489797e-6,655.5038 V 633.5087 L 155.75734,477.50435 C 241.42388,391.70196 383.72476,249.15431 471.98153,160.7318 L 632.44837,-0.03640115 654.72582,0.23179943 677.00327,0.5 338.50164,338.99945 -2.4489797e-6,677.49889 Z M 1471.9633,574.25 c -1.7751,-3.1625 -5.2316,-8.86114 -7.6811,-12.66364 l -4.4536,-6.91364 277.335,-277.33636 L 2014.4986,0 h 6.1784 c 13.236,0 27.323,3.1504379 27.323,6.110571 0,1.1139064 -571.0232,573.856449 -572.1545,573.877339 -0.36,0.007 -2.107,-2.57541 -3.8822,-5.73791 z M 1326.5,434.84937 c -7.15,-4.92509 -13.1126,-9.26881 -13.2502,-9.65271 -0.1376,-0.38389 95.2715,-96.2189 212.0202,-212.96668 L 1737.5405,-0.03872532 1760.2722,0.23063734 1783.0039,0.5 1561.2519,222.15205 1339.5,443.80409 Z M -2.4489797e-6,377.98158 V 355.49789 L 177.77041,177.72958 355.54083,-0.03872446 378.02041,0.23063777 400.5,0.5 200.25,200.48264 -2.4489797e-6,400.46527 Z M 1200.5576,304.5 c 0.3659,-1.65 3.0525,-12.45 5.9703,-24 2.9177,-11.55 5.6108,-23.51896 5.9847,-26.5977 l 0.6798,-5.5977 124.1747,-124.17166 124.1746,-124.17166216 22.7315,0.26936108 L 1507.0046,0.5 1353.4485,154 C 1235.3297,272.07558 1200.0459,306.80767 1200.5576,304.5 Z M 0.00354755,101.99698 0.00710755,79.5 39.745328,39.731844 79.483548,-0.03631108 101.74588,0.23184446 124.00821,0.5 62.004108,62.496976 -2.4489797e-6,124.49395 Z M 1136.4821,86.280536 c -2.1901,-1.495706 -8.3232,-5.233044 -13.6289,-8.305197 l -9.6468,-5.585733 36.0401,-36.194803 L 1185.2866,0 h 22.6025 22.6025 L 1186,44.5 c -24.4704,24.475 -44.7265,44.5 -45.0137,44.5 -0.2871,0 -2.314,-1.223759 -4.5042,-2.719464 z"
       id="path1" />
  </g>
</svg>
