<?xml version="1.0" encoding="UTF-8" standalone="no"?>
<!-- Created with Inkscape (http://www.inkscape.org/) -->

<svg
   version="1.1"
   id="svg1"
   width="2048"
   height="2048"
   viewBox="0 0 2048 2048"
   xmlns="http://www.w3.org/2000/svg"
   xmlns:svg="http://www.w3.org/2000/svg">
  <defs
     id="defs1" />
  <g
     id="g1">
    <path
       style="fill:#000000"
       d="m 7.0931759,2044.425 c -3.77085,-3.173 -5.87967,-9.7992 -6.75887998,-21.2374 l -0.6438,-8.3756 151.22557408,-151.2281 151.22558,-151.228 -9.32083,-4.3099 c -11.59986,-5.3638 -24.40925,-12.8524 -32.29632,-18.8812 -6.70445,-5.1248 -30.81196,-29.0006 -37.0245,-36.6686 -6.65078,-8.209 -16.56284,-21.8074 -18.22,-24.9962 -0.85749,-1.65 -1.90432,-3.2256 -2.32629,-3.5014 -0.88118,-0.5759 -10.97657,-21.0842 -12.46345,-25.3189 -0.97705,-2.7828 -2.25376,-1.5547 -95.740264,92.0928 L -4.0816326e-6,1785.6857 v -24.0908 -24.0908 L 89.562876,1647.9371 l 89.562864,-89.567 -1.51323,-8.935 c -4.26164,-25.1635 -5.5888,-62.3906 -2.74276,-76.9351 6.5976,-33.7166 21.16176,-65.8467 48.95498,-108 3.62636,-5.5 6.95477,-10.45 7.39646,-11 0.4417,-0.55 3.06579,-4.15 5.83132,-8 2.76552,-3.85 5.57897,-7.675 6.25211,-8.5 0.67313,-0.825 2.32522,-3.075 3.6713,-5 3.62514,-5.1842 16.18659,-21.3453 17.48841,-22.5 0.6201,-0.55 1.79267,-1.9675 2.60572,-3.1501 0.81304,-1.1825 3.26739,-4.2861 5.4541,-6.8969 2.18672,-2.6107 5.55085,-6.6253 7.47585,-8.9213 1.925,-2.296 5.3,-6.346 7.5,-9 2.2,-2.654 5.575,-6.6994 7.5,-8.9897 1.925,-2.2903 5.075,-6.1284 7,-8.5293 1.925,-2.4008 4.85,-6.0329 6.5,-8.0713 1.65,-2.0384 4.8,-6.074 7,-8.968 2.2,-2.894 5.15369,-6.6595 6.56375,-8.3676 1.41006,-1.7082 3.63838,-4.6808 4.95182,-6.6058 1.31344,-1.925 2.66445,-3.725 3.00225,-4 0.86028,-0.7003 11.71566,-16.0279 16.64327,-23.5 1.45084,-2.2 2.93187,-4.225 3.29119,-4.5 0.35931,-0.275 1.74025,-2.3 3.06876,-4.5 1.3285,-2.2 2.79082,-4.45 3.24958,-5 0.45877,-0.55 2.67415,-3.925 4.92307,-7.5 2.24893,-3.575 5.09664,-8.075 6.32826,-10 8.50331,-13.2906 23.68026,-42.9358 28.1574,-55 l 2.41221,-6.5 L 199.04578,1310.5494 -4.0816327e-6,1509.5989 v -24.0504 -24.0503 L 204,1257.5 c 180.65766,-180.656 204.00014,-204.3415 204.00121,-206.9991 0.002,-4.8156 2.96648,-29.0439 5.01681,-41.0009 3.44325,-20.08027 9.98944,-36.25234 21.78719,-53.82427 3.68213,-5.48429 7.77534,-11.5924 9.096,-13.57358 1.32067,-1.98118 2.70878,-3.82715 3.0847,-4.10215 0.37592,-0.275 3.10188,-4.1 6.05769,-8.5 4.822,-7.17797 10.79048,-14.96395 14.9564,-19.51086 0.825,-0.90044 3.75,-4.2991 6.5,-7.55257 7.4195,-8.77786 20.94537,-22.90595 39.67029,-41.43657 l 16.67302,-16.5 -4.93471,-13 C 515.42178,803.87349 508.7484,781.3059 498.83313,739.938 L 497.5,734.376 249,983.438 0.49999592,1232.5 l -0.26974,-21.979 -0.26974,-21.979 L 145.23055,1043.021 C 225.12907,962.98446 335.67704,852.21008 390.89271,796.85573 l 100.39211,-100.64427 -1.67171,-16.85573 c -3.39007,-34.18191 -4.24416,-84.15993 -1.72475,-100.92609 l 0.61164,-4.07036 9,2.72403 c 4.95,1.49822 14.09663,4.54212 20.32585,6.76422 6.75537,2.40979 10.84228,3.45752 10.12755,2.59632 C 527.29434,585.64973 526.32603,585 525.8016,585 c -0.52443,0 -3.58515,-2.025 -6.8016,-4.5 -3.21645,-2.475 -6.14145,-4.5 -6.5,-4.5 -0.35855,0 -3.28355,-2.025 -6.5,-4.5 -3.21645,-2.475 -6.14145,-4.5 -6.5,-4.5 -0.35855,0 -3.28355,-2.025 -6.5,-4.5 -3.21645,-2.475 -6.14145,-4.5 -6.5,-4.5 -0.35855,0 -3.28355,-2.025 -6.5,-4.5 -3.21645,-2.475 -6.15501,-4.5 -6.53014,-4.5 -0.37513,0 -2.32181,-1.28676 -4.32596,-2.85947 -3.256,-2.55506 -7.54274,-5.56578 -21.8939,-15.37677 L 443,527.85831 V 519.18 510.50169 L 221.5,732 -4.0816327e-6,953.49831 v -21.5 -21.5 L 221.5,689 443,467.50169 v -116.5 -116.5 L 221.48652,456.00085 -0.02696408,677.5 l 0.26348,-22.12007 0.26348,-22.12007 L 316,316.87993 631.5,0.5 l 23,-0.26335455 23,-0.26335456 L 582.50197,94.986645 487.50395,190 h 114.1747 c 101.9006,0 114.20946,0.16522 114.49803,1.53692 0.20074,0.95423 36.88921,-35.06293 96.77069,-95.000003 L 909.3947,0 h 22.1739 22.1738 L 834.87118,118.6916 716,237.3832 V 275.6916 314 h 78.37287 78.37287 l 7.12713,-7.50301 L 887,298.99397 V 244.49699 190 h 54.2723 54.2722 l 94.9345,-95 94.9344,-95 h 22.5413 22.5414 L 1135.5,95 1040.5039,190 H 1100.752 1161 v 55.24875 55.24876 L 1311.2512,150.24875 1461.5025,0 h 22.9975 22.9976 L 1350.5,157 1193.5024,314 H 1262.2512 1331 v -62 -62 h 108.252 108.2519 L 1642.5,95 1737.4961,0 h 23 23 l -94.9961,95 -94.9961,95 h 5.7481 5.748 V 299.74909 409.49817 L 1809.7509,204.74909 2014.5018,0 h 6.1768 C 2034.0938,0 2048,3.1526914 2048,6.1940656 2048,6.8225535 1948.325,107.12782 1826.5,229.09465 L 1605,450.85253 v 38.50289 38.50289 l -4.25,2.90545 c -2.3375,1.59801 -7.175,4.93611 -10.75,7.41801 -3.575,2.48189 -9.65,6.66956 -13.5,9.30592 -3.85,2.63636 -8.6398,6.08014 -10.6439,7.65284 -2.0042,1.57271 -3.9508,2.85947 -4.326,2.85947 -0.3751,0 -3.3137,2.025 -6.5301,4.5 -3.2164,2.475 -6.1414,4.5 -6.5,4.5 -0.3586,0 -3.2836,2.025 -6.5,4.5 -3.2164,2.475 -6.1414,4.5 -6.5,4.5 -0.3586,0 -3.2836,2.025 -6.5,4.5 -3.2164,2.475 -6.1414,4.5 -6.5,4.5 -0.3586,0 -3.2836,2.025 -6.5,4.5 -3.2164,2.475 -6.1414,4.5 -6.5,4.5 -0.3586,0 -3.2836,2.025 -6.5,4.5 -3.2164,2.475 -6.1453,4.5 -6.5085,4.5 -0.3632,0 -3.2379,2.025 -6.3882,4.5 -3.1503,2.475 -6.0753,4.5 -6.5,4.5 -0.4247,0 -3.3497,2.025 -6.5,4.5 -3.1503,2.475 -6.0753,4.5 -6.5,4.5 -0.4247,0 -3.3497,2.025 -6.5,4.5 -3.1503,2.475 -6.0753,4.5 -6.5,4.5 -0.4247,0 -3.3497,2.025 -6.5,4.5 -3.1503,2.475 -6.0753,4.5 -6.5,4.5 -0.4247,0 -3.3497,2.025 -6.5,4.5 -3.1503,2.475 -6.0536,4.5 -6.4518,4.5 -0.3982,0 -3.5829,2.1375 -7.0771,4.75 -3.4942,2.6125 -9.3166,6.775 -12.9385,9.25 -9.5218,6.50654 -19.4992,13.45841 -24.3859,16.99102 l -4.25,3.07236 v 69.92041 69.9204 l 5.8661,3.43801 c 3.2263,1.8909 6.9127,3.77022 8.1921,4.17626 1.2793,0.40604 5.1725,2.48049 8.6515,4.6099 3.479,2.1294 6.6835,3.87164 7.121,3.87164 0.4376,0 3.6922,1.71983 7.2324,3.82185 3.5403,2.10202 9.078,5.28612 12.306,7.07577 l 5.8691,3.25393 304.8809,-304.7985 L 2048,242.55456 v 22.5068 22.5068 l -291.1879,291.13739 -291.188,291.13738 4.7582,2.82854 c 2.617,1.55569 6.8736,4.44507 9.459,6.42083 2.5855,1.97577 5.8164,4.17908 7.1798,4.89625 1.3634,0.71717 4.5664,3.03814 7.1177,5.1577 2.5513,2.11956 4.9778,3.85375 5.3922,3.85375 0.4143,0 3.1237,2.025 6.0207,4.5 2.897,2.475 5.5527,4.5 5.9016,4.5 0.3489,0 3.4271,2.26808 6.8405,5.04018 23.7998,19.32832 23.0972,18.72844 41.7062,35.60777 7.975,7.23373 18.55,17.2439 23.5,22.24481 l 9,9.09258 L 1820.25,746.24349 2048,518.50164 v 22.5535 22.5535 l -217.0625,216.98217 -217.0626,216.98216 2.3126,2.52513 c 1.2719,1.3888 4.9412,5.6474 8.154,9.4635 3.2128,3.8161 6.8009,8.0634 7.9734,9.4384 2.9303,3.4363 9.8046,11.9468 12.2048,15.1096 2.6709,3.5197 14.1623,18.777 16.4872,21.8904 1.6043,2.1483 7.784,10.6338 13.7605,18.8948 0.9529,1.3172 2.4076,3.4171 3.2326,4.6664 0.825,1.2494 5.9554,8.9468 11.4009,17.1052 9.998,14.9791 14.5242,21.9386 18.4267,28.3336 1.1748,1.925 2.5842,4.175 3.1321,5 0.797,1.2 34.6009,-32.1 169.0183,-166.49888 L 2048,795.50223 v 22.54232 22.54231 l -159.6105,159.54644 -159.6106,159.5464 4.6422,8.1812 c 8.0099,14.1163 33.5789,63.9795 33.5789,65.4836 0,0.2356 2.0577,4.867 4.5726,10.292 5.838,12.5933 6.391,13.8503 11.3769,25.8635 2.2827,5.5 4.5577,10.9 5.0556,12 1.8746,4.1416 4.3178,10.3924 8.9898,23 2.6496,7.15 5.1504,13.8335 5.5575,14.8522 0.6078,1.5214 22.6007,-20.0078 123.0938,-120.4984 L 2048,1076.5031 v 23.6223 23.6223 l -116.4033,116.22 -116.4032,116.2201 0.9714,3.1561 c 15.9965,51.9719 28.9726,107.9795 37.7989,163.1481 l 3.6785,22.992 95.1788,-94.9055 95.1789,-94.9056 v 22.9116 22.9115 l -92.6431,92.6471 -92.6431,92.6471 2.1584,24.3549 c 3.7903,42.7679 10.0871,149.5311 10.1212,171.6049 l 0.01,4.25 h -106.2486 -106.2485 l -130.0209,130.018 -130.0208,130.0179 -24.4806,-0.2679 -24.4806,-0.268 130.2505,-129.5 130.2505,-129.5 -114.7448,-0.2542 -114.7448,-0.2543 -130.0072,130.0043 L 1124.4971,2047 h -23.6158 -23.6158 l 130.1173,-129.9816 130.1172,-129.9817 -119.0014,-0.018 -119.0015,-0.018 -129.9971,130 -129.99712,130 H 816.94851 794.39414 L 924.4471,1917.0091 1054.5,1787.0175 938.9986,1787.0075 823.49712,1787 693.5,1917 563.50288,2047 h -22.59165 -22.59165 l 129.88572,-129.75 129.88571,-129.75 -21.0455,-0.2699 C 745.47048,1787.0817 736,1786.6081 736,1786.1777 c 0,-2.29 34.53564,-37.1263 57,-57.4962 8.525,-7.7302 15.63919,-14.3884 15.80931,-14.7961 0.17011,-0.4077 7.90593,-7.5561 17.19069,-15.8854 9.28476,-8.3293 17.02058,-15.481 17.19069,-15.8926 0.17012,-0.4117 5.70931,-5.599 12.30931,-11.5274 6.6,-5.9283 13.5256,-12.3713 15.39023,-14.3177 1.86462,-1.9464 8.38962,-8.0129 14.5,-13.481 6.11037,-5.4682 12.45977,-11.4022 14.10977,-13.1868 1.65,-1.7846 8.175,-7.9176 14.5,-13.6289 19.0536,-17.2048 33.3728,-32.0825 42.7961,-44.4656 2.9298,-3.85 5.8697,-7.675 6.533,-8.5 11.5676,-14.3864 28.7535,-47.0957 38.3551,-73 14.1318,-38.1263 19.301,-66.0875 18.473,-99.9243 l -0.1572,-6.4243 -2.25,2.0493 c -1.2375,1.1272 -3.375,2.6291 -4.75,3.3376 -1.375,0.7086 -4.7909,3.0148 -7.5909,5.125 -2.7999,2.1102 -5.4534,3.8367 -5.8965,3.8367 -0.4431,0 -3.1022,1.5198 -5.9091,3.3774 -4.4399,2.9382 -12.7604,7.5982 -23.1035,12.9393 -6.537,3.3756 -21.2711,9.9904 -26,11.6725 -2.75,0.9782 -9.95,3.4869 -16,5.5749 -6.05,2.088 -15.5,5.4925 -21,7.5656 -5.5,2.0732 -12.025,4.2867 -14.5,4.9191 -4.19157,1.0709 -25.1335,21.7735 -305.54224,302.0505 L 286.41553,2047 h -22.52669 -22.52669 l 143.29436,-143.1912 c 78.8119,-78.7552 143.14645,-143.3392 142.96567,-143.5199 -0.18078,-0.1808 -4.10722,0.5965 -8.72543,1.7273 -10.80832,2.6465 -31.04581,3.6808 -40.42565,2.0661 -11.25255,-1.9371 -22.88831,-5.8813 -31.01559,-10.5135 -8.03501,-4.5795 -24.2308,-18.8519 -27.62622,-24.3453 -1.11386,-1.8021 -2.56046,-3.8271 -3.21467,-4.5 -0.65421,-0.6729 -2.23885,-2.9385 -3.52142,-5.0347 -1.51497,-2.476 -2.84317,-3.615 -3.79118,-3.2512 -3.34271,1.2827 -17.41916,4.5787 -25.80202,6.0416 -4.95,0.8638 -18.08039,1.8548 -29.17864,2.2022 l -20.17864,0.6317 -160.77749,160.8435 C 84.937616,1974.6205 12.040036,2047 11.370596,2047 c -0.66943,0 -2.5942701,-1.1588 -4.2774201,-2.575 z M 1760.9935,1680.75 c -0.01,-59.4791 -0.7824,-84.5477 -3.5361,-114.25 -6.938,-74.8341 -21.5538,-140.8698 -50.0212,-226 -8.004,-23.9358 -22.4117,-63.2254 -26.4026,-72 -0.5003,-1.1 -4.0359,-9.425 -7.8568,-18.5 -12.5012,-29.691 -24.6261,-54.3146 -42.3473,-86 -14.2387,-25.4587 -16.3662,-29.1469 -17.6478,-30.5939 -0.5329,-0.6016 -1.7297,-2.5652 -2.6597,-4.3636 -0.93,-1.7983 -3.6907,-6.1908 -6.1351,-9.7611 -2.4443,-3.5703 -5.0958,-7.7516 -5.8922,-9.2917 -0.7965,-1.5401 -2.0379,-3.4054 -2.7588,-4.145 -0.7209,-0.7396 -2.4021,-3.1447 -3.7359,-5.3447 -1.3338,-2.2 -3.0074,-4.5976 -3.7191,-5.328 -0.7117,-0.7304 -1.7871,-2.2492 -2.3897,-3.3752 -1.0177,-1.9016 -6.1789,-9.032 -9.4273,-13.0242 -0.7731,-0.95 -2.6035,-3.5375 -4.0676,-5.75 -1.4641,-2.2124 -2.9398,-4.0234 -3.2792,-4.0244 -0.3394,-10e-4 -1.8959,-2.026 -3.4589,-4.5 -1.563,-2.474 -3.1535,-4.4982 -3.5344,-4.4982 -0.3809,0 -1.5268,-1.4122 -2.5463,-3.1381 -1.0196,-1.726 -2.5852,-3.8696 -3.4791,-4.7635 -0.894,-0.894 -2.7236,-3.1943 -4.0659,-5.1119 -1.3423,-1.9176 -3.4378,-4.6115 -4.6566,-5.9865 -1.2189,-1.375 -4.0946,-4.75 -6.3906,-7.5 -13.0183,-15.593 -38.5833,-41.7804 -53.0956,-54.38835 -12.3396,-10.72024 -17.9427,-15.45588 -21.4293,-18.11165 -1.8052,-1.375 -6.751,-5.2 -10.9906,-8.5 -4.2397,-3.3 -9.9069,-7.575 -12.5938,-9.5 -12.6808,-9.08484 -22.1747,-15.63416 -24.6543,-17.00749 -1.4969,-0.82912 -5.3825,-3.41662 -8.6345,-5.75 -3.252,-2.33338 -6.3596,-4.24251 -6.9056,-4.24251 -0.5461,0 -2.5511,-1.18855 -4.4556,-2.64122 -1.9046,-1.45268 -6.6721,-4.44299 -10.5944,-6.64515 -28.7258,-16.12769 -34.1062,-19.01219 -52.6316,-28.21622 -17.5435,-8.71617 -35.5934,-17.06585 -39,-18.04088 -1.375,-0.39355 -4.75,-1.84711 -7.5,-3.23014 -2.75,-1.38302 -7.925,-3.53244 -11.5,-4.77648 -3.575,-1.24404 -9.875,-3.6207 -14,-5.28147 -15.5547,-6.26249 -51.5448,-18.0739 -68.5,-22.48069 -35.3743,-9.19406 -63.2917,-15.41304 -75.3311,-16.78106 -4.7316,-0.53764 -9.6795,-1.24772 -10.9952,-1.57795 -2.1931,-0.55041 -2.3438,-0.36008 -1.8106,2.28542 6.1662,30.59128 9.5507,75.98104 6.7332,90.30174 C 1109.7714,915.81634 1097.9428,925 1079.5,925 c -14.4447,0 -25.746,-5.41599 -30.2567,-14.5 -1.7579,-3.54022 -2.0506,-6.75868 -2.5465,-28 -0.6103,-26.14341 -2.0053,-37.88108 -6.8334,-57.5 -2.8965,-11.76959 -8.9486,-30.19313 -12.4829,-38 -14.3098,-31.60828 -31.5995,-56.24287 -58.4287,-83.25 -8.4911,-8.54744 -14.4176,-13.75 -15.6632,-13.75 -3.4488,0 -26.6461,25.37437 -37.0251,40.5 -1.5096,2.2 -2.9977,4.225 -3.3069,4.5 -0.3092,0.275 -1.6397,2.3 -2.9566,4.5 -1.3169,2.2 -2.6703,4.225 -3.0075,4.5 -1.2508,1.02003 -11.21859,19.73714 -15.16122,28.46912 -11.29668,25.01949 -18.31985,51.98684 -20.32176,78.03088 -1.33707,17.39473 -5.13069,25.6796 -13.86909,30.28868 -4.86165,2.56428 -5.87257,2.71033 -18.64043,2.69309 -12.08096,-0.0163 -14.12679,-0.27911 -19.463,-2.5 -9.82834,-4.09051 -15.98024,-14.25954 -16.02052,-26.48177 -0.009,-2.75 0.32959,-6.2375 0.75257,-7.75 1.04783,-3.74687 -0.61379,-3.63536 -12.89976,0.86567 -5.42811,1.98862 -11.89429,4.17647 -14.36929,4.86189 -2.475,0.68543 -7.425,2.50165 -11,4.03606 -3.575,1.53441 -9.2,3.79467 -12.5,5.02281 -7.94256,2.95593 -24.06068,10.17683 -34,15.23197 -4.4,2.23784 -10.66266,4.83421 -13.91701,5.76971 -14.53713,4.17886 -27.09354,-2.57507 -36.1701,-19.45544 -2.37354,-4.41425 -2.91289,-6.63618 -2.91289,-12 0,-5.81944 0.38239,-7.13341 3.29804,-11.33267 3.27502,-4.71685 10.70769,-10.21597 18.61717,-13.77408 9.02359,-4.0593 46.63153,-21.37984 54.83479,-25.25447 4.8125,-2.27308 8.75,-4.56216 8.75,-5.08684 0,-0.52469 -1.6875,-2.45082 -3.75,-4.28029 -6.78032,-6.01425 -24.16023,-20.78027 -29.00156,-24.6398 -2.61164,-2.08202 -6.94926,-5.60063 -9.63915,-7.81915 -2.68988,-2.21851 -6.06488,-4.77688 -7.5,-5.68528 -1.43511,-0.90839 -4.66325,-3.35228 -7.17365,-5.43086 C 692.42525,745.70065 690.0127,744 689.57442,744 c -0.43827,0 -2.88431,-1.73419 -5.43564,-3.85375 -2.55133,-2.11956 -5.76378,-4.44305 -7.13878,-5.1633 -1.375,-0.72025 -4.79089,-3.03606 -7.59087,-5.14624 C 666.60915,727.72652 664.01456,726 663.64337,726 c -0.37119,0 -3.45784,-2.025 -6.85921,-4.5 -3.40138,-2.475 -6.56898,-4.5 -7.03911,-4.5 -0.47013,0 -3.52114,-1.81069 -6.78002,-4.02375 -3.25888,-2.21306 -6.72169,-4.31382 -7.69513,-4.66836 -0.97345,-0.35453 -3.5699,-1.83961 -5.7699,-3.30018 -5.22307,-3.46757 -34.14076,-19.10188 -41.43925,-22.40407 -1.34158,-0.607 -5.39158,-2.62563 -9,-4.48585 C 567.3611,672.08636 557,668.0499 557,669.52338 c 0,6.296 5.28148,40.97138 9.13516,59.97662 7.44686,36.72573 21.36473,81.34301 35.09313,112.5 1.09054,2.475 2.67787,6.075 3.52741,8 4.87431,11.04487 16.39754,34.09132 22.1223,44.24457 3.6421,6.45952 7.80775,13.88452 9.25699,16.5 7.2222,13.03405 3.61713,24.24553 -11.37245,35.36743 -10.31458,7.65315 -19.9926,9.84215 -30.6532,6.93323 -8.40598,-2.29372 -21.58785,-18.2065 -32.70267,-39.47778 -1.59867,-3.05948 -3.18496,-5.56377 -3.52509,-5.56507 -0.34013,-10e-4 -2.59609,1.91012 -5.01325,4.24762 -2.41715,2.3375 -6.86386,6.55419 -9.88158,9.37043 -6.1531,5.74229 -11.82654,11.95004 -15.80606,17.29462 -1.46812,1.97172 -2.92063,3.80995 -3.22779,4.08495 -0.30716,0.275 -1.63597,2.3 -2.9529,4.5 -1.31693,2.2 -2.66693,4.225 -3,4.5 -0.33307,0.275 -1.68307,2.3 -3,4.5 -1.31693,2.2 -2.66328,4.225 -2.99187,4.5 -0.32859,0.275 -1.52819,2.075 -2.66577,4 -1.13758,1.925 -5.73468,9.54179 -10.21579,16.92619 -10.58819,17.44829 -19.21482,34.56421 -22.46575,44.57381 -4.46682,13.7534 -4.91184,19.4325 -3.10043,39.5655 1.49522,16.6187 1.49303,18.5736 -0.0294,26.1967 -3.57475,17.8989 -10.66638,39.45 -18.44594,56.0563 -5.65191,12.0646 -17.39489,32.6461 -21.7879,38.1869 -0.43841,0.5529 -4.54639,6.5525 -9.12885,13.3323 -7.84516,11.6071 -19.01423,27.7178 -22.91753,33.0571 -0.9629,1.3172 -2.42573,3.4204 -3.25073,4.6738 -0.825,1.2535 -6.225,8.8726 -12,16.9314 -5.775,8.0588 -11.19008,15.7038 -12.0335,16.9888 -0.84343,1.2851 -2.49166,3.6133 -3.66274,5.1739 -6.45087,8.5961 -9.01512,12.1364 -10.74697,14.8373 -1.05798,1.65 -2.40357,3.5073 -2.99019,4.1272 -0.58663,0.62 -4.2166,5.5308 -8.0666,10.913 -7.09955,9.9249 -17.32489,23.8725 -27.43351,37.4199 -3.06157,4.1031 -6.41548,8.8281 -7.45313,10.5 -1.03765,1.672 -2.71198,3.9399 -3.72074,5.0399 -1.00875,1.1 -5.46967,6.95 -9.91315,13 -4.44348,6.05 -8.62675,11.675 -9.29615,12.5 -0.6694,0.825 -2.55693,3.3 -4.19452,5.5 -1.63758,2.2 -3.24403,4.225 -3.56989,4.5 -1.90622,1.6087 -12.52712,18.3429 -17.23624,27.1573 -9.06649,16.9703 -15.32597,33.5212 -21.87596,57.8427 -2.7431,10.1857 -3.15073,13.4792 -3.56679,28.818 -0.67946,25.05 2.25853,45.4088 9.40018,65.1384 3.24489,8.9644 10.99851,24.4562 13.63943,27.2517 0.67126,0.7105 2.40947,2.8669 3.86269,4.7919 4.72184,6.2548 11.1657,12.628 21.19745,20.9652 19.75268,16.416 35.63879,25.5728 53.16033,30.6418 9.06559,2.6227 11.40162,2.8916 25,2.8777 13.94546,-0.014 15.75864,-0.2407 25.79107,-3.2208 20.15692,-5.9877 33.5395,-14.2764 43.01831,-26.644 4.8487,-6.3264 5.96395,-8.2171 13.71182,-23.2461 3.15473,-6.1194 6.61328,-12.4194 7.68566,-14 1.07239,-1.5806 3.71455,-5.5659 5.87147,-8.8562 9.41826,-14.3674 19.52916,-22.5445 27.81004,-22.4911 2.2614,0.015 7.03663,1.0416 10.61163,2.2823 5.60076,1.9438 6.9401,2.9099 9.68117,6.9835 4.13613,6.1468 5.84183,14.0517 4.28201,19.8444 -1.00443,3.7302 -7.8204,22.7154 -11.25991,31.3633 -5.86522,14.7469 -23.65383,43.3657 -32.67125,52.5625 -0.84261,0.8593 -2.65702,3.2188 -4.03202,5.2431 -1.375,2.0244 -2.80686,3.6838 -3.18191,3.6876 -0.37504,0 -1.65833,1.3781 -2.85174,3.0541 -1.93029,2.7108 -2.03151,3.4008 -0.91689,6.25 6.35423,16.2423 12.56296,24.1377 20.61348,26.2133 4.40721,1.1363 6.13476,1.1095 11.80219,-0.1832 5.4465,-1.2424 7.93236,-2.5524 13.83706,-7.2922 13.02761,-10.4573 15.55631,-13.947 33.62396,-46.4025 14.58328,-26.1965 23.89292,-41.509 42.1418,-69.3147 4.03486,-6.1479 14.32214,-20.8823 14.88381,-21.318 0.35453,-0.275 1.7052,-2.075 3.00148,-4 1.29629,-1.925 2.84961,-3.95 3.45182,-4.5 0.60222,-0.55 2.42262,-2.8 4.04535,-5 1.62272,-2.2 3.93789,-5.125 5.14482,-6.5 1.20693,-1.375 4.53973,-5.2 7.40622,-8.5 6.9484,-7.9992 35.09042,-35.5 36.32776,-35.5 0.53765,0 3.35919,-2.1375 6.2701,-4.75 5.5888,-5.0159 10.46432,-8.9685 21.90069,-17.755 3.85,-2.9579 8.575,-6.6856 10.5,-8.2836 1.925,-1.5981 4.85,-3.7414 6.5,-4.763 1.65,-1.0217 5.08745,-3.5655 7.63878,-5.653 2.55133,-2.0875 4.94801,-3.7954 5.32596,-3.7954 0.37794,0 3.31881,-2.025 6.53526,-4.5 3.21645,-2.475 6.15704,-4.5 6.53464,-4.5 0.37761,0 3.4569,-1.9366 6.84287,-4.3036 3.38597,-2.3669 6.94515,-4.6062 7.90929,-4.9762 0.96415,-0.37 4.41935,-2.4834 7.67823,-4.6965 3.25888,-2.213 6.29343,-4.0237 6.74345,-4.0237 0.45002,0 3.11506,-1.5468 5.9223,-3.4373 14.22272,-9.5781 44.13729,-23.9179 68.86922,-33.0131 4.95,-1.8203 12.49921,-4.7137 16.77603,-6.4296 4.27682,-1.716 8.26592,-3.12 8.86468,-3.12 0.59876,0 5.14387,-1.8 10.10025,-4 4.95637,-2.2 9.51727,-4.0022 10.13531,-4.0048 0.61805,0 5.6094,-2.0277 11.09188,-4.5 5.48249,-2.4724 10.46515,-4.4952 11.07258,-4.4952 0.60743,0 5.12173,-1.9514 10.03183,-4.3363 4.9101,-2.385 10.2169,-4.6566 11.7929,-5.0481 1.5759,-0.3914 5.9334,-2.4502 9.6832,-4.575 3.7497,-2.1249 7.7025,-4.1442 8.7839,-4.4875 2.5434,-0.8072 17.4991,-9.6079 22.6674,-13.3387 2.2,-1.5881 5.125,-3.4831 6.5,-4.2111 8.3569,-4.4245 38.6446,-31.3692 49.483,-44.0212 8.3434,-9.7395 15.4691,-19.1152 20.8868,-27.4821 2.1369,-3.3 4.8278,-7.35 5.98,-9 3.7086,-5.3111 18.1892,-34.7591 20.9253,-42.5542 3.5622,-10.1482 6.3084,-22.3433 7.7569,-34.4458 1.4539,-12.1477 1.5109,-42.0659 0.094,-49.1325 -1.2202,-6.084 -0.096,-11.3213 3.4358,-16.0027 1.7095,-2.2661 4.5235,-3.9292 10.1518,-6 6.9755,-2.5663 9.0369,-2.8633 19.7867,-2.8501 15.1864,0.019 21.5551,2.1719 28.7424,9.7176 8.3577,8.7744 9.958,17.9597 7.7129,44.2677 -3.0775,36.0602 -12.1535,69.9823 -27.1567,101.5 -3.9139,8.2219 -15.3949,29.4633 -17.0259,31.5 -0.4404,0.55 -3.1215,4.6 -5.9579,9 -2.8364,4.4 -5.4472,8.225 -5.8019,8.5 -0.3547,0.275 -2.1098,2.6527 -3.9001,5.2837 l -3.2553,4.7837 3.015,9.2163 c 11.7826,36.0179 14.3896,81.1433 7.0445,121.9343 -3.439,19.0989 -12.3302,48.9305 -19.457,65.282 -0.7191,1.65 -2.7406,6.375 -4.4921,10.5 -7.731,18.2077 -20.8021,42.7941 -30.0375,56.5 -18.8643,27.9957 -56.2388,66.1704 -94.9668,97 -8.5191,6.7817 -19.4056,15.2135 -23.8857,18.5 -2.6242,1.925 -6.1828,4.625 -7.9081,6 -1.7254,1.375 -6.1016,4.75 -9.7251,7.5 -3.62349,2.75 -9.03006,7.025 -12.01462,9.5 -2.98455,2.475 -7.86564,6.525 -10.84686,9 -2.98122,2.475 -5.45703,4.8375 -5.50179,5.25 -0.0448,0.4125 199.94357,0.75 444.41857,0.75 H 1761 Z M 312.54071,1549.6676 c -4.77358,-1.871 -6.59685,-3.2609 -9.16369,-6.9856 C 300.25396,1538.1501 298,1530.7724 298,1525.0818 c 0,-9.4175 5.69471,-31.5408 10.68362,-41.5047 3.37718,-6.7449 9.27516,-16.4942 11.79053,-19.4895 14.68931,-17.4924 28.27882,-28.8848 44.53731,-37.3367 9.99259,-5.1946 17.50889,-5.6004 25.99621,-1.4035 9.34078,4.6191 10.49888,5.4387 14.6642,10.3785 7.67077,9.0971 10.33035,16.8384 8.33313,24.2555 -1.41419,5.2519 -9.04591,13.652 -16.37248,18.0208 -7.8625,4.6884 -12.73904,8.4165 -17.22156,13.1656 -8.28798,8.7809 -14.21745,20.5539 -15.02494,29.8322 -0.90048,10.3468 -3.3821,16.8668 -8.33648,21.9026 -6.11549,6.216 -12.9007,8.3815 -27.54954,8.7922 -9.60913,0.2694 -11.75351,0.013 -16.95929,-2.0272 z m 239.29631,-388.075 C 535.75657,1156.166 528,1146.3887 528,1131.5454 c 0,-6.8666 1.18149,-10.354 8.14623,-24.0454 6.41946,-12.6195 21.72899,-36.7818 25.34445,-40 0.6179,-0.55 2.43847,-2.8 4.04573,-5 4.41957,-6.0495 22.80537,-24.123 33.097,-32.5348 8.4757,-6.9276 13.04632,-10.218 27.32495,-19.6713 6.92941,-4.5876 33.3576,-17.94616 42.54392,-21.50443 24.30483,-9.41436 26.75286,-10.12039 36.66137,-10.57337 8.76034,-0.40048 10.16246,-0.20661 15,2.07402 7.4569,3.51552 12.41128,8.57698 16.08955,16.43727 5.39087,11.52001 5.10309,21.89911 -0.82236,29.65941 -2.91054,3.8118 -5.37543,5.491 -14.22569,9.6909 -5.88783,2.7942 -12.98207,5.9451 -15.76497,7.002 -2.7829,1.0569 -5.92692,2.5557 -6.98672,3.3307 -1.78553,1.3056 -1.80803,1.544 -0.3067,3.2493 2.35441,2.6742 5.82554,9.8889 7.57658,15.7478 4.5,15.0566 -1.4111,39.0618 -13.00422,52.8106 -4.88416,5.7923 -17.29888,13.4091 -23.62345,14.4938 -7.12548,1.2219 -34.94157,0.8608 -41.09567,-0.5336 -3.025,-0.6855 -8.91781,-2.9881 -13.09514,-5.117 -4.17733,-2.1289 -8.09021,-3.5648 -8.6953,-3.1908 -1.19011,0.7355 -12.20956,19.778 -12.20956,21.0991 0,0.4414 -1.87307,3.6074 -4.16238,7.0357 -3.4799,5.2112 -5.16051,6.7054 -10.25,9.1132 -7.82422,3.7015 -17.68749,3.87 -27.7506,0.4741 z m 143.15129,431.9191 c 107.6018,-107.6052 109.35613,-109.4216 101.99829,-105.6078 -19.5213,10.1184 -52.7302,31.0287 -66.45817,41.8461 -2.96645,2.3375 -5.65357,4.25 -5.97139,4.25 -1.00491,0 -13.30186,10.0748 -27.42168,22.4665 -14.71199,12.9113 -32.99252,30.6982 -40.63064,39.5335 -2.61511,3.025 -5.92834,6.85 -7.36272,8.5 -14.60134,16.7962 -25.6667,33.1459 -49.06742,72.5 -1.14464,1.925 -3.61793,6.081 -5.49619,9.2355 -5.82425,9.7818 -9.73955,16.7645 -9.40007,16.7645 0.17881,0 49.59331,-49.2697 109.80999,-109.4883 z M 1313.7585,736.75 1313.5,681.5 1175.5535,681.24645 c -75.8705,-0.13945 -138.2918,0.0918 -138.7138,0.5139 -0.4221,0.4221 1.3538,3.29885 3.9464,6.3928 8.2306,9.82201 15.0204,18.67942 18.6435,24.32086 1.0505,1.6357 2.3072,3.4357 2.7926,4 0.4854,0.56429 2.7226,3.95099 4.9715,7.52599 2.2489,3.575 5.1199,8.075 6.38,10 1.26,1.925 2.8245,4.69536 3.4765,6.15635 1.1019,2.46912 1.7587,2.70192 9.3176,3.30288 14.5998,1.16071 37.9229,3.65466 48.0211,5.13491 5.439,0.79727 14.214,1.88891 19.5,2.42587 12.109,1.23004 46.6626,7.9715 67.6111,13.19103 8.8,2.19261 18.025,4.39466 20.5,4.89345 6.147,1.23881 32.0893,9.18194 45.5,13.93143 6.05,2.14264 12.35,4.21093 14,4.5962 1.65,0.38526 4.8,1.51576 7,2.51222 2.2,0.99645 4.3413,1.82162 4.7585,1.8337 0.4171,0.0121 0.6421,-24.84054 0.5,-55.22804 z M 826.28266,763 c 10.05798,-27.11171 22.31999,-49.91511 38.93976,-72.41544 3.21568,-4.35349 5.46795,-8.29419 5.00504,-8.7571 -0.46291,-0.46291 -31.19096,-0.72596 -68.28456,-0.58456 L 734.5,681.5 l -0.28932,8.18082 -0.28933,8.18082 6.28933,5.03756 c 3.45912,2.77067 8.43458,6.7393 11.05655,8.81919 19.58428,15.53525 43.96983,37.03285 63.04572,55.57928 3.84544,3.73871 7.31879,6.43871 7.71855,6 0.39975,-0.43872 2.31278,-5.07267 4.25116,-10.29767 z m 117.71804,-147.50047 8.1711,-5.50046 4.1641,2.83906 c 2.2902,1.56148 5.9883,4.03669 8.2179,5.50046 L 968.6075,621 h 190.2881 190.2881 l 2.6581,-2.06766 c 1.462,-1.13722 6.0332,-4.51023 10.1582,-7.4956 4.125,-2.98536 9.975,-7.25696 13,-9.49244 8.9129,-6.58668 16.5033,-12.11375 23.9564,-17.4443 3.845,-2.75 9.6799,-7.025 12.9665,-9.5 3.2866,-2.475 8.3609,-6.20433 11.2763,-8.28739 14.0855,-10.06408 30.2899,-21.98954 37.3163,-27.46261 3.0009,-2.3375 5.8001,-4.25669 6.2204,-4.26488 0.4202,-0.008 2.5641,-1.56628 4.7641,-3.46245 l 4,-3.44758 H 1024 572.5 l 4,3.44758 c 2.2,1.89617 4.36375,3.45427 4.80834,3.46245 0.44459,0.008 3.14459,1.84701 6,4.08628 4.86108,3.81215 13.51461,10.1621 25.19166,18.48561 11.15458,7.95109 20.25941,14.61327 24.84184,18.17725 2.66302,2.07116 5.39328,3.99074 6.06725,4.26574 0.67397,0.275 3.44514,2.19306 6.15815,4.26236 C 660.40101,592.52559 667.95809,598 668.53119,598 c 0.33204,0 3.02273,1.9125 5.97932,4.25 2.95659,2.3375 8.56398,6.5 12.46087,9.25 3.89689,2.75 8.31001,5.99828 9.80693,7.2184 L 699.5,620.9368 817.66482,620.9684 935.8296,621 Z M 1536,359 V 251 H 1467.5 1399 V 312.5 374 H 1245 1091 V 312.5 251 H 1023.5 956 V 312.5 374 H 802.5 649 V 312.5 251 H 580.5 512 v 108 108 h 512 512 z m 200.4612,1582.2543 c 58.3214,-58.1601 152.2829,-151.8726 208.8035,-208.25 l 102.7646,-102.5043 -0.2646,23.5 -0.2647,23.5 -185.0142,184.75 -185.0141,184.75 h -23.5246 -23.5247 z m 205.9796,69.9957 c 19.832,-19.6625 51.696,-51.2664 70.8087,-70.2308 L 2048,1906.5383 v 22.6743 22.6742 l -49.4255,47.5566 L 1949.149,2047 h -21.3833 -21.3832 z M -4.0816327e-6,377.98158 V 355.49789 L 177.77041,177.72958 355.54083,-0.03872446 378.02041,0.23063777 400.5,0.5 200.25,200.48264 -4.0816327e-6,400.46527 Z M 0.00399592,101.99698 0.00710592,79.5 39.745326,39.731844 79.483546,-0.03631108 101.74588,0.23184446 124.00821,0.5 62.004106,62.496976 -4.0816327e-6,124.49395 Z"
       id="path1" />
  </g>
</svg>
