<?xml version="1.0" encoding="UTF-8" standalone="no"?>
<!-- Created with Inkscape (http://www.inkscape.org/) -->

<svg
   version="1.1"
   id="svg1"
   width="2048"
   height="2048"
   viewBox="0 0 2048 2048"
   xmlns="http://www.w3.org/2000/svg"
   xmlns:svg="http://www.w3.org/2000/svg">
  <defs
     id="defs1" />
  <g
     id="g1">
    <path
       style="fill:#000000"
       d="m 7.1543549,2044.4764 c -3.8903,-3.2734 -6.00534,-9.9856 -6.76735,-21.4764 l -0.56368,-8.5 129.0294951,-128.9397 129.0295,-128.9397 11.80884,5.5896 c 6.49486,3.0744 13.50523,6.1783 15.57859,6.8978 l 3.76974,1.3081 -137.76974,138.0323 c -75.773365,75.9179 -138.495195,138.1724 -139.381845,138.3435 -0.88665,0.1711 -3.0167501,-0.8709 -4.7335501,-2.3155 z M 355.66857,1932.788 l 114.34006,-114.2121 4.24568,0.4621 c 2.33513,0.2541 12.23438,0.4601 21.99834,0.4577 H 514.0053 L 400.25429,1933.2457 286.50329,2047 h -22.58738 -22.58739 z m 275.06168,1.962 c 61.84061,-61.7375 112.82079,-112.1471 113.28928,-112.0214 0.4685,0.1257 3.98883,2.2578 7.82298,4.7381 3.83414,2.4803 9.82559,5.7215 13.31433,7.2026 3.48874,1.481 6.54901,2.8547 6.8006,3.0525 0.25159,0.1979 -46.54761,47.3664 -103.99821,104.819 L 563.50359,2047 h -22.60541 -22.60542 z m 261.70009,14.261 98.0697,-97.989 22.49806,-0.011 22.4981,-0.011 -97.99616,98 -97.99621,98 h -22.57154 -22.57153 z m 282.91686,0.013 98.1528,-97.9765 23.4981,-0.024 23.4981,-0.024 -97.9962,98 -97.9962,98 h -23.6547 -23.6548 z m 265.6172,10.6839 c 48.1446,-48.011 92.5102,-92.111 98.5904,-98 L 1550.6095,1851 h 23.9434 23.9433 l -97.9962,98 -97.9962,98 h -24.5375 -24.5374 z m 189.1449,87.0426 c 0.2434,-0.1375 45.6559,-45.3524 100.9167,-100.4775 l 100.474,-100.2276 10.3053,-2.5954 c 30.4651,-7.6728 53.2333,-22.9253 69.0679,-46.2692 7.7502,-11.4256 14.4437,-27.7311 17.153,-41.7849 l 1.1768,-6.1047 59.412,-59.3953 59.412,-59.3954 -0.2635,23.5 -0.2635,23.5 -185.0142,184.75 -185.0141,184.75 h -23.9025 c -13.1464,0 -23.7034,-0.1125 -23.4599,-0.25 z m 312.3315,-35.5 c 19.832,-19.6625 51.696,-51.2664 70.8087,-70.2308 L 2048,1906.5383 v 22.6743 22.6742 l -49.4255,47.5566 L 1949.149,2047 h -21.3833 -21.3832 z m -1206.41228,-224 c 0.0888,-2.335 37.32405,-39.7336 57.97148,-58.2257 6.325,-5.6648 13.3,-12.1594 15.5,-14.4325 2.2,-2.2731 10.75,-10.2974 19,-17.8318 28.23314,-25.7842 35.00978,-32.0397 44.0316,-40.6452 4.96734,-4.7381 17.56734,-16.4829 28.00004,-26.0996 21.3215,-19.6538 44.9402,-42.9959 51.114,-50.5152 8.3018,-10.1113 17.3527,-22.8781 25.1673,-35.5 2.4753,-3.998 16.8312,-32.5341 19.3799,-38.5225 9.49756,-22.3159 17.34396,-48.497 21.31256,-71.1134 1.9497,-11.1113 3.3793,-34.8702 2.591,-43.0595 l -0.5964,-6.1954 -5.5,3.9266 c -22.32606,15.9391 -59.57026,35.1133 -81.99996,42.2155 -34.3813,10.8865 -91.75967,34.3594 -117.50004,48.068 -1.1,0.5858 -6.2663,3.2885 -11.48066,6.006 -5.21436,2.7174 -11.16792,6.006 -13.23013,7.3078 -2.06221,1.3018 -4.00639,2.3669 -4.3204,2.3669 -0.82684,0 -22.88713,13.5398 -39.91763,24.5 -2.56385,1.65 -7.08137,4.9125 -10.03892,7.25 -2.95755,2.3375 -5.6967,4.25 -6.087,4.25 -0.3903,0 -3.07992,2.025 -5.97694,4.5 -2.89702,2.475 -5.56856,4.5 -5.93677,4.5 -2.95995,0 -50.89623,44.7037 -61.51155,57.3635 -1.375,1.6398 -3.40495,3.9417 -4.51099,5.1154 -2.89316,3.0701 -16.66329,20.3915 -19.49374,24.5211 -1.3194,1.925 -2.66935,3.725 -2.99988,4 -0.33053,0.275 -1.67846,2.3 -2.99539,4.5 -1.31693,2.2 -2.69523,4.225 -3.06288,4.5 -0.36765,0.275 -1.64414,2.3 -2.83665,4.5 -1.1925,2.2 -3.48772,6.025 -5.10047,8.5 -1.61275,2.475 -3.90701,6.2862 -5.09835,8.4693 -1.19134,2.1831 -2.94776,5.1081 -3.90316,6.5 -0.9554,1.3919 -5.69664,9.2807 -10.53608,17.5307 -10.70587,18.2507 -19.01228,31.816 -22.35001,36.5 -9.95151,13.9654 -18.61772,24.285 -22.25414,26.5 -0.90296,0.55 -3.67528,2.4565 -6.1607,4.2366 -9.63611,6.9016 -28.52032,12.072 -47.19756,12.9223 -15.84064,0.7212 -24.75684,-0.7473 -39.25221,-6.465 -16.88572,-6.6605 -30.7283,-18.1924 -43.18037,-35.9723 -2.41837,-3.4531 -4.88538,-6.0804 -5.48223,-5.8384 -0.59685,0.242 -5.13519,1.3462 -10.08519,2.4539 -14.6921,3.2875 -31.03703,5.3345 -47.06084,5.8936 l -15.06084,0.5255 -10.43916,-3.516 c -25.30593,-8.5233 -56.02471,-23.9295 -68.08939,-34.1484 -16.26955,-13.7805 -34.12513,-32.9283 -45.77864,-49.0918 -2.77577,-3.85 -5.38981,-7.45 -5.80899,-8 -2.49492,-3.2736 -8.59516,-14.1883 -12.01636,-21.5 -11.17705,-23.8873 -18.4915,-55.0746 -21.34254,-91 -2.55897,-32.2453 0.83104,-54.7663 12.744,-84.663 4.58696,-11.5114 15.72534,-34.0306 21.18787,-42.837 1.70581,-2.75 3.99922,-6.6372 5.09647,-8.6382 4.23254,-7.7187 27.81322,-41.8687 34.58676,-50.0892 0.78283,-0.95 2.62125,-3.5375 4.08538,-5.75 1.46413,-2.2124 2.95523,-4.0226 3.31356,-4.0226 0.35833,0 1.45274,-1.3564 2.43203,-3.0142 0.97928,-1.6578 3.43881,-4.9848 5.4656,-7.3933 2.0268,-2.4085 5.26009,-6.3074 7.18509,-8.6643 1.925,-2.3568 5.075,-6.1638 7,-8.4598 1.925,-2.296 5.3,-6.3461 7.5,-9.0001 2.2,-2.654 5.575,-6.6989 7.5,-8.9887 4.70455,-5.5959 9.38176,-11.3403 12.18807,-14.969 1.27156,-1.6442 3.03727,-3.7195 3.9238,-4.6119 0.88652,-0.8923 2.44605,-3.0346 3.4656,-4.7606 1.01956,-1.7259 2.1654,-3.1381 2.54631,-3.1381 0.38092,0 1.97139,-2.0242 3.5344,-4.4982 1.563,-2.474 3.11952,-4.499 3.45893,-4.5 0.33942,0 1.81504,-1.812 3.27917,-4.0244 1.46413,-2.2125 3.30654,-4.8 4.09425,-5.75 4.19931,-5.0648 15.97342,-21.7166 25.96911,-36.7274 25.35988,-38.0836 42.4542,-72.6907 49.64243,-100.5 1.2702,-4.9141 2.27994,-13.8786 2.92857,-26 1.76826,-33.0449 5.7451,-61.9253 10.53407,-76.5 2.48887,-7.57459 12.71129,-29.36247 14.30032,-30.47945 0.4073,-0.2863 1.81804,-2.32055 3.13497,-4.52055 1.31693,-2.2 2.6651,-4.225 2.99592,-4.5 0.33082,-0.275 3.25766,-4.325 6.50408,-9 3.24642,-4.675 6.17326,-8.725 6.50408,-9 0.33082,-0.275 1.67899,-2.3 2.99592,-4.5 1.31693,-2.2 2.64574,-4.225 2.9529,-4.5 0.30716,-0.275 1.88994,-2.28402 3.51728,-4.46449 1.62734,-2.18047 3.64978,-4.70759 4.49431,-5.61582 0.84453,-0.90822 3.56051,-4.04761 6.03551,-6.97642 7.09613,-8.39725 13.89448,-15.89543 20.9652,-23.12338 3.59414,-3.67406 9.43341,-9.74906 12.97615,-13.5 3.54274,-3.75094 9.99272,-10.06935 14.33328,-14.04091 12.97759,-11.87433 12.40757,-9.96052 7.113,-23.88126 C 507.43081,783.55547 494.91011,731.40406 489.55937,680 c -3.24109,-31.13682 -4.02579,-70.45797 -1.94934,-97.68144 l 0.54776,-7.18144 7.67111,2.54722 c 4.2191,1.40097 11.4961,3.91517 16.1711,5.5871 4.675,1.67193 12.55,4.45451 17.5,6.18352 4.95,1.729 11.7,4.31709 15,5.75131 3.3,1.43421 8.925,3.74595 12.5,5.13719 3.575,1.39124 11.675,4.85777 18,7.7034 6.325,2.84563 14.875,6.64251 19,8.43751 9.92012,4.31676 46.24513,22.84192 49.91862,25.45768 1.58957,1.13187 3.27065,2.05911 3.73575,2.06052 0.4651,10e-4 3.46416,1.58153 6.66459,3.51137 l 5.81896,3.5088 12.68104,-11.91744 C 690.96435,622.05255 701.04983,614.15172 730.39623,594 746.35395,583.04208 755.79438,576.40357 768,567.55701 c 4.125,-2.98977 9.75,-7.03977 12.5,-9 C 792.93189,549.69545 804.42853,541.2471 818,531 c 3.27794,-2.475 8.66956,-6.525 11.98137,-9 12.53467,-9.36747 18.66502,-14.12898 23.17676,-18.00167 2.56197,-2.19908 5.05578,-3.99833 5.54179,-3.99833 0.48602,0 2.87105,-2.025 5.30008,-4.5 2.42903,-2.475 4.91353,-4.5 5.52112,-4.5 0.60758,0 2.42639,-1.40795 4.04179,-3.12877 1.61543,-1.72083 4.71323,-4.4361 6.88403,-6.03395 12.0506,-8.87004 82.793,-75.93067 81.4822,-77.24148 -0.2761,-0.27612 -3.4106,-2.00431 -6.9656,-3.84043 -18.5969,-9.60523 -35.1471,-23.07616 -45.2526,-36.83298 -2.5948,-3.53231 -5.1313,-6.92848 -5.6367,-7.54703 -1.9512,-2.38812 -6.931,-13.21702 -9.4351,-20.51735 -10.0796,-29.38636 -8.3363,-63.85159 4.5201,-89.35801 2.7858,-5.52693 9.4382,-16.32577 10.7806,-17.5 0.3143,-0.275 1.9071,-2.3 3.5394,-4.5 3.4168,-4.60512 21.5842,-22.5 22.8426,-22.5 0.4628,0 2.7173,-1.52748 5.0099,-3.39441 10.9087,-8.88345 37.548,-19.83053 56.1512,-23.07466 11.60956,-2.02453 41.23116,-2.05826 52.69006,-0.06 9.999,1.74367 31.6685,8.70749 37.327,11.99555 2.2,1.2784 6.2092,3.4989 8.9093,4.93447 2.7002,1.43556 6.9148,4.07012 9.3658,5.85457 6.9743,5.07763 25.8897,22.45116 28.3316,26.02212 1.2119,1.77229 2.7149,3.67235 3.34,4.22235 0.6251,0.55 2.2191,2.8 3.5422,5 1.323,2.2 2.7221,4.225 3.109,4.5 0.5963,0.42379 6.1232,11.89381 8.9143,18.5 8.4189,19.92628 9.0196,52.52512 1.4012,76.03849 -7.6217,23.52379 -23.1884,43.60056 -45.2781,58.39647 -9.204,6.16496 -14.5037,9.34046 -18.6478,11.17361 -2.4681,1.09176 -4.4875,2.26904 -4.4875,2.61617 0,0.73184 16.0213,17.0645 30.4968,31.08954 5.4983,5.32715 12.0233,11.74349 14.5,14.25854 3.8142,3.8732 16.2384,14.98452 40.5032,36.22321 7.8503,6.87131 25.4489,21.0868 27.6417,22.32798 1.0922,0.6182 3.1947,2.2413 4.6721,3.60687 1.4774,1.36558 5.3391,4.45977 8.5816,6.87599 3.2425,2.41622 8.4175,6.28963 11.5,8.60758 3.0825,2.31795 8.0796,6.0285 11.1046,8.24565 3.025,2.21716 8.2,6.02914 11.5,8.47107 3.3,2.44193 7.8,5.69452 10,7.22797 2.2,1.53345 6.503,4.71247 9.5622,7.06448 3.0593,2.35201 5.9021,4.27638 6.3175,4.27638 0.4153,0 3.175,1.9125 6.1326,4.25 2.9575,2.3375 7.3147,5.51509 9.6825,7.0613 4.8743,3.18292 9.515,6.3583 15.2138,10.40986 2.1497,1.52836 5.3587,3.67884 7.131,4.77884 3.0004,1.8622 14.2202,9.44174 24.2891,16.40854 5.8174,4.02509 14.1184,10.56418 20.7445,16.34146 2.9964,2.6125 5.7813,4.75 6.1887,4.75 1.2754,0 26.2358,25.44082 33.4283,34.07176 18.0503,21.66024 30.4208,43.71864 41.4596,73.92824 9.7715,26.74172 14.3547,43.52466 19.0582,69.78832 2.326,12.9883 2.6439,17.44508 2.7133,38.04542 l 0.079,23.33373 10.3403,6.91627 c 5.6871,3.80394 10.5008,6.91626 10.697,6.91626 0.3426,0 9.2175,6.43442 18.2789,13.25242 2.3739,1.78617 5.3664,3.92258 6.6501,4.74758 2.6617,1.71064 10.2397,7.5359 17.8449,13.71748 2.8538,2.31962 7.4388,6.04477 10.1888,8.27812 24.9964,20.30027 71.0463,65.15076 84.5846,82.38151 1.2433,1.5824 3.1954,3.8595 4.338,5.0602 1.1426,1.2006 3.8774,4.385 6.0774,7.0763 2.2,2.6913 5.3652,6.4892 7.0337,8.4398 1.6685,1.9507 4.3685,5.2881 6,7.4165 1.6315,2.1285 4.0913,5.3305 5.4663,7.1157 2.2482,2.9187 12.198,16.0864 17.0125,22.5144 10.9977,14.6835 42.1245,61.0217 47.3571,70.5 0.9109,1.65 3.4908,5.9242 5.7331,9.4981 2.2423,3.574 5.6975,9.424 7.6783,13 1.9807,3.5761 3.8775,6.7269 4.2151,7.0019 1.9894,1.6206 34.8132,64.8112 41.2956,79.5 0.9709,2.2 4.039,9.175 6.8181,15.5 2.779,6.325 5.6479,12.85 6.3752,14.5 10.2058,23.1532 27.9881,72.0963 36.1508,99.5 24.4375,82.0409 39.2248,160.8487 46.8155,249.5 3.3152,38.7177 9.5125,146.0411 9.5421,165.25 l 0.01,4.25 h -569.5 c -313.22496,0 -569.48717,-0.3375 -569.47148,-0.75 z m 1024.96498,-105.5 c 0,-32.5875 -0.4668,-68.025 -1.0296,-78.75 -3.6898,-70.324 -14.3759,-133.478 -34.3489,-203 -6.0933,-21.2096 -17.9176,-58.6063 -23.0815,-73 -10.6024,-29.5527 -18.9832,-51.9667 -21.4999,-57.5 -0.5003,-1.1 -4.0359,-9.425 -7.8568,-18.5 -12.5012,-29.691 -24.6261,-54.3146 -42.3473,-86 -14.2387,-25.4587 -16.3662,-29.1469 -17.6478,-30.5939 -0.5329,-0.6016 -1.7112,-2.5294 -2.6185,-4.2839 -0.9073,-1.7545 -3.8014,-6.4372 -6.4313,-10.4061 -2.6299,-3.9688 -5.423,-8.1903 -6.2068,-9.381 -7.6148,-11.5678 -17.7523,-26.0044 -21.4612,-30.5625 -0.7731,-0.95 -2.6035,-3.5375 -4.0676,-5.75 -1.4641,-2.2124 -2.9398,-4.0234 -3.2792,-4.0244 -0.3394,0 -1.8959,-2.026 -3.4589,-4.5 -1.563,-2.474 -3.1535,-4.4982 -3.5344,-4.4982 -0.3809,0 -1.5268,-1.4122 -2.5463,-3.1381 -1.0196,-1.726 -2.5852,-3.8696 -3.4791,-4.7635 -0.894,-0.894 -2.7236,-3.1943 -4.0659,-5.1119 -1.3423,-1.9176 -3.4378,-4.6115 -4.6566,-5.9865 -1.2189,-1.375 -4.0946,-4.75 -6.3906,-7.5 -13.0183,-15.593 -38.5833,-41.7804 -53.0956,-54.38835 -12.3396,-10.72024 -17.9427,-15.45588 -21.4293,-18.11165 -1.8052,-1.375 -6.751,-5.2 -10.9906,-8.5 -4.2397,-3.3 -9.9069,-7.575 -12.5938,-9.5 -12.6808,-9.08484 -22.1747,-15.63416 -24.6543,-17.00749 -1.4969,-0.82912 -5.3825,-3.41662 -8.6345,-5.75 -3.252,-2.33338 -6.2852,-4.24251 -6.7403,-4.24251 -0.4551,0 -3.7853,-2.025 -7.4004,-4.5 -3.6151,-2.475 -7.0375,-4.5 -7.6053,-4.5 -0.5679,0 -2.4055,-0.97768 -4.0836,-2.17262 -2.9074,-2.07026 -10.1744,-6.17404 -26.7576,-15.11039 -17.0434,-9.18438 -55.3306,-27.52911 -61,-29.2272 -1.375,-0.41184 -4.75,-1.88037 -7.5,-3.2634 -2.75,-1.38302 -7.925,-3.53244 -11.5,-4.77648 -3.575,-1.24404 -9.875,-3.6207 -14,-5.28147 -15.5547,-6.26249 -51.5448,-18.0739 -68.5,-22.48069 -35.3743,-9.19406 -63.2917,-15.41304 -75.3311,-16.78106 -4.7316,-0.53764 -9.6795,-1.24772 -10.9952,-1.57795 -2.1931,-0.55041 -2.3438,-0.36008 -1.8106,2.28542 6.1662,30.59128 9.5507,75.98104 6.7332,90.30174 C 1109.7714,916.81634 1097.9428,926 1079.5,926 c -14.4447,0 -25.746,-5.41599 -30.2567,-14.5 -1.7579,-3.54022 -2.0506,-6.75868 -2.5465,-28 -0.6103,-26.14341 -2.0053,-37.88108 -6.8334,-57.5 -2.8965,-11.76959 -8.9486,-30.19313 -12.4829,-38 -14.3098,-31.60828 -31.59946,-56.24287 -58.42866,-83.25 -8.4912,-8.54744 -14.4176,-13.75 -15.6632,-13.75 -3.4488,0 -26.6461,25.37437 -37.0252,40.5 -1.5096,2.2 -2.9977,4.225 -3.3069,4.5 -0.3092,0.275 -1.6396,2.3 -2.9565,4.5 -1.317,2.2 -2.6704,4.225 -3.0076,4.5 -1.2508,1.02003 -11.2185,19.73714 -15.1612,28.46912 -11.2966,25.01949 -18.31981,51.98684 -20.32172,78.03088 -1.33707,17.39473 -5.13069,25.6796 -13.86909,30.28868 -4.86165,2.56428 -5.87257,2.71033 -18.64043,2.69309 -12.08096,-0.0163 -14.12679,-0.27911 -19.463,-2.5 -9.82834,-4.09051 -15.98024,-14.25954 -16.02052,-26.48177 -0.009,-2.75 0.32959,-6.2375 0.75257,-7.75 1.06082,-3.79332 -0.6499,-3.64701 -13.94131,1.19232 -5.95526,2.16827 -12.17774,4.26471 -13.82774,4.65874 -1.65,0.39404 -6.6,2.25339 -11,4.1319 -4.4,1.8785 -10.25,4.24315 -13,5.25477 -7.11426,2.61706 -23.61938,10.00968 -33,14.78067 -4.4,2.23784 -10.66266,4.83421 -13.91701,5.76971 -14.53713,4.17886 -27.09354,-2.57507 -36.1701,-19.45544 -2.37354,-4.41425 -2.91289,-6.63618 -2.91289,-12 0,-5.81944 0.38239,-7.13341 3.29804,-11.33267 3.38714,-4.87833 11.16,-10.54482 19.20196,-13.99842 4.86832,-2.09068 40.04132,-18.31898 54.25,-25.03013 4.8125,-2.27308 8.75,-4.56216 8.75,-5.08684 0,-0.52469 -1.6875,-2.45082 -3.75,-4.28029 -6.78032,-6.01425 -24.16023,-20.78027 -29.00156,-24.6398 -2.61164,-2.08202 -6.94926,-5.60063 -9.63915,-7.81915 -2.68988,-2.21851 -6.06488,-4.77688 -7.5,-5.68528 -1.43511,-0.90839 -4.66325,-3.35228 -7.17365,-5.43086 C 692.42525,746.70065 690.0127,745 689.57442,745 c -0.43827,0 -2.88431,-1.73419 -5.43564,-3.85375 -2.55133,-2.11956 -5.76378,-4.44305 -7.13878,-5.1633 -1.375,-0.72025 -4.79089,-3.03606 -7.59087,-5.14624 C 666.60915,728.72652 664.01456,727 663.64337,727 c -0.37119,0 -3.45784,-2.025 -6.85921,-4.5 -3.40138,-2.475 -6.56898,-4.5 -7.03911,-4.5 -0.47013,0 -3.52114,-1.81069 -6.78002,-4.02375 -3.25888,-2.21306 -6.72169,-4.31382 -7.69513,-4.66836 -0.97345,-0.35453 -3.5699,-1.83961 -5.7699,-3.30018 -4.27702,-2.83949 -14.44421,-8.4482 -29,-15.9978 -4.95,-2.56739 -9.9,-5.14385 -11,-5.72546 -4.2463,-2.24516 -21.27282,-10.32163 -26.75,-12.68876 -4.34182,-1.87645 -5.75,-2.1482 -5.75,-1.10962 0,0.75649 0.91571,8.49409 2.03491,17.19468 9.40044,73.07825 33.37859,146.43865 67.84309,207.56382 3.6421,6.45952 7.80775,13.88452 9.25699,16.5 7.2222,13.03405 3.61713,24.24553 -11.37245,35.36743 -10.31458,7.65315 -19.9926,9.84215 -30.6532,6.93323 -8.40598,-2.29372 -21.58785,-18.2065 -32.70267,-39.47778 -1.59867,-3.05948 -3.18496,-5.56377 -3.52509,-5.56507 -0.34013,-10e-4 -2.59609,1.91012 -5.01325,4.24762 -2.41715,2.3375 -6.86386,6.55419 -9.88158,9.37043 -6.1531,5.74229 -11.82654,11.95004 -15.80606,17.29462 -1.46812,1.97172 -2.92063,3.80995 -3.22779,4.08495 -0.30716,0.275 -1.63597,2.3 -2.9529,4.5 -1.31693,2.2 -2.66693,4.225 -3,4.5 -0.33307,0.275 -1.68307,2.3 -3,4.5 -1.31693,2.2 -2.66328,4.225 -2.99187,4.5 -0.32859,0.275 -1.52819,2.075 -2.66577,4 -1.13758,1.925 -5.73468,9.54179 -10.21579,16.92619 -10.58819,17.44831 -19.21482,34.56421 -22.46575,44.57381 -4.44672,13.6915 -4.89105,19.3382 -3.12026,39.6535 1.45119,16.6487 1.44816,18.8058 -0.0369,26.2431 -3.54625,17.7605 -10.66137,39.3631 -18.4187,55.9219 -5.65191,12.0646 -17.39489,32.6461 -21.7879,38.1869 -0.43841,0.5529 -4.54639,6.5525 -9.12885,13.3323 -7.84516,11.6071 -19.01423,27.7178 -22.91753,33.0571 -0.9629,1.3172 -2.42573,3.4204 -3.25073,4.6738 -0.825,1.2535 -6.225,8.8726 -12,16.9314 -5.775,8.0588 -11.19008,15.7038 -12.0335,16.9888 -0.84343,1.2851 -2.49166,3.6133 -3.66274,5.1739 -6.45087,8.5961 -9.01512,12.1364 -10.74697,14.8373 -1.05798,1.65 -2.40357,3.5073 -2.99019,4.1272 -0.58663,0.62 -4.2166,5.5308 -8.0666,10.913 -3.85,5.3821 -10.34587,14.3249 -14.43526,19.8728 -4.0894,5.5478 -9.37394,12.787 -11.74344,16.087 -2.3695,3.3 -4.89528,6.675 -5.61285,7.5 -0.71757,0.825 -2.14479,2.85 -3.17161,4.5 -1.02682,1.65 -2.6795,3.9 -3.67263,5 -0.99313,1.1 -5.44126,6.95 -9.88474,13 -4.44348,6.05 -8.62675,11.675 -9.29615,12.5 -0.6694,0.825 -2.55693,3.3 -4.19452,5.5 -1.63758,2.2 -3.24403,4.225 -3.56989,4.5 -1.90622,1.6087 -12.52712,18.3429 -17.23624,27.1573 -9.06649,16.9703 -15.32597,33.5212 -21.87596,57.8427 -2.7431,10.1857 -3.15073,13.4792 -3.56679,28.818 -0.67946,25.05 2.25853,45.4088 9.40018,65.1384 3.24489,8.9644 10.99851,24.4562 13.63943,27.2517 0.67126,0.7105 2.40947,2.8669 3.86269,4.7919 4.72184,6.2548 11.1657,12.628 21.19745,20.9652 19.75268,16.416 35.63879,25.5728 53.16033,30.6418 9.06559,2.6227 11.40162,2.8916 25,2.8777 13.94546,-0.014 15.75864,-0.2407 25.79107,-3.2208 20.15692,-5.9877 33.5395,-14.2764 43.01831,-26.644 4.8487,-6.3264 5.96395,-8.2171 13.71182,-23.2461 3.15473,-6.1194 6.61328,-12.4194 7.68566,-14 1.07239,-1.5806 3.71455,-5.5659 5.87147,-8.8562 9.41826,-14.3674 19.52916,-22.5445 27.81004,-22.4911 2.2614,0.015 7.03663,1.0416 10.61163,2.2823 5.60076,1.9438 6.9401,2.9099 9.68117,6.9835 4.13613,6.1468 5.84183,14.0517 4.28201,19.8444 -1.00443,3.7302 -7.8204,22.7154 -11.25991,31.3633 -5.86522,14.7469 -23.65383,43.3657 -32.67125,52.5625 -0.84261,0.8593 -2.65702,3.2188 -4.03202,5.2431 -1.375,2.0244 -2.80686,3.6838 -3.18191,3.6876 -0.37504,0 -1.65833,1.3781 -2.85174,3.0541 -1.93029,2.7108 -2.03151,3.4008 -0.91689,6.25 6.35423,16.2423 12.56296,24.1377 20.61348,26.2133 4.40721,1.1363 6.13476,1.1095 11.80219,-0.1832 5.4465,-1.2424 7.93236,-2.5524 13.83706,-7.2922 13.02761,-10.4573 15.55631,-13.947 33.62396,-46.4025 14.58328,-26.1965 23.89292,-41.509 42.1418,-69.3147 4.3299,-6.5975 14.45169,-20.9805 15.50796,-22.0368 0.6755,-0.6755 2.20897,-2.8151 3.4077,-4.7547 1.19873,-1.9396 2.49578,-3.5265 2.88234,-3.5265 0.38656,0 1.4465,-1.2375 2.35542,-2.75 0.90892,-1.5125 2.91844,-4.1684 4.46561,-5.9021 1.54716,-1.7337 5.04002,-5.7837 7.76191,-9 6.54444,-7.7333 36.55418,-37.3479 37.84623,-37.3479 0.5564,0 3.39328,-2.1375 6.30419,-4.75 5.5888,-5.0159 10.46432,-8.9685 21.90069,-17.755 3.85,-2.9579 8.575,-6.6856 10.5,-8.2836 1.925,-1.5981 4.85,-3.7414 6.5,-4.763 1.65,-1.0217 5.08745,-3.5655 7.63878,-5.653 2.55133,-2.0875 4.94801,-3.7954 5.32596,-3.7954 0.37794,0 3.31881,-2.025 6.53526,-4.5 3.21645,-2.475 6.15704,-4.5 6.53464,-4.5 0.37761,0 3.4569,-1.9366 6.84287,-4.3036 3.38597,-2.3669 6.94515,-4.6062 7.90929,-4.9762 0.96415,-0.37 4.41935,-2.4834 7.67823,-4.6965 3.25888,-2.213 6.29343,-4.0237 6.74345,-4.0237 0.45002,0 3.11506,-1.5468 5.9223,-3.4373 14.22272,-9.5781 44.13729,-23.9179 68.86922,-33.0131 4.95,-1.8203 12.49921,-4.7137 16.77603,-6.4296 4.27682,-1.716 8.26592,-3.12 8.86468,-3.12 0.59876,0 5.14387,-1.8 10.10025,-4 4.95637,-2.2 9.51723,-4.0022 10.13533,-4.0048 0.618,0 5.6094,-2.0277 11.0919,-4.5 5.4824,-2.4724 10.4651,-4.4952 11.0725,-4.4952 0.6075,0 5.1218,-1.9514 10.0319,-4.3363 4.9101,-2.385 10.2168,-4.6566 11.7928,-5.0481 1.576,-0.3914 5.9334,-2.4502 9.6832,-4.575 3.7498,-2.1249 7.7026,-4.1442 8.784,-4.4875 2.5434,-0.8072 17.499,-9.6079 22.6674,-13.3387 2.2,-1.5881 5.125,-3.4831 6.5,-4.2111 2.6266,-1.3906 9.5667,-6.6762 19.3153,-14.7106 6.3412,-5.2261 25.39146,-23.7352 30.16766,-29.3106 8.3434,-9.7395 15.4691,-19.1152 20.8868,-27.4821 2.1369,-3.3 4.8278,-7.35 5.98,-9 3.7086,-5.3111 18.1892,-34.7591 20.9253,-42.5542 3.5622,-10.1482 6.3084,-22.3433 7.7569,-34.4458 1.4539,-12.1477 1.5109,-42.0659 0.094,-49.1325 -1.2202,-6.084 -0.096,-11.3213 3.4358,-16.0027 1.7095,-2.2661 4.5235,-3.9292 10.1518,-6 6.9755,-2.5663 9.0369,-2.8633 19.7867,-2.8501 15.1864,0.019 21.5551,2.1719 28.7424,9.7176 8.3577,8.7744 9.958,17.9597 7.7129,44.2677 -3.0775,36.0602 -12.1535,69.9823 -27.1567,101.5 -3.9139,8.2219 -15.3949,29.4633 -17.0259,31.5 -0.4404,0.55 -3.1215,4.6 -5.9579,9 -2.8364,4.4 -5.4472,8.225 -5.8019,8.5 -0.3547,0.275 -2.1098,2.6527 -3.9001,5.2837 l -3.2553,4.7837 3.015,9.2163 c 11.7826,36.0179 14.3896,81.1433 7.0445,121.9343 -3.439,19.0989 -12.3302,48.9305 -19.457,65.282 -0.7191,1.65 -2.7417,6.375 -4.4946,10.5 -6.9006,16.2391 -24.4493,49.6102 -29.1855,55.5 -0.4423,0.55 -2.9362,3.9415 -5.542,7.5366 -19.5243,26.9367 -54.49666,61.9825 -90.27426,90.4634 -8.5192,6.7817 -19.4056,15.2135 -23.8858,18.5 -2.6241,1.925 -6.1828,4.625 -7.9081,6 -1.7253,1.375 -6.1016,4.75 -9.7251,7.5 -3.6234,2.75 -9.03,7.025 -12.0146,9.5 -2.9845,2.475 -7.8656,6.525 -10.8468,9 -2.98123,2.475 -5.45704,4.8375 -5.5018,5.25 -0.0448,0.4125 199.94356,0.75 444.41856,0.75 H 1761 Z M 312.54071,1550.6676 c -4.77358,-1.871 -6.59685,-3.2609 -9.16369,-6.9856 C 300.25396,1539.1501 298,1531.7724 298,1526.0818 c 0,-9.4175 5.69471,-31.5408 10.68362,-41.5047 3.37718,-6.7449 9.27516,-16.4942 11.79053,-19.4895 14.68931,-17.4924 28.27882,-28.8848 44.53731,-37.3367 9.99259,-5.1946 17.50889,-5.6004 25.99621,-1.4035 9.34078,4.6191 10.49888,5.4387 14.6642,10.3785 7.67077,9.0971 10.33035,16.8384 8.33313,24.2555 -1.41419,5.2519 -9.04591,13.652 -16.37248,18.0208 -7.8625,4.6884 -12.73904,8.4165 -17.22156,13.1656 -8.28798,8.7809 -14.21745,20.5539 -15.02494,29.8322 -0.90048,10.3468 -3.3821,16.8668 -8.33648,21.9026 -6.11549,6.216 -12.9007,8.3815 -27.54954,8.7922 -9.60913,0.2694 -11.75351,0.013 -16.95929,-2.0272 z m 239.29631,-388.075 C 535.75657,1157.166 528,1147.3887 528,1132.5454 c 0,-6.8749 1.1946,-10.396 8.15786,-24.0454 7.29553,-14.3007 15.42122,-26.9087 27.80736,-43.1463 6.07734,-7.9671 23.56301,-25.3117 34.66819,-34.3885 8.4757,-6.9276 13.04632,-10.218 27.32495,-19.6713 6.92941,-4.5876 33.3576,-17.94616 42.54392,-21.50443 24.30483,-9.41436 26.75286,-10.12039 36.66137,-10.57337 8.76034,-0.40048 10.16246,-0.20661 15,2.07402 7.4569,3.51552 12.41128,8.57698 16.08955,16.43727 5.39087,11.52001 5.10309,21.89911 -0.82236,29.65941 -2.91054,3.8118 -5.37543,5.491 -14.22569,9.6909 -5.88783,2.7942 -12.98207,5.9451 -15.76497,7.002 -2.7829,1.0569 -5.92692,2.5557 -6.98672,3.3307 -1.78656,1.3063 -1.80872,1.543 -0.30418,3.2493 2.6368,2.9904 6.47954,11.4333 7.89228,17.3403 3.73379,15.6118 -2.03587,37.8329 -13.28812,51.1774 -3.73656,4.4313 -13.38915,11.0905 -20.25344,13.9726 -2.0689,0.8686 -9.05218,1.2561 -22.5,1.2484 -21.41506,-0.012 -25.79605,-0.88 -37.34204,-7.3962 -2.8454,-1.6058 -5.70785,-2.5894 -6.361,-2.1857 -1.25101,0.7731 -12.29696,19.7743 -12.29696,21.1531 0,0.4414 -1.87307,3.6074 -4.16238,7.0357 -3.4799,5.2112 -5.16051,6.7054 -10.25,9.1132 -7.82422,3.7015 -17.68749,3.87 -27.7506,0.4741 z M 1388.8898,818.06098 c -2.079,-18.58276 -7.2747,-38.30731 -15.5574,-59.06098 -4.69,-11.7516 -13.1062,-29.27424 -16.2893,-33.91444 -0.9755,-1.42206 -3.5033,-5.28556 -5.6173,-8.58556 -5.0298,-7.85159 -14.9364,-20.85388 -19.9133,-26.13592 C 1322.8193,681.13781 1305.4691,664 1304.8218,664 c -0.4403,0 -3.2387,-2.1375 -6.2185,-4.75 -2.9798,-2.6125 -8.153,-6.775 -11.4959,-9.25 -3.3429,-2.475 -8.7671,-6.525 -12.0538,-9 -3.2867,-2.475 -8.6867,-6.525 -12,-9 -3.3133,-2.475 -8.7218,-6.525 -12.0189,-9 -3.297,-2.475 -8.7126,-6.525 -12.0347,-9 -3.3221,-2.475 -8.7221,-6.525 -12,-9 -3.2779,-2.475 -8.6944,-6.525 -12.0366,-9 -3.3423,-2.475 -8.7316,-6.6375 -11.9763,-9.25 -3.2447,-2.6125 -6.2082,-4.75 -6.5855,-4.75 -0.3773,0 -3.0563,-2.025 -5.9533,-4.5 -2.897,-2.475 -5.5737,-4.5 -5.9483,-4.5 -0.3746,0 -3.0513,-2.025 -5.9483,-4.5 -2.897,-2.475 -5.597,-4.5 -6,-4.5 -0.403,0 -3.0545,-1.9125 -5.8922,-4.25 -2.8377,-2.3375 -5.8777,-4.7 -6.7554,-5.25 -1.6257,-1.01863 -9.4169,-7.02803 -17.7692,-13.70542 -10.3806,-8.29896 -15.4711,-12.52734 -20.5195,-17.04458 -2.9198,-2.6125 -5.6217,-4.75 -6.0042,-4.75 -1.2746,0 -59.8835,-53.48861 -75.4483,-68.8567 C 1031.7275,441.81449 1024.4352,435 1023.9576,435 c -0.4775,0 -3.4758,2.55029 -6.6629,5.6673 -24.63846,24.09669 -59.15256,56.1715 -68.29466,63.46799 -2.475,1.97533 -7.5388,6.24048 -11.2529,9.47811 -3.7141,3.23763 -9.2274,7.9116 -12.2518,10.3866 -3.0244,2.475 -7.9474,6.525 -10.9399,9 -2.9925,2.475 -7.6042,6.16863 -10.2482,8.20808 -2.644,2.03944 -7.6,5.97694 -11.0134,8.75 -3.4134,2.77305 -6.5149,5.04192 -6.8922,5.04192 -0.3773,0 -3.0563,2.025 -5.9533,4.5 -2.897,2.475 -5.5528,4.5 -5.90164,4.5 -0.34887,0 -3.30439,2.1375 -6.56781,4.75 -3.26342,2.6125 -8.66121,6.775 -11.99509,9.25 -3.33387,2.475 -8.73506,6.525 -12.00264,9 -3.26758,2.475 -8.67869,6.525 -12.0247,9 -3.346,2.475 -7.51752,5.67785 -9.27005,7.11745 -1.75253,1.4396 -5.02054,3.9146 -7.26225,5.5 -2.24172,1.5854 -7.58382,5.58255 -11.87134,8.88255 -4.28752,3.3 -9.92598,7.575 -12.5299,9.5 -2.60393,1.925 -8.22532,6.2 -12.49198,9.5 -4.26667,3.3 -9.66011,7.35 -11.98543,9 -2.32532,1.65 -5.76182,4.26098 -7.63668,5.80218 -1.87486,1.54119 -7.47171,6.08399 -12.43746,10.09509 -11.04098,8.91841 -27.81174,25.12778 -27.32643,26.41171 0.38983,1.03136 13.4288,11.19102 14.36261,11.19102 0.31903,0 3.37285,2.23577 6.78626,4.96839 3.4134,2.73261 8.35145,6.67011 10.97342,8.75 19.58428,15.53525 43.96983,37.03285 63.04572,55.57928 3.84544,3.73871 7.31879,6.43871 7.71855,6 0.39975,-0.43872 2.31278,-5.07267 4.25116,-10.29767 9.95176,-26.82539 22.31235,-49.88488 38.59417,-72 5.5733,-7.57004 7.53675,-9.9858 16.62321,-20.45246 8.4389,-9.72088 14.5393,-15.82763 26.1153,-26.14285 C 921.60724,632.93672 928.68154,627 929.54684,627 c 0.3716,0 2.763,-1.71524 5.3144,-3.81165 2.5513,-2.09641 7.4961,-5.69214 10.9885,-7.99051 l 6.3497,-4.17886 4.6503,3.16675 c 2.5576,1.74171 6.4503,4.45612 8.6503,6.03203 2.2,1.5759 6.25,4.43521 9,6.35402 5.044,3.51945 8.0128,5.85368 21.7472,17.09852 l 7.53646,6.1703 4.3581,-1.5324 c 2.397,-0.84282 8.1832,-1.76239 12.8582,-2.0435 16.5793,-0.9969 29.3826,4.7041 34.6485,15.4281 2.8282,5.75978 2.8556,5.99592 3.3515,28.91585 0.4336,20.04187 0.735,23.42602 2.2708,25.5 0.974,1.31524 3.6251,5.31635 5.8913,8.89135 2.2663,3.575 5.1515,8.075 6.4116,10 1.26,1.925 2.8245,4.69536 3.4765,6.15635 1.1021,2.46947 1.7576,2.70167 9.3176,3.30051 14.54,1.15173 36.8225,3.54679 51.1322,5.49598 7.7,1.04885 16.925,2.19577 20.5,2.54871 3.575,0.35293 14.1413,2.21264 23.4808,4.13269 9.3394,1.92004 20.446,4.09594 24.6813,4.83533 22.9347,4.00387 81.6136,21.39611 106.8379,31.66641 5.225,2.12741 9.9197,3.86712 10.4327,3.86602 1.7327,-0.004 37.9297,16.12896 55.0287,24.52578 6.0287,2.96055 11.0538,5.29031 11.1669,5.17725 0.1131,-0.11307 -0.2193,-4.00288 -0.7385,-8.64405 z M 1042.5,355.53382 c 11.275,-1.61182 17.292,-3.48417 22.7286,-7.07271 2.0507,-1.35361 4.1168,-2.46111 4.5915,-2.46111 1.5902,0 12.881,-12.49364 14.9297,-16.52018 4.0333,-7.92733 6.3779,-17.7076 6.9471,-28.97982 1.3086,-25.91692 -5.7174,-43.2777 -22.3052,-55.11453 -20.9492,-14.94903 -69.89486,-14.90573 -90.89606,0.0804 -3.4338,2.45026 -8.1535,6.7367 -10.4884,9.52543 -14.094,16.83375 -16.1477,52.49847 -4.3382,75.33565 1.7765,3.43535 13.1068,15.67304 14.5109,15.67304 0.4746,0 2.5408,1.1075 4.5915,2.46111 11.1166,7.33771 36.69076,10.36606 59.72856,7.07271 z M 4.8979593e-6,1761.6201 v -24.1145 L 65.685895,1671.8141 l 65.685895,-65.6916 4.22371,10.7882 c 2.32305,5.9335 5.57274,13.4606 7.22154,16.7269 l 2.99783,5.9386 -72.907435,73.0792 L 4.8979593e-6,1785.7346 Z M 1914.2896,1512.2563 1911.0974,1492.5 1979.5487,1424.0009 2048,1355.5018 v 23.002 23.0019 l -65.2592,65.2535 -65.2591,65.2534 z M 4.8979593e-6,1485.6147 v -24.1172 L 148.14071,1313.4987 C 275.00982,1186.7512 295.4419,1166.7205 290.4348,1174 c -10.49599,15.2594 -21.52849,30.1431 -37.8036,51 -8.79814,11.275 -22.47982,28.8021 -30.40375,38.9491 -18.92476,24.2342 -30.06548,39.6529 -44.44404,61.5104 l -11.81432,17.9594 -82.984545,83.1565 L 4.8979592e-6,1509.7319 Z M 1857.5818,1292.2532 c -3.1759,-8.6643 -5.9715,-16.4282 -6.2122,-17.2532 -0.2809,-0.9624 34.879,-36.7999 98.1092,-100 l 98.5469,-98.5 -0.2628,24 -0.2629,24 -92.0718,91.7532 -92.0718,91.7532 z M 4.8979593e-6,1210.6868 V 1188.834 L 218.68974,969.47526 C 338.9691,848.82795 437.68499,750.30532 438.05839,750.53609 c 0.3734,0.23077 0.96491,2.11706 1.31448,4.19175 0.34957,2.07469 1.73558,10.07216 3.08002,17.77216 l 2.44445,14 -13.16125,13.5 C 424.4974,807.425 324.3955,907.78389 209.28742,1023.0198 L 4.8979593e-6,1232.5395 Z M 1765.4988,1101.7939 c -4.3994,-7.2401 -8.119,-13.6431 -8.2658,-14.2289 -0.1469,-0.5857 65.2215,-66.54 145.2631,-146.565 l 145.5302,-145.5 -0.2632,23 -0.2631,23 -137.0012,136.72888 -137.0013,136.72892 z M 1646.5,942.83872 c -5.5,-6.04326 -10.1126,-11.29202 -10.2502,-11.66391 -0.1377,-0.3719 92.4498,-93.37546 205.75,-206.67458 L 2048,518.50182 v 22.5601 22.56009 l -195.0252,194.939 c -107.2639,107.21644 -195.3514,195.01244 -195.75,195.10222 -0.3986,0.0898 -5.2248,-4.78125 -10.7248,-10.82451 z M 0.2316149,931.87564 0.5000049,910.25127 454.5,455.37564 908.50004,0.5 931.43554,0.23111362 c 12.6146,-0.1478875 22.7274,-0.1478875 22.4731,0 C 953.65424,0.37900113 738.91247,214.925 476.70468,477 L -0.0367651,953.5 Z M 1523.2124,809.37857 c -1.0036,-1.89371 -8.3957,-24.70624 -9.5313,-29.41406 -0.5553,-2.30258 23.9589,-27.10467 266.8666,-270 L 2048.0259,242.5 l -0.263,23 -0.2629,23 -261.646,261.37857 c -227.7061,227.47336 -261.7752,261.13489 -262.6416,259.5 z M 4.8979593e-6,655.5038 V 633.5087 L 155.75734,477.50435 C 241.42388,391.70196 383.72476,249.15431 471.98153,160.7318 L 632.44837,-0.03640115 654.72582,0.23179943 677.00327,0.5 338.50164,338.99945 4.8979593e-6,677.49889 Z M 1427.6121,607.88652 1417.7242,596.77704 1716.1115,298.38852 2014.4987,0 h 6.1783 c 13.9175,0 27.8836,3.3012366 27.1352,6.414082 C 2047.6405,7.1282057 1910.25,145.25128 1742.5,313.35425 l -305,305.64176 z M 632.23556,559.16552 627.97112,558.5 733.43941,453.04793 c 69.39726,-69.38659 105.64386,-104.95545 105.98166,-104 0.28236,0.79864 2.51025,8.41419 4.95086,16.92346 l 4.43748,15.47138 -20.84069,21.52862 c -11.46238,11.84073 -48.657,49.30098 -82.65471,83.245 L 683.5,547.93277 675,551.88501 c -4.675,2.17373 -11.39947,4.69871 -14.94326,5.61107 -7.16624,1.84497 -21.27258,2.69143 -27.82118,1.66944 z M 1275,486.34401 c -6.875,-5.20696 -12.6126,-9.77725 -12.7502,-10.15619 -0.1376,-0.37895 106.7465,-107.68495 237.5202,-238.45777 L 1737.5403,-0.03872581 1760.272,0.2306371 1783.0037,0.5 1535.2518,248.15561 1287.5,495.81121 Z M 4.8979593e-6,377.98158 V 355.49789 L 177.77041,177.72958 355.54083,-0.03872446 378.02041,0.23063777 400.5,0.5 200.25,200.48264 4.8979592e-6,400.46527 Z M 1214.6849,283.34138 c -0.5622,-7.92006 -3.6205,-25.43632 -5.1229,-29.34138 -0.3977,-1.03362 38.6852,-40.75951 125.7013,-127.76936 L 1461.5417,-0.03872228 1484.2732,0.23063886 1507.0047,0.5 1361.1587,146.34242 1215.3126,292.18483 Z M 1085,126.85427 c -6.325,-2.10967 -13.4779,-4.32489 -15.8954,-4.92271 l -4.3954,-1.08695 59.8954,-60.172304 L 1184.5,0.5 l 23,-0.26365108 23,-0.26365108 -65.4971,65.51365116 c -36.0235,36.032511 -66.1735,65.443911 -67,65.358671 -0.8266,-0.0852 -6.6779,-1.88108 -13.0029,-3.99075 z M 0.0035549,101.99698 0.0071049,79.5 39.745325,39.731844 79.483545,-0.03631108 101.74588,0.23184446 124.00821,0.5 62.004105,62.496976 4.8979593e-6,124.49395 Z"
       id="path1" />
  </g>
</svg>
