<?xml version="1.0" encoding="UTF-8" standalone="no"?>
<!-- Created with Inkscape (http://www.inkscape.org/) -->

<svg
   version="1.1"
   id="svg1"
   width="2048"
   height="2048"
   viewBox="0 0 2048 2048"
   xmlns="http://www.w3.org/2000/svg"
   xmlns:svg="http://www.w3.org/2000/svg">
  <defs
     id="defs1" />
  <g
     id="g1">
    <path
       style="fill:#000000"
       d="m 7.1543579,2044.4764 c -3.836695,-3.2283 -5.935398,-9.7796 -6.82012196,-21.2896 l -0.643861,-8.3764 L 460.09519,1554.3519 C 874.17999,1140.2187 919.99696,1094.0896 915.5,1095.8443 c -75.87556,29.6063 -138.88948,65.521 -191.5,109.145 -24.24782,20.106 -53.62447,50.4988 -72.93631,75.4593 -18.44836,23.8444 -26.15089,36.5568 -56.07755,92.5514 -22.29825,41.7214 -31.52512,56.3908 -42.05131,66.8555 -13.16575,13.0888 -30.78639,19.7039 -55.43483,20.8113 -19.54368,0.878 -33.35119,-2.3676 -48.93961,-11.5038 -9.44873,-5.5377 -23.12671,-19.4698 -31.08092,-31.6583 -4.55025,-6.9725 -7.35807,-10.3815 -8.26422,-10.0338 -3.6994,1.4196 -18.33955,4.7574 -28.38184,6.4708 L 369.5949,1415.8592 184.79745,1600.7275 -6.122454e-8,1785.5958 v -24.0491 -24.049 L 162,1575.5 c 89.1,-89.0987 162,-162.2682 162,-162.5988 0,-0.3307 -3.0375,-1.8646 -6.75,-3.4088 -20.96887,-8.722 -45.97485,-23.1953 -57.25563,-33.1392 -7.38147,-6.5067 -22.43175,-22.5929 -30.5631,-32.6666 -5.34333,-6.6198 -20.35784,-28.3663 -24.93127,-36.1096 -0.83983,-1.4219 -17.29713,14.6287 -102.75,100.2108 L -6.1224483e-8,1509.6916 v -24.0938 -24.0939 L 94.552067,1366.9479 l 94.552073,-94.556 -2.96112,-10.5455 c -11.4072,-40.6246 -16.24232,-98.7552 -10.71507,-128.8228 6.57207,-35.7513 22.49837,-73.7826 50.1268,-119.7008 L 235.07515,997.5 117.53758,1115.0339 -6.1224483e-8,1232.5678 v -21.9153 -21.9154 L 171.75,1016.5532 343.5,844.36936 354.82919,825.43468 C 367.47382,804.30147 388.01698,763.54547 393.35627,749 c 9.05047,-24.65559 13.63547,-44.61143 13.65362,-59.42622 0.0227,-18.50556 4.14073,-60.38566 7.61223,-77.4152 3.80399,-18.66054 11.58437,-36.71277 24.89002,-57.75039 4.83807,-7.6495 11.62673,-18.40819 15.08591,-23.90819 11.20885,-17.82177 42.24398,-55.79128 65.57229,-80.22352 l 10.7164,-11.22352 -2.07493,-6.14421 -2.07493,-6.14421 L 263.36844,690.13156 -6.1224483e-8,953.49858 V 931.99831 910.49804 L 191.06299,719.49902 C 296.14764,614.44956 412.23057,498.08569 449.02506,460.91265 l 66.89907,-67.58735 -3.04277,-10.91265 C 498.91032,332.30665 489.28327,272.06035 487.48792,223.5 c -0.30502,-8.25 -0.81049,-18.77874 -1.12328,-23.3972 l -0.5687,-8.3972 L 242.89797,434.60203 -6.1224483e-8,677.49846 V 655.66497 633.83149 L 243.75,389.39989 c 220.19184,-220.80756 243.77973,-244.76382 244.05758,-247.8691 0.28101,-3.14041 0.50761,-3.36145 2.62191,-2.5576 2.11027,0.80233 8.46697,-5.28569 72.09386,-69.046641 L 632.30288,0 h 22.59609 22.5961 l -75.95464,75.959566 c -41.77505,41.777764 -75.74894,76.138224 -75.49753,76.356594 0.2514,0.21836 7.2071,3.269 15.4571,6.77919 16.62728,7.07454 56.76242,26.65955 71.5,34.89034 16.41616,9.16825 37.0136,21.58214 50.5,30.4359 l 13,8.53443 L 792.95741,116.47801 909.41481,0 h 22.15664 22.1566 L 828.11401,125.54395 702.5,251.08791 l 3.46892,2.70604 c 41.74722,32.56628 66.68352,54.98358 100.02571,89.92135 8.51112,8.91842 15.76316,15.89342 16.11565,15.5 0.35249,-0.39341 2.10866,-5.2153 3.9026,-10.7153 21.30102,-65.3064 61.68793,-121.65867 117.78747,-164.35003 l 8.3004,-6.3165 7.6996,5.74951 c 4.2348,3.16223 11.2462,8.66149 15.5808,12.22056 l 7.8811,6.47105 L 1084.3417,101.1373 1185.4211,0 h 22.5378 22.5378 l -111.9303,111.93364 -111.9303,111.93363 6.9319,7.68877 c 24.1331,26.76778 42.2635,52.03366 58.5589,81.60554 l 6.9863,12.67839 7.6934,0.63565 c 4.2314,0.34961 15.7934,1.49537 25.6934,2.54614 l 18,1.91048 L 1296.0011,165.46612 1461.5023,0 h 22.9977 22.9978 l -168.4567,168.45889 c -92.6512,92.65239 -168.2507,168.63329 -167.9989,168.84646 0.2518,0.21316 5.6328,1.40216 11.9578,2.64222 48.3516,9.47967 104.9228,28.00692 152.1238,49.82109 l 8.6239,3.98555 196.8752,-196.8771 L 1737.4981,0 h 23 23.0001 l -204.457,204.45879 c -112.4513,112.45234 -204.2509,204.65847 -203.9991,204.90252 0.2519,0.24405 6.8932,4.10033 14.7586,8.56951 40.3032,22.90074 78.1426,48.63846 109.8777,74.73706 6.2411,5.13267 11.6795,9.33212 12.0853,9.33212 0.4058,0 113.6871,-112.95 251.7363,-251 L 2014.4985,0 h 6.1784 C 2033.952,0 2048,3.1508928 2048,6.1284214 2048,6.720805 1932.3818,123.05499 1791.0707,264.64884 l -256.9294,257.44335 16.5311,16.19668 c 28.4418,27.86652 51.8635,54.71934 78.1005,89.54149 l 14.5645,19.33037 L 1845.6687,444.83129 2048,242.50185 v 22.55079 22.5508 L 1855,480.5259 c -106.15,106.10736 -193,193.24905 -193,193.64821 0,0.39916 3.3748,5.90158 7.4995,12.2276 19.9247,30.5585 47.8472,79.62939 65.7781,115.59829 5.0723,10.175 9.3534,18.70597 9.5134,18.95771 0.1601,0.25175 68.4476,-67.6977 151.75,-150.99876 L 2048,518.50248 v 22.57937 22.57938 L 1903.6133,708.08062 1759.2266,852.5 l 9.2549,22 c 16.9722,40.34454 35.5983,93.31652 46.59,132.5 2.3914,8.525 4.497,15.7059 4.6791,15.9575 0.1821,0.2516 51.6127,-50.82262 114.2902,-113.49834 L 2048,795.50329 v 22.56105 22.56104 L 1938.474,950.06269 1828.948,1059.5 l 3.9375,17.5 c 5.2588,23.3726 12.3394,59.3886 16.0225,81.5 5.533,33.2173 13.0898,91.2282 13.0914,100.498 6e-4,3.356 3.7762,-0.2774 93.0006,-89.498 l 93,-92.996 v 23.6542 23.6541 l -91.0444,90.8143 -91.0444,90.8143 0.5516,5.0295 c 1.8512,16.8784 6.9633,121.0935 8.635,176.0296 0.6526,21.45 1.3659,39.2058 1.585,39.4572 0.2191,0.2515 38.8551,-37.9975 85.8578,-84.9978 L 2048,1355.5044 v 23 23 L 1962.5,1487 1877,1572.4956 v 114.5 114.5 l 85.5132,-85.4978 85.5132,-85.4978 -0.2632,23.5 -0.2632,23.5 -185.0328,184.7686 -185.0328,184.7686 -23.4672,-0.2686 -23.4672,-0.2686 113.5,-113 113.5,-113 -113.9941,-0.2543 -113.9941,-0.2542 -113.5255,113.5222 -113.5255,113.5222 -24.4804,-0.2679 -24.4804,-0.268 113.6355,-113 113.6355,-113 -114.6296,-0.2542 -114.6296,-0.2543 -113.5076,113.5043 L 1124.4967,2047 h -23.6316 -23.6316 l 113.6333,-113.4793 113.6332,-113.4793 -119.0017,-0.021 -119.0016,-0.02 -113.49665,113.5 -113.49675,113.5 H 816.94126 794.37921 L 907.93961,1933.51 1021.5,1820.0195 l -115.50165,-0.01 -115.50165,-0.01 -113.4967,113.5 -113.4967,113.5 H 540.90022 518.29713 L 631.89856,1933.5155 745.5,1820.0314 l -50.22695,-0.016 -50.22694,-0.016 -1.44166,-2.25 c -2.51623,-3.9271 -3.64789,-10.3019 -4.57291,-25.7597 -1.5592,-26.0553 1.14971,-74.8388 5.40615,-97.3571 l 1.29796,-6.8668 L 466.11679,1867.3832 286.49792,2047 h -22.54617 -22.54617 l 211.07718,-211.0064 211.07718,-211.0064 3.38689,-9.2436 c 11.47502,-31.318 42.27241,-93.4557 57.61399,-116.2436 14.14655,-21.0129 35.22247,-44.8679 83.67165,-94.7047 86.90833,-89.3976 127.68218,-132.0294 136.09408,-142.2953 17.4736,-21.3249 33.3578,-47.8155 45.1557,-75.3072 14.93185,-34.7948 25.10395,-70.7836 29.04605,-102.765 1.4057,-11.4047 2.3446,-44.8882 1.2882,-45.9446 -0.447,-0.4471 -10.1506,9.2669 -598.37469,599.0168 -224.36799,224.95 -408.667253,409.1357 -409.553905,409.3015 -0.886652,0.1658 -3.0167481,-0.8805 -4.7335471,-2.3251 z M 1756.0214,1739.25 c 0.012,-5.3625 0.6768,-21.675 1.4779,-36.25 3.1714,-57.7026 3.6615,-97.5555 3.2407,-263.5 -0.2871,-113.1935 -0.7835,-169.3957 -1.5811,-179 -7.9724,-95.9982 -19.0679,-157.223 -44.4911,-245.5 -25.8551,-89.77676 -49.175,-151.52481 -82.3301,-218 -23.3967,-46.90954 -40.9839,-76.65994 -69.2005,-117.05876 -17.4454,-24.97735 -24.2347,-34.09132 -36.2259,-48.62975 C 1442.2522,528.66839 1306.5296,445.4464 1163.5,408.47597 c -19.4312,-5.02259 -56.3819,-12.9274 -57.095,-12.21426 -0.1702,0.17013 0.5526,5.59354 1.6062,12.05201 5.0019,30.66315 7.5696,76.79773 5.0722,91.1322 -3.12,17.90761 -12.6354,26.99376 -29.6138,28.27783 -12.5551,0.94955 -23.8447,-2.24093 -29.6606,-8.38217 -5.938,-6.27011 -6.7621,-10.01044 -6.7956,-30.84158 -0.049,-30.53216 -2.421,-51.86673 -8.5778,-77.15428 -9.9072,-40.6907 -28.7279,-78.86645 -55.38665,-112.34572 -8.1533,-10.23922 -28.3311,-32 -29.6723,-32 -3.4485,0 -29.32472,32.51893 -40.83178,51.31385 -23.76132,38.81031 -36.48708,78.08161 -41.04391,126.66032 -0.80101,8.53921 -1.91078,17.11636 -2.46617,19.06035 -1.7666,6.18346 -6.58707,12.61828 -11.70719,15.62785 C 852.66897,482.40068 852.02748,482.5 839,482.5 c -12.77693,0 -13.80688,-0.1507 -19.22959,-2.81356 -6.70829,-3.29417 -11.04725,-8.14656 -13.75765,-15.38559 -2.54585,-6.79955 -3.53189,-16.76117 -2.15331,-21.754 0.59749,-2.16392 0.93305,-4.08769 0.74569,-4.27505 -0.52874,-0.52873 -24.59153,8.36751 -39.07387,14.44598 -11.304,4.74447 -27.77578,12.74568 -53.96789,26.21504 -6.02463,3.09819 -7.86528,3.56718 -14,3.56718 -5.90037,0 -7.83166,-0.45164 -11.72942,-2.74295 -9.80589,-5.76443 -18.78736,-20.37352 -19.61213,-31.90072 -0.42396,-5.92546 -0.14198,-7.49925 2.20212,-12.29042 1.47859,-3.02214 4.7246,-7.28717 7.21336,-9.47786 3.74043,-3.29246 47.50228,-26.64088 71.61269,-38.20778 2.6125,-1.25334 4.75,-2.71392 4.75,-3.24573 0,-1.07903 -22.61373,-22.95008 -36.5,-35.30127 -41.89182,-37.26081 -92.63608,-72.17341 -143.25,-98.55752 -9.42662,-4.91393 -15.24954,-7.43904 -15.24879,-6.61265 6.7e-4,0.73529 0.69623,7.4119 1.5457,14.8369 9.99124,87.33135 33.39362,165.93537 72.04944,242 9.94352,19.56627 11.05551,24.64988 7.46932,34.14709 -5.0786,13.44954 -22.13586,25.95465 -35.54799,26.06115 -13.21861,0.10495 -21.9162,-8.92354 -37.95018,-39.39403 l -6.64435,-12.62674 -9.53239,9.82358 C 534.5239,533.30152 528.28117,541.5016 517.18582,560 c -20.77995,34.64476 -35.8187,64.84872 -40.5802,81.50161 -4.38982,15.35296 -4.75313,20.69771 -2.97105,43.70746 l 1.6039,20.70906 -2.56887,12.79094 c -7.25661,36.1321 -19.90559,67.9496 -40.67769,102.32151 -31.3244,51.83296 -94.63109,149.49769 -146.24701,225.61872 -20.42259,30.1185 -31.26629,55.1409 -41.10433,94.8507 -3.77072,15.22 -4.64057,22.8846 -4.64057,40.8903 0,25.2304 3.63994,48.7629 10.6637,68.9417 8.394,24.1153 18.44808,38.5896 40.7471,58.6612 14.4183,12.978 24.15895,19.828 37.09612,26.0873 14.77824,7.15 24.81039,9.2628 40.99308,8.6333 14.0128,-0.5451 18.6231,-1.6043 32.5,-7.4669 22.56566,-9.5332 32.84498,-20.5538 45.82905,-49.1339 13.9256,-30.6525 28.8572,-50.8379 39.01575,-52.7437 8.32987,-1.5627 19.86693,3.1921 24.00963,9.8952 3.09581,5.0091 5.45169,15.2085 4.68848,20.2979 -0.35367,2.3585 -3.81474,13.6592 -7.69126,25.1128 -10.23439,30.2387 -19.95968,48.5109 -40.3186,75.7521 l -8.54179,11.4293 2.60215,7.3217 c 3.02495,8.5113 6.29152,14.4821 10.62048,19.4125 9.31386,10.6079 22.11951,8.686 37.13013,-5.5726 9.89985,-9.4039 14.53437,-16.8463 31.45881,-50.5182 32.5154,-64.6909 62.30908,-111.8373 92.0682,-145.6915 20.7408,-23.5949 69.54137,-66.4685 100.75067,-88.5143 43.31335,-30.5959 65.36751,-42.9113 109.54805,-61.1735 35.62116,-14.7241 73.74229,-32.2095 90.3303,-41.4328 54.4147,-30.25581 96.47145,-76.49374 122.83625,-135.04825 10.2915,-22.85693 15.1349,-39.97705 17.7212,-62.63965 1.4103,-12.35864 1.4659,-45.71334 0.09,-53.86986 -3.0579,-18.12428 6.9701,-27.62438 30.4725,-28.86841 8.5905,-0.45471 11.2177,-0.20218 17.3851,1.6711 6.0316,1.83205 8.1501,3.09159 12.4764,7.41795 9.6869,9.68689 11.7492,20.40619 9.5723,49.75519 -2.0974,28.27879 -6.2085,51.43369 -13.7408,77.39403 -9.0146,31.06871 -26.4382,68.36024 -44.5042,95.25171 l -4.8717,7.2517 2.4988,8.2483 c 12.0821,39.88159 14.9159,92.24149 7.4752,138.12099 -6.5149,40.1715 -26.6235,97.7912 -47.1577,135.1273 -23.1534,42.0983 -65.24545,88.9875 -125.7531,140.0848 -48.0749,40.5982 -82.15607,74.5125 -110.45581,109.9152 -43.94934,54.9802 -72.65476,112.6162 -83.95969,168.5779 -4.42713,21.9152 -7.02184,52.4485 -5.90366,69.4712 L 718.30165,1749 H 1237.1508 1756 Z M 314.12881,1223.3574 c -2.40415,-0.8827 -6.07995,-3.3656 -8.16845,-5.5177 -7.46531,-7.6925 -9.35565,-19.5123 -6.13164,-38.3397 6.28734,-36.7164 23.67823,-64.5136 54.89844,-87.7485 11.76343,-8.7546 16.68452,-10.9484 24.78051,-11.0469 11.99298,-0.1459 24.86991,9.1918 31.63999,22.9438 2.78536,5.6578 3.34664,7.9124 3.31864,13.3306 -0.0223,4.3143 -0.64319,7.6595 -1.83481,9.8854 -2.66066,4.9699 -9.37579,11.8874 -15.72521,16.1992 -8.80026,5.9762 -16.45253,13.4849 -21.53695,21.133 -5.67681,8.5391 -10.33747,21.3421 -10.35595,28.4481 -0.0182,6.9869 -3.29865,17.063 -7.01935,21.5602 -1.74243,2.106 -5.90987,5.1052 -9.65693,6.9499 -6.12495,3.0153 -7.41469,3.265 -18.2144,3.5263 -8.74792,0.2116 -12.70388,-0.1158 -15.99389,-1.3237 z M 553.27298,791.99564 c -7.25976,-2.58087 -15.63902,-8.36887 -19.27682,-13.3155 -6.90654,-9.39143 -8.00053,-23.54715 -2.85164,-36.89868 4.28233,-11.10445 15.09813,-32.20288 22.59174,-44.06982 23.34053,-36.96226 55.46021,-67.12635 94.8843,-89.10732 11.90083,-6.63534 34.01095,-16.48785 43.73478,-19.4887 9.7356,-3.0045 21.41635,-2.90089 28.18276,0.24997 10.89152,5.07177 18.4037,18.2998 19.23765,33.87516 0.42649,7.96544 0.23091,9.22535 -2.20496,14.20409 -1.47013,3.00485 -4.07747,6.64516 -5.79408,8.08959 -1.71661,1.44444 -10.16958,6.15567 -18.78438,10.46941 l -15.66326,7.84316 3.66,7.5035 c 6.80004,13.94103 8.06887,27.61502 4.09668,44.1495 -4.31787,17.97339 -13.35807,31.81519 -25.42906,38.9354 -17.08806,10.07959 -50.806,8.37912 -68.32736,-3.4459 l -4.26989,-2.88172 -2.11014,2.96342 c -1.16058,1.62989 -5.20594,9.44762 -8.9897,17.37276 -7.36842,15.43327 -11.23537,20.41472 -18.35848,23.64963 -5.46558,2.48214 -17.20351,2.43489 -24.32814,-0.0979 z M 1942.4408,2011.25 c 19.832,-19.6625 51.696,-51.2664 70.8087,-70.2308 L 2048,1906.5383 v 22.6743 22.6742 l -49.4255,47.5566 L 1949.149,2047 h -21.3833 -21.3832 z M -6.1224483e-8,377.98158 V 355.49789 L 177.77041,177.72958 355.54083,-0.03872446 378.02041,0.23063777 400.5,0.5 200.25,200.48264 -6.1224483e-8,400.46527 Z M 0.00359994,101.99698 0.00710294,79.5 39.745327,39.731844 79.483547,-0.03631108 101.74588,0.23184446 124.00821,0.5 62.004107,62.496976 -6.1224483e-8,124.49395 Z"
       id="path1" />
  </g>
</svg>
