<?xml version="1.0" encoding="UTF-8" standalone="no"?>
<!-- Created with Inkscape (http://www.inkscape.org/) -->

<svg
   version="1.1"
   id="svg1"
   width="2048"
   height="2048"
   viewBox="0 0 2048 2048"
   xmlns="http://www.w3.org/2000/svg"
   xmlns:svg="http://www.w3.org/2000/svg">
  <defs
     id="defs1" />
  <g
     id="g1">
    <path
       style="fill:#000000"
       d="M 7.0931786,2044.425 C 3.2686076,2041.2068 1.1443516,2034.4202 0.38694961,2023 l -0.563729,-8.5 116.47529939,-116.3853 116.4753,-116.3853 -4.98008,-6.1147 c -8.53817,-10.4834 -22.49571,-32.2792 -28.34436,-44.262 -8.98861,-18.4158 -16.33969,-42.9741 -20.9092,-69.8527 -2.133,-12.5466 -4.5372,-33.9177 -4.55549,-40.4939 -0.008,-3.0283 -0.37091,-6.0661 -0.80552,-6.7504 -0.53701,-0.8457 -28.40847,26.4224 -86.984689,85.1015 L -3.8775497e-7,1785.7032 v -24.0995 -24.0995 L 88.359181,1649.0021 176.71836,1560.5 l 2.27701,-9.5 c 4.78615,-19.9684 15.63983,-47.1004 29.20244,-73 16.90003,-32.2729 38.99112,-65.8866 76.10533,-115.8016 49.20365,-66.1741 71.68171,-101.1237 93.707,-145.6984 21.31331,-43.1338 28.22042,-66.7434 29.39533,-100.4781 l 0.50424,-14.478 L 203.95486,1305.5702 -3.8775505e-7,1509.5965 v -24.0474 -24.0473 L 206.98572,1254.5009 413.97143,1047.5 416.91451,1037 c 6.12112,-21.8383 13.74176,-36.1892 41.68511,-78.5 10.69924,-16.20038 40.68983,-52.35449 61.56502,-74.21757 l 10.7107,-11.21758 -5.95843,-17.78242 C 513.37262,820.82953 505.19821,789.42222 498.86042,755.16942 497.01219,745.18059 495.275,737.03971 495,737.07858 494.725,737.11748 383.35,848.60317 247.5,984.82463 L 0.49999961,1232.5 l -0.269322,-21.8214 -0.269322,-21.8215 L 244.73068,943.35204 489.5,697.84695 489.4747,693.17348 C 489.4608,690.60306 488.82409,679.95 488.05984,669.5 c -1.48681,-20.3301 -1.87541,-74.34229 -0.63818,-88.70102 l 0.74973,-8.70102 9.16431,3.32316 c 21.54613,7.81308 58.71057,23.52546 74.51432,31.50317 l 5.72016,2.88752 19.19248,-19.79841 19.19248,-19.79842 -65.726,-50.60829 -65.726,-50.60828 L 242.25157,711.24843 -3.8775499e-7,953.49845 V 932.02097 910.54348 L 229.5,680.97826 C 355.725,554.71738 459,450.9429 459,450.36829 c 0,-0.57461 -3.6,-3.83525 -8,-7.24587 l -8,-6.20112 V 335.7115 234.50169 L 221.5,456 -3.8775499e-7,677.49831 V 655.66374 633.82918 L 221.5,411.70228 443,189.57539 V 125.78769 62 h 63.84802 63.84803 L 601.38766,31 632.07927,0 h 22.70432 22.70431 L 646.5,31 615.5121,62 H 665.75605 716 l 0.008,65.75 0.008,65.75 L 812.70683,96.75 909.39759,0 h 22.44307 22.44307 L 922.89187,30.950259 891.5,61.900518 l 116.0634,0.04974 116.0633,0.04974 30.809,-31 30.8089,-31 h 22.6224 22.6223 L 1195.7446,34.75528 1161,69.510563 V 134.25528 199 h 50.7446 50.7447 L 1296.7446,164.75544 1331,130.51087 V 96.255435 62 h 34.256 34.2561 L 1430.5,31 1461.4879,0 h 23 23 L 1476.5,31 1445.5121,62 H 1525.256 1605 v 35.24718 35.24718 L 1671.2528,66.24718 1737.5056,0 h 22.9951 22.9951 L 1694.2479,89.252083 1605,178.50417 v 115.497 115.497 L 1809.7509,204.74909 2014.5018,0 h 6.1768 C 2033.9233,0 2048,3.1507206 2048,6.1152273 2048,6.7003542 1898.3836,157.1013 1715.5191,340.33955 L 1383.0382,673.5 l -0.019,87.20589 -0.019,87.20589 7.25,4.18299 c 3.9875,2.30065 12.0398,7.0455 17.8941,10.54411 5.8542,3.49862 11.2072,6.36112 11.8955,6.36112 0.6883,0 142.2695,-140.94838 314.6249,-313.21862 l 313.3734,-313.21862 -0.2689,22.96862 -0.269,22.96862 -300,299.62926 -300,299.62926 11.9704,8.37074 c 30.622,21.41355 62.7796,48.38359 92.4786,77.56031 l 20.551,20.18958 237.75,-237.68879 237.75,-237.68878 v 22.55119 22.55119 l -227.1453,227.06832 -227.1453,227.06832 11.6763,14.2056 c 24.4096,29.6972 54.0913,71.5876 75.1452,106.0538 4.8715,7.975 9.0135,14.706 9.2044,14.9578 0.1908,0.2518 80.8785,-80.0727 179.3058,-178.49894 L 2048,795.50209 v 22.54043 22.54042 l -170.5,170.43756 c -93.775,93.7407 -170.5,170.6781 -170.5,170.972 0,0.2939 4.3061,8.4033 9.5692,18.0209 12.0508,22.0214 31.9421,62.2836 41.7691,84.5453 6.3407,14.3642 20.7302,49.228 23.0691,55.8936 0.5688,1.6209 23.261,-20.623 133.6389,-130.9986 L 2048,1076.5028 v 23.6119 23.612 l -126.6381,126.4717 -126.6381,126.4717 6.5984,19.9149 c 15.2935,46.1577 30.3302,103.9661 39.2549,150.915 0.9409,4.95 2.0296,9.6129 2.4193,10.362 0.4901,0.9423 32.1867,-29.9902 102.856,-100.3765 L 2048,1355.747 v 22.8746 22.8746 l -98.9471,99.0019 -98.9472,99.0019 2.4171,16 c 7.6187,50.4331 12.2539,97.3087 16.0995,162.8117 l 1.7501,29.8117 88.8138,-88.8096 88.8138,-88.8096 v 23.0667 23.0666 l -87.6081,87.4313 -87.6082,87.4312 0.6201,18.5 c 0.3411,10.175 0.9087,25.5875 1.2615,34.25 l 0.6414,15.75 h -35.4063 -35.4063 L 1741,1983.5 1677.5059,2047 h -23.5669 -23.5669 l 63.3313,-63.25 c 34.8323,-34.7875 64.2235,-63.3938 65.314,-63.5696 1.0904,-0.1757 1.9826,-0.7382 1.9826,-1.25 0,-1.3332 -938.27749,-1.2529 -939.61088,0.081 -0.65798,0.658 -15.96761,0.9198 -43.85368,0.75 l -42.8428,-0.2609 6.27117,-7.7951 c 12.37736,-15.3853 31.59067,-36.2098 67.26866,-72.9096 86.90833,-89.3976 127.68226,-132.0294 136.09406,-142.2953 10.2531,-12.5129 22.8175,-31.1932 31.1312,-46.2847 5.9278,-10.7603 13.8092,-27.2817 13.2713,-27.8196 -0.1723,-0.1723 -95.9189,95.2932 -212.77026,212.1455 L 563.50176,2047 h -22.54658 -22.54659 l 247.1962,-247.25 247.19621,-247.25 2.5652,-14 c 3.9607,-21.6164 5.3281,-38.6282 4.8018,-59.7377 l -0.168,-6.7377 -8.25,6.3407 c -22.37447,17.1965 -52.74467,34.7315 -75.24997,43.4475 -52.64807,20.39 -65.89493,26.1515 -98.00003,42.6234 -58.26818,29.8953 -103.29198,61.6144 -143.35189,100.9909 -26.02143,25.5775 -44.43929,47.5453 -61.64043,73.5215 -9.41681,14.2207 -15.40855,24.8056 -38.52154,68.0514 -22.29825,41.7214 -31.52512,56.3908 -42.05131,66.8555 -12.93742,12.8618 -30.62604,19.6063 -54.61398,20.8237 -17.64508,0.8954 -30.10294,-1.4463 -43.5054,-8.178 l -5.20019,-2.6119 -81.5599,81.5553 L 286.49545,2047 H 263.8936 241.29175 l 91.98763,-91.8348 91.98763,-91.8349 -7.35267,-11.188 c -4.81598,-7.3282 -7.82168,-11.0081 -8.71211,-10.6664 -0.7477,0.2869 -4.90112,1.4259 -9.22984,2.5312 -15.15674,3.8698 -31.39458,6.1649 -47.49942,6.7135 l -16.02703,0.546 -10.97297,-4.3542 c -25.20121,-10.0001 -53.31096,-25.6676 -65.15179,-36.3135 -2.81327,-2.5294 -5.51208,-4.5989 -5.99735,-4.5989 -0.48526,0 -55.06792,54.225 -121.29479,120.5 C 66.802161,1992.775 12.062347,2047 11.384996,2047 c -0.67735,0 -2.6086674,-1.1588 -4.2918174,-2.575 z M 1760.7077,1787.75 c -0.4792,-76.2459 -0.8348,-86.6228 -4.2582,-124.25 -7.4643,-82.043 -25.2897,-165.2365 -56.447,-263.4467 -29.789,-93.8968 -66.8501,-176.4446 -111.1429,-247.5533 -16.9865,-27.2706 -44.7028,-66.2796 -61.9483,-87.1885 C 1442.2522,962.66839 1306.5296,879.4464 1163.5,842.47597 c -19.4312,-5.02259 -56.3819,-12.9274 -57.095,-12.21426 -0.1702,0.17013 0.5526,5.59354 1.6062,12.05201 5.0019,30.66315 7.5696,76.79773 5.0722,91.1322 -3.12,17.90761 -12.6354,26.99376 -29.6138,28.27783 -12.5551,0.94955 -23.8447,-2.24093 -29.6606,-8.38217 -5.938,-6.27011 -6.7621,-10.01044 -6.7956,-30.84158 -0.049,-30.53216 -2.421,-51.86673 -8.5778,-77.15428 -9.9072,-40.6907 -28.7279,-78.86645 -55.38667,-112.34572 -8.1533,-10.23922 -28.3311,-32 -29.6722,-32 -3.4486,0 -29.3248,32.51893 -40.83186,51.31385 -23.76132,38.81031 -36.48708,78.08161 -41.04391,126.66032 -0.80101,8.53921 -1.91078,17.11636 -2.46617,19.06035 -1.7666,6.18346 -6.58707,12.61828 -11.70719,15.62785 C 852.66897,916.40068 852.02748,916.5 839,916.5 c -12.77693,0 -13.80688,-0.1507 -19.22959,-2.81356 -6.70829,-3.29417 -11.04725,-8.14656 -13.75765,-15.38559 -2.54585,-6.79955 -3.53189,-16.76117 -2.15331,-21.754 0.59749,-2.16392 0.93305,-4.08769 0.74569,-4.27505 -0.52874,-0.52873 -24.59153,8.36751 -39.07387,14.44598 -11.304,4.74447 -27.77578,12.74568 -53.96789,26.21504 -6.02463,3.09819 -7.86528,3.56718 -14,3.56718 -5.90037,0 -7.83166,-0.45164 -11.72942,-2.74295 -9.80589,-5.76443 -18.78736,-20.37352 -19.61213,-31.90072 -0.42396,-5.92546 -0.14198,-7.49925 2.20212,-12.29042 1.47859,-3.02214 4.7246,-7.28717 7.21336,-9.47786 3.74043,-3.29246 47.50228,-26.64088 71.61269,-38.20778 2.6125,-1.25334 4.75,-2.71392 4.75,-3.24573 0,-1.07903 -22.61373,-22.95008 -36.5,-35.30127 -41.89182,-37.26081 -92.63608,-72.17341 -143.25,-98.55752 -9.42662,-4.91393 -15.24954,-7.43904 -15.24879,-6.61265 6.7e-4,0.73529 0.69623,7.4119 1.5457,14.8369 9.99124,87.33135 33.39362,165.93537 72.04944,242 9.94352,19.56627 11.05551,24.64988 7.46932,34.14709 -5.0786,13.44954 -22.13586,25.95465 -35.54799,26.06115 -13.21861,0.10495 -21.9162,-8.92354 -37.95018,-39.39403 l -6.64435,-12.62674 -9.53239,9.82358 C 534.5239,967.30152 528.28117,975.5016 517.18582,994 c -20.77995,34.6448 -35.8187,64.8487 -40.5802,81.5016 -4.38982,15.353 -4.75313,20.6977 -2.97105,43.7075 l 1.6039,20.709 -2.56887,12.791 c -7.25661,36.1321 -19.90559,67.9496 -40.67769,102.3215 -31.3244,51.8329 -94.63109,149.4977 -146.24701,225.6187 -20.42259,30.1185 -31.26629,55.1409 -41.10433,94.8507 -3.77072,15.22 -4.64057,22.8846 -4.64057,40.8903 0,25.2304 3.63994,48.7629 10.6637,68.9417 8.394,24.1153 18.44808,38.5896 40.7471,58.6612 14.4183,12.978 24.15895,19.828 37.09612,26.0873 14.77824,7.15 24.81039,9.2628 40.99308,8.6333 14.0128,-0.5451 18.6231,-1.6043 32.5,-7.4669 22.56566,-9.5332 32.84498,-20.5538 45.82905,-49.1339 10.38198,-22.8524 22.72143,-42.0008 31.62604,-49.0773 4.6825,-3.7212 9.48806,-4.6702 16.3548,-3.2299 10.4928,2.2009 15.81633,7.6201 18.74432,19.0814 2.16392,8.4704 1.694,10.9795 -6.70256,35.788 -10.23439,30.2387 -19.95968,48.5109 -40.3186,75.7521 l -8.54179,11.4293 2.60215,7.3217 c 3.02495,8.5113 6.29152,14.4821 10.62048,19.4125 9.31386,10.6079 22.11951,8.686 37.13013,-5.5726 9.89985,-9.4039 14.53437,-16.8463 31.45881,-50.5182 32.5154,-64.6909 62.30908,-111.8373 92.0682,-145.6915 20.7408,-23.5949 69.54137,-66.4685 100.75067,-88.5143 43.31335,-30.5959 65.36751,-42.9113 109.54805,-61.1735 35.62116,-14.7241 73.74229,-32.2095 90.33028,-41.4328 54.4143,-30.2556 96.47167,-76.4941 122.83627,-135.0482 10.2915,-22.857 15.1349,-39.9771 17.7212,-62.6397 1.4103,-12.3586 1.4659,-45.7133 0.09,-53.8699 -3.0579,-18.1242 6.9701,-27.6243 30.4725,-28.8684 8.5905,-0.4547 11.2177,-0.2021 17.3851,1.6711 6.0316,1.8321 8.1501,3.0916 12.4764,7.418 9.6869,9.6869 11.7492,20.4062 9.5723,49.7552 -2.0974,28.2788 -6.2085,51.4337 -13.7408,77.394 -9.0146,31.0687 -26.4382,68.3602 -44.5042,95.2517 l -4.8717,7.2517 2.4988,8.2483 c 12.0821,39.8816 14.9159,92.2415 7.4752,138.121 -6.5149,40.1715 -26.6235,97.7912 -47.1577,135.1273 -23.1534,42.0983 -65.24547,88.9875 -125.7531,140.0848 -18.25495,15.4159 -41.12864,35.6594 -44.40499,39.299 L 871.69002,1867 h 444.75788 444.7579 z M 314.12881,1657.3574 c -2.40415,-0.8827 -6.07995,-3.3656 -8.16845,-5.5177 -7.46531,-7.6925 -9.35565,-19.5123 -6.13164,-38.3397 6.28734,-36.7164 23.67823,-64.5136 54.89844,-87.7485 11.76343,-8.7546 16.68452,-10.9484 24.78051,-11.0469 11.99298,-0.1459 24.86991,9.1918 31.63999,22.9438 2.78536,5.6578 3.34664,7.9124 3.31864,13.3306 -0.0223,4.3143 -0.64319,7.6595 -1.83481,9.8854 -2.66066,4.9699 -9.37579,11.8874 -15.72521,16.1992 -8.80026,5.9762 -16.45253,13.4849 -21.53695,21.133 -5.67681,8.5391 -10.33747,21.3421 -10.35595,28.4481 -0.0182,6.9869 -3.29865,17.063 -7.01935,21.5602 -1.74243,2.106 -5.90987,5.1052 -9.65693,6.9499 -6.12495,3.0153 -7.41469,3.265 -18.2144,3.5263 -8.74792,0.2116 -12.70388,-0.1158 -15.99389,-1.3237 z m 239.14417,-431.3618 c -7.25976,-2.5808 -15.63902,-8.3688 -19.27682,-13.3155 -6.90654,-9.3914 -8.00053,-23.5471 -2.85164,-36.8986 4.28233,-11.1045 15.09813,-32.2029 22.59174,-44.0699 23.34053,-36.9622 55.46021,-67.1263 94.8843,-89.1073 11.90083,-6.6353 34.01095,-16.4878 43.73478,-19.4887 9.7356,-3.0045 21.41635,-2.9009 28.18276,0.25 10.89152,5.0718 18.4037,18.2998 19.23765,33.8751 0.42649,7.9655 0.23091,9.2254 -2.20496,14.2041 -1.47013,3.0049 -4.07747,6.6452 -5.79408,8.0896 -1.71661,1.4445 -10.16958,6.1557 -18.78438,10.4694 l -15.66326,7.8432 3.66,7.5035 c 6.80004,13.941 8.06887,27.615 4.09668,44.1495 -4.31787,17.9734 -13.35807,31.8152 -25.42906,38.9354 -17.08806,10.0796 -50.806,8.3791 -68.32736,-3.4459 l -4.26989,-2.8817 -2.11014,2.9634 c -1.16058,1.6299 -5.20594,9.4476 -8.9897,17.3728 -7.36842,15.4332 -11.23537,20.4147 -18.35848,23.6496 -5.46558,2.4821 -17.20351,2.4349 -24.32814,-0.098 z M 1314,711 V 608 H 1024 734 v 50.88165 50.88165 l 13.75,11.956 c 18.08297,15.72363 39.15856,35.98364 58.25015,55.996 8.50808,8.91842 15.75764,15.89342 16.11013,15.5 0.35249,-0.39341 2.10866,-5.2153 3.9026,-10.7153 21.30109,-65.30664 61.6879,-121.65864 117.78795,-164.3504 l 8.3008,-6.31687 9.5256,7.15985 c 44.70667,33.60367 81.26357,75.77866 109.37217,126.18065 l 8.1831,14.67323 7.6588,0.63192 c 72.2719,5.9631 135.0642,19.38829 196.6802,42.05081 11.0118,4.05018 22.0368,8.27812 24.5,9.39542 2.4632,1.11731 4.816,2.04135 5.2285,2.05343 C 1313.6625,813.99014 1314,767.65 1314,711 Z M 665,633.53775 V 608.0755 l -11.70896,-9.06833 -11.70895,-9.06834 -17.32591,17.28059 c -12.10619,12.07451 -16.93883,17.51755 -16.04105,18.06717 0.70668,0.43263 8.25987,4.75769 16.78487,9.61125 8.525,4.85356 20.9,12.25085 27.5,16.43843 6.6,4.18757 12.1125,7.62501 12.25,7.63875 0.1375,0.0137 0.25,-11.43303 0.25,-25.43727 z m 768.5038,-52.65584 c 43.9762,-44.08344 48.7921,-49.20304 39.9962,-42.51862 -5.5,4.17971 -28,21.47681 -50,38.43801 l -40,30.83855 -0.2817,11.68008 c -0.155,6.42404 -0.1533,11.68007 0,11.68007 0.157,0 22.7838,-22.55314 50.2818,-50.11809 z m -21.3321,-92.13191 63.1672,-51.25 -225.6695,-0.25218 c -124.1181,-0.1387 -327.2234,-0.1387 -451.34496,0 L 572.64888,437.5 636.07444,488.67654 699.5,539.85309 1024.2522,539.92659 1349.0044,540 Z M 1536,249.5 V 130 H 1467.5 1399 V 198.5 267 H 1245 1091 V 198.5 130 h -67.5 -67.49997 V 198.5 267 H 802.5 649 V 198.5 130 H 580.5 512 V 249.5 369 h 512 512 z M 887,133 C 887,96.7 886.88622,67 886.74716,67 886.6081,67 856.79687,96.7 820.5,133 l -65.99432,66 H 820.75284 887 Z m 444,55 c 0,-6.05 -0.1202,-11 -0.2671,-11 -0.1468,0 -5.2017,4.95 -11.2329,11 l -10.9659,11 h 11.233 H 1331 Z M 857.89453,1983.5164 921.5,1920.0327 l 22.49703,-0.016 22.4971,-0.016 -63.49413,63.5 -63.49409,63.5 h -22.60842 -22.60842 z m 282.87857,0.017 63.7269,-63.4666 23.497,-0.033 23.4971,-0.033 -63.4941,63.5 -63.4941,63.5 h -23.7299 -23.7298 z m 276.1801,-0.026 63.5468,-63.4928 24.497,-0.01 24.4971,-0.01 -63.4941,63.5 -63.4941,63.5 h -24.5498 -24.5498 z m 525.4876,27.7428 c 19.832,-19.6625 51.696,-51.2664 70.8087,-70.2308 L 2048,1906.5383 v 22.6743 22.6742 l -49.4255,47.5566 L 1949.149,2047 h -21.3833 -21.3832 z M -3.8775499e-7,377.98158 V 355.49789 L 177.77041,177.72958 355.54083,-0.03872446 378.02041,0.23063777 400.5,0.5 200.25,200.48264 -3.8775499e-7,400.46527 Z M 0.00359961,101.99698 0.00710361,79.5 39.745331,39.731844 79.483551,-0.03631108 101.74588,0.23184446 124.00821,0.5 62.004111,62.496976 -3.8775499e-7,124.49395 Z"
       id="path1" />
  </g>
</svg>
