<?xml version="1.0" encoding="UTF-8" standalone="no"?>
<!-- Created with Inkscape (http://www.inkscape.org/) -->

<svg
   version="1.1"
   id="svg1"
   width="2048"
   height="2048"
   viewBox="0 0 2048 2048"
   xmlns="http://www.w3.org/2000/svg"
   xmlns:svg="http://www.w3.org/2000/svg">
  <defs
     id="defs1" />
  <g
     id="g1">
    <path
       style="fill:#000000"
       d="m 7.0931774,2044.425 c -3.77089,-3.173 -5.87968,-9.7992 -6.75891999,-21.2378 l -0.64383,-8.3761 L 250.59446,1763.9055 c 222.16518,-222.1665 251.24776,-250.9062 253.90479,-250.9114 11.10741,-0.022 34.03627,-5.5353 47.97926,-11.537 l 7.97851,-3.4344 -66.9783,67.2387 C 272.54484,1787.054 12.394217,2047 11.360907,2047 c -0.6641,0 -2.5845796,-1.1588 -4.2677296,-2.575 z m 234.0053026,2.325 c 0.2375,-0.1375 77.09079,-76.75 170.78509,-170.25 169.59969,-169.248 170.35054,-169.9801 169.73622,-165.5 -0.33938,2.475 -0.89218,13.05 -1.22845,23.5 l -0.6114,19 -146.6387,146.75 L 286.50255,2047 h -22.91794 c -12.60487,0 -22.72363,-0.1125 -22.48613,-0.25 z m 362.61278,-85 c 47.01406,-46.8875 85.8241,-85.1585 86.24453,-85.0466 0.42042,0.1118 7.68986,0.7071 16.15431,1.3229 8.46444,0.6158 17.37538,1.3503 19.80207,1.6322 l 4.41217,0.5127 -83.40993,83.4144 L 563.50449,2047 h -22.63667 -22.63667 z m 274.20748,1.7627 83.5813,-83.4872 22.4977,-0.013 22.49776,-0.013 -83.49546,83.5 -83.4955,83.5 h -22.58352 -22.58347 z m 282.90406,0.014 83.6772,-83.4731 23.4978,-0.027 23.4977,-0.027 -83.4955,83.5 -83.4955,83.5 h -23.6794 -23.6795 z m 276.1413,-0.021 83.5359,-83.4944 24.4978,-0.01 24.4977,-0.01 -83.4955,83.5 -83.4955,83.5 h -24.5381 -24.5381 z m 277.2613,-0.2555 83.8229,-83.75 14.2258,-1.2837 c 12.7439,-1.1499 33.9362,-4.7909 39.2259,-6.7391 1.1,-0.4052 -37.599,38.9217 -85.9979,87.3931 L 1677.5043,2047 h -23.5509 -23.5508 z m 228.2154,48 c 19.832,-19.6625 51.696,-51.2664 70.8087,-70.2308 L 2048,1906.5383 v 22.6743 22.6742 l -49.4255,47.5566 L 1949.149,2047 h -21.3833 -21.3832 z M 643.60445,1815.75 c -4.22576,-6.5952 -5.88025,-30.0786 -4.56308,-64.7674 1.74996,-46.0871 5.69321,-68.7745 19.62698,-112.9231 11.27942,-35.7384 27.81552,-72.8994 52.42003,-117.8018 18.39875,-33.577 34.37879,-52.8994 97.14409,-117.4624 86.90837,-89.3976 127.68227,-132.0294 136.09407,-142.2953 23.1134,-28.2077 42.7788,-64.5035 56.23726,-103.7949 14.7773,-43.1418 20.5104,-76.4712 19.5999,-113.9428 l -0.1637,-6.7377 -8.25,6.3407 c -22.37446,17.1965 -52.74466,34.7315 -75.24996,43.4475 -52.6481,20.39 -65.8949,26.1515 -98,42.6234 -58.26822,29.8953 -103.29202,61.6144 -143.35193,100.9909 -26.02143,25.5775 -44.43929,47.5453 -61.64043,73.5215 -9.41681,14.2207 -15.40855,24.8056 -38.52154,68.0514 -22.29825,41.7214 -31.52512,56.3908 -42.05131,66.8555 -13.16575,13.0888 -30.78639,19.7039 -55.43483,20.8113 -19.54368,0.878 -33.35119,-2.3676 -48.93961,-11.5038 -9.44873,-5.5377 -23.12671,-19.4698 -31.08092,-31.6583 -4.55025,-6.9725 -7.35807,-10.3815 -8.26422,-10.0338 -0.75486,0.2897 -4.91414,1.4309 -9.24286,2.5362 -15.15674,3.8698 -31.39458,6.1649 -47.49942,6.7135 l -16.02703,0.546 -10.97297,-4.3542 c -25.33421,-10.0529 -52.81543,-25.3967 -65.4786,-36.5592 -21.89529,-19.3006 -48.08643,-53.4753 -60.54499,-79.0005 -11.61566,-23.7982 -19.44697,-53.8682 -24.05686,-92.3716 -2.1888,-18.2815 -2.51369,-57.9727 -0.56464,-68.9811 10.22151,-57.732 40.19487,-114.6262 109.47526,-207.80162 49.20365,-66.17413 71.68171,-101.12368 93.707,-145.69838 19.72578,-39.92095 28.97111,-69.54652 28.99975,-92.92622 0.0227,-18.50556 4.14073,-60.38566 7.61223,-77.4152 3.80399,-18.66054 11.58437,-36.71277 24.89002,-57.75039 4.83807,-7.6495 11.62673,-18.40819 15.08591,-23.90819 11.20758,-17.81975 42.24372,-55.79098 65.56659,-80.21757 l 10.7107,-11.21758 -5.95843,-17.78242 C 510.13598,375.17007 499.79195,331.60449 493.59909,287.38226 486.9564,239.9479 484.72478,186.61647 487.61187,144.29898 l 0.55951,-8.20102 9.16431,3.32316 c 37.02651,13.42659 84.70762,35.27832 119.54413,54.78579 71.4898,40.03229 130.39291,85.97635 189.11481,147.50839 8.51112,8.91842 15.76316,15.89342 16.11565,15.5 0.35249,-0.39341 2.10866,-5.2153 3.9026,-10.7153 21.30106,-65.30664 61.68786,-121.65864 117.78796,-164.3504 l 8.3008,-6.31687 9.5256,7.15985 c 44.70666,33.60367 81.26356,75.77866 109.37216,126.18065 l 8.1831,14.67323 7.6588,0.63192 c 99.1575,8.18141 182.226,30.62346 265.3765,71.69496 100.0224,49.40523 185.1182,116.78784 254.9704,201.89678 33.5387,40.864 72.0709,98.71869 103.9194,156.03096 77.9417,140.25854 124.8473,289.36312 147.3498,468.39892 6.5382,52.0199 11.7272,131.3035 16.6567,254.5 0.6097,15.2379 1.319,97.3938 1.5907,184.25 l 0.4903,156.75 H 1261.1206 645.04611 Z m 1112.41695,-78.5 c 0.012,-5.3625 0.6768,-21.675 1.4779,-36.25 3.1714,-57.7026 3.6615,-97.5555 3.2407,-263.5 -0.2871,-113.1935 -0.7835,-169.3957 -1.5811,-179 -7.9724,-95.9982 -19.0679,-157.223 -44.4911,-245.5 -25.8551,-89.77676 -49.175,-151.52481 -82.3301,-218 -23.3967,-46.90954 -40.9839,-76.65994 -69.2005,-117.05876 -17.4454,-24.97735 -24.2347,-34.09132 -36.2259,-48.62975 C 1442.2522,526.66839 1306.5296,443.4464 1163.5,406.47597 c -19.4312,-5.02259 -56.3819,-12.9274 -57.095,-12.21426 -0.1702,0.17013 0.5526,5.59354 1.6062,12.05201 5.0019,30.66315 7.5696,76.79773 5.0722,91.1322 -3.12,17.90761 -12.6354,26.99376 -29.6138,28.27783 -12.5551,0.94955 -23.8447,-2.24093 -29.6606,-8.38217 -5.938,-6.27011 -6.7621,-10.01044 -6.7956,-30.84158 -0.049,-30.53216 -2.421,-51.86673 -8.5778,-77.15428 -9.9072,-40.6907 -28.7279,-78.86645 -55.38666,-112.34572 -8.1533,-10.23922 -28.3311,-32 -29.6722,-32 -3.4486,0 -29.3248,32.51893 -40.8319,51.31385 -23.7613,38.81031 -36.487,78.08161 -41.0439,126.66032 -0.801,8.53921 -1.9108,17.11636 -2.4661,19.06035 -1.7666,6.18346 -6.5871,12.61828 -11.7072,15.62785 -4.6587,2.73831 -5.3002,2.83763 -18.3276,2.83763 -12.77697,0 -13.80692,-0.1507 -19.22963,-2.81356 -6.70829,-3.29417 -11.04725,-8.14656 -13.75765,-15.38559 -2.54585,-6.79955 -3.53189,-16.76117 -2.15331,-21.754 0.59749,-2.16392 0.93305,-4.08769 0.74569,-4.27505 -0.52874,-0.52873 -24.59153,8.36751 -39.07387,14.44598 -11.304,4.74447 -27.77578,12.74568 -53.96789,26.21504 -6.02463,3.09819 -7.86528,3.56718 -14,3.56718 -5.90037,0 -7.83166,-0.45164 -11.72942,-2.74295 -9.80589,-5.76443 -18.78736,-20.37352 -19.61213,-31.90072 -0.42396,-5.92546 -0.14198,-7.49925 2.20212,-12.29042 1.47859,-3.02214 4.7246,-7.28717 7.21336,-9.47786 3.74043,-3.29246 47.50228,-26.64088 71.61269,-38.20778 2.6125,-1.25334 4.75,-2.71392 4.75,-3.24573 0,-1.07903 -22.61373,-22.95008 -36.5,-35.30127 -41.89182,-37.26081 -92.63608,-72.17341 -143.25,-98.55752 -9.42662,-4.91393 -15.24954,-7.43904 -15.24879,-6.61265 6.7e-4,0.73529 0.69623,7.4119 1.5457,14.8369 9.99124,87.33135 33.39362,165.93537 72.04944,242 9.94352,19.56627 11.05551,24.64988 7.46932,34.14709 -5.0786,13.44954 -22.13586,25.95465 -35.54799,26.06115 -13.21861,0.10495 -21.9162,-8.92354 -37.95018,-39.39403 l -6.64435,-12.62674 -9.53239,9.82358 C 534.5239,531.30152 528.28117,539.5016 517.18582,558 c -20.77995,34.64476 -35.8187,64.84872 -40.5802,81.50161 -4.38982,15.35296 -4.75313,20.69771 -2.97105,43.70746 l 1.6039,20.70906 -2.56887,12.79094 c -7.25661,36.1321 -19.90559,67.9496 -40.67769,102.32151 -31.3244,51.83296 -94.63109,149.49769 -146.24701,225.61872 -20.42259,30.1185 -31.26629,55.1409 -41.10433,94.8507 -3.77072,15.22 -4.64057,22.8846 -4.64057,40.8903 0,25.2304 3.63994,48.7629 10.6637,68.9417 8.394,24.1153 18.44808,38.5896 40.7471,58.6612 14.4183,12.978 24.15895,19.828 37.09612,26.0873 14.77824,7.15 24.81039,9.2628 40.99308,8.6333 14.0128,-0.5451 18.6231,-1.6043 32.5,-7.4669 22.56566,-9.5332 32.84498,-20.5538 45.82905,-49.1339 13.9256,-30.6525 28.8572,-50.8379 39.01575,-52.7437 8.32987,-1.5627 19.86693,3.1921 24.00963,9.8952 3.09581,5.0091 5.45169,15.2085 4.68848,20.2979 -0.35367,2.3585 -3.81474,13.6592 -7.69126,25.1128 -10.23439,30.2387 -19.95968,48.5109 -40.3186,75.7521 l -8.54179,11.4293 2.60215,7.3217 c 3.02495,8.5113 6.29152,14.4821 10.62048,19.4125 9.31386,10.6079 22.11951,8.686 37.13013,-5.5726 9.89985,-9.4039 14.53437,-16.8463 31.45881,-50.5182 32.5154,-64.6909 62.30908,-111.8373 92.0682,-145.6915 20.7408,-23.5949 69.54137,-66.4685 100.75067,-88.5143 43.31335,-30.5959 65.36751,-42.9113 109.54804,-61.1735 35.6212,-14.7241 73.7423,-32.2095 90.3303,-41.4328 54.4147,-30.25581 96.47146,-76.49374 122.83626,-135.04825 10.2915,-22.85693 15.1349,-39.97705 17.7212,-62.63965 1.4103,-12.35864 1.4659,-45.71334 0.09,-53.86986 -3.0579,-18.12428 6.9701,-27.62438 30.4725,-28.86841 8.5905,-0.45471 11.2177,-0.20218 17.3851,1.6711 6.0316,1.83205 8.1501,3.09159 12.4764,7.41795 9.6869,9.68689 11.7492,20.40619 9.5723,49.75519 -2.0974,28.27879 -6.2085,51.43369 -13.7408,77.39403 -9.0146,31.06871 -26.4382,68.36024 -44.5042,95.25171 l -4.8717,7.2517 2.4988,8.2483 c 12.0821,39.88159 14.9159,92.24149 7.4752,138.12099 -6.5149,40.1715 -26.6235,97.7912 -47.1577,135.1273 -23.1534,42.0983 -65.24546,88.9875 -125.75306,140.0848 -48.0749,40.5982 -82.1561,74.5125 -110.45585,109.9152 -43.94934,54.9802 -72.65476,112.6162 -83.95969,168.5779 -4.42713,21.9152 -7.02184,52.4485 -5.90366,69.4712 L 718.30165,1747 H 1237.1508 1756 Z M 314.12881,1221.3574 c -2.40415,-0.8827 -6.07995,-3.3656 -8.16845,-5.5177 -7.46531,-7.6925 -9.35565,-19.5123 -6.13164,-38.3397 6.28734,-36.7164 23.67823,-64.5136 54.89844,-87.7485 11.76343,-8.7546 16.68452,-10.9484 24.78051,-11.0469 11.99298,-0.1459 24.86991,9.1918 31.63999,22.9438 2.78536,5.6578 3.34664,7.9124 3.31864,13.3306 -0.0223,4.3143 -0.64319,7.6595 -1.83481,9.8854 -2.66066,4.9699 -9.37579,11.8874 -15.72521,16.1992 -8.80026,5.9762 -16.45253,13.4849 -21.53695,21.133 -5.67681,8.5391 -10.33747,21.3421 -10.35595,28.4481 -0.0182,6.9869 -3.29865,17.063 -7.01935,21.5602 -1.74243,2.106 -5.90987,5.1052 -9.65693,6.9499 -6.12495,3.0153 -7.41469,3.265 -18.2144,3.5263 -8.74792,0.2116 -12.70388,-0.1158 -15.99389,-1.3237 z M 553.27298,789.99564 c -7.25976,-2.58087 -15.63902,-8.36887 -19.27682,-13.3155 -6.90654,-9.39143 -8.00053,-23.54715 -2.85164,-36.89868 4.28233,-11.10445 15.09813,-32.20288 22.59174,-44.06982 23.34053,-36.96226 55.46021,-67.12635 94.8843,-89.10732 11.90083,-6.63534 34.01095,-16.48785 43.73478,-19.4887 9.7356,-3.0045 21.41635,-2.90089 28.18276,0.24997 10.89152,5.07177 18.4037,18.2998 19.23765,33.87516 0.42649,7.96544 0.23091,9.22535 -2.20496,14.20409 -1.47013,3.00485 -4.07747,6.64516 -5.79408,8.08959 -1.71661,1.44444 -10.16958,6.15567 -18.78438,10.46941 l -15.66326,7.84316 3.66,7.5035 c 6.80004,13.94103 8.06887,27.61502 4.09668,44.1495 -4.31787,17.97339 -13.35807,31.81519 -25.42906,38.9354 -17.08806,10.07959 -50.806,8.37912 -68.32736,-3.4459 l -4.26989,-2.88172 -2.11014,2.96342 c -1.16058,1.62989 -5.20594,9.44762 -8.9897,17.37276 -7.36842,15.43327 -11.23537,20.41472 -18.35848,23.64963 -5.46558,2.48214 -17.20351,2.43489 -24.32814,-0.0979 z M 1930.4613,1792.5 c 1.9368,-5.1595 5.5743,-26.15 6.6871,-38.5877 l 1.2349,-13.8024 54.822,-54.8049 54.8219,-54.805 -0.2636,23.5 -0.2636,23.5 -58.8947,58.5 c -32.3921,32.175 -58.5569,57.6 -58.144,56.5 z M -2.5850339e-6,1761.5568 v -24.0542 L 141.1849,1596.3151 c 126.61586,-126.6182 141.39089,-141.0773 143.18106,-140.1192 1.09788,0.5875 9.0865,3.3875 17.7525,6.2222 l 15.75635,5.1539 L 158.9374,1626.5916 -2.5850339e-6,1785.6111 Z M 1937.6599,1495.9277 c -0.363,-8.3851 -0.6599,-18.4382 -0.6599,-22.3401 v -7.0944 L 1992.5,1411 2048,1355.5068 v 23 23 l -54.8401,54.8333 -54.8401,54.8334 z M -2.5850339e-6,1485.6149 v -24.1201 L 72.409797,1389.0902 l 72.409793,-72.4046 4.06801,8.0908 c 2.23741,4.45 6.03826,11.4235 8.44635,15.4966 l 4.37833,7.4056 -80.856143,81.0282 L -2.5850338e-6,1509.735 Z M 650.05452,1406 c 1.7609,-3.025 8.16318,-14.0281 14.22729,-24.4514 27.02336,-46.4489 43.38665,-68.8817 70.7016,-96.9262 26.2506,-26.9517 55.60451,-49.992 89.01659,-69.8702 10.93634,-6.5065 28.13904,-15.3706 34.40324,-17.7271 3.7439,-1.4084 -36.28279,39.5234 -135.41307,138.4749 -60.01552,59.9073 -75.45935,74.8354 -72.93565,70.5 z m 1270.99958,-179.1524 -2.3118,-21.0879 64.6288,-64.6289 64.6289,-64.6289 -0.094,23.9991 -0.094,23.999 -62.2234,61.7178 -62.2234,61.7177 z M -2.5850339e-6,1210.5648 v -22.0702 L 68.930737,1119.5693 l 68.930733,-68.9253 -5.04421,14.428 c -2.77432,7.9354 -6.93754,21.9819 -9.25161,31.2144 l -4.20739,16.7863 -59.679133,59.7812 L -2.5850339e-6,1232.6351 Z M 1878.4848,1002.3942 c -0.9102,-3.24182 -3.1722,-11.0692 -5.0267,-17.3942 l -3.3717,-11.5 88.9697,-89 88.9698,-89 -0.263,23 -0.2629,23 -83.6801,83.39418 -83.6802,83.39422 z M -2.5850339e-6,931.99798 V 910.49806 L 193.08221,717.49903 386.16441,524.5 l -5.95301,12 c -7.31074,14.73688 -13.84929,31.08845 -18.89074,47.24188 L 357.5,595.98375 178.75,774.74083 -2.5850338e-6,953.49791 Z M 1799.214,789.71031 1791.9281,774.57289 1919.9769,646.53645 2048.0257,518.5 l -0.2628,23 -0.2629,23 L 1927,684.67387 1806.5,804.84773 Z M 0.23650741,655.41107 0.49999741,633.32213 214.5,418.72313 l 214,-214.599 -0.28482,22.72364 -0.28483,22.72363 L 213.95168,463.5357 -0.02698259,677.5 Z M 1698,615.73636 c -4.675,-6.73 -8.6201,-12.68636 -8.7669,-13.23636 -0.1469,-0.55 80.5156,-81.77453 179.25,-180.49896 L 2048,242.50209 v 22.5575 22.55751 l -170.0243,169.94145 c -93.5134,93.4678 -170.3509,170.04781 -170.75,170.17781 -0.3991,0.13 -4.5507,-5.27 -9.2257,-12 z M 1571.7695,471.31754 c -3.4789,-3.19965 -8.2848,-7.55765 -10.6797,-9.68444 l -4.3544,-3.86691 L 1785.6169,228.8831 2014.4984,0 h 6.1784 C 2034.0273,0 2048,3.1517614 2048,6.1631675 2048,7.173982 1580.5887,476.07793 1578.8439,476.81754 c -0.412,0.17465 -3.5955,-2.30035 -7.0744,-5.5 z M -2.5850339e-6,377.98158 V 355.49789 L 177.77041,177.72958 355.54083,-0.03872446 378.02041,0.23063777 400.5,0.5 200.25,200.48264 -2.5850339e-6,400.46527 Z M 1419.4745,362.11005 c -0.536,-0.51641 -7.2103,-4.19148 -14.8318,-8.16683 l -13.8573,-7.22791 173.377,-173.37702 173.377,-173.37701798 22.7324,0.26936399 L 1783.0042,0.5 1601.7266,181.77448 C 1486.3565,297.14263 1420.0947,362.7076 1419.4745,362.11005 Z m -213.783,-82.66059 c -9.7947,-2.32827 -17.9888,-4.41343 -18.2091,-4.63369 -0.2202,-0.22026 61.353,-62.15262 136.8293,-137.62748 L 1461.5414,-0.03872288 1484.2731,0.23063856 1507.0048,0.5 1365.2524,142.09134 1223.5,283.68268 Z M 744.91913,203.16753 c -1.33052,-1.03751 -6.98838,-5.01925 -12.57302,-8.84831 L 722.19222,187.3573 815.7933,93.678648 909.39444,0 h 22.1923 22.1923 l -102.4451,102.25 c -56.34488,56.2375 -102.79405,102.37463 -103.22044,102.52696 -0.42638,0.15232 -1.86385,-0.57192 -3.19437,-1.60943 z M 1044,176.87433 c -2.475,-2.22221 -7.7779,-6.54418 -11.7843,-9.60436 -4.0064,-3.06019 -7.1564,-5.93796 -7,-6.39506 0.1564,-0.45709 36.2612,-36.84094 80.233,-80.852994 L 1185.3975,0 h 22.5492 22.5492 L 1140,90.5 c -49.7727,49.775 -90.7218,90.48081 -90.9979,90.45736 -0.2762,-0.0234 -2.5271,-1.86081 -5.0021,-4.08303 z M 0.00354741,101.99698 0.00710741,79.5 39.745327,39.731844 79.483547,-0.03631108 101.74588,0.23184446 124.00821,0.5 62.004107,62.496976 -2.5850339e-6,124.49395 Z M 560,103.38401 c -4.675,-1.30518 -12.40704,-2.94079 -17.18231,-3.634677 L 534.13538,98.487711 583.18266,49.243855 632.22995,0 h 22.63149 22.63148 L 624.5,53 c -29.14611,29.15 -53.66952,52.94534 -54.49646,52.87853 -0.82695,-0.0668 -5.32854,-1.18934 -10.00354,-2.49452 z"
       id="path1" />
  </g>
</svg>
