<?xml version="1.0" encoding="UTF-8" standalone="no"?>
<!-- Created with Inkscape (http://www.inkscape.org/) -->

<svg
   version="1.1"
   id="svg1"
   width="2048"
   height="2048"
   viewBox="0 0 2048 2048"
   xmlns="http://www.w3.org/2000/svg"
   xmlns:svg="http://www.w3.org/2000/svg">
  <defs
     id="defs1" />
  <g
     id="g1">
    <path
       style="fill:#000000"
       d="m 7.1543567,2044.4764 c -3.89029,-3.2734 -6.00533,-9.9855 -6.76739003,-21.4764 l -0.56371,-8.5 120.00199333,-119.9121 120.002,-119.912 6.28736,5.6897 c 3.45804,3.1293 9.09231,7.5898 12.52059,9.9121 l 6.23324,4.2223 -125.68422,125.9918 c -69.126323,69.2955 -126.409663,126.1312 -127.296313,126.3015 -0.88665,0.1703 -3.0167503,-0.8723 -4.7335503,-2.3169 z M 363.69581,1924.75 c 100.95547,-100.8676 122.87656,-122.3048 125.32993,-122.5633 1.63539,-0.1724 10.60235,0.6151 19.92657,1.75 9.32422,1.1348 17.31121,2.0633 17.74886,2.0633 0.43764,0 -53.42788,54.225 -119.70117,120.5 L 286.50311,2047 h -22.58189 -22.58189 z m 261.49845,15.5 C 728.48873,1837.1117 732.231,1833.5 735.80296,1833.5 c 2.03337,0 11.73926,0.3945 21.56864,0.8766 l 17.8716,0.8767 L 669.37337,1941.1266 563.50354,2047 h -22.61047 -22.61046 z m 308.24101,-32.2112 139.03433,-138.9611 2.5152,1.6662 c 1.3834,0.9164 7.5326,4.8822 13.6649,8.8129 l 11.1498,7.1466 L 969.64827,1916.8517 839.49714,2047 h -22.54816 -22.54815 z m 249.70933,33.2112 c 99.9693,-99.798 106.1687,-105.7897 110.1435,-106.456 2.3165,-0.3883 13.4038,-1.4454 24.6384,-2.3491 11.2346,-0.9038 21.1346,-1.8819 22,-2.1736 0.8654,-0.2918 -47.2507,48.3528 -106.9248,108.0991 L 1124.5035,2047 h -23.6453 -23.6453 z m 257.8198,18.4933 c 48.1446,-47.9911 104.1936,-103.7911 124.5535,-124 l 37.0178,-36.7433 5.9822,0.01 c 6.1173,0.01 25.0991,1.459 33.868,2.5876 l 4.886,0.6289 -122.3844,122.3874 L 1402.5031,2047 h -24.5371 -24.5371 z m 295.4968,-18.489 c 58.3214,-58.1601 152.2829,-151.8726 208.8035,-208.25 l 102.7646,-102.5043 -0.2646,23.5 -0.2647,23.5 -185.0142,184.75 -185.0141,184.75 h -23.5246 -23.5247 z m 205.9796,69.9957 c 19.832,-19.6625 51.696,-51.2664 70.8087,-70.2308 L 2048,1906.5383 v 22.6743 22.6742 l -49.4255,47.5566 L 1949.149,2047 h -21.3833 -21.3832 z M -3.3333334e-6,1761.6063 v -24.1051 L 307.08498,1430.415 l 307.08497,-307.0862 11.16503,11.4107 c 6.14076,6.2758 11.31347,11.8222 11.49492,12.3253 C 637.19151,1148.0673 287.18843,1499 285.82691,1499 c -4.34468,0 -41.02224,17.0154 -54.82691,25.4353 -18.34435,11.1887 -37.30372,28.2818 -46.65933,42.0665 -9.4978,13.9942 -16.63088,32.3628 -18.13661,46.7041 L 165.5,1619.9117 82.749997,1702.8115 -3.3333335e-6,1785.7113 Z M 758.5,1774.9292 c -7.15762,-0.7141 -77.78072,-10.4605 -242.5,-33.4664 -29.975,-4.1865 -59,-7.849 -64.5,-8.1389 -6.24731,-0.3293 -15.06613,0.073 -23.5,1.0733 -7.425,0.8802 -17.1,1.6092 -21.5,1.6199 -21.83722,0.053 -58.62186,8.9973 -78.92341,19.1899 -9.41556,4.7271 -15.43112,8.7095 -21.26019,14.0747 l -4.1836,3.8506 -1.48209,-2.3161 c -0.81515,-1.2739 -22.70957,-37.1401 -48.65427,-79.7026 l -47.17219,-77.3863 6.83788,-6.9472 c 13.95867,-14.182 21.13051,-19.0488 46.83787,-31.7842 39.53176,-19.584 71.60248,-29.9594 111.15547,-35.9604 21.58629,-3.2752 35.29726,-4.0141 74.84453,-4.0337 20.9,-0.01 43.00375,-0.4619 49.11944,-1.0033 10.72782,-0.9497 12.10141,-0.8281 39,3.4536 65.50695,10.4273 189.51257,27.5484 199.50781,27.5455 11.86758,0 33.8179,-1.7747 44.22427,-3.5685 14.42304,-2.4863 23.4498,-5.8666 36.2728,-13.5834 34.06412,-20.4997 49.69025,-33.5257 70.16695,-58.4916 l 4.2206,-5.1458 -8.7559,-1.1625 c -52.5727,-6.9795 -110.22605,-20.6607 -166.3091,-39.4653 -25.66772,-8.6063 -29.49501,-10.1456 -29.2084,-11.7476 0.13116,-0.7331 22.56224,-56.6829 49.84684,-124.3329 27.2846,-67.65 50.44199,-125.0963 51.46085,-127.6585 l 1.85249,-4.6584 -23.69933,-14.2108 c -46.3391,-27.7862 -75.96301,-48.9242 -94.56408,-67.4758 -18.93879,-18.8883 -29.77157,-34.6131 -46.15387,-66.9965 -18.24664,-36.0687 -25.51823,-60.35645 -31.13692,-104 -2.50794,-19.48056 -2.5261,-64.66082 -0.0332,-82.5 7.66566,-54.85461 27.73687,-112.68555 51.54215,-148.50773 14.70494,-22.128 37.87542,-47.60233 60.14656,-66.12696 4.675,-3.88856 18.625,-14.87432 31,-24.41281 38.21016,-29.45186 85.21551,-67.54245 114,-92.37939 34.74091,-29.97653 71.27661,-66.29552 106.83231,-106.19869 l 8.1314,-9.12559 -7.7319,-4.49748 c -25.7816,-14.99676 -46.4583,-37.66663 -55.9769,-61.37301 -14.2491,-35.48786 -13.5286,-79.52628 1.8377,-112.31696 6.5462,-13.96924 16.2002,-27.4513 28.3591,-39.6043 19.6531,-19.64357 40.2042,-30.90843 66.8146,-36.62387 13.58493,-2.91778 41.68283,-3.19231 54.91593,-0.53656 17.5616,3.52443 33.4321,10.04557 48.3178,19.85363 10.5232,6.93364 32.4161,28.8265 39.3497,39.34972 14.0794,21.36825 20.7401,42.57652 21.8273,69.5 2.1408,53.01087 -20.6857,94.90867 -66.4404,121.951 l -7.2635,4.29289 6.7357,7.62805 c 32.545,36.85654 68.9847,74.16111 95.2912,97.55276 32.6659,29.04643 79.5168,67.04196 123.8936,100.47612 13.4164,10.10819 29.1664,22.47297 35,27.4773 38.6134,33.12475 66.42,71.11346 82.436,112.62188 12.9355,33.52513 22.1377,68.70639 27.3334,104.5 4.1293,28.44723 1.1121,80.31562 -6.835,117.5 -7.8874,36.90495 -26.0246,76.4962 -49.247,107.5 -23.0101,30.7203 -54.4597,55.8212 -118.2908,94.4117 l -20.2098,12.2183 1.859,4.685 c 1.0224,2.5767 24.1845,60.035 51.4712,127.685 27.2868,67.65 49.7197,123.6215 49.8509,124.381 0.1649,0.9552 -5.0773,3.1961 -16.9993,7.2668 -56.0651,19.1431 -120.7496,35.4057 -168.2622,42.3034 -9.625,1.3974 -17.8674,2.5425 -18.3164,2.5447 -3.3322,0.017 27.9042,33.2838 39.3508,41.9091 17.9541,13.5288 43.8238,28.5084 55.2287,31.9796 13.0682,3.9774 39.3614,7.1154 59.6205,7.1154 8.383,0 146.5541,-19.1251 202.0219,-27.963 24.2078,-3.8572 25.9051,-4.0007 36,-3.0433 5.827,0.5525 27.9195,1.0096 49.0945,1.0158 42.0834,0.012 54.7572,0.7544 77.7076,4.551 39.9148,6.6028 77.4476,19.0045 112.2924,37.104 21.5764,11.2074 27.943,15.5194 40.1526,27.1951 l 10.1436,9.7001 -46.8157,75.9702 c -25.7486,41.7835 -47.8917,77.6905 -49.2068,79.7933 l -2.3912,3.8232 -4.4123,-4.0671 c -8.8831,-8.1882 -23.2743,-15.9771 -39.5393,-21.3999 -21.5104,-7.1716 -44.5605,-11.6619 -59.9309,-11.6747 -4.675,0 -14.575,-0.7273 -22,-1.6075 -8.4019,-0.996 -17.2764,-1.4033 -23.5,-1.0786 -5.5,0.2869 -74.575,9.5349 -153.5,20.5511 -78.925,11.0161 -148.1602,20.5021 -153.856,21.0798 -21.4191,2.1727 -46.767,1.0262 -68.0618,-3.0784 -29.28,-5.6438 -66.384,-20.8054 -91.6742,-37.4603 -19.7684,-13.0185 -65.6098,-52.8584 -76.6508,-66.6157 -8.7808,-10.9411 -19.2661,-35.8904 -24.8145,-59.0451 -1.285,-5.3625 -2.5853,-9.7475 -2.8895,-9.7445 -0.3043,0 -2.0546,5.5155 -3.8896,12.25 -6.8016,24.9621 -16.1735,46.3262 -26.10263,59.503 -12.3789,16.4281 -44.7675,44.0092 -70.2516,59.8241 -29.5834,18.3588 -71.48074,35.8472 -98.96816,41.3104 -19.73377,3.922 -45.59927,5.1059 -66.34125,3.0362 z m 22.5,-68.421 c 52.72432,-6.0086 91.68977,-20.317 119.99997,-44.0651 18.6215,-15.6206 37.8268,-37.9642 54.9619,-63.9431 19.7913,-30.0059 29.5177,-61.2586 31.6664,-101.75 l 0.6765,-12.75 h -16.0539 -16.0538 l -9.7045,14.6907 c -25.0881,37.9791 -49.3421,65.7481 -73.0402,83.6256 -17.66952,13.3297 -62.52584,33.2981 -91.30725,40.6466 -12.05627,3.0783 -25.89288,4.9785 -41.14512,5.6505 -15.03314,0.6624 -18.57698,0.2262 -94.11535,-11.5831 -62.86835,-9.8286 -74.65711,-12.1412 -113.88465,-22.3408 -28.59223,-7.4343 -35.38483,-8.1859 -74,-8.1878 -34.89306,0 -43.57623,0.5941 -74.5,5.1127 -36.45242,5.3264 -67.83813,14.5404 -93.74037,27.5196 l -7.74037,3.8786 7.8323,12.7437 c 26.45685,43.0471 35.76863,58.181 37.90671,61.6079 l 2.41095,3.8641 3.16539,-3.0619 c 4.65716,-4.505 15.29805,-9.6873 23.74932,-11.5665 49.23608,-10.9479 57.56568,-12.0879 87.91607,-12.0318 21.97201,0.041 26.04775,0.3196 39.5,2.7038 8.25,1.4622 27.65768,4.249 43.12818,6.1928 30.94303,3.888 58.12234,7.738 91.79657,13.0031 25.97392,4.0611 63.16425,8.9526 83.57525,10.9924 17.82098,1.781 57.3016,1.2928 77,-0.952 z m 579.0655,-0.8805 c 26.8639,-3.1225 42.0821,-5.2463 86.9345,-12.1327 19.525,-2.9978 51.3797,-7.4848 70.7882,-9.9712 19.4086,-2.4864 40.5586,-5.5159 47,-6.7324 10.0407,-1.8961 15.2075,-2.2157 36.2118,-2.2401 30.3345,-0.035 38.4475,1.0737 87.6037,11.9749 8.5904,1.9051 18.3697,6.3917 24.0155,11.0179 3.1287,2.5638 4.4039,3.1092 5.111,2.186 2.2383,-2.9228 46.3364,-75.3262 46.4287,-76.2301 0.2997,-2.9334 -42.449,-19.4087 -64.6589,-24.9195 -52.65,-13.0638 -130.5633,-16.5292 -171.5141,-7.6285 -5.2173,1.134 -16.9109,4.1021 -25.9859,6.5959 -22.9265,6.3003 -48.5576,11.2646 -97.5,18.8843 -83.138,12.9435 -82.3577,12.8469 -98.0944,12.1446 -23.8057,-1.0624 -41.1441,-4.4391 -62.9056,-12.2512 -23.2191,-8.3354 -50.5498,-21.4218 -65.0314,-31.1384 -24.2125,-16.2455 -49.187,-43.6244 -75.1976,-82.4372 L 1090.7056,1484 h -16.0071 -16.0071 l 0.6225,12.25 c 2.4866,48.9307 14.8573,81.7475 46.2719,122.75 30.0837,39.2655 59.5255,61.5008 98.5568,74.433 43.7418,14.493 98.9805,18.8132 155.9229,12.1947 z M 1063.5,1427.993 c 43.3217,-2.3311 77.855,-7.0025 129.6226,-17.5343 36.7844,-7.4836 85.8774,-19.1422 85.8774,-20.3942 0,-1.5743 -50.0123,-12.4927 -80,-17.4651 -110.2668,-18.284 -249.29153,-17.8999 -357,0.9864 -28.98288,5.082 -73,15.0039 -73,16.455 0,0.8498 50.85446,13.4663 74,18.3587 56.28307,11.8968 98.36977,17.585 147.49997,19.9353 15.21453,0.7278 56.73543,0.5334 73.00003,-0.3418 z M 820,1307.6017 c 44.59677,-8.3587 84.69187,-13.3061 135.99997,-16.7812 24.4873,-1.6586 110.75213,-1.6648 135.00003,-0.01 53.5112,3.6524 106.5459,10.4846 147.9957,19.0654 5.2226,1.0812 9.5678,1.8888 9.6559,1.7948 0.2802,-0.299 -47.1886,-121.5413 -47.8415,-122.1942 -0.8368,-0.8368 -29.0102,-4.8923 -51.3101,-7.3859 -83.8428,-9.3756 -168.78803,-9.3701 -252.50003,0.016 -24.78,2.7785 -50.05873,6.5272 -50.95905,7.5569 -0.40193,0.4598 -10.53037,26.0359 -22.50763,56.8359 -11.97726,30.8 -22.6282,58.1698 -23.66875,60.8217 -1.77922,4.5346 -1.78686,4.7898 -0.12822,4.2846 0.97002,-0.2955 10.08868,-2.0976 20.26368,-4.0046 z m 40.05095,-189.0676 c 106.20662,-15.8184 231.68535,-15.2462 337.74765,1.5403 l 12.2986,1.9465 10.7014,-4.1544 c 40.032,-15.5411 74.2282,-37.4823 99.7251,-63.9864 42.0141,-43.6737 66.5799,-104.40451 69.1216,-170.8801 1.0113,-26.45174 -2.3427,-51.30778 -10.6175,-78.68328 -14.4724,-47.87937 -35.7446,-84.03932 -69.0213,-117.32708 -6.6509,-6.6532 -39.3573,-34.70955 -77.5065,-66.48704 -71.9933,-59.96894 -88.3586,-73.82732 -105,-88.91552 -18.5549,-16.82307 -64.6597,-62.97782 -84.2458,-84.33708 -10.2129,-11.1375 -18.8803,-20.25 -19.2609,-20.25 -0.3806,0 -5.5899,5.2875 -11.5763,11.75 -50.04933,54.03015 -86.27383,88.55284 -140.41703,133.82041 C 792.02068,639.43883 749.19432,675.79016 740.13311,684.5 c -27.48565,26.41981 -48.20262,57.07111 -61.50616,91 -15.2849,38.98205 -21.32678,70.59835 -20.25662,106 1.32469,43.82177 10.96561,81.85919 30.39063,119.9036 10.88918,21.3267 23.89595,39.0192 41.39887,56.313 16.57293,16.3749 34.40232,29.5348 56.34017,41.5847 20.51134,11.2663 49.12792,23.0161 54.05095,22.1929 1.67802,-0.2806 10.45302,-1.6126 19.5,-2.9601 z M 1011.5,966.65643 c -12.63623,-3.27988 -19.66113,-10.64351 -22.37683,-23.45565 -0.7324,-3.45544 -1.1232,-20.41729 -1.1232,-48.75 V 851 l -17.25,-0.0916 c -9.4875,-0.0503 -30.75,-0.39875 -47.25,-0.77421 -29.4616,-0.67041 -30.0987,-0.72891 -35.5,-3.25981 -6.9403,-3.25205 -10.6045,-6.90986 -13.8986,-13.87438 -2.3322,-4.93087 -2.6014,-6.68999 -2.6014,-17 0,-10.31001 0.2692,-12.06913 2.6014,-17 3.2882,-6.95217 6.9465,-10.61039 13.8986,-13.89862 l 5.5,-2.60138 47.2057,-0.29554 47.2057,-0.29554 0.2943,-48.80743 0.2943,-48.80743 3.5081,-6.89703 c 2.7125,-5.33283 4.6046,-7.63102 8.34273,-10.13344 6.7919,-4.54675 11.6016,-5.71426 23.6492,-5.74062 13.4859,-0.0295 19.5463,1.9281 26.0244,8.40623 8.4962,8.49617 8.3837,7.68145 8.7466,63.3208 l 0.3179,48.75 h 46.2741 c 49.4277,0 52.3231,0.24858 60.401,5.18559 16.3583,9.99768 16.179,47.65208 -0.2752,57.82135 -7.583,4.68655 -10.9908,4.96855 -60.1927,4.98119 l -46.2039,0.0119 -0.3423,46.75 c -0.37,50.53178 -0.3624,50.45771 -6.0268,58.9192 -2.4655,3.68283 -4.7986,5.61569 -9.9256,8.22257 -6.0383,3.07027 -7.6734,3.44041 -16.5,3.73522 -5.8869,0.19663 -11.7932,-0.19076 -14.7975,-0.97056 z m 27.896,-627.70525 c 9.4771,-1.31814 20.4883,-5.02675 26.6339,-8.97038 5.8346,-3.74402 13.7261,-11.98205 17.2244,-17.9808 9.4464,-16.19787 11.4223,-48.89989 4.232,-70.04028 -3.0837,-9.06648 -7.0594,-15.32155 -13.7647,-21.65652 -7.0626,-6.67253 -12.5536,-9.69776 -23.2216,-12.79392 -22.1744,-6.43561 -52.90533,-3.51636 -68.52993,6.50992 -5.886,3.77704 -13.7762,12.03905 -17.1716,17.9808 -12.1528,21.2666 -11.5446,62.13693 1.2207,82.02993 3.7771,5.886 12.0391,13.77619 17.9808,17.1716 13.0335,7.44798 35.23473,10.55383 55.39603,7.74965 z M 1870,1577.1861 c 0,-1.3727 -8.9552,-14.3666 -13.912,-20.1861 l -4.6846,-5.5 98.2983,-97.893 98.2983,-97.893 v 22.8951 22.8951 l -88.2521,88.2479 c -48.5387,48.5364 -88.5887,88.2479 -89,88.2479 -0.4113,0 -0.7479,-0.3663 -0.7479,-0.8139 z M -3.3333334e-6,1485.5384 v -24.0398 L 265.3683,1196.1317 c 145.95257,-145.9518 265.59638,-264.97648 265.87513,-264.4993 0.27876,0.47718 0.82263,3.5676 1.2086,6.8676 0.38597,3.3 1.8207,11.80061 3.18828,18.89025 l 2.48652,12.89026 -13.28063,13.60974 c -7.30435,7.48536 -128.38289,128.82735 -269.06342,269.64885 L -3.3333334e-6,1509.5781 Z M 556.74531,1478.6166 537.99063,1476.5 l 53.10059,-53 c 29.20533,-29.15 52.85752,-52.1 52.56044,-51 -1.94762,7.2114 -2.90981,16.0223 -3.27613,30 l -0.41932,16 -31.22215,31.25 c -17.17219,17.1875 -31.67483,31.19 -32.22811,31.1166 -0.55327,-0.073 -9.44556,-1.0858 -19.76064,-2.25 z M 1681.5,1479.2624 c -4.95,-0.7437 -14.29,-1.8945 -20.7555,-2.5573 l -11.7555,-1.2051 199.5181,-199.5 199.518,-199.5 -0.2626,24 -0.2625,24 -178.5,178.0573 -178.5,178.0573 z m -277.8238,-2.6867 c -5.3818,-4.9876 -5.9574,-11.3819 -2.4608,-27.3344 l 2.2486,-10.2587 322.2867,-321.594 322.2867,-321.59406 -0.2687,22.85273 L 2047.5,841.5 1728.2299,1160 c -175.5986,175.175 -319.8522,318.6293 -320.5636,318.7874 -0.7114,0.1581 -2.507,-0.8372 -3.9901,-2.2117 z m -44.7019,-236.7742 c -2.4264,-10.1825 -3.0812,-26.9175 -1.1867,-30.3329 0.6006,-1.0827 156.1441,-156.9934 345.6522,-346.46806 L 2048,518.50109 v 22.53456 22.53455 l -342.5147,342.4649 c -188.383,188.3557 -342.9151,342.6006 -343.4045,342.7664 -0.4895,0.1659 -1.8874,-3.8841 -3.1065,-9 z M 0.23176667,1210.4642 0.49999667,1188.3524 421.40788,766.13409 C 652.90721,533.91401 842.66023,344.27221 843.08126,344.70788 c 0.80898,0.83712 8.18775,24.4787 9.39117,30.08934 0.78193,3.64552 24.92474,-20.68583 -643.21682,648.24078 L -0.03646333,1232.576 Z m -1.5e-4,-278.58856 0.26838,-21.62437 L 454.5,455.37564 908.49997,0.5 931.43557,0.23111362 c 12.6145,-0.1478875 22.7274,-0.1478875 22.4731,0 C 953.65427,0.37900113 738.91247,214.925 476.70468,477 L -0.03676333,953.5 Z M 1513.6211,819.94097 c -0.2545,-0.79253 -1.4233,-6.84097 -2.5972,-13.44097 -1.174,-6.6 -2.7275,-14.30742 -3.4523,-17.12759 l -1.3178,-5.12759 270.886,-270.87241 270.8861,-270.87241 -0.263,23 -0.2629,23 -266.7081,266.44097 c -169.2017,169.03226 -266.8773,265.91417 -267.1708,265 z M -3.3333334e-6,655.5038 V 633.5087 L 155.75734,477.50435 C 241.42388,391.70196 383.72476,249.15431 471.98153,160.7318 L 632.44837,-0.03640115 654.72582,0.23179943 677.00327,0.5 338.50164,338.99945 -3.3333334e-6,677.49889 Z M 1428.32,623.29541 c -1.1678,-1.53748 -5.5502,-6.61243 -9.7387,-11.27768 l -7.6155,-8.48226 L 1712.7323,301.76773 2014.4988,0 h 6.1782 c 13.9182,0 27.8835,3.3012229 27.1352,6.414386 -0.1717,0.7142909 -139.15,140.433694 -308.8406,310.487564 L 1430.4433,626.09081 Z M 1273.5,487.82203 c -6.6,-5.52874 -12.1126,-10.33821 -12.2502,-10.68773 -0.1376,-0.34951 106.9715,-107.85643 238.0202,-238.90425 L 1737.5403,-0.03872581 1760.272,0.23063709 1783.0037,0.5 1534.2518,249.18713 1285.5,497.87427 Z M -3.3333334e-6,377.98158 V 355.49789 L 177.77041,177.72958 355.54083,-0.03872446 378.02041,0.23063777 400.5,0.5 200.25,200.48264 -3.3333334e-6,400.46527 Z M 1216.3404,277.90835 c 0.088,-7.37459 -0.1947,-17.45835 -0.6278,-22.40835 l -0.7875,-9 123.3083,-123.26936 123.3083,-123.2693621 22.7315,0.26936105 L 1507.0047,0.5 1361.5927,145.90835 1216.1807,291.31669 Z M 0.00354667,101.99698 0.00710667,79.5 39.745327,39.731844 79.483547,-0.03631108 101.74588,0.23184446 124.00821,0.5 62.004107,62.496976 -3.3333334e-6,124.49395 Z M 1115.5,103.81444 c -3.85,-2.22039 -10.2915,-5.496231 -14.3144,-7.279646 -4.023,-1.783415 -7.3319,-3.579602 -7.3532,-3.991528 -0.021,-0.411926 20.564,-21.410916 45.745,-46.664423 l 45.7837,-45.91546763 22.324,0.26831231 L 1230.0091,0.5 1176.2546,54.175758 1122.5,107.85152 Z"
       id="path1" />
  </g>
</svg>
