<?xml version="1.0" encoding="UTF-8" standalone="no"?>
<!-- Created with Inkscape (http://www.inkscape.org/) -->

<svg
   version="1.1"
   id="svg1"
   width="2048"
   height="2048"
   viewBox="0 0 2048 2048"
   xmlns="http://www.w3.org/2000/svg"
   xmlns:svg="http://www.w3.org/2000/svg">
  <defs
     id="defs1" />
  <g
     id="g1">
    <path
       style="fill:#000000"
       d="M 7.093183,2044.425 C 3.268533,2041.2067 1.144273,2034.42 0.38712299,2023 l -0.56356,-8.5 L 170.41178,1844.0011 341,1673.5022 V 1632.2511 1591 h 41.25528 41.25528 L 458.75528,1555.7448 494,1520.4896 v -67.03 -67.0299 L 579.51193,1300.9648 665.02386,1215.5 664.76193,1168 664.5,1120.5 332.5,1453 0.50000299,1785.5 l -0.26831,-23.9811 -0.2683,-23.9812 L 332.48596,1405.014 665.00853,1072.4903 664.75426,958.35203 664.5,844.2137 332.5,1176.8569 0.50000299,1509.5 l -0.26831,-23.9811 -0.2683,-23.9812 L 332.49717,1129.0028 665.03095,796.46792 664.76548,767.06307 664.5,737.65822 616.72496,700.82911 C 590.4487,680.5731 568.6237,664.0111 568.22496,664.02467 567.82623,664.03827 439.925,791.95075 284,948.27467 L 0.50000299,1232.5 l -0.26937,-21.839 -0.26937,-21.839 L 271.05327,916.98343 c 149.10061,-149.5112 271.1239,-272.20865 271.16288,-272.66099 0.039,-0.45234 -22.15621,-17.95005 -49.32264,-38.88379 L 443.5,567.3773 443.23403,538.95547 442.96806,510.53363 221.48403,732.01597 2.9931972e-6,953.49831 v -21.5 -21.5 L 221.5,689 443,467.50169 v -116.5 -116.5 L 221.48652,456.00085 -0.02696701,677.5 l 0.26349,-22.12007 0.26348,-22.12007 L 316,316.87993 631.5,0.5 l 23,-0.2633477 23,-0.26334769 L 581.51032,95.978286 485.52064,191.98327 601.28695,192.24163 717.05326,192.5 813.224,96.25 909.39478,0 h 22.1738 22.1738 L 834.87118,118.6916 716,237.3832 V 283.1916 329 h 70.82048 70.8205 l 14.6795,-14.8851 14.6795,-14.88509 V 245.6149 192 h 53.2721 53.272 l 95.93512,-96 95.9351,-96 h 22.5409 22.5409 L 1134.5,96 1038.5039,192 H 1099.752 1161 v 54.24875 54.24876 L 1311.2512,150.24875 1461.5025,0 h 22.9976 22.9976 L 1343,164.5 1178.5023,329 H 1254.7511 1331 V 260.5 192 h 107.252 107.2519 L 1641.5,96 1737.4961,0 h 23 23 l -95.9961,96 -95.9961,96 h 6.7481 6.748 V 300.74909 409.49817 L 1809.7509,204.74909 2014.5018,0 h 6.1768 C 2034.0938,0 2048,3.1526914 2048,6.1940656 2048,6.8225535 1948.3286,107.12417 1826.5081,229.08655 l -221.4919,221.74978 -0.2581,58.2671 -0.2581,58.2671 -109.5,84.35452 c -60.225,46.39499 -110.0651,84.91778 -110.7558,85.60621 -0.9918,0.98865 -1.202,18.89502 -1,85.21021 L 1383.5,906.5 1715.7689,574.57133 2048.0377,242.64266 2047.7689,265.57133 2047.5,288.5 l -332,331.5 -332,331.5 -0.253,116 -0.253,116 L 1715.497,851.00056 2048,518.50113 v 22.53555 22.53555 l -329.25,329.20459 -329.25,329.20458 57.7491,57.7573 57.7491,57.7574 65.7509,-65.4971 c 36.163,-36.0234 158.3384,-157.9721 271.5009,-270.9971 L 2048,795.50182 v 22.53376 22.53376 l -204.25,203.96606 c -112.3375,112.1813 -229.4485,229.0482 -260.2466,259.7043 l -55.9966,55.7382 12.7466,12.7749 12.7466,12.775 v 92.9853 92.9854 L 1800.5,1324 2048,1076.5015 v 23.5621 23.5621 l -233.75,233.6771 -233.75,233.6771 62.75,0.01 62.75,0.01 v 52.6242 52.6241 L 1877,1526 2048,1355.7517 v 22.8752 22.8753 L 1877,1572.5 1706,1743.4978 V 1786.7489 1830 h -43.2483 -43.2483 l -108.5214,108.518 -108.5214,108.5179 -24.4803,-0.2679 -24.4803,-0.268 108.5865,-108 108.5866,-108 -114.5806,-0.2542 -114.5806,-0.2543 -108.5077,108.5043 L 1124.4966,2047 h -23.6373 -23.6373 l 108.639,-108.4785 108.639,-108.4784 -119.0017,-0.022 L 1056.4965,1830 947.99998,1938.5 839.50346,2047 H 816.93864 794.37382 L 902.93688,1938.51 1011.5,1830.02 895.99828,1830.01 780.49654,1830 672,1938.5 563.50346,2047 H 540.89585 518.28824 L 626.89412,1938.5166 735.5,1830.0332 619.49827,1830.0166 503.49654,1830 395,1938.5 286.50346,2047 H 263.91278 241.32209 L 349.91105,1938.514 458.5,1830.0281 l -58.75,-0.014 -58.75,-0.014 -0.007,-55.75 -0.007,-55.75 -164.201,164.25 C 86.474973,1973.0875 12.037533,2047 11.368983,2047 c -0.66854,0 -2.59265,-1.1588 -4.2758,-2.575 z M 1639,1710.5 V 1659 H 1024 409 v 51.5 51.5 h 615 615 z M 494,1578 c 0,-7.15 -0.11899,-13 -0.26443,-13 -0.14543,0 -6.10144,5.85 -13.23557,13 l -12.97114,13 H 480.76443 494 Z m 990,-55 v -68 H 1024 564 v 68 68 h 460 460 z M 1407.4607,1334.9941 1356.4214,1284 H 1024.6308 692.84017 l -51.92008,50.5874 c -28.55605,27.8231 -51.92009,50.7731 -51.92009,51 0,0.227 195.6375,0.41 434.75,0.4067 l 434.75,-0.01 z M 1314,977 V 738 H 1024 734 v 239 239 h 290 290 z m 98.1717,-358.25 63.1672,-51.25 -225.6695,-0.25218 c -124.1181,-0.1387 -327.22342,-0.1387 -451.34496,0 L 572.64888,567.5 636.07444,618.67654 699.5,669.85309 1024.2522,669.92659 1349.0044,670 Z M 1536,379.5 V 260 H 1467.5 1399 V 328.5 397 H 1245 1091 V 328.5 260 h -67.5 -67.50002 V 328.5 397 H 802.5 649 V 328.5 260 H 580.5 512 V 379.5 499 h 512 512 z m 200.4612,1561.7543 c 58.3214,-58.1601 152.2829,-151.8726 208.8035,-208.25 l 102.7646,-102.5043 -0.2646,23.5 -0.2647,23.5 -185.0142,184.75 -185.0141,184.75 h -23.5246 -23.5247 z m 205.9796,69.9957 c 19.832,-19.6625 51.696,-51.2664 70.8087,-70.2308 L 2048,1906.5383 v 22.6743 22.6742 l -49.4255,47.5566 L 1949.149,2047 h -21.3833 -21.3832 z M 2.9931972e-6,377.98158 V 355.49789 L 177.77041,177.72958 355.54083,-0.03872446 378.02041,0.23063777 400.5,0.5 200.25,200.48264 2.9931972e-6,400.46527 Z M 0.00400299,101.99698 0.00710299,79.5 39.745323,39.731844 79.483553,-0.03631108 101.74588,0.23184446 124.00821,0.5 62.004103,62.496976 2.9931972e-6,124.49395 Z"
       id="path1" />
  </g>
</svg>
