<?xml version="1.0" encoding="UTF-8" standalone="no"?>
<!-- Created with Inkscape (http://www.inkscape.org/) -->

<svg
   version="1.1"
   id="svg1"
   width="2048"
   height="2048"
   viewBox="0 0 2048 2048"
   xmlns="http://www.w3.org/2000/svg"
   xmlns:svg="http://www.w3.org/2000/svg">
  <defs
     id="defs1" />
  <g
     id="g1">
    <path
       style="fill:#000000"
       d="m 1.5815684,2044.4764 c -3.89032,-3.2735 -6.00536,-9.9856 -6.76732,-21.4764 l -0.56364,-8.5 139.4889816,-139.3993 139.48899,-139.3994 0.54918,7.3994 c 0.30205,4.0696 1.02357,13.4622 1.60339,20.8725 l 1.0542,13.4731 -134.25407,134.5177 C 68.341538,1985.9487 7.2017684,2046.6214 6.3151184,2046.7923 c -0.88665,0.1709 -3.01675,-0.8713 -4.73355,-2.3159 z m 233.9289716,2.2593 c 0.22917,-0.1454 35.79198,-35.4963 79.02848,-78.5576 l 78.61181,-78.2934 21.21419,1.2292 21.21419,1.2293 -77.32358,77.3284 L 280.93205,2047 h -22.91909 c -12.60549,0 -22.73158,-0.1189 -22.50242,-0.2643 z m 354.77131,-77.2133 77.64536,-77.4777 22.49758,-0.022 22.49758,-0.023 -77.49516,77.5 -77.49516,77.5 h -22.64778 -22.64778 z m 276.05814,-0.01 77.5872,-77.4864 22.4976,-0.014 22.4976,-0.012 -77.4952,77.5 -77.49514,77.5 h -22.58966 -22.58966 z m 282.89751,0.015 77.6897,-77.4714 23.4976,-0.029 23.4976,-0.029 -77.4952,77.5 -77.4952,77.5 h -23.6921 -23.692 z m 276.1511,-0.023 77.5386,-77.494 24.4976,-0.01 24.4976,-0.01 -77.4952,77.5 -77.4952,77.5 h -24.541 -24.5409 z m 305.4998,-28.2516 c 58.3214,-58.1601 152.2829,-151.8726 208.8035,-208.25 l 102.7646,-102.5043 -0.2646,23.5 -0.2647,23.5 -185.0142,184.75 -185.0141,184.75 h -23.5246 -23.5247 z m 205.9796,69.9957 c 19.832,-19.6625 51.696,-51.2664 70.8087,-70.2308 l 34.7505,-34.4794 v 22.6743 22.6742 l -49.4255,47.5566 -49.4255,47.5566 h -21.3833 -21.3832 z M 335.42721,1710.5 V 1591 h 76.5 76.5 v -102.2867 -102.2868 l 85.50205,-85.4461 85.50205,-85.4461 -0.25205,-238.94523 -0.25205,-238.94521 -110.5,-85.1303 -110.5,-85.13031 L 437.6746,379.69163 437.42199,192 H 573.9246 710.42721 v 68.5 68.5 h 85.5 85.49998 V 260.5 192 h 137.00001 137 v 68.5 68.5 h 85 85 V 260.5 192 h 137.0026 137.0026 l -0.2526,187.68366 -0.2526,187.68366 -110.5,85.13269 -110.5,85.13268 -0.2521,238.93381 -0.252,238.9338 85.002,84.9976 85.0021,84.9977 V 1488.2478 1591 h 76.5 76.5 v 119.5 119.5 h -682.5 -682.49999 z m 1297.99999,0 V 1659 h -615 -614.99999 v 51.5 51.5 h 614.99999 615 z m -155,-187.5 v -68 h -460 -459.99999 v 68 68 h 459.99999 460 z M 1401.8879,1334.9941 1350.8486,1284 H 1019.058 687.26738 l -51.92008,50.5874 c -28.55605,27.8231 -51.92009,50.7731 -51.92009,51 0,0.227 195.6375,0.41 434.74999,0.4067 l 434.75,-0.01 z M 1308.4272,977 V 738 h -290 -289.99999 v 239 239 h 289.99999 290 z m 98.1717,-358.25 63.1672,-51.25 -225.6695,-0.25218 c -124.1181,-0.1387 -327.22341,-0.1387 -451.34495,0 L 567.07609,567.5 l 63.42556,51.17654 63.42556,51.17655 324.75219,0.0735 L 1343.4316,670 Z M 1530.4272,379.5 V 260 h -68.5 -68.5 v 68.5 68.5 h -154 -154 V 328.5 260 h -67.5 -67.50001 v 68.5 68.5 h -153.49998 -153.5 V 328.5 260 h -68.5 -68.5 V 379.5 499 h 511.99999 512 z M -5.5727916,1761.5306 v -24.0318 L 294.79132,1437.1359 595.15543,1136.773 l -0.44693,5.3635 c -1.95202,23.4256 -7.92883,43.188 -18.08575,59.8008 -1.15584,1.8905 -132.62268,133.9795 -292.14853,293.5312 L -5.5727916,1785.5624 Z M 1762.0565,1677.922 c -0.2893,-1.8821 -0.7891,-8.822 -1.1106,-15.422 -0.3216,-6.6 -0.9887,-14.7 -1.4824,-18 l -0.8976,-6 141.6807,-141.0927 141.6806,-141.0927 0.2694,22.5729 0.2693,22.5729 -139.9418,139.9418 c -139.8149,139.8149 -139.9422,139.9387 -140.4676,136.5198 z m -127.1497,-156.8066 c -5.8249,-3.3573 -12.473,-10.2221 -15.3379,-15.8376 l -2.0003,-3.921 212.4293,-212.4275 212.4293,-212.4275 v 23.5728 23.5729 l -200.0219,199.9262 c -110.012,109.9595 -200.5745,200.0408 -201.25,200.1808 -0.6755,0.1401 -3.4873,-1.0475 -6.2485,-2.6391 z M -5.5727916,1485.5384 v -24.0396 L 295.42721,1160.5 l 301,-300.99875 v 23.48475 23.48475 l -45.24684,45.51463 c -24.88576,25.03304 -160.33576,160.73222 -301,301.55372 L -5.5727916,1509.5781 Z M 1560.8699,1314.3138 c -1.5906,-2.0976 -6.188,-7.5281 -10.2165,-12.0678 l -7.3245,-8.2541 249.2992,-248.8688 249.2991,-248.86884 0.2682,22.13937 0.2682,22.13937 -204.2682,203.9915 c -112.3475,112.1954 -220.0554,219.6541 -239.3509,238.7973 l -35.0827,34.8057 z M -5.5209516,1210.5198 -5.4691116,1188.5 243.72905,938.7836 492.92721,689.0672 l 12.30911,9.64452 12.30912,9.64452 -52.303,52.57188 C 436.47579,789.84265 318.77419,907.78389 203.68332,1023.0198 L -5.5727916,1232.5395 Z M 1444.0672,1157.8512 c -1.2358,-6.6741 -2.6057,-22.5278 -2.6227,-30.3518 l -0.017,-8.0006 L 1741.9401,818.99938 2042.453,518.5 l -0.2629,23 -0.2629,23 -298.6197,298.35122 C 1444.906,1160.9844 1444.6873,1161.2 1444.0672,1157.8512 Z M -5.5727916,931.9987 V 910.49805 L 186.22579,718.70142 378.02437,526.90479 l 1.75704,11.01983 c 0.96637,6.0609 2.61296,14.06982 3.65908,17.7976 L 385.34254,562.5 189.88487,757.99968 -5.5727916,953.49936 Z M 1440.6307,865.85448 1441.03,843.5 1741.4786,543.26175 2041.9272,243.0235 l 0.2682,22.25365 0.2681,22.25365 -299.4662,299.41577 c -164.7064,164.67868 -300.2086,299.83126 -301.116,300.33908 -1.5166,0.8487 -1.6176,-0.88289 -1.2506,-21.43117 z M -5.3363116,655.38463 -5.0727916,633.26925 186.34308,441.39499 377.75895,249.52072 l -0.64198,6.98964 c -0.35309,3.8443 -0.94571,14.48305 -1.31692,23.64167 L 375.12511,296.80407 184.76263,487.15203 -5.5998416,677.5 Z m -0.23648,-277.40305 V 355.49789 L 172.19762,177.72958 349.96804,-0.03872446 372.44762,0.23063777 394.92721,0.5 194.67721,200.48264 -5.5727916,400.46527 Z M 1661.4272,367.99794 v -20.5001 L 1835.1783,173.74892 2008.9293,0 h 6.1766 c 13.5898,0 27.3213,3.1546052 27.3213,6.2766644 0,0.6739173 -85.725,86.9494186 -190.5,191.7233356 l -190.5,190.49803 z m -428.5,-126.8938 c -2.2,-1.01857 -5.3352,-3.27278 -6.9671,-5.00935 l -2.9671,-3.1574 116.4655,-116.4687 L 1455.924,0 h 22.9988 22.9988 l -67.2748,67.28038 -67.2748,67.28038 -8.7224,1.79261 c -17.1612,3.52696 -35.8173,11.93485 -49.2224,22.18347 -8.3567,6.38897 -20.4783,19.58682 -26.4079,28.75255 -2.9214,4.51584 -9.1977,15.86061 -13.9473,25.21061 -4.7496,9.35 -10.5249,19.19853 -12.834,21.88563 -6.9918,8.13648 -15.162,10.49126 -23.3108,6.71851 z M 752.10906,186.02641 c -2.08667,-3.22272 -6.4298,-8.73607 -9.65141,-12.25188 l -5.85746,-6.39239 83.62278,-83.709308 83.62282,-83.7093095 22.0407,0.26823875 L 947.92719,0.5 851.9151,96.192948 755.903,191.8859 Z m 857.81814,-30.2032 c -3.85,-2.75481 -10.2598,-6.65835 -14.244,-8.67455 l -7.2441,-3.66581 71.766,-71.760781 71.766,-71.76078561 22.7315,0.26935831 L 1777.434,0.5 l -80.2534,80.16597 -80.2534,80.16597 z M 560.42721,66.374724 625.92721,0.5 l 23,-0.26365843 23,-0.26365842 -64.85048,64.86700685 -64.85047,64.86701 -15.64953,0.67119 c -8.60723,0.36915 -19.24952,0.94127 -23.64952,1.27137 l -8,0.60019 z M 1069.699,130.58131 1050.4708,129.5 1115.1379,64.75 1179.805,0 h 22.5583 22.5582 l -65.9943,66 c -46.9099,46.91398 -66.5735,65.95122 -67.9972,65.83131 -1.1015,-0.0928 -10.6555,-0.65528 -21.231,-1.25 z M -5.5692416,101.99698 -5.5656816,79.5 34.172538,39.731844 73.910758,-0.03631108 96.173088,0.23184446 118.43542,0.5 56.431318,62.496976 -5.5727916,124.49395 Z"
       id="path1" />
  </g>
</svg>
