<?xml version="1.0" encoding="UTF-8" standalone="no"?>
<!-- Created with Inkscape (http://www.inkscape.org/) -->

<svg
   version="1.1"
   id="svg1"
   width="2048"
   height="2048"
   viewBox="0 0 2048 2048"
   xmlns="http://www.w3.org/2000/svg"
   xmlns:svg="http://www.w3.org/2000/svg">
  <defs
     id="defs1" />
  <g
     id="g1">
    <path
       style="fill:#000000"
       d="m 7.0931786,2044.425 c -3.770844,-3.173 -5.879677,-9.7992 -6.75887601,-21.2373 l -0.643795,-8.3755 L 139.45486,1875.0451 c 135.30935,-135.3119 139.72367,-139.8431 138.48798,-142.156 -0.702,-1.314 -17.44094,-28.8879 -37.19765,-61.2753 l -35.92129,-58.8862 6.83805,-6.9474 c 13.95887,-14.1821 21.13062,-19.0488 46.83805,-31.7843 39.53176,-19.584 71.60248,-29.9594 111.15547,-35.9604 21.51409,-3.2642 35.27792,-4.0144 73.84592,-4.0252 l 37.00139,-0.01 134.60036,-134.75 134.60037,-134.75 16.81587,-42 c 9.24873,-23.1 17.40193,-43.4157 18.11823,-45.1461 l 1.30237,-3.146 -23.71999,-14.2232 c -28.23734,-16.9319 -56.81416,-35.8177 -71.01104,-46.9298 -5.66008,-4.4302 -10.61008,-8.0129 -11,-7.9615 -0.38992,0.051 -153.48395,153.1638 -340.20895,340.25 L 0.49999959,1785.5 l -0.268303,-23.9811 -0.268303,-23.9812 L 328.15453,1409.3455 c 306.71259,-306.7137 328.09802,-328.3182 326.7683,-330.1156 -0.78256,-1.0578 -4.28575,-5.6992 -7.78487,-10.3143 -8.6262,-11.3773 -16.44434,-24.7962 -27.62533,-47.4156 -14.82009,-29.98141 -22.03302,-52.48806 -26.53307,-82.7917 -1.16045,-7.81456 -2.41808,-15.3558 -2.79474,-16.7583 C 589.55325,919.59829 566.59839,942.34437 295,1214.45 L 0.49999959,1509.5 l -0.268303,-23.9811 -0.268303,-23.981 L 293.87381,1167.5189 587.78423,873.5 l 0.65554,-12 c 3.1417,-57.50998 25.44787,-128.9248 53.41367,-171.00773 14.70494,-22.128 37.87542,-47.60233 60.14656,-66.12696 4.675,-3.88856 18.625,-14.87432 31,-24.41281 38.21016,-29.45186 85.21551,-67.54245 114,-92.37939 34.74095,-29.97653 71.27668,-66.29552 106.83238,-106.19869 l 8.1313,-9.12559 -7.7318,-4.49748 c -19.4251,-11.29928 -37.1997,-28.10907 -47.46108,-44.88493 -3.15106,-5.15153 -6.07606,-9.87487 -6.5,-10.49631 -0.48728,-0.71429 -89.21361,87.56492 -241.21558,240 C 526.81059,704.99155 324.41489,907.79209 209.28699,1023.038 l -209.32345341,209.538 0.268232,-22.1234 0.268231,-22.1233 L 445.34551,742.13476 C 790.46088,395.97279 890.03952,295.55457 889.51521,294.2201 c -0.37169,-0.94606 -0.92252,-8.4701 -1.22405,-16.7201 -1.50656,-41.22006 11.37511,-74.27154 40.16052,-103.04292 20.0531,-20.0433 42.0235,-31.83844 69.0483,-37.06964 9.60542,-1.85932 35.30312,-2.50971 45.54572,-1.15271 l 5.5458,0.73473 68.3946,-68.484732 L 1185.3807,0 h 22.5571 22.5571 l -73.8312,73.836277 -73.8312,73.836273 7.3337,4.32858 c 11.8659,7.00351 20.8292,14.22835 31.9183,25.72751 15.3417,15.90892 24.8618,31.29464 31.2593,50.51918 6.9373,20.84644 8.4186,48.2481 3.96,73.25218 -0.4274,2.39703 30.0892,-27.60064 151.8319,-149.25 L 1461.5025,0 h 22.9978 22.9979 l -203.9229,203.92472 -203.9229,203.92473 7.4238,8.26925 c 17.1475,19.10035 42.6848,45.43053 59.6322,61.4837 18.4632,17.48903 47.758,43.3976 49.0696,43.3976 0.3979,0 117.9478,-117.225 261.222,-260.5 L 1737.4986,0 h 23 23 l -271.2748,271.27616 -271.2747,271.27616 20.7754,16.55606 c 11.4265,9.10584 33.1505,25.91306 48.2755,37.34938 25.1479,19.01487 34.7816,26.88606 52.8319,43.1662 l 6.332,5.71099 L 1691.8325,322.66747 2014.5012,0 h 6.177 C 2034.2719,0 2048,3.1545903 2048,6.2783026 c 0,0.6748182 -32.2037,33.4007624 -71.5638,72.7243194 -39.3601,39.323558 -187.6969,187.940698 -329.6374,330.260318 l -258.0735,258.76293 4.5008,5.73707 c 13.5776,17.30723 27.6712,42.38325 36.1035,64.23706 10.0669,26.09061 20.6258,63.33799 24.3096,85.75498 l 1.8496,11.25497 L 1751.7444,538.75561 2048,242.50126 v 22.53351 22.5335 l -294.359,294.30771 -294.359,294.30771 -0.6904,12.65815 c -1.3122,24.05494 -4.869,52.93529 -8.7636,71.15816 -7.8874,36.90495 -26.0246,76.4962 -49.247,107.5 -23.0127,30.7238 -54.4575,55.8198 -118.3119,94.4245 l -20.2309,12.2311 1.3095,3.1722 c 0.7203,1.7447 9.1413,22.6424 18.7133,46.4393 l 17.4038,43.2671 L 1673.7324,892.76761 2048,518.501 v 22.53225 22.53224 L 1680.5,931.01633 C 1478.375,1133.1143 1313,1298.9476 1313,1299.5349 c 0,0.5873 11.7019,30.0512 26.0041,65.4754 14.3023,35.4242 26.1148,65.0475 26.25,65.8297 0.1744,1.0087 -4.7649,3.133 -16.9919,7.3078 -56.0651,19.1431 -120.7496,35.4057 -168.2622,42.3034 -9.625,1.3974 -17.8674,2.5425 -18.3164,2.5447 -1.5476,0.01 8.8458,12.4547 20.3109,24.3239 12.7722,13.2223 20.6449,19.5065 39.0454,31.1667 23.3562,14.8006 32.613,18.8125 50.7009,21.9735 l 8.7592,1.5307 178,-177.7453 c 97.9,-97.7599 270.5933,-270.2203 383.763,-383.2453 L 2048.026,795.5 l -0.263,23 -0.263,23 -361.7555,360.9112 c -198.9655,198.5012 -361.6111,361.0555 -361.4348,361.2318 0.4509,0.4509 162.8087,-22.7009 193.5958,-27.6062 24.2076,-3.8569 25.9052,-4.0004 36,-3.0431 5.827,0.5525 16.4441,1.005 23.5937,1.0055 l 12.9992,8e-4 228.7508,-228.7492 L 2048,1076.5016 v 23.5712 23.5712 l -204.976,204.8686 c -112.7369,112.6778 -204.8744,204.9679 -204.75,205.0892 0.1243,0.1212 6.301,0.7185 13.726,1.3274 37.8605,3.1043 80.3985,13.7147 116.8934,29.1571 6.3836,2.7012 19.2143,8.9618 28.5127,13.9124 9.2983,4.9507 17.2081,9.0013 17.5773,9.0013 0.3691,0 52.9488,-52.0157 116.8439,-115.5904 L 2048,1355.8192 v 22.8422 22.8422 l -103.9634,103.9599 c -95.6456,95.6422 -103.8408,104.0954 -102.4299,105.6544 1.403,1.5503 -2.4478,8.1556 -45.2041,77.5384 -25.7058,41.714 -47.8138,77.5641 -49.1289,79.6669 l -2.3912,3.8232 -4.4123,-4.0671 c -7.3172,-6.7447 -20.4964,-14.4376 -32.6374,-19.0508 l -5.3326,-2.0262 -150.0193,150.0168 -150.0193,150.0168 -24.4808,-0.2679 -24.4808,-0.268 155.32,-154.4762 c 150.0395,-149.2244 155.2241,-154.5031 152.5,-155.2678 -1.551,-0.4354 -10.92,-1.2161 -20.82,-1.7349 -9.9,-0.5189 -21.6,-1.4614 -26,-2.0946 -4.6269,-0.6658 -12.638,-0.9076 -19,-0.5736 -6.05,0.3177 -49.1896,5.9334 -95.8658,12.4794 l -84.8658,11.9019 -145.1355,145.1329 L 1124.4974,2047 h -23.6069 -23.6068 l 141.4865,-141.3275 141.4866,-141.3275 -16.8784,2.3415 c -9.2831,1.2879 -25.2034,3.4978 -35.3784,4.9109 -32.8491,4.5622 -61.7099,4.3337 -87.7669,-0.6948 -20.0665,-3.8724 -47.0614,-13.2718 -67.2802,-23.4263 l -9.2707,-4.656 L 991.58988,1894.9101 839.49755,2047 h -22.54257 -22.54256 l 160.79376,-160.7279 c 88.43662,-88.4003 160.77252,-160.9628 160.74652,-161.25 -0.026,-0.2871 -2.5909,-2.5471 -5.6996,-5.0221 -22.046,-17.5515 -51.065,-43.9457 -58.4959,-53.2049 -8.7808,-10.9411 -19.2661,-35.8904 -24.8145,-59.0451 -1.285,-5.3625 -2.5853,-9.7475 -2.8895,-9.7445 -0.3043,0 -2.0546,5.5155 -3.8896,12.25 -6.8016,24.9621 -16.1735,46.3262 -26.10252,59.503 -12.379,16.4281 -44.7675,44.0092 -70.2517,59.8241 -19.16277,11.892 -52.29339,27.484 -72.80938,34.2657 l -6.5,2.1486 L 704.00133,1906.4985 563.50267,2047 h -22.58771 -22.58772 l 135.88361,-135.75 135.8836,-135.75 -15.85689,-0.6658 c -12.01541,-0.5045 -37.02509,-3.6081 -103.23502,-12.811 L 583.62441,1749.8781 435.06095,1898.4391 286.49749,2047 h -22.56321 -22.56321 l 151.37917,-151.284 151.37917,-151.284 -41.8147,-5.8443 c -48.91837,-6.8372 -56.10272,-7.3386 -74.31471,-5.1859 -7.425,0.8777 -17.1,1.6046 -21.5,1.6153 -21.83722,0.053 -58.62186,8.9973 -78.92341,19.1899 -9.42216,4.7304 -15.43128,8.7097 -21.27505,14.0884 l -4.19846,3.8643 -2.84135,-4.565 -2.84134,-4.565 -141.91057,141.9851 C 76.45901,1983.1067 12.04895,2047 11.37635,2047 c -0.67259,0 -2.6000204,-1.1588 -4.2831714,-2.575 z M 781,1705.5082 c 52.72432,-6.0086 91.68977,-20.317 120,-44.0651 18.62148,-15.6206 37.82678,-37.9642 54.96188,-63.9431 19.7913,-30.0059 29.5177,-61.2586 31.6663,-101.75 l 0.6766,-12.75 h -16.0539 -16.0539 l -9.7044,14.6907 c -25.0881,37.9791 -49.34216,65.7481 -73.04022,83.6256 -17.66951,13.3297 -62.52583,33.2981 -91.30724,40.6466 -12.05627,3.0783 -25.89288,4.9785 -41.14512,5.6505 -15.03314,0.6624 -18.57698,0.2262 -94.11535,-11.5831 -62.86835,-9.8286 -74.65711,-12.1412 -113.88465,-22.3408 -28.59223,-7.4343 -35.38483,-8.1859 -74,-8.1878 -34.89306,0 -43.57623,0.5941 -74.5,5.1127 -36.45242,5.3264 -67.83813,14.5404 -93.74037,27.5196 l -7.74037,3.8786 7.8323,12.7437 c 26.45685,43.0471 35.76863,58.181 37.90671,61.6079 l 2.41095,3.8641 3.16539,-3.0619 c 4.65716,-4.505 15.29805,-9.6873 23.74932,-11.5665 49.23608,-10.9479 57.56568,-12.0879 87.91607,-12.0318 21.97201,0.041 26.04775,0.3196 39.5,2.7038 8.25,1.4622 27.65768,4.249 43.12818,6.1928 30.94303,3.888 58.12234,7.738 91.79657,13.0031 25.97392,4.0611 63.16425,8.9526 83.57525,10.9924 17.82098,1.781 57.3016,1.2928 77,-0.952 z m 579.0655,-0.8805 c 26.8639,-3.1225 42.0821,-5.2463 86.9345,-12.1327 19.525,-2.9978 51.3797,-7.4848 70.7882,-9.9712 19.4086,-2.4864 40.5586,-5.5159 47,-6.7324 10.0407,-1.8961 15.2075,-2.2157 36.2118,-2.2401 30.3345,-0.035 38.4475,1.0737 87.6037,11.9749 8.5904,1.9051 18.3697,6.3917 24.0155,11.0179 3.1287,2.5638 4.4039,3.1092 5.111,2.186 2.2383,-2.9228 46.3364,-75.3262 46.4287,-76.2301 0.2997,-2.9334 -42.449,-19.4087 -64.6589,-24.9195 -52.65,-13.0638 -130.5633,-16.5292 -171.5141,-7.6285 -5.2173,1.134 -16.9109,4.1021 -25.9859,6.5959 -22.9265,6.3003 -48.5576,11.2646 -97.5,18.8843 -83.138,12.9435 -82.3577,12.8469 -98.0944,12.1446 -23.8057,-1.0624 -41.1441,-4.4391 -62.9056,-12.2512 -23.2191,-8.3354 -50.5498,-21.4218 -65.0314,-31.1384 -24.2125,-16.2455 -49.187,-43.6244 -75.1976,-82.4372 L 1090.7056,1483 h -16.0071 -16.0071 l 0.6225,12.25 c 2.4866,48.9307 14.8573,81.7475 46.2719,122.75 30.0837,39.2655 59.5255,61.5008 98.5568,74.433 43.7418,14.493 98.9805,18.8132 155.9229,12.1947 z M 771,1517.5 c 31.68837,-31.6939 45.8564,-46.5019 44.49597,-46.5059 -7.07681,-0.021 -72.00514,-17.8369 -103.5491,-28.4136 -25.89563,-8.6827 -29.49657,-10.1373 -29.19962,-11.7947 0.13599,-0.7591 7.59012,-19.5839 16.56473,-41.8329 8.97461,-22.2491 17.10235,-42.4779 18.06164,-44.9529 1.50933,-3.8941 -11.39225,8.6275 -95.82198,93 -77.4102,77.3577 -97.20311,97.6444 -95.80889,98.1992 2.40142,0.9555 51.92215,8.3242 116.25725,17.299 29.425,4.1048 59.125,8.3217 66,9.3708 6.875,1.0491 13.40181,1.9577 14.50403,2.0192 1.38357,0.077 16.39838,-14.285 48.49597,-46.3882 z m 19,39.8049 c 9.57939,-2.7281 15.88838,-5.9779 34.30877,-17.6728 18.53745,-11.7692 28.86878,-19.7626 40.20757,-31.109 10.10211,-10.1089 23.28233,-25.5231 21.82405,-25.5231 -0.43345,0 -7.72355,-0.9506 -16.20023,-2.1125 l -15.41214,-2.1125 -41.11401,41.1473 -41.11401,41.1472 4.5,-0.6719 c 2.475,-0.3696 8.325,-1.7613 13,-3.0927 z m 273.5,-130.3119 c 43.3217,-2.3311 77.855,-7.0025 129.6226,-17.5343 36.7844,-7.4836 85.8774,-19.1422 85.8774,-20.3942 0,-1.5743 -50.0123,-12.4927 -80,-17.4651 -110.2668,-18.284 -249.29162,-17.8999 -357,0.9864 -28.98288,5.082 -73,15.0039 -73,16.455 0,0.8498 50.85446,13.4663 74,18.3587 56.28311,11.8968 98.36978,17.585 147.49998,19.9353 15.21452,0.7278 56.73542,0.5334 73.00002,-0.3418 z M 820,1306.6017 c 44.5968,-8.3587 84.69188,-13.3061 135.99998,-16.7812 24.4873,-1.6586 110.75212,-1.6648 135.00002,-0.01 53.5112,3.6524 106.5459,10.4846 147.9957,19.0654 5.2226,1.0812 9.5678,1.8888 9.6559,1.7948 0.2802,-0.299 -47.1886,-121.5413 -47.8415,-122.1942 -0.8368,-0.8368 -29.0102,-4.8923 -51.3101,-7.3859 -83.8428,-9.3756 -168.78802,-9.3701 -252.5,0.016 -24.78008,2.7785 -50.05876,6.5272 -50.95908,7.5569 -0.40193,0.4598 -10.53037,26.0359 -22.50763,56.8359 -11.97726,30.8 -22.6282,58.1698 -23.66875,60.8217 -1.77922,4.5346 -1.78686,4.7898 -0.12822,4.2846 0.97002,-0.2955 10.08868,-2.0976 20.26368,-4.0046 z m 40.05095,-189.0676 c 106.20663,-15.8184 231.68535,-15.2462 337.74765,1.5403 l 12.2986,1.9465 10.7014,-4.1544 c 40.032,-15.5411 74.2282,-37.4823 99.7251,-63.9864 42.0141,-43.6737 66.5799,-104.40451 69.1216,-170.8801 1.0113,-26.45174 -2.3427,-51.30778 -10.6175,-78.68328 -14.4724,-47.87937 -35.7446,-84.03932 -69.0213,-117.32708 -6.6509,-6.6532 -39.3573,-34.70955 -77.5065,-66.48704 -71.9933,-59.96894 -88.3586,-73.82732 -105,-88.91552 -18.5549,-16.82307 -64.6597,-62.97782 -84.2458,-84.33708 -10.2129,-11.1375 -18.8803,-20.25 -19.2609,-20.25 -0.3806,0 -5.5899,5.2875 -11.5763,11.75 C 962.36768,491.78015 926.14318,526.30284 872,571.57041 792.02068,638.43883 749.19432,674.79016 740.13311,683.5 c -27.48565,26.41981 -48.20262,57.07111 -61.50616,91 -15.2849,38.98205 -21.32678,70.59835 -20.25662,106 1.32469,43.82177 10.96561,81.85919 30.39063,119.9036 10.88918,21.3267 23.89595,39.0192 41.39887,56.313 16.57293,16.3749 34.40232,29.5348 56.34017,41.5847 20.51134,11.2663 49.12792,23.0161 54.05095,22.1929 1.67802,-0.2806 10.45302,-1.6126 19.5,-2.9601 z M 1011.5,965.65643 c -12.63622,-3.27988 -19.66112,-10.64351 -22.37682,-23.45565 -0.7324,-3.45544 -1.1232,-20.41729 -1.1232,-48.75 V 850 l -17.25,-0.0916 c -9.4875,-0.0503 -30.75,-0.39875 -47.25,-0.77421 C 894.03833,848.46378 893.40131,848.40528 888,845.87438 881.05965,842.62233 877.39545,838.96452 874.10138,832 871.76919,827.06913 871.5,825.31001 871.5,815 c 0,-10.31001 0.26919,-12.06913 2.60138,-17 3.28823,-6.95217 6.94645,-10.61039 13.89862,-13.89862 l 5.5,-2.60138 47.20568,-0.29554 47.2057,-0.29554 0.2943,-48.80743 0.2943,-48.80743 3.5081,-6.89703 c 2.7125,-5.33283 4.6046,-7.63102 8.34272,-10.13344 6.7919,-4.54675 11.6016,-5.71426 23.6492,-5.74062 13.4859,-0.0295 19.5463,1.9281 26.0244,8.40623 8.4962,8.49617 8.3837,7.68145 8.7466,63.3208 l 0.3179,48.75 h 46.2741 c 49.4277,0 52.3231,0.24858 60.401,5.18559 16.3583,9.99768 16.179,47.65208 -0.2752,57.82135 -7.583,4.68655 -10.9908,4.96855 -60.1927,4.98119 l -46.2039,0.0119 -0.3423,46.75 c -0.37,50.53178 -0.3624,50.45771 -6.0268,58.9192 -2.4655,3.68283 -4.7986,5.61569 -9.9256,8.22257 -6.0383,3.07027 -7.6734,3.44041 -16.5,3.73522 -5.8869,0.19663 -11.7932,-0.19076 -14.7975,-0.97056 z m 27.896,-627.70525 c 9.4771,-1.31814 20.4883,-5.02675 26.6339,-8.97038 5.8346,-3.74402 13.7261,-11.98205 17.2244,-17.9808 9.4464,-16.19787 11.4223,-48.89989 4.232,-70.04028 -3.0837,-9.06648 -7.0594,-15.32155 -13.7647,-21.65652 -7.0626,-6.67253 -12.5536,-9.69776 -23.2216,-12.79392 -22.1744,-6.43561 -52.90532,-3.51636 -68.52992,6.50992 -5.886,3.77704 -13.7762,12.03905 -17.1716,17.9808 -12.1528,21.2666 -11.5446,62.13693 1.2207,82.02993 3.7771,5.886 12.0391,13.77619 17.9808,17.1716 13.0335,7.44798 35.23472,10.55383 55.39602,7.74965 z m 697.0652,1603.30312 c 58.3214,-58.1601 152.2829,-151.8726 208.8035,-208.25 l 102.7646,-102.5043 -0.2646,23.5 -0.2647,23.5 -185.0142,184.75 -185.0141,184.75 h -23.5246 -23.5247 z m 205.9796,69.9957 c 19.832,-19.6625 51.696,-51.2664 70.8087,-70.2308 L 2048,1906.5383 v 22.6743 22.6742 l -49.4255,47.5566 L 1949.149,2047 h -21.3833 -21.3832 z M 0.23161759,931.87564 0.49999959,910.25127 454.5,455.37564 908.49998,0.5 931.43558,0.23111362 c 12.6145,-0.1478875 22.7274,-0.1478875 22.473,0 C 953.65428,0.37900113 738.91247,214.925 476.70468,477 L -0.03676441,953.5 Z M -4.0816323e-7,655.5038 V 633.5087 L 155.75734,477.50435 C 241.42388,391.70196 383.72476,249.15431 471.98153,160.7318 L 632.44837,-0.03640115 654.72582,0.23179943 677.00327,0.5 338.50164,338.99945 -4.0816323e-7,677.49889 Z m 0,-277.52222 V 355.49789 L 177.77041,177.72958 355.54083,-0.03872446 378.02041,0.23063777 400.5,0.5 200.25,200.48264 -4.081632e-7,400.46527 Z M 0.00359959,101.99698 0.00710359,79.5 39.74533,39.731844 79.48355,-0.03631108 101.74588,0.23184446 124.00821,0.5 62.00411,62.496976 -4.0816323e-7,124.49395 Z"
       id="path1" />
  </g>
</svg>
