<?xml version="1.0" encoding="UTF-8" standalone="no"?>
<!-- Created with Inkscape (http://www.inkscape.org/) -->

<svg
   version="1.1"
   id="svg1"
   width="2048"
   height="2048"
   viewBox="0 0 2048 2048"
   xmlns="http://www.w3.org/2000/svg"
   xmlns:svg="http://www.w3.org/2000/svg">
  <defs
     id="defs1" />
  <g
     id="g1">
    <path
       style="fill:#000000"
       d="m 7.0931749,2044.425 c -3.77083,-3.173 -5.87967,-9.7992 -6.75887,-21.2372 l -0.64378,-8.3754 129.8284051,-129.8313 129.82841,-129.8313 7.07633,3.5844 c 3.89198,1.9715 10.67633,5.0455 15.07633,6.8312 4.4,1.7856 7.87605,3.6264 7.72455,4.0906 C 288.65765,1771.393 12.550785,2047 11.377585,2047 c -0.67328,0 -2.6012601,-1.1588 -4.2844101,-2.575 z M 356.21399,1932.25 471.09875,1817.5 l 17.20062,0.2872 c 9.46035,0.1579 19.8303,-0.11 23.04435,-0.5954 l 5.84372,-0.8825 -115.3421,115.3454 L 286.50325,2047 h -22.58701 -22.587 z m 161.86934,114.494 c 0.22917,-0.1408 51.31756,-51.0208 113.52977,-113.0667 l 113.11309,-112.8107 6.03283,3.8993 c 3.31806,2.1445 9.91727,5.6486 14.66491,7.7869 l 8.63207,3.8877 L 668.77978,1941.7202 563.50355,2047 h -22.91844 c -12.60514,0 -22.73094,-0.1152 -22.50178,-0.256 z m 375.34771,-98.7331 99.069,-98.9891 22.49806,-0.011 22.4981,-0.011 -98.99616,99 -98.99625,99 h -22.57084 -22.57083 z m 282.91756,0.012 99.1514,-98.9767 23.4981,-0.023 23.4981,-0.023 -98.9962,99 -98.9962,99 h -23.6533 -23.6533 z m 264.6158,11.6882 c 48.1446,-48.0086 92.9584,-92.5586 99.5863,-99 L 1552.6015,1849 h 23.9473 23.9474 l -98.9962,99 -98.9962,99 h -24.5375 -24.5374 z M 1732.212,1945.25 c 77.7402,-77.7077 102.56,-101.9529 105.0403,-102.6089 28.2415,-7.4688 42.855,-15.0205 58.9187,-30.4469 16.7144,-16.0513 26.6371,-34.5867 32.2243,-60.1942 0.3459,-1.5853 22.3321,-24.2709 60.0886,-62 l 59.5431,-59.5 -0.2635,23.5 -0.2635,23.5 -185.0142,184.75 -185.0141,184.75 h -23.5261 -23.5261 z m 210.2288,66 c 19.832,-19.6625 51.696,-51.2664 70.8087,-70.2308 L 2048,1906.5383 v 22.6743 22.6742 l -49.4255,47.5566 L 1949.149,2047 h -21.3833 -21.3832 z M 4.8979593e-6,1761.6165 v -24.1222 L 65.949845,1671.5501 c 62.310235,-62.3048 66.002035,-65.8091 66.895525,-63.4971 4.19481,10.8543 7.62487,18.9356 10.21518,24.0669 1.6782,3.3246 2.91362,6.4357 2.74537,6.9138 -0.16826,0.4781 -33.04342,33.6823 -73.055915,73.7871 L 4.8979592e-6,1785.7388 Z M 736.02852,1785.25 c 0.0888,-2.335 37.32405,-39.7336 57.97148,-58.2257 6.325,-5.6648 13.3,-12.1594 15.5,-14.4325 2.2,-2.2731 10.75,-10.2974 19,-17.8318 28.23314,-25.7842 35.00978,-32.0397 44.0316,-40.6452 4.96734,-4.7381 17.56734,-16.4829 28.00004,-26.0996 21.7177,-20.019 44.8893,-42.9757 51.4928,-51.0152 4.1528,-5.0559 8.6263,-10.9777 15.1085,-20 7.9068,-11.005 20.4138,-34.1996 29.9268,-55.5 4.72336,-10.5761 13.30616,-36.6391 16.45726,-49.975 5.2257,-22.1162 7.9552,-47.9283 6.5794,-62.2204 l -0.5964,-6.1954 -5.5,3.9266 c -22.32606,15.9391 -59.57026,35.1133 -81.99996,42.2155 -34.3813,10.8865 -91.75967,34.3594 -117.50004,48.068 -1.1,0.5858 -6.2663,3.2885 -11.48066,6.006 -5.21436,2.7174 -11.16792,6.006 -13.23013,7.3078 -2.06221,1.3018 -4.00639,2.3669 -4.3204,2.3669 -0.82684,0 -22.88713,13.5398 -39.91763,24.5 -2.56385,1.65 -7.08137,4.9125 -10.03892,7.25 -2.95755,2.3375 -5.6967,4.25 -6.087,4.25 -0.3903,0 -3.07992,2.025 -5.97694,4.5 -2.89702,2.475 -5.56202,4.5 -5.92222,4.5 -3.00361,0 -50.76586,44.5308 -61.5261,57.3635 -1.375,1.6398 -3.40495,3.9417 -4.51099,5.1154 -2.89316,3.0701 -16.66329,20.3915 -19.49374,24.5211 -1.3194,1.925 -2.66935,3.725 -2.99988,4 -0.33053,0.275 -1.67846,2.3 -2.99539,4.5 -1.31693,2.2 -2.69523,4.225 -3.06288,4.5 -0.36765,0.275 -1.64414,2.3 -2.83665,4.5 -1.1925,2.2 -3.48772,6.025 -5.10047,8.5 -1.61275,2.475 -3.90701,6.2862 -5.09835,8.4693 -1.19134,2.1831 -2.94776,5.1081 -3.90316,6.5 -0.9554,1.3919 -5.69664,9.2807 -10.53608,17.5307 -10.70587,18.2507 -19.01228,31.816 -22.35001,36.5 -9.95151,13.9654 -18.61772,24.285 -22.25414,26.5 -0.90296,0.55 -3.67528,2.4565 -6.1607,4.2366 -9.63611,6.9016 -28.52032,12.072 -47.19756,12.9223 -15.84064,0.7212 -24.75684,-0.7473 -39.25221,-6.465 -16.88572,-6.6605 -30.7283,-18.1924 -43.18037,-35.9723 -2.41837,-3.4531 -4.88538,-6.0804 -5.48223,-5.8384 -0.59685,0.242 -5.13519,1.3462 -10.08519,2.4539 -14.6921,3.2875 -31.03703,5.3345 -47.06084,5.8936 l -15.06084,0.5255 -10.43916,-3.516 c -25.30593,-8.5233 -56.02471,-23.9295 -68.08939,-34.1484 -16.26955,-13.7805 -34.12513,-32.9283 -45.77864,-49.0918 -2.77577,-3.85 -5.38981,-7.45 -5.80899,-8 -2.49492,-3.2736 -8.59516,-14.1883 -12.01636,-21.5 -11.17705,-23.8873 -18.4915,-55.0746 -21.34254,-91 -2.55897,-32.2453 0.83104,-54.7663 12.744,-84.663 4.58696,-11.5114 15.72534,-34.0306 21.18787,-42.837 1.70581,-2.75 3.99922,-6.6372 5.09647,-8.6382 1.09725,-2.001 6.19121,-9.8954 11.31991,-17.5431 8.92906,-13.3147 13.81651,-20.1283 26.49851,-36.942 3.1625,-4.1928 6.62487,-8.8053 7.69416,-10.25 1.06929,-1.4447 3.31929,-4.2542 5,-6.2434 1.68071,-1.9892 4.63084,-5.557 6.55584,-7.9285 1.925,-2.3715 5.075,-6.1904 7,-8.4864 1.925,-2.296 5.3,-6.3461 7.5,-9.0001 2.2,-2.654 5.575,-6.6989 7.5,-8.9887 4.70455,-5.5959 9.38176,-11.3403 12.18807,-14.969 1.27156,-1.6442 3.03727,-3.7195 3.9238,-4.6119 0.88652,-0.8923 2.44605,-3.0346 3.4656,-4.7606 1.01956,-1.7259 2.1654,-3.1381 2.54631,-3.1381 0.38092,0 1.97139,-2.0242 3.5344,-4.4982 1.563,-2.474 3.11952,-4.499 3.45893,-4.5 0.33942,-10e-4 1.81504,-1.812 3.27917,-4.0244 1.46413,-2.2125 3.30654,-4.8 4.09425,-5.75 8.99503,-10.8489 34.37118,-48.6443 44.46566,-66.2274 17.0494,-29.6976 29.04545,-58.4518 32.33241,-77.5 0.85418,-4.95 1.84059,-15.975 2.19204,-24.5 1.107,-26.8528 5.38959,-57.2209 10.08312,-71.5 2.49018,-7.57583 12.71291,-29.36295 14.30127,-30.47945 0.4073,-0.2863 1.81804,-2.32055 3.13497,-4.52055 1.31693,-2.2 2.6651,-4.225 2.99592,-4.5 0.33082,-0.275 3.25766,-4.325 6.50408,-9 3.24642,-4.675 6.17326,-8.725 6.50408,-9 0.33082,-0.275 1.67899,-2.3 2.99592,-4.5 1.31693,-2.2 2.64574,-4.225 2.9529,-4.5 0.30716,-0.275 1.88994,-2.28402 3.51728,-4.46449 1.62734,-2.18047 3.64978,-4.70759 4.49431,-5.61582 0.84453,-0.90822 3.56051,-4.04008 6.03551,-6.95968 8.56447,-10.10296 16.15888,-18.29761 37,-39.92435 3.025,-3.13902 8.5911,-8.48865 12.36911,-11.88805 11.71388,-10.54 11.28253,-8.9095 6.01852,-22.74989 C 507.4193,781.52521 494.84803,729.14348 489.5732,678 c -3.25188,-31.52949 -4.03199,-70.4299 -1.95926,-97.69943 l 0.54722,-7.19944 6.66942,2.34009 c 3.66818,1.28704 7.9846,2.64236 9.59205,3.01181 1.60744,0.36945 7.4223,2.45537 12.92189,4.63538 15.38424,6.09824 15.01589,5.20799 -2.93295,-7.08841 -3.61271,-2.475 -9.46961,-6.525 -13.01534,-9 -3.54572,-2.475 -9.39572,-6.525 -13,-9 -3.60427,-2.475 -9.5554,-6.59889 -13.22473,-9.16419 -3.66932,-2.56531 -9.5109,-6.61531 -12.98127,-9 -3.47038,-2.3847 -9.09538,-6.4018 -12.5,-8.92689 L 443.5,526.31784 443.24709,358.15892 442.99419,190 H 579.49709 716 v 61.5 61.5 h 85.5 85.50004 V 251.5 190 H 1024 1161 v 61.5 61.5 h 85 85 V 251.5 190 h 137.0029 137.0029 l -0.2529,168.15892 -0.2529,168.15892 -6.1902,4.59108 c -3.4046,2.52509 -9.1514,6.61608 -12.7705,9.09108 -3.6192,2.475 -9.4628,6.525 -12.9859,9 -3.5231,2.475 -9.3525,6.525 -12.9542,9 -3.6018,2.475 -9.4497,6.525 -12.9954,9 -3.5458,2.475 -9.3958,6.525 -13,9 -3.6043,2.475 -9.4543,6.525 -13,9 -3.5458,2.475 -9.3958,6.525 -13,9 -3.6043,2.475 -9.4578,6.525 -13.0079,9 -7.9763,5.56096 -17.4074,12.08968 -26.0018,18 -7.3107,5.02756 -16.8465,11.66108 -26.5941,18.5 -9.369,6.5733 -19.5632,13.68064 -26.7705,18.66419 -3.4488,2.3847 -9.1771,6.36081 -12.7295,8.83581 -3.5524,2.475 -9.3742,6.525 -12.9373,9 l -6.4782,4.5 -0.034,70.5 -0.034,70.5 10.6865,5.5 c 5.8775,3.025 13.5315,7.1875 17.0088,9.25 3.4773,2.0625 6.652,3.75277 7.0548,3.75616 0.6589,0.006 8.9677,4.84844 26.9761,15.72338 3.4341,2.07375 12.6076,7.93296 20.3857,13.02046 7.778,5.0875 14.282,9.25 14.4533,9.25 0.3041,0 9.6011,6.75726 18.2335,13.25242 2.3739,1.78617 5.3664,3.92258 6.6501,4.74758 2.6617,1.71064 10.2397,7.5359 17.8449,13.71748 2.8538,2.31962 7.4388,6.04477 10.1888,8.27812 24.9964,20.30027 71.0463,65.15076 84.5846,82.3815 1.2433,1.5824 3.1954,3.8595 4.338,5.0602 1.1426,1.2006 3.8774,4.385 6.0774,7.0763 2.2,2.6913 5.3652,6.4892 7.0337,8.4398 1.6685,1.9507 4.3685,5.2881 6,7.4165 1.6315,2.1285 4.0913,5.3305 5.4663,7.1157 2.9638,3.8478 14.3552,18.9496 16.9828,22.5144 1.0135,1.375 3.4109,4.5811 5.3277,7.1247 1.9168,2.5436 3.9781,5.546 4.5807,6.6721 0.6026,1.126 1.6669,2.6448 2.3649,3.3752 2.0276,2.1214 31.8406,47.3994 35.1135,53.328 0.9109,1.65 3.4908,5.9242 5.7331,9.4981 2.2423,3.574 5.6975,9.424 7.6783,13 1.9807,3.5761 3.8775,6.7269 4.2151,7.0019 1.9894,1.6206 34.8132,64.8112 41.2956,79.5 0.9709,2.2 4.039,9.175 6.8181,15.5 2.779,6.325 5.6479,12.85 6.3752,14.5 10.3257,23.4251 27.8922,71.7745 36.1508,99.5 24.471,82.1536 39.2228,160.7707 46.8163,249.5 3.3165,38.7524 9.5117,146.0494 9.5413,165.25 l 0.01,4.25 h -569.5 c -313.22496,0 -569.48717,-0.3375 -569.47148,-0.75 z m 1024.96498,-105.5 c -0.01,-59.4791 -0.7824,-84.5477 -3.5361,-114.25 -6.938,-74.8341 -21.5538,-140.8698 -50.0212,-226 -8.004,-23.9358 -22.4117,-63.2254 -26.4026,-72 -0.5003,-1.1 -4.0359,-9.425 -7.8568,-18.5 -12.5012,-29.691 -24.6261,-54.3146 -42.3473,-86 -14.2387,-25.4587 -16.3662,-29.1469 -17.6478,-30.5939 -0.5329,-0.6016 -1.7297,-2.5652 -2.6597,-4.3636 -0.93,-1.7983 -3.6907,-6.1908 -6.1351,-9.7611 -2.4443,-3.5703 -5.0958,-7.7516 -5.8922,-9.2917 -0.7965,-1.5401 -2.0379,-3.4054 -2.7588,-4.145 -0.7209,-0.7396 -2.4021,-3.1447 -3.7359,-5.3447 -1.3338,-2.2 -3.0074,-4.5976 -3.7191,-5.328 -0.7117,-0.7304 -1.7871,-2.2492 -2.3897,-3.3752 -1.0177,-1.9016 -6.1789,-9.032 -9.4273,-13.0242 -0.7731,-0.95 -2.6035,-3.5375 -4.0676,-5.75 -1.4641,-2.2124 -2.9398,-4.0234 -3.2792,-4.0244 -0.3394,-10e-4 -1.8959,-2.026 -3.4589,-4.5 -1.563,-2.474 -3.1535,-4.4982 -3.5344,-4.4982 -0.3809,0 -1.5268,-1.4122 -2.5463,-3.1381 -1.0196,-1.726 -2.5852,-3.8696 -3.4791,-4.7635 -0.894,-0.894 -2.7236,-3.1943 -4.0659,-5.1119 -1.3423,-1.9176 -3.4378,-4.6115 -4.6566,-5.9865 -1.2189,-1.375 -4.0946,-4.75 -6.3906,-7.5 -13.0183,-15.593 -38.5833,-41.7804 -53.0956,-54.38835 -12.3396,-10.72024 -17.9427,-15.45588 -21.4293,-18.11165 -1.8052,-1.375 -6.751,-5.2 -10.9906,-8.5 -4.2397,-3.3 -9.9069,-7.575 -12.5938,-9.5 -12.6808,-9.08484 -22.1747,-15.63416 -24.6543,-17.00749 -1.4969,-0.82912 -5.3825,-3.41662 -8.6345,-5.75 -3.252,-2.33338 -6.3596,-4.24251 -6.9056,-4.24251 -0.5461,0 -2.5511,-1.18855 -4.4556,-2.64122 -1.9046,-1.45268 -6.6721,-4.44299 -10.5944,-6.64515 -28.7258,-16.12769 -34.1062,-19.01219 -52.6316,-28.21622 -17.5435,-8.71617 -35.5934,-17.06585 -39,-18.04088 -1.375,-0.39355 -4.75,-1.84711 -7.5,-3.23014 -2.75,-1.38302 -7.925,-3.53244 -11.5,-4.77648 -3.575,-1.24404 -9.875,-3.6207 -14,-5.28147 -15.5547,-6.26249 -51.5448,-18.0739 -68.5,-22.48069 -35.3743,-9.19406 -63.2917,-15.41304 -75.3311,-16.78106 -4.7316,-0.53764 -9.6795,-1.24772 -10.9952,-1.57795 -2.1931,-0.55041 -2.3438,-0.36008 -1.8106,2.28542 6.1662,30.59128 9.5507,75.98104 6.7332,90.30174 C 1109.7714,914.81634 1097.9428,924 1079.5,924 c -14.4447,0 -25.746,-5.41599 -30.2567,-14.5 -1.7579,-3.54022 -2.0506,-6.75868 -2.5465,-28 -0.6103,-26.14341 -2.0053,-37.88108 -6.8334,-57.5 -2.8965,-11.76959 -8.9486,-30.19313 -12.4829,-38 -14.3098,-31.60828 -31.59946,-56.24287 -58.42866,-83.25 -8.4912,-8.54744 -14.4176,-13.75 -15.6632,-13.75 -3.4488,0 -26.6461,25.37437 -37.0252,40.5 -1.5096,2.2 -2.9977,4.225 -3.3069,4.5 -0.3092,0.275 -1.6396,2.3 -2.9565,4.5 -1.317,2.2 -2.6704,4.225 -3.0076,4.5 -1.2508,1.02003 -11.2185,19.73714 -15.1612,28.46912 -11.2966,25.01949 -18.31981,51.98684 -20.32172,78.03088 -1.33707,17.39473 -5.13069,25.6796 -13.86909,30.28868 -4.86165,2.56428 -5.87257,2.71033 -18.64043,2.69309 -12.08096,-0.0163 -14.12679,-0.27911 -19.463,-2.5 -9.82834,-4.09051 -15.98024,-14.25954 -16.02052,-26.48177 -0.009,-2.75 0.32959,-6.2375 0.75257,-7.75 1.04783,-3.74687 -0.61379,-3.63536 -12.89976,0.86567 -5.42811,1.98862 -11.89429,4.17647 -14.36929,4.86189 -2.475,0.68543 -7.425,2.50165 -11,4.03606 -3.575,1.53441 -9.2,3.79467 -12.5,5.02281 -7.94256,2.95593 -24.06068,10.17683 -34,15.23197 -4.4,2.23784 -10.66266,4.83421 -13.91701,5.76971 -14.53713,4.17886 -27.09354,-2.57507 -36.1701,-19.45544 -2.37354,-4.41425 -2.91289,-6.63618 -2.91289,-12 0,-5.81944 0.38239,-7.13341 3.29804,-11.33267 3.27502,-4.71685 10.70769,-10.21597 18.61717,-13.77408 9.02359,-4.0593 46.63153,-21.37984 54.83479,-25.25447 4.8125,-2.27308 8.75,-4.56216 8.75,-5.08684 0,-0.52469 -1.6875,-2.45082 -3.75,-4.28029 -6.78032,-6.01425 -24.16023,-20.78027 -29.00156,-24.6398 -2.61164,-2.08202 -6.94926,-5.60063 -9.63915,-7.81915 -2.68988,-2.21851 -6.06488,-4.77688 -7.5,-5.68528 -1.43511,-0.90839 -4.66325,-3.35228 -7.17365,-5.43086 C 692.42525,744.70065 690.0127,743 689.57442,743 c -0.43827,0 -2.88431,-1.73419 -5.43564,-3.85375 -2.55133,-2.11956 -5.76378,-4.44305 -7.13878,-5.1633 -1.375,-0.72025 -4.79089,-3.03606 -7.59087,-5.14624 C 666.60915,726.72652 664.01456,725 663.64337,725 c -0.37119,0 -3.45784,-2.025 -6.85921,-4.5 -3.40138,-2.475 -6.56898,-4.5 -7.03911,-4.5 -0.47013,0 -3.52114,-1.81069 -6.78002,-4.02375 -3.25888,-2.21306 -6.72169,-4.31382 -7.69513,-4.66836 -0.97345,-0.35453 -3.5699,-1.83961 -5.7699,-3.30018 -5.22307,-3.46757 -34.14076,-19.10188 -41.43925,-22.40407 -1.34158,-0.607 -5.39158,-2.62563 -9,-4.48585 C 567.3611,671.08636 557,667.0499 557,668.52338 c 0,6.296 5.28148,40.97138 9.13516,59.97662 7.44686,36.72573 21.36473,81.34301 35.09313,112.5 1.09054,2.475 2.67787,6.075 3.52741,8 4.87431,11.04487 16.39754,34.09132 22.1223,44.24457 3.6421,6.45952 7.80775,13.88452 9.25699,16.5 7.2222,13.03405 3.61713,24.24553 -11.37245,35.36743 -10.31458,7.65315 -19.9926,9.84215 -30.6532,6.93323 -8.40598,-2.29372 -21.58785,-18.2065 -32.70267,-39.47778 -1.59867,-3.05948 -3.18496,-5.56377 -3.52509,-5.56507 -0.34013,-10e-4 -2.59609,1.91012 -5.01325,4.24762 -2.41715,2.3375 -6.86386,6.55419 -9.88158,9.37043 -6.1531,5.74229 -11.82654,11.95004 -15.80606,17.29462 -1.46812,1.97172 -2.92063,3.80995 -3.22779,4.08495 -0.30716,0.275 -1.63597,2.3 -2.9529,4.5 -1.31693,2.2 -2.66693,4.225 -3,4.5 -0.33307,0.275 -1.68307,2.3 -3,4.5 -1.31693,2.2 -2.66328,4.225 -2.99187,4.5 -0.32859,0.275 -1.52819,2.075 -2.66577,4 -1.13758,1.925 -5.73468,9.54179 -10.21579,16.92619 -10.58819,17.44829 -19.21482,34.56421 -22.46575,44.57381 -4.46682,13.7534 -4.91184,19.4325 -3.10043,39.5655 1.49522,16.6187 1.49303,18.5736 -0.0294,26.1967 -3.57475,17.8989 -10.66638,39.45 -18.44594,56.0563 -5.65191,12.0646 -17.39489,32.6461 -21.7879,38.1869 -0.43841,0.5529 -4.54639,6.5525 -9.12885,13.3323 -7.84516,11.6071 -19.01423,27.7178 -22.91753,33.0571 -0.9629,1.3172 -2.42573,3.4204 -3.25073,4.6738 -0.825,1.2535 -6.225,8.8726 -12,16.9314 -5.775,8.0588 -11.19008,15.7038 -12.0335,16.9888 -0.84343,1.2851 -2.49166,3.6133 -3.66274,5.1739 -6.45087,8.5961 -9.01512,12.1364 -10.74697,14.8373 -1.05798,1.65 -2.40357,3.5073 -2.99019,4.1272 -0.58663,0.62 -4.2166,5.5308 -8.0666,10.913 -7.09955,9.9249 -17.32489,23.8725 -27.43351,37.4199 -3.06157,4.1031 -6.41548,8.8281 -7.45313,10.5 -1.03765,1.672 -2.71198,3.9399 -3.72074,5.0399 -1.00875,1.1 -5.46967,6.95 -9.91315,13 -4.44348,6.05 -8.62675,11.675 -9.29615,12.5 -0.6694,0.825 -2.55693,3.3 -4.19452,5.5 -1.63758,2.2 -3.24403,4.225 -3.56989,4.5 -1.90622,1.6087 -12.52712,18.3429 -17.23624,27.1573 -9.06649,16.9703 -15.32597,33.5212 -21.87596,57.8427 -2.7431,10.1857 -3.15073,13.4792 -3.56679,28.818 -0.67946,25.05 2.25853,45.4088 9.40018,65.1384 3.24489,8.9644 10.99851,24.4562 13.63943,27.2517 0.67126,0.7105 2.40947,2.8669 3.86269,4.7919 4.72184,6.2548 11.1657,12.628 21.19745,20.9652 19.75268,16.416 35.63879,25.5728 53.16033,30.6418 9.06559,2.6227 11.40162,2.8916 25,2.8777 13.94546,-0.014 15.75864,-0.2407 25.79107,-3.2208 20.15692,-5.9877 33.5395,-14.2764 43.01831,-26.644 4.8487,-6.3264 5.96395,-8.2171 13.71182,-23.2461 3.15473,-6.1194 6.61328,-12.4194 7.68566,-14 1.07239,-1.5806 3.71455,-5.5659 5.87147,-8.8562 9.41826,-14.3674 19.52916,-22.5445 27.81004,-22.4911 2.2614,0.015 7.03663,1.0416 10.61163,2.2823 5.60076,1.9438 6.9401,2.9099 9.68117,6.9835 4.13613,6.1468 5.84183,14.0517 4.28201,19.8444 -1.00443,3.7302 -7.8204,22.7154 -11.25991,31.3633 -5.86522,14.7469 -23.65383,43.3657 -32.67125,52.5625 -0.84261,0.8593 -2.65702,3.2188 -4.03202,5.2431 -1.375,2.0244 -2.80686,3.6838 -3.18191,3.6876 -0.37504,0 -1.65833,1.3781 -2.85174,3.0541 -1.93029,2.7108 -2.03151,3.4008 -0.91689,6.25 6.35423,16.2423 12.56296,24.1377 20.61348,26.2133 4.40721,1.1363 6.13476,1.1095 11.80219,-0.1832 5.4465,-1.2424 7.93236,-2.5524 13.83706,-7.2922 13.02761,-10.4573 15.55631,-13.947 33.62396,-46.4025 14.58328,-26.1965 23.89292,-41.509 42.1418,-69.3147 4.03486,-6.1479 14.32214,-20.8823 14.88381,-21.318 0.35453,-0.275 1.7052,-2.075 3.00148,-4 1.29629,-1.925 2.84961,-3.95 3.45182,-4.5 0.60222,-0.55 2.42262,-2.8 4.04535,-5 1.62272,-2.2 3.93789,-5.125 5.14482,-6.5 1.20693,-1.375 4.53973,-5.2 7.40622,-8.5 6.9484,-7.9992 35.09042,-35.5 36.32776,-35.5 0.53765,0 3.35919,-2.1375 6.2701,-4.75 5.5888,-5.0159 10.46432,-8.9685 21.90069,-17.755 3.85,-2.9579 8.575,-6.6856 10.5,-8.2836 1.925,-1.5981 4.85,-3.7414 6.5,-4.763 1.65,-1.0217 5.08745,-3.5655 7.63878,-5.653 2.55133,-2.0875 4.94801,-3.7954 5.32596,-3.7954 0.37794,0 3.31881,-2.025 6.53526,-4.5 3.21645,-2.475 6.15704,-4.5 6.53464,-4.5 0.37761,0 3.4569,-1.9366 6.84287,-4.3036 3.38597,-2.3669 6.94515,-4.6062 7.90929,-4.9762 0.96415,-0.37 4.41935,-2.4834 7.67823,-4.6965 3.25888,-2.213 6.29343,-4.0237 6.74345,-4.0237 0.45002,0 3.11506,-1.5468 5.9223,-3.4373 14.22272,-9.5781 44.13729,-23.9179 68.86922,-33.0131 4.95,-1.8203 12.49921,-4.7137 16.77603,-6.4296 4.27682,-1.716 8.26592,-3.12 8.86468,-3.12 0.59876,0 5.14387,-1.8 10.10025,-4 4.95637,-2.2 9.51724,-4.0022 10.13534,-4.0048 0.618,0 5.6094,-2.0277 11.0918,-4.5 5.4825,-2.4724 10.4652,-4.4952 11.0726,-4.4952 0.6075,0 5.1218,-1.9514 10.0319,-4.3363 4.9101,-2.385 10.2168,-4.6566 11.7928,-5.0481 1.576,-0.3914 5.9334,-2.4502 9.6832,-4.575 3.7498,-2.1249 7.7026,-4.1442 8.784,-4.4875 2.5433,-0.8072 17.499,-9.6079 22.6674,-13.3387 2.2,-1.5881 5.125,-3.4831 6.5,-4.2111 8.3569,-4.4245 38.64456,-31.3692 49.48296,-44.0212 8.3434,-9.7395 15.4691,-19.1152 20.8868,-27.4821 2.1369,-3.3 4.8278,-7.35 5.98,-9 3.7086,-5.3111 18.1892,-34.7591 20.9253,-42.5542 3.5622,-10.1482 6.3084,-22.3433 7.7569,-34.4458 1.4539,-12.1477 1.5109,-42.0659 0.094,-49.1325 -1.2202,-6.084 -0.096,-11.3213 3.4358,-16.0027 1.7095,-2.2661 4.5235,-3.9292 10.1518,-6 6.9755,-2.5663 9.0369,-2.8633 19.7867,-2.8501 15.1864,0.019 21.5551,2.1719 28.7424,9.7176 8.3577,8.7744 9.958,17.9597 7.7129,44.2677 -3.0775,36.0602 -12.1535,69.9823 -27.1567,101.5 -3.9139,8.2219 -15.3949,29.4633 -17.0259,31.5 -0.4404,0.55 -3.1215,4.6 -5.9579,9 -2.8364,4.4 -5.4472,8.225 -5.8019,8.5 -0.3547,0.275 -2.1098,2.6527 -3.9001,5.2837 l -3.2553,4.7837 3.015,9.2163 c 11.7826,36.0179 14.3896,81.1433 7.0445,121.9343 -3.439,19.0989 -12.3302,48.9305 -19.457,65.282 -0.7191,1.65 -2.7406,6.375 -4.4921,10.5 -7.731,18.2077 -20.8021,42.7941 -30.0375,56.5 -18.8643,27.9957 -56.23886,66.1704 -94.96686,97 -8.5191,6.7817 -19.4055,15.2135 -23.8857,18.5 -2.6241,1.925 -6.1828,4.625 -7.9081,6 -1.7253,1.375 -6.1016,4.75 -9.7251,7.5 -3.6234,2.75 -9.03,7.025 -12.0146,9.5 -2.9845,2.475 -7.8656,6.525 -10.8468,9 -2.98124,2.475 -5.45705,4.8375 -5.50181,5.25 -0.0448,0.4125 199.94357,0.75 444.41857,0.75 H 1761 Z M 312.54071,1548.6676 c -4.77358,-1.871 -6.59685,-3.2609 -9.16369,-6.9856 C 300.25396,1537.1501 298,1529.7724 298,1524.0818 c 0,-9.4175 5.69471,-31.5408 10.68362,-41.5047 3.37718,-6.7449 9.27516,-16.4942 11.79053,-19.4895 14.68931,-17.4924 28.27882,-28.8848 44.53731,-37.3367 9.99259,-5.1946 17.50889,-5.6004 25.99621,-1.4035 9.34078,4.6191 10.49888,5.4387 14.6642,10.3785 7.67077,9.0971 10.33035,16.8384 8.33313,24.2555 -1.41419,5.2519 -9.04591,13.652 -16.37248,18.0208 -7.8625,4.6884 -12.73904,8.4165 -17.22156,13.1656 -8.28798,8.7809 -14.21745,20.5539 -15.02494,29.8322 -0.90048,10.3468 -3.3821,16.8668 -8.33648,21.9026 -6.11549,6.216 -12.9007,8.3815 -27.54954,8.7922 -9.60913,0.2694 -11.75351,0.013 -16.95929,-2.0272 z m 239.29631,-388.075 C 535.75657,1155.166 528,1145.3887 528,1130.5454 c 0,-6.8666 1.18149,-10.354 8.14623,-24.0454 6.41946,-12.6195 21.72899,-36.7818 25.34445,-40 0.6179,-0.55 2.43847,-2.8 4.04573,-5 4.41957,-6.0495 22.80537,-24.123 33.097,-32.5348 8.4757,-6.9276 13.04632,-10.218 27.32495,-19.6713 6.92941,-4.5876 33.3576,-17.94616 42.54392,-21.50443 24.30483,-9.41436 26.75286,-10.12039 36.66137,-10.57337 8.76034,-0.40048 10.16246,-0.20661 15,2.07402 7.4569,3.51552 12.41128,8.57698 16.08955,16.43727 5.39087,11.52001 5.10309,21.89911 -0.82236,29.65941 -2.91054,3.8118 -5.37543,5.491 -14.22569,9.6909 -5.88783,2.7942 -12.98207,5.9451 -15.76497,7.002 -2.7829,1.0569 -5.92692,2.5557 -6.98672,3.3307 -1.78553,1.3056 -1.80803,1.544 -0.3067,3.2493 2.35441,2.6742 5.82554,9.8889 7.57658,15.7478 4.5,15.0566 -1.4111,39.0618 -13.00422,52.8106 -4.88416,5.7923 -17.29888,13.4091 -23.62345,14.4938 -7.12548,1.2219 -34.94157,0.8608 -41.09567,-0.5336 -3.025,-0.6855 -8.91781,-2.9881 -13.09514,-5.117 -4.17733,-2.1289 -8.09021,-3.5648 -8.6953,-3.1908 -1.19011,0.7355 -12.20956,19.778 -12.20956,21.0991 0,0.4414 -1.87307,3.6074 -4.16238,7.0357 -3.4799,5.2112 -5.16051,6.7054 -10.25,9.1132 -7.82422,3.7015 -17.68749,3.87 -27.7506,0.4741 z M 1313.7585,735.75 1313.5,680.5 1175.5535,680.24645 c -75.8705,-0.13945 -138.2918,0.0918 -138.7138,0.5139 -0.4221,0.4221 1.3538,3.29885 3.9464,6.3928 8.2306,9.82201 15.0204,18.67942 18.6435,24.32086 1.0505,1.6357 2.3072,3.4357 2.7926,4 0.4854,0.56429 2.7226,3.95099 4.9715,7.52599 2.2489,3.575 5.1199,8.075 6.38,10 1.26,1.925 2.8245,4.69536 3.4765,6.15635 1.1019,2.46912 1.7587,2.70192 9.3176,3.30288 14.5998,1.16071 37.9229,3.65466 48.0211,5.13491 5.439,0.79727 14.214,1.88891 19.5,2.42587 12.109,1.23004 46.6626,7.9715 67.6111,13.19103 8.8,2.19261 18.025,4.39466 20.5,4.89345 6.147,1.23881 32.0893,9.18194 45.5,13.93143 6.05,2.14264 12.35,4.21093 14,4.5962 1.65,0.38526 4.8,1.51576 7,2.51222 2.2,0.99645 4.3413,1.82162 4.7585,1.8337 0.4171,0.0121 0.6421,-24.84054 0.5,-55.22804 z M 826.28266,762 c 10.05798,-27.11171 22.31999,-49.91511 38.93976,-72.41544 3.21568,-4.35349 5.46795,-8.29419 5.00504,-8.7571 -0.46291,-0.46291 -31.19096,-0.72596 -68.28456,-0.58456 L 734.5,680.5 l -0.28932,8.18082 -0.28933,8.18082 6.28933,5.03756 c 3.45912,2.77067 8.43458,6.7393 11.05655,8.81919 19.58428,15.53525 43.96983,37.03285 63.04572,55.57928 3.84544,3.73871 7.31879,6.43871 7.71855,6 0.39975,-0.43872 2.31278,-5.07267 4.25116,-10.29767 z m 117.71798,-147.50047 8.1711,-5.50046 4.1641,2.83906 c 2.2903,1.56148 5.9883,4.03669 8.2179,5.50046 L 968.60754,620 h 190.28806 190.2881 l 2.6581,-2.06766 c 1.462,-1.13722 6.0332,-4.51023 10.1582,-7.4956 4.125,-2.98536 9.975,-7.25696 13,-9.49244 8.9129,-6.58668 16.5033,-12.11375 23.9564,-17.4443 3.845,-2.75 9.6799,-7.025 12.9665,-9.5 3.2866,-2.475 8.3609,-6.20433 11.2763,-8.28739 14.0855,-10.06408 30.2899,-21.98954 37.3163,-27.46261 3.0009,-2.3375 5.8001,-4.25669 6.2204,-4.26488 0.4202,-0.008 2.5641,-1.56628 4.7641,-3.46245 l 4,-3.44758 H 1024 572.5 l 4,3.44758 c 2.2,1.89617 4.36375,3.45427 4.80834,3.46245 0.44459,0.008 3.14459,1.84701 6,4.08628 4.86108,3.81215 13.51461,10.1621 25.19166,18.48561 11.15458,7.95109 20.25941,14.61327 24.84184,18.17725 2.66302,2.07116 5.39328,3.99074 6.06725,4.26574 0.67397,0.275 3.44514,2.19306 6.15815,4.26236 C 660.40101,591.52559 667.95809,597 668.53119,597 c 0.33204,0 3.02273,1.9125 5.97932,4.25 2.95659,2.3375 8.56398,6.5 12.46087,9.25 3.89689,2.75 8.31001,5.99828 9.80693,7.2184 L 699.5,619.9368 817.66482,619.9684 935.82964,620 Z M 1536,358 V 250 H 1467.5 1399 V 311.5 373 H 1245 1091 V 311.5 250 h -67.5 -67.49996 V 311.5 373 H 802.5 649 V 311.5 250 H 580.5 512 v 108 108 h 512 512 z m 381.8997,1172.9971 c -0.055,-0.2734 -1.5399,-9.1386 -3.2994,-19.7005 l -3.199,-19.2033 68.2993,-68.2939 68.2994,-68.2939 v 23.0001 23.0002 l -65,64.9942 c -35.75,35.7468 -65.0452,64.7705 -65.1003,64.4971 z M 4.8979593e-6,1485.6167 v -24.1193 L 146.09734,1315.4987 c 127.22245,-127.1366 145.28689,-144.836 139.82417,-136.9987 -9.5485,13.699 -25.20745,34.3792 -46.94628,62 -35.54516,45.1628 -48.95308,63.5377 -66.62695,91.3089 l -9.15171,14.3802 -81.598285,81.7734 L 4.8979593e-6,1509.736 Z M 1863.0761,1304.8889 c -0.5541,-1.3139 -3.4241,-8.9886 -6.3778,-17.0548 l -5.3702,-14.666 98.3488,-98.334 98.3488,-98.3341 -0.2628,24 -0.2629,24 -91.7082,91.3889 c -86.5724,86.271 -91.7645,91.2551 -92.7157,89 z M 4.8979593e-6,1210.6868 V 1188.834 L 218.68974,969.47526 C 338.9691,848.82795 437.68345,750.30436 438.05496,750.53397 c 0.37151,0.2296 0.92905,1.89089 1.23897,3.69175 0.30992,1.80085 1.7192,9.7801 3.13173,17.73165 l 2.56825,14.45738 -13.20954,13.54262 C 424.51913,807.40582 324.3955,907.78389 209.28742,1023.0198 L 4.8979593e-6,1232.5395 Z M 1770.4436,1107.8465 c -2.1001,-3.4906 -5.9428,-9.7633 -8.5394,-13.9394 l -4.721,-7.5929 145.4215,-145.40709 145.4216,-145.40711 -0.2632,23 -0.2631,23 -136.619,136.34649 -136.619,136.34651 z M 4.8979593e-6,931.99873 V 910.49808 L 194.75096,715.74904 C 301.86399,608.63707 389.80323,521 390.1715,521 c 0.36828,0 0.98106,1.4625 1.36175,3.25 0.3807,1.7875 2.72976,8.81155 5.22015,15.609 l 4.52798,12.359 L 200.64069,752.85869 4.8979592e-6,953.49938 Z M 1647.5,941.87554 c -5.5,-6.05742 -10.1126,-11.32027 -10.2502,-11.6952 -0.1377,-0.37494 92.2248,-93.15599 205.25,-206.18011 L 2048,518.50182 v 22.56025 22.56025 l -194.5253,194.43884 c -106.9889,106.94136 -194.8514,194.52638 -195.25,194.63336 -0.3986,0.10699 -5.2247,-4.76155 -10.7247,-10.81898 z M 1499.2742,815.16389 c -6.6245,-4.94085 -12.2948,-9.38822 -12.6006,-9.88306 -0.3059,-0.49483 125.8733,-127.32295 280.3981,-281.84026 L 2048.0258,242.5 l -0.2629,23 -0.2629,23 -268.0906,267.82362 -268.0907,267.82362 z M 0.2364749,655.38463 0.5000049,633.26925 191.89851,441.41239 383.29702,249.55552 l -0.63366,7.97224 c -0.34851,4.38473 -0.92791,15.01025 -1.28755,23.61226 L 380.72192,296.78005 190.34743,487.14002 -0.0270551,677.5 Z M 4.8979593e-6,377.98158 V 355.49789 L 177.77041,177.72958 355.54083,-0.03872446 378.02041,0.23063777 400.5,0.5 200.25,200.48264 4.8979592e-6,400.46527 Z M 1667,367.99794 v -20.5001 L 1840.7511,173.74892 2014.5021,0 h 6.1766 C 2034.2685,0 2048,3.1546052 2048,6.2766644 2048,6.9505817 1962.275,93.226083 1857.5,198 L 1667,388.49803 Z M 1239.5,228.52393 c -2.2,-0.8216 -4.2243,-1.50059 -4.4983,-1.50887 C 1234.7276,227.00706 1285.5768,175.925 1348,113.5 L 1461.4967,0 h 23.0007 23.0007 l -65.5296,65.529592 -65.5296,65.529588 -11.4694,2.55974 c -28.3801,6.33383 -50.5902,19.25309 -67.7589,39.41438 -3.7602,4.4155 -11.5178,15.55185 -17.2392,24.74744 -10.9824,17.65104 -18.0245,26.18536 -24.2114,29.34168 -5.2166,2.66134 -11.4483,3.19847 -16.26,1.40151 z M 759.66911,186.07617 c -1.45145,-2.19328 -5.61079,-7.66873 -9.24298,-12.16767 L 743.82215,165.72863 826.16108,83.114314 908.50004,0.5 l 22.668,-0.26822912 22.6681,-0.26822911 -94.9775,94.76822923 c -52.23763,52.122529 -95.33144,94.895119 -95.76402,95.050209 -0.43258,0.15509 -1.97407,-1.51252 -3.42551,-3.70581 z m 857.56559,-31.45995 c -2.8959,-2.33602 -8.9105,-6.18955 -13.3657,-8.5634 l -8.1005,-4.3161 70.8631,-70.86836 L 1737.4947,0 h 23.0003 23.0003 L 1704,79.5 c -43.7224,43.725 -79.9463,79.46929 -80.4976,79.43176 -0.5513,-0.0375 -3.3718,-1.97953 -6.2677,-4.31554 z M 567,65.307781 631.5,0.5 l 23,-0.26302327 23,-0.26302326 -63.59175,63.60379653 -63.59176,63.6038 -22.40824,0.91681 c -12.32454,0.50424 -23.08325,1.1644 -23.90825,1.46701 -0.825,0.3026 27.525,-28.61331 63,-64.257589 z m 507.3294,62.746209 c -7.7938,-0.30469 -14.4061,-0.79124 -14.6939,-1.08121 -0.2878,-0.28998 27.8858,-28.977475 62.6081,-63.750003 L 1185.375,0 h 22.5596 22.5596 L 1166,64.5 l -64.4942,64.5 -6.5029,-0.19601 c -3.5766,-0.1078 -12.8797,-0.4453 -20.6735,-0.75 z M 0.0035549,101.99698 0.0071049,79.5 39.745325,39.731844 79.483545,-0.03631108 101.74588,0.23184446 124.00821,0.5 62.004105,62.496976 4.8979593e-6,124.49395 Z"
       id="path1" />
  </g>
</svg>
