<?xml version="1.0" encoding="UTF-8" standalone="no"?>
<!-- Created with Inkscape (http://www.inkscape.org/) -->

<svg
   version="1.1"
   id="svg1"
   width="2048"
   height="2048"
   viewBox="0 0 2048 2048"
   xmlns="http://www.w3.org/2000/svg"
   xmlns:svg="http://www.w3.org/2000/svg">
  <defs
     id="defs1" />
  <g
     id="g1">
    <path
       style="fill:#000000"
       d="m 7.1543555,2044.4764 c -3.83647,-3.2281 -5.93539,-9.7795 -6.81993999,-21.2872 l -0.64367,-8.374 L 227.7256,1786.6576 455.76046,1558.5 l 1.2046,-6.5 c 1.69043,-9.1215 8.3524,-34.8224 12.08006,-46.603 26.87418,-84.9313 70.05925,-157.6986 134.67782,-226.9335 44.64273,-47.832 101.52357,-89.9993 161.66094,-119.8436 17.28064,-8.5759 49.3733,-22.6199 51.6898,-22.6199 2.7478,0 -0.2807,-2.1059 -10.71734,-7.4523 -27.76577,-14.2237 -55.7263,-35.9579 -77.77846,-60.4586 l -5.77019,-6.4108 -60.65273,60.9108 c -33.35901,33.501 -195.99074,196.3744 -361.40385,361.941 L -4.4897959e-6,1785.5602 v -24.0296 -24.0295 L 351.46952,1386.0005 702.93904,1034.5 l -4.56528,-7 c -7.77587,-11.9228 -20.00741,-38.05221 -25.27819,-54 -9.79924,-29.64957 -13.36248,-52.08117 -13.5022,-85 -0.0514,-12.1 0.25967,-26.275 0.69117,-31.5 l 0.78454,-9.5 -74.78454,74.99731 C 545.15304,963.74582 396.4125,1112.7134 255.75,1253.5364 L -4.489796e-6,1509.5781 v -24.0385 -24.0385 L 338.93611,1122.5006 677.87223,783.5 l 4.47421,-10.1767 c 25.38201,-57.73198 79.68404,-111.64047 138.84204,-137.83585 8.4886,-3.75875 9.1769,-4.33609 29.9113,-25.08728 l 21.2227,-21.23998 -3.1995,-3.8301 c -21.4865,-25.72094 -32.5602,-45.2803 -40.5176,-71.56614 -9.0678,-29.95391 -11.0486,-68.9197 -5.0925,-100.17869 l 1.3188,-6.92119 -202.66839,202.91797 C 510.6957,721.18692 325.10037,907.01709 209.72923,1022.538 l -209.76569449,210.038 0.26823,-22.1057 0.26823,-22.1056 L 592.5,594.43236 1184.5,0.5 l 23,-0.2631887 23,-0.2631887 -127,127.1083574 c -69.85,69.9096 -126.10002,126.84618 -125.00002,126.52573 5.7689,-1.68055 23.80802,-3.73606 37.50002,-4.27302 51.2404,-2.00947 98.1791,13.61993 136.238,45.36385 l 7.9392,6.62181 L 1310.8398,150.66017 1461.5025,0 h 22.9976 22.9976 l -162.4062,162.40854 -162.4063,162.40855 5.9074,7.8399 c 18.6418,24.74009 30.9611,53.37054 36.507,84.84301 1.897,10.76529 2.2992,16.69586 2.34,34.5 0.03,13.08981 -0.4831,25.21613 -1.3118,31 -1.2131,8.46643 -5.8323,29.19933 -7.6866,34.5 -0.3848,1.1 116.2463,-114.8875 259.1803,-257.75 L 1737.5014,0 h 22.9536 22.9536 l -307.8821,308.02219 c -178.6861,178.76741 -307.4928,308.37582 -306.9543,308.86491 0.5103,0.46349 3.8528,1.39821 7.4278,2.07715 3.575,0.67895 11.675,2.74629 18,4.5941 41.0734,11.99938 77.8928,33.51607 110.2851,64.44889 l 11.3603,10.84847 L 1665.0721,349.42786 2014.4989,0 h 6.1782 C 2034.2752,0 2048,3.1545104 2048,6.2798938 2048,6.9555872 2027.9459,27.531531 2003.4354,52.004214 1978.9249,76.476896 1818.4679,237.2134 1646.8643,409.19644 l -312.0065,312.69643 3.9177,5.30357 c 23.8398,32.27321 40.328,72.01813 46.589,112.30356 2.5761,16.57611 2.8866,20.18861 3.5235,41 l 0.612,20 329.2689,-328.9343 329.2689,-328.9343 -0.2689,22.9343 L 2047.5,288.5 1714,621.5 c -183.425,183.15 -333.6554,333.675 -333.8453,334.5 -1.5471,6.71986 -9.368,28.58844 -13.653,38.17604 -13.8744,31.04386 -32.6639,57.91976 -59.0017,84.39406 -21.2863,21.3966 -43.5668,37.9731 -67.7833,50.4299 -5.8807,3.025 -10.6907,5.725 -10.6889,6 0,0.275 5.5087,2.6997 12.2377,5.3882 35.7112,14.2682 71.9396,33.5441 105.2345,55.9918 l 14,9.4389 L 1704.25,862.15998 2048,518.50109 v 22.53535 22.53536 l -330.9674,330.9641 -330.9674,330.9641 8.7543,7.1805 c 30.5371,25.0471 65.9607,62.5972 92.9874,98.5695 5.2686,7.0125 9.8723,12.75 10.2303,12.75 0.358,0 124.2461,-123.3422 275.3069,-274.0937 L 2048,795.81264 v 22.37835 22.37835 L 1843.7498,1044.5347 C 1731.4122,1156.7156 1611.7231,1276.175 1577.7739,1310 l -61.7258,61.5 9.5127,16 c 24.1785,40.6673 44.8959,89.3151 56.9305,133.6823 1.9868,7.3248 3.835,13.9714 4.107,14.7705 0.3215,0.9444 81.1386,-79.1907 230.9481,-228.9992 L 2048,1076.5016 v 23.5639 23.5639 l -226.5556,226.4599 -226.5556,226.4599 2.0178,13.9754 c 4.4539,30.8475 5.506,47.3339 5.4866,85.9754 -0.019,38.5207 -0.9614,53.0063 -5.4629,84 -2.1951,15.1129 -7.0505,40.664 -9.3931,49.43 l -1.4511,5.43 59.7069,-59.4674 c 32.8389,-32.707 136.7695,-136.1189 230.957,-229.8042 L 2048,1355.7517 v 22.8747 22.8748 L 1725.2494,1724.2506 1402.4988,2047 h -24.5365 -24.5366 l 80.5371,-80.4943 80.5372,-80.4942 -114.5023,-0.01 -114.5024,-0.01 -80.4953,80.5 -80.4953,80.5 h -23.6856 -23.6855 l 80.6832,-80.4723 80.6832,-80.4723 -119.0023,-0.028 -119.0024,-0.019 -80.49532,80.5 -80.4953,80.5 h -22.5865 -22.58643 l 80.58413,-80.4868 80.5841,-80.4868 -115.5023,-0.013 -115.50234,-0.013 -80.49534,80.5 -80.49534,80.5 h -22.64458 -22.64459 l 80.46068,-80.25 80.46067,-80.25 -97.72044,-0.5 -97.72044,-0.5 -3.86909,-10.5 c -2.128,-5.775 -4.3379,-11.5958 -4.91088,-12.9351 -0.99252,-2.3199 -5.47288,1.9958 -94.73088,91.25 L 286.49603,2047 h -22.58505 -22.58504 l 111.06504,-110.9369 111.06505,-110.9368 -3.23688,-13.3132 c -6.69805,-27.5487 -10.72882,-51.3016 -13.88339,-81.8131 -2.16339,-20.9246 -2.46358,-81.441 -0.51018,-102.8492 0.72011,-7.8921 1.16645,-14.4204 0.99186,-14.5074 -0.17459,-0.087 -97.74244,97.4946 -216.81744,216.848 -119.075,119.3533 -217.225444,217.1423 -218.112094,217.3088 -0.88665,0.1665 -3.0167505,-0.8792 -4.7335505,-2.3238 z M 1515.858,1814.75 c 4.4979,-14.4298 10.2038,-39.9027 13.6186,-60.7978 10.4136,-63.7212 7.9469,-132.3088 -7.0437,-195.8495 -20.9919,-88.9783 -69.2976,-173.848 -138.4127,-243.1814 -41.5561,-41.6874 -82.4229,-71.133 -135.0202,-97.2858 -19.4701,-9.681 -21.0374,-10.2769 -31.1967,-11.8612 -36.0975,-5.6292 -54.5474,-26.7915 -56.4721,-64.7743 -0.7902,-15.5936 1.094,-25.4189 7.273,-37.9251 8.9179,-18.0498 28.4453,-33.8462 54.5698,-44.1435 10.9757,-4.3262 37.38,-27.099 52.6762,-45.4314 34.7966,-41.70366 50.2561,-96.09351 43.5921,-153.36715 -5.4204,-46.58507 -27.6056,-89.67553 -63.6374,-123.6031 -30.4838,-28.70354 -67.5089,-46.99258 -106.3049,-52.51077 -23.358,-3.32235 -26.7603,-4.17661 -36.966,-9.28162 -7.727,-3.86511 -17.4165,-13.58061 -21.3852,-21.44268 -9.8854,-19.58281 -10.7601,-47.64089 -2.0667,-66.29468 5.4375,-11.66739 10.5631,-18.2421 24.6264,-31.58867 24.1234,-22.89401 36.2014,-43.56715 42.4607,-72.67766 2.931,-13.63084 3.2063,-42.62814 0.5312,-55.94348 -5.2311,-26.03822 -16.8486,-47.81637 -36.0201,-67.52327 -20.9604,-21.54572 -41.616,-33.40105 -68.6803,-39.41913 -14.7123,-3.27146 -41.5379,-3.27836 -56.73362,-0.0146 -26.6158,5.71659 -47.1703,16.98435 -66.8086,36.62387 -20.2736,20.27483 -31.9185,41.2605 -37.627,67.80925 -2.9279,13.61661 -3.2062,42.62959 -0.5363,55.91589 6.1239,30.47549 17.0175,49.24986 44.3013,76.34967 16.3356,16.2255 17.364,17.48018 21.7215,26.5 6.2257,12.88667 8.1541,22.83647 7.3578,37.96364 -1.0043,19.07923 -5.9259,32.81283 -15.4527,43.12097 -9.3321,10.09753 -20.869,15.72678 -36.8617,17.98622 -28.184,3.98179 -45.4195,8.4046 -63.1246,16.19836 -52.99635,23.32891 -97.7549,74.52157 -113.32781,129.61885 -11.14241,39.42205 -10.3367,84.35093 2.19725,122.52534 10.15358,30.92459 26.74932,56.73045 52.24719,81.24265 15.33193,14.7392 28.08137,24.172 39.22627,29.0218 29.8933,13.0083 48.3637,31.0471 55.5895,54.2903 2.0076,6.4582 2.3231,9.5142 2.2708,22 -0.044,10.497 -0.5552,16.4325 -1.8518,21.5 -7.0284,27.4682 -25.9421,43.257 -57.0279,47.6056 -7.7336,1.0819 -10.7228,2.2155 -27.37066,10.3793 -51.81549,25.4094 -94.48343,55.8168 -134.71669,96.006 -77.7782,77.693 -128.59353,173.3292 -145.85764,274.5091 -12.97729,76.056 -9.02484,156.3394 10.96626,222.75 l 2.48344,8.25 h 490.89031 490.8903 z M 898.34698,614.13262 c 1.5848,-0.62365 1.6418,-0.89703 0.4018,-1.92618 -1.1548,-0.95835 -1.8083,-0.79817 -3.252,0.79709 -1.9354,2.13862 -0.829,2.57692 2.8502,1.12909 z M 1736.4612,1941.2543 c 58.3214,-58.1601 152.2829,-151.8726 208.8035,-208.25 l 102.7646,-102.5043 -0.2646,23.5 -0.2647,23.5 -185.0142,184.75 -185.0141,184.75 h -23.5246 -23.5247 z m 205.9796,69.9957 c 19.832,-19.6625 51.696,-51.2664 70.8087,-70.2308 L 2048,1906.5383 v 22.6743 22.6742 l -49.4255,47.5566 L 1949.149,2047 h -21.3833 -21.3832 z M 0.23161551,931.87564 0.49999551,910.25127 454.5,455.37564 908.49998,0.5 931.43558,0.23111362 c 12.6145,-0.1478875 22.7274,-0.1478875 22.473,0 C 953.65428,0.37900113 738.91247,214.925 476.70468,477 L -0.03676449,953.5 Z M -4.4897959e-6,655.5038 V 633.5087 L 155.75734,477.50435 C 241.42388,391.70196 383.72476,249.15431 471.98153,160.7318 L 632.44837,-0.03640115 654.72582,0.23179943 677.00327,0.5 338.50164,338.99945 -4.4897959e-6,677.49889 Z m 0,-277.52222 V 355.49789 L 177.77041,177.72958 355.54083,-0.03872446 378.02041,0.23063777 400.5,0.5 200.25,200.48264 -4.489796e-6,400.46527 Z M 0.00399551,101.99698 0.00710551,79.5 39.745326,39.731844 79.483546,-0.03631108 101.74588,0.23184446 124.00821,0.5 62.004106,62.496976 -4.4897959e-6,124.49395 Z"
       id="path1" />
  </g>
</svg>
