<?xml version="1.0" encoding="UTF-8" standalone="no"?>
<!-- Created with Inkscape (http://www.inkscape.org/) -->

<svg
   version="1.1"
   id="svg1"
   width="2048"
   height="2048"
   viewBox="0 0 2048 2048"
   xmlns="http://www.w3.org/2000/svg"
   xmlns:svg="http://www.w3.org/2000/svg">
  <defs
     id="defs1" />
  <g
     id="g1">
    <path
       style="fill:#000000"
       d="m 956,1866.93 c -128.74377,-3.148 -230.45824,-11.9188 -329.5,-28.4125 -76.70864,-12.7746 -138.98679,-28.9437 -179.5,-46.6031 -20.67755,-9.0132 -32.36036,-16.0799 -47.30545,-28.6142 l -2.80544,-2.3529 33.05023,-122.1424 33.05023,-122.1425 -16.38249,-92.7783 c -13.17229,-74.598 -16.81974,-93.5193 -18.6139,-96.5602 -2.82686,-4.7912 -11.2356,-10.7046 -26.49318,-18.6313 -21.39946,-11.1176 -31.5552,-18.6026 -70.57344,-52.0142 -48.40797,-41.4521 -72.85769,-64.9102 -90.23994,-86.5801 -40.91957,-51.0132 -65.4781,-111.4112 -74.60813,-183.48742 -4.5125,-35.62358 -4.98655,-62.11832 -1.53611,-85.85427 6.33155,-43.55551 24.69663,-86.53902 56.07645,-131.24705 19.04892,-27.13974 49.37113,-60.26002 71.37274,-77.95889 C 340.5186,652.51383 396.7392,629.60652 465,621.05768 c 17.08944,-2.14024 67.11319,-3.05744 83.69379,-1.53455 47.50789,4.36349 118.42965,20.89328 156.50634,36.47704 7.31493,2.9938 24.09987,9.56911 37.29987,14.6118 68.4946,26.16642 73.46896,28.27466 89.29565,37.84538 5.65263,3.41825 8.13166,4.48081 7.78094,3.33504 -1.77938,-5.81312 -3.76545,-21.75394 -4.25869,-34.18151 -1.22406,-30.8414 4.50536,-59.3688 17.26266,-85.95251 6.56536,-13.68094 11.46258,-21.65175 20.30422,-33.04749 46.43185,-59.84475 117.85656,-86.70777 191.27962,-71.94075 55.1194,11.08575 106.2469,52.49056 131.382,106.39764 10.4184,22.34431 16.4736,50.66293 16.4429,76.89906 -0.01,8.66101 -2.2637,33.91164 -3.5644,39.93778 l -0.603,2.79373 6.5856,-4.03082 c 17.5425,-10.73721 53.5017,-25.74845 121.5925,-50.75896 67.4913,-24.79031 127.115,-38.16409 179,-40.1502 95.4238,-3.65274 173.2727,19.28163 237,69.82045 22.1413,17.55916 53.7478,52.13603 73.2639,80.14916 31.0668,44.5931 48.8207,85.38301 56.8559,130.6275 2.6686,15.026 3.6531,48.62629 1.9619,66.95847 -4.6947,50.89086 -16.9554,97.12076 -36.6099,138.03976 -21.9362,45.6695 -46.6731,77.1434 -94.4718,120.2006 -57.543,51.835 -80.4963,69.7344 -107.6307,83.9327 -14.2035,7.432 -20.7409,12.1288 -24.5486,17.6367 -2.5769,3.7276 -3.8008,10.123 -18.7956,98.2165 l -16.0392,94.2292 32.9491,123.268 32.9491,123.2679 -2.192,2.347 c -6.1655,6.601 -30.5959,20.5651 -49.6921,28.4032 -84.1693,34.5476 -242.6939,60.5487 -422,69.216 -62.7605,3.0338 -162.3769,4.3165 -222,2.8585 z M 517.27194,1720.7049 C 617.84721,1691.678 740.01044,1675.3741 909,1668.425 c 40.60087,-1.6696 185.2029,-1.6787 223.5,-0.014 136.6686,5.9403 247.4247,18.5951 348.5,39.8191 19.609,4.1176 56.8292,13.1893 61.3654,14.9566 1.5073,0.5873 1.7552,0.3619 1.2914,-1.1744 -0.3157,-1.0457 -7.0808,-27.4769 -15.0334,-58.736 -7.9527,-31.2591 -14.708,-57.0833 -15.0119,-57.3871 -0.8919,-0.8919 -34.5206,-7.93 -60.8027,-12.7252 -89.2083,-16.2763 -185.773,-25.7993 -311.8088,-30.7499 -41.7008,-1.638 -192.60401,-1.63 -234,0.012 -120.98889,4.8003 -212.71483,13.6931 -302,29.2789 -27.33356,4.7713 -67.56057,13.1327 -68.7094,14.2816 -0.2783,0.2783 -7.44217,26.295 -15.91972,57.8149 -8.47755,31.52 -15.68101,58.1646 -16.0077,59.2103 -0.45719,1.4634 -0.21692,1.7566 1.04336,1.2729 0.90054,-0.3455 6.23997,-1.9566 11.8654,-3.5802 z m 49.8907,-199.0521 c 82.34046,-19.7784 182.39117,-33.2124 294.33736,-39.5214 93.1918,-5.252 215.3675,-5.8458 306,-1.4872 127.5274,6.1329 239.3884,20.677 322.4696,41.9273 6.3082,1.6135 11.6139,2.7892 11.7904,2.6127 0.1765,-0.1765 3.8822,-22.7514 8.2348,-50.1663 5.722,-36.0404 7.597,-50.0413 6.7698,-50.5525 -2.0557,-1.2705 -49.7843,-12.6511 -70.4667,-16.8023 -120.0478,-24.0954 -271.427,-35.4785 -448.2979,-33.7102 -33.275,0.3327 -72.2,1.0707 -86.5,1.64 -133.10687,5.2997 -238.01604,17.2785 -329,37.5663 -20.21752,4.5081 -49.20333,11.8217 -49.99652,12.6149 -0.34379,0.3438 11.78078,84.7127 14.03128,97.6368 0.43868,2.5193 0.97574,3.1752 2.26994,2.7722 0.93241,-0.2904 9.19349,-2.329 18.35794,-4.5303 z m 984.25276,-230.7919 c 30.8665,-29.9348 60.711,-54.8415 110.3261,-92.0723 71.3713,-53.5567 94.7852,-77.8573 115.3105,-119.6777 19.3379,-39.401 28.1403,-84.20016 26.6238,-135.50002 -1.8661,-63.12498 -17.5591,-108.46385 -53.5765,-154.78839 -37.148,-47.7787 -89.2226,-78.94781 -153.0993,-91.63714 -23.632,-4.69459 -39.0805,-6.0012 -71,-6.00511 -29.5961,-0.004 -39.1147,0.65017 -66,4.5332 -54.0202,7.80212 -115.7844,27.70339 -173.5,55.90408 -39.3409,19.22251 -64.2901,36.5479 -89.9248,62.44602 -53.3634,53.9119 -91.0722,120.08148 -116.9456,205.21036 -9.8275,32.3345 -13.6855,52.954 -16.6216,88.837 -1.0406,12.7163 -3.7185,142.1397 -2.956,142.8612 0.2464,0.2332 18.898,0.9403 41.448,1.5713 125.6192,3.5154 204.355,9.9285 302.5,24.6387 43.0856,6.4578 97.9648,16.1954 126,22.3571 4.675,1.0275 8.9119,1.914 9.4154,1.9699 0.5035,0.056 5.9035,-4.7357 12,-10.6482 z M 1516.5,1215.9776 c -8.1312,-3.0338 -28.2962,-8.4414 -45.893,-12.3071 -71.9904,-15.8147 -176.9171,-25.7076 -314.5048,-29.6526 l -23.3978,-0.6709 0.6778,-15.0206 c 2.2033,-48.8276 10.1518,-103.4867 19.0323,-130.8788 10.3611,-31.95936 37.3942,-79.21615 67.2288,-117.52364 15.2374,-19.56466 39.3161,-46.07546 52.3567,-57.64504 17.7745,-15.76947 76.082,-48.67509 107,-60.38505 64.3417,-24.36893 135.6545,-26.69451 204.7983,-6.67866 34.1994,9.90009 60.0616,23.06112 79.5643,40.48937 20.4597,18.28355 32.1941,36.5036 39.1397,60.77272 7.8704,27.5006 10.7898,76.47756 6.0173,100.94968 -4.7473,24.34332 -15.6776,47.00582 -34.3323,71.18392 -8.2079,10.638 -43.2079,45.5933 -74.6963,74.6008 -30.0077,27.6434 -47.5852,46.3269 -68.5377,72.8504 -5.0177,6.3519 -9.4224,11.5171 -9.7882,11.4783 -0.3658,-0.039 -2.4651,-0.742 -4.6651,-1.5628 z m -990.84058,80.0836 c 55.06944,-11.6076 144.76137,-25.7538 205.34058,-32.3864 60.57794,-6.6324 130.59616,-10.5502 226.25,-12.6596 l 30.75,-0.6781 v -14.3084 c 0,-23.9174 -1.93724,-98.7812 -3.05134,-117.9178 -2.80129,-48.1169 -8.66124,-81.1526 -20.48766,-115.5 C 942.61315,939.15829 914.81325,886.93589 879.22672,842.49742 866.59409,826.72249 842.80745,802.02026 831.5,792.93361 772.75752,745.72823 666.00832,703.46737 577,692.17981 c -42.82361,-5.43067 -88.32807,-4.33304 -126.34977,3.04772 -42.47119,8.2445 -80.18954,25.28385 -111.56095,50.39792 -34.56656,27.67191 -65.38899,70.73038 -79.0885,110.48543 -23.65268,68.63845 -19.183,158.58112 10.94475,220.23952 6.53051,13.3651 19.83427,34.3477 28.32793,44.6787 19.69597,23.9565 44.67079,46.4203 88.22654,79.3563 27.92761,21.1183 49.73219,38.1713 69.93337,54.6937 16.5736,13.5554 47.05332,39.9864 49.43907,42.8719 0.75485,0.9129 1.50159,1.6599 1.65942,1.6599 0.15784,0 7.86524,-1.5974 17.12756,-3.5497 z m -11.29215,-88.8086 c -16.83407,-19.8813 -34.78709,-38.6321 -70.50854,-73.6417 -39.27432,-38.4917 -68.90933,-69.7934 -78.95724,-83.398 -17.03502,-23.0649 -26.87655,-47.2567 -29.96294,-73.65302 -2.31105,-19.76514 0.19254,-58.87774 5.1175,-79.949 6.62038,-28.32499 16.40564,-46.4206 35.44395,-65.54547 21.94885,-22.04864 53.54269,-38.08888 96.07808,-48.77897 73.25667,-18.41105 145.59672,-12.67506 211.47634,16.76837 22.58084,10.09201 66.64886,35.64232 83.90572,48.64791 14.10926,10.63341 41.53916,40.61775 62.58029,68.40816 26.87412,35.49441 51.95103,79.48496 61.03164,107.06322 9.25374,28.1041 16.8861,79.2081 21.01151,140.6868 l 0.65426,9.75 -6.36892,0.013 c -3.50291,0.01 -20.09392,0.4508 -36.86892,0.9863 -153.79457,4.9094 -268.85014,18.5311 -336.77274,39.8711 l -9.27273,2.9134 z M 1026.3803,990.36088 c 1.0028,-3.9875 4.2192,-14.675 7.1475,-23.75 2.9283,-9.075 7.6165,-23.79225 10.4183,-32.70501 2.8018,-8.91275 7.1514,-21.06275 9.6658,-27 2.5144,-5.93724 6.5138,-15.57351 8.8876,-21.41392 2.3738,-5.84041 9.5892,-21.36541 16.0343,-34.5 14.4459,-29.43969 26.1619,-54.99806 32.4754,-70.84486 11.081,-27.81292 28.9323,-77.61864 30.4786,-85.03621 3.7341,-17.91209 2.9585,-39.71926 -2.0336,-57.1788 -5.4511,-19.06505 -14.8412,-34.69267 -29.9542,-49.85167 -17.9769,-18.03165 -35.9779,-27.84509 -60.9392,-33.22157 -11.2296,-2.41876 -42.0417,-2.3495 -56.0608,0.12601 -24.2649,4.28471 -43.30797,13.434 -57.5,27.62603 -19.03527,19.03527 -28.30654,44.51559 -29.65459,81.5 -0.77594,21.28851 0.81527,30.38644 10.0307,57.35163 19.59997,57.35132 28.05611,77.56753 60.9226,145.64837 17.77283,36.81529 19.12246,40.45425 40.33349,108.75 3.7153,11.9625 7.0183,21.75 7.3399,21.75 0.3217,0 1.4054,-3.2625 2.4082,-7.25 z M 1023,824.76751 c 0,-4.38178 -13.5034,-41.20912 -21.406,-58.38015 -10.42982,-22.66189 -20.32972,-47.00154 -24.79212,-60.95319 -3.04356,-9.51566 -3.30055,-11.34033 -3.28483,-23.32329 0.0138,-10.54861 0.43028,-14.31998 2.20844,-20 6.36144,-20.32052 20.01971,-29.95611 44.23181,-31.20447 29.0729,-1.49899 47.2946,8.91475 54.2258,30.99027 2.6743,8.51727 3.4597,25.5456 1.486,32.2142 -3.9405,13.31323 -19.1094,51.54514 -25.435,64.10647 -9.095,18.06088 -15.7279,33.60856 -17.7447,41.59425 -2.7054,10.7118 -7.9504,26.79422 -8.7394,26.79681 -0.4125,10e-4 -0.75,-0.82705 -0.75,-1.8409 z M 988,414.11088 v -65.5 h -44.7899 c -48.95283,0 -52.75905,-0.36298 -60.60013,-5.7791 -7.61862,-5.26246 -11.58623,-14.75526 -11.58623,-27.7209 0,-13.07743 3.82326,-22.2346 11.48386,-27.50523 8.2617,-5.68419 11.40423,-5.99477 60.65764,-5.99477 h 44.74505 l 0.29485,-48.35299 0.29486,-48.353 3.50811,-6.897 c 2.71249,-5.33279 4.60457,-7.63101 8.34269,-10.13341 6.7919,-4.54675 11.6016,-5.71426 23.6492,-5.74062 13.4859,-0.0295 19.5463,1.92809 26.0244,8.40623 8.485,8.48494 8.3826,7.75012 8.7464,62.77646 l 0.3187,48.20566 48.7052,0.29434 c 46.9901,0.28396 48.8638,0.368 53.2053,2.38617 6.7069,3.11772 10.5783,6.84924 13.6989,13.20406 2.5984,5.2913 2.8011,6.57765 2.8011,17.77481 0,11.45091 -0.1546,12.37294 -3.0104,17.95704 -3.2937,6.44034 -9.1223,11.62396 -15.2649,13.57568 -3.6636,1.16407 -45.2955,2.58443 -81.9747,2.79673 l -17.25,0.0998 v 18.33575 c 0,10.08467 -0.2984,39.33467 -0.6631,65 l -0.6632,46.66425 H 1023.3369 988 Z"
       id="path1" />
  </g>
  <path
     style="fill:#ffffff;stroke-width:2.78639"
     d="m 495.97823,1285.7834 c -15.24343,-13.8084 -79.40832,-65.5056 -121.10736,-97.5755 -94.46613,-72.6519 -127.9565,-135.1153 -127.63143,-238.04736 0.2506,-79.34881 25.02856,-138.37273 79.679,-189.80443 44.95552,-42.30778 89.58755,-61.19807 161.6264,-68.40759 94.46495,-9.45389 230.5412,27.34411 319.69758,86.45323 80.74127,53.53005 156.39046,185.11536 171.20308,297.79315 2.16937,16.502 4.81341,62.2911 5.87569,101.7534 l 1.93136,71.7497 -27.60177,0.029 c -120.26697,0.1249 -263.62617,13.6088 -388.4399,36.5353 -67.9148,12.4751 -60.88339,12.5198 -75.23265,-0.4785 z m 67.44624,-77.6296 c 63.86631,-15.618 152.05166,-25.4699 278.06669,-31.0649 39.07918,-1.7352 71.40047,-3.4872 71.82506,-3.8934 1.70285,-1.6292 -5.48449,-69.0937 -10.77661,-101.1556 -6.41932,-38.8909 -11.3192,-54.6596 -26.18352,-84.26303 C 840.03727,915.44515 784.50033,853.09348 727.62024,820.7902 649.0871,776.18974 583.34736,762.55067 504.32583,774.46316 c -56.33881,8.49306 -101.80482,28.13536 -129.82201,56.08588 -29.23451,29.16495 -40.36057,62.58584 -40.74714,122.3979 -0.40852,63.20736 8.95178,79.37616 99.06667,171.12606 35.50145,36.1455 70.11082,72.3461 76.90972,80.4457 6.7989,8.0995 13.95299,14.1158 15.89794,13.3695 1.94496,-0.7464 18.95203,-5.1269 37.79346,-9.7344 z"
     id="path2" />
  <path
     style="fill:#ffffff;stroke-width:2.78639"
     d="m 1010.3554,950.84508 c -8.4,-26.82373 -23.09853,-63.53317 -39.88064,-99.60154 -28.05506,-60.29641 -33.68092,-73.934 -51.72571,-125.38776 -10.21174,-29.11825 -11.2184,-34.46007 -11.02692,-58.51428 0.29333,-36.84922 7.48287,-58.9274 25.66881,-78.82572 23.70534,-25.93741 60.92827,-37.24038 106.95236,-32.47671 56.6095,5.85929 102.1075,57.90819 102.0681,116.76404 -0.016,23.90472 -24.6273,91.69777 -61.2398,168.68805 -22.9563,48.27333 -31.9937,70.91466 -45.8736,114.92671 l -11.6395,36.90769 z m 21.9921,-144.66552 c 4.0545,-12.52505 10.5295,-29.00397 14.3888,-36.61983 3.8592,-7.61586 12.6961,-28.37178 19.6374,-46.12428 11.3568,-29.04506 12.4707,-33.93103 11.1232,-48.79181 -3.0043,-33.13168 -29.8769,-50.85506 -66.6484,-43.95686 -17.43147,3.27007 -25.94922,9.24703 -33.07039,23.20569 -9.68472,18.98362 -6.82405,43.61535 9.65207,83.10889 7.35244,17.62395 18.50792,45.52272 24.78982,61.99728 6.282,16.47456 11.7219,29.95374 12.0886,29.95374 0.3668,0 3.9843,-10.24777 8.0389,-22.77282 z"
     id="path3" />
  <path
     style="fill:#ffffff;stroke-width:2.78639"
     d="m 1493.5075,1291.1623 c -114.2541,-22.7565 -204.869,-32.0418 -394.018,-40.375 l -38.7527,-1.7073 1.7894,-73.621 c 1.0987,-45.2008 3.5241,-84.6113 6.2828,-102.091 9.8346,-62.3141 47.9814,-153.98416 86.0542,-206.79582 22.6412,-31.40599 61.2311,-70.52539 85.4605,-86.63309 23.7457,-15.78608 79.5437,-42.69621 115.2573,-55.58595 105.5717,-38.10297 212.0929,-41.96927 290.7694,-10.55378 62.6346,25.00996 117.3142,80.55271 139.4061,141.60675 12.2939,33.97583 15.3394,53.99197 15.2648,100.32722 -0.075,46.48957 -3.7178,67.72287 -17.9518,104.63277 -17.8115,46.1868 -45.5069,77.9863 -112.626,129.3159 -51.8381,39.6435 -74.3832,58.0614 -104.9796,85.7621 -14.8284,13.4249 -27.9941,24.2642 -29.2572,24.0871 -1.2631,-0.177 -20.4777,-3.943 -42.6992,-8.3689 z m 48.6198,-95.799 c 10.3286,-12.2602 44.1527,-46.9545 75.1645,-77.0987 81.3144,-79.0392 93.3866,-100.0836 93.4957,-162.98275 0.1278,-73.69201 -16.6696,-111.9465 -62.6626,-142.70849 -22.5338,-15.07153 -55.0073,-27.79842 -90.5303,-35.48025 -31.8696,-6.89176 -101.0546,-7.12942 -131.3531,-0.4512 -44.6841,9.84901 -96.5577,33.38418 -140.4315,63.71407 -46.7834,32.34136 -111.8509,121.73144 -132.7558,182.38072 -8.613,24.9879 -17.1501,76.4739 -20.3727,122.8645 l -1.963,28.2569 41.3782,1.8147 c 112.3783,4.9287 183.1918,10.6486 242.9501,19.6241 34.9986,5.2567 77.6892,14.3629 91.7418,19.5691 5.7218,2.1199 11.7884,3.6144 13.4813,3.3213 1.6929,-0.2931 11.5287,-10.5639 21.8574,-22.824 z"
     id="path4" />
  <path
     style="fill:#ffffff;stroke-width:2.78639"
     d="m 547.53319,1519.0014 c -1.93502,-8.5715 -12.5123,-83.1616 -12.53034,-88.3628 -0.0253,-7.2955 88.11554,-26.4446 171.36563,-37.2302 168.77809,-21.8664 410.04502,-24.1735 593.48462,-5.6752 70.9295,7.1526 200.9294,29.9492 212.8692,37.3284 2.3067,1.4256 1.1083,15.0291 -4.4089,50.0472 -7.1261,45.2305 -7.9156,48.0126 -13.281,46.7964 -118.0862,-26.7671 -219.9334,-38.6752 -375.3467,-43.8858 -202.96741,-6.805 -426.77952,10.1898 -550.58185,41.8076 l -20.2186,5.1636 z"
     id="path5" />
  <path
     style="fill:#ffffff;stroke-width:2.78639"
     d="m 507.20341,1718.5088 c 0.13337,-3.5011 30.05306,-109.7771 31.23934,-110.9633 1.70461,-1.7046 52.62917,-11.9058 89.88922,-18.0065 217.78469,-35.6586 550.94213,-36.6522 778.79733,-2.3226 34.2325,5.1577 103.115,18.2176 104.7343,19.8574 1.4496,1.4681 29.3585,111.3213 28.4999,112.1799 -0.5045,0.5045 -16.5825,-2.7084 -35.7289,-7.1399 -264.9011,-61.312 -704.11398,-62.4819 -949.18473,-2.5283 -49.46232,12.1004 -48.35971,11.8964 -48.24646,8.9233 z"
     id="path6" />
  <path
     fill="none"
     stroke="#d4d4d4"
     stroke-width="25"
     d="M 0,0 H 2048 V 2048 H 0 Z"
     id="path7" />
  <path
     fill="#d4d4d4"
     stroke="#d4d4d4"
     stroke-width="2.79"
     d="M 13.931973,1024 V 12.538776 H 1024 2034.068 V 1024 2035.4612 H 1024 13.931973 Z M 1228.8,1862.8099 c 151.9204,-12.1132 262.2387,-30.2288 341.3333,-56.0511 33.5751,-10.9613 75.4475,-31.4979 80.4762,-39.4701 1.9227,-3.0481 -6.7178,-39.4009 -30.167,-126.9206 -32.8204,-122.4955 -32.8578,-122.671 -29.8928,-140.3276 19.4782,-115.9923 29.4423,-169.16 32.6364,-174.145 2.1148,-3.3005 11.1052,-10.0809 19.9785,-15.0675 35.565,-19.9866 93.3825,-66.9645 138.4923,-112.5277 55.1025,-55.6565 88.4342,-124.5927 100.8174,-208.50967 13.9589,-94.59495 -12.8451,-176.27869 -85.2498,-259.79376 -46.5285,-53.66819 -99.3408,-86.087 -168.5769,-103.48079 -22.2177,-5.58162 -37.5558,-7.31186 -75.6928,-8.53868 -54.7078,-1.75992 -85.8372,1.30378 -134.3926,13.22659 -51.3008,12.59699 -150.8929,48.54652 -192.059,69.32709 l -15.8148,7.98327 v -38.00138 c 0,-31.5256 -1.0531,-41.32521 -6.18,-57.50617 -8.7247,-27.5364 -24.1233,-52.36254 -46.7615,-75.39047 -28.4512,-28.94117 -59.6667,-45.85926 -97.5238,-52.85565 -11.3374,-2.09526 -15.8654,-3.70997 -10.8135,-3.85615 7.8158,-0.22614 8.8651,-1.30395 10.4183,-10.70045 0.9499,-5.74694 1.7409,-35.21306 1.7577,-65.48027 l 0.031,-55.03129 h 45.5598 c 26.1577,0 49.3326,-1.31526 54.4193,-3.0885 11.2797,-3.9321 17.0495,-15.08364 17.0495,-32.95229 0,-11.5566 -1.4306,-15.62869 -8.1244,-23.12613 l -8.1244,-9.09975 -49.9848,-0.86797 -49.9848,-0.86798 -1.7983,-25.33423 c -0.989,-13.93383 -1.7983,-36.81702 -1.7983,-50.85152 0,-22.05548 -0.7923,-26.36775 -5.8403,-31.78617 -11.0546,-11.86573 -30.7155,-14.92876 -48.3988,-7.54021 -16.11159,6.73186 -18.20713,14.59829 -18.20713,68.3478 v 47.50708 l -45.27891,0.004 c -62.36826,0.006 -73.25523,5.91397 -70.92661,38.48952 0.82173,11.49516 2.73144,16.48386 8.5333,22.29116 l 7.47467,7.48166 50.09876,0.87248 50.09879,0.8725 v 65.30437 65.30439 l 11.84218,0.25147 c 10.47995,0.22255 9.59855,0.66807 -7.66258,3.87315 -27.5721,5.11961 -48.65469,13.75704 -72.48878,29.69825 -35.61074,23.81791 -61.29441,57.35504 -75.47825,98.55762 -6.85578,19.91539 -7.65952,26.12189 -7.61809,58.82648 l 0.0463,36.56203 -8.60884,-5.05424 c -9.79033,-5.74786 -119.08895,-48.90445 -146.53538,-57.85951 -27.64123,-9.01864 -73.09922,-19.21966 -108.66939,-24.38602 -58.78938,-8.53885 -134.88323,-1.48621 -187.36798,17.36587 -74.91433,26.9086 -133.29377,77.67576 -182.40627,158.62175 -30.43762,50.1665 -41.41499,92.78086 -39.03551,151.53656 3.40285,84.02566 26.38648,154.53486 69.03486,211.78526 29.09509,39.0566 122.24713,122.3313 163.93967,146.5563 12.10023,7.0308 24.5059,15.5114 27.56811,18.8459 4.38961,4.7798 8.91505,24.6348 21.38723,93.8341 8.70074,48.2743 15.87523,90.9061 15.94333,94.7374 0.0681,3.8313 -14.51037,60.7275 -32.39663,126.436 l -32.52043,119.47 6.42479,6.8808 c 9.78091,10.4752 58.19318,32.7578 95.58938,43.9967 80.18458,24.0984 208.39487,43.752 335.76054,51.4692 26.81905,1.625 55.65823,3.4073 64.08708,3.9607 31.85526,2.0915 295.57339,-0.9379 331.58099,-3.8089 z"
     id="path8" />
</svg>
