<?xml version="1.0" encoding="UTF-8" standalone="no"?>
<!-- Created with Inkscape (http://www.inkscape.org/) -->

<svg
   version="1.1"
   id="svg1"
   width="2048"
   height="2048"
   viewBox="0 0 2048 2048"
   xmlns="http://www.w3.org/2000/svg"
   xmlns:svg="http://www.w3.org/2000/svg">
  <defs
     id="defs1" />
  <g
     id="g1">
    <path
       style="fill:#000000"
       d="m 341,1758.1299 v -119.5 h 76.5 76.5 v -102.2867 -102.2868 l 85.50205,-85.4461 85.50205,-85.4461 L 664.75205,1024.219 664.5,785.27379 554,700.14349 443.5,615.01318 443.24739,427.32156 442.99478,239.62993 H 579.49739 716 v 68.5 68.5 h 85.5 85.5 v -68.5 -68.5 h 137 137 v 68.5 68.5 h 85 85 v -68.5 -68.5 h 137.0026 137.0026 l -0.2526,187.68366 -0.2526,187.68366 -110.5,85.13269 -110.5,85.13268 -0.2521,238.93378 -0.252,238.9338 85.002,84.9976 85.0021,84.9977 v 102.7522 102.7522 h 76.5 76.5 v 119.5 119.5 H 1023.5 341 Z m 1143,-84.5 v -51 H 1024 564 v 51 51 h 460 460 z m 0,-183.9145 v -28.9145 l -22.9321,-21.5855 -22.9321,-21.5855 H 1024 609.86418 L 586.93209,1439.2154 564,1460.8009 v 28.9145 28.9145 h 460 460 z m -140.2887,-169.3738 -29.7888,-29.2117 0.039,-22.75 0.039,-22.75 H 1024 734 l 0.0388,22.75 0.0387,22.75 -29.78874,29.2117 -29.78875,29.2116 H 1024 1373.5 Z m -29.4766,-545.42073 0.2653,-28.70905 29.435,-23.04095 29.435,-23.04094 -174.685,-0.2528 c -96.0767,-0.13904 -253.29326,-0.13904 -349.37002,0 l -174.68502,0.2528 29.43502,23.04094 29.43502,23.04095 0.26534,28.70905 0.26533,28.70906 H 1024 1313.9693 Z m 185.0139,-170.6165 35.2514,-27.32557 0.2684,-23.17443 0.2685,-23.17444 H 1023.5 511.96314 l 0.26843,23.14559 0.26843,23.14559 36,27.29541 36,27.29541 439.7486,0.059 439.7486,0.059 z"
       id="path1" />
  </g>
  <path
     style="fill:#ffffff;stroke-width:2.78639"
     d="M 549.61633,602.89196 512.6966,574.72494 v -21.95839 -21.95839 h 509.9102 509.9102 l -0.01,22.98776 -0.01,22.98775 -35.3905,27.16735 -35.3905,27.16735 -437.5938,-0.0297 -437.59375,-0.0297 z"
     id="path2" />
  <path
     style="fill:#ffffff;stroke-width:2.78639"
     d="m 735.60816,773.35422 v -27.73421 l -27.8852,-21.72429 -27.8852,-21.72429 172.99369,-0.71777 c 95.14653,-0.39478 250.01955,-0.39478 344.16225,0 l 171.1686,0.71777 -27.8853,21.72429 -27.8852,21.72429 v 27.73421 27.73422 H 1024 735.60816 Z"
     id="path3" />
  <path
     style="fill:#ffffff;stroke-width:2.78639"
     d="m 707.04762,1320.4367 28.56054,-26.6634 v -23.4309 -23.4308 H 1024 1312.3918 l -0.1022,22.9877 -0.1021,22.9878 28.6627,27.0923 28.6627,27.0923 -345.5129,0.014 -345.51293,0.014 z"
     id="path4" />
  <path
     style="fill:#ffffff;stroke-width:2.78639"
     d="m 565.6381,1489.8111 v -27.3808 l 21.97117,-21.3811 21.97118,-21.3812 h 414.86155 414.8615 l 21.5292,21.6562 21.5292,21.6562 v 27.1057 27.1057 H 1024 565.6381 Z"
     id="path5" />
  <path
     style="fill:#ffffff;stroke-width:2.78639"
     d="m 565.6381,1673.2299 v -50.1551 H 1024 1482.3619 v 50.1551 50.1551 H 1024 565.6381 Z"
     id="path6" />
  <path
     fill="none"
     stroke="#d4d4d4"
     stroke-width="25"
     d="M 0,0 H 2048 V 2048 H 0 Z"
     id="path7" />
  <path
     fill="#d4d4d4"
     stroke="#d4d4d4"
     stroke-width="2.79"
     d="M 13.931973,1024 V 12.538776 H 1024 2034.068 V 1024 2035.4612 H 1024 13.931973 Z M 1708.0599,1758.215 v -121.2082 h -76.6259 -76.6258 v -102.4171 -102.4172 l -84.9851,-84.9507 -84.985,-84.9508 0.095,-238.2539 0.095,-238.25383 109.968,-84.40834 109.968,-84.40833 V 440.51934 c 0,-97.03499 0.7973,-182.24471 1.7719,-189.35493 l 1.7719,-12.92768 H 1468.8095 1329.111 v 68.26667 68.26667 h -83.5918 -83.5919 V 306.5034 238.23673 H 1024 886.07347 v 68.26667 68.26667 H 801.08844 716.1034 V 306.5034 238.23673 H 577.77396 439.44449 l 1.77632,18.80817 c 0.97697,10.34449 1.78522,95.5015 1.79611,189.23779 l 0.0198,170.42963 109.93887,84.52547 109.9389,84.52548 0.12369,238.25383 0.12371,238.2539 -84.98503,84.9508 -84.98503,84.9507 v 102.4172 102.4171 h -76.62585 -76.62585 v 121.2082 121.2081 H 1024 1708.0599 Z"
     id="path8" />
</svg>
