<?xml version="1.0" encoding="UTF-8" standalone="no"?>
<!-- Created with Inkscape (http://www.inkscape.org/) -->

<svg
   version="1.1"
   id="svg1"
   width="2048"
   height="2048"
   viewBox="0 0 2048 2048"
   xmlns="http://www.w3.org/2000/svg"
   xmlns:svg="http://www.w3.org/2000/svg">
  <defs
     id="defs1" />
  <g
     id="g1"
     transform="translate(0,128.17415)">
    <path
       style="fill:#000000"
       d="M 1161.75,1704.3299 C 927.58749,1704.1472 736,1703.6371 736,1703.1965 c 0,-2.3077 34.43555,-37.0543 56.99999,-57.515 8.525,-7.7302 15.6392,-14.3884 15.8093,-14.7961 0.1701,-0.4077 7.906,-7.5561 17.1907,-15.8854 9.2848,-8.3293 17.0206,-15.481 17.1907,-15.8926 0.1701,-0.4117 5.7093,-5.599 12.3093,-11.5274 6.6,-5.9283 13.5256,-12.3713 15.3902,-14.3177 1.8647,-1.9464 8.3897,-8.0129 14.5,-13.481 6.1104,-5.4682 12.4598,-11.4022 14.1098,-13.1868 1.65,-1.7846 8.175,-7.9176 14.5,-13.6289 19.0536,-17.2048 33.3728,-32.0825 42.7961,-44.4656 2.9298,-3.85 5.8697,-7.675 6.533,-8.5 11.5676,-14.3864 28.7535,-47.0957 38.35511,-73 14.1318,-38.1263 19.301,-66.0875 18.473,-99.9243 l -0.1572,-6.4243 -2.25,2.0493 c -1.2375,1.1272 -3.375,2.6291 -4.75,3.3376 -1.375,0.7086 -4.7909,3.0148 -7.5909,5.125 -2.7999,2.1102 -5.45341,3.8367 -5.89641,3.8367 -0.4431,0 -3.1023,1.5198 -5.9092,3.3774 -4.4399,2.9382 -12.7604,7.5982 -23.1035,12.9393 -6.537,3.3756 -21.2711,9.9904 -26,11.6725 -2.75,0.9782 -9.95,3.4869 -16,5.5749 -6.05,2.088 -15.5,5.4981 -21,7.578 -5.5,2.0798 -11.35,4.094 -13,4.4759 -1.65,0.3819 -6.1885,2.1398 -10.0856,3.9064 -3.8971,1.7666 -8.8471,3.7798 -11,4.4737 -10.2238,3.2954 -50.8753,22.2945 -74.4144,34.7787 -23.33127,12.374 -54.32429,31.8254 -68.47156,42.9732 -2.96645,2.3375 -5.65357,4.25 -5.97139,4.25 -1.00491,0 -13.30186,10.0748 -27.42168,22.4665 -14.71199,12.9113 -32.99252,30.6982 -40.63064,39.5335 -2.61511,3.025 -5.92834,6.85 -7.36272,8.5 -5.68161,6.5357 -12.8194,15.7583 -21.28332,27.5 -2.50765,3.4788 -23.09153,36.7659 -26.28083,42.5 -0.91773,1.65 -3.43539,5.925 -5.59478,9.5 -2.1594,3.575 -5.81917,9.875 -8.13284,14 -2.31366,4.125 -4.51368,7.725 -4.88891,8 -0.37524,0.275 -1.37413,1.85 -2.21975,3.5 -0.84563,1.65 -3.40038,5.7 -5.67723,9 -2.27686,3.3 -4.90521,7.125 -5.84079,8.5 -6.22912,9.1548 -18.2009,21.7451 -23.22355,24.4235 -1.375,0.7332 -4.975,2.6892 -8,4.3468 -12.37662,6.7817 -43.33188,11.1001 -59.55292,8.3078 -11.22928,-1.933 -22.87006,-5.8804 -30.99157,-10.5093 -8.03501,-4.5795 -24.2308,-18.8519 -27.62622,-24.3453 -1.11386,-1.8021 -2.56046,-3.8271 -3.21467,-4.5 -0.65421,-0.6729 -2.23885,-2.9385 -3.52142,-5.0347 -1.66495,-2.7211 -2.79834,-3.6305 -3.96257,-3.1795 -3.36088,1.3019 -21.29917,5.3806 -28.8228,6.5535 -4.29431,0.6695 -17.03283,1.2667 -28.30783,1.3272 l -20.5,0.11 -8,-3.3826 c -4.4,-1.8605 -11.15,-4.6173 -15,-6.1262 -17.30442,-6.782 -36.77143,-17.2622 -47.98235,-25.8317 -6.69889,-5.1205 -30.80793,-28.9988 -37.01765,-36.6633 -6.65078,-8.209 -16.56284,-21.8074 -18.22,-24.9962 -0.85749,-1.65 -1.89024,-3.225 -2.29501,-3.5 -1.99093,-1.3526 -11.47632,-22.4578 -15.37906,-34.2187 -9.93496,-29.9389 -15.53628,-68.6189 -14.30471,-98.7813 1.51615,-37.132 16.75232,-75.2801 50.52351,-126.5 3.62636,-5.5 6.95477,-10.45 7.39646,-11 0.4417,-0.55 3.06579,-4.15 5.83132,-8 2.76552,-3.85 5.57897,-7.675 6.25211,-8.5 0.67313,-0.825 2.32522,-3.075 3.6713,-5 3.62514,-5.1842 16.18659,-21.3453 17.48841,-22.5 0.6201,-0.55 1.79267,-1.9675 2.60572,-3.1501 0.81304,-1.1825 3.26739,-4.2861 5.4541,-6.8969 2.18672,-2.6107 5.55085,-6.6253 7.47585,-8.9213 1.925,-2.296 5.3,-6.346 7.5,-9 2.2,-2.654 5.575,-6.6994 7.5,-8.9897 1.925,-2.2903 5.075,-6.1284 7,-8.5293 1.925,-2.4008 4.85,-6.0329 6.5,-8.0713 1.65,-2.0384 4.8,-6.074 7,-8.968 2.2,-2.894 5.15369,-6.6595 6.56375,-8.3676 1.41006,-1.7082 3.63838,-4.6808 4.95182,-6.6058 1.31344,-1.925 2.66445,-3.725 3.00225,-4 0.86028,-0.7003 11.71566,-16.0279 16.64327,-23.5 1.45084,-2.2 2.93187,-4.225 3.29119,-4.5 0.35931,-0.275 1.74025,-2.3 3.06876,-4.5 1.3285,-2.2 2.79082,-4.45 3.24958,-5 0.45877,-0.55 2.67415,-3.925 4.92307,-7.5 2.24893,-3.575 5.09664,-8.075 6.32826,-10 9.31907,-14.5656 24.1351,-43.8938 29.30044,-58 7.94283,-21.6913 9.75298,-30.6483 10.60995,-52.5 1.02171,-26.05234 5.33792,-57.32309 9.86893,-71.5 3.57473,-11.18482 9.99274,-24.13686 17.50394,-35.32427 3.68213,-5.48429 7.77534,-11.5924 9.096,-13.57358 1.32067,-1.98118 2.70878,-3.82715 3.0847,-4.10215 0.37592,-0.275 3.10188,-4.1 6.05769,-8.5 4.822,-7.17797 10.79048,-14.96395 14.9564,-19.51086 0.825,-0.90044 3.75,-4.2991 6.5,-7.55257 7.4195,-8.77786 20.94537,-22.90595 39.67029,-41.43657 l 16.67302,-16.5 -4.93104,-13 C 510.76906,708.57703 499.21061,664.72239 493.0987,624 c -6.19487,-41.27506 -8.29448,-89.22044 -5.50057,-125.60701 l 0.54571,-7.10701 8.17808,2.30337 c 4.49794,1.26685 9.97808,3.02184 12.17808,3.89996 l 4,1.5966 -2.5,-2.07474 c -1.375,-1.1411 -3.81806,-2.78865 -5.42902,-3.66121 -1.61097,-0.87256 -5.0421,-3.22076 -7.62475,-5.21822 -2.58265,-1.99746 -5.98958,-4.40656 -7.57097,-5.35357 -2.759,-1.65221 -7.06196,-4.61499 -17.87526,-12.30791 -5.11851,-3.64147 -15.41108,-10.82316 -22.51615,-15.71076 L 445,452.01901 V 283.0095 114 H 581.5 718 v 62 62 h 85.49999 85.5 V 176 114 H 1026 1163 v 62 62 h 85 85 v -62 -62 h 137 137 v 168.99373 168.99373 l -3.9312,2.75627 c -2.1621,1.51595 -6.8757,4.78127 -10.4747,7.25627 -9.9558,6.84656 -19.5477,13.52438 -25.0941,17.47026 -9.1885,6.53698 -14.9739,10.54031 -18,12.45555 -1.65,1.04429 -5.25,3.51935 -8,5.50015 -7.8027,5.62023 -14.7217,10.42505 -18,12.49985 -1.65,1.04429 -5.25,3.51935 -8,5.50015 -8.8519,6.37596 -14.9311,10.58842 -17.8261,12.35221 -1.5543,0.94701 -5.2178,3.52183 -8.1411,5.72183 -2.9232,2.2 -6.6015,4.77482 -8.1739,5.72183 -2.9008,1.74705 -8.8039,5.82999 -17.8589,12.35221 -2.75,1.9808 -6.35,4.45586 -8,5.50015 -3.0614,1.93757 -9.0706,6.09787 -18,12.46192 -2.75,1.95993 -6.4654,4.5536 -8.2564,5.7637 -1.791,1.21011 -6.741,4.63452 -11,7.6098 -4.259,2.97529 -10.2186,7.1124 -13.2436,9.19357 -3.025,2.08117 -8.65,5.9551 -12.5,8.60873 l -7,4.82477 v 67.41166 67.41165 l 4.6087,2.70777 c 2.5348,1.48927 5.6848,3.04902 7,3.4661 1.3152,0.41708 4.0583,1.81027 6.0957,3.09598 2.0374,1.28571 6.9874,4.07155 11,6.19076 12.5312,6.6182 25.4088,14.12988 38.7956,22.62984 3.575,2.26996 7.2456,4.55973 8.1568,5.08838 3.039,1.76304 14.2869,9.34911 18.7947,12.6759 2.4483,1.8069 5.5983,3.91209 7,4.67819 1.4017,0.7661 4.636,3.1286 7.1873,5.25 2.5513,2.1214 4.9778,3.85709 5.3922,3.85709 0.4143,0 3.1237,2.025 6.0207,4.5 2.897,2.475 5.5737,4.5 5.9483,4.5 0.3746,0 3.0028,1.92997 5.8405,4.28882 2.8377,2.35885 6.5807,5.39635 8.3178,6.75 21.5352,16.78178 52.8008,45.76936 73.1786,67.84684 4.7647,5.16211 9.7881,10.6027 11.1631,12.09018 2.4541,2.65484 7.5832,8.60322 15.9728,18.52416 2.3255,2.75 5.1835,6.125 6.3511,7.5 3.0105,3.54534 9.8563,12.02673 12.1958,15.10963 2.6709,3.51971 14.1623,18.77699 16.4872,21.89037 1.6043,2.14833 7.784,10.6338 13.7605,18.89482 0.9529,1.31715 2.4076,3.41704 3.2326,4.66643 0.825,1.24938 5.9554,8.94675 11.4009,17.10515 13.5169,20.251 21.4312,32.7958 31.1239,49.3336 2.0952,3.575 4.7888,8.075 5.9858,10 8.0528,12.9513 40.4894,74.9129 40.4894,77.3445 0,0.2356 2.0577,4.867 4.5726,10.292 5.838,12.5933 6.391,13.8503 11.3769,25.8635 2.2827,5.5 4.5577,10.9 5.0556,12 3.9321,8.6874 18.8037,49.1866 24.7866,67.5 5.9083,18.0853 16.6829,55.9739 21.1123,74.241 18.402,75.8902 28.1704,140.9792 34.0316,226.759 3.6633,53.613 7.8062,135.5915 6.8981,136.4996 -0.8088,0.8089 -297.6693,1.1545 -713.0837,0.8303 z M 1760.9935,1602.25 c -0.01,-63.7396 -0.7495,-88.6934 -3.5361,-118.75 -6.938,-74.8341 -21.5538,-140.8698 -50.0212,-226 -8.004,-23.9358 -22.4117,-63.2254 -26.4026,-72 -0.5003,-1.1 -4.0359,-9.425 -7.8568,-18.5 -12.5012,-29.691 -24.6261,-54.3146 -42.3473,-86 -14.2387,-25.4587 -16.3662,-29.1469 -17.6478,-30.5939 -0.5329,-0.6016 -1.7297,-2.5652 -2.6597,-4.3636 -0.93,-1.7983 -3.6907,-6.1908 -6.1351,-9.7611 -2.4443,-3.5703 -5.0958,-7.7516 -5.8922,-9.2917 -0.7965,-1.5401 -2.0379,-3.4054 -2.7588,-4.145 -0.7209,-0.7396 -2.4021,-3.1447 -3.7359,-5.3447 -1.3338,-2.2 -3.0074,-4.5976 -3.7191,-5.328 -0.7117,-0.7304 -1.7871,-2.2492 -2.3897,-3.3752 -1.0177,-1.9016 -6.1789,-9.03201 -9.4273,-13.02417 -0.7731,-0.95005 -2.6035,-3.53755 -4.0676,-5.75 -1.4641,-2.21245 -2.9398,-4.02343 -3.2792,-4.02442 -0.3394,-9.8e-4 -1.8959,-2.02598 -3.4589,-4.5 -1.563,-2.47401 -3.1535,-4.49821 -3.5344,-4.49821 -0.3809,0 -1.5268,-1.41216 -2.5463,-3.13813 -1.0196,-1.72598 -2.5852,-3.86956 -3.4791,-4.76351 -0.894,-0.89396 -2.7236,-3.1943 -4.0659,-5.11187 -1.3423,-1.91757 -3.4378,-4.61149 -4.6566,-5.98649 -1.2189,-1.375 -4.0946,-4.75 -6.3906,-7.5 -13.0183,-15.59302 -38.5833,-41.7804 -53.0956,-54.38835 -12.3396,-10.72024 -17.9427,-15.45588 -21.4293,-18.11165 -1.8052,-1.375 -6.751,-5.2 -10.9906,-8.5 -4.2397,-3.3 -9.9069,-7.575 -12.5938,-9.5 -12.6808,-9.08484 -22.1747,-15.63416 -24.6543,-17.00749 -1.4969,-0.82912 -5.3825,-3.41662 -8.6345,-5.75 -3.252,-2.33338 -6.3596,-4.24251 -6.9056,-4.24251 -0.5461,0 -2.5511,-1.18855 -4.4556,-2.64122 -1.9046,-1.45268 -6.6721,-4.44299 -10.5944,-6.64515 -28.7258,-16.12769 -34.1062,-19.01219 -52.6316,-28.21622 -17.5435,-8.71617 -35.5934,-17.06585 -39,-18.04088 -1.375,-0.39355 -4.75,-1.84711 -7.5,-3.23014 -2.75,-1.38302 -7.925,-3.53244 -11.5,-4.77648 -3.575,-1.24404 -9.875,-3.6207 -14,-5.28147 -15.5547,-6.26249 -51.5448,-18.0739 -68.5,-22.48069 -35.3743,-9.19406 -63.2917,-15.41304 -75.3311,-16.78106 -4.7316,-0.53764 -9.6954,-1.25172 -11.0307,-1.58684 -2.1711,-0.54492 -2.3633,-0.35272 -1.8184,1.81838 1.9658,7.83212 2.6269,22.84858 2.0853,47.36177 -0.3282,14.85 -0.2045,28.75872 0.2748,30.90827 0.9749,4.37192 0.8041,4.28273 18.3201,9.56936 14.4649,4.36577 54.8083,18.73261 66,23.50354 3.575,1.52399 8.75,3.56419 11.5,4.53377 5.5807,1.96762 17.6726,7.10828 30.5,12.96651 4.675,2.13505 13.675,6.19699 20,9.02653 6.325,2.82953 12.175,5.49183 13,5.91622 0.825,0.42439 4.875,2.4395 9,4.47802 8.1323,4.01889 9.0841,4.51025 22.5,11.6157 26.4595,14.01373 47.4648,27.1429 64.767,40.48208 2.8536,2.2 6.1641,4.675 7.3567,5.5 11.0596,7.65057 34.5071,30.25093 43.9036,42.31737 1.635,2.09955 4.3227,5.5262 5.9727,7.61478 4.23,5.35438 19.7581,26.06865 21.7902,29.06785 9.5192,14.0494 22.746,34.1038 24.0735,36.5 0.9141,1.65 3.4991,5.925 5.7444,9.5 2.2453,3.575 9.337,15.95 15.7593,27.5 33.6292,60.4789 57.9727,118.8219 84.4927,202.5 24.8568,78.4299 38.3997,152.6012 42.6349,233.5 0.5471,10.45 0.9979,34.525 1.0017,53.5 0,18.975 0.3037,47.6625 0.6662,63.75 l 0.6593,29.25 H 1689.6611 1761 Z M 474.63098,1588.6908 c 4.97768,-2.574 13.8088,-11.8661 16.338,-17.1908 1.30624,-2.75 4.56007,-8.9088 7.23072,-13.6862 4.1613,-7.4439 7.12557,-13.7451 14.26058,-30.3138 0.71055,-1.65 2.7794,-7.2189 4.59746,-12.3753 3.1364,-8.8954 3.2501,-9.6991 2.22171,-15.7028 -2.1643,-12.6351 -10.82964,-20.0542 -24.72564,-21.1696 -5.72808,-0.4598 -7.15114,-0.1885 -12.07288,2.3016 -10.29065,5.2066 -22.63068,20.167 -34.53669,41.8704 -5.53287,10.0858 -7.01118,11.9235 -17.25069,21.4442 -12.25947,11.3989 -13.71791,22.1606 -4.32786,31.935 4.33014,4.5074 19.43117,12.9413 25.63431,14.3167 5.42207,1.2023 19.22823,0.3303 22.63098,-1.4294 z M 346.5,1485.5108 c 12.27895,-4.8293 17.90243,-12.3162 19.42089,-25.8563 0.94579,-8.4337 4.81789,-17.813 10.33864,-25.0434 6.8458,-8.9656 14.46049,-14.7257 32.19825,-24.3559 2.87252,-1.5595 9.18616,-9.1885 10.53044,-12.7242 4.54934,-11.9657 -4.26411,-27.3626 -20.32407,-35.5057 l -8.42939,-4.2741 -9.4833,0.4147 c -8.74187,0.3824 -10.17789,0.754 -18.36738,4.753 -20.18508,9.8566 -41.1532,27.8297 -52.60415,45.0905 -6.21746,9.3719 -11.55021,21.0815 -14.1395,31.0471 -6.50562,25.0388 -3.68121,38.3605 9.54896,45.0391 8.29265,4.1861 11.95559,4.8787 23.81061,4.502 8.57671,-0.2726 11.7822,-0.838 17.5,-3.0868 z m 715.72,-229.5142 c 11.3316,-3.2716 45.4939,-49.9344 61.4948,-83.9966 2.1961,-4.675 4.3387,-9.625 4.7614,-11 0.4227,-1.375 1.1115,-2.95 1.5307,-3.5 0.4191,-0.55 2.824,-7.3 5.3441,-15 8.1898,-25.0238 12.1997,-47.4317 13.3316,-74.5 0.4984,-11.919 0.3077,-15.5266 -1.0712,-20.2677 -4.841,-16.6442 -19.0729,-24.6524 -41.6114,-23.4146 -17.8621,0.981 -28.2975,5.6574 -31.5336,14.1311 -1.5624,4.0911 -1.6379,5.6239 -0.6325,12.8482 1.7653,12.6852 1.9657,19.053 1.0801,34.3126 -0.9011,15.5262 -3.6434,30.8916 -7.5531,42.3201 -4.8776,14.2583 -17.0197,37.6286 -28.3522,54.5703 -7.5831,11.3366 -9.6464,13.9039 -19.6589,24.4609 -8.5362,9.0006 -10.5969,13.2578 -10.6915,22.0879 -0.074,6.9431 1.6655,11.1099 6.5293,15.6382 4.0594,3.7793 18.0744,10.6959 24.2958,11.9903 6.4943,1.3511 16.764,1.0436 22.7366,-0.6807 z M 536.5,1079.952 c 9.54206,-4.7809 10.21806,-5.5156 17.03041,-18.5092 6.44876,-12.3001 11.43846,-20.4428 12.52697,-20.4428 0.50192,0 3.07896,1.333 5.72677,2.9622 11.45784,7.0501 39.00745,10.0738 55.71585,6.1151 17.76557,-4.2091 28.87029,-15.2298 35.34482,-35.0773 5.45537,-16.72333 4.68516,-30.21703 -2.50196,-43.83305 C 658.50429,967.68377 657,964.7332 657,964.61014 c 0,-0.12307 3.2625,-1.72201 7.25,-3.5532 26.58374,-12.20814 27.54636,-12.781 31.51118,-18.75246 3.54597,-5.34062 3.73882,-6.04817 3.73882,-13.71777 0,-7.06649 -0.41615,-8.96983 -3.29859,-15.08671 -4.15063,-8.80811 -10.39534,-14.88617 -17.44536,-16.97981 -6.24474,-1.85448 -18.11077,-1.91034 -26.43223,-0.12442 -7.08095,1.51968 -24.11884,8.00806 -35.82382,13.64245 -4.4,2.11801 -9.24787,4.31868 -10.77304,4.89036 -1.52517,0.57169 -5.12517,2.53649 -8,4.36623 -2.87483,1.82973 -6.01964,3.62479 -6.98846,3.98902 -2.32947,0.87575 -17.68265,10.98413 -25.2385,16.61677 -12.17907,9.07911 -28.69836,24.51372 -38.18335,35.6762 -8.48805,9.98922 -10.10399,12.0788 -15.02062,19.4232 -8.96711,13.3949 -12.50828,19.3292 -17.53957,29.3928 C 488.05031,1037.8063 487,1041.1384 487,1049 c 0,8.2468 1.83401,13.7405 6.4799,19.4102 8.86926,10.8237 32.04382,17.0412 43.0201,11.5418 z m 207,-249.80777 c 9.35,-4.56207 19.475,-9.57815 22.5,-11.14684 12.85372,-6.66565 31.09989,-13.84036 40.66619,-15.99065 5.5914,-1.25682 10.6485,-2.58322 11.238,-2.94755 0.7614,-0.47055 0.7501,-3.25414 -0.039,-9.6108 -1.3593,-10.95121 -0.5362,-38.25116 1.55,-51.40748 0.8249,-5.2025 1.3852,-9.57378 1.245,-9.71395 -0.7728,-0.77276 -25.0059,5.48685 -36.16029,9.34048 -13.72695,4.74241 -33.77976,13.59684 -41.76502,18.44157 -2.62077,1.59005 -5.10139,2.89099 -5.5125,2.89099 -0.71487,0 -8.83244,5.21912 -21.72248,13.96628 -3.3,2.23937 -9.59056,6.44143 -13.97902,9.33791 -10.85084,7.16179 -14.04378,12.22114 -13.96415,22.12677 0.0487,6.06225 0.5459,7.99478 3.49081,13.56904 3.74207,7.08315 11.02051,14.8986 16.79137,18.03024 2.91471,1.58172 5.18983,1.92778 11.16099,1.69768 7.11296,-0.2741 8.3773,-0.71707 24.5,-8.58369 z M 856.94869,619.36238 c 2.4611,-4.17125 11.992,-17.14375 16.5006,-22.45885 7.2981,-8.60375 13.3945,-15.47512 18.0507,-20.34538 5.858,-6.1273 26.1367,-24.39088 33.1385,-29.84542 10.873,-8.47034 17.0535,-12.95773 20.6115,-14.96522 2.0625,-1.16369 3.75,-2.48293 3.75,-2.93165 0,-0.44872 -61.2,-0.81586 -136,-0.81586 C 725.87439,528 677,528.34833 677,528.96927 c 0,0.5331 2.3625,2.54287 5.25,4.46615 2.8875,1.92328 8.4,5.75633 12.25,8.51789 3.85,2.76155 8.8,6.25092 11,7.75416 2.2,1.50323 6.48374,4.54651 9.51942,6.76284 3.03568,2.21633 6.24015,4.47969 7.12104,5.02969 0.8809,0.55 4.35966,3.00109 7.73058,5.44686 L 736,571.39372 v 22.70614 22.70615 l 3.75,3.06346 3.75,3.06347 55.65119,0.0335 55.6513,0.0336 z M 1316,597.19686 v -25.80314 l 6.129,-4.44686 c 3.3709,-2.44577 6.8496,-4.89686 7.7305,-5.44686 0.8809,-0.55 4.0854,-2.81336 7.1211,-5.02969 3.0357,-2.21633 7.3194,-5.25961 9.5194,-6.76284 2.2,-1.50324 7.15,-4.99261 11,-7.75416 3.85,-2.76156 9.3625,-6.59461 12.25,-8.51789 2.8875,-1.92328 5.25,-3.93305 5.25,-4.46615 C 1375,528.34666 1300.0722,528 1165.5,528 c -141.0231,0 -209.50001,0.33166 -209.50001,1.0147 0,0.55808 1.4625,1.8686 3.25,2.91225 4.1567,2.42692 17.227,11.84444 25.7771,18.57305 12.0823,9.50835 19.03851,15.70501 30.58701,27.24703 12.1832,12.17643 17.0942,17.53111 26.0527,28.40622 2.1083,2.5593 5.0997,6.1593 6.6477,8 1.548,1.84071 3.5575,4.58425 4.4656,6.09675 l 1.6511,2.75 H 1185.2156 1316 Z M 1470.4347,464.5 c 2.3492,-1.925 4.6469,-3.5 5.1061,-3.5 0.4591,0 3.4122,-2.025 6.5625,-4.5 3.1503,-2.475 6.0107,-4.5 6.3565,-4.5 0.3458,0 3.5281,-2.1375 7.0718,-4.75 3.5436,-2.6125 9.407,-6.775 13.0296,-9.25 7.267,-4.9648 17.6306,-12.24347 24.1888,-16.98844 l 4.25,-3.07494 V 396.96831 376 H 1025.5 514 v 20.91597 20.91597 l 3.75,2.93934 c 2.0625,1.61663 4.875,3.52793 6.25,4.24732 1.375,0.71939 4.79089,3.03451 7.59087,5.14469 2.79998,2.11019 5.42166,3.83671 5.82596,3.83671 0.40429,0 3.36672,2.025 6.58317,4.5 3.21645,2.475 6.21977,4.51001 6.67404,4.52224 0.45428,0.0122 1.95096,0.93054 3.32596,2.0407 2.97573,2.40256 17.84347,12.63093 22.33379,15.36469 1.74141,1.06019 4.74121,3.1826 6.66621,4.71647 l 3.5,2.78884 439.8317,0.0335 439.8317,0.0335 z"
       id="path1" />
  </g>
  <path
     style="fill:#ffffff;stroke-width:2.78639"
     d="m 807.57718,595.59203 c 121.57264,-0.40175 319.68532,-0.4017 440.25032,10e-5 120.5651,0.4018 21.0966,0.7305 -221.0411,0.73045 -242.13769,-6e-5 -340.78184,-0.32881 -219.20922,-0.73055 z"
     id="path2" />
  <path
     style="fill:#ffffff;stroke-width:2.78639"
     d="m 551.70612,570.23228 -34.82993,-24.09895 -0.81867,-20.20136 -0.81867,-20.20136 h 510.03225 510.0323 l -0.1234,20.20136 -0.1233,20.20136 -35.3366,24.38096 -35.3365,24.38095 -438.9238,-0.28201 -438.92375,-0.28201 z"
     id="path3" />
  <path
     style="fill:#ffffff;stroke-width:2.78639"
     d="m 741.73823,747.58966 c -2.05389,-2.05389 -3.34367,-12.10793 -3.34367,-26.06446 v -22.72079 l -27.81279,-19.46948 -27.81278,-19.46947 66.86688,-1.87798 c 36.77679,-1.03289 94.89272,-1.03793 129.14651,-0.0112 l 62.27963,1.86678 -20.32997,16.35462 c -21.44898,17.25482 -39.3535,35.91181 -57.68285,60.10709 l -11.082,14.62857 h -53.44264 c -37.85131,0 -54.41813,-0.97548 -56.78632,-3.34367 z"
     id="path4" />
  <path
     style="fill:#ffffff;stroke-width:2.78639"
     d="m 1042.8856,733.51837 c -17.1322,-21.11363 -41.0526,-44.08522 -63.26082,-60.75174 l -16.51128,-12.39112 99.3427,-2.15361 c 54.6385,-1.18449 145.8279,-1.18449 202.6432,0 l 103.3004,2.15361 -26.6108,18.90751 -26.6108,18.90751 v 26.3714 26.3714 h -129.0808 -129.0808 z"
     id="path5" />
  <path
     style="fill:#ffffff;stroke-width:2.78639"
     d="m 1618.0346,1705.9701 c -2.5473,-137.7396 -13.5888,-203.7217 -54.4379,-325.3116 -42.897,-127.6855 -111.0628,-249.2832 -171.365,-305.6896 -47.6183,-44.5419 -139.9707,-92.68626 -251.3211,-131.01652 l -30.5324,-10.5102 -0.7731,-39.70613 c -0.9195,-47.22792 -6.5393,-43.99386 52.3214,-30.10997 146.8249,34.63263 285.8725,112.16953 367.7172,205.04952 88.974,100.9706 154.821,230.6293 197.9484,389.7786 22.8053,84.1564 29.372,137.0539 32.1102,258.6614 l 1.7097,75.9293 h -70.8835 -70.8835 z"
     id="path6" />
  <path
     style="fill:#ffffff;stroke-width:2.78639"
     d="m 1030.9674,1380.3145 c -22.7746,-9.0815 -25.4969,-25.6094 -7.664,-46.5309 15.8737,-18.623 36.8704,-53.8371 44.3328,-74.352 4.7856,-13.156 6.337,-24.8396 7.3109,-55.0601 1.1923,-36.9982 1.4856,-38.5566 8.2605,-43.8857 5.1703,-4.067 11.2897,-5.5253 23.1854,-5.5253 20.8656,0 29.1207,3.3196 36.2053,14.5592 5.0673,8.0391 5.5529,11.9442 4.0801,32.8096 -2.4392,34.5539 -11.2079,67.281 -26.5529,99.102 -13.9133,28.852 -41.8512,69.4774 -53.2886,77.4884 -7.1406,5.0016 -25.0755,5.699 -35.8695,1.3948 z"
     id="path7" />
  <path
     style="fill:#ffffff;stroke-width:2.78639"
     d="m 702.74663,958.57615 c -10.10303,-8.50114 -15.71549,-21.33351 -13.38746,-30.60915 2.04201,-8.13602 42.79429,-36.7577 69.70657,-48.95725 17.36594,-7.87212 57.11712,-20.84358 58.30783,-19.02679 0.36513,0.55713 -0.0149,15.89187 -0.84464,34.07721 l -1.50852,33.06424 -15.50717,4.78793 c -8.52894,2.63335 -29.06561,11.26465 -45.63704,19.18065 -16.57143,7.916 -33.00721,14.39272 -36.52394,14.39272 -3.51674,0 -10.08927,-3.1093 -14.60563,-6.90956 z"
     id="path8" />
  <path
     style="fill:#ffffff;stroke-width:2.78639"
     d="m 505.73061,1202.7704 c -19.6791,-12.0318 -21.65129,-22.9636 -8.87663,-49.2031 22.93849,-47.1161 60.65272,-83.9293 112.46266,-109.7759 52.27871,-26.0804 77.21882,-24.7788 87.44772,4.5638 4.77615,13.7009 -1.12858,22.6761 -22.47284,34.1591 l -18.12753,9.7524 5.06882,15.2406 c 4.24401,12.7607 4.56023,17.2948 1.9433,27.864 -4.28677,17.3133 -14.34701,31.7542 -25.96081,37.2653 -12.12898,5.7556 -43.52392,5.9445 -59.03843,0.3552 -6.13007,-2.2085 -11.99396,-4.0343 -13.03088,-4.0573 -1.03691,-0.023 -5.82463,6.8433 -10.63938,15.2585 -4.81474,8.4153 -11.45514,17.1925 -14.75645,19.5048 -8.14601,5.7057 -23.87171,5.277 -34.01955,-0.9274 z"
     id="path9" />
  <path
     style="fill:#ffffff;stroke-width:2.78639"
     d="m 306.10234,1610.4904 c -22.56279,-12.2574 -11.55657,-59.21 21.50711,-91.7496 15.36877,-15.1252 44.47437,-32.1993 54.88887,-32.1993 9.27917,0 26.39191,11.4571 31.62402,21.1726 7.2318,13.4286 3.10113,22.3708 -16.2485,35.1751 -19.95137,13.2025 -28.61049,24.6047 -33.31558,43.8693 -2.96619,12.1448 -5.63902,16.5214 -13.18801,21.5945 -11.11163,7.4673 -33.51005,8.5248 -45.26791,2.1374 z"
     id="path10" />
  <path
     style="fill:#ffffff;stroke-width:2.78639"
     d="m 439.86567,1710.4815 c -21.05303,-11.7215 -22.8805,-22.0734 -6.57619,-37.2516 4.11555,-3.8313 12.27509,-15.1162 18.13232,-25.0775 11.53085,-19.6105 25.84876,-35.6668 34.73723,-38.9549 13.1097,-4.8496 32.11036,7.5361 32.11036,20.9314 0,3.5402 -4.28011,16.5852 -9.51136,28.9889 -24.09974,57.1427 -38.81158,68.1114 -68.89236,51.3637 z"
     id="path11" />
<path fill="none" stroke="#d4d4d4" stroke-width="25"
 d="M 0,0 l 2048,0 l 0,2048 l -2048,0 l 0,-2048 Z" />
</svg>
