<?xml version="1.0" encoding="UTF-8" standalone="no"?>
<!-- Created with Inkscape (http://www.inkscape.org/) -->

<svg
   version="1.1"
   id="svg1"
   width="2048"
   height="2048"
   viewBox="0 0 2048 2048"
   xmlns="http://www.w3.org/2000/svg"
   xmlns:svg="http://www.w3.org/2000/svg">
  <defs
     id="defs1" />
  <g
     id="g1">
    <path
       style="fill:#000000"
       d="m 341,1758.1299 v -119.5 h 76.5 76.5 v -102.2867 -102.2868 l 85.50205,-85.4461 85.50205,-85.4461 L 664.75205,1024.219 664.5,785.27379 554,700.14349 443.5,615.01318 443.24739,427.32156 442.99478,239.62993 H 579.49739 716 v 68.5 68.5 h 85.5 85.5 v -68.5 -68.5 h 137 137 v 68.5 68.5 h 85 85 v -68.5 -68.5 h 137.0026 137.0026 l -0.2526,187.68366 -0.2526,187.68366 -110.5,85.13269 -110.5,85.13268 -0.2521,238.93378 -0.252,238.9338 85.002,84.9976 85.0021,84.9977 v 102.7522 102.7522 h 76.5 76.5 v 119.5 119.5 H 1023.5 341 Z m 1298,0 v -51.5 H 1024 409 v 51.5 51.5 h 615 615 z m -155,-187.5 v -68 H 1024 564 v 68 68 h 460 460 z m -76.5393,-188.0059 -51.0393,-50.9941 H 1024.6308 692.84017 l -51.92008,50.5874 c -28.55605,27.8231 -51.92009,50.7731 -51.92009,51 0,0.227 195.6375,0.41 434.75,0.4067 l 434.75,-0.01 z M 1314,1024.6299 V 785.62993 H 1024 734 v 238.99997 239 h 290 290 z m 98.1717,-358.24997 63.1672,-51.25 -225.6695,-0.25218 c -124.1181,-0.1387 -327.2234,-0.1387 -451.34496,0 l -225.67556,0.25218 63.42556,51.17654 63.42556,51.17655 324.7522,0.0734 324.7522,0.0735 z M 1536,427.12993 v -119.5 h -68.5 -68.5 v 68.5 68.5 h -154 -154 v -68.5 -68.5 H 1023.5 956 v 68.5 68.5 H 802.5 649 v -68.5 -68.5 H 580.5 512 v 119.5 119.5 h 512 512 z"
       id="path1" />
  </g>
  <path
     style="fill:#ffffff;stroke-width:2.78639"
     d="M 512.6966,426.31837 V 307.8966 h 66.82479 66.82479 l 0.74528,68.96326 0.74527,68.96327 155.3415,0.71999 155.3415,0.72 V 377.57986 307.8966 H 1024 h 65.4803 v 69.68326 69.68326 l 155.3415,-0.72 155.3415,-0.71999 0.7452,-68.96327 0.7453,-68.96326 h 66.8248 66.8248 V 426.31837 544.74014 H 1024 512.6966 Z"
     id="path2" />
  <path
     style="fill:#ffffff;stroke-width:2.78639"
     d="m 640.28259,667.78874 -60.49565,-49.20915 223.02265,-0.71322 c 122.66244,-0.39228 322.65851,-0.39228 444.43571,0 l 221.413,0.71322 -60.7182,49.33368 -60.7183,49.33367 L 1024,717.12242 700.77823,716.99789 Z"
     id="path3" />
  <path
     style="fill:#ffffff;stroke-width:2.78639"
     d="M 735.60816,1025.3932 V 787.15646 H 1024 1312.3918 v 238.23674 238.2367 H 1024 735.60816 Z"
     id="path4" />
  <path
     style="fill:#ffffff;stroke-width:2.78639"
     d="m 748.20087,1431.5104 -153.19777,-0.745 48.67811,-48.7378 48.67812,-48.7378 h 331.63987 331.6398 l 50.0971,50.1551 50.097,50.1551 -277.2172,-0.6723 c -152.4695,-0.3698 -346.15626,-1.0076 -430.41503,-1.4173 z"
     id="path5" />
  <path
     style="fill:#ffffff;stroke-width:2.78639"
     d="m 565.6381,1570.1333 v -66.8734 H 1024 1482.3619 v 66.8734 66.8735 H 1024 565.6381 Z"
     id="path6" />
  <path
     style="fill:#ffffff;stroke-width:2.78639"
     d="m 409.6,1756.8218 v -50.1551 h 614.4 614.4 v 50.1551 50.1551 H 1024 409.6 Z"
     id="path7" />
  <path
     fill="none"
     stroke="#d4d4d4"
     stroke-width="25"
     d="M 0,0 H 2048 V 2048 H 0 Z"
     id="path8" />
  <path
     fill="#d4d4d4"
     stroke="#d4d4d4"
     stroke-width="2.79"
     d="M 13.931973,1024 V 12.538776 H 1024 2034.068 V 1024 2035.4612 H 1024 13.931973 Z M 1708.0599,1758.215 v -121.2082 h -76.6259 -76.6258 v -102.4171 -102.4172 l -84.9851,-84.9507 -84.985,-84.9508 0.1331,-238.2539 0.1331,-238.25383 109.9295,-84.44668 109.9295,-84.44667 V 440.481 c 0,-97.0139 0.7973,-182.20637 1.7719,-189.31659 l 1.7719,-12.92768 h -139.6984 -139.6985 v 68.26667 68.26667 h -83.5918 -83.5919 V 306.5034 238.23673 H 1024 886.07347 v 68.26667 68.26667 H 801.08844 716.1034 V 306.5034 238.23673 H 577.77396 439.44449 l 1.77632,18.80817 c 0.97697,10.34449 1.78522,95.51404 1.79611,189.26565 l 0.0198,170.4575 109.96122,84.49761 109.96124,84.49761 0.10135,238.25383 0.10136,238.2539 -84.98503,84.9508 -84.98503,84.9507 v 102.4172 102.4171 h -76.62585 -76.62585 v 121.2082 121.2081 H 1024 1708.0599 Z"
     id="path9" />
</svg>
